M48
; DRILL file KiCad 10.0.3 date 2026-07-15T17:23:05
; FORMAT={-:-/ absolute / metric / decimal}
; #@! TF.CreationDate,2026-07-15T17:23:05-04:00
; #@! TF.GenerationSoftware,Kicad,Pcbnew,10.0.3
; #@! TF.FileFunction,Plated,1,2,PTH
FMAT,2
METRIC
; #@! TA.AperFunction,Plated,PTH,ViaDrill
T1C0.300
; #@! TA.AperFunction,Plated,PTH,ComponentDrill
T2C0.600
; #@! TA.AperFunction,Plated,PTH,ComponentDrill
T3C0.750
; #@! TA.AperFunction,Plated,PTH,ComponentDrill
T4C1.000
%
G90
G05
T1
X121.5Y-77.0
X121.5Y-92.25
X121.5Y-107.5
X128.6Y-100.85
X130.05Y-92.8
X130.8Y-92.05
X131.55Y-91.3
X132.3Y-90.55
X133.0Y-89.85
X133.8Y-89.05
X134.25Y-95.25
X135.4Y-97.8
X136.0Y-83.25
X136.12Y-102.15
X137.7Y-100.3
X139.375Y-96.775
X139.8Y-102.2
X139.8Y-105.6
X139.8Y-107.5
X140.225Y-96.775
X141.8Y-76.7
X144.85Y-89.8
X145.0Y-98.9
X148.0Y-79.7
X148.0Y-80.55
X148.0Y-81.45
X148.0Y-82.35
X149.0Y-105.0
X152.2Y-89.85
X152.7Y-97.8
X154.4Y-97.05
X157.2Y-77.4
X158.0Y-89.2
X158.4Y-107.6
X159.3Y-78.8
X160.176Y-81.626
X160.2Y-79.781
X160.2Y-80.65
X160.2Y-82.5
X160.2Y-83.45
X160.2Y-84.45
X160.4Y-89.2
X160.4Y-93.05
X161.1Y-92.2
X162.4Y-90.6
X163.0Y-97.0
X163.1Y-91.4
X163.9Y-77.2
X164.2Y-99.9
X165.075Y-87.925
X165.1Y-85.3
X165.1Y-86.2
X165.1Y-87.125
X167.2Y-85.65
X168.05Y-86.55
X168.825Y-87.75
X169.675Y-87.75
X170.0Y-77.25
X170.0Y-108.5
X170.6Y-90.45
X171.55Y-90.45
X173.8Y-80.05
X176.55Y-103.8
X177.2Y-76.4
X177.2Y-81.25
X177.55Y-102.8
X179.9Y-96.4
T3
X162.8Y-105.05
X164.8Y-105.05
T4
X181.8Y-76.16
X181.8Y-78.7
X181.8Y-81.24
X181.8Y-83.78
X181.8Y-86.32
X181.8Y-88.86
X181.8Y-91.4
X181.8Y-93.94
T2
X135.48Y-104.1G85X135.48Y-105.2
G05
X135.48Y-108.45G85X135.48Y-109.25
G05
X144.12Y-104.1G85X144.12Y-105.2
G05
X144.12Y-108.45G85X144.12Y-109.25
G05
M30
