%TF.GenerationSoftware,KiCad,Pcbnew,10.0.3*%
%TF.CreationDate,2026-06-06T23:17:52-04:00*%
%TF.ProjectId,watch,77617463-682e-46b6-9963-61645f706362,rev?*%
%TF.SameCoordinates,Original*%
%TF.FileFunction,Soldermask,Bot*%
%TF.FilePolarity,Negative*%
%FSLAX46Y46*%
G04 Gerber Fmt 4.6, Leading zero omitted, Abs format (unit mm)*
G04 Created by KiCad (PCBNEW 10.0.3) date 2026-06-06 23:17:52*
%MOMM*%
%LPD*%
G01*
G04 APERTURE LIST*
G04 Aperture macros list*
%AMRoundRect*
0 Rectangle with rounded corners*
0 $1 Rounding radius*
0 $2 $3 $4 $5 $6 $7 $8 $9 X,Y pos of 4 corners*
0 Add a 4 corners polygon primitive as box body*
4,1,4,$2,$3,$4,$5,$6,$7,$8,$9,$2,$3,0*
0 Add four circle primitives for the rounded corners*
1,1,$1+$1,$2,$3*
1,1,$1+$1,$4,$5*
1,1,$1+$1,$6,$7*
1,1,$1+$1,$8,$9*
0 Add four rect primitives between the rounded corners*
20,1,$1+$1,$2,$3,$4,$5,0*
20,1,$1+$1,$4,$5,$6,$7,0*
20,1,$1+$1,$6,$7,$8,$9,0*
20,1,$1+$1,$8,$9,$2,$3,0*%
G04 Aperture macros list end*
%ADD10C,0.000000*%
%ADD11RoundRect,0.135000X-0.135000X-0.185000X0.135000X-0.185000X0.135000X0.185000X-0.135000X0.185000X0*%
%ADD12C,0.650000*%
%ADD13O,1.000000X2.100000*%
%ADD14O,1.000000X1.800000*%
%ADD15C,1.700000*%
%ADD16R,1.700000X1.700000*%
%ADD17RoundRect,0.250000X-0.350000X-0.625000X0.350000X-0.625000X0.350000X0.625000X-0.350000X0.625000X0*%
%ADD18O,1.200000X1.750000*%
%ADD19R,1.230000X1.860000*%
G04 APERTURE END LIST*
D10*
%TO.C,G\u002A\u002A\u002A*%
G36*
X156354464Y-79883754D02*
G01*
X156354464Y-80575771D01*
X156714297Y-80937408D01*
X156815513Y-81040649D01*
X156912603Y-81143870D01*
X156978460Y-81219406D01*
X157009859Y-81263520D01*
X157003575Y-81272479D01*
X156978756Y-81262500D01*
X156903027Y-81230498D01*
X156792723Y-81182944D01*
X156658381Y-81124394D01*
X156510542Y-81059401D01*
X156088064Y-80872889D01*
X154973318Y-80872889D01*
X153858572Y-80872889D01*
X153709518Y-80725686D01*
X153560464Y-80578484D01*
X153560464Y-79886453D01*
X153560464Y-79874228D01*
X154139377Y-79874228D01*
X154419735Y-79971392D01*
X154700094Y-80068555D01*
X154814668Y-80257004D01*
X154826925Y-80277099D01*
X154881884Y-80365564D01*
X154924595Y-80431746D01*
X154946671Y-80462581D01*
X154952033Y-80462114D01*
X154981380Y-80430611D01*
X155027476Y-80363793D01*
X155083000Y-80271900D01*
X155201900Y-80064090D01*
X155404237Y-79999177D01*
X155497897Y-79969245D01*
X155614382Y-79930632D01*
X155680565Y-79902357D01*
X155698312Y-79879201D01*
X155669486Y-79855942D01*
X155595952Y-79827361D01*
X155479575Y-79788237D01*
X155211464Y-79698065D01*
X155080357Y-79478632D01*
X154949250Y-79259198D01*
X154825694Y-79479652D01*
X154702137Y-79700107D01*
X154420757Y-79787167D01*
X154139377Y-79874228D01*
X153560464Y-79874228D01*
X153560464Y-79194423D01*
X153186519Y-78818391D01*
X152812575Y-78442359D01*
X153038353Y-78544845D01*
X153098396Y-78571967D01*
X153243108Y-78636701D01*
X153402055Y-78707179D01*
X153550324Y-78772332D01*
X153836518Y-78897333D01*
X154946437Y-78897333D01*
X156056355Y-78897333D01*
X156205410Y-79044536D01*
X156354464Y-79191738D01*
X156354464Y-79879201D01*
X156354464Y-79883754D01*
G37*
%TD*%
D11*
%TO.C,R1*%
X172710000Y-77000000D03*
X171690000Y-77000000D03*
%TD*%
%TO.C,R2*%
X168910000Y-77000000D03*
X167890000Y-77000000D03*
%TD*%
D12*
%TO.C,USB-C*%
X161360000Y-110395000D03*
X167140000Y-110395000D03*
D13*
X159930000Y-109875000D03*
D14*
X159930000Y-114075000D03*
D13*
X168570000Y-109875000D03*
D14*
X168570000Y-114075000D03*
%TD*%
D15*
%TO.C,IO pins*%
X182000000Y-82840000D03*
X182000000Y-85380000D03*
X182000000Y-87920000D03*
X182000000Y-80300000D03*
X182000000Y-90460000D03*
X182000000Y-93000000D03*
X182000000Y-95540000D03*
D16*
X182000000Y-77760000D03*
%TD*%
D17*
%TO.C,J3*%
X154000000Y-110550000D03*
D18*
X156000000Y-110550000D03*
%TD*%
D19*
%TO.C,BOOT*%
X179600000Y-82200000D03*
X175230000Y-82200000D03*
%TD*%
%TO.C,RESET*%
X179600000Y-77200000D03*
X175230000Y-77200000D03*
%TD*%
M02*
