M48
; DRILL file KiCad 10.0.3 date 2026-06-14T00:05:10
; FORMAT={-:-/ absolute / metric / decimal}
; #@! TF.CreationDate,2026-06-14T00:05:10-04:00
; #@! TF.GenerationSoftware,Kicad,Pcbnew,10.0.3
; #@! TF.FileFunction,Plated,1,2,PTH
FMAT,2
METRIC
; #@! TA.AperFunction,Plated,PTH,ViaDrill
T1C0.300
; #@! TA.AperFunction,Plated,PTH,ComponentDrill
T2C0.600
; #@! TA.AperFunction,Plated,PTH,ComponentDrill
T3C0.750
; #@! TA.AperFunction,Plated,PTH,ComponentDrill
T4C1.000
%
G90
G05
T1
X119.75Y-86.25
X124.25Y-102.25
X125.75Y-86.25
X128.25Y-93.2
X129.75Y-102.25
X130.75Y-92.5
X131.75Y-105.5
X141.875Y-86.95
X141.925Y-85.25
X148.25Y-84.0
X159.0Y-98.5
X160.0Y-78.0
X160.0Y-80.25
X160.0Y-81.25
X160.0Y-82.25
X160.0Y-83.25
X160.0Y-84.25
X160.0Y-85.25
X160.4Y-86.8
X160.4Y-90.0
X163.25Y-96.5
X164.0Y-107.0
X165.0Y-102.5
X165.0Y-107.0
X168.7Y-88.5
X169.5Y-88.5
X170.4Y-77.0
X170.5Y-88.5
X171.5Y-88.5
X172.6Y-82.2
X172.8Y-94.6
X173.4Y-77.2
X173.6Y-80.9
X174.2Y-91.8
X177.5Y-110.0
X178.066Y-109.434
T3
X154.0Y-110.55
X156.0Y-110.55
T4
X182.0Y-77.76
X182.0Y-80.3
X182.0Y-82.84
X182.0Y-85.38
X182.0Y-87.92
X182.0Y-90.46
X182.0Y-93.0
X182.0Y-95.54
T2
X159.93Y-109.325G85X159.93Y-110.425
G05
X159.93Y-113.675G85X159.93Y-114.475
G05
X168.57Y-109.325G85X168.57Y-110.425
G05
X168.57Y-113.675G85X168.57Y-114.475
G05
M30
