%TF.GenerationSoftware,KiCad,Pcbnew,10.0.3*%
%TF.CreationDate,2026-06-22T19:29:37-04:00*%
%TF.ProjectId,watch,77617463-682e-46b6-9963-61645f706362,rev?*%
%TF.SameCoordinates,Original*%
%TF.FileFunction,Soldermask,Top*%
%TF.FilePolarity,Negative*%
%FSLAX46Y46*%
G04 Gerber Fmt 4.6, Leading zero omitted, Abs format (unit mm)*
G04 Created by KiCad (PCBNEW 10.0.3) date 2026-06-22 19:29:37*
%MOMM*%
%LPD*%
G01*
G04 APERTURE LIST*
G04 Aperture macros list*
%AMRoundRect*
0 Rectangle with rounded corners*
0 $1 Rounding radius*
0 $2 $3 $4 $5 $6 $7 $8 $9 X,Y pos of 4 corners*
0 Add a 4 corners polygon primitive as box body*
4,1,4,$2,$3,$4,$5,$6,$7,$8,$9,$2,$3,0*
0 Add four circle primitives for the rounded corners*
1,1,$1+$1,$2,$3*
1,1,$1+$1,$4,$5*
1,1,$1+$1,$6,$7*
1,1,$1+$1,$8,$9*
0 Add four rect primitives between the rounded corners*
20,1,$1+$1,$2,$3,$4,$5,0*
20,1,$1+$1,$4,$5,$6,$7,0*
20,1,$1+$1,$6,$7,$8,$9,0*
20,1,$1+$1,$8,$9,$2,$3,0*%
%AMRotRect*
0 Rectangle, with rotation*
0 The origin of the aperture is its center*
0 $1 length*
0 $2 width*
0 $3 Rotation angle, in degrees counterclockwise*
0 Add horizontal line*
21,1,$1,$2,0,0,$3*%
%AMOutline5P*
0 Free polygon, 5 corners , with rotation*
0 The origin of the aperture is its center*
0 number of corners: always 5*
0 $1 to $10 corner X, Y*
0 $11 Rotation angle, in degrees counterclockwise*
0 create outline with 5 corners*
4,1,5,$1,$2,$3,$4,$5,$6,$7,$8,$9,$10,$1,$2,$11*%
%AMOutline6P*
0 Free polygon, 6 corners , with rotation*
0 The origin of the aperture is its center*
0 number of corners: always 6*
0 $1 to $12 corner X, Y*
0 $13 Rotation angle, in degrees counterclockwise*
0 create outline with 6 corners*
4,1,6,$1,$2,$3,$4,$5,$6,$7,$8,$9,$10,$11,$12,$1,$2,$13*%
%AMOutline7P*
0 Free polygon, 7 corners , with rotation*
0 The origin of the aperture is its center*
0 number of corners: always 7*
0 $1 to $14 corner X, Y*
0 $15 Rotation angle, in degrees counterclockwise*
0 create outline with 7 corners*
4,1,7,$1,$2,$3,$4,$5,$6,$7,$8,$9,$10,$11,$12,$13,$14,$1,$2,$15*%
%AMOutline8P*
0 Free polygon, 8 corners , with rotation*
0 The origin of the aperture is its center*
0 number of corners: always 8*
0 $1 to $16 corner X, Y*
0 $17 Rotation angle, in degrees counterclockwise*
0 create outline with 8 corners*
4,1,8,$1,$2,$3,$4,$5,$6,$7,$8,$9,$10,$11,$12,$13,$14,$15,$16,$1,$2,$17*%
G04 Aperture macros list end*
%ADD10C,0.000000*%
%ADD11RoundRect,0.237500X0.237500X-0.250000X0.237500X0.250000X-0.237500X0.250000X-0.237500X-0.250000X0*%
%ADD12RoundRect,0.150000X-0.512500X-0.150000X0.512500X-0.150000X0.512500X0.150000X-0.512500X0.150000X0*%
%ADD13RoundRect,0.237500X-0.250000X-0.237500X0.250000X-0.237500X0.250000X0.237500X-0.250000X0.237500X0*%
%ADD14RoundRect,0.150000X-0.150000X0.512500X-0.150000X-0.512500X0.150000X-0.512500X0.150000X0.512500X0*%
%ADD15RoundRect,0.250000X0.475000X-0.337500X0.475000X0.337500X-0.475000X0.337500X-0.475000X-0.337500X0*%
%ADD16RoundRect,0.225000X-0.375000X0.225000X-0.375000X-0.225000X0.375000X-0.225000X0.375000X0.225000X0*%
%ADD17RoundRect,0.250000X-0.337500X-0.475000X0.337500X-0.475000X0.337500X0.475000X-0.337500X0.475000X0*%
%ADD18RoundRect,0.237500X-0.237500X0.287500X-0.237500X-0.287500X0.237500X-0.287500X0.237500X0.287500X0*%
%ADD19RoundRect,0.250000X-0.475000X0.337500X-0.475000X-0.337500X0.475000X-0.337500X0.475000X0.337500X0*%
%ADD20R,1.300000X0.300000*%
%ADD21R,3.000000X2.000000*%
%ADD22RoundRect,0.225000X0.225000X0.375000X-0.225000X0.375000X-0.225000X-0.375000X0.225000X-0.375000X0*%
%ADD23RotRect,1.230000X1.860000X45.000000*%
%ADD24C,0.650000*%
%ADD25RoundRect,0.150000X-0.150000X-0.470000X0.150000X-0.470000X0.150000X0.470000X-0.150000X0.470000X0*%
%ADD26RoundRect,0.075000X-0.075000X-0.545000X0.075000X-0.545000X0.075000X0.545000X-0.075000X0.545000X0*%
%ADD27O,1.000000X2.100000*%
%ADD28O,1.000000X1.800000*%
%ADD29RoundRect,0.112500X-0.350000X-0.112500X0.350000X-0.112500X0.350000X0.112500X-0.350000X0.112500X0*%
%ADD30R,0.800000X0.400000*%
%ADD31R,0.400000X0.800000*%
%ADD32Outline5P,-0.600000X0.204000X-0.204000X0.600000X0.600000X0.600000X0.600000X-0.600000X-0.600000X-0.600000X0.000000*%
%ADD33R,1.200000X1.200000*%
%ADD34R,0.800000X0.800000*%
%ADD35RoundRect,0.237500X0.250000X0.237500X-0.250000X0.237500X-0.250000X-0.237500X0.250000X-0.237500X0*%
%ADD36C,1.700000*%
%ADD37R,1.700000X1.700000*%
%ADD38RotRect,1.230000X1.860000X225.000000*%
%ADD39RoundRect,0.250000X-0.350000X-0.625000X0.350000X-0.625000X0.350000X0.625000X-0.350000X0.625000X0*%
%ADD40O,1.200000X1.750000*%
%ADD41RoundRect,0.225000X-0.225000X-0.375000X0.225000X-0.375000X0.225000X0.375000X-0.225000X0.375000X0*%
%ADD42RoundRect,0.250000X0.600000X2.600000X-0.600000X2.600000X-0.600000X-2.600000X0.600000X-2.600000X0*%
G04 APERTURE END LIST*
D10*
%TO.C,G\u002A\u002A\u002A*%
G36*
X127737354Y-77298861D02*
G01*
X128218750Y-77769682D01*
X127998479Y-77770821D01*
X127778209Y-77771959D01*
X127290540Y-77301955D01*
X126802871Y-76831952D01*
X127029415Y-76829996D01*
X127255958Y-76828040D01*
X127737354Y-77298861D01*
G37*
G36*
X129528557Y-77297826D02*
G01*
X130020777Y-77767611D01*
X129794990Y-77769785D01*
X129569203Y-77771959D01*
X129087051Y-77301395D01*
X128604898Y-76830830D01*
X128820618Y-76829435D01*
X129036337Y-76828040D01*
X129528557Y-77297826D01*
G37*
G36*
X136410776Y-76782460D02*
G01*
X137400276Y-77771959D01*
X137160110Y-77771959D01*
X136919945Y-77771959D01*
X135974882Y-76795861D01*
X135029819Y-75819763D01*
X135225548Y-75806362D01*
X135421277Y-75792961D01*
X136410776Y-76782460D01*
G37*
G36*
X126488664Y-76828271D02*
G01*
X126717060Y-76828502D01*
X126223648Y-77298076D01*
X125730236Y-77767651D01*
X125495081Y-77769805D01*
X125259927Y-77771959D01*
X125387818Y-77650429D01*
X125641507Y-77409265D01*
X125841154Y-77220430D01*
X125995302Y-77077545D01*
X126112492Y-76974231D01*
X126201266Y-76904108D01*
X126270167Y-76860796D01*
X126327736Y-76837915D01*
X126382515Y-76829087D01*
X126443048Y-76827931D01*
X126488664Y-76828271D01*
G37*
G36*
X126643600Y-76176373D02*
G01*
X126481378Y-76330168D01*
X126275370Y-76525314D01*
X126044155Y-76744222D01*
X125806310Y-76969299D01*
X125601520Y-77163003D01*
X124957939Y-77771570D01*
X124721959Y-77770402D01*
X124485979Y-77769233D01*
X124787657Y-77480984D01*
X124908952Y-77365358D01*
X125078605Y-77204010D01*
X125282649Y-77010205D01*
X125507117Y-76797205D01*
X125738042Y-76578273D01*
X125825384Y-76495523D01*
X126561434Y-75798311D01*
X126801766Y-75798311D01*
X127042099Y-75798311D01*
X126643600Y-76176373D01*
G37*
G36*
X127879138Y-76832913D02*
G01*
X127946164Y-76845371D01*
X128014314Y-76876126D01*
X128096404Y-76933838D01*
X128205247Y-77027166D01*
X128353660Y-77164772D01*
X128497635Y-77301283D01*
X128991047Y-77770428D01*
X128755067Y-77770264D01*
X128519087Y-77770099D01*
X128057854Y-77316988D01*
X127897363Y-77158198D01*
X127761159Y-77021290D01*
X127659865Y-76917116D01*
X127604105Y-76856525D01*
X127596621Y-76845959D01*
X127635118Y-76835897D01*
X127733049Y-76830424D01*
X127800422Y-76830089D01*
X127879138Y-76832913D01*
G37*
G36*
X132874845Y-76831679D02*
G01*
X132948289Y-76838024D01*
X132959797Y-76842781D01*
X132930959Y-76876454D01*
X132851478Y-76959500D01*
X132731905Y-77081136D01*
X132582790Y-77230578D01*
X132498564Y-77314225D01*
X132037331Y-77770928D01*
X131801351Y-77770678D01*
X131565371Y-77770428D01*
X132058783Y-77301283D01*
X132245022Y-77125043D01*
X132382140Y-76999537D01*
X132482953Y-76916102D01*
X132560276Y-76866078D01*
X132626923Y-76840806D01*
X132695710Y-76831623D01*
X132755996Y-76830089D01*
X132874845Y-76831679D01*
G37*
G36*
X134086064Y-77283012D02*
G01*
X134246555Y-77441802D01*
X134382759Y-77578709D01*
X134484054Y-77682883D01*
X134539813Y-77743475D01*
X134547297Y-77754041D01*
X134508722Y-77764352D01*
X134410290Y-77770830D01*
X134336982Y-77771959D01*
X134256291Y-77770383D01*
X134189153Y-77759870D01*
X134122702Y-77731743D01*
X134044074Y-77677324D01*
X133940403Y-77587935D01*
X133798824Y-77454899D01*
X133639769Y-77301698D01*
X133152871Y-76831437D01*
X133388851Y-76830669D01*
X133624831Y-76829900D01*
X134086064Y-77283012D01*
G37*
G36*
X135469763Y-76829900D02*
G01*
X135930996Y-77283012D01*
X136091487Y-77441802D01*
X136227692Y-77578709D01*
X136328986Y-77682883D01*
X136384745Y-77743475D01*
X136392229Y-77754041D01*
X136353728Y-77764274D01*
X136255787Y-77770180D01*
X136188429Y-77770812D01*
X136061518Y-77762120D01*
X135962500Y-77727638D01*
X135857247Y-77652186D01*
X135791554Y-77594295D01*
X135643589Y-77458099D01*
X135487362Y-77311316D01*
X135335472Y-77166163D01*
X135200520Y-77034856D01*
X135095105Y-76929612D01*
X135031825Y-76862648D01*
X135019256Y-76845466D01*
X135057975Y-76835887D01*
X135157424Y-76829973D01*
X135244510Y-76828970D01*
X135469763Y-76829900D01*
G37*
G36*
X137361566Y-76860768D02*
G01*
X137460205Y-76927045D01*
X137499457Y-76960104D01*
X137599258Y-77049198D01*
X137727062Y-77167513D01*
X137869253Y-77301903D01*
X138012216Y-77439219D01*
X138142334Y-77566314D01*
X138245992Y-77670040D01*
X138309573Y-77737250D01*
X138322973Y-77755301D01*
X138284427Y-77764945D01*
X138186206Y-77770959D01*
X138115579Y-77771959D01*
X138035765Y-77770014D01*
X137967833Y-77758584D01*
X137898788Y-77729277D01*
X137815635Y-77673702D01*
X137705378Y-77583466D01*
X137555022Y-77450179D01*
X137401325Y-77310726D01*
X136894466Y-76849493D01*
X137117720Y-76836441D01*
X137261243Y-76835050D01*
X137361566Y-76860768D01*
G37*
G36*
X125023129Y-76835051D02*
G01*
X125096577Y-76852167D01*
X125108108Y-76864052D01*
X125078718Y-76911209D01*
X125003690Y-76991808D01*
X124947212Y-77044980D01*
X124872529Y-77113639D01*
X124745860Y-77231651D01*
X124577508Y-77389346D01*
X124377779Y-77577059D01*
X124156977Y-77785121D01*
X123956628Y-77974340D01*
X123126939Y-78758784D01*
X122905446Y-78758222D01*
X122683952Y-78757661D01*
X123091554Y-78359842D01*
X123262833Y-78193820D01*
X123476200Y-77988744D01*
X123711132Y-77764245D01*
X123947104Y-77539948D01*
X124099831Y-77395537D01*
X124307825Y-77199894D01*
X124464491Y-77055433D01*
X124580853Y-76954386D01*
X124667937Y-76888980D01*
X124736769Y-76851445D01*
X124798372Y-76834012D01*
X124863774Y-76828909D01*
X124904307Y-76828545D01*
X125023129Y-76835051D01*
G37*
G36*
X134249892Y-76829585D02*
G01*
X134320049Y-76840154D01*
X134388407Y-76868646D01*
X134468766Y-76923962D01*
X134574925Y-77015001D01*
X134720687Y-77150664D01*
X134839894Y-77263841D01*
X135004794Y-77420494D01*
X135149092Y-77557257D01*
X135260633Y-77662634D01*
X135327265Y-77725132D01*
X135338902Y-77735800D01*
X135323846Y-77755361D01*
X135241291Y-77767895D01*
X135145827Y-77770702D01*
X134993898Y-77761967D01*
X134887016Y-77728366D01*
X134785095Y-77655769D01*
X134761824Y-77635368D01*
X134629786Y-77515360D01*
X134481350Y-77377097D01*
X134329484Y-77233093D01*
X134187154Y-77095866D01*
X134067329Y-76977930D01*
X133982975Y-76891802D01*
X133947060Y-76849996D01*
X133946621Y-76848564D01*
X133985267Y-76836922D01*
X134084200Y-76829484D01*
X134164134Y-76828040D01*
X134249892Y-76829585D01*
G37*
G36*
X132026098Y-76828948D02*
G01*
X132251858Y-76829855D01*
X131587470Y-77461802D01*
X131362785Y-77675734D01*
X131133763Y-77894179D01*
X130916835Y-78101437D01*
X130728434Y-78281808D01*
X130584991Y-78419591D01*
X130579193Y-78425178D01*
X130428510Y-78569204D01*
X130321553Y-78663988D01*
X130240283Y-78719861D01*
X130166663Y-78747150D01*
X130082652Y-78756184D01*
X129999324Y-78757199D01*
X129763344Y-78757792D01*
X130278209Y-78266906D01*
X130793074Y-77776020D01*
X130578547Y-77772133D01*
X130496260Y-77768972D01*
X130427532Y-77757097D01*
X130359385Y-77727843D01*
X130278844Y-77672542D01*
X130172933Y-77582530D01*
X130028674Y-77449140D01*
X129870608Y-77299358D01*
X129377196Y-76830471D01*
X129613175Y-76830552D01*
X129849155Y-76830632D01*
X130321115Y-77278211D01*
X130486588Y-77433777D01*
X130630033Y-77566064D01*
X130740074Y-77664782D01*
X130805339Y-77719644D01*
X130817711Y-77727422D01*
X130855858Y-77700113D01*
X130944815Y-77623733D01*
X131073250Y-77508384D01*
X131229827Y-77364168D01*
X131321344Y-77278547D01*
X131800339Y-76828040D01*
X132026098Y-76828948D01*
G37*
G36*
X142157147Y-111262022D02*
G01*
X142156541Y-111265378D01*
X142151801Y-111272443D01*
X142142197Y-111283959D01*
X142127001Y-111300668D01*
X142105486Y-111323314D01*
X142076923Y-111352639D01*
X142040584Y-111389385D01*
X141995741Y-111434296D01*
X141941665Y-111488113D01*
X141877628Y-111551580D01*
X141802903Y-111625440D01*
X141716760Y-111710435D01*
X141618472Y-111807307D01*
X141534805Y-111889722D01*
X141264242Y-112156193D01*
X141264230Y-113004760D01*
X141264218Y-113853327D01*
X141098761Y-114025076D01*
X140933305Y-114196825D01*
X139568599Y-114196825D01*
X138203893Y-114196825D01*
X137590737Y-114466150D01*
X137489092Y-114510817D01*
X137392226Y-114553425D01*
X137301559Y-114593345D01*
X137218512Y-114629950D01*
X137144506Y-114662613D01*
X137080960Y-114690707D01*
X137029296Y-114713604D01*
X136990935Y-114730677D01*
X136967296Y-114741299D01*
X136960022Y-114744685D01*
X136947638Y-114748705D01*
X136945906Y-114745478D01*
X136953072Y-114737649D01*
X136972635Y-114717812D01*
X137003479Y-114687062D01*
X137044491Y-114646495D01*
X137094556Y-114597208D01*
X137152561Y-114540296D01*
X137217390Y-114476854D01*
X137287930Y-114407980D01*
X137363067Y-114334769D01*
X137403423Y-114295505D01*
X137857499Y-113853951D01*
X137857499Y-113001858D01*
X137857499Y-113001481D01*
X138558511Y-113001481D01*
X138567944Y-113005562D01*
X138593329Y-113014761D01*
X138632706Y-113028415D01*
X138684115Y-113045859D01*
X138745596Y-113066430D01*
X138815190Y-113089463D01*
X138890937Y-113114294D01*
X138906423Y-113119344D01*
X139250830Y-113231533D01*
X139403497Y-113496823D01*
X139440480Y-113560481D01*
X139474698Y-113618219D01*
X139504997Y-113668179D01*
X139530221Y-113708503D01*
X139549217Y-113737333D01*
X139560831Y-113752813D01*
X139563842Y-113754870D01*
X139570286Y-113745216D01*
X139584931Y-113721268D01*
X139606583Y-113685041D01*
X139634048Y-113638552D01*
X139666134Y-113583814D01*
X139701647Y-113522845D01*
X139720741Y-113489918D01*
X139869963Y-113232208D01*
X140213702Y-113119278D01*
X140290375Y-113094001D01*
X140361337Y-113070440D01*
X140424621Y-113049260D01*
X140478259Y-113031127D01*
X140520283Y-113016708D01*
X140548724Y-113006668D01*
X140561617Y-113001674D01*
X140562147Y-113001349D01*
X140554575Y-112997423D01*
X140530981Y-112988350D01*
X140493246Y-112974781D01*
X140443254Y-112957371D01*
X140382887Y-112936773D01*
X140314027Y-112913640D01*
X140238558Y-112888626D01*
X140216789Y-112881470D01*
X139866724Y-112766589D01*
X139716150Y-112503268D01*
X139679536Y-112439478D01*
X139645848Y-112381250D01*
X139616227Y-112330515D01*
X139591810Y-112289206D01*
X139573737Y-112259257D01*
X139563147Y-112242600D01*
X139560870Y-112239790D01*
X139555198Y-112247594D01*
X139541330Y-112269787D01*
X139520425Y-112304426D01*
X139493638Y-112349567D01*
X139462127Y-112403267D01*
X139427050Y-112463581D01*
X139407385Y-112497608D01*
X139370536Y-112561185D01*
X139336305Y-112619647D01*
X139305912Y-112670953D01*
X139280580Y-112713064D01*
X139261531Y-112743940D01*
X139249985Y-112761541D01*
X139247399Y-112764733D01*
X139236190Y-112769618D01*
X139209098Y-112779582D01*
X139168152Y-112793931D01*
X139115384Y-112811971D01*
X139052825Y-112833009D01*
X138982507Y-112856351D01*
X138906460Y-112881305D01*
X138895599Y-112884846D01*
X138819639Y-112909765D01*
X138749755Y-112933024D01*
X138687866Y-112953958D01*
X138635891Y-112971904D01*
X138595748Y-112986197D01*
X138569356Y-112996175D01*
X138558635Y-113001172D01*
X138558511Y-113001481D01*
X137857499Y-113001481D01*
X137857499Y-112149765D01*
X138029340Y-111978112D01*
X138201182Y-111806458D01*
X139563250Y-111806458D01*
X140925318Y-111806458D01*
X141520623Y-111541711D01*
X141621148Y-111497022D01*
X141717280Y-111454316D01*
X141807533Y-111414254D01*
X141890419Y-111377493D01*
X141964450Y-111344693D01*
X142028141Y-111316511D01*
X142080003Y-111293607D01*
X142118550Y-111276640D01*
X142142294Y-111266267D01*
X142148866Y-111263463D01*
X142154346Y-111261631D01*
X142157147Y-111262022D01*
G37*
%TD*%
D11*
%TO.C,R7*%
X163000000Y-105587500D03*
X163000000Y-107412500D03*
%TD*%
D12*
%TO.C,U3*%
X171137500Y-99037499D03*
X171137500Y-100937499D03*
X168862500Y-100937499D03*
X168862500Y-99987499D03*
X168862500Y-99037499D03*
%TD*%
D13*
%TO.C,R4*%
X166912500Y-103250000D03*
X165087500Y-103250000D03*
%TD*%
D11*
%TO.C,R3*%
X159750000Y-104837500D03*
X159750000Y-106662500D03*
%TD*%
D14*
%TO.C,U2*%
X157949999Y-102887500D03*
X156050001Y-102887500D03*
X156050001Y-100612500D03*
X157000000Y-100612500D03*
X157949999Y-100612500D03*
%TD*%
D15*
%TO.C,C15*%
X166000000Y-97962500D03*
X166000000Y-100037500D03*
%TD*%
D16*
%TO.C,D3*%
X162000000Y-103650000D03*
X162000000Y-100350000D03*
%TD*%
D17*
%TO.C,C2*%
X158187500Y-97000000D03*
X156112500Y-97000000D03*
%TD*%
D18*
%TO.C,D2*%
X169000000Y-105124999D03*
X169000000Y-103375001D03*
%TD*%
D15*
%TO.C,C1*%
X154500000Y-104712500D03*
X154500000Y-106787500D03*
%TD*%
D11*
%TO.C,R8*%
X166000000Y-105587500D03*
X166000000Y-107412500D03*
%TD*%
D16*
%TO.C,D1*%
X152250000Y-103650000D03*
X152250000Y-100350000D03*
%TD*%
D19*
%TO.C,C16*%
X171200000Y-94962500D03*
X171200000Y-97037500D03*
%TD*%
D20*
%TO.C,J5*%
X118500000Y-93350000D03*
X118500000Y-93850000D03*
X118500000Y-95350000D03*
X118500000Y-94850000D03*
X118500000Y-90350000D03*
X118500000Y-89850000D03*
D21*
X116150000Y-88200000D03*
X116150000Y-103000000D03*
D20*
X118500000Y-99850000D03*
X118500000Y-100850000D03*
X118500000Y-90850000D03*
X118500000Y-94350000D03*
X118500000Y-95850000D03*
X118500000Y-96350000D03*
X118500000Y-92350000D03*
X118500000Y-92850000D03*
X118500000Y-97350000D03*
X118500000Y-101350000D03*
X118500000Y-98350000D03*
X118500000Y-96850000D03*
X118500000Y-91850000D03*
X118500000Y-91350000D03*
X118500000Y-98850000D03*
X118500000Y-99350000D03*
X118500000Y-100350000D03*
X118500000Y-97850000D03*
%TD*%
D17*
%TO.C,C7*%
X133962500Y-101000000D03*
X136037500Y-101000000D03*
%TD*%
D22*
%TO.C,D5*%
X144900000Y-87500000D03*
X141600000Y-87500000D03*
%TD*%
D23*
%TO.C,SW4*%
X173454972Y-112745028D03*
X176545028Y-109654972D03*
%TD*%
D17*
%TO.C,C13*%
X130462500Y-85000000D03*
X132537500Y-85000000D03*
%TD*%
D19*
%TO.C,C3*%
X121750000Y-103462500D03*
X121750000Y-105537500D03*
%TD*%
D17*
%TO.C,C9*%
X128712500Y-98250000D03*
X130787500Y-98250000D03*
%TD*%
D19*
%TO.C,C11*%
X153500000Y-85162500D03*
X153500000Y-87237500D03*
%TD*%
D24*
%TO.C,J4*%
X161360000Y-110395000D03*
X167140000Y-110395000D03*
D25*
X161050000Y-109275000D03*
X161850000Y-109275000D03*
D26*
X163000000Y-109275000D03*
X164000000Y-109275000D03*
X164500000Y-109275000D03*
X165500000Y-109275000D03*
D25*
X166650000Y-109275000D03*
X167450000Y-109275000D03*
X167450000Y-109275000D03*
X166650000Y-109275000D03*
D26*
X166000000Y-109275000D03*
X165000000Y-109275000D03*
X163500000Y-109275000D03*
X162500000Y-109275000D03*
D25*
X161850000Y-109275000D03*
X161050000Y-109275000D03*
D27*
X159930000Y-109875000D03*
D28*
X159930000Y-114075000D03*
D27*
X168570000Y-109875000D03*
D28*
X168570000Y-114075000D03*
%TD*%
D29*
%TO.C,Q1*%
X142312500Y-81550000D03*
X142312500Y-82850000D03*
X144087500Y-82200000D03*
%TD*%
D11*
%TO.C,R5*%
X120600000Y-85712500D03*
X120600000Y-83887500D03*
%TD*%
D17*
%TO.C,C8*%
X133962500Y-98300000D03*
X136037500Y-98300000D03*
%TD*%
D30*
%TO.C,U1*%
X161750000Y-77050000D03*
X161750000Y-77900000D03*
X161750000Y-78750000D03*
X161750000Y-79600000D03*
X161750000Y-80450000D03*
X161750000Y-81300000D03*
X161750000Y-82150000D03*
X161750000Y-83000000D03*
X161750000Y-83850000D03*
X161750000Y-84700000D03*
X161750000Y-85550000D03*
X161750000Y-86400000D03*
X161750000Y-87250000D03*
X161750000Y-88100000D03*
X161750000Y-88950000D03*
D31*
X162800000Y-90000000D03*
X163650000Y-90000000D03*
X164500000Y-90000000D03*
X165350000Y-90000000D03*
X166200000Y-90000000D03*
X167050000Y-90000000D03*
X167900000Y-90000000D03*
X168750000Y-90000000D03*
X169600000Y-90000000D03*
X170450000Y-90000000D03*
X171300000Y-90000000D03*
X172150000Y-90000000D03*
X173000000Y-90000000D03*
X173850000Y-90000000D03*
X174700000Y-90000000D03*
D30*
X175750000Y-88950000D03*
X175750000Y-88100000D03*
X175750000Y-87250000D03*
X175750000Y-86400000D03*
X175750000Y-85550000D03*
X175750000Y-84700000D03*
X175750000Y-83850000D03*
X175750000Y-83000000D03*
X175750000Y-82150000D03*
X175750000Y-81300000D03*
X175750000Y-80450000D03*
X175750000Y-79600000D03*
X175750000Y-78750000D03*
X175750000Y-77900000D03*
X175750000Y-77050000D03*
D31*
X174700000Y-76000000D03*
X173850000Y-76000000D03*
X173000000Y-76000000D03*
X172150000Y-76000000D03*
X171300000Y-76000000D03*
X170450000Y-76000000D03*
X169600000Y-76000000D03*
X168750000Y-76000000D03*
X167900000Y-76000000D03*
X167050000Y-76000000D03*
X166200000Y-76000000D03*
X165350000Y-76000000D03*
X164500000Y-76000000D03*
X163650000Y-76000000D03*
X162800000Y-76000000D03*
D32*
X167100000Y-81350000D03*
D33*
X167100000Y-83000000D03*
X167100000Y-84650000D03*
X168750000Y-81350000D03*
X168750000Y-83000000D03*
X168750000Y-84650000D03*
X170400000Y-81350000D03*
X170400000Y-83000000D03*
X170400000Y-84650000D03*
D34*
X161750000Y-76000000D03*
X161750000Y-90000000D03*
X175750000Y-90000000D03*
X175750000Y-76000000D03*
%TD*%
D35*
%TO.C,R6*%
X124912500Y-85800000D03*
X123087500Y-85800000D03*
%TD*%
D36*
%TO.C,J2*%
X182000000Y-82840000D03*
X182000000Y-85380000D03*
X182000000Y-87920000D03*
X182000000Y-80300000D03*
X182000000Y-90460000D03*
X182000000Y-93000000D03*
X182000000Y-95540000D03*
D37*
X182000000Y-77760000D03*
%TD*%
D22*
%TO.C,D6*%
X136650000Y-105500000D03*
X133350000Y-105500000D03*
%TD*%
D19*
%TO.C,C4*%
X124500000Y-103462500D03*
X124500000Y-105537500D03*
%TD*%
D38*
%TO.C,SW3*%
X183000000Y-103154972D03*
X179909944Y-106245028D03*
%TD*%
D17*
%TO.C,C10*%
X128712500Y-95500000D03*
X130787500Y-95500000D03*
%TD*%
D39*
%TO.C,J3*%
X154000000Y-110550000D03*
D40*
X156000000Y-110550000D03*
%TD*%
D17*
%TO.C,C14*%
X130462499Y-87500000D03*
X132537499Y-87500000D03*
%TD*%
D19*
%TO.C,C5*%
X127250000Y-103462500D03*
X127250000Y-105537500D03*
%TD*%
%TO.C,C12*%
X157500000Y-85162500D03*
X157500000Y-87237500D03*
%TD*%
D41*
%TO.C,D4*%
X141600000Y-85000000D03*
X144900000Y-85000000D03*
%TD*%
D42*
%TO.C,L1*%
X157750000Y-80000000D03*
X153250000Y-80000000D03*
%TD*%
D19*
%TO.C,C6*%
X130000000Y-103462500D03*
X130000000Y-105537500D03*
%TD*%
M02*
