%TF.GenerationSoftware,KiCad,Pcbnew,10.0.3*%
%TF.CreationDate,2026-06-15T23:59:44-04:00*%
%TF.ProjectId,watch,77617463-682e-46b6-9963-61645f706362,rev?*%
%TF.SameCoordinates,Original*%
%TF.FileFunction,Legend,Top*%
%TF.FilePolarity,Positive*%
%FSLAX46Y46*%
G04 Gerber Fmt 4.6, Leading zero omitted, Abs format (unit mm)*
G04 Created by KiCad (PCBNEW 10.0.3) date 2026-06-15 23:59:44*
%MOMM*%
%LPD*%
G01*
G04 APERTURE LIST*
%ADD10C,0.100000*%
%ADD11C,0.200000*%
%ADD12C,0.150000*%
%ADD13C,0.000000*%
%ADD14C,0.120000*%
%ADD15C,0.152000*%
%ADD16C,0.152500*%
%ADD17C,0.254000*%
G04 APERTURE END LIST*
D10*
X112903884Y-110372419D02*
X112903884Y-109372419D01*
X112903884Y-109848609D02*
X113475312Y-109848609D01*
X113475312Y-110372419D02*
X113475312Y-109372419D01*
X114380074Y-110372419D02*
X114380074Y-109848609D01*
X114380074Y-109848609D02*
X114332455Y-109753371D01*
X114332455Y-109753371D02*
X114237217Y-109705752D01*
X114237217Y-109705752D02*
X114046741Y-109705752D01*
X114046741Y-109705752D02*
X113951503Y-109753371D01*
X114380074Y-110324800D02*
X114284836Y-110372419D01*
X114284836Y-110372419D02*
X114046741Y-110372419D01*
X114046741Y-110372419D02*
X113951503Y-110324800D01*
X113951503Y-110324800D02*
X113903884Y-110229561D01*
X113903884Y-110229561D02*
X113903884Y-110134323D01*
X113903884Y-110134323D02*
X113951503Y-110039085D01*
X113951503Y-110039085D02*
X114046741Y-109991466D01*
X114046741Y-109991466D02*
X114284836Y-109991466D01*
X114284836Y-109991466D02*
X114380074Y-109943847D01*
X114999122Y-110372419D02*
X114903884Y-110324800D01*
X114903884Y-110324800D02*
X114856265Y-110277180D01*
X114856265Y-110277180D02*
X114808646Y-110181942D01*
X114808646Y-110181942D02*
X114808646Y-109896228D01*
X114808646Y-109896228D02*
X114856265Y-109800990D01*
X114856265Y-109800990D02*
X114903884Y-109753371D01*
X114903884Y-109753371D02*
X114999122Y-109705752D01*
X114999122Y-109705752D02*
X115141979Y-109705752D01*
X115141979Y-109705752D02*
X115237217Y-109753371D01*
X115237217Y-109753371D02*
X115284836Y-109800990D01*
X115284836Y-109800990D02*
X115332455Y-109896228D01*
X115332455Y-109896228D02*
X115332455Y-110181942D01*
X115332455Y-110181942D02*
X115284836Y-110277180D01*
X115284836Y-110277180D02*
X115237217Y-110324800D01*
X115237217Y-110324800D02*
X115141979Y-110372419D01*
X115141979Y-110372419D02*
X114999122Y-110372419D01*
X115665789Y-109705752D02*
X115903884Y-110372419D01*
X116141979Y-109705752D02*
X115903884Y-110372419D01*
X115903884Y-110372419D02*
X115808646Y-110610514D01*
X115808646Y-110610514D02*
X115761027Y-110658133D01*
X115761027Y-110658133D02*
X115665789Y-110705752D01*
X116951503Y-110372419D02*
X116951503Y-109848609D01*
X116951503Y-109848609D02*
X116903884Y-109753371D01*
X116903884Y-109753371D02*
X116808646Y-109705752D01*
X116808646Y-109705752D02*
X116618170Y-109705752D01*
X116618170Y-109705752D02*
X116522932Y-109753371D01*
X116951503Y-110324800D02*
X116856265Y-110372419D01*
X116856265Y-110372419D02*
X116618170Y-110372419D01*
X116618170Y-110372419D02*
X116522932Y-110324800D01*
X116522932Y-110324800D02*
X116475313Y-110229561D01*
X116475313Y-110229561D02*
X116475313Y-110134323D01*
X116475313Y-110134323D02*
X116522932Y-110039085D01*
X116522932Y-110039085D02*
X116618170Y-109991466D01*
X116618170Y-109991466D02*
X116856265Y-109991466D01*
X116856265Y-109991466D02*
X116951503Y-109943847D01*
X117427694Y-109705752D02*
X117427694Y-110372419D01*
X117427694Y-109800990D02*
X117475313Y-109753371D01*
X117475313Y-109753371D02*
X117570551Y-109705752D01*
X117570551Y-109705752D02*
X117713408Y-109705752D01*
X117713408Y-109705752D02*
X117808646Y-109753371D01*
X117808646Y-109753371D02*
X117856265Y-109848609D01*
X117856265Y-109848609D02*
X117856265Y-110372419D01*
X119570551Y-110372419D02*
X119094361Y-110372419D01*
X119094361Y-110372419D02*
X119094361Y-109372419D01*
X119903885Y-110372419D02*
X119903885Y-109705752D01*
X119903885Y-109372419D02*
X119856266Y-109420038D01*
X119856266Y-109420038D02*
X119903885Y-109467657D01*
X119903885Y-109467657D02*
X119951504Y-109420038D01*
X119951504Y-109420038D02*
X119903885Y-109372419D01*
X119903885Y-109372419D02*
X119903885Y-109467657D01*
X121427694Y-110753371D02*
X121380075Y-110705752D01*
X121380075Y-110705752D02*
X121284837Y-110562895D01*
X121284837Y-110562895D02*
X121237218Y-110467657D01*
X121237218Y-110467657D02*
X121189599Y-110324800D01*
X121189599Y-110324800D02*
X121141980Y-110086704D01*
X121141980Y-110086704D02*
X121141980Y-109896228D01*
X121141980Y-109896228D02*
X121189599Y-109658133D01*
X121189599Y-109658133D02*
X121237218Y-109515276D01*
X121237218Y-109515276D02*
X121284837Y-109420038D01*
X121284837Y-109420038D02*
X121380075Y-109277180D01*
X121380075Y-109277180D02*
X121427694Y-109229561D01*
X121808647Y-110372419D02*
X121808647Y-109372419D01*
X122237218Y-110372419D02*
X122237218Y-109848609D01*
X122237218Y-109848609D02*
X122189599Y-109753371D01*
X122189599Y-109753371D02*
X122094361Y-109705752D01*
X122094361Y-109705752D02*
X121951504Y-109705752D01*
X121951504Y-109705752D02*
X121856266Y-109753371D01*
X121856266Y-109753371D02*
X121808647Y-109800990D01*
X123141980Y-110372419D02*
X123141980Y-109848609D01*
X123141980Y-109848609D02*
X123094361Y-109753371D01*
X123094361Y-109753371D02*
X122999123Y-109705752D01*
X122999123Y-109705752D02*
X122808647Y-109705752D01*
X122808647Y-109705752D02*
X122713409Y-109753371D01*
X123141980Y-110324800D02*
X123046742Y-110372419D01*
X123046742Y-110372419D02*
X122808647Y-110372419D01*
X122808647Y-110372419D02*
X122713409Y-110324800D01*
X122713409Y-110324800D02*
X122665790Y-110229561D01*
X122665790Y-110229561D02*
X122665790Y-110134323D01*
X122665790Y-110134323D02*
X122713409Y-110039085D01*
X122713409Y-110039085D02*
X122808647Y-109991466D01*
X122808647Y-109991466D02*
X123046742Y-109991466D01*
X123046742Y-109991466D02*
X123141980Y-109943847D01*
X123761028Y-110372419D02*
X123665790Y-110324800D01*
X123665790Y-110324800D02*
X123618171Y-110277180D01*
X123618171Y-110277180D02*
X123570552Y-110181942D01*
X123570552Y-110181942D02*
X123570552Y-109896228D01*
X123570552Y-109896228D02*
X123618171Y-109800990D01*
X123618171Y-109800990D02*
X123665790Y-109753371D01*
X123665790Y-109753371D02*
X123761028Y-109705752D01*
X123761028Y-109705752D02*
X123903885Y-109705752D01*
X123903885Y-109705752D02*
X123999123Y-109753371D01*
X123999123Y-109753371D02*
X124046742Y-109800990D01*
X124046742Y-109800990D02*
X124094361Y-109896228D01*
X124094361Y-109896228D02*
X124094361Y-110181942D01*
X124094361Y-110181942D02*
X124046742Y-110277180D01*
X124046742Y-110277180D02*
X123999123Y-110324800D01*
X123999123Y-110324800D02*
X123903885Y-110372419D01*
X123903885Y-110372419D02*
X123761028Y-110372419D01*
X124427695Y-109705752D02*
X124665790Y-110372419D01*
X124903885Y-109705752D02*
X124665790Y-110372419D01*
X124665790Y-110372419D02*
X124570552Y-110610514D01*
X124570552Y-110610514D02*
X124522933Y-110658133D01*
X124522933Y-110658133D02*
X124427695Y-110705752D01*
X125713409Y-110372419D02*
X125713409Y-109848609D01*
X125713409Y-109848609D02*
X125665790Y-109753371D01*
X125665790Y-109753371D02*
X125570552Y-109705752D01*
X125570552Y-109705752D02*
X125380076Y-109705752D01*
X125380076Y-109705752D02*
X125284838Y-109753371D01*
X125713409Y-110324800D02*
X125618171Y-110372419D01*
X125618171Y-110372419D02*
X125380076Y-110372419D01*
X125380076Y-110372419D02*
X125284838Y-110324800D01*
X125284838Y-110324800D02*
X125237219Y-110229561D01*
X125237219Y-110229561D02*
X125237219Y-110134323D01*
X125237219Y-110134323D02*
X125284838Y-110039085D01*
X125284838Y-110039085D02*
X125380076Y-109991466D01*
X125380076Y-109991466D02*
X125618171Y-109991466D01*
X125618171Y-109991466D02*
X125713409Y-109943847D01*
X126189600Y-109705752D02*
X126189600Y-110372419D01*
X126189600Y-109800990D02*
X126237219Y-109753371D01*
X126237219Y-109753371D02*
X126332457Y-109705752D01*
X126332457Y-109705752D02*
X126475314Y-109705752D01*
X126475314Y-109705752D02*
X126570552Y-109753371D01*
X126570552Y-109753371D02*
X126618171Y-109848609D01*
X126618171Y-109848609D02*
X126618171Y-110372419D01*
X127237219Y-110372419D02*
X127141981Y-110324800D01*
X127141981Y-110324800D02*
X127094362Y-110229561D01*
X127094362Y-110229561D02*
X127094362Y-109372419D01*
X127618172Y-110372419D02*
X127618172Y-109705752D01*
X127618172Y-109372419D02*
X127570553Y-109420038D01*
X127570553Y-109420038D02*
X127618172Y-109467657D01*
X127618172Y-109467657D02*
X127665791Y-109420038D01*
X127665791Y-109420038D02*
X127618172Y-109372419D01*
X127618172Y-109372419D02*
X127618172Y-109467657D01*
X128094362Y-110277180D02*
X128141981Y-110324800D01*
X128141981Y-110324800D02*
X128094362Y-110372419D01*
X128094362Y-110372419D02*
X128046743Y-110324800D01*
X128046743Y-110324800D02*
X128094362Y-110277180D01*
X128094362Y-110277180D02*
X128094362Y-110372419D01*
X128999123Y-110372419D02*
X128999123Y-109372419D01*
X128999123Y-110324800D02*
X128903885Y-110372419D01*
X128903885Y-110372419D02*
X128713409Y-110372419D01*
X128713409Y-110372419D02*
X128618171Y-110324800D01*
X128618171Y-110324800D02*
X128570552Y-110277180D01*
X128570552Y-110277180D02*
X128522933Y-110181942D01*
X128522933Y-110181942D02*
X128522933Y-109896228D01*
X128522933Y-109896228D02*
X128570552Y-109800990D01*
X128570552Y-109800990D02*
X128618171Y-109753371D01*
X128618171Y-109753371D02*
X128713409Y-109705752D01*
X128713409Y-109705752D02*
X128903885Y-109705752D01*
X128903885Y-109705752D02*
X128999123Y-109753371D01*
X129856266Y-110324800D02*
X129761028Y-110372419D01*
X129761028Y-110372419D02*
X129570552Y-110372419D01*
X129570552Y-110372419D02*
X129475314Y-110324800D01*
X129475314Y-110324800D02*
X129427695Y-110229561D01*
X129427695Y-110229561D02*
X129427695Y-109848609D01*
X129427695Y-109848609D02*
X129475314Y-109753371D01*
X129475314Y-109753371D02*
X129570552Y-109705752D01*
X129570552Y-109705752D02*
X129761028Y-109705752D01*
X129761028Y-109705752D02*
X129856266Y-109753371D01*
X129856266Y-109753371D02*
X129903885Y-109848609D01*
X129903885Y-109848609D02*
X129903885Y-109943847D01*
X129903885Y-109943847D02*
X129427695Y-110039085D01*
X130237219Y-109705752D02*
X130475314Y-110372419D01*
X130475314Y-110372419D02*
X130713409Y-109705752D01*
X130999124Y-110753371D02*
X131046743Y-110705752D01*
X131046743Y-110705752D02*
X131141981Y-110562895D01*
X131141981Y-110562895D02*
X131189600Y-110467657D01*
X131189600Y-110467657D02*
X131237219Y-110324800D01*
X131237219Y-110324800D02*
X131284838Y-110086704D01*
X131284838Y-110086704D02*
X131284838Y-109896228D01*
X131284838Y-109896228D02*
X131237219Y-109658133D01*
X131237219Y-109658133D02*
X131189600Y-109515276D01*
X131189600Y-109515276D02*
X131141981Y-109420038D01*
X131141981Y-109420038D02*
X131046743Y-109277180D01*
X131046743Y-109277180D02*
X130999124Y-109229561D01*
X138380078Y-109420038D02*
X138284840Y-109372419D01*
X138284840Y-109372419D02*
X138141983Y-109372419D01*
X138141983Y-109372419D02*
X137999126Y-109420038D01*
X137999126Y-109420038D02*
X137903888Y-109515276D01*
X137903888Y-109515276D02*
X137856269Y-109610514D01*
X137856269Y-109610514D02*
X137808650Y-109800990D01*
X137808650Y-109800990D02*
X137808650Y-109943847D01*
X137808650Y-109943847D02*
X137856269Y-110134323D01*
X137856269Y-110134323D02*
X137903888Y-110229561D01*
X137903888Y-110229561D02*
X137999126Y-110324800D01*
X137999126Y-110324800D02*
X138141983Y-110372419D01*
X138141983Y-110372419D02*
X138237221Y-110372419D01*
X138237221Y-110372419D02*
X138380078Y-110324800D01*
X138380078Y-110324800D02*
X138427697Y-110277180D01*
X138427697Y-110277180D02*
X138427697Y-109943847D01*
X138427697Y-109943847D02*
X138237221Y-109943847D01*
X138999126Y-110372419D02*
X138903888Y-110324800D01*
X138903888Y-110324800D02*
X138856269Y-110229561D01*
X138856269Y-110229561D02*
X138856269Y-109372419D01*
X139522936Y-110372419D02*
X139427698Y-110324800D01*
X139427698Y-110324800D02*
X139380079Y-110277180D01*
X139380079Y-110277180D02*
X139332460Y-110181942D01*
X139332460Y-110181942D02*
X139332460Y-109896228D01*
X139332460Y-109896228D02*
X139380079Y-109800990D01*
X139380079Y-109800990D02*
X139427698Y-109753371D01*
X139427698Y-109753371D02*
X139522936Y-109705752D01*
X139522936Y-109705752D02*
X139665793Y-109705752D01*
X139665793Y-109705752D02*
X139761031Y-109753371D01*
X139761031Y-109753371D02*
X139808650Y-109800990D01*
X139808650Y-109800990D02*
X139856269Y-109896228D01*
X139856269Y-109896228D02*
X139856269Y-110181942D01*
X139856269Y-110181942D02*
X139808650Y-110277180D01*
X139808650Y-110277180D02*
X139761031Y-110324800D01*
X139761031Y-110324800D02*
X139665793Y-110372419D01*
X139665793Y-110372419D02*
X139522936Y-110372419D01*
X140284841Y-110372419D02*
X140284841Y-109705752D01*
X140284841Y-109896228D02*
X140332460Y-109800990D01*
X140332460Y-109800990D02*
X140380079Y-109753371D01*
X140380079Y-109753371D02*
X140475317Y-109705752D01*
X140475317Y-109705752D02*
X140570555Y-109705752D01*
X140808651Y-109705752D02*
X141046746Y-110372419D01*
X141284841Y-109705752D02*
X141046746Y-110372419D01*
X141046746Y-110372419D02*
X140951508Y-110610514D01*
X140951508Y-110610514D02*
X140903889Y-110658133D01*
X140903889Y-110658133D02*
X140808651Y-110705752D01*
X142284842Y-109705752D02*
X142665794Y-109705752D01*
X142427699Y-109372419D02*
X142427699Y-110229561D01*
X142427699Y-110229561D02*
X142475318Y-110324800D01*
X142475318Y-110324800D02*
X142570556Y-110372419D01*
X142570556Y-110372419D02*
X142665794Y-110372419D01*
X143141985Y-110372419D02*
X143046747Y-110324800D01*
X143046747Y-110324800D02*
X142999128Y-110277180D01*
X142999128Y-110277180D02*
X142951509Y-110181942D01*
X142951509Y-110181942D02*
X142951509Y-109896228D01*
X142951509Y-109896228D02*
X142999128Y-109800990D01*
X142999128Y-109800990D02*
X143046747Y-109753371D01*
X143046747Y-109753371D02*
X143141985Y-109705752D01*
X143141985Y-109705752D02*
X143284842Y-109705752D01*
X143284842Y-109705752D02*
X143380080Y-109753371D01*
X143380080Y-109753371D02*
X143427699Y-109800990D01*
X143427699Y-109800990D02*
X143475318Y-109896228D01*
X143475318Y-109896228D02*
X143475318Y-110181942D01*
X143475318Y-110181942D02*
X143427699Y-110277180D01*
X143427699Y-110277180D02*
X143380080Y-110324800D01*
X143380080Y-110324800D02*
X143284842Y-110372419D01*
X143284842Y-110372419D02*
X143141985Y-110372419D01*
X144665795Y-109848609D02*
X144999128Y-109848609D01*
X145141985Y-110372419D02*
X144665795Y-110372419D01*
X144665795Y-110372419D02*
X144665795Y-109372419D01*
X144665795Y-109372419D02*
X145141985Y-109372419D01*
X145570557Y-110372419D02*
X145570557Y-109705752D01*
X145570557Y-109896228D02*
X145618176Y-109800990D01*
X145618176Y-109800990D02*
X145665795Y-109753371D01*
X145665795Y-109753371D02*
X145761033Y-109705752D01*
X145761033Y-109705752D02*
X145856271Y-109705752D01*
X146570557Y-110324800D02*
X146475319Y-110372419D01*
X146475319Y-110372419D02*
X146284843Y-110372419D01*
X146284843Y-110372419D02*
X146189605Y-110324800D01*
X146189605Y-110324800D02*
X146141986Y-110229561D01*
X146141986Y-110229561D02*
X146141986Y-109848609D01*
X146141986Y-109848609D02*
X146189605Y-109753371D01*
X146189605Y-109753371D02*
X146284843Y-109705752D01*
X146284843Y-109705752D02*
X146475319Y-109705752D01*
X146475319Y-109705752D02*
X146570557Y-109753371D01*
X146570557Y-109753371D02*
X146618176Y-109848609D01*
X146618176Y-109848609D02*
X146618176Y-109943847D01*
X146618176Y-109943847D02*
X146141986Y-110039085D01*
X147046748Y-110372419D02*
X147046748Y-109372419D01*
X147046748Y-109753371D02*
X147141986Y-109705752D01*
X147141986Y-109705752D02*
X147332462Y-109705752D01*
X147332462Y-109705752D02*
X147427700Y-109753371D01*
X147427700Y-109753371D02*
X147475319Y-109800990D01*
X147475319Y-109800990D02*
X147522938Y-109896228D01*
X147522938Y-109896228D02*
X147522938Y-110181942D01*
X147522938Y-110181942D02*
X147475319Y-110277180D01*
X147475319Y-110277180D02*
X147427700Y-110324800D01*
X147427700Y-110324800D02*
X147332462Y-110372419D01*
X147332462Y-110372419D02*
X147141986Y-110372419D01*
X147141986Y-110372419D02*
X147046748Y-110324800D01*
X148094367Y-110372419D02*
X147999129Y-110324800D01*
X147999129Y-110324800D02*
X147951510Y-110277180D01*
X147951510Y-110277180D02*
X147903891Y-110181942D01*
X147903891Y-110181942D02*
X147903891Y-109896228D01*
X147903891Y-109896228D02*
X147951510Y-109800990D01*
X147951510Y-109800990D02*
X147999129Y-109753371D01*
X147999129Y-109753371D02*
X148094367Y-109705752D01*
X148094367Y-109705752D02*
X148237224Y-109705752D01*
X148237224Y-109705752D02*
X148332462Y-109753371D01*
X148332462Y-109753371D02*
X148380081Y-109800990D01*
X148380081Y-109800990D02*
X148427700Y-109896228D01*
X148427700Y-109896228D02*
X148427700Y-110181942D01*
X148427700Y-110181942D02*
X148380081Y-110277180D01*
X148380081Y-110277180D02*
X148332462Y-110324800D01*
X148332462Y-110324800D02*
X148237224Y-110372419D01*
X148237224Y-110372419D02*
X148094367Y-110372419D01*
X148856272Y-110372419D02*
X148856272Y-109705752D01*
X148856272Y-109896228D02*
X148903891Y-109800990D01*
X148903891Y-109800990D02*
X148951510Y-109753371D01*
X148951510Y-109753371D02*
X149046748Y-109705752D01*
X149046748Y-109705752D02*
X149141986Y-109705752D01*
X112199999Y-111050000D02*
X112199999Y-79050000D01*
X112199999Y-111050000D02*
X150200000Y-111050000D01*
X112214213Y-79050000D02*
X150214213Y-79139651D01*
X150199999Y-79139651D02*
X150200000Y-111050000D01*
D11*
X112969673Y-80243409D02*
X113303006Y-80243409D01*
X113445863Y-80767219D02*
X112969673Y-80767219D01*
X112969673Y-80767219D02*
X112969673Y-79767219D01*
X112969673Y-79767219D02*
X113445863Y-79767219D01*
X113874435Y-80386266D02*
X114636340Y-80386266D01*
X115112530Y-80100552D02*
X115112530Y-81100552D01*
X115112530Y-80148171D02*
X115207768Y-80100552D01*
X115207768Y-80100552D02*
X115398244Y-80100552D01*
X115398244Y-80100552D02*
X115493482Y-80148171D01*
X115493482Y-80148171D02*
X115541101Y-80195790D01*
X115541101Y-80195790D02*
X115588720Y-80291028D01*
X115588720Y-80291028D02*
X115588720Y-80576742D01*
X115588720Y-80576742D02*
X115541101Y-80671980D01*
X115541101Y-80671980D02*
X115493482Y-80719600D01*
X115493482Y-80719600D02*
X115398244Y-80767219D01*
X115398244Y-80767219D02*
X115207768Y-80767219D01*
X115207768Y-80767219D02*
X115112530Y-80719600D01*
X116445863Y-80767219D02*
X116445863Y-80243409D01*
X116445863Y-80243409D02*
X116398244Y-80148171D01*
X116398244Y-80148171D02*
X116303006Y-80100552D01*
X116303006Y-80100552D02*
X116112530Y-80100552D01*
X116112530Y-80100552D02*
X116017292Y-80148171D01*
X116445863Y-80719600D02*
X116350625Y-80767219D01*
X116350625Y-80767219D02*
X116112530Y-80767219D01*
X116112530Y-80767219D02*
X116017292Y-80719600D01*
X116017292Y-80719600D02*
X115969673Y-80624361D01*
X115969673Y-80624361D02*
X115969673Y-80529123D01*
X115969673Y-80529123D02*
X116017292Y-80433885D01*
X116017292Y-80433885D02*
X116112530Y-80386266D01*
X116112530Y-80386266D02*
X116350625Y-80386266D01*
X116350625Y-80386266D02*
X116445863Y-80338647D01*
X116922054Y-80100552D02*
X116922054Y-81100552D01*
X116922054Y-80148171D02*
X117017292Y-80100552D01*
X117017292Y-80100552D02*
X117207768Y-80100552D01*
X117207768Y-80100552D02*
X117303006Y-80148171D01*
X117303006Y-80148171D02*
X117350625Y-80195790D01*
X117350625Y-80195790D02*
X117398244Y-80291028D01*
X117398244Y-80291028D02*
X117398244Y-80576742D01*
X117398244Y-80576742D02*
X117350625Y-80671980D01*
X117350625Y-80671980D02*
X117303006Y-80719600D01*
X117303006Y-80719600D02*
X117207768Y-80767219D01*
X117207768Y-80767219D02*
X117017292Y-80767219D01*
X117017292Y-80767219D02*
X116922054Y-80719600D01*
X118207768Y-80719600D02*
X118112530Y-80767219D01*
X118112530Y-80767219D02*
X117922054Y-80767219D01*
X117922054Y-80767219D02*
X117826816Y-80719600D01*
X117826816Y-80719600D02*
X117779197Y-80624361D01*
X117779197Y-80624361D02*
X117779197Y-80243409D01*
X117779197Y-80243409D02*
X117826816Y-80148171D01*
X117826816Y-80148171D02*
X117922054Y-80100552D01*
X117922054Y-80100552D02*
X118112530Y-80100552D01*
X118112530Y-80100552D02*
X118207768Y-80148171D01*
X118207768Y-80148171D02*
X118255387Y-80243409D01*
X118255387Y-80243409D02*
X118255387Y-80338647D01*
X118255387Y-80338647D02*
X117779197Y-80433885D01*
X118683959Y-80767219D02*
X118683959Y-80100552D01*
X118683959Y-80291028D02*
X118731578Y-80195790D01*
X118731578Y-80195790D02*
X118779197Y-80148171D01*
X118779197Y-80148171D02*
X118874435Y-80100552D01*
X118874435Y-80100552D02*
X118969673Y-80100552D01*
X120493483Y-80767219D02*
X120493483Y-79767219D01*
X120493483Y-80719600D02*
X120398245Y-80767219D01*
X120398245Y-80767219D02*
X120207769Y-80767219D01*
X120207769Y-80767219D02*
X120112531Y-80719600D01*
X120112531Y-80719600D02*
X120064912Y-80671980D01*
X120064912Y-80671980D02*
X120017293Y-80576742D01*
X120017293Y-80576742D02*
X120017293Y-80291028D01*
X120017293Y-80291028D02*
X120064912Y-80195790D01*
X120064912Y-80195790D02*
X120112531Y-80148171D01*
X120112531Y-80148171D02*
X120207769Y-80100552D01*
X120207769Y-80100552D02*
X120398245Y-80100552D01*
X120398245Y-80100552D02*
X120493483Y-80148171D01*
X120969674Y-80767219D02*
X120969674Y-80100552D01*
X120969674Y-79767219D02*
X120922055Y-79814838D01*
X120922055Y-79814838D02*
X120969674Y-79862457D01*
X120969674Y-79862457D02*
X121017293Y-79814838D01*
X121017293Y-79814838D02*
X120969674Y-79767219D01*
X120969674Y-79767219D02*
X120969674Y-79862457D01*
X121398245Y-80719600D02*
X121493483Y-80767219D01*
X121493483Y-80767219D02*
X121683959Y-80767219D01*
X121683959Y-80767219D02*
X121779197Y-80719600D01*
X121779197Y-80719600D02*
X121826816Y-80624361D01*
X121826816Y-80624361D02*
X121826816Y-80576742D01*
X121826816Y-80576742D02*
X121779197Y-80481504D01*
X121779197Y-80481504D02*
X121683959Y-80433885D01*
X121683959Y-80433885D02*
X121541102Y-80433885D01*
X121541102Y-80433885D02*
X121445864Y-80386266D01*
X121445864Y-80386266D02*
X121398245Y-80291028D01*
X121398245Y-80291028D02*
X121398245Y-80243409D01*
X121398245Y-80243409D02*
X121445864Y-80148171D01*
X121445864Y-80148171D02*
X121541102Y-80100552D01*
X121541102Y-80100552D02*
X121683959Y-80100552D01*
X121683959Y-80100552D02*
X121779197Y-80148171D01*
X122255388Y-80100552D02*
X122255388Y-81100552D01*
X122255388Y-80148171D02*
X122350626Y-80100552D01*
X122350626Y-80100552D02*
X122541102Y-80100552D01*
X122541102Y-80100552D02*
X122636340Y-80148171D01*
X122636340Y-80148171D02*
X122683959Y-80195790D01*
X122683959Y-80195790D02*
X122731578Y-80291028D01*
X122731578Y-80291028D02*
X122731578Y-80576742D01*
X122731578Y-80576742D02*
X122683959Y-80671980D01*
X122683959Y-80671980D02*
X122636340Y-80719600D01*
X122636340Y-80719600D02*
X122541102Y-80767219D01*
X122541102Y-80767219D02*
X122350626Y-80767219D01*
X122350626Y-80767219D02*
X122255388Y-80719600D01*
X123303007Y-80767219D02*
X123207769Y-80719600D01*
X123207769Y-80719600D02*
X123160150Y-80624361D01*
X123160150Y-80624361D02*
X123160150Y-79767219D01*
X124112531Y-80767219D02*
X124112531Y-80243409D01*
X124112531Y-80243409D02*
X124064912Y-80148171D01*
X124064912Y-80148171D02*
X123969674Y-80100552D01*
X123969674Y-80100552D02*
X123779198Y-80100552D01*
X123779198Y-80100552D02*
X123683960Y-80148171D01*
X124112531Y-80719600D02*
X124017293Y-80767219D01*
X124017293Y-80767219D02*
X123779198Y-80767219D01*
X123779198Y-80767219D02*
X123683960Y-80719600D01*
X123683960Y-80719600D02*
X123636341Y-80624361D01*
X123636341Y-80624361D02*
X123636341Y-80529123D01*
X123636341Y-80529123D02*
X123683960Y-80433885D01*
X123683960Y-80433885D02*
X123779198Y-80386266D01*
X123779198Y-80386266D02*
X124017293Y-80386266D01*
X124017293Y-80386266D02*
X124112531Y-80338647D01*
X124493484Y-80100552D02*
X124731579Y-80767219D01*
X124969674Y-80100552D02*
X124731579Y-80767219D01*
X124731579Y-80767219D02*
X124636341Y-81005314D01*
X124636341Y-81005314D02*
X124588722Y-81052933D01*
X124588722Y-81052933D02*
X124493484Y-81100552D01*
X126398246Y-81148171D02*
X126350627Y-81100552D01*
X126350627Y-81100552D02*
X126255389Y-80957695D01*
X126255389Y-80957695D02*
X126207770Y-80862457D01*
X126207770Y-80862457D02*
X126160151Y-80719600D01*
X126160151Y-80719600D02*
X126112532Y-80481504D01*
X126112532Y-80481504D02*
X126112532Y-80291028D01*
X126112532Y-80291028D02*
X126160151Y-80052933D01*
X126160151Y-80052933D02*
X126207770Y-79910076D01*
X126207770Y-79910076D02*
X126255389Y-79814838D01*
X126255389Y-79814838D02*
X126350627Y-79671980D01*
X126350627Y-79671980D02*
X126398246Y-79624361D01*
X127350627Y-80767219D02*
X127017294Y-80291028D01*
X126779199Y-80767219D02*
X126779199Y-79767219D01*
X126779199Y-79767219D02*
X127160151Y-79767219D01*
X127160151Y-79767219D02*
X127255389Y-79814838D01*
X127255389Y-79814838D02*
X127303008Y-79862457D01*
X127303008Y-79862457D02*
X127350627Y-79957695D01*
X127350627Y-79957695D02*
X127350627Y-80100552D01*
X127350627Y-80100552D02*
X127303008Y-80195790D01*
X127303008Y-80195790D02*
X127255389Y-80243409D01*
X127255389Y-80243409D02*
X127160151Y-80291028D01*
X127160151Y-80291028D02*
X126779199Y-80291028D01*
X127779199Y-80767219D02*
X127779199Y-79767219D01*
X128255389Y-80767219D02*
X128255389Y-79767219D01*
X128255389Y-79767219D02*
X128636341Y-79767219D01*
X128636341Y-79767219D02*
X128731579Y-79814838D01*
X128731579Y-79814838D02*
X128779198Y-79862457D01*
X128779198Y-79862457D02*
X128826817Y-79957695D01*
X128826817Y-79957695D02*
X128826817Y-80100552D01*
X128826817Y-80100552D02*
X128779198Y-80195790D01*
X128779198Y-80195790D02*
X128731579Y-80243409D01*
X128731579Y-80243409D02*
X128636341Y-80291028D01*
X128636341Y-80291028D02*
X128255389Y-80291028D01*
X130017294Y-80767219D02*
X130017294Y-79767219D01*
X130017294Y-79767219D02*
X130255389Y-79767219D01*
X130255389Y-79767219D02*
X130398246Y-79814838D01*
X130398246Y-79814838D02*
X130493484Y-79910076D01*
X130493484Y-79910076D02*
X130541103Y-80005314D01*
X130541103Y-80005314D02*
X130588722Y-80195790D01*
X130588722Y-80195790D02*
X130588722Y-80338647D01*
X130588722Y-80338647D02*
X130541103Y-80529123D01*
X130541103Y-80529123D02*
X130493484Y-80624361D01*
X130493484Y-80624361D02*
X130398246Y-80719600D01*
X130398246Y-80719600D02*
X130255389Y-80767219D01*
X130255389Y-80767219D02*
X130017294Y-80767219D01*
X130969675Y-80719600D02*
X131112532Y-80767219D01*
X131112532Y-80767219D02*
X131350627Y-80767219D01*
X131350627Y-80767219D02*
X131445865Y-80719600D01*
X131445865Y-80719600D02*
X131493484Y-80671980D01*
X131493484Y-80671980D02*
X131541103Y-80576742D01*
X131541103Y-80576742D02*
X131541103Y-80481504D01*
X131541103Y-80481504D02*
X131493484Y-80386266D01*
X131493484Y-80386266D02*
X131445865Y-80338647D01*
X131445865Y-80338647D02*
X131350627Y-80291028D01*
X131350627Y-80291028D02*
X131160151Y-80243409D01*
X131160151Y-80243409D02*
X131064913Y-80195790D01*
X131064913Y-80195790D02*
X131017294Y-80148171D01*
X131017294Y-80148171D02*
X130969675Y-80052933D01*
X130969675Y-80052933D02*
X130969675Y-79957695D01*
X130969675Y-79957695D02*
X131017294Y-79862457D01*
X131017294Y-79862457D02*
X131064913Y-79814838D01*
X131064913Y-79814838D02*
X131160151Y-79767219D01*
X131160151Y-79767219D02*
X131398246Y-79767219D01*
X131398246Y-79767219D02*
X131541103Y-79814838D01*
X131874437Y-79767219D02*
X132493484Y-79767219D01*
X132493484Y-79767219D02*
X132160151Y-80148171D01*
X132160151Y-80148171D02*
X132303008Y-80148171D01*
X132303008Y-80148171D02*
X132398246Y-80195790D01*
X132398246Y-80195790D02*
X132445865Y-80243409D01*
X132445865Y-80243409D02*
X132493484Y-80338647D01*
X132493484Y-80338647D02*
X132493484Y-80576742D01*
X132493484Y-80576742D02*
X132445865Y-80671980D01*
X132445865Y-80671980D02*
X132398246Y-80719600D01*
X132398246Y-80719600D02*
X132303008Y-80767219D01*
X132303008Y-80767219D02*
X132017294Y-80767219D01*
X132017294Y-80767219D02*
X131922056Y-80719600D01*
X131922056Y-80719600D02*
X131874437Y-80671980D01*
X132874437Y-79862457D02*
X132922056Y-79814838D01*
X132922056Y-79814838D02*
X133017294Y-79767219D01*
X133017294Y-79767219D02*
X133255389Y-79767219D01*
X133255389Y-79767219D02*
X133350627Y-79814838D01*
X133350627Y-79814838D02*
X133398246Y-79862457D01*
X133398246Y-79862457D02*
X133445865Y-79957695D01*
X133445865Y-79957695D02*
X133445865Y-80052933D01*
X133445865Y-80052933D02*
X133398246Y-80195790D01*
X133398246Y-80195790D02*
X132826818Y-80767219D01*
X132826818Y-80767219D02*
X133445865Y-80767219D01*
X133779199Y-79767219D02*
X134398246Y-79767219D01*
X134398246Y-79767219D02*
X134064913Y-80148171D01*
X134064913Y-80148171D02*
X134207770Y-80148171D01*
X134207770Y-80148171D02*
X134303008Y-80195790D01*
X134303008Y-80195790D02*
X134350627Y-80243409D01*
X134350627Y-80243409D02*
X134398246Y-80338647D01*
X134398246Y-80338647D02*
X134398246Y-80576742D01*
X134398246Y-80576742D02*
X134350627Y-80671980D01*
X134350627Y-80671980D02*
X134303008Y-80719600D01*
X134303008Y-80719600D02*
X134207770Y-80767219D01*
X134207770Y-80767219D02*
X133922056Y-80767219D01*
X133922056Y-80767219D02*
X133826818Y-80719600D01*
X133826818Y-80719600D02*
X133779199Y-80671980D01*
X135350627Y-80767219D02*
X134779199Y-80767219D01*
X135064913Y-80767219D02*
X135064913Y-79767219D01*
X135064913Y-79767219D02*
X134969675Y-79910076D01*
X134969675Y-79910076D02*
X134874437Y-80005314D01*
X134874437Y-80005314D02*
X134779199Y-80052933D01*
X135779199Y-80767219D02*
X135779199Y-79767219D01*
X135779199Y-79767219D02*
X136112532Y-80481504D01*
X136112532Y-80481504D02*
X136445865Y-79767219D01*
X136445865Y-79767219D02*
X136445865Y-80767219D01*
X136826818Y-79767219D02*
X137493484Y-79767219D01*
X137493484Y-79767219D02*
X136826818Y-80767219D01*
X136826818Y-80767219D02*
X137493484Y-80767219D01*
X137779199Y-81148171D02*
X137826818Y-81100552D01*
X137826818Y-81100552D02*
X137922056Y-80957695D01*
X137922056Y-80957695D02*
X137969675Y-80862457D01*
X137969675Y-80862457D02*
X138017294Y-80719600D01*
X138017294Y-80719600D02*
X138064913Y-80481504D01*
X138064913Y-80481504D02*
X138064913Y-80291028D01*
X138064913Y-80291028D02*
X138017294Y-80052933D01*
X138017294Y-80052933D02*
X137969675Y-79910076D01*
X137969675Y-79910076D02*
X137922056Y-79814838D01*
X137922056Y-79814838D02*
X137826818Y-79671980D01*
X137826818Y-79671980D02*
X137779199Y-79624361D01*
X178093482Y-77314838D02*
X177998244Y-77267219D01*
X177998244Y-77267219D02*
X177855387Y-77267219D01*
X177855387Y-77267219D02*
X177712530Y-77314838D01*
X177712530Y-77314838D02*
X177617292Y-77410076D01*
X177617292Y-77410076D02*
X177569673Y-77505314D01*
X177569673Y-77505314D02*
X177522054Y-77695790D01*
X177522054Y-77695790D02*
X177522054Y-77838647D01*
X177522054Y-77838647D02*
X177569673Y-78029123D01*
X177569673Y-78029123D02*
X177617292Y-78124361D01*
X177617292Y-78124361D02*
X177712530Y-78219600D01*
X177712530Y-78219600D02*
X177855387Y-78267219D01*
X177855387Y-78267219D02*
X177950625Y-78267219D01*
X177950625Y-78267219D02*
X178093482Y-78219600D01*
X178093482Y-78219600D02*
X178141101Y-78171980D01*
X178141101Y-78171980D02*
X178141101Y-77838647D01*
X178141101Y-77838647D02*
X177950625Y-77838647D01*
X178569673Y-78267219D02*
X178569673Y-77267219D01*
X178569673Y-77267219D02*
X179141101Y-78267219D01*
X179141101Y-78267219D02*
X179141101Y-77267219D01*
X179617292Y-78267219D02*
X179617292Y-77267219D01*
X179617292Y-77267219D02*
X179855387Y-77267219D01*
X179855387Y-77267219D02*
X179998244Y-77314838D01*
X179998244Y-77314838D02*
X180093482Y-77410076D01*
X180093482Y-77410076D02*
X180141101Y-77505314D01*
X180141101Y-77505314D02*
X180188720Y-77695790D01*
X180188720Y-77695790D02*
X180188720Y-77838647D01*
X180188720Y-77838647D02*
X180141101Y-78029123D01*
X180141101Y-78029123D02*
X180093482Y-78124361D01*
X180093482Y-78124361D02*
X179998244Y-78219600D01*
X179998244Y-78219600D02*
X179855387Y-78267219D01*
X179855387Y-78267219D02*
X179617292Y-78267219D01*
X177674435Y-79867219D02*
X178293482Y-79867219D01*
X178293482Y-79867219D02*
X177960149Y-80248171D01*
X177960149Y-80248171D02*
X178103006Y-80248171D01*
X178103006Y-80248171D02*
X178198244Y-80295790D01*
X178198244Y-80295790D02*
X178245863Y-80343409D01*
X178245863Y-80343409D02*
X178293482Y-80438647D01*
X178293482Y-80438647D02*
X178293482Y-80676742D01*
X178293482Y-80676742D02*
X178245863Y-80771980D01*
X178245863Y-80771980D02*
X178198244Y-80819600D01*
X178198244Y-80819600D02*
X178103006Y-80867219D01*
X178103006Y-80867219D02*
X177817292Y-80867219D01*
X177817292Y-80867219D02*
X177722054Y-80819600D01*
X177722054Y-80819600D02*
X177674435Y-80771980D01*
X178579197Y-79867219D02*
X178912530Y-80867219D01*
X178912530Y-80867219D02*
X179245863Y-79867219D01*
X179483959Y-79867219D02*
X180103006Y-79867219D01*
X180103006Y-79867219D02*
X179769673Y-80248171D01*
X179769673Y-80248171D02*
X179912530Y-80248171D01*
X179912530Y-80248171D02*
X180007768Y-80295790D01*
X180007768Y-80295790D02*
X180055387Y-80343409D01*
X180055387Y-80343409D02*
X180103006Y-80438647D01*
X180103006Y-80438647D02*
X180103006Y-80676742D01*
X180103006Y-80676742D02*
X180055387Y-80771980D01*
X180055387Y-80771980D02*
X180007768Y-80819600D01*
X180007768Y-80819600D02*
X179912530Y-80867219D01*
X179912530Y-80867219D02*
X179626816Y-80867219D01*
X179626816Y-80867219D02*
X179531578Y-80819600D01*
X179531578Y-80819600D02*
X179483959Y-80771980D01*
X177969673Y-83267219D02*
X177969673Y-82267219D01*
X178636339Y-82267219D02*
X178826815Y-82267219D01*
X178826815Y-82267219D02*
X178922053Y-82314838D01*
X178922053Y-82314838D02*
X179017291Y-82410076D01*
X179017291Y-82410076D02*
X179064910Y-82600552D01*
X179064910Y-82600552D02*
X179064910Y-82933885D01*
X179064910Y-82933885D02*
X179017291Y-83124361D01*
X179017291Y-83124361D02*
X178922053Y-83219600D01*
X178922053Y-83219600D02*
X178826815Y-83267219D01*
X178826815Y-83267219D02*
X178636339Y-83267219D01*
X178636339Y-83267219D02*
X178541101Y-83219600D01*
X178541101Y-83219600D02*
X178445863Y-83124361D01*
X178445863Y-83124361D02*
X178398244Y-82933885D01*
X178398244Y-82933885D02*
X178398244Y-82600552D01*
X178398244Y-82600552D02*
X178445863Y-82410076D01*
X178445863Y-82410076D02*
X178541101Y-82314838D01*
X178541101Y-82314838D02*
X178636339Y-82267219D01*
X180017291Y-83267219D02*
X179445863Y-83267219D01*
X179731577Y-83267219D02*
X179731577Y-82267219D01*
X179731577Y-82267219D02*
X179636339Y-82410076D01*
X179636339Y-82410076D02*
X179541101Y-82505314D01*
X179541101Y-82505314D02*
X179445863Y-82552933D01*
X177969673Y-85867219D02*
X177969673Y-84867219D01*
X178636339Y-84867219D02*
X178826815Y-84867219D01*
X178826815Y-84867219D02*
X178922053Y-84914838D01*
X178922053Y-84914838D02*
X179017291Y-85010076D01*
X179017291Y-85010076D02*
X179064910Y-85200552D01*
X179064910Y-85200552D02*
X179064910Y-85533885D01*
X179064910Y-85533885D02*
X179017291Y-85724361D01*
X179017291Y-85724361D02*
X178922053Y-85819600D01*
X178922053Y-85819600D02*
X178826815Y-85867219D01*
X178826815Y-85867219D02*
X178636339Y-85867219D01*
X178636339Y-85867219D02*
X178541101Y-85819600D01*
X178541101Y-85819600D02*
X178445863Y-85724361D01*
X178445863Y-85724361D02*
X178398244Y-85533885D01*
X178398244Y-85533885D02*
X178398244Y-85200552D01*
X178398244Y-85200552D02*
X178445863Y-85010076D01*
X178445863Y-85010076D02*
X178541101Y-84914838D01*
X178541101Y-84914838D02*
X178636339Y-84867219D01*
X179445863Y-84962457D02*
X179493482Y-84914838D01*
X179493482Y-84914838D02*
X179588720Y-84867219D01*
X179588720Y-84867219D02*
X179826815Y-84867219D01*
X179826815Y-84867219D02*
X179922053Y-84914838D01*
X179922053Y-84914838D02*
X179969672Y-84962457D01*
X179969672Y-84962457D02*
X180017291Y-85057695D01*
X180017291Y-85057695D02*
X180017291Y-85152933D01*
X180017291Y-85152933D02*
X179969672Y-85295790D01*
X179969672Y-85295790D02*
X179398244Y-85867219D01*
X179398244Y-85867219D02*
X180017291Y-85867219D01*
X177969673Y-88467219D02*
X177969673Y-87467219D01*
X178636339Y-87467219D02*
X178826815Y-87467219D01*
X178826815Y-87467219D02*
X178922053Y-87514838D01*
X178922053Y-87514838D02*
X179017291Y-87610076D01*
X179017291Y-87610076D02*
X179064910Y-87800552D01*
X179064910Y-87800552D02*
X179064910Y-88133885D01*
X179064910Y-88133885D02*
X179017291Y-88324361D01*
X179017291Y-88324361D02*
X178922053Y-88419600D01*
X178922053Y-88419600D02*
X178826815Y-88467219D01*
X178826815Y-88467219D02*
X178636339Y-88467219D01*
X178636339Y-88467219D02*
X178541101Y-88419600D01*
X178541101Y-88419600D02*
X178445863Y-88324361D01*
X178445863Y-88324361D02*
X178398244Y-88133885D01*
X178398244Y-88133885D02*
X178398244Y-87800552D01*
X178398244Y-87800552D02*
X178445863Y-87610076D01*
X178445863Y-87610076D02*
X178541101Y-87514838D01*
X178541101Y-87514838D02*
X178636339Y-87467219D01*
X179398244Y-87467219D02*
X180017291Y-87467219D01*
X180017291Y-87467219D02*
X179683958Y-87848171D01*
X179683958Y-87848171D02*
X179826815Y-87848171D01*
X179826815Y-87848171D02*
X179922053Y-87895790D01*
X179922053Y-87895790D02*
X179969672Y-87943409D01*
X179969672Y-87943409D02*
X180017291Y-88038647D01*
X180017291Y-88038647D02*
X180017291Y-88276742D01*
X180017291Y-88276742D02*
X179969672Y-88371980D01*
X179969672Y-88371980D02*
X179922053Y-88419600D01*
X179922053Y-88419600D02*
X179826815Y-88467219D01*
X179826815Y-88467219D02*
X179541101Y-88467219D01*
X179541101Y-88467219D02*
X179445863Y-88419600D01*
X179445863Y-88419600D02*
X179398244Y-88371980D01*
X177969673Y-91067219D02*
X177969673Y-90067219D01*
X178636339Y-90067219D02*
X178826815Y-90067219D01*
X178826815Y-90067219D02*
X178922053Y-90114838D01*
X178922053Y-90114838D02*
X179017291Y-90210076D01*
X179017291Y-90210076D02*
X179064910Y-90400552D01*
X179064910Y-90400552D02*
X179064910Y-90733885D01*
X179064910Y-90733885D02*
X179017291Y-90924361D01*
X179017291Y-90924361D02*
X178922053Y-91019600D01*
X178922053Y-91019600D02*
X178826815Y-91067219D01*
X178826815Y-91067219D02*
X178636339Y-91067219D01*
X178636339Y-91067219D02*
X178541101Y-91019600D01*
X178541101Y-91019600D02*
X178445863Y-90924361D01*
X178445863Y-90924361D02*
X178398244Y-90733885D01*
X178398244Y-90733885D02*
X178398244Y-90400552D01*
X178398244Y-90400552D02*
X178445863Y-90210076D01*
X178445863Y-90210076D02*
X178541101Y-90114838D01*
X178541101Y-90114838D02*
X178636339Y-90067219D01*
X179922053Y-90400552D02*
X179922053Y-91067219D01*
X179683958Y-90019600D02*
X179445863Y-90733885D01*
X179445863Y-90733885D02*
X180064910Y-90733885D01*
X177969673Y-93667219D02*
X177969673Y-92667219D01*
X178636339Y-92667219D02*
X178826815Y-92667219D01*
X178826815Y-92667219D02*
X178922053Y-92714838D01*
X178922053Y-92714838D02*
X179017291Y-92810076D01*
X179017291Y-92810076D02*
X179064910Y-93000552D01*
X179064910Y-93000552D02*
X179064910Y-93333885D01*
X179064910Y-93333885D02*
X179017291Y-93524361D01*
X179017291Y-93524361D02*
X178922053Y-93619600D01*
X178922053Y-93619600D02*
X178826815Y-93667219D01*
X178826815Y-93667219D02*
X178636339Y-93667219D01*
X178636339Y-93667219D02*
X178541101Y-93619600D01*
X178541101Y-93619600D02*
X178445863Y-93524361D01*
X178445863Y-93524361D02*
X178398244Y-93333885D01*
X178398244Y-93333885D02*
X178398244Y-93000552D01*
X178398244Y-93000552D02*
X178445863Y-92810076D01*
X178445863Y-92810076D02*
X178541101Y-92714838D01*
X178541101Y-92714838D02*
X178636339Y-92667219D01*
X179969672Y-92667219D02*
X179493482Y-92667219D01*
X179493482Y-92667219D02*
X179445863Y-93143409D01*
X179445863Y-93143409D02*
X179493482Y-93095790D01*
X179493482Y-93095790D02*
X179588720Y-93048171D01*
X179588720Y-93048171D02*
X179826815Y-93048171D01*
X179826815Y-93048171D02*
X179922053Y-93095790D01*
X179922053Y-93095790D02*
X179969672Y-93143409D01*
X179969672Y-93143409D02*
X180017291Y-93238647D01*
X180017291Y-93238647D02*
X180017291Y-93476742D01*
X180017291Y-93476742D02*
X179969672Y-93571980D01*
X179969672Y-93571980D02*
X179922053Y-93619600D01*
X179922053Y-93619600D02*
X179826815Y-93667219D01*
X179826815Y-93667219D02*
X179588720Y-93667219D01*
X179588720Y-93667219D02*
X179493482Y-93619600D01*
X179493482Y-93619600D02*
X179445863Y-93571980D01*
X177969673Y-96067219D02*
X177969673Y-95067219D01*
X178636339Y-95067219D02*
X178826815Y-95067219D01*
X178826815Y-95067219D02*
X178922053Y-95114838D01*
X178922053Y-95114838D02*
X179017291Y-95210076D01*
X179017291Y-95210076D02*
X179064910Y-95400552D01*
X179064910Y-95400552D02*
X179064910Y-95733885D01*
X179064910Y-95733885D02*
X179017291Y-95924361D01*
X179017291Y-95924361D02*
X178922053Y-96019600D01*
X178922053Y-96019600D02*
X178826815Y-96067219D01*
X178826815Y-96067219D02*
X178636339Y-96067219D01*
X178636339Y-96067219D02*
X178541101Y-96019600D01*
X178541101Y-96019600D02*
X178445863Y-95924361D01*
X178445863Y-95924361D02*
X178398244Y-95733885D01*
X178398244Y-95733885D02*
X178398244Y-95400552D01*
X178398244Y-95400552D02*
X178445863Y-95210076D01*
X178445863Y-95210076D02*
X178541101Y-95114838D01*
X178541101Y-95114838D02*
X178636339Y-95067219D01*
X179922053Y-95067219D02*
X179731577Y-95067219D01*
X179731577Y-95067219D02*
X179636339Y-95114838D01*
X179636339Y-95114838D02*
X179588720Y-95162457D01*
X179588720Y-95162457D02*
X179493482Y-95305314D01*
X179493482Y-95305314D02*
X179445863Y-95495790D01*
X179445863Y-95495790D02*
X179445863Y-95876742D01*
X179445863Y-95876742D02*
X179493482Y-95971980D01*
X179493482Y-95971980D02*
X179541101Y-96019600D01*
X179541101Y-96019600D02*
X179636339Y-96067219D01*
X179636339Y-96067219D02*
X179826815Y-96067219D01*
X179826815Y-96067219D02*
X179922053Y-96019600D01*
X179922053Y-96019600D02*
X179969672Y-95971980D01*
X179969672Y-95971980D02*
X180017291Y-95876742D01*
X180017291Y-95876742D02*
X180017291Y-95638647D01*
X180017291Y-95638647D02*
X179969672Y-95543409D01*
X179969672Y-95543409D02*
X179922053Y-95495790D01*
X179922053Y-95495790D02*
X179826815Y-95448171D01*
X179826815Y-95448171D02*
X179636339Y-95448171D01*
X179636339Y-95448171D02*
X179541101Y-95495790D01*
X179541101Y-95495790D02*
X179493482Y-95543409D01*
X179493482Y-95543409D02*
X179445863Y-95638647D01*
D12*
X137483333Y-98259580D02*
X137435714Y-98307200D01*
X137435714Y-98307200D02*
X137292857Y-98354819D01*
X137292857Y-98354819D02*
X137197619Y-98354819D01*
X137197619Y-98354819D02*
X137054762Y-98307200D01*
X137054762Y-98307200D02*
X136959524Y-98211961D01*
X136959524Y-98211961D02*
X136911905Y-98116723D01*
X136911905Y-98116723D02*
X136864286Y-97926247D01*
X136864286Y-97926247D02*
X136864286Y-97783390D01*
X136864286Y-97783390D02*
X136911905Y-97592914D01*
X136911905Y-97592914D02*
X136959524Y-97497676D01*
X136959524Y-97497676D02*
X137054762Y-97402438D01*
X137054762Y-97402438D02*
X137197619Y-97354819D01*
X137197619Y-97354819D02*
X137292857Y-97354819D01*
X137292857Y-97354819D02*
X137435714Y-97402438D01*
X137435714Y-97402438D02*
X137483333Y-97450057D01*
X138054762Y-97783390D02*
X137959524Y-97735771D01*
X137959524Y-97735771D02*
X137911905Y-97688152D01*
X137911905Y-97688152D02*
X137864286Y-97592914D01*
X137864286Y-97592914D02*
X137864286Y-97545295D01*
X137864286Y-97545295D02*
X137911905Y-97450057D01*
X137911905Y-97450057D02*
X137959524Y-97402438D01*
X137959524Y-97402438D02*
X138054762Y-97354819D01*
X138054762Y-97354819D02*
X138245238Y-97354819D01*
X138245238Y-97354819D02*
X138340476Y-97402438D01*
X138340476Y-97402438D02*
X138388095Y-97450057D01*
X138388095Y-97450057D02*
X138435714Y-97545295D01*
X138435714Y-97545295D02*
X138435714Y-97592914D01*
X138435714Y-97592914D02*
X138388095Y-97688152D01*
X138388095Y-97688152D02*
X138340476Y-97735771D01*
X138340476Y-97735771D02*
X138245238Y-97783390D01*
X138245238Y-97783390D02*
X138054762Y-97783390D01*
X138054762Y-97783390D02*
X137959524Y-97831009D01*
X137959524Y-97831009D02*
X137911905Y-97878628D01*
X137911905Y-97878628D02*
X137864286Y-97973866D01*
X137864286Y-97973866D02*
X137864286Y-98164342D01*
X137864286Y-98164342D02*
X137911905Y-98259580D01*
X137911905Y-98259580D02*
X137959524Y-98307200D01*
X137959524Y-98307200D02*
X138054762Y-98354819D01*
X138054762Y-98354819D02*
X138245238Y-98354819D01*
X138245238Y-98354819D02*
X138340476Y-98307200D01*
X138340476Y-98307200D02*
X138388095Y-98259580D01*
X138388095Y-98259580D02*
X138435714Y-98164342D01*
X138435714Y-98164342D02*
X138435714Y-97973866D01*
X138435714Y-97973866D02*
X138388095Y-97878628D01*
X138388095Y-97878628D02*
X138340476Y-97831009D01*
X138340476Y-97831009D02*
X138245238Y-97783390D01*
X131183333Y-98259580D02*
X131135714Y-98307200D01*
X131135714Y-98307200D02*
X130992857Y-98354819D01*
X130992857Y-98354819D02*
X130897619Y-98354819D01*
X130897619Y-98354819D02*
X130754762Y-98307200D01*
X130754762Y-98307200D02*
X130659524Y-98211961D01*
X130659524Y-98211961D02*
X130611905Y-98116723D01*
X130611905Y-98116723D02*
X130564286Y-97926247D01*
X130564286Y-97926247D02*
X130564286Y-97783390D01*
X130564286Y-97783390D02*
X130611905Y-97592914D01*
X130611905Y-97592914D02*
X130659524Y-97497676D01*
X130659524Y-97497676D02*
X130754762Y-97402438D01*
X130754762Y-97402438D02*
X130897619Y-97354819D01*
X130897619Y-97354819D02*
X130992857Y-97354819D01*
X130992857Y-97354819D02*
X131135714Y-97402438D01*
X131135714Y-97402438D02*
X131183333Y-97450057D01*
X131659524Y-98354819D02*
X131850000Y-98354819D01*
X131850000Y-98354819D02*
X131945238Y-98307200D01*
X131945238Y-98307200D02*
X131992857Y-98259580D01*
X131992857Y-98259580D02*
X132088095Y-98116723D01*
X132088095Y-98116723D02*
X132135714Y-97926247D01*
X132135714Y-97926247D02*
X132135714Y-97545295D01*
X132135714Y-97545295D02*
X132088095Y-97450057D01*
X132088095Y-97450057D02*
X132040476Y-97402438D01*
X132040476Y-97402438D02*
X131945238Y-97354819D01*
X131945238Y-97354819D02*
X131754762Y-97354819D01*
X131754762Y-97354819D02*
X131659524Y-97402438D01*
X131659524Y-97402438D02*
X131611905Y-97450057D01*
X131611905Y-97450057D02*
X131564286Y-97545295D01*
X131564286Y-97545295D02*
X131564286Y-97783390D01*
X131564286Y-97783390D02*
X131611905Y-97878628D01*
X131611905Y-97878628D02*
X131659524Y-97926247D01*
X131659524Y-97926247D02*
X131754762Y-97973866D01*
X131754762Y-97973866D02*
X131945238Y-97973866D01*
X131945238Y-97973866D02*
X132040476Y-97926247D01*
X132040476Y-97926247D02*
X132088095Y-97878628D01*
X132088095Y-97878628D02*
X132135714Y-97783390D01*
X137483333Y-100459580D02*
X137435714Y-100507200D01*
X137435714Y-100507200D02*
X137292857Y-100554819D01*
X137292857Y-100554819D02*
X137197619Y-100554819D01*
X137197619Y-100554819D02*
X137054762Y-100507200D01*
X137054762Y-100507200D02*
X136959524Y-100411961D01*
X136959524Y-100411961D02*
X136911905Y-100316723D01*
X136911905Y-100316723D02*
X136864286Y-100126247D01*
X136864286Y-100126247D02*
X136864286Y-99983390D01*
X136864286Y-99983390D02*
X136911905Y-99792914D01*
X136911905Y-99792914D02*
X136959524Y-99697676D01*
X136959524Y-99697676D02*
X137054762Y-99602438D01*
X137054762Y-99602438D02*
X137197619Y-99554819D01*
X137197619Y-99554819D02*
X137292857Y-99554819D01*
X137292857Y-99554819D02*
X137435714Y-99602438D01*
X137435714Y-99602438D02*
X137483333Y-99650057D01*
X137816667Y-99554819D02*
X138483333Y-99554819D01*
X138483333Y-99554819D02*
X138054762Y-100554819D01*
X169959580Y-96842857D02*
X170007200Y-96890476D01*
X170007200Y-96890476D02*
X170054819Y-97033333D01*
X170054819Y-97033333D02*
X170054819Y-97128571D01*
X170054819Y-97128571D02*
X170007200Y-97271428D01*
X170007200Y-97271428D02*
X169911961Y-97366666D01*
X169911961Y-97366666D02*
X169816723Y-97414285D01*
X169816723Y-97414285D02*
X169626247Y-97461904D01*
X169626247Y-97461904D02*
X169483390Y-97461904D01*
X169483390Y-97461904D02*
X169292914Y-97414285D01*
X169292914Y-97414285D02*
X169197676Y-97366666D01*
X169197676Y-97366666D02*
X169102438Y-97271428D01*
X169102438Y-97271428D02*
X169054819Y-97128571D01*
X169054819Y-97128571D02*
X169054819Y-97033333D01*
X169054819Y-97033333D02*
X169102438Y-96890476D01*
X169102438Y-96890476D02*
X169150057Y-96842857D01*
X170054819Y-95890476D02*
X170054819Y-96461904D01*
X170054819Y-96176190D02*
X169054819Y-96176190D01*
X169054819Y-96176190D02*
X169197676Y-96271428D01*
X169197676Y-96271428D02*
X169292914Y-96366666D01*
X169292914Y-96366666D02*
X169340533Y-96461904D01*
X169054819Y-95033333D02*
X169054819Y-95223809D01*
X169054819Y-95223809D02*
X169102438Y-95319047D01*
X169102438Y-95319047D02*
X169150057Y-95366666D01*
X169150057Y-95366666D02*
X169292914Y-95461904D01*
X169292914Y-95461904D02*
X169483390Y-95509523D01*
X169483390Y-95509523D02*
X169864342Y-95509523D01*
X169864342Y-95509523D02*
X169959580Y-95461904D01*
X169959580Y-95461904D02*
X170007200Y-95414285D01*
X170007200Y-95414285D02*
X170054819Y-95319047D01*
X170054819Y-95319047D02*
X170054819Y-95128571D01*
X170054819Y-95128571D02*
X170007200Y-95033333D01*
X170007200Y-95033333D02*
X169959580Y-94985714D01*
X169959580Y-94985714D02*
X169864342Y-94938095D01*
X169864342Y-94938095D02*
X169626247Y-94938095D01*
X169626247Y-94938095D02*
X169531009Y-94985714D01*
X169531009Y-94985714D02*
X169483390Y-95033333D01*
X169483390Y-95033333D02*
X169435771Y-95128571D01*
X169435771Y-95128571D02*
X169435771Y-95319047D01*
X169435771Y-95319047D02*
X169483390Y-95414285D01*
X169483390Y-95414285D02*
X169531009Y-95461904D01*
X169531009Y-95461904D02*
X169626247Y-95509523D01*
X145511905Y-89404819D02*
X145511905Y-88404819D01*
X145511905Y-88404819D02*
X145750000Y-88404819D01*
X145750000Y-88404819D02*
X145892857Y-88452438D01*
X145892857Y-88452438D02*
X145988095Y-88547676D01*
X145988095Y-88547676D02*
X146035714Y-88642914D01*
X146035714Y-88642914D02*
X146083333Y-88833390D01*
X146083333Y-88833390D02*
X146083333Y-88976247D01*
X146083333Y-88976247D02*
X146035714Y-89166723D01*
X146035714Y-89166723D02*
X145988095Y-89261961D01*
X145988095Y-89261961D02*
X145892857Y-89357200D01*
X145892857Y-89357200D02*
X145750000Y-89404819D01*
X145750000Y-89404819D02*
X145511905Y-89404819D01*
X146988095Y-88404819D02*
X146511905Y-88404819D01*
X146511905Y-88404819D02*
X146464286Y-88881009D01*
X146464286Y-88881009D02*
X146511905Y-88833390D01*
X146511905Y-88833390D02*
X146607143Y-88785771D01*
X146607143Y-88785771D02*
X146845238Y-88785771D01*
X146845238Y-88785771D02*
X146940476Y-88833390D01*
X146940476Y-88833390D02*
X146988095Y-88881009D01*
X146988095Y-88881009D02*
X147035714Y-88976247D01*
X147035714Y-88976247D02*
X147035714Y-89214342D01*
X147035714Y-89214342D02*
X146988095Y-89309580D01*
X146988095Y-89309580D02*
X146940476Y-89357200D01*
X146940476Y-89357200D02*
X146845238Y-89404819D01*
X146845238Y-89404819D02*
X146607143Y-89404819D01*
X146607143Y-89404819D02*
X146511905Y-89357200D01*
X146511905Y-89357200D02*
X146464286Y-89309580D01*
X151954819Y-102738094D02*
X150954819Y-102738094D01*
X150954819Y-102738094D02*
X150954819Y-102499999D01*
X150954819Y-102499999D02*
X151002438Y-102357142D01*
X151002438Y-102357142D02*
X151097676Y-102261904D01*
X151097676Y-102261904D02*
X151192914Y-102214285D01*
X151192914Y-102214285D02*
X151383390Y-102166666D01*
X151383390Y-102166666D02*
X151526247Y-102166666D01*
X151526247Y-102166666D02*
X151716723Y-102214285D01*
X151716723Y-102214285D02*
X151811961Y-102261904D01*
X151811961Y-102261904D02*
X151907200Y-102357142D01*
X151907200Y-102357142D02*
X151954819Y-102499999D01*
X151954819Y-102499999D02*
X151954819Y-102738094D01*
X151954819Y-101214285D02*
X151954819Y-101785713D01*
X151954819Y-101499999D02*
X150954819Y-101499999D01*
X150954819Y-101499999D02*
X151097676Y-101595237D01*
X151097676Y-101595237D02*
X151192914Y-101690475D01*
X151192914Y-101690475D02*
X151240533Y-101785713D01*
X169238095Y-102054819D02*
X169238095Y-102864342D01*
X169238095Y-102864342D02*
X169285714Y-102959580D01*
X169285714Y-102959580D02*
X169333333Y-103007200D01*
X169333333Y-103007200D02*
X169428571Y-103054819D01*
X169428571Y-103054819D02*
X169619047Y-103054819D01*
X169619047Y-103054819D02*
X169714285Y-103007200D01*
X169714285Y-103007200D02*
X169761904Y-102959580D01*
X169761904Y-102959580D02*
X169809523Y-102864342D01*
X169809523Y-102864342D02*
X169809523Y-102054819D01*
X170190476Y-102054819D02*
X170809523Y-102054819D01*
X170809523Y-102054819D02*
X170476190Y-102435771D01*
X170476190Y-102435771D02*
X170619047Y-102435771D01*
X170619047Y-102435771D02*
X170714285Y-102483390D01*
X170714285Y-102483390D02*
X170761904Y-102531009D01*
X170761904Y-102531009D02*
X170809523Y-102626247D01*
X170809523Y-102626247D02*
X170809523Y-102864342D01*
X170809523Y-102864342D02*
X170761904Y-102959580D01*
X170761904Y-102959580D02*
X170714285Y-103007200D01*
X170714285Y-103007200D02*
X170619047Y-103054819D01*
X170619047Y-103054819D02*
X170333333Y-103054819D01*
X170333333Y-103054819D02*
X170238095Y-103007200D01*
X170238095Y-103007200D02*
X170190476Y-102959580D01*
X164833333Y-106054819D02*
X164500000Y-105578628D01*
X164261905Y-106054819D02*
X164261905Y-105054819D01*
X164261905Y-105054819D02*
X164642857Y-105054819D01*
X164642857Y-105054819D02*
X164738095Y-105102438D01*
X164738095Y-105102438D02*
X164785714Y-105150057D01*
X164785714Y-105150057D02*
X164833333Y-105245295D01*
X164833333Y-105245295D02*
X164833333Y-105388152D01*
X164833333Y-105388152D02*
X164785714Y-105483390D01*
X164785714Y-105483390D02*
X164738095Y-105531009D01*
X164738095Y-105531009D02*
X164642857Y-105578628D01*
X164642857Y-105578628D02*
X164261905Y-105578628D01*
X165690476Y-105388152D02*
X165690476Y-106054819D01*
X165452381Y-105007200D02*
X165214286Y-105721485D01*
X165214286Y-105721485D02*
X165833333Y-105721485D01*
X127607143Y-85359580D02*
X127559524Y-85407200D01*
X127559524Y-85407200D02*
X127416667Y-85454819D01*
X127416667Y-85454819D02*
X127321429Y-85454819D01*
X127321429Y-85454819D02*
X127178572Y-85407200D01*
X127178572Y-85407200D02*
X127083334Y-85311961D01*
X127083334Y-85311961D02*
X127035715Y-85216723D01*
X127035715Y-85216723D02*
X126988096Y-85026247D01*
X126988096Y-85026247D02*
X126988096Y-84883390D01*
X126988096Y-84883390D02*
X127035715Y-84692914D01*
X127035715Y-84692914D02*
X127083334Y-84597676D01*
X127083334Y-84597676D02*
X127178572Y-84502438D01*
X127178572Y-84502438D02*
X127321429Y-84454819D01*
X127321429Y-84454819D02*
X127416667Y-84454819D01*
X127416667Y-84454819D02*
X127559524Y-84502438D01*
X127559524Y-84502438D02*
X127607143Y-84550057D01*
X128559524Y-85454819D02*
X127988096Y-85454819D01*
X128273810Y-85454819D02*
X128273810Y-84454819D01*
X128273810Y-84454819D02*
X128178572Y-84597676D01*
X128178572Y-84597676D02*
X128083334Y-84692914D01*
X128083334Y-84692914D02*
X127988096Y-84740533D01*
X128892858Y-84454819D02*
X129511905Y-84454819D01*
X129511905Y-84454819D02*
X129178572Y-84835771D01*
X129178572Y-84835771D02*
X129321429Y-84835771D01*
X129321429Y-84835771D02*
X129416667Y-84883390D01*
X129416667Y-84883390D02*
X129464286Y-84931009D01*
X129464286Y-84931009D02*
X129511905Y-85026247D01*
X129511905Y-85026247D02*
X129511905Y-85264342D01*
X129511905Y-85264342D02*
X129464286Y-85359580D01*
X129464286Y-85359580D02*
X129416667Y-85407200D01*
X129416667Y-85407200D02*
X129321429Y-85454819D01*
X129321429Y-85454819D02*
X129035715Y-85454819D01*
X129035715Y-85454819D02*
X128940477Y-85407200D01*
X128940477Y-85407200D02*
X128892858Y-85359580D01*
X122159580Y-107266666D02*
X122207200Y-107314285D01*
X122207200Y-107314285D02*
X122254819Y-107457142D01*
X122254819Y-107457142D02*
X122254819Y-107552380D01*
X122254819Y-107552380D02*
X122207200Y-107695237D01*
X122207200Y-107695237D02*
X122111961Y-107790475D01*
X122111961Y-107790475D02*
X122016723Y-107838094D01*
X122016723Y-107838094D02*
X121826247Y-107885713D01*
X121826247Y-107885713D02*
X121683390Y-107885713D01*
X121683390Y-107885713D02*
X121492914Y-107838094D01*
X121492914Y-107838094D02*
X121397676Y-107790475D01*
X121397676Y-107790475D02*
X121302438Y-107695237D01*
X121302438Y-107695237D02*
X121254819Y-107552380D01*
X121254819Y-107552380D02*
X121254819Y-107457142D01*
X121254819Y-107457142D02*
X121302438Y-107314285D01*
X121302438Y-107314285D02*
X121350057Y-107266666D01*
X121254819Y-106933332D02*
X121254819Y-106314285D01*
X121254819Y-106314285D02*
X121635771Y-106647618D01*
X121635771Y-106647618D02*
X121635771Y-106504761D01*
X121635771Y-106504761D02*
X121683390Y-106409523D01*
X121683390Y-106409523D02*
X121731009Y-106361904D01*
X121731009Y-106361904D02*
X121826247Y-106314285D01*
X121826247Y-106314285D02*
X122064342Y-106314285D01*
X122064342Y-106314285D02*
X122159580Y-106361904D01*
X122159580Y-106361904D02*
X122207200Y-106409523D01*
X122207200Y-106409523D02*
X122254819Y-106504761D01*
X122254819Y-106504761D02*
X122254819Y-106790475D01*
X122254819Y-106790475D02*
X122207200Y-106885713D01*
X122207200Y-106885713D02*
X122159580Y-106933332D01*
X158333333Y-105354819D02*
X158000000Y-104878628D01*
X157761905Y-105354819D02*
X157761905Y-104354819D01*
X157761905Y-104354819D02*
X158142857Y-104354819D01*
X158142857Y-104354819D02*
X158238095Y-104402438D01*
X158238095Y-104402438D02*
X158285714Y-104450057D01*
X158285714Y-104450057D02*
X158333333Y-104545295D01*
X158333333Y-104545295D02*
X158333333Y-104688152D01*
X158333333Y-104688152D02*
X158285714Y-104783390D01*
X158285714Y-104783390D02*
X158238095Y-104831009D01*
X158238095Y-104831009D02*
X158142857Y-104878628D01*
X158142857Y-104878628D02*
X157761905Y-104878628D01*
X158666667Y-104354819D02*
X159285714Y-104354819D01*
X159285714Y-104354819D02*
X158952381Y-104735771D01*
X158952381Y-104735771D02*
X159095238Y-104735771D01*
X159095238Y-104735771D02*
X159190476Y-104783390D01*
X159190476Y-104783390D02*
X159238095Y-104831009D01*
X159238095Y-104831009D02*
X159285714Y-104926247D01*
X159285714Y-104926247D02*
X159285714Y-105164342D01*
X159285714Y-105164342D02*
X159238095Y-105259580D01*
X159238095Y-105259580D02*
X159190476Y-105307200D01*
X159190476Y-105307200D02*
X159095238Y-105354819D01*
X159095238Y-105354819D02*
X158809524Y-105354819D01*
X158809524Y-105354819D02*
X158714286Y-105307200D01*
X158714286Y-105307200D02*
X158666667Y-105259580D01*
X152059580Y-86842857D02*
X152107200Y-86890476D01*
X152107200Y-86890476D02*
X152154819Y-87033333D01*
X152154819Y-87033333D02*
X152154819Y-87128571D01*
X152154819Y-87128571D02*
X152107200Y-87271428D01*
X152107200Y-87271428D02*
X152011961Y-87366666D01*
X152011961Y-87366666D02*
X151916723Y-87414285D01*
X151916723Y-87414285D02*
X151726247Y-87461904D01*
X151726247Y-87461904D02*
X151583390Y-87461904D01*
X151583390Y-87461904D02*
X151392914Y-87414285D01*
X151392914Y-87414285D02*
X151297676Y-87366666D01*
X151297676Y-87366666D02*
X151202438Y-87271428D01*
X151202438Y-87271428D02*
X151154819Y-87128571D01*
X151154819Y-87128571D02*
X151154819Y-87033333D01*
X151154819Y-87033333D02*
X151202438Y-86890476D01*
X151202438Y-86890476D02*
X151250057Y-86842857D01*
X152154819Y-85890476D02*
X152154819Y-86461904D01*
X152154819Y-86176190D02*
X151154819Y-86176190D01*
X151154819Y-86176190D02*
X151297676Y-86271428D01*
X151297676Y-86271428D02*
X151392914Y-86366666D01*
X151392914Y-86366666D02*
X151440533Y-86461904D01*
X152154819Y-84938095D02*
X152154819Y-85509523D01*
X152154819Y-85223809D02*
X151154819Y-85223809D01*
X151154819Y-85223809D02*
X151297676Y-85319047D01*
X151297676Y-85319047D02*
X151392914Y-85414285D01*
X151392914Y-85414285D02*
X151440533Y-85509523D01*
X161869048Y-112454819D02*
X161869048Y-113264342D01*
X161869048Y-113264342D02*
X161916667Y-113359580D01*
X161916667Y-113359580D02*
X161964286Y-113407200D01*
X161964286Y-113407200D02*
X162059524Y-113454819D01*
X162059524Y-113454819D02*
X162250000Y-113454819D01*
X162250000Y-113454819D02*
X162345238Y-113407200D01*
X162345238Y-113407200D02*
X162392857Y-113359580D01*
X162392857Y-113359580D02*
X162440476Y-113264342D01*
X162440476Y-113264342D02*
X162440476Y-112454819D01*
X162869048Y-113407200D02*
X163011905Y-113454819D01*
X163011905Y-113454819D02*
X163250000Y-113454819D01*
X163250000Y-113454819D02*
X163345238Y-113407200D01*
X163345238Y-113407200D02*
X163392857Y-113359580D01*
X163392857Y-113359580D02*
X163440476Y-113264342D01*
X163440476Y-113264342D02*
X163440476Y-113169104D01*
X163440476Y-113169104D02*
X163392857Y-113073866D01*
X163392857Y-113073866D02*
X163345238Y-113026247D01*
X163345238Y-113026247D02*
X163250000Y-112978628D01*
X163250000Y-112978628D02*
X163059524Y-112931009D01*
X163059524Y-112931009D02*
X162964286Y-112883390D01*
X162964286Y-112883390D02*
X162916667Y-112835771D01*
X162916667Y-112835771D02*
X162869048Y-112740533D01*
X162869048Y-112740533D02*
X162869048Y-112645295D01*
X162869048Y-112645295D02*
X162916667Y-112550057D01*
X162916667Y-112550057D02*
X162964286Y-112502438D01*
X162964286Y-112502438D02*
X163059524Y-112454819D01*
X163059524Y-112454819D02*
X163297619Y-112454819D01*
X163297619Y-112454819D02*
X163440476Y-112502438D01*
X164202381Y-112931009D02*
X164345238Y-112978628D01*
X164345238Y-112978628D02*
X164392857Y-113026247D01*
X164392857Y-113026247D02*
X164440476Y-113121485D01*
X164440476Y-113121485D02*
X164440476Y-113264342D01*
X164440476Y-113264342D02*
X164392857Y-113359580D01*
X164392857Y-113359580D02*
X164345238Y-113407200D01*
X164345238Y-113407200D02*
X164250000Y-113454819D01*
X164250000Y-113454819D02*
X163869048Y-113454819D01*
X163869048Y-113454819D02*
X163869048Y-112454819D01*
X163869048Y-112454819D02*
X164202381Y-112454819D01*
X164202381Y-112454819D02*
X164297619Y-112502438D01*
X164297619Y-112502438D02*
X164345238Y-112550057D01*
X164345238Y-112550057D02*
X164392857Y-112645295D01*
X164392857Y-112645295D02*
X164392857Y-112740533D01*
X164392857Y-112740533D02*
X164345238Y-112835771D01*
X164345238Y-112835771D02*
X164297619Y-112883390D01*
X164297619Y-112883390D02*
X164202381Y-112931009D01*
X164202381Y-112931009D02*
X163869048Y-112931009D01*
X164869048Y-113073866D02*
X165630953Y-113073866D01*
X166678571Y-113359580D02*
X166630952Y-113407200D01*
X166630952Y-113407200D02*
X166488095Y-113454819D01*
X166488095Y-113454819D02*
X166392857Y-113454819D01*
X166392857Y-113454819D02*
X166250000Y-113407200D01*
X166250000Y-113407200D02*
X166154762Y-113311961D01*
X166154762Y-113311961D02*
X166107143Y-113216723D01*
X166107143Y-113216723D02*
X166059524Y-113026247D01*
X166059524Y-113026247D02*
X166059524Y-112883390D01*
X166059524Y-112883390D02*
X166107143Y-112692914D01*
X166107143Y-112692914D02*
X166154762Y-112597676D01*
X166154762Y-112597676D02*
X166250000Y-112502438D01*
X166250000Y-112502438D02*
X166392857Y-112454819D01*
X166392857Y-112454819D02*
X166488095Y-112454819D01*
X166488095Y-112454819D02*
X166630952Y-112502438D01*
X166630952Y-112502438D02*
X166678571Y-112550057D01*
X119654761Y-85050057D02*
X119559523Y-85002438D01*
X119559523Y-85002438D02*
X119464285Y-84907200D01*
X119464285Y-84907200D02*
X119321428Y-84764342D01*
X119321428Y-84764342D02*
X119226190Y-84716723D01*
X119226190Y-84716723D02*
X119130952Y-84716723D01*
X119178571Y-84954819D02*
X119083333Y-84907200D01*
X119083333Y-84907200D02*
X118988095Y-84811961D01*
X118988095Y-84811961D02*
X118940476Y-84621485D01*
X118940476Y-84621485D02*
X118940476Y-84288152D01*
X118940476Y-84288152D02*
X118988095Y-84097676D01*
X118988095Y-84097676D02*
X119083333Y-84002438D01*
X119083333Y-84002438D02*
X119178571Y-83954819D01*
X119178571Y-83954819D02*
X119369047Y-83954819D01*
X119369047Y-83954819D02*
X119464285Y-84002438D01*
X119464285Y-84002438D02*
X119559523Y-84097676D01*
X119559523Y-84097676D02*
X119607142Y-84288152D01*
X119607142Y-84288152D02*
X119607142Y-84621485D01*
X119607142Y-84621485D02*
X119559523Y-84811961D01*
X119559523Y-84811961D02*
X119464285Y-84907200D01*
X119464285Y-84907200D02*
X119369047Y-84954819D01*
X119369047Y-84954819D02*
X119178571Y-84954819D01*
X120559523Y-84954819D02*
X119988095Y-84954819D01*
X120273809Y-84954819D02*
X120273809Y-83954819D01*
X120273809Y-83954819D02*
X120178571Y-84097676D01*
X120178571Y-84097676D02*
X120083333Y-84192914D01*
X120083333Y-84192914D02*
X119988095Y-84240533D01*
X119704819Y-87666666D02*
X119228628Y-87999999D01*
X119704819Y-88238094D02*
X118704819Y-88238094D01*
X118704819Y-88238094D02*
X118704819Y-87857142D01*
X118704819Y-87857142D02*
X118752438Y-87761904D01*
X118752438Y-87761904D02*
X118800057Y-87714285D01*
X118800057Y-87714285D02*
X118895295Y-87666666D01*
X118895295Y-87666666D02*
X119038152Y-87666666D01*
X119038152Y-87666666D02*
X119133390Y-87714285D01*
X119133390Y-87714285D02*
X119181009Y-87761904D01*
X119181009Y-87761904D02*
X119228628Y-87857142D01*
X119228628Y-87857142D02*
X119228628Y-88238094D01*
X118704819Y-86761904D02*
X118704819Y-87238094D01*
X118704819Y-87238094D02*
X119181009Y-87285713D01*
X119181009Y-87285713D02*
X119133390Y-87238094D01*
X119133390Y-87238094D02*
X119085771Y-87142856D01*
X119085771Y-87142856D02*
X119085771Y-86904761D01*
X119085771Y-86904761D02*
X119133390Y-86809523D01*
X119133390Y-86809523D02*
X119181009Y-86761904D01*
X119181009Y-86761904D02*
X119276247Y-86714285D01*
X119276247Y-86714285D02*
X119514342Y-86714285D01*
X119514342Y-86714285D02*
X119609580Y-86761904D01*
X119609580Y-86761904D02*
X119657200Y-86809523D01*
X119657200Y-86809523D02*
X119704819Y-86904761D01*
X119704819Y-86904761D02*
X119704819Y-87142856D01*
X119704819Y-87142856D02*
X119657200Y-87238094D01*
X119657200Y-87238094D02*
X119609580Y-87285713D01*
X164954819Y-102738094D02*
X163954819Y-102738094D01*
X163954819Y-102738094D02*
X163954819Y-102499999D01*
X163954819Y-102499999D02*
X164002438Y-102357142D01*
X164002438Y-102357142D02*
X164097676Y-102261904D01*
X164097676Y-102261904D02*
X164192914Y-102214285D01*
X164192914Y-102214285D02*
X164383390Y-102166666D01*
X164383390Y-102166666D02*
X164526247Y-102166666D01*
X164526247Y-102166666D02*
X164716723Y-102214285D01*
X164716723Y-102214285D02*
X164811961Y-102261904D01*
X164811961Y-102261904D02*
X164907200Y-102357142D01*
X164907200Y-102357142D02*
X164954819Y-102499999D01*
X164954819Y-102499999D02*
X164954819Y-102738094D01*
X163954819Y-101833332D02*
X163954819Y-101214285D01*
X163954819Y-101214285D02*
X164335771Y-101547618D01*
X164335771Y-101547618D02*
X164335771Y-101404761D01*
X164335771Y-101404761D02*
X164383390Y-101309523D01*
X164383390Y-101309523D02*
X164431009Y-101261904D01*
X164431009Y-101261904D02*
X164526247Y-101214285D01*
X164526247Y-101214285D02*
X164764342Y-101214285D01*
X164764342Y-101214285D02*
X164859580Y-101261904D01*
X164859580Y-101261904D02*
X164907200Y-101309523D01*
X164907200Y-101309523D02*
X164954819Y-101404761D01*
X164954819Y-101404761D02*
X164954819Y-101690475D01*
X164954819Y-101690475D02*
X164907200Y-101785713D01*
X164907200Y-101785713D02*
X164859580Y-101833332D01*
X157238095Y-97754819D02*
X157238095Y-98564342D01*
X157238095Y-98564342D02*
X157285714Y-98659580D01*
X157285714Y-98659580D02*
X157333333Y-98707200D01*
X157333333Y-98707200D02*
X157428571Y-98754819D01*
X157428571Y-98754819D02*
X157619047Y-98754819D01*
X157619047Y-98754819D02*
X157714285Y-98707200D01*
X157714285Y-98707200D02*
X157761904Y-98659580D01*
X157761904Y-98659580D02*
X157809523Y-98564342D01*
X157809523Y-98564342D02*
X157809523Y-97754819D01*
X158238095Y-97850057D02*
X158285714Y-97802438D01*
X158285714Y-97802438D02*
X158380952Y-97754819D01*
X158380952Y-97754819D02*
X158619047Y-97754819D01*
X158619047Y-97754819D02*
X158714285Y-97802438D01*
X158714285Y-97802438D02*
X158761904Y-97850057D01*
X158761904Y-97850057D02*
X158809523Y-97945295D01*
X158809523Y-97945295D02*
X158809523Y-98040533D01*
X158809523Y-98040533D02*
X158761904Y-98183390D01*
X158761904Y-98183390D02*
X158190476Y-98754819D01*
X158190476Y-98754819D02*
X158809523Y-98754819D01*
X162464286Y-92331009D02*
X162797619Y-92331009D01*
X162940476Y-92854819D02*
X162464286Y-92854819D01*
X162464286Y-92854819D02*
X162464286Y-91854819D01*
X162464286Y-91854819D02*
X162940476Y-91854819D01*
X163321429Y-92807200D02*
X163464286Y-92854819D01*
X163464286Y-92854819D02*
X163702381Y-92854819D01*
X163702381Y-92854819D02*
X163797619Y-92807200D01*
X163797619Y-92807200D02*
X163845238Y-92759580D01*
X163845238Y-92759580D02*
X163892857Y-92664342D01*
X163892857Y-92664342D02*
X163892857Y-92569104D01*
X163892857Y-92569104D02*
X163845238Y-92473866D01*
X163845238Y-92473866D02*
X163797619Y-92426247D01*
X163797619Y-92426247D02*
X163702381Y-92378628D01*
X163702381Y-92378628D02*
X163511905Y-92331009D01*
X163511905Y-92331009D02*
X163416667Y-92283390D01*
X163416667Y-92283390D02*
X163369048Y-92235771D01*
X163369048Y-92235771D02*
X163321429Y-92140533D01*
X163321429Y-92140533D02*
X163321429Y-92045295D01*
X163321429Y-92045295D02*
X163369048Y-91950057D01*
X163369048Y-91950057D02*
X163416667Y-91902438D01*
X163416667Y-91902438D02*
X163511905Y-91854819D01*
X163511905Y-91854819D02*
X163750000Y-91854819D01*
X163750000Y-91854819D02*
X163892857Y-91902438D01*
X164321429Y-92854819D02*
X164321429Y-91854819D01*
X164321429Y-91854819D02*
X164702381Y-91854819D01*
X164702381Y-91854819D02*
X164797619Y-91902438D01*
X164797619Y-91902438D02*
X164845238Y-91950057D01*
X164845238Y-91950057D02*
X164892857Y-92045295D01*
X164892857Y-92045295D02*
X164892857Y-92188152D01*
X164892857Y-92188152D02*
X164845238Y-92283390D01*
X164845238Y-92283390D02*
X164797619Y-92331009D01*
X164797619Y-92331009D02*
X164702381Y-92378628D01*
X164702381Y-92378628D02*
X164321429Y-92378628D01*
X165226191Y-91854819D02*
X165845238Y-91854819D01*
X165845238Y-91854819D02*
X165511905Y-92235771D01*
X165511905Y-92235771D02*
X165654762Y-92235771D01*
X165654762Y-92235771D02*
X165750000Y-92283390D01*
X165750000Y-92283390D02*
X165797619Y-92331009D01*
X165797619Y-92331009D02*
X165845238Y-92426247D01*
X165845238Y-92426247D02*
X165845238Y-92664342D01*
X165845238Y-92664342D02*
X165797619Y-92759580D01*
X165797619Y-92759580D02*
X165750000Y-92807200D01*
X165750000Y-92807200D02*
X165654762Y-92854819D01*
X165654762Y-92854819D02*
X165369048Y-92854819D01*
X165369048Y-92854819D02*
X165273810Y-92807200D01*
X165273810Y-92807200D02*
X165226191Y-92759580D01*
X166226191Y-91950057D02*
X166273810Y-91902438D01*
X166273810Y-91902438D02*
X166369048Y-91854819D01*
X166369048Y-91854819D02*
X166607143Y-91854819D01*
X166607143Y-91854819D02*
X166702381Y-91902438D01*
X166702381Y-91902438D02*
X166750000Y-91950057D01*
X166750000Y-91950057D02*
X166797619Y-92045295D01*
X166797619Y-92045295D02*
X166797619Y-92140533D01*
X166797619Y-92140533D02*
X166750000Y-92283390D01*
X166750000Y-92283390D02*
X166178572Y-92854819D01*
X166178572Y-92854819D02*
X166797619Y-92854819D01*
X167940477Y-92807200D02*
X168083334Y-92854819D01*
X168083334Y-92854819D02*
X168321429Y-92854819D01*
X168321429Y-92854819D02*
X168416667Y-92807200D01*
X168416667Y-92807200D02*
X168464286Y-92759580D01*
X168464286Y-92759580D02*
X168511905Y-92664342D01*
X168511905Y-92664342D02*
X168511905Y-92569104D01*
X168511905Y-92569104D02*
X168464286Y-92473866D01*
X168464286Y-92473866D02*
X168416667Y-92426247D01*
X168416667Y-92426247D02*
X168321429Y-92378628D01*
X168321429Y-92378628D02*
X168130953Y-92331009D01*
X168130953Y-92331009D02*
X168035715Y-92283390D01*
X168035715Y-92283390D02*
X167988096Y-92235771D01*
X167988096Y-92235771D02*
X167940477Y-92140533D01*
X167940477Y-92140533D02*
X167940477Y-92045295D01*
X167940477Y-92045295D02*
X167988096Y-91950057D01*
X167988096Y-91950057D02*
X168035715Y-91902438D01*
X168035715Y-91902438D02*
X168130953Y-91854819D01*
X168130953Y-91854819D02*
X168369048Y-91854819D01*
X168369048Y-91854819D02*
X168511905Y-91902438D01*
X168845239Y-91854819D02*
X169464286Y-91854819D01*
X169464286Y-91854819D02*
X169130953Y-92235771D01*
X169130953Y-92235771D02*
X169273810Y-92235771D01*
X169273810Y-92235771D02*
X169369048Y-92283390D01*
X169369048Y-92283390D02*
X169416667Y-92331009D01*
X169416667Y-92331009D02*
X169464286Y-92426247D01*
X169464286Y-92426247D02*
X169464286Y-92664342D01*
X169464286Y-92664342D02*
X169416667Y-92759580D01*
X169416667Y-92759580D02*
X169369048Y-92807200D01*
X169369048Y-92807200D02*
X169273810Y-92854819D01*
X169273810Y-92854819D02*
X168988096Y-92854819D01*
X168988096Y-92854819D02*
X168892858Y-92807200D01*
X168892858Y-92807200D02*
X168845239Y-92759580D01*
X170654763Y-92854819D02*
X170654763Y-91854819D01*
X170654763Y-91854819D02*
X170988096Y-92569104D01*
X170988096Y-92569104D02*
X171321429Y-91854819D01*
X171321429Y-91854819D02*
X171321429Y-92854819D01*
X171797620Y-92854819D02*
X171797620Y-91854819D01*
X172273810Y-92854819D02*
X172273810Y-91854819D01*
X172273810Y-91854819D02*
X172845238Y-92854819D01*
X172845238Y-92854819D02*
X172845238Y-91854819D01*
X173321429Y-92854819D02*
X173321429Y-91854819D01*
X175083333Y-92854819D02*
X174511905Y-92854819D01*
X174797619Y-92854819D02*
X174797619Y-91854819D01*
X174797619Y-91854819D02*
X174702381Y-91997676D01*
X174702381Y-91997676D02*
X174607143Y-92092914D01*
X174607143Y-92092914D02*
X174511905Y-92140533D01*
X124704819Y-87666666D02*
X124228628Y-87999999D01*
X124704819Y-88238094D02*
X123704819Y-88238094D01*
X123704819Y-88238094D02*
X123704819Y-87857142D01*
X123704819Y-87857142D02*
X123752438Y-87761904D01*
X123752438Y-87761904D02*
X123800057Y-87714285D01*
X123800057Y-87714285D02*
X123895295Y-87666666D01*
X123895295Y-87666666D02*
X124038152Y-87666666D01*
X124038152Y-87666666D02*
X124133390Y-87714285D01*
X124133390Y-87714285D02*
X124181009Y-87761904D01*
X124181009Y-87761904D02*
X124228628Y-87857142D01*
X124228628Y-87857142D02*
X124228628Y-88238094D01*
X123704819Y-86809523D02*
X123704819Y-86999999D01*
X123704819Y-86999999D02*
X123752438Y-87095237D01*
X123752438Y-87095237D02*
X123800057Y-87142856D01*
X123800057Y-87142856D02*
X123942914Y-87238094D01*
X123942914Y-87238094D02*
X124133390Y-87285713D01*
X124133390Y-87285713D02*
X124514342Y-87285713D01*
X124514342Y-87285713D02*
X124609580Y-87238094D01*
X124609580Y-87238094D02*
X124657200Y-87190475D01*
X124657200Y-87190475D02*
X124704819Y-87095237D01*
X124704819Y-87095237D02*
X124704819Y-86904761D01*
X124704819Y-86904761D02*
X124657200Y-86809523D01*
X124657200Y-86809523D02*
X124609580Y-86761904D01*
X124609580Y-86761904D02*
X124514342Y-86714285D01*
X124514342Y-86714285D02*
X124276247Y-86714285D01*
X124276247Y-86714285D02*
X124181009Y-86761904D01*
X124181009Y-86761904D02*
X124133390Y-86809523D01*
X124133390Y-86809523D02*
X124085771Y-86904761D01*
X124085771Y-86904761D02*
X124085771Y-87095237D01*
X124085771Y-87095237D02*
X124133390Y-87190475D01*
X124133390Y-87190475D02*
X124181009Y-87238094D01*
X124181009Y-87238094D02*
X124276247Y-87285713D01*
X178447619Y-98454819D02*
X178447619Y-97454819D01*
X179114285Y-97454819D02*
X179304761Y-97454819D01*
X179304761Y-97454819D02*
X179399999Y-97502438D01*
X179399999Y-97502438D02*
X179495237Y-97597676D01*
X179495237Y-97597676D02*
X179542856Y-97788152D01*
X179542856Y-97788152D02*
X179542856Y-98121485D01*
X179542856Y-98121485D02*
X179495237Y-98311961D01*
X179495237Y-98311961D02*
X179399999Y-98407200D01*
X179399999Y-98407200D02*
X179304761Y-98454819D01*
X179304761Y-98454819D02*
X179114285Y-98454819D01*
X179114285Y-98454819D02*
X179019047Y-98407200D01*
X179019047Y-98407200D02*
X178923809Y-98311961D01*
X178923809Y-98311961D02*
X178876190Y-98121485D01*
X178876190Y-98121485D02*
X178876190Y-97788152D01*
X178876190Y-97788152D02*
X178923809Y-97597676D01*
X178923809Y-97597676D02*
X179019047Y-97502438D01*
X179019047Y-97502438D02*
X179114285Y-97454819D01*
X180733333Y-97788152D02*
X180733333Y-98788152D01*
X180733333Y-97835771D02*
X180828571Y-97788152D01*
X180828571Y-97788152D02*
X181019047Y-97788152D01*
X181019047Y-97788152D02*
X181114285Y-97835771D01*
X181114285Y-97835771D02*
X181161904Y-97883390D01*
X181161904Y-97883390D02*
X181209523Y-97978628D01*
X181209523Y-97978628D02*
X181209523Y-98264342D01*
X181209523Y-98264342D02*
X181161904Y-98359580D01*
X181161904Y-98359580D02*
X181114285Y-98407200D01*
X181114285Y-98407200D02*
X181019047Y-98454819D01*
X181019047Y-98454819D02*
X180828571Y-98454819D01*
X180828571Y-98454819D02*
X180733333Y-98407200D01*
X181638095Y-98454819D02*
X181638095Y-97788152D01*
X181638095Y-97454819D02*
X181590476Y-97502438D01*
X181590476Y-97502438D02*
X181638095Y-97550057D01*
X181638095Y-97550057D02*
X181685714Y-97502438D01*
X181685714Y-97502438D02*
X181638095Y-97454819D01*
X181638095Y-97454819D02*
X181638095Y-97550057D01*
X182114285Y-97788152D02*
X182114285Y-98454819D01*
X182114285Y-97883390D02*
X182161904Y-97835771D01*
X182161904Y-97835771D02*
X182257142Y-97788152D01*
X182257142Y-97788152D02*
X182399999Y-97788152D01*
X182399999Y-97788152D02*
X182495237Y-97835771D01*
X182495237Y-97835771D02*
X182542856Y-97931009D01*
X182542856Y-97931009D02*
X182542856Y-98454819D01*
X182971428Y-98407200D02*
X183066666Y-98454819D01*
X183066666Y-98454819D02*
X183257142Y-98454819D01*
X183257142Y-98454819D02*
X183352380Y-98407200D01*
X183352380Y-98407200D02*
X183399999Y-98311961D01*
X183399999Y-98311961D02*
X183399999Y-98264342D01*
X183399999Y-98264342D02*
X183352380Y-98169104D01*
X183352380Y-98169104D02*
X183257142Y-98121485D01*
X183257142Y-98121485D02*
X183114285Y-98121485D01*
X183114285Y-98121485D02*
X183019047Y-98073866D01*
X183019047Y-98073866D02*
X182971428Y-97978628D01*
X182971428Y-97978628D02*
X182971428Y-97931009D01*
X182971428Y-97931009D02*
X183019047Y-97835771D01*
X183019047Y-97835771D02*
X183114285Y-97788152D01*
X183114285Y-97788152D02*
X183257142Y-97788152D01*
X183257142Y-97788152D02*
X183352380Y-97835771D01*
X135561905Y-103354819D02*
X135561905Y-102354819D01*
X135561905Y-102354819D02*
X135800000Y-102354819D01*
X135800000Y-102354819D02*
X135942857Y-102402438D01*
X135942857Y-102402438D02*
X136038095Y-102497676D01*
X136038095Y-102497676D02*
X136085714Y-102592914D01*
X136085714Y-102592914D02*
X136133333Y-102783390D01*
X136133333Y-102783390D02*
X136133333Y-102926247D01*
X136133333Y-102926247D02*
X136085714Y-103116723D01*
X136085714Y-103116723D02*
X136038095Y-103211961D01*
X136038095Y-103211961D02*
X135942857Y-103307200D01*
X135942857Y-103307200D02*
X135800000Y-103354819D01*
X135800000Y-103354819D02*
X135561905Y-103354819D01*
X136990476Y-102354819D02*
X136800000Y-102354819D01*
X136800000Y-102354819D02*
X136704762Y-102402438D01*
X136704762Y-102402438D02*
X136657143Y-102450057D01*
X136657143Y-102450057D02*
X136561905Y-102592914D01*
X136561905Y-102592914D02*
X136514286Y-102783390D01*
X136514286Y-102783390D02*
X136514286Y-103164342D01*
X136514286Y-103164342D02*
X136561905Y-103259580D01*
X136561905Y-103259580D02*
X136609524Y-103307200D01*
X136609524Y-103307200D02*
X136704762Y-103354819D01*
X136704762Y-103354819D02*
X136895238Y-103354819D01*
X136895238Y-103354819D02*
X136990476Y-103307200D01*
X136990476Y-103307200D02*
X137038095Y-103259580D01*
X137038095Y-103259580D02*
X137085714Y-103164342D01*
X137085714Y-103164342D02*
X137085714Y-102926247D01*
X137085714Y-102926247D02*
X137038095Y-102831009D01*
X137038095Y-102831009D02*
X136990476Y-102783390D01*
X136990476Y-102783390D02*
X136895238Y-102735771D01*
X136895238Y-102735771D02*
X136704762Y-102735771D01*
X136704762Y-102735771D02*
X136609524Y-102783390D01*
X136609524Y-102783390D02*
X136561905Y-102831009D01*
X136561905Y-102831009D02*
X136514286Y-102926247D01*
X164759580Y-99642857D02*
X164807200Y-99690476D01*
X164807200Y-99690476D02*
X164854819Y-99833333D01*
X164854819Y-99833333D02*
X164854819Y-99928571D01*
X164854819Y-99928571D02*
X164807200Y-100071428D01*
X164807200Y-100071428D02*
X164711961Y-100166666D01*
X164711961Y-100166666D02*
X164616723Y-100214285D01*
X164616723Y-100214285D02*
X164426247Y-100261904D01*
X164426247Y-100261904D02*
X164283390Y-100261904D01*
X164283390Y-100261904D02*
X164092914Y-100214285D01*
X164092914Y-100214285D02*
X163997676Y-100166666D01*
X163997676Y-100166666D02*
X163902438Y-100071428D01*
X163902438Y-100071428D02*
X163854819Y-99928571D01*
X163854819Y-99928571D02*
X163854819Y-99833333D01*
X163854819Y-99833333D02*
X163902438Y-99690476D01*
X163902438Y-99690476D02*
X163950057Y-99642857D01*
X164854819Y-98690476D02*
X164854819Y-99261904D01*
X164854819Y-98976190D02*
X163854819Y-98976190D01*
X163854819Y-98976190D02*
X163997676Y-99071428D01*
X163997676Y-99071428D02*
X164092914Y-99166666D01*
X164092914Y-99166666D02*
X164140533Y-99261904D01*
X163854819Y-97785714D02*
X163854819Y-98261904D01*
X163854819Y-98261904D02*
X164331009Y-98309523D01*
X164331009Y-98309523D02*
X164283390Y-98261904D01*
X164283390Y-98261904D02*
X164235771Y-98166666D01*
X164235771Y-98166666D02*
X164235771Y-97928571D01*
X164235771Y-97928571D02*
X164283390Y-97833333D01*
X164283390Y-97833333D02*
X164331009Y-97785714D01*
X164331009Y-97785714D02*
X164426247Y-97738095D01*
X164426247Y-97738095D02*
X164664342Y-97738095D01*
X164664342Y-97738095D02*
X164759580Y-97785714D01*
X164759580Y-97785714D02*
X164807200Y-97833333D01*
X164807200Y-97833333D02*
X164854819Y-97928571D01*
X164854819Y-97928571D02*
X164854819Y-98166666D01*
X164854819Y-98166666D02*
X164807200Y-98261904D01*
X164807200Y-98261904D02*
X164759580Y-98309523D01*
X124889582Y-107216665D02*
X124937202Y-107264284D01*
X124937202Y-107264284D02*
X124984821Y-107407141D01*
X124984821Y-107407141D02*
X124984821Y-107502379D01*
X124984821Y-107502379D02*
X124937202Y-107645236D01*
X124937202Y-107645236D02*
X124841963Y-107740474D01*
X124841963Y-107740474D02*
X124746725Y-107788093D01*
X124746725Y-107788093D02*
X124556249Y-107835712D01*
X124556249Y-107835712D02*
X124413392Y-107835712D01*
X124413392Y-107835712D02*
X124222916Y-107788093D01*
X124222916Y-107788093D02*
X124127678Y-107740474D01*
X124127678Y-107740474D02*
X124032440Y-107645236D01*
X124032440Y-107645236D02*
X123984821Y-107502379D01*
X123984821Y-107502379D02*
X123984821Y-107407141D01*
X123984821Y-107407141D02*
X124032440Y-107264284D01*
X124032440Y-107264284D02*
X124080059Y-107216665D01*
X124318154Y-106359522D02*
X124984821Y-106359522D01*
X123937202Y-106597617D02*
X124651487Y-106835712D01*
X124651487Y-106835712D02*
X124651487Y-106216665D01*
X127607142Y-88609580D02*
X127559523Y-88657200D01*
X127559523Y-88657200D02*
X127416666Y-88704819D01*
X127416666Y-88704819D02*
X127321428Y-88704819D01*
X127321428Y-88704819D02*
X127178571Y-88657200D01*
X127178571Y-88657200D02*
X127083333Y-88561961D01*
X127083333Y-88561961D02*
X127035714Y-88466723D01*
X127035714Y-88466723D02*
X126988095Y-88276247D01*
X126988095Y-88276247D02*
X126988095Y-88133390D01*
X126988095Y-88133390D02*
X127035714Y-87942914D01*
X127035714Y-87942914D02*
X127083333Y-87847676D01*
X127083333Y-87847676D02*
X127178571Y-87752438D01*
X127178571Y-87752438D02*
X127321428Y-87704819D01*
X127321428Y-87704819D02*
X127416666Y-87704819D01*
X127416666Y-87704819D02*
X127559523Y-87752438D01*
X127559523Y-87752438D02*
X127607142Y-87800057D01*
X128559523Y-88704819D02*
X127988095Y-88704819D01*
X128273809Y-88704819D02*
X128273809Y-87704819D01*
X128273809Y-87704819D02*
X128178571Y-87847676D01*
X128178571Y-87847676D02*
X128083333Y-87942914D01*
X128083333Y-87942914D02*
X127988095Y-87990533D01*
X129416666Y-88038152D02*
X129416666Y-88704819D01*
X129178571Y-87657200D02*
X128940476Y-88371485D01*
X128940476Y-88371485D02*
X129559523Y-88371485D01*
X157733333Y-94679580D02*
X157685714Y-94727200D01*
X157685714Y-94727200D02*
X157542857Y-94774819D01*
X157542857Y-94774819D02*
X157447619Y-94774819D01*
X157447619Y-94774819D02*
X157304762Y-94727200D01*
X157304762Y-94727200D02*
X157209524Y-94631961D01*
X157209524Y-94631961D02*
X157161905Y-94536723D01*
X157161905Y-94536723D02*
X157114286Y-94346247D01*
X157114286Y-94346247D02*
X157114286Y-94203390D01*
X157114286Y-94203390D02*
X157161905Y-94012914D01*
X157161905Y-94012914D02*
X157209524Y-93917676D01*
X157209524Y-93917676D02*
X157304762Y-93822438D01*
X157304762Y-93822438D02*
X157447619Y-93774819D01*
X157447619Y-93774819D02*
X157542857Y-93774819D01*
X157542857Y-93774819D02*
X157685714Y-93822438D01*
X157685714Y-93822438D02*
X157733333Y-93870057D01*
X158114286Y-93870057D02*
X158161905Y-93822438D01*
X158161905Y-93822438D02*
X158257143Y-93774819D01*
X158257143Y-93774819D02*
X158495238Y-93774819D01*
X158495238Y-93774819D02*
X158590476Y-93822438D01*
X158590476Y-93822438D02*
X158638095Y-93870057D01*
X158638095Y-93870057D02*
X158685714Y-93965295D01*
X158685714Y-93965295D02*
X158685714Y-94060533D01*
X158685714Y-94060533D02*
X158638095Y-94203390D01*
X158638095Y-94203390D02*
X158066667Y-94774819D01*
X158066667Y-94774819D02*
X158685714Y-94774819D01*
X165761905Y-101954819D02*
X165761905Y-100954819D01*
X165761905Y-100954819D02*
X166000000Y-100954819D01*
X166000000Y-100954819D02*
X166142857Y-101002438D01*
X166142857Y-101002438D02*
X166238095Y-101097676D01*
X166238095Y-101097676D02*
X166285714Y-101192914D01*
X166285714Y-101192914D02*
X166333333Y-101383390D01*
X166333333Y-101383390D02*
X166333333Y-101526247D01*
X166333333Y-101526247D02*
X166285714Y-101716723D01*
X166285714Y-101716723D02*
X166238095Y-101811961D01*
X166238095Y-101811961D02*
X166142857Y-101907200D01*
X166142857Y-101907200D02*
X166000000Y-101954819D01*
X166000000Y-101954819D02*
X165761905Y-101954819D01*
X166714286Y-101050057D02*
X166761905Y-101002438D01*
X166761905Y-101002438D02*
X166857143Y-100954819D01*
X166857143Y-100954819D02*
X167095238Y-100954819D01*
X167095238Y-100954819D02*
X167190476Y-101002438D01*
X167190476Y-101002438D02*
X167238095Y-101050057D01*
X167238095Y-101050057D02*
X167285714Y-101145295D01*
X167285714Y-101145295D02*
X167285714Y-101240533D01*
X167285714Y-101240533D02*
X167238095Y-101383390D01*
X167238095Y-101383390D02*
X166666667Y-101954819D01*
X166666667Y-101954819D02*
X167285714Y-101954819D01*
X127639582Y-107216665D02*
X127687202Y-107264284D01*
X127687202Y-107264284D02*
X127734821Y-107407141D01*
X127734821Y-107407141D02*
X127734821Y-107502379D01*
X127734821Y-107502379D02*
X127687202Y-107645236D01*
X127687202Y-107645236D02*
X127591963Y-107740474D01*
X127591963Y-107740474D02*
X127496725Y-107788093D01*
X127496725Y-107788093D02*
X127306249Y-107835712D01*
X127306249Y-107835712D02*
X127163392Y-107835712D01*
X127163392Y-107835712D02*
X126972916Y-107788093D01*
X126972916Y-107788093D02*
X126877678Y-107740474D01*
X126877678Y-107740474D02*
X126782440Y-107645236D01*
X126782440Y-107645236D02*
X126734821Y-107502379D01*
X126734821Y-107502379D02*
X126734821Y-107407141D01*
X126734821Y-107407141D02*
X126782440Y-107264284D01*
X126782440Y-107264284D02*
X126830059Y-107216665D01*
X126734821Y-106311903D02*
X126734821Y-106788093D01*
X126734821Y-106788093D02*
X127211011Y-106835712D01*
X127211011Y-106835712D02*
X127163392Y-106788093D01*
X127163392Y-106788093D02*
X127115773Y-106692855D01*
X127115773Y-106692855D02*
X127115773Y-106454760D01*
X127115773Y-106454760D02*
X127163392Y-106359522D01*
X127163392Y-106359522D02*
X127211011Y-106311903D01*
X127211011Y-106311903D02*
X127306249Y-106264284D01*
X127306249Y-106264284D02*
X127544344Y-106264284D01*
X127544344Y-106264284D02*
X127639582Y-106311903D01*
X127639582Y-106311903D02*
X127687202Y-106359522D01*
X127687202Y-106359522D02*
X127734821Y-106454760D01*
X127734821Y-106454760D02*
X127734821Y-106692855D01*
X127734821Y-106692855D02*
X127687202Y-106788093D01*
X127687202Y-106788093D02*
X127639582Y-106835712D01*
X154233333Y-107359580D02*
X154185714Y-107407200D01*
X154185714Y-107407200D02*
X154042857Y-107454819D01*
X154042857Y-107454819D02*
X153947619Y-107454819D01*
X153947619Y-107454819D02*
X153804762Y-107407200D01*
X153804762Y-107407200D02*
X153709524Y-107311961D01*
X153709524Y-107311961D02*
X153661905Y-107216723D01*
X153661905Y-107216723D02*
X153614286Y-107026247D01*
X153614286Y-107026247D02*
X153614286Y-106883390D01*
X153614286Y-106883390D02*
X153661905Y-106692914D01*
X153661905Y-106692914D02*
X153709524Y-106597676D01*
X153709524Y-106597676D02*
X153804762Y-106502438D01*
X153804762Y-106502438D02*
X153947619Y-106454819D01*
X153947619Y-106454819D02*
X154042857Y-106454819D01*
X154042857Y-106454819D02*
X154185714Y-106502438D01*
X154185714Y-106502438D02*
X154233333Y-106550057D01*
X155185714Y-107454819D02*
X154614286Y-107454819D01*
X154900000Y-107454819D02*
X154900000Y-106454819D01*
X154900000Y-106454819D02*
X154804762Y-106597676D01*
X154804762Y-106597676D02*
X154709524Y-106692914D01*
X154709524Y-106692914D02*
X154614286Y-106740533D01*
X167654819Y-107156666D02*
X167178628Y-107489999D01*
X167654819Y-107728094D02*
X166654819Y-107728094D01*
X166654819Y-107728094D02*
X166654819Y-107347142D01*
X166654819Y-107347142D02*
X166702438Y-107251904D01*
X166702438Y-107251904D02*
X166750057Y-107204285D01*
X166750057Y-107204285D02*
X166845295Y-107156666D01*
X166845295Y-107156666D02*
X166988152Y-107156666D01*
X166988152Y-107156666D02*
X167083390Y-107204285D01*
X167083390Y-107204285D02*
X167131009Y-107251904D01*
X167131009Y-107251904D02*
X167178628Y-107347142D01*
X167178628Y-107347142D02*
X167178628Y-107728094D01*
X167083390Y-106585237D02*
X167035771Y-106680475D01*
X167035771Y-106680475D02*
X166988152Y-106728094D01*
X166988152Y-106728094D02*
X166892914Y-106775713D01*
X166892914Y-106775713D02*
X166845295Y-106775713D01*
X166845295Y-106775713D02*
X166750057Y-106728094D01*
X166750057Y-106728094D02*
X166702438Y-106680475D01*
X166702438Y-106680475D02*
X166654819Y-106585237D01*
X166654819Y-106585237D02*
X166654819Y-106394761D01*
X166654819Y-106394761D02*
X166702438Y-106299523D01*
X166702438Y-106299523D02*
X166750057Y-106251904D01*
X166750057Y-106251904D02*
X166845295Y-106204285D01*
X166845295Y-106204285D02*
X166892914Y-106204285D01*
X166892914Y-106204285D02*
X166988152Y-106251904D01*
X166988152Y-106251904D02*
X167035771Y-106299523D01*
X167035771Y-106299523D02*
X167083390Y-106394761D01*
X167083390Y-106394761D02*
X167083390Y-106585237D01*
X167083390Y-106585237D02*
X167131009Y-106680475D01*
X167131009Y-106680475D02*
X167178628Y-106728094D01*
X167178628Y-106728094D02*
X167273866Y-106775713D01*
X167273866Y-106775713D02*
X167464342Y-106775713D01*
X167464342Y-106775713D02*
X167559580Y-106728094D01*
X167559580Y-106728094D02*
X167607200Y-106680475D01*
X167607200Y-106680475D02*
X167654819Y-106585237D01*
X167654819Y-106585237D02*
X167654819Y-106394761D01*
X167654819Y-106394761D02*
X167607200Y-106299523D01*
X167607200Y-106299523D02*
X167559580Y-106251904D01*
X167559580Y-106251904D02*
X167464342Y-106204285D01*
X167464342Y-106204285D02*
X167273866Y-106204285D01*
X167273866Y-106204285D02*
X167178628Y-106251904D01*
X167178628Y-106251904D02*
X167131009Y-106299523D01*
X167131009Y-106299523D02*
X167083390Y-106394761D01*
X156259580Y-86842857D02*
X156307200Y-86890476D01*
X156307200Y-86890476D02*
X156354819Y-87033333D01*
X156354819Y-87033333D02*
X156354819Y-87128571D01*
X156354819Y-87128571D02*
X156307200Y-87271428D01*
X156307200Y-87271428D02*
X156211961Y-87366666D01*
X156211961Y-87366666D02*
X156116723Y-87414285D01*
X156116723Y-87414285D02*
X155926247Y-87461904D01*
X155926247Y-87461904D02*
X155783390Y-87461904D01*
X155783390Y-87461904D02*
X155592914Y-87414285D01*
X155592914Y-87414285D02*
X155497676Y-87366666D01*
X155497676Y-87366666D02*
X155402438Y-87271428D01*
X155402438Y-87271428D02*
X155354819Y-87128571D01*
X155354819Y-87128571D02*
X155354819Y-87033333D01*
X155354819Y-87033333D02*
X155402438Y-86890476D01*
X155402438Y-86890476D02*
X155450057Y-86842857D01*
X156354819Y-85890476D02*
X156354819Y-86461904D01*
X156354819Y-86176190D02*
X155354819Y-86176190D01*
X155354819Y-86176190D02*
X155497676Y-86271428D01*
X155497676Y-86271428D02*
X155592914Y-86366666D01*
X155592914Y-86366666D02*
X155640533Y-86461904D01*
X155450057Y-85509523D02*
X155402438Y-85461904D01*
X155402438Y-85461904D02*
X155354819Y-85366666D01*
X155354819Y-85366666D02*
X155354819Y-85128571D01*
X155354819Y-85128571D02*
X155402438Y-85033333D01*
X155402438Y-85033333D02*
X155450057Y-84985714D01*
X155450057Y-84985714D02*
X155545295Y-84938095D01*
X155545295Y-84938095D02*
X155640533Y-84938095D01*
X155640533Y-84938095D02*
X155783390Y-84985714D01*
X155783390Y-84985714D02*
X156354819Y-85557142D01*
X156354819Y-85557142D02*
X156354819Y-84938095D01*
X136511905Y-89454819D02*
X136511905Y-88454819D01*
X136511905Y-88454819D02*
X136750000Y-88454819D01*
X136750000Y-88454819D02*
X136892857Y-88502438D01*
X136892857Y-88502438D02*
X136988095Y-88597676D01*
X136988095Y-88597676D02*
X137035714Y-88692914D01*
X137035714Y-88692914D02*
X137083333Y-88883390D01*
X137083333Y-88883390D02*
X137083333Y-89026247D01*
X137083333Y-89026247D02*
X137035714Y-89216723D01*
X137035714Y-89216723D02*
X136988095Y-89311961D01*
X136988095Y-89311961D02*
X136892857Y-89407200D01*
X136892857Y-89407200D02*
X136750000Y-89454819D01*
X136750000Y-89454819D02*
X136511905Y-89454819D01*
X137940476Y-88788152D02*
X137940476Y-89454819D01*
X137702381Y-88407200D02*
X137464286Y-89121485D01*
X137464286Y-89121485D02*
X138083333Y-89121485D01*
X155333333Y-84404819D02*
X154857143Y-84404819D01*
X154857143Y-84404819D02*
X154857143Y-83404819D01*
X156190476Y-84404819D02*
X155619048Y-84404819D01*
X155904762Y-84404819D02*
X155904762Y-83404819D01*
X155904762Y-83404819D02*
X155809524Y-83547676D01*
X155809524Y-83547676D02*
X155714286Y-83642914D01*
X155714286Y-83642914D02*
X155619048Y-83690533D01*
X130389582Y-107216665D02*
X130437202Y-107264284D01*
X130437202Y-107264284D02*
X130484821Y-107407141D01*
X130484821Y-107407141D02*
X130484821Y-107502379D01*
X130484821Y-107502379D02*
X130437202Y-107645236D01*
X130437202Y-107645236D02*
X130341963Y-107740474D01*
X130341963Y-107740474D02*
X130246725Y-107788093D01*
X130246725Y-107788093D02*
X130056249Y-107835712D01*
X130056249Y-107835712D02*
X129913392Y-107835712D01*
X129913392Y-107835712D02*
X129722916Y-107788093D01*
X129722916Y-107788093D02*
X129627678Y-107740474D01*
X129627678Y-107740474D02*
X129532440Y-107645236D01*
X129532440Y-107645236D02*
X129484821Y-107502379D01*
X129484821Y-107502379D02*
X129484821Y-107407141D01*
X129484821Y-107407141D02*
X129532440Y-107264284D01*
X129532440Y-107264284D02*
X129580059Y-107216665D01*
X129484821Y-106359522D02*
X129484821Y-106549998D01*
X129484821Y-106549998D02*
X129532440Y-106645236D01*
X129532440Y-106645236D02*
X129580059Y-106692855D01*
X129580059Y-106692855D02*
X129722916Y-106788093D01*
X129722916Y-106788093D02*
X129913392Y-106835712D01*
X129913392Y-106835712D02*
X130294344Y-106835712D01*
X130294344Y-106835712D02*
X130389582Y-106788093D01*
X130389582Y-106788093D02*
X130437202Y-106740474D01*
X130437202Y-106740474D02*
X130484821Y-106645236D01*
X130484821Y-106645236D02*
X130484821Y-106454760D01*
X130484821Y-106454760D02*
X130437202Y-106359522D01*
X130437202Y-106359522D02*
X130389582Y-106311903D01*
X130389582Y-106311903D02*
X130294344Y-106264284D01*
X130294344Y-106264284D02*
X130056249Y-106264284D01*
X130056249Y-106264284D02*
X129961011Y-106311903D01*
X129961011Y-106311903D02*
X129913392Y-106359522D01*
X129913392Y-106359522D02*
X129865773Y-106454760D01*
X129865773Y-106454760D02*
X129865773Y-106645236D01*
X129865773Y-106645236D02*
X129913392Y-106740474D01*
X129913392Y-106740474D02*
X129961011Y-106788093D01*
X129961011Y-106788093D02*
X130056249Y-106835712D01*
X162254819Y-107166666D02*
X161778628Y-107499999D01*
X162254819Y-107738094D02*
X161254819Y-107738094D01*
X161254819Y-107738094D02*
X161254819Y-107357142D01*
X161254819Y-107357142D02*
X161302438Y-107261904D01*
X161302438Y-107261904D02*
X161350057Y-107214285D01*
X161350057Y-107214285D02*
X161445295Y-107166666D01*
X161445295Y-107166666D02*
X161588152Y-107166666D01*
X161588152Y-107166666D02*
X161683390Y-107214285D01*
X161683390Y-107214285D02*
X161731009Y-107261904D01*
X161731009Y-107261904D02*
X161778628Y-107357142D01*
X161778628Y-107357142D02*
X161778628Y-107738094D01*
X161254819Y-106833332D02*
X161254819Y-106166666D01*
X161254819Y-106166666D02*
X162254819Y-106595237D01*
X130907142Y-96059580D02*
X130859523Y-96107200D01*
X130859523Y-96107200D02*
X130716666Y-96154819D01*
X130716666Y-96154819D02*
X130621428Y-96154819D01*
X130621428Y-96154819D02*
X130478571Y-96107200D01*
X130478571Y-96107200D02*
X130383333Y-96011961D01*
X130383333Y-96011961D02*
X130335714Y-95916723D01*
X130335714Y-95916723D02*
X130288095Y-95726247D01*
X130288095Y-95726247D02*
X130288095Y-95583390D01*
X130288095Y-95583390D02*
X130335714Y-95392914D01*
X130335714Y-95392914D02*
X130383333Y-95297676D01*
X130383333Y-95297676D02*
X130478571Y-95202438D01*
X130478571Y-95202438D02*
X130621428Y-95154819D01*
X130621428Y-95154819D02*
X130716666Y-95154819D01*
X130716666Y-95154819D02*
X130859523Y-95202438D01*
X130859523Y-95202438D02*
X130907142Y-95250057D01*
X131859523Y-96154819D02*
X131288095Y-96154819D01*
X131573809Y-96154819D02*
X131573809Y-95154819D01*
X131573809Y-95154819D02*
X131478571Y-95297676D01*
X131478571Y-95297676D02*
X131383333Y-95392914D01*
X131383333Y-95392914D02*
X131288095Y-95440533D01*
X132478571Y-95154819D02*
X132573809Y-95154819D01*
X132573809Y-95154819D02*
X132669047Y-95202438D01*
X132669047Y-95202438D02*
X132716666Y-95250057D01*
X132716666Y-95250057D02*
X132764285Y-95345295D01*
X132764285Y-95345295D02*
X132811904Y-95535771D01*
X132811904Y-95535771D02*
X132811904Y-95773866D01*
X132811904Y-95773866D02*
X132764285Y-95964342D01*
X132764285Y-95964342D02*
X132716666Y-96059580D01*
X132716666Y-96059580D02*
X132669047Y-96107200D01*
X132669047Y-96107200D02*
X132573809Y-96154819D01*
X132573809Y-96154819D02*
X132478571Y-96154819D01*
X132478571Y-96154819D02*
X132383333Y-96107200D01*
X132383333Y-96107200D02*
X132335714Y-96059580D01*
X132335714Y-96059580D02*
X132288095Y-95964342D01*
X132288095Y-95964342D02*
X132240476Y-95773866D01*
X132240476Y-95773866D02*
X132240476Y-95535771D01*
X132240476Y-95535771D02*
X132288095Y-95345295D01*
X132288095Y-95345295D02*
X132335714Y-95250057D01*
X132335714Y-95250057D02*
X132383333Y-95202438D01*
X132383333Y-95202438D02*
X132478571Y-95154819D01*
D13*
%TO.C,G\u002A\u002A\u002A*%
G36*
X119130237Y-111882456D02*
G01*
X119138618Y-111902860D01*
X119153499Y-111939281D01*
X119174302Y-111990295D01*
X119200448Y-112054481D01*
X119231357Y-112130415D01*
X119266452Y-112216675D01*
X119305152Y-112311837D01*
X119346879Y-112414479D01*
X119391055Y-112523178D01*
X119437100Y-112636511D01*
X119472323Y-112723231D01*
X119782252Y-113486366D01*
X119784655Y-112645591D01*
X119787058Y-111804816D01*
X120299901Y-111804816D01*
X120812745Y-111804816D01*
X120812745Y-113000049D01*
X120812745Y-114195283D01*
X119959057Y-114192880D01*
X119105368Y-114190478D01*
X118766226Y-113354039D01*
X118427083Y-112517601D01*
X118424680Y-113356392D01*
X118422277Y-114195183D01*
X117909434Y-114195183D01*
X117396591Y-114195183D01*
X117396591Y-113000000D01*
X117396591Y-111804816D01*
X118247335Y-111804816D01*
X119098080Y-111804816D01*
X119130237Y-111882456D01*
G37*
G36*
X124915894Y-112148314D02*
G01*
X124915894Y-112491811D01*
X123720711Y-112491811D01*
X122525527Y-112491811D01*
X122525527Y-112571804D01*
X122525527Y-112651797D01*
X123123119Y-112651797D01*
X123720711Y-112651797D01*
X123720711Y-112995294D01*
X123720711Y-113338792D01*
X123123119Y-113338792D01*
X122525527Y-113338792D01*
X122525527Y-113423490D01*
X122525527Y-113508188D01*
X123720711Y-113508188D01*
X124915894Y-113508188D01*
X124915894Y-113851685D01*
X124915894Y-114195183D01*
X123374765Y-114195183D01*
X121833636Y-114195183D01*
X121661982Y-114023341D01*
X121490329Y-113851500D01*
X121490329Y-112999811D01*
X121490329Y-112148123D01*
X121662171Y-111976470D01*
X121834012Y-111804816D01*
X123374953Y-111804816D01*
X124915894Y-111804816D01*
X124915894Y-112148314D01*
G37*
G36*
X126619266Y-112656502D02*
G01*
X126619266Y-113508188D01*
X127301555Y-113508188D01*
X127983845Y-113508188D01*
X127983845Y-112656502D01*
X127983845Y-111804816D01*
X128496739Y-111804816D01*
X129009632Y-111804816D01*
X129009632Y-112833054D01*
X129009632Y-113861292D01*
X128842494Y-114028238D01*
X128675355Y-114195183D01*
X127306070Y-114195183D01*
X125936785Y-114195183D01*
X125765132Y-114023341D01*
X125593478Y-113851500D01*
X125593478Y-112828158D01*
X125593478Y-111804816D01*
X126106372Y-111804816D01*
X126619266Y-111804816D01*
X126619266Y-112656502D01*
G37*
G36*
X133112782Y-112148314D02*
G01*
X133112782Y-112491811D01*
X132515190Y-112491811D01*
X131917598Y-112491811D01*
X131917598Y-113343497D01*
X131917598Y-114195183D01*
X131399999Y-114195183D01*
X130882400Y-114195183D01*
X130882400Y-113343567D01*
X130882400Y-112491952D01*
X130287161Y-112489529D01*
X129691922Y-112487106D01*
X129689452Y-112145961D01*
X129686982Y-111804816D01*
X131399882Y-111804816D01*
X133112782Y-111804816D01*
X133112782Y-112148314D01*
G37*
G36*
X137039381Y-111971761D02*
G01*
X137206520Y-112138707D01*
X137206520Y-112402214D01*
X137206520Y-112665722D01*
X137039575Y-112832861D01*
X136872630Y-113000000D01*
X137039575Y-113167138D01*
X137206520Y-113334277D01*
X137206520Y-113764730D01*
X137206520Y-114195183D01*
X136693626Y-114195183D01*
X136180733Y-114195183D01*
X136180733Y-113766925D01*
X136180733Y-113338668D01*
X135500796Y-113341083D01*
X134820859Y-113343497D01*
X134818410Y-113769340D01*
X134815962Y-114195183D01*
X134303164Y-114195183D01*
X133790366Y-114195183D01*
X133790366Y-113000000D01*
X133790366Y-112651797D01*
X134816153Y-112651797D01*
X135498443Y-112651797D01*
X136180733Y-112651797D01*
X136180733Y-112571804D01*
X136180733Y-112491811D01*
X135498443Y-112491811D01*
X134816153Y-112491811D01*
X134816153Y-112571804D01*
X134816153Y-112651797D01*
X133790366Y-112651797D01*
X133790366Y-112571804D01*
X133790366Y-111804816D01*
X135331304Y-111804816D01*
X136872243Y-111804816D01*
X137039381Y-111971761D01*
G37*
G36*
X145236269Y-111971761D02*
G01*
X145403408Y-112138707D01*
X145403408Y-113166945D01*
X145403408Y-114195183D01*
X144890514Y-114195183D01*
X144377621Y-114195183D01*
X144377621Y-113343497D01*
X144377621Y-112491811D01*
X143695331Y-112491811D01*
X143013041Y-112491811D01*
X143013041Y-113343497D01*
X143013041Y-114195183D01*
X142500147Y-114195183D01*
X141987254Y-114195183D01*
X141987254Y-113000000D01*
X141987254Y-111804816D01*
X143528192Y-111804816D01*
X145069130Y-111804816D01*
X145236269Y-111971761D01*
G37*
%TO.C,C8*%
D14*
X134738747Y-97165000D02*
X135261253Y-97165000D01*
X134738747Y-98635000D02*
X135261253Y-98635000D01*
D13*
%TO.C,G\u002A\u002A\u002A*%
G36*
X175634635Y-93649281D02*
G01*
X175777446Y-93696050D01*
X175806315Y-93708737D01*
X175952065Y-93791135D01*
X176081939Y-93896563D01*
X176194167Y-94022831D01*
X176286977Y-94167751D01*
X176358600Y-94329131D01*
X176390050Y-94430604D01*
X176406355Y-94513474D01*
X176418151Y-94616255D01*
X176425182Y-94730278D01*
X176427190Y-94846872D01*
X176423917Y-94957366D01*
X176415106Y-95053091D01*
X176409556Y-95087518D01*
X176356038Y-95296628D01*
X176275005Y-95508013D01*
X176167512Y-95719614D01*
X176034614Y-95929373D01*
X175877365Y-96135232D01*
X175865051Y-96149944D01*
X175805976Y-96216597D01*
X175739631Y-96285731D01*
X175671169Y-96352488D01*
X175605747Y-96412011D01*
X175548525Y-96459442D01*
X175504660Y-96489923D01*
X175503213Y-96490745D01*
X175488157Y-96496106D01*
X175480625Y-96486362D01*
X175478102Y-96455884D01*
X175477928Y-96434200D01*
X175477928Y-96363458D01*
X175641192Y-96198908D01*
X175815914Y-96005110D01*
X175966878Y-95800412D01*
X176091895Y-95587848D01*
X176114343Y-95543118D01*
X176168209Y-95427896D01*
X176209318Y-95327791D01*
X176240795Y-95233781D01*
X176265763Y-95136840D01*
X176281408Y-95060460D01*
X176294460Y-94959047D01*
X176299727Y-94842406D01*
X176297551Y-94719910D01*
X176288273Y-94600926D01*
X176272237Y-94494824D01*
X176258648Y-94438223D01*
X176198855Y-94278841D01*
X176117361Y-94135967D01*
X176015826Y-94011664D01*
X175895901Y-93907991D01*
X175773483Y-93833964D01*
X175644935Y-93783793D01*
X175518870Y-93761260D01*
X175397867Y-93765194D01*
X175284503Y-93794428D01*
X175181357Y-93847794D01*
X175091006Y-93924122D01*
X175016030Y-94022245D01*
X174959005Y-94140991D01*
X174936577Y-94213304D01*
X174924287Y-94270572D01*
X174916252Y-94326131D01*
X174914447Y-94355124D01*
X174907255Y-94416285D01*
X174886146Y-94453902D01*
X174851822Y-94466724D01*
X174851811Y-94466724D01*
X174815520Y-94458778D01*
X174794171Y-94432436D01*
X174785430Y-94383942D01*
X174784928Y-94359085D01*
X174798853Y-94227722D01*
X174836705Y-94096199D01*
X174895331Y-93972095D01*
X174971577Y-93862987D01*
X175007771Y-93823778D01*
X175116024Y-93735225D01*
X175234485Y-93673260D01*
X175361506Y-93638124D01*
X175495438Y-93630052D01*
X175634635Y-93649281D01*
G37*
G36*
X174185061Y-97200315D02*
G01*
X174185784Y-97215817D01*
X174183335Y-97251309D01*
X174179779Y-97285504D01*
X174174004Y-97326062D01*
X174164690Y-97355377D01*
X174146825Y-97381108D01*
X174115395Y-97410912D01*
X174076450Y-97443384D01*
X173921950Y-97582012D01*
X173789130Y-97726018D01*
X173679612Y-97873152D01*
X173595020Y-98021167D01*
X173536975Y-98167815D01*
X173526471Y-98205290D01*
X173499139Y-98364320D01*
X173500018Y-98517187D01*
X173529068Y-98663791D01*
X173586247Y-98804032D01*
X173671512Y-98937807D01*
X173784823Y-99065018D01*
X173926138Y-99185562D01*
X173933769Y-99191287D01*
X174044028Y-99265344D01*
X174171164Y-99337401D01*
X174303654Y-99401503D01*
X174429972Y-99451695D01*
X174452104Y-99459096D01*
X174604119Y-99493271D01*
X174761760Y-99500523D01*
X174921748Y-99481424D01*
X175080806Y-99436541D01*
X175235657Y-99366444D01*
X175335428Y-99305652D01*
X175462956Y-99204185D01*
X175585310Y-99077552D01*
X175700253Y-98929336D01*
X175805549Y-98763118D01*
X175898961Y-98582482D01*
X175978253Y-98391007D01*
X176041188Y-98192276D01*
X176048794Y-98163184D01*
X176071786Y-98094405D01*
X176098834Y-98051337D01*
X176128970Y-98035491D01*
X176130861Y-98035439D01*
X176149450Y-98045058D01*
X176173699Y-98066956D01*
X176193292Y-98090685D01*
X176198665Y-98104068D01*
X176194196Y-98125873D01*
X176190048Y-98143801D01*
X176183104Y-98167620D01*
X176168864Y-98212938D01*
X176149216Y-98273855D01*
X176126049Y-98344471D01*
X176118846Y-98366211D01*
X176030296Y-98599004D01*
X175926439Y-98811124D01*
X175808103Y-99001497D01*
X175676116Y-99169044D01*
X175531308Y-99312691D01*
X175374508Y-99431361D01*
X175239533Y-99508309D01*
X175068844Y-99577515D01*
X174896299Y-99617964D01*
X174722435Y-99629623D01*
X174547783Y-99612457D01*
X174372879Y-99566432D01*
X174367332Y-99564498D01*
X174182198Y-99488678D01*
X174010141Y-99396693D01*
X173853494Y-99290706D01*
X173714593Y-99172876D01*
X173595775Y-99045365D01*
X173499374Y-98910334D01*
X173427727Y-98769943D01*
X173391426Y-98661605D01*
X173376880Y-98579157D01*
X173369832Y-98480039D01*
X173370476Y-98375542D01*
X173379005Y-98276955D01*
X173384246Y-98243980D01*
X173426309Y-98090115D01*
X173495711Y-97934028D01*
X173591178Y-97777537D01*
X173711438Y-97622460D01*
X173855216Y-97470616D01*
X174021238Y-97323824D01*
X174038386Y-97309995D01*
X174092441Y-97267320D01*
X174137757Y-97232621D01*
X174169958Y-97209170D01*
X174184664Y-97200240D01*
X174185061Y-97200315D01*
G37*
G36*
X175643345Y-101135896D02*
G01*
X175683218Y-101158008D01*
X175728954Y-101188466D01*
X175772516Y-101222031D01*
X175797656Y-101244813D01*
X175824656Y-101272486D01*
X175846256Y-101298040D01*
X175863052Y-101324985D01*
X175875642Y-101356823D01*
X175884624Y-101397068D01*
X175890595Y-101449223D01*
X175894154Y-101516796D01*
X175895897Y-101603298D01*
X175896424Y-101712230D01*
X175896362Y-101824025D01*
X175895852Y-101955999D01*
X175894632Y-102061865D01*
X175892583Y-102144406D01*
X175889586Y-102206407D01*
X175885520Y-102250646D01*
X175880265Y-102279910D01*
X175876242Y-102292022D01*
X175834152Y-102356832D01*
X175766432Y-102419872D01*
X175676333Y-102478364D01*
X175631041Y-102501655D01*
X175498664Y-102555543D01*
X175354314Y-102597317D01*
X175201077Y-102627335D01*
X175042040Y-102645956D01*
X174880290Y-102653539D01*
X174718913Y-102650442D01*
X174560996Y-102637025D01*
X174409625Y-102613647D01*
X174267888Y-102580666D01*
X174138870Y-102538441D01*
X174025659Y-102487331D01*
X173931341Y-102427696D01*
X173859002Y-102359893D01*
X173814440Y-102290445D01*
X173806663Y-102270831D01*
X173800568Y-102247750D01*
X173795956Y-102217628D01*
X173792626Y-102176891D01*
X173790378Y-102121966D01*
X173789012Y-102049277D01*
X173788326Y-101955253D01*
X173788121Y-101836317D01*
X173788119Y-101820877D01*
X173788353Y-101690117D01*
X173789473Y-101584743D01*
X173792106Y-101501248D01*
X173796880Y-101436122D01*
X173804422Y-101385857D01*
X173815360Y-101346945D01*
X173830321Y-101315875D01*
X173849932Y-101289141D01*
X173874822Y-101263233D01*
X173890470Y-101248543D01*
X173935736Y-101210157D01*
X173984236Y-101174363D01*
X174028832Y-101145904D01*
X174062390Y-101129533D01*
X174072579Y-101127362D01*
X174080246Y-101134576D01*
X174085605Y-101158433D01*
X174088957Y-101202254D01*
X174090602Y-101269360D01*
X174090898Y-101330211D01*
X174091470Y-101415049D01*
X174093601Y-101476760D01*
X174097910Y-101521100D01*
X174105019Y-101553824D01*
X174115545Y-101580689D01*
X174118528Y-101586669D01*
X174175679Y-101666482D01*
X174257599Y-101733897D01*
X174362667Y-101788293D01*
X174489262Y-101829046D01*
X174635766Y-101855533D01*
X174800554Y-101867133D01*
X174849430Y-101867627D01*
X175022139Y-101860007D01*
X175172114Y-101837553D01*
X175301780Y-101799654D01*
X175413555Y-101745698D01*
X175463569Y-101712449D01*
X175511430Y-101673969D01*
X175546835Y-101635342D01*
X175571786Y-101591209D01*
X175588286Y-101536208D01*
X175598342Y-101464976D01*
X175603952Y-101372153D01*
X175605246Y-101333249D01*
X175607768Y-101259869D01*
X175610673Y-101198031D01*
X175613659Y-101152859D01*
X175616424Y-101129471D01*
X175617369Y-101127361D01*
X175643345Y-101135896D01*
G37*
G36*
X175492288Y-100493832D02*
G01*
X175492208Y-100691135D01*
X175491977Y-100861573D01*
X175491551Y-101007174D01*
X175490888Y-101129971D01*
X175489942Y-101231994D01*
X175488672Y-101315271D01*
X175487033Y-101381835D01*
X175484981Y-101433716D01*
X175482475Y-101472943D01*
X175479469Y-101501548D01*
X175475920Y-101521561D01*
X175471785Y-101535012D01*
X175469893Y-101539136D01*
X175444257Y-101578942D01*
X175408918Y-101612757D01*
X175357629Y-101645501D01*
X175294222Y-101677387D01*
X175187056Y-101717300D01*
X175067265Y-101744078D01*
X174939570Y-101758184D01*
X174808690Y-101760082D01*
X174679348Y-101750233D01*
X174556264Y-101729101D01*
X174444159Y-101697149D01*
X174347751Y-101654839D01*
X174271765Y-101602635D01*
X174244127Y-101574432D01*
X174206484Y-101529696D01*
X174206484Y-100579340D01*
X174206484Y-99628985D01*
X174354578Y-99680480D01*
X174411970Y-99700086D01*
X174457749Y-99713947D01*
X174499092Y-99723049D01*
X174543168Y-99728381D01*
X174597156Y-99730930D01*
X174668229Y-99731682D01*
X174726620Y-99731677D01*
X174816174Y-99731090D01*
X174884084Y-99729064D01*
X174937596Y-99724789D01*
X174983956Y-99717454D01*
X175030410Y-99706248D01*
X175077544Y-99692412D01*
X175194451Y-99650544D01*
X175312380Y-99597711D01*
X175418352Y-99539899D01*
X175445420Y-99522777D01*
X175492377Y-99491873D01*
X175492288Y-100493832D01*
G37*
G36*
X174524345Y-95226722D02*
G01*
X174536005Y-95300179D01*
X174559752Y-95352341D01*
X174600337Y-95389865D01*
X174661685Y-95419098D01*
X174752242Y-95442818D01*
X174847946Y-95450442D01*
X174941883Y-95442832D01*
X175027138Y-95420854D01*
X175096797Y-95385371D01*
X175125232Y-95361175D01*
X175149062Y-95332768D01*
X175161208Y-95304456D01*
X175165067Y-95265131D01*
X175164824Y-95231789D01*
X175165598Y-95186292D01*
X175169613Y-95155120D01*
X175174797Y-95145792D01*
X175197321Y-95156064D01*
X175229359Y-95181871D01*
X175263000Y-95215688D01*
X175290335Y-95249998D01*
X175298238Y-95263142D01*
X175305358Y-95283799D01*
X175311570Y-95318064D01*
X175317103Y-95368754D01*
X175322185Y-95438685D01*
X175327043Y-95530675D01*
X175331905Y-95647539D01*
X175334038Y-95705704D01*
X175339033Y-95838751D01*
X175345441Y-95997294D01*
X175353102Y-96177978D01*
X175361860Y-96377444D01*
X175371558Y-96592337D01*
X175382038Y-96819300D01*
X175393144Y-97054975D01*
X175404719Y-97296005D01*
X175416604Y-97539034D01*
X175428644Y-97780704D01*
X175440680Y-98017659D01*
X175452556Y-98246544D01*
X175456660Y-98324405D01*
X175463885Y-98461126D01*
X175470621Y-98589092D01*
X175476717Y-98705389D01*
X175482021Y-98807112D01*
X175486383Y-98891354D01*
X175489650Y-98955204D01*
X175491673Y-98995754D01*
X175492304Y-99009959D01*
X175482524Y-99025957D01*
X175456698Y-99055269D01*
X175420210Y-99091830D01*
X175416523Y-99095329D01*
X175334853Y-99164507D01*
X175241816Y-99230423D01*
X175147610Y-99286369D01*
X175071701Y-99322086D01*
X174993156Y-99347848D01*
X174901182Y-99369972D01*
X174808258Y-99385969D01*
X174726859Y-99393350D01*
X174713212Y-99393573D01*
X174635258Y-99386356D01*
X174541150Y-99366217D01*
X174439317Y-99335422D01*
X174338188Y-99296235D01*
X174318457Y-99287439D01*
X174206485Y-99236286D01*
X174206547Y-99044025D01*
X174207420Y-98987212D01*
X174209882Y-98905846D01*
X174213746Y-98804209D01*
X174218824Y-98686589D01*
X174224927Y-98557272D01*
X174231866Y-98420544D01*
X174239454Y-98280690D01*
X174242303Y-98230489D01*
X174255208Y-98002445D01*
X174268293Y-97764753D01*
X174281374Y-97521112D01*
X174294267Y-97275224D01*
X174306788Y-97030785D01*
X174318753Y-96791497D01*
X174329978Y-96561059D01*
X174340279Y-96343170D01*
X174349471Y-96141529D01*
X174357372Y-95959837D01*
X174363796Y-95801793D01*
X174365934Y-95745393D01*
X174370416Y-95635892D01*
X174375414Y-95533840D01*
X174380666Y-95443375D01*
X174385899Y-95368633D01*
X174390852Y-95313750D01*
X174395252Y-95282866D01*
X174395971Y-95280160D01*
X174415903Y-95242278D01*
X174448946Y-95201349D01*
X174463822Y-95187021D01*
X174517121Y-95140117D01*
X174524345Y-95226722D01*
G37*
G36*
X174448330Y-102737479D02*
G01*
X174516472Y-102748049D01*
X174606454Y-102755723D01*
X174711363Y-102760500D01*
X174824284Y-102762382D01*
X174938310Y-102761367D01*
X175046524Y-102757458D01*
X175142016Y-102750653D01*
X175217873Y-102740953D01*
X175235921Y-102737447D01*
X175275653Y-102728820D01*
X175275653Y-104584596D01*
X175275653Y-106440372D01*
X175238043Y-106477981D01*
X175183749Y-106520059D01*
X175115041Y-106550265D01*
X175028116Y-106569621D01*
X174919177Y-106579149D01*
X174856654Y-106580540D01*
X174733878Y-106577315D01*
X174635040Y-106565477D01*
X174556229Y-106544110D01*
X174493533Y-106512299D01*
X174462608Y-106488344D01*
X174415983Y-106446686D01*
X174412209Y-104587717D01*
X174408435Y-102728749D01*
X174448330Y-102737479D01*
G37*
G36*
X174671812Y-106688330D02*
G01*
X174708560Y-106693448D01*
X174762475Y-106698738D01*
X174832345Y-106700787D01*
X174905382Y-106699315D01*
X174925283Y-106698193D01*
X174990887Y-106694766D01*
X175032053Y-106695173D01*
X175053020Y-106699717D01*
X175058124Y-106707701D01*
X175054557Y-106725841D01*
X175044842Y-106768439D01*
X175029836Y-106831922D01*
X175010395Y-106912709D01*
X174987377Y-107007229D01*
X174961638Y-107111904D01*
X174950287Y-107157771D01*
X174923598Y-107264920D01*
X174898995Y-107362722D01*
X174877365Y-107447733D01*
X174859593Y-107516513D01*
X174846563Y-107565619D01*
X174839160Y-107591607D01*
X174837919Y-107594828D01*
X174833870Y-107582404D01*
X174824338Y-107545834D01*
X174810268Y-107489136D01*
X174792602Y-107416337D01*
X174772282Y-107331460D01*
X174750254Y-107238528D01*
X174727458Y-107141567D01*
X174704839Y-107044599D01*
X174683340Y-106951648D01*
X174663903Y-106866738D01*
X174647472Y-106793892D01*
X174634990Y-106737135D01*
X174627400Y-106700490D01*
X174625483Y-106688464D01*
X174638375Y-106685983D01*
X174671812Y-106688330D01*
G37*
G36*
X175028359Y-94761468D02*
G01*
X175034377Y-94857661D01*
X175040476Y-94953046D01*
X175046180Y-95040316D01*
X175051010Y-95112161D01*
X175054032Y-95155076D01*
X175057839Y-95213403D01*
X175057851Y-95249990D01*
X175052683Y-95271886D01*
X175040955Y-95286144D01*
X175026261Y-95296565D01*
X174971515Y-95319728D01*
X174899577Y-95332960D01*
X174820479Y-95336016D01*
X174744253Y-95328653D01*
X174680931Y-95310626D01*
X174669788Y-95305236D01*
X174655149Y-95294410D01*
X174646228Y-95276863D01*
X174641653Y-95246165D01*
X174640049Y-95195886D01*
X174639931Y-95165459D01*
X174641159Y-95101191D01*
X174644519Y-95016613D01*
X174649522Y-94919657D01*
X174655678Y-94818252D01*
X174662501Y-94720329D01*
X174669501Y-94633817D01*
X174676190Y-94566647D01*
X174677467Y-94556082D01*
X174685329Y-94493734D01*
X174722686Y-94531091D01*
X174778333Y-94568395D01*
X174841851Y-94582109D01*
X174905524Y-94572352D01*
X174961637Y-94539244D01*
X174973712Y-94527186D01*
X175011305Y-94485506D01*
X175028359Y-94761468D01*
G37*
%TO.C,C9*%
D14*
X128288748Y-98635000D02*
X128811252Y-98635000D01*
X128288748Y-97165000D02*
X128811252Y-97165000D01*
%TO.C,C7*%
X134738747Y-100835000D02*
X135261253Y-100835000D01*
X134738747Y-99365000D02*
X135261253Y-99365000D01*
%TO.C,C16*%
X170465000Y-95938747D02*
X170465000Y-96461253D01*
X171935000Y-95938747D02*
X171935000Y-96461253D01*
D13*
%TO.C,G\u002A\u002A\u002A*%
G36*
X179955710Y-101799999D02*
G01*
X179955710Y-103000590D01*
X179552386Y-103000590D01*
X179149063Y-103000590D01*
X179149063Y-102672304D01*
X179149063Y-102344017D01*
X178454971Y-102344017D01*
X177760879Y-102344017D01*
X177760879Y-102672304D01*
X177760879Y-103000590D01*
X177357556Y-103000590D01*
X176954233Y-103000590D01*
X176954233Y-101935534D01*
X176954233Y-101468586D01*
X176954233Y-101143426D01*
X177760879Y-101143426D01*
X177760879Y-101468586D01*
X177761581Y-101575458D01*
X177763525Y-101669051D01*
X177766473Y-101743014D01*
X177770186Y-101790996D01*
X177773616Y-101806483D01*
X177794677Y-101809277D01*
X177848968Y-101811591D01*
X177932200Y-101813376D01*
X178040088Y-101814583D01*
X178168345Y-101815165D01*
X178312683Y-101815072D01*
X178463018Y-101814299D01*
X179139683Y-101809379D01*
X179144806Y-101476403D01*
X179149928Y-101143426D01*
X178455404Y-101143426D01*
X177760879Y-101143426D01*
X176954233Y-101143426D01*
X176954233Y-100870478D01*
X177090678Y-100734943D01*
X177227124Y-100599409D01*
X178591417Y-100599409D01*
X179955710Y-100599409D01*
X179955710Y-101799999D01*
G37*
%TO.C,J5*%
D14*
X114450000Y-87230000D02*
X113770000Y-87230000D01*
X114450000Y-103970000D02*
X113770000Y-103970000D01*
X117850000Y-89500000D02*
X117849999Y-87200000D01*
X117850000Y-89500000D02*
X119150000Y-89500000D01*
X117850000Y-101700000D02*
X117849999Y-104000000D01*
%TO.C,D5*%
X149759999Y-84600000D02*
X144249999Y-84600000D01*
X149759999Y-87900000D02*
X144249999Y-87900000D01*
X149759999Y-87900000D02*
X149759999Y-84600000D01*
%TO.C,D1*%
X152350000Y-98490000D02*
X152350000Y-104000000D01*
X155650000Y-98490000D02*
X152350000Y-98490000D01*
X155650000Y-98490000D02*
X155650000Y-104000000D01*
%TO.C,U3*%
X169090000Y-98427499D02*
X170910000Y-98427499D01*
X169090000Y-98477499D02*
X169090000Y-98427499D01*
X169090000Y-101547499D02*
X169090000Y-101497499D01*
X170910000Y-98427499D02*
X170910000Y-98477499D01*
X170910000Y-99597499D02*
X170910000Y-100377499D01*
X170910000Y-101497499D02*
X170910000Y-101547499D01*
X170910000Y-101547499D02*
X169090000Y-101547499D01*
X168550000Y-98477499D02*
X168310000Y-98147499D01*
X168790000Y-98147499D01*
X168550000Y-98477499D01*
G36*
X168550000Y-98477499D02*
G01*
X168310000Y-98147499D01*
X168790000Y-98147499D01*
X168550000Y-98477499D01*
G37*
%TO.C,SW4*%
D15*
X172477750Y-111542947D02*
X172782513Y-111847710D01*
X174657053Y-113722250D02*
X174352290Y-113417487D01*
D16*
X175342947Y-108677750D02*
X172477750Y-111542947D01*
D15*
X175342947Y-108677750D02*
X175647710Y-108982513D01*
X177217487Y-110552290D02*
X177522250Y-110857053D01*
D16*
X177522250Y-110857053D02*
X174657053Y-113722250D01*
D17*
X175900000Y-111200000D02*
G75*
G02*
X174100000Y-111200000I-900000J0D01*
G01*
X174100000Y-111200000D02*
G75*
G02*
X175900000Y-111200000I900000J0D01*
G01*
%TO.C,R4*%
D14*
X164620000Y-103846359D02*
X164620000Y-104153641D01*
X165380000Y-103846359D02*
X165380000Y-104153641D01*
%TO.C,C13*%
X131238748Y-84265000D02*
X131761254Y-84265000D01*
X131238748Y-85735000D02*
X131761254Y-85735000D01*
%TO.C,C3*%
X121015000Y-104238747D02*
X121015000Y-104761253D01*
X122485000Y-104238747D02*
X122485000Y-104761253D01*
%TO.C,R3*%
X158643642Y-103220000D02*
X158336360Y-103220000D01*
X158643642Y-103980000D02*
X158336360Y-103980000D01*
%TO.C,C11*%
X152765000Y-85938747D02*
X152765000Y-86461253D01*
X154235000Y-85938747D02*
X154235000Y-86461253D01*
%TO.C,USB-C*%
X159670000Y-111150000D02*
X159670000Y-113070000D01*
X159670000Y-116785000D02*
X159670000Y-115080000D01*
X168830000Y-113070000D02*
X168830000Y-111150000D01*
X168830000Y-115080000D02*
X168830000Y-116785000D01*
X168830000Y-116785000D02*
X159670000Y-116785000D01*
%TO.C,Q1*%
X120865000Y-83765000D02*
X121515000Y-83765000D01*
X120865000Y-85235000D02*
X120865000Y-83765000D01*
X122165000Y-85235000D02*
X121835000Y-85235000D01*
X122485000Y-83765000D02*
X123135000Y-83765000D01*
X123135000Y-83765000D02*
X123135000Y-85235000D01*
X121840000Y-85680000D02*
X122030000Y-85540000D01*
X122030000Y-85820000D01*
X121840000Y-85680000D01*
G36*
X122030000Y-85820000D02*
G01*
X121840000Y-85680000D01*
X122030000Y-85540000D01*
X122030000Y-85820000D01*
G37*
%TO.C,R5*%
X120205786Y-87346359D02*
X120205786Y-87653641D01*
X120965786Y-87346359D02*
X120965786Y-87653641D01*
%TO.C,D3*%
X160350000Y-98490000D02*
X160350000Y-104000000D01*
X163650000Y-98490000D02*
X160350000Y-98490000D01*
X163650000Y-98490000D02*
X163650000Y-104000000D01*
%TO.C,U2*%
X156440000Y-100090000D02*
X156490000Y-100090000D01*
X156440000Y-101910000D02*
X156440000Y-100090000D01*
X156490000Y-101910000D02*
X156440000Y-101910000D01*
X158390000Y-101910000D02*
X157610000Y-101910000D01*
X159510000Y-100090000D02*
X159560000Y-100090000D01*
X159560000Y-100090000D02*
X159560000Y-101910000D01*
X159560000Y-101910000D02*
X159510000Y-101910000D01*
X159510000Y-99550000D02*
X159840000Y-99310000D01*
X159840000Y-99790000D01*
X159510000Y-99550000D01*
G36*
X159840000Y-99790000D02*
G01*
X159510000Y-99550000D01*
X159840000Y-99310000D01*
X159840000Y-99790000D01*
G37*
D13*
%TO.C,G\u002A\u002A\u002A*%
G36*
X168782295Y-101960069D02*
G01*
X168782901Y-101979102D01*
X168783480Y-102009863D01*
X168784026Y-102051549D01*
X168784534Y-102103357D01*
X168785000Y-102164485D01*
X168785419Y-102234128D01*
X168785786Y-102311485D01*
X168786095Y-102395752D01*
X168786343Y-102486127D01*
X168786524Y-102581807D01*
X168786633Y-102681990D01*
X168786666Y-102776666D01*
X168786666Y-103600000D01*
X169093888Y-103600000D01*
X169171744Y-103600138D01*
X169238889Y-103600547D01*
X169294894Y-103601218D01*
X169339327Y-103602141D01*
X169371757Y-103603308D01*
X169391756Y-103604709D01*
X169398890Y-103606335D01*
X169398888Y-103606487D01*
X169394806Y-103613121D01*
X169383718Y-103630069D01*
X169366074Y-103656668D01*
X169342324Y-103692252D01*
X169312918Y-103736158D01*
X169278304Y-103787721D01*
X169238933Y-103846276D01*
X169195255Y-103911160D01*
X169147719Y-103981707D01*
X169096774Y-104057253D01*
X169042870Y-104137134D01*
X168986458Y-104220686D01*
X168927985Y-104307243D01*
X168867903Y-104396142D01*
X168806661Y-104486718D01*
X168744709Y-104578306D01*
X168682495Y-104670243D01*
X168620470Y-104761864D01*
X168559084Y-104852503D01*
X168498785Y-104941498D01*
X168440024Y-105028183D01*
X168383251Y-105111894D01*
X168328914Y-105191967D01*
X168277464Y-105267737D01*
X168229350Y-105338539D01*
X168185022Y-105403710D01*
X168144929Y-105462585D01*
X168109522Y-105514499D01*
X168079249Y-105558788D01*
X168054560Y-105594787D01*
X168035906Y-105621833D01*
X168023735Y-105639260D01*
X168018498Y-105646404D01*
X168018333Y-105646549D01*
X168017704Y-105640031D01*
X168017097Y-105620983D01*
X168016519Y-105590207D01*
X168015973Y-105548507D01*
X168015465Y-105496686D01*
X168014999Y-105435547D01*
X168014580Y-105365892D01*
X168014213Y-105288524D01*
X168013904Y-105204248D01*
X168013656Y-105113865D01*
X168013475Y-105018178D01*
X168013366Y-104917991D01*
X168013333Y-104823333D01*
X168013333Y-104000000D01*
X167706111Y-104000000D01*
X167627296Y-103999860D01*
X167559624Y-103999446D01*
X167503458Y-103998766D01*
X167459160Y-103997827D01*
X167427093Y-103996637D01*
X167407617Y-103995204D01*
X167401097Y-103993536D01*
X167401111Y-103993465D01*
X167405185Y-103986848D01*
X167416265Y-103969915D01*
X167433903Y-103943331D01*
X167457648Y-103907760D01*
X167487051Y-103863866D01*
X167521662Y-103812314D01*
X167561031Y-103753769D01*
X167604708Y-103688894D01*
X167652244Y-103618355D01*
X167703189Y-103542816D01*
X167757093Y-103462942D01*
X167813508Y-103379396D01*
X167871982Y-103292843D01*
X167932066Y-103203949D01*
X167993311Y-103113377D01*
X168055266Y-103021791D01*
X168117483Y-102929857D01*
X168179511Y-102838239D01*
X168240901Y-102747601D01*
X168301203Y-102658608D01*
X168359967Y-102571924D01*
X168416744Y-102488214D01*
X168471084Y-102408142D01*
X168522536Y-102332372D01*
X168570653Y-102261570D01*
X168614983Y-102196400D01*
X168655077Y-102137525D01*
X168690485Y-102085612D01*
X168720758Y-102041323D01*
X168745446Y-102005324D01*
X168764099Y-101978279D01*
X168776268Y-101960853D01*
X168781502Y-101953710D01*
X168781666Y-101953565D01*
X168782295Y-101960069D01*
G37*
%TO.C,ESP32 S3 MINI 1*%
D14*
X160675000Y-69850000D02*
X160675000Y-72300000D01*
X160675000Y-69850000D02*
X163125000Y-69850000D01*
X160950000Y-70100000D02*
X176550000Y-70100000D01*
X160950000Y-90800000D02*
X160950000Y-70100000D01*
X176550000Y-70100000D02*
X176550000Y-90800000D01*
X176550000Y-90800000D02*
X160950000Y-90800000D01*
X160775000Y-77050000D02*
X160439000Y-77290000D01*
X160439000Y-76810000D01*
X160775000Y-77050000D01*
G36*
X160775000Y-77050000D02*
G01*
X160439000Y-77290000D01*
X160439000Y-76810000D01*
X160775000Y-77050000D01*
G37*
%TO.C,R6*%
X122620000Y-87653641D02*
X122620000Y-87346359D01*
X123380000Y-87653641D02*
X123380000Y-87346359D01*
%TO.C,IO pins*%
X180620000Y-76380000D02*
X182000000Y-76380000D01*
X180620000Y-77760000D02*
X180620000Y-76380000D01*
X180620000Y-79030000D02*
X180620000Y-96920000D01*
X180620000Y-79030000D02*
X183380000Y-79030000D01*
X180620000Y-96920000D02*
X183380000Y-96920000D01*
X183380000Y-79030000D02*
X183380000Y-96920000D01*
%TO.C,D6*%
X139710000Y-103750000D02*
X134200000Y-103750000D01*
X139710000Y-107050000D02*
X139710000Y-103750000D01*
X139710000Y-107050000D02*
X134200000Y-107050000D01*
D13*
%TO.C,G\u002A\u002A\u002A*%
G36*
X173347961Y-107275626D02*
G01*
X173500738Y-107451843D01*
X173500738Y-107699539D01*
X173500738Y-107947235D01*
X173355354Y-108115453D01*
X173298581Y-108182446D01*
X173252188Y-108239674D01*
X173221033Y-108280967D01*
X173209970Y-108299999D01*
X173221579Y-108319808D01*
X173253166Y-108361567D01*
X173299873Y-108419109D01*
X173355354Y-108484546D01*
X173500738Y-108652764D01*
X173500738Y-108900460D01*
X173500738Y-109148156D01*
X173347961Y-109324373D01*
X173195184Y-109500590D01*
X171847222Y-109500590D01*
X170499261Y-109500590D01*
X170499261Y-109087887D01*
X171399704Y-109087887D01*
X171999999Y-109087887D01*
X172600294Y-109087887D01*
X172600294Y-108797119D01*
X172600294Y-108506351D01*
X171999999Y-108506351D01*
X171399704Y-108506351D01*
X171399704Y-108797119D01*
X171399704Y-109087887D01*
X170499261Y-109087887D01*
X170499261Y-108797119D01*
X170499261Y-108299999D01*
X170499261Y-108112407D01*
X171399704Y-108112407D01*
X171999999Y-108112407D01*
X172600294Y-108112407D01*
X172600294Y-107821639D01*
X172600294Y-107530871D01*
X171999999Y-107530871D01*
X171399704Y-107530871D01*
X171399704Y-107821639D01*
X171399704Y-108112407D01*
X170499261Y-108112407D01*
X170499261Y-107821639D01*
X170499261Y-107099409D01*
X171847222Y-107099409D01*
X173195184Y-107099409D01*
X173347961Y-107275626D01*
G37*
%TO.C,C15*%
D14*
X165265000Y-99261253D02*
X165265000Y-98738747D01*
X166735000Y-99261253D02*
X166735000Y-98738747D01*
%TO.C,C4*%
X123765000Y-104238747D02*
X123765000Y-104761253D01*
X125235000Y-104238747D02*
X125235000Y-104761253D01*
%TO.C,SW3*%
D16*
X178932722Y-105042947D02*
X181797919Y-102177750D01*
D15*
X179237485Y-105347710D02*
X178932722Y-105042947D01*
X181112025Y-107222250D02*
X180807262Y-106917487D01*
D16*
X181112025Y-107222250D02*
X183977222Y-104357053D01*
D15*
X181797919Y-102177750D02*
X182102682Y-102482513D01*
X183977222Y-104357053D02*
X183672459Y-104052290D01*
D17*
X182354972Y-104700000D02*
G75*
G02*
X180554972Y-104700000I-900000J0D01*
G01*
X180554972Y-104700000D02*
G75*
G02*
X182354972Y-104700000I900000J0D01*
G01*
%TO.C,J3*%
D14*
X151940000Y-109090000D02*
X151940000Y-116910000D01*
X151940000Y-110690000D02*
X152860000Y-110690000D01*
X151940000Y-116910000D02*
X158060000Y-116910000D01*
X152860000Y-109090000D02*
X151940000Y-109090000D01*
X152860000Y-110690000D02*
X152860000Y-109090000D01*
X153140000Y-110690000D02*
X152860000Y-110690000D01*
X153140000Y-110690000D02*
X153140000Y-109475000D01*
X153200000Y-114650000D02*
X153200000Y-116910000D01*
X153700000Y-114650000D02*
X153700000Y-116910000D01*
X154500000Y-112550000D02*
X155500000Y-112550000D01*
X154500000Y-116910000D02*
X154500000Y-112550000D01*
X155500000Y-112550000D02*
X155500000Y-116910000D01*
X157140000Y-109090000D02*
X157140000Y-110690000D01*
X157140000Y-110690000D02*
X156860000Y-110690000D01*
X158060000Y-109090000D02*
X157140000Y-109090000D01*
X158060000Y-110690000D02*
X157140000Y-110690000D01*
X158060000Y-116910000D02*
X158060000Y-109090000D01*
X152700000Y-113050000D02*
X153700000Y-113050000D01*
X153700000Y-114650000D01*
X152700000Y-114650000D01*
X152700000Y-113050000D01*
X156300000Y-113050000D02*
X157300000Y-113050000D01*
X157300000Y-114650000D01*
X156300000Y-114650000D01*
X156300000Y-113050000D01*
%TO.C,C14*%
X131238748Y-87515000D02*
X131761252Y-87515000D01*
X131238748Y-88985000D02*
X131761252Y-88985000D01*
%TO.C,C2*%
X157638748Y-95265000D02*
X158161252Y-95265000D01*
X157638748Y-96735000D02*
X158161252Y-96735000D01*
%TO.C,D2*%
X165765000Y-102515000D02*
X165765000Y-104800000D01*
X167235000Y-102515000D02*
X165765000Y-102515000D01*
X167235000Y-104800000D02*
X167235000Y-102515000D01*
%TO.C,C5*%
X126515000Y-104238747D02*
X126515000Y-104761253D01*
X127985000Y-104238747D02*
X127985000Y-104761253D01*
%TO.C,C1*%
X157261253Y-106265000D02*
X156738747Y-106265000D01*
X157261253Y-107735000D02*
X156738747Y-107735000D01*
%TO.C,R8*%
X165620000Y-107143641D02*
X165620000Y-106836359D01*
X166380000Y-107143641D02*
X166380000Y-106836359D01*
%TO.C,C12*%
X156765000Y-85938747D02*
X156765000Y-86461253D01*
X158235000Y-85938747D02*
X158235000Y-86461253D01*
%TO.C,D4*%
X140760000Y-84600000D02*
X135250000Y-84600000D01*
X140760000Y-87900000D02*
X135250000Y-87900000D01*
X140760000Y-87900000D02*
X140760000Y-84600000D01*
%TO.C,L1*%
X152390000Y-76890000D02*
X158610000Y-76890000D01*
X158610000Y-83110000D02*
X152390000Y-83110000D01*
%TO.C,C6*%
X129265000Y-104238747D02*
X129265000Y-104761253D01*
X130735000Y-104238747D02*
X130735000Y-104761253D01*
%TO.C,R7*%
X162620000Y-107153641D02*
X162620000Y-106846359D01*
X163380000Y-107153641D02*
X163380000Y-106846359D01*
D13*
%TO.C,G\u002A\u002A\u002A*%
G36*
X155375600Y-90460998D02*
G01*
X155375600Y-90648798D01*
X155563401Y-90648798D01*
X155751201Y-90648798D01*
X155751201Y-90836598D01*
X155751201Y-91024399D01*
X155939001Y-91024399D01*
X156126802Y-91024399D01*
X156126802Y-91399999D01*
X156126802Y-91775600D01*
X155939001Y-91775600D01*
X155751201Y-91775600D01*
X155751201Y-91963401D01*
X155751201Y-92151201D01*
X155563401Y-92151201D01*
X155375600Y-92151201D01*
X155375600Y-92339001D01*
X155375600Y-92526802D01*
X154999999Y-92526802D01*
X154624399Y-92526802D01*
X154624399Y-92339001D01*
X154624399Y-92151201D01*
X154436598Y-92151201D01*
X154248798Y-92151201D01*
X154248798Y-91963401D01*
X154248798Y-91775600D01*
X154060998Y-91775600D01*
X153873197Y-91775600D01*
X153873197Y-91399999D01*
X153873197Y-91024399D01*
X154060998Y-91024399D01*
X154248798Y-91024399D01*
X154248798Y-90836598D01*
X154248798Y-90648798D01*
X154436598Y-90648798D01*
X154624399Y-90648798D01*
X154624399Y-90460998D01*
X154624399Y-90273197D01*
X154999999Y-90273197D01*
X155375600Y-90273197D01*
X155375600Y-90460998D01*
G37*
G36*
X155375600Y-88582994D02*
G01*
X155375600Y-88770794D01*
X155563401Y-88770794D01*
X155751201Y-88770794D01*
X155751201Y-88958595D01*
X155751201Y-89146395D01*
X155939001Y-89146395D01*
X156126802Y-89146395D01*
X156126802Y-89334195D01*
X156126802Y-89521996D01*
X157065803Y-89521996D01*
X158004805Y-89521996D01*
X158004805Y-89709796D01*
X158004805Y-89897596D01*
X157817005Y-89897596D01*
X157629205Y-89897596D01*
X157629205Y-90085397D01*
X157629205Y-90273197D01*
X157441404Y-90273197D01*
X157253604Y-90273197D01*
X157253604Y-90460998D01*
X157253604Y-90648798D01*
X157441404Y-90648798D01*
X157629205Y-90648798D01*
X157629205Y-90836598D01*
X157629205Y-91024399D01*
X157817005Y-91024399D01*
X158004805Y-91024399D01*
X158004805Y-91399999D01*
X158004805Y-91775600D01*
X157817005Y-91775600D01*
X157629205Y-91775600D01*
X157629205Y-91963401D01*
X157629205Y-92151201D01*
X157441404Y-92151201D01*
X157253604Y-92151201D01*
X157253604Y-92339001D01*
X157253604Y-92526802D01*
X157441404Y-92526802D01*
X157629205Y-92526802D01*
X157629205Y-92714602D01*
X157629205Y-92902402D01*
X157817005Y-92902402D01*
X158004805Y-92902402D01*
X158004805Y-93090203D01*
X158004805Y-93278003D01*
X157065803Y-93278003D01*
X156126802Y-93278003D01*
X156126802Y-93465803D01*
X156126802Y-93653604D01*
X155939001Y-93653604D01*
X155751201Y-93653604D01*
X155751201Y-93841404D01*
X155751201Y-94029205D01*
X155563401Y-94029205D01*
X155375600Y-94029205D01*
X155375600Y-94217005D01*
X155375600Y-94404805D01*
X154999999Y-94404805D01*
X154624399Y-94404805D01*
X154624399Y-94217005D01*
X154624399Y-94029205D01*
X154436598Y-94029205D01*
X154248798Y-94029205D01*
X154248798Y-93841404D01*
X154248798Y-93653604D01*
X154060998Y-93653604D01*
X153873197Y-93653604D01*
X153873197Y-93465803D01*
X153873197Y-93278003D01*
X152934195Y-93278003D01*
X151995194Y-93278003D01*
X151995194Y-93090203D01*
X151995194Y-92902402D01*
X152182994Y-92902402D01*
X152370794Y-92902402D01*
X152370794Y-92714602D01*
X152370794Y-92526802D01*
X152558595Y-92526802D01*
X152746395Y-92526802D01*
X152746395Y-92339001D01*
X152746395Y-92151201D01*
X152558595Y-92151201D01*
X152370794Y-92151201D01*
X152370794Y-91963401D01*
X152370794Y-91775600D01*
X152182994Y-91775600D01*
X151995194Y-91775600D01*
X151995194Y-91399999D01*
X153121996Y-91399999D01*
X153121996Y-91775600D01*
X153309796Y-91775600D01*
X153497596Y-91775600D01*
X153497596Y-91963401D01*
X153497596Y-92151201D01*
X153685397Y-92151201D01*
X153873197Y-92151201D01*
X153873197Y-92339001D01*
X153873197Y-92526802D01*
X154060998Y-92526802D01*
X154248798Y-92526802D01*
X154248798Y-92714602D01*
X154248798Y-92902402D01*
X154436598Y-92902402D01*
X154624399Y-92902402D01*
X154624399Y-93090203D01*
X154624399Y-93278003D01*
X154999999Y-93278003D01*
X155375600Y-93278003D01*
X155375600Y-93090203D01*
X155375600Y-92902402D01*
X155563401Y-92902402D01*
X155751201Y-92902402D01*
X155751201Y-92714602D01*
X155751201Y-92526802D01*
X155939001Y-92526802D01*
X156126802Y-92526802D01*
X156126802Y-92339001D01*
X156126802Y-92151201D01*
X156314602Y-92151201D01*
X156502402Y-92151201D01*
X156502402Y-91963401D01*
X156502402Y-91775600D01*
X156690203Y-91775600D01*
X156878003Y-91775600D01*
X156878003Y-91399999D01*
X156878003Y-91024399D01*
X156690203Y-91024399D01*
X156502402Y-91024399D01*
X156502402Y-90836598D01*
X156502402Y-90648798D01*
X156314602Y-90648798D01*
X156126802Y-90648798D01*
X156126802Y-90460998D01*
X156126802Y-90273197D01*
X155939001Y-90273197D01*
X155751201Y-90273197D01*
X155751201Y-90085397D01*
X155751201Y-89897596D01*
X155563401Y-89897596D01*
X155375600Y-89897596D01*
X155375600Y-89709796D01*
X155375600Y-89521996D01*
X154999999Y-89521996D01*
X154624399Y-89521996D01*
X154624399Y-89709796D01*
X154624399Y-89897596D01*
X154436598Y-89897596D01*
X154248798Y-89897596D01*
X154248798Y-90085397D01*
X154248798Y-90273197D01*
X154060998Y-90273197D01*
X153873197Y-90273197D01*
X153873197Y-90460998D01*
X153873197Y-90648798D01*
X153685397Y-90648798D01*
X153497596Y-90648798D01*
X153497596Y-90836598D01*
X153497596Y-91024399D01*
X153309796Y-91024399D01*
X153121996Y-91024399D01*
X153121996Y-91399999D01*
X151995194Y-91399999D01*
X151995194Y-91024399D01*
X152182994Y-91024399D01*
X152370794Y-91024399D01*
X152370794Y-90836598D01*
X152370794Y-90648798D01*
X152558595Y-90648798D01*
X152746395Y-90648798D01*
X152746395Y-90460998D01*
X152746395Y-90273197D01*
X152558595Y-90273197D01*
X152370794Y-90273197D01*
X152370794Y-90085397D01*
X152370794Y-89897596D01*
X152182994Y-89897596D01*
X151995194Y-89897596D01*
X151995194Y-89709796D01*
X151995194Y-89521996D01*
X152934195Y-89521996D01*
X153873197Y-89521996D01*
X153873197Y-89334195D01*
X153873197Y-89146395D01*
X154060998Y-89146395D01*
X154248798Y-89146395D01*
X154248798Y-88958595D01*
X154248798Y-88770794D01*
X154436598Y-88770794D01*
X154624399Y-88770794D01*
X154624399Y-88582994D01*
X154624399Y-88395194D01*
X154999999Y-88395194D01*
X155375600Y-88395194D01*
X155375600Y-88582994D01*
G37*
%TO.C,C10*%
D14*
X128288747Y-96435000D02*
X128811253Y-96435000D01*
X128288747Y-94965000D02*
X128811253Y-94965000D01*
%TD*%
M02*
