%TF.GenerationSoftware,KiCad,Pcbnew,10.0.3*%
%TF.CreationDate,2026-06-30T23:08:37-04:00*%
%TF.ProjectId,watch,77617463-682e-46b6-9963-61645f706362,rev?*%
%TF.SameCoordinates,Original*%
%TF.FileFunction,Legend,Bot*%
%TF.FilePolarity,Positive*%
%FSLAX46Y46*%
G04 Gerber Fmt 4.6, Leading zero omitted, Abs format (unit mm)*
G04 Created by KiCad (PCBNEW 10.0.3) date 2026-06-30 23:08:37*
%MOMM*%
%LPD*%
G01*
G04 APERTURE LIST*
%ADD10C,0.200000*%
%ADD11C,0.100000*%
%ADD12C,0.187500*%
%ADD13C,0.150000*%
%ADD14C,0.000000*%
%ADD15C,0.120000*%
%ADD16C,0.254000*%
%ADD17C,0.152000*%
%ADD18C,0.152500*%
G04 APERTURE END LIST*
D10*
X169477945Y-78762457D02*
X169430326Y-78714838D01*
X169430326Y-78714838D02*
X169335088Y-78667219D01*
X169335088Y-78667219D02*
X169096993Y-78667219D01*
X169096993Y-78667219D02*
X169001755Y-78714838D01*
X169001755Y-78714838D02*
X168954136Y-78762457D01*
X168954136Y-78762457D02*
X168906517Y-78857695D01*
X168906517Y-78857695D02*
X168906517Y-78952933D01*
X168906517Y-78952933D02*
X168954136Y-79095790D01*
X168954136Y-79095790D02*
X169525564Y-79667219D01*
X169525564Y-79667219D02*
X168906517Y-79667219D01*
X168287469Y-78667219D02*
X168192231Y-78667219D01*
X168192231Y-78667219D02*
X168096993Y-78714838D01*
X168096993Y-78714838D02*
X168049374Y-78762457D01*
X168049374Y-78762457D02*
X168001755Y-78857695D01*
X168001755Y-78857695D02*
X167954136Y-79048171D01*
X167954136Y-79048171D02*
X167954136Y-79286266D01*
X167954136Y-79286266D02*
X168001755Y-79476742D01*
X168001755Y-79476742D02*
X168049374Y-79571980D01*
X168049374Y-79571980D02*
X168096993Y-79619600D01*
X168096993Y-79619600D02*
X168192231Y-79667219D01*
X168192231Y-79667219D02*
X168287469Y-79667219D01*
X168287469Y-79667219D02*
X168382707Y-79619600D01*
X168382707Y-79619600D02*
X168430326Y-79571980D01*
X168430326Y-79571980D02*
X168477945Y-79476742D01*
X168477945Y-79476742D02*
X168525564Y-79286266D01*
X168525564Y-79286266D02*
X168525564Y-79048171D01*
X168525564Y-79048171D02*
X168477945Y-78857695D01*
X168477945Y-78857695D02*
X168430326Y-78762457D01*
X168430326Y-78762457D02*
X168382707Y-78714838D01*
X168382707Y-78714838D02*
X168287469Y-78667219D01*
X167335088Y-78667219D02*
X167239850Y-78667219D01*
X167239850Y-78667219D02*
X167144612Y-78714838D01*
X167144612Y-78714838D02*
X167096993Y-78762457D01*
X167096993Y-78762457D02*
X167049374Y-78857695D01*
X167049374Y-78857695D02*
X167001755Y-79048171D01*
X167001755Y-79048171D02*
X167001755Y-79286266D01*
X167001755Y-79286266D02*
X167049374Y-79476742D01*
X167049374Y-79476742D02*
X167096993Y-79571980D01*
X167096993Y-79571980D02*
X167144612Y-79619600D01*
X167144612Y-79619600D02*
X167239850Y-79667219D01*
X167239850Y-79667219D02*
X167335088Y-79667219D01*
X167335088Y-79667219D02*
X167430326Y-79619600D01*
X167430326Y-79619600D02*
X167477945Y-79571980D01*
X167477945Y-79571980D02*
X167525564Y-79476742D01*
X167525564Y-79476742D02*
X167573183Y-79286266D01*
X167573183Y-79286266D02*
X167573183Y-79048171D01*
X167573183Y-79048171D02*
X167525564Y-78857695D01*
X167525564Y-78857695D02*
X167477945Y-78762457D01*
X167477945Y-78762457D02*
X167430326Y-78714838D01*
X167430326Y-78714838D02*
X167335088Y-78667219D01*
X166382707Y-78667219D02*
X166287469Y-78667219D01*
X166287469Y-78667219D02*
X166192231Y-78714838D01*
X166192231Y-78714838D02*
X166144612Y-78762457D01*
X166144612Y-78762457D02*
X166096993Y-78857695D01*
X166096993Y-78857695D02*
X166049374Y-79048171D01*
X166049374Y-79048171D02*
X166049374Y-79286266D01*
X166049374Y-79286266D02*
X166096993Y-79476742D01*
X166096993Y-79476742D02*
X166144612Y-79571980D01*
X166144612Y-79571980D02*
X166192231Y-79619600D01*
X166192231Y-79619600D02*
X166287469Y-79667219D01*
X166287469Y-79667219D02*
X166382707Y-79667219D01*
X166382707Y-79667219D02*
X166477945Y-79619600D01*
X166477945Y-79619600D02*
X166525564Y-79571980D01*
X166525564Y-79571980D02*
X166573183Y-79476742D01*
X166573183Y-79476742D02*
X166620802Y-79286266D01*
X166620802Y-79286266D02*
X166620802Y-79048171D01*
X166620802Y-79048171D02*
X166573183Y-78857695D01*
X166573183Y-78857695D02*
X166525564Y-78762457D01*
X166525564Y-78762457D02*
X166477945Y-78714838D01*
X166477945Y-78714838D02*
X166382707Y-78667219D01*
X165620802Y-79667219D02*
X165620802Y-79000552D01*
X165620802Y-79095790D02*
X165573183Y-79048171D01*
X165573183Y-79048171D02*
X165477945Y-79000552D01*
X165477945Y-79000552D02*
X165335088Y-79000552D01*
X165335088Y-79000552D02*
X165239850Y-79048171D01*
X165239850Y-79048171D02*
X165192231Y-79143409D01*
X165192231Y-79143409D02*
X165192231Y-79667219D01*
X165192231Y-79143409D02*
X165144612Y-79048171D01*
X165144612Y-79048171D02*
X165049374Y-79000552D01*
X165049374Y-79000552D02*
X164906517Y-79000552D01*
X164906517Y-79000552D02*
X164811278Y-79048171D01*
X164811278Y-79048171D02*
X164763659Y-79143409D01*
X164763659Y-79143409D02*
X164763659Y-79667219D01*
X164335088Y-79381504D02*
X163858898Y-79381504D01*
X164430326Y-79667219D02*
X164096993Y-78667219D01*
X164096993Y-78667219D02*
X163763660Y-79667219D01*
X163430326Y-79667219D02*
X163430326Y-78667219D01*
X163001755Y-79667219D02*
X163001755Y-79143409D01*
X163001755Y-79143409D02*
X163049374Y-79048171D01*
X163049374Y-79048171D02*
X163144612Y-79000552D01*
X163144612Y-79000552D02*
X163287469Y-79000552D01*
X163287469Y-79000552D02*
X163382707Y-79048171D01*
X163382707Y-79048171D02*
X163430326Y-79095790D01*
X161430326Y-79143409D02*
X161287469Y-79191028D01*
X161287469Y-79191028D02*
X161239850Y-79238647D01*
X161239850Y-79238647D02*
X161192231Y-79333885D01*
X161192231Y-79333885D02*
X161192231Y-79476742D01*
X161192231Y-79476742D02*
X161239850Y-79571980D01*
X161239850Y-79571980D02*
X161287469Y-79619600D01*
X161287469Y-79619600D02*
X161382707Y-79667219D01*
X161382707Y-79667219D02*
X161763659Y-79667219D01*
X161763659Y-79667219D02*
X161763659Y-78667219D01*
X161763659Y-78667219D02*
X161430326Y-78667219D01*
X161430326Y-78667219D02*
X161335088Y-78714838D01*
X161335088Y-78714838D02*
X161287469Y-78762457D01*
X161287469Y-78762457D02*
X161239850Y-78857695D01*
X161239850Y-78857695D02*
X161239850Y-78952933D01*
X161239850Y-78952933D02*
X161287469Y-79048171D01*
X161287469Y-79048171D02*
X161335088Y-79095790D01*
X161335088Y-79095790D02*
X161430326Y-79143409D01*
X161430326Y-79143409D02*
X161763659Y-79143409D01*
X160335088Y-79667219D02*
X160335088Y-79143409D01*
X160335088Y-79143409D02*
X160382707Y-79048171D01*
X160382707Y-79048171D02*
X160477945Y-79000552D01*
X160477945Y-79000552D02*
X160668421Y-79000552D01*
X160668421Y-79000552D02*
X160763659Y-79048171D01*
X160335088Y-79619600D02*
X160430326Y-79667219D01*
X160430326Y-79667219D02*
X160668421Y-79667219D01*
X160668421Y-79667219D02*
X160763659Y-79619600D01*
X160763659Y-79619600D02*
X160811278Y-79524361D01*
X160811278Y-79524361D02*
X160811278Y-79429123D01*
X160811278Y-79429123D02*
X160763659Y-79333885D01*
X160763659Y-79333885D02*
X160668421Y-79286266D01*
X160668421Y-79286266D02*
X160430326Y-79286266D01*
X160430326Y-79286266D02*
X160335088Y-79238647D01*
X160001754Y-79000552D02*
X159620802Y-79000552D01*
X159858897Y-78667219D02*
X159858897Y-79524361D01*
X159858897Y-79524361D02*
X159811278Y-79619600D01*
X159811278Y-79619600D02*
X159716040Y-79667219D01*
X159716040Y-79667219D02*
X159620802Y-79667219D01*
X159430325Y-79000552D02*
X159049373Y-79000552D01*
X159287468Y-78667219D02*
X159287468Y-79524361D01*
X159287468Y-79524361D02*
X159239849Y-79619600D01*
X159239849Y-79619600D02*
X159144611Y-79667219D01*
X159144611Y-79667219D02*
X159049373Y-79667219D01*
X158335087Y-79619600D02*
X158430325Y-79667219D01*
X158430325Y-79667219D02*
X158620801Y-79667219D01*
X158620801Y-79667219D02*
X158716039Y-79619600D01*
X158716039Y-79619600D02*
X158763658Y-79524361D01*
X158763658Y-79524361D02*
X158763658Y-79143409D01*
X158763658Y-79143409D02*
X158716039Y-79048171D01*
X158716039Y-79048171D02*
X158620801Y-79000552D01*
X158620801Y-79000552D02*
X158430325Y-79000552D01*
X158430325Y-79000552D02*
X158335087Y-79048171D01*
X158335087Y-79048171D02*
X158287468Y-79143409D01*
X158287468Y-79143409D02*
X158287468Y-79238647D01*
X158287468Y-79238647D02*
X158763658Y-79333885D01*
X157858896Y-79667219D02*
X157858896Y-79000552D01*
X157858896Y-79191028D02*
X157811277Y-79095790D01*
X157811277Y-79095790D02*
X157763658Y-79048171D01*
X157763658Y-79048171D02*
X157668420Y-79000552D01*
X157668420Y-79000552D02*
X157573182Y-79000552D01*
X157335086Y-79000552D02*
X157096991Y-79667219D01*
X156858896Y-79000552D02*
X157096991Y-79667219D01*
X157096991Y-79667219D02*
X157192229Y-79905314D01*
X157192229Y-79905314D02*
X157239848Y-79952933D01*
X157239848Y-79952933D02*
X157335086Y-80000552D01*
D11*
X120800000Y-109050000D02*
X170800000Y-109050000D01*
X170800000Y-109050000D02*
X170800000Y-75050000D01*
X170800000Y-75050000D02*
X120800000Y-75050000D01*
X120800000Y-75050000D02*
X120800000Y-109050000D01*
D12*
X169386168Y-80317869D02*
X169386168Y-80508345D01*
X169005216Y-80317869D02*
X169005216Y-80508345D01*
X168243311Y-80794059D02*
X168100454Y-80841678D01*
X168100454Y-80841678D02*
X168052835Y-80889297D01*
X168052835Y-80889297D02*
X168005216Y-80984535D01*
X168005216Y-80984535D02*
X168005216Y-81127392D01*
X168005216Y-81127392D02*
X168052835Y-81222630D01*
X168052835Y-81222630D02*
X168100454Y-81270250D01*
X168100454Y-81270250D02*
X168195692Y-81317869D01*
X168195692Y-81317869D02*
X168576644Y-81317869D01*
X168576644Y-81317869D02*
X168576644Y-80317869D01*
X168576644Y-80317869D02*
X168243311Y-80317869D01*
X168243311Y-80317869D02*
X168148073Y-80365488D01*
X168148073Y-80365488D02*
X168100454Y-80413107D01*
X168100454Y-80413107D02*
X168052835Y-80508345D01*
X168052835Y-80508345D02*
X168052835Y-80603583D01*
X168052835Y-80603583D02*
X168100454Y-80698821D01*
X168100454Y-80698821D02*
X168148073Y-80746440D01*
X168148073Y-80746440D02*
X168243311Y-80794059D01*
X168243311Y-80794059D02*
X168576644Y-80794059D01*
X167195692Y-81270250D02*
X167290930Y-81317869D01*
X167290930Y-81317869D02*
X167481406Y-81317869D01*
X167481406Y-81317869D02*
X167576644Y-81270250D01*
X167576644Y-81270250D02*
X167624263Y-81175011D01*
X167624263Y-81175011D02*
X167624263Y-80794059D01*
X167624263Y-80794059D02*
X167576644Y-80698821D01*
X167576644Y-80698821D02*
X167481406Y-80651202D01*
X167481406Y-80651202D02*
X167290930Y-80651202D01*
X167290930Y-80651202D02*
X167195692Y-80698821D01*
X167195692Y-80698821D02*
X167148073Y-80794059D01*
X167148073Y-80794059D02*
X167148073Y-80889297D01*
X167148073Y-80889297D02*
X167624263Y-80984535D01*
X166719501Y-81317869D02*
X166719501Y-80651202D01*
X166719501Y-80841678D02*
X166671882Y-80746440D01*
X166671882Y-80746440D02*
X166624263Y-80698821D01*
X166624263Y-80698821D02*
X166529025Y-80651202D01*
X166529025Y-80651202D02*
X166433787Y-80651202D01*
X166100453Y-80651202D02*
X166100453Y-81317869D01*
X166100453Y-80746440D02*
X166052834Y-80698821D01*
X166052834Y-80698821D02*
X165957596Y-80651202D01*
X165957596Y-80651202D02*
X165814739Y-80651202D01*
X165814739Y-80651202D02*
X165719501Y-80698821D01*
X165719501Y-80698821D02*
X165671882Y-80794059D01*
X165671882Y-80794059D02*
X165671882Y-81317869D01*
X165195691Y-81317869D02*
X165195691Y-80651202D01*
X165195691Y-80317869D02*
X165243310Y-80365488D01*
X165243310Y-80365488D02*
X165195691Y-80413107D01*
X165195691Y-80413107D02*
X165148072Y-80365488D01*
X165148072Y-80365488D02*
X165195691Y-80317869D01*
X165195691Y-80317869D02*
X165195691Y-80413107D01*
X164338549Y-81270250D02*
X164433787Y-81317869D01*
X164433787Y-81317869D02*
X164624263Y-81317869D01*
X164624263Y-81317869D02*
X164719501Y-81270250D01*
X164719501Y-81270250D02*
X164767120Y-81175011D01*
X164767120Y-81175011D02*
X164767120Y-80794059D01*
X164767120Y-80794059D02*
X164719501Y-80698821D01*
X164719501Y-80698821D02*
X164624263Y-80651202D01*
X164624263Y-80651202D02*
X164433787Y-80651202D01*
X164433787Y-80651202D02*
X164338549Y-80698821D01*
X164338549Y-80698821D02*
X164290930Y-80794059D01*
X164290930Y-80794059D02*
X164290930Y-80889297D01*
X164290930Y-80889297D02*
X164767120Y-80984535D01*
X163909977Y-80317869D02*
X163909977Y-80508345D01*
X163529025Y-80317869D02*
X163529025Y-80508345D01*
D13*
X173242857Y-84809580D02*
X173290476Y-84857200D01*
X173290476Y-84857200D02*
X173433333Y-84904819D01*
X173433333Y-84904819D02*
X173528571Y-84904819D01*
X173528571Y-84904819D02*
X173671428Y-84857200D01*
X173671428Y-84857200D02*
X173766666Y-84761961D01*
X173766666Y-84761961D02*
X173814285Y-84666723D01*
X173814285Y-84666723D02*
X173861904Y-84476247D01*
X173861904Y-84476247D02*
X173861904Y-84333390D01*
X173861904Y-84333390D02*
X173814285Y-84142914D01*
X173814285Y-84142914D02*
X173766666Y-84047676D01*
X173766666Y-84047676D02*
X173671428Y-83952438D01*
X173671428Y-83952438D02*
X173528571Y-83904819D01*
X173528571Y-83904819D02*
X173433333Y-83904819D01*
X173433333Y-83904819D02*
X173290476Y-83952438D01*
X173290476Y-83952438D02*
X173242857Y-84000057D01*
X172861904Y-84000057D02*
X172814285Y-83952438D01*
X172814285Y-83952438D02*
X172719047Y-83904819D01*
X172719047Y-83904819D02*
X172480952Y-83904819D01*
X172480952Y-83904819D02*
X172385714Y-83952438D01*
X172385714Y-83952438D02*
X172338095Y-84000057D01*
X172338095Y-84000057D02*
X172290476Y-84095295D01*
X172290476Y-84095295D02*
X172290476Y-84190533D01*
X172290476Y-84190533D02*
X172338095Y-84333390D01*
X172338095Y-84333390D02*
X172909523Y-84904819D01*
X172909523Y-84904819D02*
X172290476Y-84904819D01*
X171671428Y-83904819D02*
X171576190Y-83904819D01*
X171576190Y-83904819D02*
X171480952Y-83952438D01*
X171480952Y-83952438D02*
X171433333Y-84000057D01*
X171433333Y-84000057D02*
X171385714Y-84095295D01*
X171385714Y-84095295D02*
X171338095Y-84285771D01*
X171338095Y-84285771D02*
X171338095Y-84523866D01*
X171338095Y-84523866D02*
X171385714Y-84714342D01*
X171385714Y-84714342D02*
X171433333Y-84809580D01*
X171433333Y-84809580D02*
X171480952Y-84857200D01*
X171480952Y-84857200D02*
X171576190Y-84904819D01*
X171576190Y-84904819D02*
X171671428Y-84904819D01*
X171671428Y-84904819D02*
X171766666Y-84857200D01*
X171766666Y-84857200D02*
X171814285Y-84809580D01*
X171814285Y-84809580D02*
X171861904Y-84714342D01*
X171861904Y-84714342D02*
X171909523Y-84523866D01*
X171909523Y-84523866D02*
X171909523Y-84285771D01*
X171909523Y-84285771D02*
X171861904Y-84095295D01*
X171861904Y-84095295D02*
X171814285Y-84000057D01*
X171814285Y-84000057D02*
X171766666Y-83952438D01*
X171766666Y-83952438D02*
X171671428Y-83904819D01*
X174054819Y-80883333D02*
X173578628Y-80550000D01*
X174054819Y-80311905D02*
X173054819Y-80311905D01*
X173054819Y-80311905D02*
X173054819Y-80692857D01*
X173054819Y-80692857D02*
X173102438Y-80788095D01*
X173102438Y-80788095D02*
X173150057Y-80835714D01*
X173150057Y-80835714D02*
X173245295Y-80883333D01*
X173245295Y-80883333D02*
X173388152Y-80883333D01*
X173388152Y-80883333D02*
X173483390Y-80835714D01*
X173483390Y-80835714D02*
X173531009Y-80788095D01*
X173531009Y-80788095D02*
X173578628Y-80692857D01*
X173578628Y-80692857D02*
X173578628Y-80311905D01*
X173150057Y-81264286D02*
X173102438Y-81311905D01*
X173102438Y-81311905D02*
X173054819Y-81407143D01*
X173054819Y-81407143D02*
X173054819Y-81645238D01*
X173054819Y-81645238D02*
X173102438Y-81740476D01*
X173102438Y-81740476D02*
X173150057Y-81788095D01*
X173150057Y-81788095D02*
X173245295Y-81835714D01*
X173245295Y-81835714D02*
X173340533Y-81835714D01*
X173340533Y-81835714D02*
X173483390Y-81788095D01*
X173483390Y-81788095D02*
X174054819Y-81216667D01*
X174054819Y-81216667D02*
X174054819Y-81835714D01*
X178652381Y-86704819D02*
X178985714Y-86228628D01*
X179223809Y-86704819D02*
X179223809Y-85704819D01*
X179223809Y-85704819D02*
X178842857Y-85704819D01*
X178842857Y-85704819D02*
X178747619Y-85752438D01*
X178747619Y-85752438D02*
X178700000Y-85800057D01*
X178700000Y-85800057D02*
X178652381Y-85895295D01*
X178652381Y-85895295D02*
X178652381Y-86038152D01*
X178652381Y-86038152D02*
X178700000Y-86133390D01*
X178700000Y-86133390D02*
X178747619Y-86181009D01*
X178747619Y-86181009D02*
X178842857Y-86228628D01*
X178842857Y-86228628D02*
X179223809Y-86228628D01*
X178223809Y-86181009D02*
X177890476Y-86181009D01*
X177747619Y-86704819D02*
X178223809Y-86704819D01*
X178223809Y-86704819D02*
X178223809Y-85704819D01*
X178223809Y-85704819D02*
X177747619Y-85704819D01*
X177366666Y-86657200D02*
X177223809Y-86704819D01*
X177223809Y-86704819D02*
X176985714Y-86704819D01*
X176985714Y-86704819D02*
X176890476Y-86657200D01*
X176890476Y-86657200D02*
X176842857Y-86609580D01*
X176842857Y-86609580D02*
X176795238Y-86514342D01*
X176795238Y-86514342D02*
X176795238Y-86419104D01*
X176795238Y-86419104D02*
X176842857Y-86323866D01*
X176842857Y-86323866D02*
X176890476Y-86276247D01*
X176890476Y-86276247D02*
X176985714Y-86228628D01*
X176985714Y-86228628D02*
X177176190Y-86181009D01*
X177176190Y-86181009D02*
X177271428Y-86133390D01*
X177271428Y-86133390D02*
X177319047Y-86085771D01*
X177319047Y-86085771D02*
X177366666Y-85990533D01*
X177366666Y-85990533D02*
X177366666Y-85895295D01*
X177366666Y-85895295D02*
X177319047Y-85800057D01*
X177319047Y-85800057D02*
X177271428Y-85752438D01*
X177271428Y-85752438D02*
X177176190Y-85704819D01*
X177176190Y-85704819D02*
X176938095Y-85704819D01*
X176938095Y-85704819D02*
X176795238Y-85752438D01*
X176366666Y-86181009D02*
X176033333Y-86181009D01*
X175890476Y-86704819D02*
X176366666Y-86704819D01*
X176366666Y-86704819D02*
X176366666Y-85704819D01*
X176366666Y-85704819D02*
X175890476Y-85704819D01*
X175604761Y-85704819D02*
X175033333Y-85704819D01*
X175319047Y-86704819D02*
X175319047Y-85704819D01*
X174054819Y-76483333D02*
X173578628Y-76150000D01*
X174054819Y-75911905D02*
X173054819Y-75911905D01*
X173054819Y-75911905D02*
X173054819Y-76292857D01*
X173054819Y-76292857D02*
X173102438Y-76388095D01*
X173102438Y-76388095D02*
X173150057Y-76435714D01*
X173150057Y-76435714D02*
X173245295Y-76483333D01*
X173245295Y-76483333D02*
X173388152Y-76483333D01*
X173388152Y-76483333D02*
X173483390Y-76435714D01*
X173483390Y-76435714D02*
X173531009Y-76388095D01*
X173531009Y-76388095D02*
X173578628Y-76292857D01*
X173578628Y-76292857D02*
X173578628Y-75911905D01*
X174054819Y-77435714D02*
X174054819Y-76864286D01*
X174054819Y-77150000D02*
X173054819Y-77150000D01*
X173054819Y-77150000D02*
X173197676Y-77054762D01*
X173197676Y-77054762D02*
X173292914Y-76959524D01*
X173292914Y-76959524D02*
X173340533Y-76864286D01*
X178557142Y-78781009D02*
X178414285Y-78828628D01*
X178414285Y-78828628D02*
X178366666Y-78876247D01*
X178366666Y-78876247D02*
X178319047Y-78971485D01*
X178319047Y-78971485D02*
X178319047Y-79114342D01*
X178319047Y-79114342D02*
X178366666Y-79209580D01*
X178366666Y-79209580D02*
X178414285Y-79257200D01*
X178414285Y-79257200D02*
X178509523Y-79304819D01*
X178509523Y-79304819D02*
X178890475Y-79304819D01*
X178890475Y-79304819D02*
X178890475Y-78304819D01*
X178890475Y-78304819D02*
X178557142Y-78304819D01*
X178557142Y-78304819D02*
X178461904Y-78352438D01*
X178461904Y-78352438D02*
X178414285Y-78400057D01*
X178414285Y-78400057D02*
X178366666Y-78495295D01*
X178366666Y-78495295D02*
X178366666Y-78590533D01*
X178366666Y-78590533D02*
X178414285Y-78685771D01*
X178414285Y-78685771D02*
X178461904Y-78733390D01*
X178461904Y-78733390D02*
X178557142Y-78781009D01*
X178557142Y-78781009D02*
X178890475Y-78781009D01*
X177699999Y-78304819D02*
X177509523Y-78304819D01*
X177509523Y-78304819D02*
X177414285Y-78352438D01*
X177414285Y-78352438D02*
X177319047Y-78447676D01*
X177319047Y-78447676D02*
X177271428Y-78638152D01*
X177271428Y-78638152D02*
X177271428Y-78971485D01*
X177271428Y-78971485D02*
X177319047Y-79161961D01*
X177319047Y-79161961D02*
X177414285Y-79257200D01*
X177414285Y-79257200D02*
X177509523Y-79304819D01*
X177509523Y-79304819D02*
X177699999Y-79304819D01*
X177699999Y-79304819D02*
X177795237Y-79257200D01*
X177795237Y-79257200D02*
X177890475Y-79161961D01*
X177890475Y-79161961D02*
X177938094Y-78971485D01*
X177938094Y-78971485D02*
X177938094Y-78638152D01*
X177938094Y-78638152D02*
X177890475Y-78447676D01*
X177890475Y-78447676D02*
X177795237Y-78352438D01*
X177795237Y-78352438D02*
X177699999Y-78304819D01*
X176652380Y-78304819D02*
X176461904Y-78304819D01*
X176461904Y-78304819D02*
X176366666Y-78352438D01*
X176366666Y-78352438D02*
X176271428Y-78447676D01*
X176271428Y-78447676D02*
X176223809Y-78638152D01*
X176223809Y-78638152D02*
X176223809Y-78971485D01*
X176223809Y-78971485D02*
X176271428Y-79161961D01*
X176271428Y-79161961D02*
X176366666Y-79257200D01*
X176366666Y-79257200D02*
X176461904Y-79304819D01*
X176461904Y-79304819D02*
X176652380Y-79304819D01*
X176652380Y-79304819D02*
X176747618Y-79257200D01*
X176747618Y-79257200D02*
X176842856Y-79161961D01*
X176842856Y-79161961D02*
X176890475Y-78971485D01*
X176890475Y-78971485D02*
X176890475Y-78638152D01*
X176890475Y-78638152D02*
X176842856Y-78447676D01*
X176842856Y-78447676D02*
X176747618Y-78352438D01*
X176747618Y-78352438D02*
X176652380Y-78304819D01*
X175938094Y-78304819D02*
X175366666Y-78304819D01*
X175652380Y-79304819D02*
X175652380Y-78304819D01*
D14*
%TO.C,G\u002A\u002A\u002A*%
G36*
X178074211Y-96068759D02*
G01*
X178095593Y-96134209D01*
X178077551Y-96225023D01*
X178040716Y-96286798D01*
X177999567Y-96298795D01*
X177960975Y-96285828D01*
X177890712Y-96266042D01*
X177850962Y-96254167D01*
X177827955Y-96232949D01*
X177837991Y-96192633D01*
X177880050Y-96119186D01*
X177899096Y-96091896D01*
X177963404Y-96040874D01*
X178025962Y-96035405D01*
X178074211Y-96068759D01*
G37*
G36*
X178387202Y-96184529D02*
G01*
X178396993Y-96197851D01*
X178407822Y-96243323D01*
X178387233Y-96311529D01*
X178376572Y-96336348D01*
X178345946Y-96383893D01*
X178304612Y-96390769D01*
X178233329Y-96363469D01*
X178198539Y-96346323D01*
X178167444Y-96317324D01*
X178178237Y-96279037D01*
X178230653Y-96216898D01*
X178243514Y-96203261D01*
X178301480Y-96153772D01*
X178344862Y-96148461D01*
X178387202Y-96184529D01*
G37*
G36*
X178494428Y-100773406D02*
G01*
X178533969Y-100785545D01*
X178528667Y-100811905D01*
X178477258Y-100857297D01*
X178378479Y-100926529D01*
X178349613Y-100945606D01*
X178270709Y-100989227D01*
X178223641Y-100992220D01*
X178200069Y-100951857D01*
X178191651Y-100865408D01*
X178197305Y-100826240D01*
X178230629Y-100792858D01*
X178301652Y-100775587D01*
X178419419Y-100770666D01*
X178494428Y-100773406D01*
G37*
G36*
X132539551Y-74044224D02*
G01*
X133156892Y-74044261D01*
X133721110Y-74044358D01*
X134234575Y-74044539D01*
X134699661Y-74044825D01*
X135118737Y-74045240D01*
X135494177Y-74045805D01*
X135828350Y-74046543D01*
X136123629Y-74047476D01*
X136382385Y-74048627D01*
X136606989Y-74050019D01*
X136799814Y-74051673D01*
X136963230Y-74053612D01*
X137099609Y-74055858D01*
X137211323Y-74058434D01*
X137300743Y-74061363D01*
X137370240Y-74064666D01*
X137422187Y-74068367D01*
X137458953Y-74072487D01*
X137482912Y-74077049D01*
X137496434Y-74082075D01*
X137501891Y-74087588D01*
X137501655Y-74093610D01*
X137490863Y-74117599D01*
X137452802Y-74188599D01*
X137398016Y-74283307D01*
X137335358Y-74386590D01*
X137273681Y-74483315D01*
X137250350Y-74523002D01*
X137221001Y-74587499D01*
X137208699Y-74614002D01*
X137182778Y-74636888D01*
X137167321Y-74647614D01*
X137146379Y-74693333D01*
X137146190Y-74694050D01*
X137143681Y-74700976D01*
X137138391Y-74707303D01*
X137127878Y-74713058D01*
X137109705Y-74718268D01*
X137081432Y-74722961D01*
X137040620Y-74727162D01*
X136984829Y-74730901D01*
X136911621Y-74734203D01*
X136818557Y-74737095D01*
X136703196Y-74739605D01*
X136563100Y-74741760D01*
X136395830Y-74743587D01*
X136198947Y-74745113D01*
X135970011Y-74746365D01*
X135706583Y-74747370D01*
X135406224Y-74748155D01*
X135066495Y-74748748D01*
X134684956Y-74749175D01*
X134259169Y-74749464D01*
X133786695Y-74749642D01*
X133265093Y-74749735D01*
X132691926Y-74749771D01*
X132064753Y-74749777D01*
X131764226Y-74749735D01*
X131241932Y-74749461D01*
X130736449Y-74748941D01*
X130250610Y-74748190D01*
X129787245Y-74747220D01*
X129349185Y-74746044D01*
X128939261Y-74744677D01*
X128560304Y-74743131D01*
X128215144Y-74741420D01*
X127906612Y-74739557D01*
X127637540Y-74737555D01*
X127410758Y-74735428D01*
X127229097Y-74733188D01*
X127095388Y-74730849D01*
X127012461Y-74728425D01*
X126983148Y-74725928D01*
X126980035Y-74693052D01*
X126982264Y-74615038D01*
X126989553Y-74504387D01*
X127001283Y-74373150D01*
X127034157Y-74044222D01*
X132276915Y-74044222D01*
X132539551Y-74044224D01*
G37*
G36*
X149657001Y-77162777D02*
G01*
X149657001Y-78136444D01*
X149233667Y-78136444D01*
X148810334Y-78136444D01*
X148810334Y-77444999D01*
X148810334Y-76753555D01*
X148260001Y-76753555D01*
X147709667Y-76753555D01*
X147709667Y-77444999D01*
X147709667Y-78136444D01*
X147286334Y-78136444D01*
X146863001Y-78136444D01*
X146863001Y-77297802D01*
X146863001Y-76459160D01*
X146995995Y-76324135D01*
X147128990Y-76189110D01*
X148392995Y-76189110D01*
X149657001Y-76189110D01*
X149657001Y-77162777D01*
G37*
G36*
X156317445Y-77162777D02*
G01*
X156317445Y-78136444D01*
X155894112Y-78136444D01*
X155470778Y-78136444D01*
X155470778Y-77797777D01*
X155470778Y-77459110D01*
X154920445Y-77459110D01*
X154370112Y-77459110D01*
X154370112Y-77797777D01*
X154370112Y-78136444D01*
X153946778Y-78136444D01*
X153523445Y-78136444D01*
X153523445Y-77791609D01*
X153523445Y-77446774D01*
X153664643Y-77303800D01*
X153805841Y-77160826D01*
X153664643Y-77021751D01*
X153523445Y-76882677D01*
X153523445Y-76753555D01*
X154370112Y-76753555D01*
X154370112Y-76824110D01*
X154370112Y-76894666D01*
X154920445Y-76894666D01*
X155470778Y-76894666D01*
X155470778Y-76824110D01*
X155470778Y-76753555D01*
X154920445Y-76753555D01*
X154370112Y-76753555D01*
X153523445Y-76753555D01*
X153523445Y-76684948D01*
X153523445Y-76487219D01*
X153670648Y-76338165D01*
X153817850Y-76189110D01*
X155067648Y-76189110D01*
X156317445Y-76189110D01*
X156317445Y-76824110D01*
X156317445Y-77162777D01*
G37*
G36*
X159675889Y-76471333D02*
G01*
X159675889Y-76753555D01*
X159182001Y-76753555D01*
X158688112Y-76753555D01*
X158688112Y-77444999D01*
X158688112Y-78136444D01*
X158264778Y-78136444D01*
X157841445Y-78136444D01*
X157841445Y-77444999D01*
X157841445Y-76753555D01*
X157361667Y-76753555D01*
X156881889Y-76753555D01*
X156881889Y-76471333D01*
X156881889Y-76189110D01*
X158278889Y-76189110D01*
X159675889Y-76189110D01*
X159675889Y-76471333D01*
G37*
G36*
X161058778Y-76880555D02*
G01*
X161058778Y-77571999D01*
X161609112Y-77571999D01*
X162159445Y-77571999D01*
X162159445Y-76880555D01*
X162159445Y-76189110D01*
X162582778Y-76189110D01*
X163006112Y-76189110D01*
X163006112Y-77027752D01*
X163006112Y-77866394D01*
X162873117Y-78001419D01*
X162740122Y-78136444D01*
X161611142Y-78136444D01*
X160482162Y-78136444D01*
X160347137Y-78003449D01*
X160212112Y-77870454D01*
X160212112Y-77029782D01*
X160212112Y-76189110D01*
X160635445Y-76189110D01*
X161058778Y-76189110D01*
X161058778Y-76880555D01*
G37*
G36*
X166201309Y-76322105D02*
G01*
X166336334Y-76455100D01*
X166336334Y-77160747D01*
X166336334Y-77866394D01*
X166203339Y-78001419D01*
X166070345Y-78136444D01*
X164806339Y-78136444D01*
X163542334Y-78136444D01*
X163542334Y-77854222D01*
X163542334Y-77571999D01*
X164516001Y-77571999D01*
X164770017Y-77571918D01*
X164980200Y-77571458D01*
X165144889Y-77570298D01*
X165269630Y-77568115D01*
X165359967Y-77564589D01*
X165421446Y-77559398D01*
X165459610Y-77552220D01*
X165480005Y-77542735D01*
X165488176Y-77530620D01*
X165489667Y-77515555D01*
X165487965Y-77497583D01*
X165477136Y-77481963D01*
X165449278Y-77471263D01*
X165396507Y-77464555D01*
X165310940Y-77460912D01*
X165184695Y-77459406D01*
X165009889Y-77459110D01*
X164530112Y-77459110D01*
X164530112Y-77176888D01*
X164530112Y-76894666D01*
X165009889Y-76894666D01*
X165489667Y-76894666D01*
X165489667Y-76824110D01*
X165489667Y-76753555D01*
X164516001Y-76753555D01*
X163542334Y-76753555D01*
X163542334Y-76471333D01*
X163542334Y-76189110D01*
X164804309Y-76189110D01*
X166066284Y-76189110D01*
X166201309Y-76322105D01*
G37*
G36*
X169666556Y-77162284D02*
G01*
X169666556Y-78136444D01*
X169239670Y-78136444D01*
X168812784Y-78136444D01*
X168824894Y-77474071D01*
X168826915Y-77353065D01*
X168829072Y-77179940D01*
X168830007Y-77032784D01*
X168829716Y-76919211D01*
X168828190Y-76846838D01*
X168825424Y-76823279D01*
X168819977Y-76833455D01*
X168795775Y-76887901D01*
X168756004Y-76981627D01*
X168704129Y-77106198D01*
X168643614Y-77253181D01*
X168577926Y-77414141D01*
X168510528Y-77580646D01*
X168444886Y-77744262D01*
X168384465Y-77896555D01*
X168295524Y-78122333D01*
X167584040Y-78129873D01*
X166872556Y-78137413D01*
X166872556Y-77163262D01*
X166872556Y-76189110D01*
X167295889Y-76189110D01*
X167719223Y-76189110D01*
X167720762Y-76873499D01*
X167722301Y-77557888D01*
X167775253Y-77430888D01*
X167778877Y-77422171D01*
X167809253Y-77348471D01*
X167855934Y-77234599D01*
X167914764Y-77090715D01*
X167981587Y-76926980D01*
X168052249Y-76753555D01*
X168276294Y-76203222D01*
X168971425Y-76195673D01*
X169666556Y-76188124D01*
X169666556Y-77162284D01*
G37*
G36*
X174904107Y-87330607D02*
G01*
X174929274Y-87389150D01*
X174942357Y-87471109D01*
X174942357Y-87557373D01*
X174928277Y-87628830D01*
X174899116Y-87666371D01*
X174866654Y-87669823D01*
X174815598Y-87635924D01*
X174801078Y-87617807D01*
X174774580Y-87603410D01*
X174732811Y-87613326D01*
X174658666Y-87648977D01*
X174537419Y-87710833D01*
X174662423Y-87774605D01*
X174697473Y-87792155D01*
X174759166Y-87817821D01*
X174794441Y-87817988D01*
X174819355Y-87794714D01*
X174864604Y-87758409D01*
X174904745Y-87771702D01*
X174933262Y-87828975D01*
X174944112Y-87923965D01*
X174943076Y-87969825D01*
X174936301Y-88042963D01*
X174925297Y-88080073D01*
X174898237Y-88096488D01*
X174846071Y-88090430D01*
X174812044Y-88045756D01*
X174811797Y-88044878D01*
X174776387Y-88003748D01*
X174694947Y-87949768D01*
X174574797Y-87887811D01*
X174516920Y-87860297D01*
X174429573Y-87815035D01*
X174379523Y-87779662D01*
X174356803Y-87746071D01*
X174351445Y-87706155D01*
X174352060Y-87689320D01*
X174362823Y-87652634D01*
X174395061Y-87620249D01*
X174459144Y-87583887D01*
X174565436Y-87535269D01*
X174567823Y-87534219D01*
X174692288Y-87473644D01*
X174769113Y-87421472D01*
X174805407Y-87372893D01*
X174831324Y-87330384D01*
X174880694Y-87313942D01*
X174904107Y-87330607D01*
G37*
G36*
X117899945Y-87123786D02*
G01*
X117904453Y-87124601D01*
X118002201Y-87145007D01*
X118090445Y-87167347D01*
X118138913Y-87181132D01*
X118356120Y-87235096D01*
X118598445Y-87282085D01*
X118704691Y-87300867D01*
X118821150Y-87322276D01*
X118908889Y-87339283D01*
X118923838Y-87342314D01*
X119015324Y-87360475D01*
X119135235Y-87383885D01*
X119261667Y-87408261D01*
X119287936Y-87413306D01*
X119418116Y-87438707D01*
X119539422Y-87462936D01*
X119628556Y-87481354D01*
X119697582Y-87495802D01*
X119791931Y-87514581D01*
X119907777Y-87536574D01*
X120056492Y-87563934D01*
X120249445Y-87598812D01*
X120461112Y-87636872D01*
X120469221Y-87895707D01*
X120477330Y-88154542D01*
X120342221Y-88138584D01*
X120302345Y-88133194D01*
X120212478Y-88116481D01*
X120150667Y-88098811D01*
X120141317Y-88095208D01*
X120069337Y-88075713D01*
X119981334Y-88059985D01*
X119972999Y-88058840D01*
X119884202Y-88044579D01*
X119766377Y-88023374D01*
X119642667Y-87999367D01*
X119526564Y-87976003D01*
X119363956Y-87943814D01*
X119224797Y-87917216D01*
X119089158Y-87892434D01*
X118937112Y-87865692D01*
X118909779Y-87860875D01*
X118801445Y-87840377D01*
X118715659Y-87822007D01*
X118669001Y-87809254D01*
X118660404Y-87806214D01*
X118597120Y-87791623D01*
X118513778Y-87779128D01*
X118479230Y-87774926D01*
X118365685Y-87758911D01*
X118235968Y-87738316D01*
X118104485Y-87715683D01*
X117985643Y-87693549D01*
X117893846Y-87674457D01*
X117843501Y-87660945D01*
X117831473Y-87654731D01*
X117812312Y-87630624D01*
X117800949Y-87582938D01*
X117795508Y-87500730D01*
X117794112Y-87373061D01*
X117794112Y-87104829D01*
X117899945Y-87123786D01*
G37*
G36*
X121167806Y-87789276D02*
G01*
X121235120Y-87802882D01*
X121321889Y-87818478D01*
X121323786Y-87818800D01*
X121426784Y-87837173D01*
X121568799Y-87863635D01*
X121733913Y-87895151D01*
X121906212Y-87928682D01*
X122069778Y-87961192D01*
X122106388Y-87967878D01*
X122182237Y-87979172D01*
X122285554Y-87992038D01*
X122421138Y-88006974D01*
X122593787Y-88024477D01*
X122808299Y-88045046D01*
X123069475Y-88069179D01*
X123382112Y-88097374D01*
X123451467Y-88103909D01*
X123581526Y-88118598D01*
X123712109Y-88137402D01*
X123856805Y-88162592D01*
X124029202Y-88196440D01*
X124242889Y-88241216D01*
X124309624Y-88255236D01*
X124422534Y-88278504D01*
X124539223Y-88302172D01*
X124602847Y-88315829D01*
X124678397Y-88338379D01*
X124717117Y-88364183D01*
X124731301Y-88399468D01*
X124729842Y-88428006D01*
X124705882Y-88462517D01*
X124648362Y-88502048D01*
X124547857Y-88554566D01*
X124531088Y-88562857D01*
X124439824Y-88609019D01*
X124372148Y-88644961D01*
X124341667Y-88663493D01*
X124329390Y-88674792D01*
X124273267Y-88718734D01*
X124200728Y-88770111D01*
X124132090Y-88814886D01*
X124087667Y-88839019D01*
X124025122Y-88846194D01*
X123917931Y-88834696D01*
X123763112Y-88803240D01*
X123718248Y-88793175D01*
X123607573Y-88769569D01*
X123495001Y-88746747D01*
X123440715Y-88736080D01*
X123318291Y-88711902D01*
X123212778Y-88690927D01*
X123197989Y-88687989D01*
X123100172Y-88669007D01*
X122975030Y-88645195D01*
X122845889Y-88620999D01*
X122819804Y-88616142D01*
X122689565Y-88591554D01*
X122568187Y-88568159D01*
X122479001Y-88550444D01*
X122464224Y-88547443D01*
X122366407Y-88528175D01*
X122241260Y-88504161D01*
X122112112Y-88479888D01*
X122086008Y-88475031D01*
X121955775Y-88450528D01*
X121834404Y-88427314D01*
X121745223Y-88409841D01*
X121732259Y-88407261D01*
X121634965Y-88388582D01*
X121510107Y-88365363D01*
X121381375Y-88342019D01*
X121341430Y-88334589D01*
X121236073Y-88311973D01*
X121157065Y-88290605D01*
X121119106Y-88274283D01*
X121115124Y-88267102D01*
X121105727Y-88213440D01*
X121101012Y-88123299D01*
X121101954Y-88011597D01*
X121102181Y-88005180D01*
X121108076Y-87889834D01*
X121117030Y-87821078D01*
X121131153Y-87789484D01*
X121152556Y-87785627D01*
X121167806Y-87789276D01*
G37*
G36*
X174956115Y-88561200D02*
G01*
X174917312Y-88678506D01*
X174842541Y-88772563D01*
X174737725Y-88829481D01*
X174640700Y-88843958D01*
X174525513Y-88820660D01*
X174433658Y-88753915D01*
X174370410Y-88650161D01*
X174341045Y-88515834D01*
X174350837Y-88357370D01*
X174361816Y-88304411D01*
X174392173Y-88213938D01*
X174430937Y-88172430D01*
X174481857Y-88174658D01*
X174490994Y-88180663D01*
X174505020Y-88215704D01*
X174508381Y-88287456D01*
X174501902Y-88405425D01*
X174495718Y-88503770D01*
X174496495Y-88583053D01*
X174507813Y-88630771D01*
X174531209Y-88660278D01*
X174551432Y-88672976D01*
X174565237Y-88664936D01*
X174573016Y-88626426D01*
X174576451Y-88548789D01*
X174576739Y-88502063D01*
X174718334Y-88502063D01*
X174718334Y-88503185D01*
X174719814Y-88598115D01*
X174723639Y-88665765D01*
X174728989Y-88691555D01*
X174740599Y-88684637D01*
X174774145Y-88649985D01*
X174797633Y-88599827D01*
X174807512Y-88511720D01*
X174795799Y-88421915D01*
X174763489Y-88357726D01*
X174759252Y-88353554D01*
X174737074Y-88337933D01*
X174724762Y-88351402D01*
X174719466Y-88403074D01*
X174718334Y-88502063D01*
X174576739Y-88502063D01*
X174577223Y-88423372D01*
X174577223Y-88148277D01*
X174667470Y-88166326D01*
X174745787Y-88188734D01*
X174859369Y-88259925D01*
X174933358Y-88370681D01*
X174953025Y-88434536D01*
X174954908Y-88511720D01*
X174956115Y-88561200D01*
G37*
G36*
X174952824Y-89342625D02*
G01*
X174927100Y-89443758D01*
X174859206Y-89534119D01*
X174841075Y-89551189D01*
X174770782Y-89603196D01*
X174711039Y-89629136D01*
X174636580Y-89630169D01*
X174523826Y-89602451D01*
X174432381Y-89548957D01*
X174418772Y-89535053D01*
X174368114Y-89446185D01*
X174342475Y-89336753D01*
X174346131Y-89280528D01*
X174488456Y-89280528D01*
X174491946Y-89370042D01*
X174526988Y-89446499D01*
X174536412Y-89455227D01*
X174596564Y-89476980D01*
X174672808Y-89479284D01*
X174735276Y-89460178D01*
X174791776Y-89400091D01*
X174813358Y-89319572D01*
X174797733Y-89237984D01*
X174751054Y-89169349D01*
X174679471Y-89127691D01*
X174589135Y-89127029D01*
X174561126Y-89139436D01*
X174512765Y-89197234D01*
X174488456Y-89280528D01*
X174346131Y-89280528D01*
X174349138Y-89234291D01*
X174350545Y-89228953D01*
X174360858Y-89144616D01*
X174357991Y-89050999D01*
X174356804Y-89039451D01*
X174359342Y-88958865D01*
X174378598Y-88904510D01*
X174424963Y-88878755D01*
X174471485Y-88890699D01*
X174492556Y-88934463D01*
X174498442Y-88947758D01*
X174528391Y-88960471D01*
X174590887Y-88968454D01*
X174693884Y-88972594D01*
X174845334Y-88973777D01*
X175198112Y-88973777D01*
X175198112Y-89069099D01*
X175195435Y-89104923D01*
X175171762Y-89175390D01*
X175132009Y-89216353D01*
X175086459Y-89214430D01*
X175075005Y-89204133D01*
X175057001Y-89155556D01*
X175042269Y-89128972D01*
X174985907Y-89114888D01*
X174956032Y-89116218D01*
X174926944Y-89133975D01*
X174932750Y-89186348D01*
X174939598Y-89215492D01*
X174950426Y-89319572D01*
X174952824Y-89342625D01*
G37*
G36*
X168228795Y-88900851D02*
G01*
X168254088Y-88997162D01*
X168257711Y-89008356D01*
X168277715Y-89081363D01*
X168276530Y-89120904D01*
X168254166Y-89143901D01*
X168221566Y-89151737D01*
X168161490Y-89120593D01*
X168131927Y-89095233D01*
X168114618Y-89094520D01*
X168115119Y-89100777D01*
X168118512Y-89143188D01*
X168118841Y-89145449D01*
X168141963Y-89199029D01*
X168199001Y-89213666D01*
X168220278Y-89214397D01*
X168257863Y-89231470D01*
X168260611Y-89284222D01*
X168257786Y-89307064D01*
X168247760Y-89391880D01*
X168236711Y-89488981D01*
X168236137Y-89494062D01*
X168221739Y-89576763D01*
X168197306Y-89620054D01*
X168153933Y-89640207D01*
X168110076Y-89659749D01*
X168086112Y-89692975D01*
X168080704Y-89710213D01*
X168058941Y-89725933D01*
X168014160Y-89740199D01*
X167939715Y-89754251D01*
X167828961Y-89769328D01*
X167675253Y-89786669D01*
X167471945Y-89807514D01*
X167383197Y-89816626D01*
X167240936Y-89832343D01*
X167124308Y-89846640D01*
X167043501Y-89858235D01*
X167008703Y-89865845D01*
X167000142Y-89873864D01*
X166985445Y-89918856D01*
X166977658Y-89935243D01*
X166927480Y-89959945D01*
X166842635Y-89976180D01*
X166737025Y-89982679D01*
X166624555Y-89978175D01*
X166519127Y-89961399D01*
X166482117Y-89953376D01*
X166399901Y-89942396D01*
X166302483Y-89939822D01*
X166176319Y-89945611D01*
X166007864Y-89959717D01*
X165985672Y-89961824D01*
X165851633Y-89975469D01*
X165740949Y-89988262D01*
X165664579Y-89998852D01*
X165633481Y-90005889D01*
X165598942Y-90019232D01*
X165526939Y-90009348D01*
X165438988Y-89974111D01*
X165350378Y-89920037D01*
X165276396Y-89853644D01*
X165190125Y-89755033D01*
X164888742Y-89788946D01*
X164842484Y-89793957D01*
X164690911Y-89806253D01*
X164589279Y-89806256D01*
X164533482Y-89794025D01*
X164487284Y-89750989D01*
X164444420Y-89661677D01*
X164421578Y-89549828D01*
X164422015Y-89433326D01*
X164448986Y-89330054D01*
X164452845Y-89321861D01*
X164477091Y-89284861D01*
X164514312Y-89259033D01*
X164575358Y-89240910D01*
X164671082Y-89227022D01*
X164812334Y-89213901D01*
X164916437Y-89204815D01*
X165025623Y-89191265D01*
X165101512Y-89171706D01*
X165157609Y-89140305D01*
X165173741Y-89124411D01*
X167818637Y-89124411D01*
X167847109Y-89143110D01*
X167866419Y-89138204D01*
X167888556Y-89100777D01*
X167885727Y-89081347D01*
X167863353Y-89058444D01*
X167849608Y-89063431D01*
X167821906Y-89100777D01*
X167818637Y-89124411D01*
X165173741Y-89124411D01*
X165207420Y-89091230D01*
X165264450Y-89018648D01*
X165269168Y-89012424D01*
X165344648Y-88923029D01*
X165409442Y-88872062D01*
X165409857Y-88871917D01*
X168005879Y-88871917D01*
X168012616Y-88909689D01*
X168022250Y-88909252D01*
X168027439Y-88872647D01*
X168022920Y-88844906D01*
X168010388Y-88855597D01*
X168005879Y-88871917D01*
X165409857Y-88871917D01*
X165477660Y-88848244D01*
X165483491Y-88847198D01*
X165550230Y-88837270D01*
X165654902Y-88823510D01*
X165784090Y-88807491D01*
X165924378Y-88790785D01*
X166062347Y-88774965D01*
X166184582Y-88761604D01*
X166277665Y-88752275D01*
X166328179Y-88748550D01*
X166366604Y-88731961D01*
X166418181Y-88688080D01*
X166428494Y-88678186D01*
X166494212Y-88638377D01*
X166580995Y-88607589D01*
X166674122Y-88588140D01*
X166758869Y-88582347D01*
X166820514Y-88592527D01*
X166844334Y-88620999D01*
X166850806Y-88639427D01*
X166883568Y-88655903D01*
X166949124Y-88662191D01*
X167053150Y-88658277D01*
X167201328Y-88644150D01*
X167399335Y-88619796D01*
X167605740Y-88595946D01*
X167791252Y-88583282D01*
X167927064Y-88586030D01*
X168015643Y-88604258D01*
X168059455Y-88638035D01*
X168087230Y-88668879D01*
X168149550Y-88696639D01*
X168164776Y-88699524D01*
X168203091Y-88726357D01*
X168213679Y-88790333D01*
X168214689Y-88810854D01*
X168224374Y-88872647D01*
X168228795Y-88900851D01*
G37*
G36*
X174468968Y-89980053D02*
G01*
X174505703Y-90034066D01*
X174507097Y-90101312D01*
X174502594Y-90112768D01*
X174459682Y-90152527D01*
X174402834Y-90152219D01*
X174355240Y-90110450D01*
X174351236Y-90102281D01*
X174345973Y-90040206D01*
X174372218Y-89985244D01*
X174419538Y-89961555D01*
X174468968Y-89980053D01*
G37*
G36*
X174200863Y-90344393D02*
G01*
X174254977Y-90383498D01*
X174342440Y-90461841D01*
X174461125Y-90577282D01*
X174608900Y-90727681D01*
X174783638Y-90910897D01*
X174983210Y-91124790D01*
X175205486Y-91367219D01*
X175367445Y-91545217D01*
X175367445Y-91781189D01*
X175367274Y-91815420D01*
X175364344Y-91926110D01*
X175358534Y-92013281D01*
X175350824Y-92060474D01*
X175350398Y-92061594D01*
X175344513Y-92077476D01*
X175337712Y-92088798D01*
X175326896Y-92092470D01*
X175308969Y-92085398D01*
X175280832Y-92064493D01*
X175239387Y-92026663D01*
X175181537Y-91968817D01*
X175104184Y-91887864D01*
X175004230Y-91780712D01*
X174878577Y-91644270D01*
X174724128Y-91475447D01*
X174537784Y-91271152D01*
X174316448Y-91028293D01*
X174154450Y-90850555D01*
X174154170Y-90605276D01*
X174154253Y-90581467D01*
X174158758Y-90461747D01*
X174169282Y-90378231D01*
X174184663Y-90340978D01*
X174200863Y-90344393D01*
G37*
G36*
X159212770Y-89458040D02*
G01*
X159331070Y-89516653D01*
X159358836Y-89531170D01*
X159426482Y-89569787D01*
X159476311Y-89609556D01*
X159512103Y-89659657D01*
X159537634Y-89729271D01*
X159556681Y-89827578D01*
X159573023Y-89963760D01*
X159590437Y-90146997D01*
X159596891Y-90213222D01*
X159617551Y-90373882D01*
X159646318Y-90520873D01*
X159687983Y-90676008D01*
X159747341Y-90861102D01*
X159753736Y-90880101D01*
X159806685Y-91036403D01*
X159848373Y-91153391D01*
X159885058Y-91243863D01*
X159922998Y-91320619D01*
X159968450Y-91396455D01*
X160027671Y-91484170D01*
X160106918Y-91596563D01*
X160140110Y-91642641D01*
X160186242Y-91705869D01*
X160220508Y-91757870D01*
X160243761Y-91807074D01*
X160256848Y-91861911D01*
X160260619Y-91930812D01*
X160255925Y-92022208D01*
X160243614Y-92144528D01*
X160224536Y-92306204D01*
X160199542Y-92515666D01*
X160176907Y-92707354D01*
X160156669Y-92874301D01*
X160140930Y-92997630D01*
X160128808Y-93083934D01*
X160119424Y-93139804D01*
X160111896Y-93171833D01*
X160111320Y-93173644D01*
X160084877Y-93205239D01*
X160045113Y-93190177D01*
X159995169Y-93135540D01*
X159938189Y-93048411D01*
X159877313Y-92935873D01*
X159815685Y-92805007D01*
X159756445Y-92662897D01*
X159702736Y-92516625D01*
X159657700Y-92373273D01*
X159624478Y-92239923D01*
X159606213Y-92123660D01*
X159606047Y-92031564D01*
X159610758Y-91990453D01*
X159611448Y-91928630D01*
X159596306Y-91873208D01*
X159559316Y-91807005D01*
X159494464Y-91712837D01*
X159397087Y-91552068D01*
X159296432Y-91303615D01*
X159276307Y-91234451D01*
X159256541Y-91156797D01*
X159238871Y-91072206D01*
X159222059Y-90972471D01*
X159204864Y-90849380D01*
X159186048Y-90694726D01*
X159164372Y-90500298D01*
X159138596Y-90257888D01*
X159133798Y-90212547D01*
X159115752Y-90046538D01*
X159096566Y-89875411D01*
X159079660Y-89729801D01*
X159079438Y-89727945D01*
X159064446Y-89582429D01*
X159064454Y-89487622D01*
X159085291Y-89438583D01*
X159132787Y-89430370D01*
X159212770Y-89458040D01*
G37*
G36*
X131990144Y-75370676D02*
G01*
X132507780Y-75370815D01*
X133009016Y-75371111D01*
X133490991Y-75371555D01*
X133950845Y-75372139D01*
X134385718Y-75372854D01*
X134792750Y-75373691D01*
X135169080Y-75374643D01*
X135511848Y-75375700D01*
X135818194Y-75376854D01*
X136085257Y-75378096D01*
X136310177Y-75379419D01*
X136490094Y-75380813D01*
X136622148Y-75382269D01*
X136703477Y-75383781D01*
X136731223Y-75385338D01*
X136727742Y-75395393D01*
X136702433Y-75442750D01*
X136660667Y-75511777D01*
X136638909Y-75547028D01*
X136603919Y-75608205D01*
X136590112Y-75639572D01*
X136590109Y-75639697D01*
X136575813Y-75670517D01*
X136538950Y-75735689D01*
X136487281Y-75822213D01*
X136428568Y-75917088D01*
X136370570Y-76007315D01*
X136347239Y-76047002D01*
X136317890Y-76111499D01*
X136305115Y-76137935D01*
X136276376Y-76160888D01*
X136270229Y-76161777D01*
X136251445Y-76189606D01*
X136247157Y-76203536D01*
X136219408Y-76259428D01*
X136171578Y-76344232D01*
X136110334Y-76445841D01*
X136074783Y-76503555D01*
X136020505Y-76593481D01*
X135983135Y-76657852D01*
X135969223Y-76685543D01*
X135964836Y-76695553D01*
X135937021Y-76744651D01*
X135889238Y-76824143D01*
X135828112Y-76922888D01*
X135793413Y-76978707D01*
X135738724Y-77068872D01*
X135701038Y-77133993D01*
X135687001Y-77162777D01*
X135682656Y-77173331D01*
X135654870Y-77223376D01*
X135607066Y-77303585D01*
X135545889Y-77402666D01*
X135512097Y-77457418D01*
X135456970Y-77550967D01*
X135418950Y-77621320D01*
X135404778Y-77656357D01*
X135403910Y-77663369D01*
X135376556Y-77684888D01*
X135369506Y-77685801D01*
X135348334Y-77713606D01*
X135344046Y-77727536D01*
X135316297Y-77783428D01*
X135268467Y-77868232D01*
X135207223Y-77969841D01*
X135171684Y-78027541D01*
X135117400Y-78117513D01*
X135080026Y-78181955D01*
X135066112Y-78209730D01*
X135061550Y-78220200D01*
X135033622Y-78269989D01*
X134985922Y-78350174D01*
X134925001Y-78449619D01*
X134889409Y-78507379D01*
X134835151Y-78597147D01*
X134797796Y-78661278D01*
X134783889Y-78688684D01*
X134776796Y-78703775D01*
X134745726Y-78758752D01*
X134695622Y-78843545D01*
X134632705Y-78947504D01*
X134629846Y-78952182D01*
X134563574Y-79061389D01*
X134481686Y-79197445D01*
X134389146Y-79351991D01*
X134290916Y-79516665D01*
X134191959Y-79683107D01*
X134097238Y-79842957D01*
X134011716Y-79987854D01*
X133940356Y-80109439D01*
X133888121Y-80199349D01*
X133859974Y-80249226D01*
X133854870Y-80258588D01*
X133818026Y-80322813D01*
X133763746Y-80414597D01*
X133701824Y-80517337D01*
X133662073Y-80583106D01*
X133583017Y-80715342D01*
X133496266Y-80861759D01*
X133414508Y-81000999D01*
X133368767Y-81079082D01*
X133276553Y-81235336D01*
X133183701Y-81391467D01*
X133104667Y-81523110D01*
X133063058Y-81592190D01*
X132974459Y-81740429D01*
X132880035Y-81899548D01*
X132794247Y-82045222D01*
X132748987Y-82122183D01*
X132655334Y-82280138D01*
X132560299Y-82439072D01*
X132478737Y-82574087D01*
X132433818Y-82648476D01*
X132379490Y-82740465D01*
X132342327Y-82805970D01*
X132328556Y-82834208D01*
X132324978Y-82843061D01*
X132298649Y-82890955D01*
X132252316Y-82969529D01*
X132192648Y-83067343D01*
X132135272Y-83160598D01*
X132040176Y-83316880D01*
X131942579Y-83478970D01*
X131850526Y-83633416D01*
X131772065Y-83766762D01*
X131715243Y-83865555D01*
X131712629Y-83870184D01*
X131668159Y-83946657D01*
X131607353Y-84048619D01*
X131542568Y-84155330D01*
X131527563Y-84179900D01*
X131475577Y-84266771D01*
X131439165Y-84330409D01*
X131425445Y-84358465D01*
X131414299Y-84380478D01*
X131378418Y-84441484D01*
X131323666Y-84531142D01*
X131256112Y-84639384D01*
X131196017Y-84735768D01*
X131139386Y-84828883D01*
X131100944Y-84894826D01*
X131086778Y-84923391D01*
X131082442Y-84934050D01*
X131054661Y-84984281D01*
X131006854Y-85064631D01*
X130945667Y-85163777D01*
X130910803Y-85219786D01*
X130856193Y-85309324D01*
X130818570Y-85373484D01*
X130804556Y-85401122D01*
X130799991Y-85411551D01*
X130772061Y-85461271D01*
X130724362Y-85541404D01*
X130663445Y-85640824D01*
X130628967Y-85697286D01*
X130574171Y-85791283D01*
X130536404Y-85861910D01*
X130522334Y-85897060D01*
X130521437Y-85904233D01*
X130494112Y-85925777D01*
X130487175Y-85926655D01*
X130465889Y-85954308D01*
X130461773Y-85967708D01*
X130434142Y-86022943D01*
X130386230Y-86107080D01*
X130324778Y-86207999D01*
X130290080Y-86263818D01*
X130235390Y-86353983D01*
X130197705Y-86419104D01*
X130183667Y-86447888D01*
X130179323Y-86458442D01*
X130151536Y-86508487D01*
X130103733Y-86588697D01*
X130042556Y-86687777D01*
X130007692Y-86743786D01*
X129953082Y-86833324D01*
X129915458Y-86897484D01*
X129901445Y-86925122D01*
X129896880Y-86935551D01*
X129868950Y-86985271D01*
X129821251Y-87065404D01*
X129760334Y-87164824D01*
X129725856Y-87221286D01*
X129671060Y-87315283D01*
X129633293Y-87385910D01*
X129619223Y-87421060D01*
X129618326Y-87428233D01*
X129591001Y-87449777D01*
X129584064Y-87450655D01*
X129562778Y-87478308D01*
X129558662Y-87491708D01*
X129531031Y-87546943D01*
X129483119Y-87631080D01*
X129421667Y-87731999D01*
X129386969Y-87787818D01*
X129332279Y-87877983D01*
X129294594Y-87943104D01*
X129280556Y-87971888D01*
X129276212Y-87982442D01*
X129248425Y-88032487D01*
X129200622Y-88112697D01*
X129139445Y-88211777D01*
X129105653Y-88266529D01*
X129050526Y-88360078D01*
X129012506Y-88430431D01*
X128998334Y-88465468D01*
X128997466Y-88472481D01*
X128970112Y-88493999D01*
X128963381Y-88494801D01*
X128941889Y-88521724D01*
X128941423Y-88525009D01*
X128922980Y-88567932D01*
X128883042Y-88642190D01*
X128829001Y-88733888D01*
X128818731Y-88750781D01*
X128766649Y-88840403D01*
X128729978Y-88910125D01*
X128716112Y-88946052D01*
X128715295Y-88952664D01*
X128687889Y-88973777D01*
X128681157Y-88974582D01*
X128659667Y-89001575D01*
X128650414Y-89028905D01*
X128618046Y-89092701D01*
X128570448Y-89174373D01*
X128481229Y-89319372D01*
X128533426Y-89416295D01*
X128536706Y-89422296D01*
X128591241Y-89508159D01*
X128649018Y-89581624D01*
X128757728Y-89713785D01*
X128900341Y-89932264D01*
X129030630Y-90182763D01*
X129141491Y-90451216D01*
X129225817Y-90723555D01*
X129238549Y-90781856D01*
X129259832Y-90908151D01*
X129280371Y-91058599D01*
X129297795Y-91213447D01*
X129309735Y-91352943D01*
X129313823Y-91457333D01*
X129309375Y-91570440D01*
X129295621Y-91722243D01*
X129274733Y-91879567D01*
X129248880Y-92030043D01*
X129220229Y-92161304D01*
X129190948Y-92260978D01*
X129163206Y-92316699D01*
X129151585Y-92336393D01*
X129139445Y-92394693D01*
X129136371Y-92425549D01*
X129114893Y-92494882D01*
X129104687Y-92515675D01*
X129071243Y-92585656D01*
X129031227Y-92670888D01*
X128952701Y-92828639D01*
X128807336Y-93069975D01*
X128633719Y-93298352D01*
X128419778Y-93530748D01*
X128411069Y-93539514D01*
X128348631Y-93600857D01*
X128289496Y-93654754D01*
X128221464Y-93711420D01*
X128132336Y-93781068D01*
X128009913Y-93873912D01*
X127970682Y-93902250D01*
X127840074Y-93985382D01*
X127687454Y-94070332D01*
X127524446Y-94151775D01*
X127362674Y-94224387D01*
X127213761Y-94282845D01*
X127089333Y-94321823D01*
X127001013Y-94335999D01*
X126969985Y-94339143D01*
X126926878Y-94357166D01*
X126891268Y-94372008D01*
X126815920Y-94391172D01*
X126717564Y-94410266D01*
X126556653Y-94431729D01*
X126238972Y-94447388D01*
X125905582Y-94434019D01*
X125576814Y-94392822D01*
X125273001Y-94324997D01*
X125209042Y-94306843D01*
X125116866Y-94280659D01*
X125054278Y-94262852D01*
X125014385Y-94245909D01*
X124990778Y-94219819D01*
X124989653Y-94213054D01*
X124960881Y-94194888D01*
X124922428Y-94184014D01*
X124845788Y-94151485D01*
X124746193Y-94104110D01*
X124637222Y-94048799D01*
X124532457Y-93992461D01*
X124445477Y-93942008D01*
X124389865Y-93904348D01*
X124353364Y-93875033D01*
X124271237Y-93810734D01*
X124183301Y-93743333D01*
X124102901Y-93681028D01*
X124029721Y-93619032D01*
X123959748Y-93551512D01*
X123879932Y-93465803D01*
X123777223Y-93349239D01*
X123742987Y-93309844D01*
X123666835Y-93220823D01*
X123612438Y-93152481D01*
X123568367Y-93088743D01*
X123523193Y-93013534D01*
X123465486Y-92910777D01*
X123382736Y-92759868D01*
X123315872Y-92631626D01*
X123272186Y-92537938D01*
X123248371Y-92471650D01*
X123241119Y-92425609D01*
X123235557Y-92385673D01*
X123212778Y-92346333D01*
X123195851Y-92323147D01*
X123184556Y-92265645D01*
X123179170Y-92223289D01*
X123156192Y-92174035D01*
X123154242Y-92171553D01*
X123138877Y-92125114D01*
X123121630Y-92036905D01*
X123104078Y-91919660D01*
X123087793Y-91786112D01*
X123074353Y-91648997D01*
X123065332Y-91521048D01*
X123062305Y-91414999D01*
X123064889Y-91316152D01*
X123078993Y-91126987D01*
X123103212Y-90935877D01*
X123135155Y-90757421D01*
X123172432Y-90606213D01*
X123212654Y-90496851D01*
X123213870Y-90494278D01*
X123234389Y-90434923D01*
X123254290Y-90355740D01*
X123259708Y-90333823D01*
X123293635Y-90239143D01*
X123339380Y-90144999D01*
X123364395Y-90101028D01*
X123423827Y-89995375D01*
X123481866Y-89890999D01*
X123495703Y-89865966D01*
X123542833Y-89782779D01*
X123583688Y-89717664D01*
X123629130Y-89655485D01*
X123690021Y-89581104D01*
X123777223Y-89479384D01*
X123885256Y-89356200D01*
X123970285Y-89264544D01*
X124039893Y-89196914D01*
X124103991Y-89143110D01*
X124133702Y-89120047D01*
X124204193Y-89065455D01*
X124285316Y-89002729D01*
X124338930Y-88960796D01*
X124397787Y-88913255D01*
X124426334Y-88888083D01*
X124457353Y-88866389D01*
X124529091Y-88826731D01*
X124627822Y-88776403D01*
X124740697Y-88721519D01*
X124854869Y-88668190D01*
X124957489Y-88622529D01*
X125035710Y-88590651D01*
X125076683Y-88578666D01*
X125105877Y-88575072D01*
X125143687Y-88554187D01*
X125151386Y-88547441D01*
X125201966Y-88527950D01*
X125279408Y-88511565D01*
X125382356Y-88495904D01*
X125489781Y-88478237D01*
X125557157Y-88463901D01*
X125593828Y-88450138D01*
X125609138Y-88434190D01*
X125612432Y-88413300D01*
X125613435Y-88394666D01*
X125619357Y-88324139D01*
X125629342Y-88220511D01*
X125641971Y-88098888D01*
X125644559Y-88074707D01*
X125662271Y-87906960D01*
X125681220Y-87724471D01*
X125697722Y-87562666D01*
X125703035Y-87510083D01*
X125716852Y-87375054D01*
X125729480Y-87253815D01*
X125738720Y-87167555D01*
X125743491Y-87121156D01*
X125753414Y-87017579D01*
X125766204Y-86879082D01*
X125780728Y-86718000D01*
X125795851Y-86546666D01*
X125806807Y-86425612D01*
X125823498Y-86255048D01*
X125839954Y-86101087D01*
X125854741Y-85976950D01*
X125866425Y-85895856D01*
X125875109Y-85839523D01*
X125888581Y-85715732D01*
X125893889Y-85608620D01*
X125897386Y-85519724D01*
X125907449Y-85396466D01*
X125921777Y-85271653D01*
X125932151Y-85189288D01*
X125948487Y-85045952D01*
X125965506Y-84884389D01*
X125980854Y-84726333D01*
X125991316Y-84613739D01*
X126007535Y-84442112D01*
X126023243Y-84278809D01*
X126036151Y-84147777D01*
X126040174Y-84107673D01*
X126056018Y-83948810D01*
X126075438Y-83753109D01*
X126096983Y-83535275D01*
X126119203Y-83310010D01*
X126140645Y-83092018D01*
X126159861Y-82896002D01*
X126175397Y-82736666D01*
X126180620Y-82683096D01*
X126193957Y-82547227D01*
X126210449Y-82380067D01*
X126228486Y-82197898D01*
X126246462Y-82016999D01*
X126255837Y-81922655D01*
X126273983Y-81739059D01*
X126291293Y-81562787D01*
X126306170Y-81410118D01*
X126317018Y-81297333D01*
X126322145Y-81243756D01*
X126335319Y-81107887D01*
X126351679Y-80940729D01*
X126369629Y-80758562D01*
X126387573Y-80577666D01*
X126404089Y-80411711D01*
X126426864Y-80182309D01*
X126445331Y-79995192D01*
X126460314Y-79841771D01*
X126472632Y-79713454D01*
X126483107Y-79601653D01*
X126492560Y-79497778D01*
X126501812Y-79393238D01*
X126511685Y-79279444D01*
X126521520Y-79169238D01*
X126538194Y-78993773D01*
X126555297Y-78824629D01*
X126570355Y-78686777D01*
X126574802Y-78648263D01*
X126589882Y-78515229D01*
X126603289Y-78393630D01*
X126612552Y-78305777D01*
X126616518Y-78265979D01*
X126626833Y-78161787D01*
X126641152Y-78016678D01*
X126658548Y-77840087D01*
X126678092Y-77641445D01*
X126698855Y-77430187D01*
X126719909Y-77215746D01*
X126740326Y-77007555D01*
X126749740Y-76909186D01*
X126764284Y-76752145D01*
X126779850Y-76579768D01*
X126794355Y-76414888D01*
X126806815Y-76279686D01*
X126823103Y-76120855D01*
X126839305Y-75978796D01*
X126853271Y-75873260D01*
X126865074Y-75780485D01*
X126877034Y-75643965D01*
X126881667Y-75527538D01*
X126881667Y-75370666D01*
X131806445Y-75370666D01*
X131990144Y-75370676D01*
G37*
G36*
X174222138Y-92754395D02*
G01*
X174266418Y-92789600D01*
X174330944Y-92848208D01*
X174418767Y-92933192D01*
X174532939Y-93047520D01*
X174676510Y-93194164D01*
X174852532Y-93376094D01*
X175064056Y-93596281D01*
X175367445Y-93912861D01*
X175367445Y-94180875D01*
X175367426Y-94198078D01*
X175365332Y-94321309D01*
X175358820Y-94398187D01*
X175346537Y-94437713D01*
X175327128Y-94448888D01*
X175319880Y-94449054D01*
X175306696Y-94448634D01*
X175291957Y-94442951D01*
X175270353Y-94426889D01*
X175236577Y-94395334D01*
X175185318Y-94343169D01*
X175111268Y-94265279D01*
X175009117Y-94156549D01*
X174873556Y-94011863D01*
X174803418Y-93937063D01*
X174672037Y-93797142D01*
X174543997Y-93660998D01*
X174431040Y-93541111D01*
X174344907Y-93449960D01*
X174154925Y-93249444D01*
X174154407Y-93004165D01*
X174154478Y-92979005D01*
X174158907Y-92860158D01*
X174169303Y-92777048D01*
X174184493Y-92739972D01*
X174195054Y-92739625D01*
X174222138Y-92754395D01*
G37*
G36*
X174199386Y-91543559D02*
G01*
X174233355Y-91565335D01*
X174287019Y-91608691D01*
X174362859Y-91675964D01*
X174463354Y-91769493D01*
X174590986Y-91891615D01*
X174748235Y-92044669D01*
X174937580Y-92230992D01*
X175161502Y-92452923D01*
X175422481Y-92712800D01*
X176637445Y-93924707D01*
X176637445Y-94186798D01*
X176636894Y-94242397D01*
X176631885Y-94350103D01*
X176622552Y-94422439D01*
X176609997Y-94448888D01*
X176590164Y-94434147D01*
X176533478Y-94383361D01*
X176444444Y-94300142D01*
X176327161Y-94188421D01*
X176185726Y-94052129D01*
X176024238Y-93895199D01*
X175846796Y-93721562D01*
X175657497Y-93535149D01*
X175534652Y-93413848D01*
X175333555Y-93215448D01*
X175137870Y-93022586D01*
X174953385Y-92840953D01*
X174785886Y-92676244D01*
X174641159Y-92534148D01*
X174524990Y-92420360D01*
X174443167Y-92340571D01*
X174153889Y-92059733D01*
X174154322Y-91822033D01*
X174154684Y-91785932D01*
X174159563Y-91675462D01*
X174168899Y-91588942D01*
X174181135Y-91542613D01*
X174182633Y-91541025D01*
X174199386Y-91543559D01*
G37*
G36*
X164073723Y-88817433D02*
G01*
X164096846Y-88847560D01*
X164105648Y-88826938D01*
X164101166Y-88784915D01*
X164081271Y-88714049D01*
X164069212Y-88681695D01*
X164038131Y-88589180D01*
X164003119Y-88476446D01*
X163968449Y-88358272D01*
X163938394Y-88249440D01*
X163917228Y-88164730D01*
X163909223Y-88118925D01*
X163922979Y-88086629D01*
X163972723Y-88057992D01*
X164023624Y-88046883D01*
X164114493Y-88026936D01*
X164219667Y-88003772D01*
X164389747Y-87967347D01*
X164579742Y-87930676D01*
X164743503Y-87904821D01*
X164897001Y-87887029D01*
X164981165Y-87878152D01*
X165117940Y-87861291D01*
X165235667Y-87844221D01*
X165240290Y-87843469D01*
X165404471Y-87818999D01*
X165524009Y-87807368D01*
X165609013Y-87808714D01*
X165669596Y-87823179D01*
X165715865Y-87850904D01*
X165733184Y-87865665D01*
X165764804Y-87909495D01*
X165753748Y-87952691D01*
X165744955Y-87982952D01*
X165749397Y-88044639D01*
X165771953Y-88141595D01*
X165814183Y-88282333D01*
X165856359Y-88421389D01*
X165881818Y-88525621D01*
X165887645Y-88591217D01*
X165874418Y-88625329D01*
X165842717Y-88635110D01*
X165819913Y-88644591D01*
X165792573Y-88689114D01*
X165790893Y-88694725D01*
X165766664Y-88725944D01*
X165711598Y-88746240D01*
X165612892Y-88760715D01*
X165541752Y-88768568D01*
X165443448Y-88780314D01*
X165375449Y-88789527D01*
X165364672Y-88791110D01*
X165287680Y-88791914D01*
X165258896Y-88765771D01*
X165278102Y-88711529D01*
X165345082Y-88628037D01*
X165384332Y-88584254D01*
X165431299Y-88521079D01*
X165448564Y-88469941D01*
X165443994Y-88413799D01*
X165430445Y-88357601D01*
X165410367Y-88316690D01*
X165381035Y-88306040D01*
X165337350Y-88328496D01*
X165274217Y-88386903D01*
X165186536Y-88484105D01*
X165069210Y-88622948D01*
X165002200Y-88702964D01*
X164910933Y-88810558D01*
X164836688Y-88896397D01*
X164785769Y-88953223D01*
X164764482Y-88973777D01*
X164759133Y-88971871D01*
X164720031Y-88947227D01*
X164659620Y-88903222D01*
X164623438Y-88877484D01*
X164535793Y-88838594D01*
X164460093Y-88849428D01*
X164384902Y-88910277D01*
X164378117Y-88917892D01*
X164305103Y-89039938D01*
X164262097Y-89204398D01*
X164248224Y-89414496D01*
X164252977Y-89519771D01*
X164279201Y-89695400D01*
X164324548Y-89861891D01*
X164360656Y-89949274D01*
X164384685Y-90007424D01*
X164455277Y-90120179D01*
X164531990Y-90188338D01*
X164549272Y-90198990D01*
X164575942Y-90239017D01*
X164572016Y-90308801D01*
X164572261Y-90388168D01*
X164595446Y-90519056D01*
X164641687Y-90695333D01*
X164668167Y-90786558D01*
X164706120Y-90917918D01*
X164738210Y-91029681D01*
X164759460Y-91104555D01*
X164789510Y-91212074D01*
X164845429Y-91412622D01*
X164893135Y-91584333D01*
X164935015Y-91734205D01*
X164984976Y-91908002D01*
X165006741Y-91979444D01*
X165022773Y-92032069D01*
X165049324Y-92109382D01*
X165065548Y-92142918D01*
X165073143Y-92148769D01*
X165104806Y-92139099D01*
X165135643Y-92092136D01*
X165155352Y-92021777D01*
X165162754Y-91988465D01*
X165185085Y-91962786D01*
X165235185Y-91949745D01*
X165327389Y-91942758D01*
X165389666Y-91941238D01*
X165463237Y-91947511D01*
X165489667Y-91963924D01*
X165493416Y-91976515D01*
X165528981Y-91993555D01*
X165572220Y-92006666D01*
X165580257Y-92051124D01*
X165545639Y-92123546D01*
X165469321Y-92220306D01*
X165433912Y-92259912D01*
X165381216Y-92323702D01*
X165357830Y-92368616D01*
X165357702Y-92410279D01*
X165374777Y-92464313D01*
X165386489Y-92497994D01*
X165395194Y-92549434D01*
X165374590Y-92589507D01*
X165317149Y-92641342D01*
X165278990Y-92670978D01*
X165236999Y-92694322D01*
X165183479Y-92710843D01*
X165107219Y-92722950D01*
X164997008Y-92733053D01*
X164841634Y-92743562D01*
X164651659Y-92754601D01*
X164395393Y-92765134D01*
X164194595Y-92767084D01*
X164049067Y-92760454D01*
X163958612Y-92745243D01*
X163900054Y-92734750D01*
X163881001Y-92754333D01*
X163876222Y-92775895D01*
X163855338Y-92844798D01*
X163820749Y-92950355D01*
X163775604Y-93083012D01*
X163723055Y-93233212D01*
X163565110Y-93678971D01*
X163160040Y-94131218D01*
X162754969Y-94583465D01*
X162577152Y-94617569D01*
X162496544Y-94632968D01*
X162367243Y-94657489D01*
X162258223Y-94677972D01*
X162216790Y-94685922D01*
X162107858Y-94708433D01*
X162018334Y-94728913D01*
X161994306Y-94734778D01*
X161915916Y-94750265D01*
X161845101Y-94754268D01*
X161772498Y-94743914D01*
X161688746Y-94716331D01*
X161584484Y-94668649D01*
X161450350Y-94597995D01*
X161276983Y-94501498D01*
X161248247Y-94485324D01*
X161076645Y-94388545D01*
X160946530Y-94314291D01*
X160851166Y-94258076D01*
X160783814Y-94215415D01*
X160737738Y-94181824D01*
X160706201Y-94152816D01*
X160682465Y-94123906D01*
X160659792Y-94090609D01*
X160649014Y-94073522D01*
X160612125Y-93977838D01*
X160625708Y-93887782D01*
X160691060Y-93790922D01*
X160759103Y-93697270D01*
X160848950Y-93522511D01*
X160936969Y-93291777D01*
X160947643Y-93260695D01*
X160983983Y-93161071D01*
X161016261Y-93080110D01*
X161020209Y-93070948D01*
X161138373Y-92779090D01*
X161225617Y-92522829D01*
X161284757Y-92292842D01*
X161318612Y-92079809D01*
X161326093Y-92012636D01*
X161343002Y-91890691D01*
X161362046Y-91806264D01*
X161386739Y-91746170D01*
X161420598Y-91697222D01*
X161440152Y-91673494D01*
X161471066Y-91630630D01*
X161467853Y-91612033D01*
X161432244Y-91603829D01*
X161432015Y-91603795D01*
X161381542Y-91602612D01*
X161288204Y-91605744D01*
X161165242Y-91612584D01*
X161025895Y-91622523D01*
X160678107Y-91649943D01*
X160502618Y-91551804D01*
X160432073Y-91507806D01*
X160422786Y-91499666D01*
X162427556Y-91499666D01*
X162729834Y-91717491D01*
X162756157Y-91736351D01*
X162865456Y-91812216D01*
X162955646Y-91870954D01*
X163017986Y-91907064D01*
X163043734Y-91915046D01*
X163045742Y-91909206D01*
X163048751Y-91891440D01*
X164110171Y-91891440D01*
X164112106Y-91972842D01*
X164126706Y-92016879D01*
X164156884Y-92032688D01*
X164205556Y-92029406D01*
X164209611Y-92028764D01*
X164270000Y-92021152D01*
X164365551Y-92010794D01*
X164477499Y-91999737D01*
X164692997Y-91979444D01*
X164611260Y-91697222D01*
X164592324Y-91631881D01*
X164549205Y-91483310D01*
X164508132Y-91342049D01*
X164475922Y-91231555D01*
X164450420Y-91143938D01*
X164409718Y-91003177D01*
X164374019Y-90878777D01*
X164352695Y-90806354D01*
X164313165Y-90679641D01*
X164277063Y-90571618D01*
X164228410Y-90433793D01*
X164209051Y-90698618D01*
X164207235Y-90723129D01*
X164194094Y-90889239D01*
X164178678Y-91070402D01*
X164163956Y-91231555D01*
X164161426Y-91258140D01*
X164146360Y-91423583D01*
X164145967Y-91428152D01*
X164131072Y-91601107D01*
X164118514Y-91756593D01*
X164117984Y-91763537D01*
X164110171Y-91891440D01*
X163048751Y-91891440D01*
X163054280Y-91858803D01*
X163064651Y-91771340D01*
X163075049Y-91661464D01*
X163094741Y-91428152D01*
X162944593Y-91444738D01*
X162870008Y-91452888D01*
X162738109Y-91467061D01*
X162611001Y-91480495D01*
X162427556Y-91499666D01*
X160422786Y-91499666D01*
X160273104Y-91368472D01*
X160133273Y-91182648D01*
X160010722Y-90947566D01*
X159903589Y-90660460D01*
X159885753Y-90603264D01*
X159801447Y-90277816D01*
X159755534Y-89973138D01*
X159746899Y-89689885D01*
X160736265Y-89689885D01*
X160756356Y-89981014D01*
X160804028Y-90270961D01*
X160880120Y-90551794D01*
X160927883Y-90681405D01*
X161002876Y-90850255D01*
X161086981Y-91010777D01*
X161173642Y-91151606D01*
X161256301Y-91261378D01*
X161328401Y-91328728D01*
X161335485Y-91333347D01*
X161393400Y-91366370D01*
X161419554Y-91364595D01*
X161425667Y-91327924D01*
X161421333Y-91311014D01*
X161386004Y-91257046D01*
X161326728Y-91195588D01*
X161286462Y-91156069D01*
X161194400Y-91044987D01*
X161101479Y-90910843D01*
X161020933Y-90773544D01*
X160987809Y-90700859D01*
X163203667Y-90700859D01*
X163203939Y-90706504D01*
X163215407Y-90766159D01*
X163240385Y-90858523D01*
X163274223Y-90966117D01*
X163279609Y-90982367D01*
X163312645Y-91091935D01*
X163335953Y-91186191D01*
X163344778Y-91246260D01*
X163353718Y-91292145D01*
X163381020Y-91316222D01*
X163388253Y-91314913D01*
X163435467Y-91285813D01*
X163501871Y-91228216D01*
X163575078Y-91155042D01*
X163642704Y-91079214D01*
X163692362Y-91013652D01*
X163711667Y-90971277D01*
X163714613Y-90947408D01*
X163736520Y-90909082D01*
X163754777Y-90886422D01*
X163776373Y-90829805D01*
X163789809Y-90779883D01*
X163816190Y-90690681D01*
X163848168Y-90587991D01*
X163904962Y-90410093D01*
X163839278Y-90385120D01*
X163794282Y-90363477D01*
X163757256Y-90333710D01*
X163759849Y-90307325D01*
X163788781Y-90248686D01*
X163836501Y-90175879D01*
X163892645Y-90104418D01*
X163946851Y-90049821D01*
X163977253Y-90007899D01*
X163992467Y-89949274D01*
X163986743Y-89898750D01*
X163958612Y-89877848D01*
X163955883Y-89878234D01*
X163914844Y-89901017D01*
X163847900Y-89951881D01*
X163768112Y-90021011D01*
X163677190Y-90103678D01*
X163557554Y-90211298D01*
X163448429Y-90308405D01*
X163437199Y-90318424D01*
X163309204Y-90453548D01*
X163230488Y-90582425D01*
X163203667Y-90700859D01*
X160987809Y-90700859D01*
X160965998Y-90652999D01*
X160895926Y-90446230D01*
X160838668Y-90243156D01*
X160801940Y-90057165D01*
X160782417Y-89870922D01*
X160776769Y-89667094D01*
X160776967Y-89637962D01*
X160781934Y-89492148D01*
X160788900Y-89394348D01*
X162280627Y-89394348D01*
X162291258Y-89708523D01*
X162331329Y-90032110D01*
X162345149Y-90103445D01*
X162374318Y-90223580D01*
X162404665Y-90321388D01*
X162422034Y-90366287D01*
X162451355Y-90417351D01*
X162492660Y-90436470D01*
X162565446Y-90437754D01*
X162627822Y-90434313D01*
X162742099Y-90424400D01*
X162859206Y-90411104D01*
X162950487Y-90393514D01*
X163050733Y-90355533D01*
X163151714Y-90292515D01*
X163264182Y-90197538D01*
X163398887Y-90063681D01*
X163441147Y-90018344D01*
X163474779Y-89969204D01*
X163479580Y-89921736D01*
X163462387Y-89853290D01*
X163456270Y-89828185D01*
X163442726Y-89733243D01*
X163433512Y-89609960D01*
X163430351Y-89478503D01*
X163430698Y-89430245D01*
X163435036Y-89309358D01*
X163447019Y-89219766D01*
X163470157Y-89142462D01*
X163507962Y-89058444D01*
X163547352Y-88988663D01*
X163601841Y-88914934D01*
X163648167Y-88875363D01*
X163688456Y-88847854D01*
X163711335Y-88804807D01*
X163702828Y-88778291D01*
X163668786Y-88710540D01*
X163614783Y-88616545D01*
X163547343Y-88508110D01*
X163504356Y-88442933D01*
X163411493Y-88316805D01*
X163324081Y-88223374D01*
X163230175Y-88149123D01*
X163219520Y-88141851D01*
X163135867Y-88088201D01*
X163072617Y-88061100D01*
X163007122Y-88054189D01*
X162916733Y-88061108D01*
X162842982Y-88070995D01*
X162770448Y-88092631D01*
X162707354Y-88134552D01*
X162631072Y-88208428D01*
X162628592Y-88211013D01*
X162573650Y-88285456D01*
X162509373Y-88372548D01*
X162413810Y-88578687D01*
X162343060Y-88822392D01*
X162298280Y-89096626D01*
X162280627Y-89394348D01*
X160788900Y-89394348D01*
X160792206Y-89347943D01*
X160805943Y-89232754D01*
X160814237Y-89185741D01*
X160872686Y-88964192D01*
X160956126Y-88769842D01*
X161060134Y-88608524D01*
X161180289Y-88486073D01*
X161312169Y-88408323D01*
X161451353Y-88381110D01*
X161479700Y-88378409D01*
X161540455Y-88356387D01*
X161586498Y-88321596D01*
X161605336Y-88285456D01*
X161584477Y-88259392D01*
X161558386Y-88254659D01*
X161484747Y-88253177D01*
X161391595Y-88259245D01*
X161351527Y-88264070D01*
X161266440Y-88284264D01*
X161193275Y-88324396D01*
X161107911Y-88396101D01*
X161020199Y-88494127D01*
X160914954Y-88672187D01*
X160833101Y-88888725D01*
X160775476Y-89135808D01*
X160742918Y-89405506D01*
X160736265Y-89689885D01*
X159746899Y-89689885D01*
X159746389Y-89673140D01*
X159772388Y-89361732D01*
X159790584Y-89235719D01*
X159810621Y-89116632D01*
X159828794Y-89027246D01*
X159842674Y-88980732D01*
X159877850Y-88909219D01*
X159917376Y-88818062D01*
X159946662Y-88739289D01*
X159958112Y-88691902D01*
X159961119Y-88682517D01*
X159992797Y-88635614D01*
X160051668Y-88564640D01*
X160128575Y-88480928D01*
X160161844Y-88446579D01*
X160240874Y-88370369D01*
X160302560Y-88324562D01*
X160361419Y-88299884D01*
X160431964Y-88287059D01*
X160638837Y-88261613D01*
X160806278Y-88240625D01*
X160929791Y-88224041D01*
X161015547Y-88210495D01*
X161069717Y-88198622D01*
X161098471Y-88187054D01*
X161107981Y-88174427D01*
X161104417Y-88159375D01*
X161093950Y-88140531D01*
X161092623Y-88137772D01*
X161087358Y-88081895D01*
X161096702Y-87982910D01*
X161119751Y-87850967D01*
X161125366Y-87823368D01*
X161152934Y-87685856D01*
X161179033Y-87552868D01*
X161198673Y-87449777D01*
X161199509Y-87445263D01*
X161219933Y-87336201D01*
X161245486Y-87201333D01*
X161270841Y-87068777D01*
X161272659Y-87059327D01*
X161297773Y-86928813D01*
X161322394Y-86800854D01*
X161341436Y-86701888D01*
X161342596Y-86695859D01*
X161362260Y-86593703D01*
X161387120Y-86464606D01*
X161412087Y-86334999D01*
X161439153Y-86193088D01*
X161465477Y-86049145D01*
X161482143Y-85947328D01*
X161490202Y-85880173D01*
X161490708Y-85840211D01*
X161484713Y-85819978D01*
X161465456Y-85802006D01*
X161409686Y-85757798D01*
X161329593Y-85697417D01*
X161236733Y-85629236D01*
X161142660Y-85561631D01*
X161058927Y-85502974D01*
X160997089Y-85461638D01*
X160968699Y-85445999D01*
X160960992Y-85465969D01*
X160947854Y-85540291D01*
X160930506Y-85668170D01*
X160909109Y-85848140D01*
X160883821Y-86078733D01*
X160854805Y-86358482D01*
X160822219Y-86685921D01*
X160786224Y-87059582D01*
X160746979Y-87477999D01*
X160740711Y-87545883D01*
X160730939Y-87652932D01*
X160724008Y-87730514D01*
X160721119Y-87765261D01*
X160718404Y-87781374D01*
X160675182Y-87831497D01*
X160582289Y-87862692D01*
X160442929Y-87873711D01*
X160254445Y-87874311D01*
X160066157Y-88050100D01*
X160030227Y-88083975D01*
X159950380Y-88164678D01*
X159889963Y-88239707D01*
X159839616Y-88323853D01*
X159789979Y-88431909D01*
X159731692Y-88578666D01*
X159704959Y-88644707D01*
X159663836Y-88735855D01*
X159630667Y-88797866D01*
X159628749Y-88800803D01*
X159600151Y-88833965D01*
X159566983Y-88842256D01*
X159520373Y-88821951D01*
X159451447Y-88769330D01*
X159351334Y-88680667D01*
X159277720Y-88616201D01*
X159219179Y-88569540D01*
X159189056Y-88551387D01*
X159175727Y-88543140D01*
X159168530Y-88497228D01*
X159181326Y-88425474D01*
X159212259Y-88344431D01*
X159227735Y-88318730D01*
X159284274Y-88246037D01*
X159364916Y-88156412D01*
X159457643Y-88063610D01*
X159534727Y-87992657D01*
X159621370Y-87922184D01*
X159686607Y-87884364D01*
X159739443Y-87873110D01*
X159757342Y-87872533D01*
X159845511Y-87862035D01*
X159941755Y-87842509D01*
X160063283Y-87811909D01*
X160081052Y-87623787D01*
X160084564Y-87577267D01*
X160090238Y-87458257D01*
X160094804Y-87305765D01*
X160097865Y-87134512D01*
X160099022Y-86959219D01*
X160098989Y-86913922D01*
X160096598Y-86722478D01*
X160088352Y-86576670D01*
X160071324Y-86467555D01*
X160042589Y-86386191D01*
X159999220Y-86323636D01*
X159938292Y-86270946D01*
X159856878Y-86219179D01*
X159813171Y-86191694D01*
X159751206Y-86136175D01*
X159732334Y-86081764D01*
X159734793Y-86047512D01*
X159767943Y-85931554D01*
X159830553Y-85813961D01*
X159910794Y-85718794D01*
X159957609Y-85677373D01*
X160041538Y-85603671D01*
X160144696Y-85513449D01*
X160254445Y-85417777D01*
X160347162Y-85337055D01*
X160454556Y-85243467D01*
X160545620Y-85164017D01*
X160607223Y-85110156D01*
X160706001Y-85023568D01*
X161143445Y-85017420D01*
X161292913Y-85015125D01*
X161455267Y-85013330D01*
X161578964Y-85015459D01*
X161674266Y-85024127D01*
X161751435Y-85041950D01*
X161820734Y-85071541D01*
X161892426Y-85115517D01*
X161976773Y-85176491D01*
X162084037Y-85257078D01*
X162096281Y-85266225D01*
X162228358Y-85364687D01*
X162358452Y-85461345D01*
X162472165Y-85545517D01*
X162555101Y-85606525D01*
X162609503Y-85649165D01*
X162678278Y-85715032D01*
X162747547Y-85798747D01*
X162825915Y-85911005D01*
X162921990Y-86062504D01*
X162984318Y-86162111D01*
X163059018Y-86275073D01*
X163113744Y-86347171D01*
X163152655Y-86383687D01*
X163179912Y-86389899D01*
X163184845Y-86388516D01*
X163242152Y-86377701D01*
X163335080Y-86364188D01*
X163446082Y-86350571D01*
X163555709Y-86340029D01*
X163634862Y-86338799D01*
X163687852Y-86349329D01*
X163730006Y-86372818D01*
X163736351Y-86377477D01*
X163780445Y-86418785D01*
X163788306Y-86459463D01*
X163757413Y-86511588D01*
X163685245Y-86587242D01*
X163629625Y-86643858D01*
X163593865Y-86695579D01*
X163583719Y-86750991D01*
X163590398Y-86832858D01*
X163592668Y-86852747D01*
X163597144Y-86926805D01*
X163587146Y-86961430D01*
X163559678Y-86969999D01*
X163511149Y-86988195D01*
X163483377Y-87048901D01*
X163485546Y-87145599D01*
X163518592Y-87271423D01*
X163525207Y-87290143D01*
X163560286Y-87389352D01*
X163607425Y-87522615D01*
X163661271Y-87674801D01*
X163716470Y-87830777D01*
X163724747Y-87854179D01*
X163784295Y-88023466D01*
X163844835Y-88196921D01*
X163899718Y-88355432D01*
X163942296Y-88479888D01*
X163990926Y-88618556D01*
X164037882Y-88739964D01*
X164067882Y-88804807D01*
X164073723Y-88817433D01*
G37*
G36*
X174212785Y-94074632D02*
G01*
X174276468Y-94124926D01*
X174375024Y-94216628D01*
X174507586Y-94348871D01*
X174673287Y-94520786D01*
X174871259Y-94731506D01*
X175100635Y-94980163D01*
X175367445Y-95271549D01*
X175367445Y-95518737D01*
X175367103Y-95566984D01*
X175363728Y-95672351D01*
X175357515Y-95749352D01*
X175349419Y-95783951D01*
X175338675Y-95789609D01*
X175296538Y-95781600D01*
X175287132Y-95774225D01*
X175241548Y-95731178D01*
X175167416Y-95657112D01*
X175071557Y-95559120D01*
X174960793Y-95444297D01*
X174841947Y-95319737D01*
X174721840Y-95192535D01*
X174607294Y-95069785D01*
X174505131Y-94958581D01*
X174427764Y-94874115D01*
X174335641Y-94774767D01*
X174259723Y-94694122D01*
X174153889Y-94583193D01*
X174153889Y-94334262D01*
X174153901Y-94325763D01*
X174158034Y-94193663D01*
X174169051Y-94104692D01*
X174186168Y-94065381D01*
X174212785Y-94074632D01*
G37*
G36*
X160133260Y-84411036D02*
G01*
X159968842Y-84550542D01*
X159765098Y-84722559D01*
X159749509Y-84735724D01*
X159636968Y-84833461D01*
X159557075Y-84911148D01*
X159499028Y-84981710D01*
X159452025Y-85058074D01*
X159405265Y-85153166D01*
X159391481Y-85183170D01*
X159349440Y-85276970D01*
X159320056Y-85346108D01*
X159309001Y-85377371D01*
X159300467Y-85403347D01*
X159283429Y-85444406D01*
X159273842Y-85467509D01*
X159235422Y-85553641D01*
X159203726Y-85624057D01*
X159152596Y-85741791D01*
X159111476Y-85841110D01*
X159079017Y-85920092D01*
X159029348Y-86036120D01*
X158978268Y-86151555D01*
X158955753Y-86201619D01*
X158879090Y-86377981D01*
X158822353Y-86523998D01*
X158781035Y-86655701D01*
X158750628Y-86789119D01*
X158726626Y-86940282D01*
X158704522Y-87125222D01*
X158682281Y-87327065D01*
X158679363Y-87352957D01*
X158660405Y-87521206D01*
X158638935Y-87705922D01*
X158615937Y-87897561D01*
X158589477Y-88112471D01*
X158557622Y-88366999D01*
X158543207Y-88484508D01*
X158529000Y-88614475D01*
X158519114Y-88734035D01*
X158513844Y-88850567D01*
X158513486Y-88971453D01*
X158518334Y-89104071D01*
X158528684Y-89255801D01*
X158544831Y-89434024D01*
X158567070Y-89646119D01*
X158595697Y-89899465D01*
X158631007Y-90201444D01*
X158636208Y-90246467D01*
X158650600Y-90375941D01*
X158668059Y-90537679D01*
X158686842Y-90715416D01*
X158691402Y-90759495D01*
X158705201Y-90892888D01*
X158706351Y-90904097D01*
X158728738Y-91103224D01*
X158752006Y-91263750D01*
X158779482Y-91402613D01*
X158814491Y-91536753D01*
X158860360Y-91683110D01*
X158871498Y-91716608D01*
X158921506Y-91865489D01*
X158984129Y-92050213D01*
X159055532Y-92259616D01*
X159131877Y-92482532D01*
X159209328Y-92707798D01*
X159284048Y-92924250D01*
X159331996Y-93062472D01*
X159352202Y-93120722D01*
X159409952Y-93286052D01*
X159453463Y-93409074D01*
X159467985Y-93445866D01*
X159507089Y-93526460D01*
X159564667Y-93627264D01*
X159643873Y-93753210D01*
X159747858Y-93909231D01*
X159879776Y-94100261D01*
X160042778Y-94331232D01*
X160341350Y-94751149D01*
X160564889Y-95065539D01*
X160833001Y-95213986D01*
X160939773Y-95273056D01*
X161045174Y-95331170D01*
X161141692Y-95384047D01*
X161243977Y-95439679D01*
X161366679Y-95506058D01*
X161524445Y-95591174D01*
X161614859Y-95640801D01*
X161633163Y-95651698D01*
X161720556Y-95703726D01*
X161779406Y-95748618D01*
X161794168Y-95778849D01*
X161767599Y-95797793D01*
X161702460Y-95808822D01*
X161662832Y-95814988D01*
X161615440Y-95843404D01*
X161588764Y-95909388D01*
X161579309Y-95942806D01*
X161556865Y-95982474D01*
X161513683Y-95999409D01*
X161431916Y-96004425D01*
X161395384Y-96005663D01*
X161287823Y-96010888D01*
X161154617Y-96018723D01*
X161016445Y-96027995D01*
X160929070Y-96033564D01*
X160755552Y-96042143D01*
X160569950Y-96048962D01*
X160399913Y-96052903D01*
X160343063Y-96053608D01*
X160214814Y-96053640D01*
X160126346Y-96049412D01*
X160065353Y-96039211D01*
X160019532Y-96021329D01*
X159976580Y-95994055D01*
X159974792Y-95992783D01*
X159936083Y-95967927D01*
X159895153Y-95951079D01*
X159841162Y-95941009D01*
X159763273Y-95936490D01*
X159650646Y-95936294D01*
X159492445Y-95939191D01*
X159097334Y-95947827D01*
X158871556Y-95831308D01*
X158830681Y-95810222D01*
X158707184Y-95746572D01*
X158555641Y-95668521D01*
X158391512Y-95584032D01*
X158306744Y-95540418D01*
X160333637Y-95540418D01*
X160349861Y-95574009D01*
X160397040Y-95610285D01*
X160485053Y-95660295D01*
X160569011Y-95703713D01*
X160652448Y-95742534D01*
X160706001Y-95762345D01*
X160720178Y-95763932D01*
X160780516Y-95752233D01*
X160845295Y-95722483D01*
X160894816Y-95685399D01*
X160909382Y-95651698D01*
X160898145Y-95640049D01*
X160845992Y-95604303D01*
X160761779Y-95553981D01*
X160656802Y-95496044D01*
X160612239Y-95472508D01*
X160504151Y-95419430D01*
X160432130Y-95395301D01*
X160386818Y-95400145D01*
X160358855Y-95433983D01*
X160338884Y-95496841D01*
X160338486Y-95498464D01*
X160333637Y-95540418D01*
X158306744Y-95540418D01*
X158230258Y-95501065D01*
X157814738Y-95287341D01*
X157383591Y-94707481D01*
X157232777Y-94504361D01*
X157088055Y-94308394D01*
X157065810Y-94277929D01*
X159129334Y-94277929D01*
X159264236Y-94473584D01*
X159277911Y-94493290D01*
X159352044Y-94596472D01*
X159421921Y-94688557D01*
X159474014Y-94751612D01*
X159477338Y-94755259D01*
X159530439Y-94805595D01*
X159576361Y-94819432D01*
X159640612Y-94804933D01*
X159649631Y-94801957D01*
X159708328Y-94775391D01*
X159732334Y-94751149D01*
X159728940Y-94742321D01*
X159699971Y-94693844D01*
X159646185Y-94612418D01*
X159573388Y-94506714D01*
X159487388Y-94385404D01*
X159242443Y-94044393D01*
X159185889Y-94161161D01*
X159129334Y-94277929D01*
X157065810Y-94277929D01*
X156970884Y-94147927D01*
X156877830Y-94017833D01*
X156805460Y-93912989D01*
X156750340Y-93828267D01*
X156709036Y-93758544D01*
X156678115Y-93698694D01*
X156654142Y-93643591D01*
X156633686Y-93588110D01*
X156607015Y-93511861D01*
X156562294Y-93385649D01*
X156510340Y-93240241D01*
X156457774Y-93094222D01*
X156411592Y-92966030D01*
X156368744Y-92846192D01*
X156335688Y-92752781D01*
X156317163Y-92699110D01*
X156311029Y-92681044D01*
X156285880Y-92609136D01*
X156247476Y-92500711D01*
X156199813Y-92367025D01*
X156157480Y-92248896D01*
X158232661Y-92248896D01*
X158365769Y-92643337D01*
X158386056Y-92702351D01*
X158434959Y-92835683D01*
X158478375Y-92941994D01*
X158512497Y-93012341D01*
X158533522Y-93037777D01*
X158583407Y-93042888D01*
X158656362Y-93055416D01*
X158661958Y-93056514D01*
X158720383Y-93064904D01*
X158744251Y-93062472D01*
X158743882Y-93059470D01*
X158731620Y-93014765D01*
X158704678Y-92929999D01*
X158666672Y-92815571D01*
X158621220Y-92681882D01*
X158571941Y-92539332D01*
X158522450Y-92398320D01*
X158476367Y-92269247D01*
X158437308Y-92162512D01*
X158408891Y-92088516D01*
X158394733Y-92057658D01*
X158388589Y-92059434D01*
X158356627Y-92090611D01*
X158309100Y-92148679D01*
X158232661Y-92248896D01*
X156157480Y-92248896D01*
X156146886Y-92219333D01*
X156099057Y-92084860D01*
X156037498Y-91903680D01*
X155991499Y-91752176D01*
X155957745Y-91616352D01*
X155932925Y-91482213D01*
X155913726Y-91335762D01*
X155896833Y-91163005D01*
X155883276Y-91031902D01*
X155867696Y-90917934D01*
X155852261Y-90835972D01*
X155838900Y-90798165D01*
X155806142Y-90789944D01*
X155716378Y-90785637D01*
X155570620Y-90786486D01*
X155368984Y-90792488D01*
X155111583Y-90803645D01*
X154919746Y-90812681D01*
X154684178Y-90823372D01*
X154431117Y-90834511D01*
X154167951Y-90845798D01*
X153902069Y-90856935D01*
X153640858Y-90867624D01*
X153391707Y-90877566D01*
X153162003Y-90886464D01*
X152959134Y-90894019D01*
X152790489Y-90899933D01*
X152663455Y-90903907D01*
X152585421Y-90905644D01*
X152521756Y-90902900D01*
X152461409Y-90887881D01*
X152446483Y-90863247D01*
X152482474Y-90832883D01*
X152483371Y-90832438D01*
X152524800Y-90817972D01*
X152600363Y-90799434D01*
X152715473Y-90775704D01*
X152875548Y-90745666D01*
X153086001Y-90708199D01*
X153126023Y-90701159D01*
X153258551Y-90677425D01*
X153379562Y-90655187D01*
X153467001Y-90638482D01*
X153489217Y-90634133D01*
X153589437Y-90615279D01*
X153716383Y-90592144D01*
X153848001Y-90568765D01*
X153885430Y-90562191D01*
X154021357Y-90537977D01*
X154148368Y-90514903D01*
X154243112Y-90497199D01*
X154257343Y-90494480D01*
X154361629Y-90475027D01*
X154492161Y-90451208D01*
X154624112Y-90427562D01*
X154649877Y-90422975D01*
X154780217Y-90399251D01*
X154901722Y-90376404D01*
X154991001Y-90358815D01*
X155020728Y-90352850D01*
X155123328Y-90333374D01*
X155252090Y-90309931D01*
X155386112Y-90286355D01*
X155458101Y-90274160D01*
X155595273Y-90251281D01*
X155688540Y-90232638D01*
X155745739Y-90212300D01*
X155774708Y-90184335D01*
X155783285Y-90142810D01*
X155779310Y-90081793D01*
X155770618Y-89995352D01*
X155769846Y-89986216D01*
X155756134Y-89844426D01*
X155748462Y-89775453D01*
X157805650Y-89775453D01*
X157824428Y-90073115D01*
X157829718Y-90148448D01*
X157842923Y-90299253D01*
X157858172Y-90439110D01*
X157873121Y-90545302D01*
X157889691Y-90631566D01*
X157910663Y-90694168D01*
X157941827Y-90730069D01*
X157992184Y-90755132D01*
X157997959Y-90757425D01*
X158063697Y-90784355D01*
X158102501Y-90801681D01*
X158113079Y-90801169D01*
X158122426Y-90759495D01*
X158117181Y-90663947D01*
X158097337Y-90514200D01*
X158087192Y-90442604D01*
X158070700Y-90313216D01*
X158052933Y-90162680D01*
X158036312Y-90010944D01*
X158021013Y-89883037D01*
X158004649Y-89777174D01*
X157989319Y-89705619D01*
X157976983Y-89679333D01*
X157938184Y-89693379D01*
X157878999Y-89727393D01*
X157805650Y-89775453D01*
X155748462Y-89775453D01*
X155738135Y-89682612D01*
X155719534Y-89534028D01*
X155703384Y-89377719D01*
X155702584Y-89222747D01*
X155719990Y-89054250D01*
X155732163Y-88966577D01*
X155752933Y-88812177D01*
X155775241Y-88642102D01*
X155795973Y-88479888D01*
X155811083Y-88360548D01*
X155831618Y-88200616D01*
X155842682Y-88115762D01*
X157815827Y-88115762D01*
X157818059Y-88187208D01*
X157831615Y-88234039D01*
X157858359Y-88271319D01*
X157888878Y-88304226D01*
X157938756Y-88348600D01*
X157973401Y-88355492D01*
X157997799Y-88320211D01*
X158016935Y-88238066D01*
X158035797Y-88104364D01*
X158040344Y-88068486D01*
X158061265Y-87904232D01*
X158083296Y-87732264D01*
X158102360Y-87584441D01*
X158108254Y-87535418D01*
X158117483Y-87430304D01*
X158119456Y-87352957D01*
X158113585Y-87317398D01*
X158088785Y-87311986D01*
X158038100Y-87330901D01*
X157998776Y-87350997D01*
X157946109Y-87365110D01*
X157941093Y-87366368D01*
X157916568Y-87404807D01*
X157891461Y-87492581D01*
X157866906Y-87623853D01*
X157844038Y-87792785D01*
X157823990Y-87993538D01*
X157823055Y-88004637D01*
X157815827Y-88115762D01*
X155842682Y-88115762D01*
X155850650Y-88054647D01*
X155865456Y-87943666D01*
X155877682Y-87852557D01*
X155896287Y-87711393D01*
X155917089Y-87551615D01*
X155937459Y-87393333D01*
X155937623Y-87392048D01*
X155958109Y-87248752D01*
X155980566Y-87118788D01*
X156002284Y-87016414D01*
X156020557Y-86955888D01*
X156031348Y-86931891D01*
X156080169Y-86823776D01*
X156143835Y-86683252D01*
X156215743Y-86524880D01*
X156289290Y-86363222D01*
X156341991Y-86247369D01*
X156413964Y-86088638D01*
X156437805Y-86035877D01*
X158265793Y-86035877D01*
X158266624Y-86043102D01*
X158290001Y-86098502D01*
X158335209Y-86164700D01*
X158403610Y-86248400D01*
X158475305Y-86086284D01*
X158509036Y-86008681D01*
X158536473Y-85942574D01*
X158547001Y-85912922D01*
X158548442Y-85907894D01*
X158566563Y-85863894D01*
X158601083Y-85785838D01*
X158646459Y-85686356D01*
X158662654Y-85650440D01*
X158702072Y-85553822D01*
X158725898Y-85480604D01*
X158729460Y-85444406D01*
X158726297Y-85440394D01*
X158680241Y-85422187D01*
X158609799Y-85418877D01*
X158540882Y-85429491D01*
X158499399Y-85453055D01*
X158499215Y-85453341D01*
X158471004Y-85507161D01*
X158431618Y-85594393D01*
X158386734Y-85700869D01*
X158342031Y-85812424D01*
X158303187Y-85914888D01*
X158275882Y-85994095D01*
X158265793Y-86035877D01*
X156437805Y-86035877D01*
X156493898Y-85911741D01*
X156589336Y-85699999D01*
X156623661Y-85623107D01*
X156658840Y-85545677D01*
X156691754Y-85480519D01*
X156727494Y-85422280D01*
X156771150Y-85365604D01*
X156827813Y-85305140D01*
X156902571Y-85235532D01*
X157000516Y-85151427D01*
X157126737Y-85047471D01*
X157286324Y-84918311D01*
X157484367Y-84758593D01*
X157572711Y-84686942D01*
X157665869Y-84610609D01*
X157736390Y-84551942D01*
X157758486Y-84532828D01*
X159149013Y-84532828D01*
X159154416Y-84570109D01*
X159186501Y-84636805D01*
X159239437Y-84739988D01*
X159487260Y-84535901D01*
X159735082Y-84331813D01*
X159617156Y-84281730D01*
X159499231Y-84231647D01*
X159372504Y-84337879D01*
X159318459Y-84383001D01*
X159242530Y-84445823D01*
X159189671Y-84488866D01*
X159170731Y-84504405D01*
X159149013Y-84532828D01*
X157758486Y-84532828D01*
X157773581Y-84519770D01*
X157802244Y-84500135D01*
X157887886Y-84462477D01*
X158008318Y-84422876D01*
X158150229Y-84385094D01*
X158300310Y-84352889D01*
X158445250Y-84330023D01*
X158542303Y-84313259D01*
X158632200Y-84278654D01*
X158713361Y-84218497D01*
X158733718Y-84200917D01*
X158784786Y-84164037D01*
X158845099Y-84133609D01*
X158923991Y-84106782D01*
X159030791Y-84080710D01*
X159174832Y-84052543D01*
X159365445Y-84019432D01*
X159419750Y-84010224D01*
X159554177Y-83986946D01*
X159674752Y-83965455D01*
X159760556Y-83949455D01*
X159902122Y-83921602D01*
X160033217Y-83896094D01*
X160124477Y-83880079D01*
X160184579Y-83873285D01*
X160222204Y-83875435D01*
X160246028Y-83886257D01*
X160264731Y-83905475D01*
X160286992Y-83932816D01*
X160341474Y-83980271D01*
X160436536Y-84006666D01*
X160497252Y-84015982D01*
X160522556Y-84043731D01*
X160520078Y-84054037D01*
X160506806Y-84074487D01*
X160478440Y-84105731D01*
X160430941Y-84151388D01*
X160360271Y-84215078D01*
X160262390Y-84300421D01*
X160225744Y-84331813D01*
X160133260Y-84411036D01*
G37*
G36*
X123951303Y-93870799D02*
G01*
X124049189Y-93929344D01*
X124160610Y-94019086D01*
X124203197Y-94055536D01*
X124274839Y-94112258D01*
X124347854Y-94166468D01*
X124407210Y-94207106D01*
X124437875Y-94223110D01*
X124465455Y-94233463D01*
X124534047Y-94263620D01*
X124632744Y-94308808D01*
X124750889Y-94364222D01*
X124862930Y-94416095D01*
X124968501Y-94462404D01*
X125046578Y-94493784D01*
X125085540Y-94505333D01*
X125098211Y-94506408D01*
X125143561Y-94526499D01*
X125158132Y-94534903D01*
X125226784Y-94556425D01*
X125344692Y-94583705D01*
X125507398Y-94615759D01*
X125710445Y-94651603D01*
X125726044Y-94654196D01*
X125885520Y-94675095D01*
X126041577Y-94683079D01*
X126213731Y-94678417D01*
X126421499Y-94661377D01*
X126652775Y-94638318D01*
X126671924Y-94714616D01*
X126676119Y-94737966D01*
X126679740Y-94825469D01*
X126672214Y-94923290D01*
X126642192Y-95144863D01*
X126607474Y-95424033D01*
X126573653Y-95718888D01*
X126546777Y-95946202D01*
X126519788Y-96140323D01*
X126494022Y-96291587D01*
X126470246Y-96395501D01*
X126449226Y-96447572D01*
X126424316Y-96465732D01*
X126361528Y-96465869D01*
X126336465Y-96458876D01*
X126256928Y-96441328D01*
X126162001Y-96424148D01*
X126139150Y-96420404D01*
X126032751Y-96402290D01*
X125900906Y-96379145D01*
X125766889Y-96355040D01*
X125729071Y-96348157D01*
X125593269Y-96323653D01*
X125466409Y-96301043D01*
X125371778Y-96284484D01*
X125348961Y-96280539D01*
X125242561Y-96261792D01*
X125110701Y-96238203D01*
X124976667Y-96213928D01*
X124938845Y-96207046D01*
X124803044Y-96182561D01*
X124676186Y-96159988D01*
X124581556Y-96143478D01*
X124519954Y-96132865D01*
X124379557Y-96108365D01*
X124215189Y-96079417D01*
X124046746Y-96049545D01*
X123894125Y-96022269D01*
X123777223Y-96001110D01*
X123713857Y-95989569D01*
X123547305Y-95959706D01*
X123375274Y-95929412D01*
X123213015Y-95901336D01*
X123075778Y-95878126D01*
X122978812Y-95862433D01*
X122937110Y-95854405D01*
X122853551Y-95828665D01*
X122801052Y-95799034D01*
X122776406Y-95765666D01*
X122778470Y-95726170D01*
X122809240Y-95660065D01*
X122818358Y-95643216D01*
X122855433Y-95583254D01*
X122881167Y-95554259D01*
X122881725Y-95554003D01*
X122902334Y-95521692D01*
X122902487Y-95520150D01*
X122918077Y-95481578D01*
X122954251Y-95409938D01*
X123003879Y-95319433D01*
X123058344Y-95223092D01*
X123130308Y-95095207D01*
X123191934Y-94985110D01*
X123232037Y-94913160D01*
X123285712Y-94816876D01*
X123325667Y-94745222D01*
X123352971Y-94696205D01*
X123404228Y-94604049D01*
X123459070Y-94505333D01*
X123495361Y-94440333D01*
X123567694Y-94312093D01*
X123634565Y-94194888D01*
X123676509Y-94119637D01*
X123717694Y-94040146D01*
X123739733Y-93990277D01*
X123752075Y-93963904D01*
X123780514Y-93940888D01*
X123791057Y-93937177D01*
X123805445Y-93901574D01*
X123822787Y-93856111D01*
X123873616Y-93845653D01*
X123951303Y-93870799D01*
G37*
G36*
X174201071Y-95028282D02*
G01*
X174251824Y-95062333D01*
X174325607Y-95126853D01*
X174413637Y-95214595D01*
X174420607Y-95221917D01*
X174520373Y-95326285D01*
X174643280Y-95454257D01*
X174774386Y-95590301D01*
X174898752Y-95718888D01*
X175026627Y-95850761D01*
X175143735Y-95972870D01*
X175230438Y-96067482D01*
X175291296Y-96141836D01*
X175330866Y-96203169D01*
X175353707Y-96258720D01*
X175364378Y-96315726D01*
X175367438Y-96381425D01*
X175367445Y-96463055D01*
X175367218Y-96499536D01*
X175363852Y-96603893D01*
X175357295Y-96680923D01*
X175348630Y-96716073D01*
X175346528Y-96718073D01*
X175311656Y-96734888D01*
X175295239Y-96723624D01*
X175240498Y-96673185D01*
X175149356Y-96583308D01*
X175022933Y-96455129D01*
X174862348Y-96289785D01*
X174668720Y-96088414D01*
X174443167Y-95852153D01*
X174153889Y-95548258D01*
X174153889Y-95296572D01*
X174154020Y-95269738D01*
X174158706Y-95147668D01*
X174169333Y-95063228D01*
X174184835Y-95025761D01*
X174201071Y-95028282D01*
G37*
G36*
X175351674Y-97063977D02*
G01*
X175363320Y-97148567D01*
X175367445Y-97273407D01*
X175368042Y-97310231D01*
X175369746Y-97357146D01*
X175369679Y-97397667D01*
X175364760Y-97435747D01*
X175351910Y-97475340D01*
X175328045Y-97520399D01*
X175290086Y-97574877D01*
X175234950Y-97642728D01*
X175159557Y-97727906D01*
X175060825Y-97834363D01*
X174935674Y-97966053D01*
X174781021Y-98126930D01*
X174593787Y-98320947D01*
X174370889Y-98552057D01*
X174302048Y-98621202D01*
X174236013Y-98675461D01*
X174193142Y-98685430D01*
X174168516Y-98648096D01*
X174157216Y-98560449D01*
X174154322Y-98419477D01*
X174153889Y-98199065D01*
X174302056Y-98039022D01*
X174453977Y-97876841D01*
X174610656Y-97713163D01*
X174764143Y-97556062D01*
X174909383Y-97410485D01*
X175041320Y-97281377D01*
X175154898Y-97173685D01*
X175245061Y-97092355D01*
X175306754Y-97042332D01*
X175334921Y-97028563D01*
X175351674Y-97063977D01*
G37*
G36*
X117914056Y-94995649D02*
G01*
X117943561Y-95000212D01*
X118056925Y-95019804D01*
X118179885Y-95043415D01*
X118296129Y-95067681D01*
X118389346Y-95089241D01*
X118443223Y-95104731D01*
X118446020Y-95105791D01*
X118505041Y-95122055D01*
X118584334Y-95137969D01*
X118643823Y-95148675D01*
X118760137Y-95171157D01*
X118904966Y-95200240D01*
X119063102Y-95232857D01*
X119219334Y-95265943D01*
X119227541Y-95267703D01*
X119316328Y-95286452D01*
X119434211Y-95311025D01*
X119558001Y-95336585D01*
X119573577Y-95339790D01*
X119697928Y-95365717D01*
X119813358Y-95390304D01*
X119896667Y-95408616D01*
X119952203Y-95420569D01*
X120064051Y-95442750D01*
X120178889Y-95463826D01*
X120255608Y-95477529D01*
X120349661Y-95495188D01*
X120411723Y-95507889D01*
X120475223Y-95522408D01*
X120475223Y-97329721D01*
X120475223Y-99137033D01*
X120334140Y-99057794D01*
X120274139Y-99022074D01*
X120215658Y-98981547D01*
X120193029Y-98957388D01*
X120192346Y-98952741D01*
X120165319Y-98936222D01*
X120144062Y-98927506D01*
X120080647Y-98893307D01*
X119984434Y-98837767D01*
X119863853Y-98765776D01*
X119727334Y-98682222D01*
X119619984Y-98616354D01*
X119495144Y-98541379D01*
X119392806Y-98481773D01*
X119321397Y-98442424D01*
X119289349Y-98428222D01*
X119283274Y-98427705D01*
X119261600Y-98407055D01*
X119252036Y-98393744D01*
X119203255Y-98360162D01*
X119126550Y-98318184D01*
X119037098Y-98275365D01*
X118950078Y-98239260D01*
X118880667Y-98217425D01*
X118877548Y-98216744D01*
X118804992Y-98201515D01*
X118700056Y-98180152D01*
X118584334Y-98157056D01*
X118584057Y-98157001D01*
X118461081Y-98132264D01*
X118342060Y-98107583D01*
X118252723Y-98088293D01*
X118224883Y-98082084D01*
X118095112Y-98054327D01*
X117976102Y-98030590D01*
X117882610Y-98013722D01*
X117829389Y-98006571D01*
X117824361Y-98002322D01*
X117817093Y-97976339D01*
X117811004Y-97923512D01*
X117806005Y-97840143D01*
X117802012Y-97722530D01*
X117798938Y-97566975D01*
X117796697Y-97369778D01*
X117795204Y-97127237D01*
X117794370Y-96835654D01*
X117794112Y-96491329D01*
X117794112Y-94977770D01*
X117914056Y-94995649D01*
G37*
G36*
X175346453Y-97978381D02*
G01*
X175359774Y-98043781D01*
X175366374Y-98138764D01*
X175366424Y-98247135D01*
X175360091Y-98352700D01*
X175347544Y-98439265D01*
X175328953Y-98490634D01*
X175322195Y-98498817D01*
X175279607Y-98546237D01*
X175206529Y-98625221D01*
X175109230Y-98729066D01*
X174993978Y-98851067D01*
X174867043Y-98984523D01*
X174700039Y-99159842D01*
X174556018Y-99311940D01*
X174444180Y-99431406D01*
X174360853Y-99522322D01*
X174302365Y-99588767D01*
X174265044Y-99634823D01*
X174245217Y-99664568D01*
X174239211Y-99682084D01*
X174249187Y-99700862D01*
X174291241Y-99754370D01*
X174358638Y-99831322D01*
X174443167Y-99922057D01*
X174499085Y-99980469D01*
X174608497Y-100094725D01*
X174737522Y-100229434D01*
X174874460Y-100372380D01*
X175007612Y-100511349D01*
X175367445Y-100886864D01*
X175367445Y-101122790D01*
X175367274Y-101156936D01*
X175364327Y-101267687D01*
X175358481Y-101354969D01*
X175350722Y-101402297D01*
X175339857Y-101424076D01*
X175315629Y-101429446D01*
X175265401Y-101400931D01*
X175214006Y-101361633D01*
X175176291Y-101320958D01*
X175157192Y-101297023D01*
X175104262Y-101237035D01*
X175024819Y-101149706D01*
X174925567Y-101042396D01*
X174813213Y-100922465D01*
X174734804Y-100839242D01*
X174608196Y-100704748D01*
X174488499Y-100577474D01*
X174386322Y-100468698D01*
X174312269Y-100389702D01*
X174153889Y-100220404D01*
X174153176Y-99980479D01*
X174152462Y-99740555D01*
X173920342Y-99982423D01*
X173861681Y-100043689D01*
X173743796Y-100167287D01*
X173607563Y-100310552D01*
X173465522Y-100460291D01*
X173330211Y-100603312D01*
X173278038Y-100658323D01*
X173156057Y-100784244D01*
X173065392Y-100872625D01*
X173001838Y-100927192D01*
X172961191Y-100951671D01*
X172939245Y-100949789D01*
X172923673Y-100911779D01*
X172914628Y-100816080D01*
X172916257Y-100666773D01*
X172926223Y-100416300D01*
X173227230Y-100106649D01*
X173255677Y-100077366D01*
X173380602Y-99948390D01*
X173505383Y-99819034D01*
X173616929Y-99702891D01*
X173702148Y-99613555D01*
X173702841Y-99612824D01*
X173778325Y-99533203D01*
X173882959Y-99422839D01*
X174007168Y-99291829D01*
X174141383Y-99150267D01*
X174276030Y-99008249D01*
X174494063Y-98778644D01*
X174692216Y-98570941D01*
X174857478Y-98399050D01*
X174992718Y-98260126D01*
X175100809Y-98151326D01*
X175184621Y-98069806D01*
X175247024Y-98012721D01*
X175290891Y-97977226D01*
X175319091Y-97960478D01*
X175334496Y-97959633D01*
X175346453Y-97978381D01*
G37*
G36*
X174223528Y-100712061D02*
G01*
X174283982Y-100759440D01*
X174356843Y-100830915D01*
X174419483Y-100897587D01*
X174519118Y-101002833D01*
X174631539Y-101120966D01*
X174742333Y-101236810D01*
X174826848Y-101325211D01*
X174953387Y-101458377D01*
X175075959Y-101588161D01*
X175176945Y-101695951D01*
X175367445Y-101900613D01*
X175367445Y-102135269D01*
X175367214Y-102172154D01*
X175363842Y-102276555D01*
X175357287Y-102353596D01*
X175348630Y-102388740D01*
X175346625Y-102390646D01*
X175310500Y-102407555D01*
X175298708Y-102399020D01*
X175251675Y-102354903D01*
X175173659Y-102277418D01*
X175069260Y-102171310D01*
X174943073Y-102041323D01*
X174799697Y-101892201D01*
X174643728Y-101728691D01*
X174479765Y-101555535D01*
X174312403Y-101377479D01*
X174153889Y-101208182D01*
X174153889Y-100962867D01*
X174154006Y-100938530D01*
X174158670Y-100819126D01*
X174169288Y-100735739D01*
X174184677Y-100698525D01*
X174186957Y-100697603D01*
X174223528Y-100712061D01*
G37*
G36*
X174235831Y-102042001D02*
G01*
X174304935Y-102101123D01*
X174404092Y-102194636D01*
X174529647Y-102319008D01*
X174677946Y-102470707D01*
X174845334Y-102646200D01*
X174881392Y-102684218D01*
X174956829Y-102763317D01*
X175050086Y-102860786D01*
X175148723Y-102963610D01*
X175367445Y-103191295D01*
X175367445Y-103429721D01*
X175367178Y-103469978D01*
X175363758Y-103574743D01*
X175357225Y-103651871D01*
X175348630Y-103686962D01*
X175344204Y-103691290D01*
X175330433Y-103699831D01*
X175311860Y-103696022D01*
X175281581Y-103674235D01*
X175232691Y-103628842D01*
X175158285Y-103554213D01*
X175051460Y-103444722D01*
X175024476Y-103417009D01*
X174901137Y-103290628D01*
X174757922Y-103144223D01*
X174610493Y-102993792D01*
X174474509Y-102855334D01*
X174151596Y-102527002D01*
X174159798Y-102279056D01*
X174161197Y-102244185D01*
X174169902Y-102130818D01*
X174182879Y-102052930D01*
X174198556Y-102020999D01*
X174200435Y-102020804D01*
X174235831Y-102042001D01*
G37*
G36*
X178871449Y-96178303D02*
G01*
X178732082Y-96654574D01*
X178712582Y-96753698D01*
X178637863Y-97133509D01*
X178590158Y-97608192D01*
X178590200Y-97721369D01*
X178590329Y-98071708D01*
X178600335Y-98161909D01*
X178639743Y-98517139D01*
X178656232Y-98609949D01*
X178691036Y-98781613D01*
X178730844Y-98940267D01*
X178779758Y-99098584D01*
X178841882Y-99269235D01*
X178921318Y-99464890D01*
X178924632Y-99472557D01*
X179022168Y-99698222D01*
X179109036Y-99898622D01*
X179148424Y-99994782D01*
X179237149Y-100211394D01*
X179340006Y-100490786D01*
X179420137Y-100746224D01*
X179429226Y-100782757D01*
X179480073Y-100987134D01*
X179522342Y-101222942D01*
X179549475Y-101463075D01*
X179564002Y-101716958D01*
X179568784Y-101874964D01*
X179570506Y-102015993D01*
X179567426Y-102122528D01*
X179567337Y-102125617D01*
X179558414Y-102217196D01*
X179542872Y-102304093D01*
X179519848Y-102399668D01*
X179510792Y-102435825D01*
X179487854Y-102542432D01*
X179475350Y-102625951D01*
X179475812Y-102670789D01*
X179476650Y-102695193D01*
X179451370Y-102732611D01*
X179392030Y-102779159D01*
X179294051Y-102837810D01*
X179152852Y-102911541D01*
X178963853Y-103003326D01*
X178830554Y-103065738D01*
X178438978Y-103237166D01*
X178073253Y-103377103D01*
X177720694Y-103489734D01*
X177368616Y-103579244D01*
X177004334Y-103649819D01*
X176924951Y-103662302D01*
X176778668Y-103682001D01*
X176645137Y-103696225D01*
X176545723Y-103702519D01*
X176383445Y-103705777D01*
X176383445Y-103584396D01*
X176383445Y-103463015D01*
X176809207Y-103427983D01*
X176944989Y-103416298D01*
X177158054Y-103394912D01*
X177320848Y-103373596D01*
X177437389Y-103351671D01*
X177511696Y-103328458D01*
X177547785Y-103303280D01*
X177551654Y-103291519D01*
X177558131Y-103229875D01*
X177561752Y-103127678D01*
X177562243Y-102995772D01*
X177559333Y-102844999D01*
X177557204Y-102783231D01*
X177549547Y-102639664D01*
X177537241Y-102500063D01*
X177518887Y-102358017D01*
X177493086Y-102207112D01*
X177458437Y-102040935D01*
X177413541Y-101853076D01*
X177392954Y-101774446D01*
X177824586Y-101774446D01*
X177858188Y-101817119D01*
X177931996Y-101833053D01*
X178040531Y-101816640D01*
X178101908Y-101800534D01*
X178198371Y-101784907D01*
X178261926Y-101797886D01*
X178305656Y-101844344D01*
X178342643Y-101929152D01*
X178361989Y-101986060D01*
X178380573Y-102051618D01*
X178383496Y-102080979D01*
X178363674Y-102092748D01*
X178305311Y-102123736D01*
X178223856Y-102165298D01*
X178173372Y-102193479D01*
X178079850Y-102269041D01*
X178031064Y-102349180D01*
X178032407Y-102426533D01*
X178062785Y-102451054D01*
X178134429Y-102460779D01*
X178231013Y-102450747D01*
X178337653Y-102421217D01*
X178383947Y-102405914D01*
X178484391Y-102376439D01*
X178610971Y-102341899D01*
X178746876Y-102306987D01*
X178833579Y-102285083D01*
X178959322Y-102250386D01*
X179042584Y-102220900D01*
X179091717Y-102192507D01*
X179115072Y-102161089D01*
X179121001Y-102122528D01*
X179110932Y-102081295D01*
X179054182Y-102027660D01*
X178952742Y-101993118D01*
X178812707Y-101980478D01*
X178784719Y-101980317D01*
X178700487Y-101977236D01*
X178652206Y-101964399D01*
X178623412Y-101933969D01*
X178597644Y-101878111D01*
X178590245Y-101859669D01*
X178568290Y-101791452D01*
X178563760Y-101750942D01*
X178566056Y-101747298D01*
X178603265Y-101718236D01*
X178675195Y-101673766D01*
X178769041Y-101621935D01*
X178782768Y-101614643D01*
X178900970Y-101541463D01*
X178965390Y-101476817D01*
X178977484Y-101418496D01*
X178938708Y-101364288D01*
X178932174Y-101359270D01*
X178891722Y-101343490D01*
X178828227Y-101344156D01*
X178726143Y-101361031D01*
X178606568Y-101387764D01*
X178454410Y-101428519D01*
X178299198Y-101475879D01*
X178152514Y-101525864D01*
X178025941Y-101574499D01*
X177931062Y-101617804D01*
X177879459Y-101651803D01*
X177836669Y-101710640D01*
X177824586Y-101774446D01*
X177392954Y-101774446D01*
X177356998Y-101637120D01*
X177287410Y-101386657D01*
X177203375Y-101095272D01*
X177138698Y-100875938D01*
X177583129Y-100875938D01*
X177605825Y-100932696D01*
X177618435Y-100944330D01*
X177651333Y-100959905D01*
X177699987Y-100955068D01*
X177782699Y-100929486D01*
X177831355Y-100913943D01*
X177897711Y-100897009D01*
X177928715Y-100895417D01*
X177931199Y-100899620D01*
X177942980Y-100943824D01*
X177955081Y-101016470D01*
X177960226Y-101088479D01*
X177944162Y-101129973D01*
X177897756Y-101158627D01*
X177842425Y-101194777D01*
X177786548Y-101254229D01*
X177752093Y-101315747D01*
X177751456Y-101362092D01*
X177766024Y-101375948D01*
X177817388Y-101389596D01*
X177843435Y-101381587D01*
X177913870Y-101350113D01*
X178015922Y-101299772D01*
X178139693Y-101235909D01*
X178275281Y-101163865D01*
X178412788Y-101088983D01*
X178542314Y-101016606D01*
X178653958Y-100952077D01*
X178737822Y-100900737D01*
X178784005Y-100867931D01*
X178795943Y-100856089D01*
X178834384Y-100782757D01*
X178827254Y-100708664D01*
X178775278Y-100651795D01*
X178761741Y-100645321D01*
X178674975Y-100625756D01*
X178548915Y-100617462D01*
X178396251Y-100619368D01*
X178229672Y-100630403D01*
X178061867Y-100649496D01*
X177905526Y-100675576D01*
X177773337Y-100707571D01*
X177677990Y-100744412D01*
X177663776Y-100752714D01*
X177604559Y-100810432D01*
X177583129Y-100875938D01*
X177138698Y-100875938D01*
X177103495Y-100756555D01*
X177056574Y-100597313D01*
X176972490Y-100302505D01*
X176930218Y-100143925D01*
X177371925Y-100143925D01*
X177390034Y-100240117D01*
X177441750Y-100329250D01*
X177522405Y-100394874D01*
X177533664Y-100400260D01*
X177634798Y-100429639D01*
X177765332Y-100446510D01*
X177902599Y-100449041D01*
X178023928Y-100435400D01*
X178089184Y-100417706D01*
X178209981Y-100370849D01*
X178330708Y-100310381D01*
X178433236Y-100245789D01*
X178499436Y-100186559D01*
X178541415Y-100102738D01*
X178557707Y-99994782D01*
X178543953Y-99890176D01*
X178500112Y-99811110D01*
X178466021Y-99783631D01*
X178398281Y-99757548D01*
X178336694Y-99760727D01*
X178293698Y-99787785D01*
X178281735Y-99833336D01*
X178313244Y-99891995D01*
X178341073Y-99932138D01*
X178359001Y-99987800D01*
X178337437Y-100037101D01*
X178271329Y-100093545D01*
X178172740Y-100146976D01*
X178053964Y-100191919D01*
X177927300Y-100222900D01*
X177805042Y-100234444D01*
X177765775Y-100233342D01*
X177659510Y-100211123D01*
X177594604Y-100156724D01*
X177564296Y-100065399D01*
X177563510Y-100060299D01*
X177533148Y-100001382D01*
X177479390Y-99987675D01*
X177416982Y-100023383D01*
X177392092Y-100057125D01*
X177371925Y-100143925D01*
X176930218Y-100143925D01*
X176903753Y-100044641D01*
X176847992Y-99812769D01*
X176802836Y-99595937D01*
X176765915Y-99383191D01*
X176736567Y-99175674D01*
X177127554Y-99175674D01*
X177156868Y-99232414D01*
X177204491Y-99280526D01*
X177264341Y-99303110D01*
X177283907Y-99303563D01*
X177374687Y-99313424D01*
X177472875Y-99332984D01*
X177562628Y-99357996D01*
X177628100Y-99384214D01*
X177653445Y-99407390D01*
X177645644Y-99423628D01*
X177599703Y-99462441D01*
X177526269Y-99503712D01*
X177502067Y-99515789D01*
X177406793Y-99577341D01*
X177330419Y-99647653D01*
X177283513Y-99715471D01*
X177276644Y-99769541D01*
X177286888Y-99788207D01*
X177318745Y-99805261D01*
X177374438Y-99798494D01*
X177462210Y-99766260D01*
X177590306Y-99706912D01*
X177694448Y-99660365D01*
X177851080Y-99610771D01*
X178027750Y-99582297D01*
X178116292Y-99572551D01*
X178237552Y-99557078D01*
X178316378Y-99542057D01*
X178361667Y-99524775D01*
X178382317Y-99502513D01*
X178387223Y-99472557D01*
X178373912Y-99418605D01*
X178313737Y-99367288D01*
X178207270Y-99342850D01*
X178056923Y-99346213D01*
X177865112Y-99365868D01*
X177966731Y-99256878D01*
X178015425Y-99202830D01*
X178091256Y-99109626D01*
X178142575Y-99033802D01*
X178161445Y-98986386D01*
X178155852Y-98969787D01*
X178116558Y-98960833D01*
X178049130Y-98979943D01*
X177964789Y-99023192D01*
X177874754Y-99086657D01*
X177724001Y-99208871D01*
X177601138Y-99154873D01*
X177534070Y-99128916D01*
X177411107Y-99096461D01*
X177296079Y-99082695D01*
X177203606Y-99088863D01*
X177148308Y-99116216D01*
X177134463Y-99135193D01*
X177127554Y-99175674D01*
X176736567Y-99175674D01*
X176734857Y-99163580D01*
X176707292Y-98926152D01*
X176702461Y-98879791D01*
X176672615Y-98503941D01*
X176665549Y-98169001D01*
X176668810Y-98111334D01*
X177089191Y-98111334D01*
X177106635Y-98226407D01*
X177176570Y-98324716D01*
X177297351Y-98402434D01*
X177332729Y-98416420D01*
X177473938Y-98447506D01*
X177635144Y-98455773D01*
X177792493Y-98441174D01*
X177922131Y-98403661D01*
X178009082Y-98346990D01*
X178079006Y-98258978D01*
X178105001Y-98161909D01*
X178103478Y-98148318D01*
X178071344Y-98086178D01*
X178013165Y-98029279D01*
X177949778Y-97999431D01*
X177941708Y-97998365D01*
X177910491Y-98004005D01*
X177896537Y-98038895D01*
X177893334Y-98116552D01*
X177888887Y-98194628D01*
X177868318Y-98245817D01*
X177822778Y-98280097D01*
X177798247Y-98290507D01*
X177697875Y-98306001D01*
X177577207Y-98298608D01*
X177458578Y-98270976D01*
X177364321Y-98225751D01*
X177348631Y-98214365D01*
X177304359Y-98172621D01*
X177290043Y-98123939D01*
X177296704Y-98044210D01*
X177299971Y-98014169D01*
X177299431Y-97942152D01*
X177285595Y-97905517D01*
X177231903Y-97897723D01*
X177169553Y-97929436D01*
X177121506Y-97992647D01*
X177089191Y-98111334D01*
X176668810Y-98111334D01*
X176682757Y-97864716D01*
X176724180Y-97591067D01*
X177235665Y-97591067D01*
X177244223Y-97708555D01*
X177413556Y-97727186D01*
X177518998Y-97739577D01*
X177660009Y-97757477D01*
X177794556Y-97775704D01*
X177862261Y-97785260D01*
X177961598Y-97798427D01*
X178024279Y-97803438D01*
X178063143Y-97799893D01*
X178091028Y-97787392D01*
X178120773Y-97765536D01*
X178139861Y-97750218D01*
X178158605Y-97721369D01*
X178133223Y-97694973D01*
X178116689Y-97684827D01*
X178012106Y-97645246D01*
X177855478Y-97614470D01*
X177644891Y-97592094D01*
X177595848Y-97587868D01*
X177491344Y-97575470D01*
X177415620Y-97561651D01*
X177382464Y-97548690D01*
X177379157Y-97524709D01*
X177384567Y-97457505D01*
X177399887Y-97367760D01*
X177411992Y-97301800D01*
X177419177Y-97201177D01*
X177401724Y-97149958D01*
X177359446Y-97147120D01*
X177352239Y-97151141D01*
X177317588Y-97199174D01*
X177284041Y-97283556D01*
X177256161Y-97387914D01*
X177238514Y-97495875D01*
X177235665Y-97591067D01*
X176724180Y-97591067D01*
X176725730Y-97580828D01*
X176795963Y-97307083D01*
X176894947Y-97033225D01*
X176992002Y-96819760D01*
X177455889Y-96819760D01*
X177459490Y-96872896D01*
X177492645Y-96968763D01*
X177565162Y-97047198D01*
X177682721Y-97113264D01*
X177851001Y-97172025D01*
X177930212Y-97194438D01*
X178060195Y-97226596D01*
X178148941Y-97239697D01*
X178204188Y-97234548D01*
X178233674Y-97211958D01*
X178237398Y-97173527D01*
X178191286Y-97129760D01*
X178090463Y-97085949D01*
X177934066Y-97041604D01*
X177924407Y-97039254D01*
X177783519Y-97002960D01*
X177688967Y-96972610D01*
X177632119Y-96943922D01*
X177604341Y-96912613D01*
X177597001Y-96874401D01*
X177606558Y-96829630D01*
X177645081Y-96794355D01*
X177717752Y-96777598D01*
X177829473Y-96779033D01*
X177985144Y-96798338D01*
X178189667Y-96835187D01*
X178190320Y-96835315D01*
X178267429Y-96835403D01*
X178312583Y-96805758D01*
X178314565Y-96753698D01*
X178312754Y-96749748D01*
X178267017Y-96711193D01*
X178179251Y-96674481D01*
X178062486Y-96643182D01*
X177929752Y-96620864D01*
X177794077Y-96611098D01*
X177753416Y-96610951D01*
X177615195Y-96623732D01*
X177523113Y-96660586D01*
X177471801Y-96724825D01*
X177455889Y-96819760D01*
X176992002Y-96819760D01*
X177024175Y-96748999D01*
X177087799Y-96624539D01*
X177277130Y-96290067D01*
X177685497Y-96290067D01*
X177685667Y-96324962D01*
X177685932Y-96325191D01*
X177718221Y-96338214D01*
X177793263Y-96363604D01*
X177900179Y-96397796D01*
X178028091Y-96437222D01*
X178035331Y-96439416D01*
X178161670Y-96477485D01*
X178265946Y-96508516D01*
X178337516Y-96529369D01*
X178365738Y-96536900D01*
X178371026Y-96536030D01*
X178414027Y-96503001D01*
X178462662Y-96434394D01*
X178508288Y-96346513D01*
X178542261Y-96255663D01*
X178555936Y-96178150D01*
X178545946Y-96131455D01*
X178495243Y-96073320D01*
X178416222Y-96042051D01*
X178325342Y-96047008D01*
X178268888Y-96058122D01*
X178217848Y-96044639D01*
X178159068Y-95994392D01*
X178129796Y-95968514D01*
X178031195Y-95921195D01*
X177930833Y-95925247D01*
X177840176Y-95981147D01*
X177826524Y-95996704D01*
X177784858Y-96060075D01*
X177742516Y-96141105D01*
X177706922Y-96223275D01*
X177685497Y-96290067D01*
X177277130Y-96290067D01*
X177286359Y-96273763D01*
X177518976Y-95907725D01*
X177776928Y-95539104D01*
X178051497Y-95180575D01*
X178333964Y-94844814D01*
X178570667Y-94577518D01*
X178578458Y-95007092D01*
X178580212Y-95088429D01*
X178584601Y-95226257D01*
X178589984Y-95336695D01*
X178595839Y-95410059D01*
X178601641Y-95436666D01*
X178608344Y-95434459D01*
X178655927Y-95412876D01*
X178740535Y-95371956D01*
X178852871Y-95316236D01*
X178983639Y-95250251D01*
X179041206Y-95221222D01*
X179164711Y-95160721D01*
X179265688Y-95113712D01*
X179334958Y-95084386D01*
X179363342Y-95076933D01*
X179363424Y-95077021D01*
X179356995Y-95106700D01*
X179328145Y-95171053D01*
X179283046Y-95256293D01*
X179280172Y-95261416D01*
X179054600Y-95711612D01*
X178871509Y-96178150D01*
X178871449Y-96178303D01*
G37*
G36*
X174214789Y-102963530D02*
G01*
X174276455Y-103009723D01*
X174365182Y-103090464D01*
X174475866Y-103201409D01*
X174500841Y-103227350D01*
X174624654Y-103355967D01*
X174767992Y-103504884D01*
X174915031Y-103657660D01*
X175049945Y-103797854D01*
X175367445Y-104127803D01*
X175367445Y-104337815D01*
X175367424Y-104348437D01*
X175364847Y-104456038D01*
X175358810Y-104543211D01*
X175350513Y-104591952D01*
X175341649Y-104608750D01*
X175323808Y-104618550D01*
X175295143Y-104609809D01*
X175251097Y-104578688D01*
X175187109Y-104521349D01*
X175098620Y-104433952D01*
X174981071Y-104312658D01*
X174829902Y-104153630D01*
X174812448Y-104135183D01*
X174680544Y-103995965D01*
X174553726Y-103862420D01*
X174440410Y-103743392D01*
X174349011Y-103647722D01*
X174287945Y-103584251D01*
X174153889Y-103446059D01*
X174153889Y-103210695D01*
X174157615Y-103084171D01*
X174168800Y-102994934D01*
X174186588Y-102955121D01*
X174214789Y-102963530D01*
G37*
G36*
X129067096Y-89439295D02*
G01*
X129207691Y-89461534D01*
X129395216Y-89499415D01*
X129633334Y-89552904D01*
X129741091Y-89577735D01*
X129856700Y-89604144D01*
X129943778Y-89623790D01*
X130021502Y-89641309D01*
X130135635Y-89667351D01*
X130254223Y-89694657D01*
X130362045Y-89719254D01*
X130477617Y-89744933D01*
X130564667Y-89763547D01*
X130658987Y-89783368D01*
X130801764Y-89814239D01*
X130956827Y-89848406D01*
X131101668Y-89880905D01*
X131213778Y-89906768D01*
X131269346Y-89919169D01*
X131381181Y-89942008D01*
X131496001Y-89963557D01*
X131572878Y-89978559D01*
X131663875Y-89999929D01*
X131721778Y-90017998D01*
X131723690Y-90018810D01*
X131792352Y-90040807D01*
X131877001Y-90059862D01*
X131885305Y-90061336D01*
X131967573Y-90076150D01*
X132080267Y-90096655D01*
X132201556Y-90118881D01*
X132250662Y-90127855D01*
X132352553Y-90145944D01*
X132454891Y-90163141D01*
X132568768Y-90181178D01*
X132705276Y-90201785D01*
X132875508Y-90226694D01*
X133090556Y-90257636D01*
X133198286Y-90273105D01*
X133349398Y-90294916D01*
X133484815Y-90314584D01*
X133584445Y-90329196D01*
X133688606Y-90344287D01*
X133829748Y-90364160D01*
X133964337Y-90382609D01*
X133985310Y-90385476D01*
X134158585Y-90412672D01*
X134311481Y-90442687D01*
X134432049Y-90472923D01*
X134508340Y-90500787D01*
X134544878Y-90514454D01*
X134619377Y-90525999D01*
X134663874Y-90530476D01*
X134751177Y-90546496D01*
X134852594Y-90570142D01*
X134920346Y-90587596D01*
X135053963Y-90621776D01*
X135155826Y-90647224D01*
X135242145Y-90667857D01*
X135329133Y-90687591D01*
X135433001Y-90710341D01*
X135443707Y-90712675D01*
X135556138Y-90738247D01*
X135653309Y-90762056D01*
X135715223Y-90779221D01*
X135728457Y-90783187D01*
X135801692Y-90801719D01*
X135906782Y-90825535D01*
X136025667Y-90850490D01*
X136064520Y-90858474D01*
X136177638Y-90883424D01*
X136269097Y-90906017D01*
X136322001Y-90922166D01*
X136381226Y-90941425D01*
X136463112Y-90960077D01*
X136529158Y-90972924D01*
X136639847Y-90996556D01*
X136773396Y-91026377D01*
X136912953Y-91058614D01*
X137041667Y-91089500D01*
X137082369Y-91099702D01*
X137228267Y-91140635D01*
X137324069Y-91175869D01*
X137366869Y-91204378D01*
X137384762Y-91219100D01*
X137438444Y-91231555D01*
X137469660Y-91236620D01*
X137493223Y-91259777D01*
X137494402Y-91267593D01*
X137523253Y-91287999D01*
X137554942Y-91296214D01*
X137624825Y-91322840D01*
X137713753Y-91361505D01*
X137730130Y-91368991D01*
X137844815Y-91419911D01*
X137946437Y-91460897D01*
X138048637Y-91496347D01*
X138165055Y-91530660D01*
X138309333Y-91568236D01*
X138495112Y-91613473D01*
X138603519Y-91639899D01*
X138706516Y-91665860D01*
X138777334Y-91684657D01*
X138835972Y-91700391D01*
X138935806Y-91725889D01*
X139045445Y-91752936D01*
X139137489Y-91775504D01*
X139246790Y-91802966D01*
X139327667Y-91824022D01*
X139377901Y-91837282D01*
X139484207Y-91864639D01*
X139616783Y-91898282D01*
X139758917Y-91933999D01*
X139893894Y-91967576D01*
X140005001Y-91994797D01*
X140060782Y-92008365D01*
X140189089Y-92039876D01*
X140332087Y-92075258D01*
X140466598Y-92108769D01*
X140569445Y-92134666D01*
X140632892Y-92150677D01*
X140738919Y-92177200D01*
X140851667Y-92205222D01*
X140943915Y-92228192D01*
X141053101Y-92255671D01*
X141133889Y-92276326D01*
X141139147Y-92277692D01*
X141308559Y-92320003D01*
X141481172Y-92359397D01*
X141670153Y-92398611D01*
X141888670Y-92440381D01*
X142149889Y-92487444D01*
X142204516Y-92497113D01*
X142338830Y-92521133D01*
X142459282Y-92542981D01*
X142545001Y-92558884D01*
X142567254Y-92563072D01*
X142667473Y-92581471D01*
X142794403Y-92604322D01*
X142926001Y-92627647D01*
X142962141Y-92634010D01*
X143099733Y-92658443D01*
X143229747Y-92681809D01*
X143328167Y-92699799D01*
X143371588Y-92707771D01*
X143503362Y-92731262D01*
X143626898Y-92752488D01*
X143685928Y-92762575D01*
X143846801Y-92792330D01*
X143988988Y-92821802D01*
X144100108Y-92848321D01*
X144167778Y-92869214D01*
X144215204Y-92885873D01*
X144294778Y-92907022D01*
X144332531Y-92915574D01*
X144420574Y-92937453D01*
X144520556Y-92963835D01*
X144563571Y-92975474D01*
X144679737Y-93006649D01*
X144818353Y-93043615D01*
X144958001Y-93080654D01*
X145035029Y-93101075D01*
X145162070Y-93134984D01*
X145269168Y-93163841D01*
X145339001Y-93182995D01*
X145382453Y-93194896D01*
X145485087Y-93221953D01*
X145593001Y-93249444D01*
X145650533Y-93264002D01*
X145765884Y-93294101D01*
X145861112Y-93319999D01*
X145907063Y-93332674D01*
X146017302Y-93361941D01*
X146129223Y-93390555D01*
X146186757Y-93405112D01*
X146302107Y-93435202D01*
X146397334Y-93461085D01*
X146418007Y-93466802D01*
X146527896Y-93495163D01*
X146637223Y-93520981D01*
X146743670Y-93548184D01*
X146831273Y-93584194D01*
X146877778Y-93627851D01*
X146891655Y-93684602D01*
X146891704Y-93689496D01*
X146900218Y-93756306D01*
X146930950Y-93802347D01*
X146995079Y-93837472D01*
X147103785Y-93871532D01*
X147180447Y-93892564D01*
X147282745Y-93920860D01*
X147356889Y-93941638D01*
X147378051Y-93947568D01*
X147469547Y-93972276D01*
X147568556Y-93998046D01*
X147602142Y-94006861D01*
X147690099Y-94032182D01*
X147752001Y-94053069D01*
X147800841Y-94069676D01*
X147888594Y-94095855D01*
X147991889Y-94124333D01*
X148085655Y-94150124D01*
X148175787Y-94176891D01*
X148231778Y-94195879D01*
X148279232Y-94212455D01*
X148358778Y-94233664D01*
X148386306Y-94239545D01*
X148511867Y-94268928D01*
X148621865Y-94298499D01*
X148703044Y-94324475D01*
X148742149Y-94343074D01*
X148767735Y-94355754D01*
X148827483Y-94364222D01*
X148869646Y-94369305D01*
X148906821Y-94388737D01*
X148914548Y-94395540D01*
X148965134Y-94415412D01*
X149042542Y-94432441D01*
X149104331Y-94444513D01*
X149218209Y-94472492D01*
X149332445Y-94505717D01*
X149402564Y-94527608D01*
X149542832Y-94569539D01*
X149671112Y-94605947D01*
X149750083Y-94628176D01*
X149839805Y-94655219D01*
X149896889Y-94674616D01*
X149954895Y-94693030D01*
X150051418Y-94719018D01*
X150169733Y-94748422D01*
X150293129Y-94777087D01*
X150404889Y-94800861D01*
X150406016Y-94801085D01*
X150515333Y-94823141D01*
X150653791Y-94851521D01*
X150800272Y-94881854D01*
X150933659Y-94909767D01*
X151032834Y-94930886D01*
X151046030Y-94933744D01*
X151161146Y-94958525D01*
X151272723Y-94982354D01*
X151273463Y-94982511D01*
X151362955Y-95001786D01*
X151481747Y-95027718D01*
X151604334Y-95054739D01*
X151729984Y-95082457D01*
X151843705Y-95107139D01*
X151959339Y-95131684D01*
X152094688Y-95159870D01*
X152267556Y-95195474D01*
X152280309Y-95198096D01*
X152407732Y-95224553D01*
X152529320Y-95250193D01*
X152620334Y-95269803D01*
X152678793Y-95282095D01*
X152797973Y-95305341D01*
X152916667Y-95326783D01*
X152983209Y-95339679D01*
X153119659Y-95372143D01*
X153241223Y-95407562D01*
X153307173Y-95429000D01*
X153440503Y-95470376D01*
X153565778Y-95507262D01*
X153645071Y-95530258D01*
X153734597Y-95557586D01*
X153791556Y-95576647D01*
X153833193Y-95590933D01*
X153917627Y-95617483D01*
X154017334Y-95647192D01*
X154096866Y-95671402D01*
X154183081Y-95700465D01*
X154235673Y-95721701D01*
X154266163Y-95734530D01*
X154326409Y-95747110D01*
X154346471Y-95749442D01*
X154416723Y-95765991D01*
X154511008Y-95793538D01*
X154610073Y-95826267D01*
X154694667Y-95858362D01*
X154710587Y-95864705D01*
X154748051Y-95877909D01*
X154804827Y-95896053D01*
X154887911Y-95921243D01*
X155004296Y-95955585D01*
X155160976Y-96001184D01*
X155364945Y-96060146D01*
X155375862Y-96063312D01*
X155481392Y-96095518D01*
X155568250Y-96124674D01*
X155618562Y-96144813D01*
X155649108Y-96157878D01*
X155707158Y-96170444D01*
X155753550Y-96186260D01*
X155813374Y-96226315D01*
X155844604Y-96254479D01*
X155860955Y-96285268D01*
X155837667Y-96310549D01*
X155823017Y-96317714D01*
X155755606Y-96333644D01*
X155668334Y-96340971D01*
X155647510Y-96341523D01*
X155533333Y-96349446D01*
X155428991Y-96362960D01*
X155316648Y-96382890D01*
X155443102Y-96422862D01*
X155480994Y-96435312D01*
X155555385Y-96462737D01*
X155597778Y-96482713D01*
X155600532Y-96484480D01*
X155650062Y-96504066D01*
X155723852Y-96523551D01*
X155729393Y-96524760D01*
X155808272Y-96546052D01*
X155864963Y-96567914D01*
X155873526Y-96572037D01*
X155932236Y-96595138D01*
X156024339Y-96627809D01*
X156134001Y-96664370D01*
X156164909Y-96674423D01*
X156274263Y-96710800D01*
X156363677Y-96741730D01*
X156416223Y-96761393D01*
X156443405Y-96772212D01*
X156521227Y-96800782D01*
X156613778Y-96832873D01*
X156664447Y-96850224D01*
X156752109Y-96881541D01*
X156811334Y-96904385D01*
X156814964Y-96905879D01*
X156868742Y-96925659D01*
X156962348Y-96958278D01*
X157083661Y-96999561D01*
X157220556Y-97045333D01*
X157240036Y-97051798D01*
X157375489Y-97097160D01*
X157493678Y-97137409D01*
X157582482Y-97168382D01*
X157629778Y-97185913D01*
X157664766Y-97200263D01*
X157748875Y-97231123D01*
X157842449Y-97258757D01*
X157968445Y-97290236D01*
X158042753Y-97308088D01*
X158158479Y-97336261D01*
X158250667Y-97359118D01*
X158299579Y-97371029D01*
X158410469Y-97396514D01*
X158523570Y-97421074D01*
X158592768Y-97437113D01*
X158667311Y-97458796D01*
X158704662Y-97475722D01*
X158704914Y-97475968D01*
X158746227Y-97490752D01*
X158815112Y-97496888D01*
X158816155Y-97496890D01*
X158884845Y-97503187D01*
X158925561Y-97518055D01*
X158949320Y-97530067D01*
X159016246Y-97551075D01*
X159106654Y-97572703D01*
X159168926Y-97586043D01*
X159284946Y-97612132D01*
X159379556Y-97634823D01*
X159412728Y-97643010D01*
X159522769Y-97668454D01*
X159633556Y-97692248D01*
X159674106Y-97700780D01*
X159786104Y-97726260D01*
X159880501Y-97750072D01*
X159967472Y-97773674D01*
X160147350Y-97820890D01*
X160348802Y-97871641D01*
X160583027Y-97928725D01*
X160861223Y-97994935D01*
X160952787Y-98016611D01*
X161065329Y-98043418D01*
X161150501Y-98063886D01*
X161151708Y-98064179D01*
X161257126Y-98089278D01*
X161362167Y-98113648D01*
X161362752Y-98113782D01*
X161443937Y-98137208D01*
X161562149Y-98177239D01*
X161702696Y-98228279D01*
X161850882Y-98284730D01*
X161992014Y-98340998D01*
X162111398Y-98391484D01*
X162194340Y-98430594D01*
X162224744Y-98444154D01*
X162274741Y-98456444D01*
X162277000Y-98456528D01*
X162325687Y-98468773D01*
X162395069Y-98495468D01*
X162486838Y-98533513D01*
X162582778Y-98570257D01*
X162610864Y-98580535D01*
X162737119Y-98629163D01*
X162849459Y-98675977D01*
X162928118Y-98712816D01*
X162958522Y-98726376D01*
X163008519Y-98738666D01*
X163010842Y-98738756D01*
X163059535Y-98751166D01*
X163128847Y-98778156D01*
X163212584Y-98814342D01*
X163302445Y-98851565D01*
X163388046Y-98886072D01*
X163536789Y-98947809D01*
X163642056Y-98994970D01*
X163710367Y-99030818D01*
X163748244Y-99058617D01*
X163762208Y-99081628D01*
X163764158Y-99095974D01*
X163760661Y-99115731D01*
X163744017Y-99129900D01*
X163708860Y-99138383D01*
X163649822Y-99141085D01*
X163561535Y-99137908D01*
X163438632Y-99128758D01*
X163275746Y-99113536D01*
X163067510Y-99092148D01*
X162808556Y-99064495D01*
X162665437Y-99049205D01*
X162445294Y-99026410D01*
X162275242Y-99009995D01*
X162151447Y-98999655D01*
X162070072Y-98995088D01*
X162027281Y-98995990D01*
X162019240Y-99002057D01*
X162023321Y-99004959D01*
X162066499Y-99029382D01*
X162149951Y-99074041D01*
X162266064Y-99134935D01*
X162407226Y-99208062D01*
X162565827Y-99289419D01*
X162584407Y-99298907D01*
X162758956Y-99388191D01*
X162929636Y-99475729D01*
X163084840Y-99555552D01*
X163212962Y-99621692D01*
X163302395Y-99668181D01*
X163307532Y-99670859D01*
X163432407Y-99730694D01*
X163563420Y-99785558D01*
X163673030Y-99823883D01*
X163748721Y-99847105D01*
X163834813Y-99876442D01*
X163887673Y-99898122D01*
X163918338Y-99911249D01*
X163978409Y-99923999D01*
X163992860Y-99925241D01*
X164057786Y-99938724D01*
X164141070Y-99962264D01*
X164146434Y-99963959D01*
X164215284Y-99985347D01*
X164288165Y-100007050D01*
X164377690Y-100032685D01*
X164496469Y-100065868D01*
X164657112Y-100110213D01*
X164736202Y-100132544D01*
X164825851Y-100159267D01*
X164882889Y-100177999D01*
X164924250Y-100191832D01*
X165008771Y-100217401D01*
X165108667Y-100245786D01*
X165122477Y-100249587D01*
X165279536Y-100292968D01*
X165395677Y-100325457D01*
X165483513Y-100350671D01*
X165555653Y-100372225D01*
X165624709Y-100393735D01*
X165655069Y-100402850D01*
X165739752Y-100423681D01*
X165799432Y-100431999D01*
X165830792Y-100436368D01*
X165870667Y-100460222D01*
X165896440Y-100477842D01*
X165955672Y-100488444D01*
X166006618Y-100493232D01*
X166088062Y-100514396D01*
X166090062Y-100515190D01*
X166163813Y-100540775D01*
X166276886Y-100575850D01*
X166414559Y-100615992D01*
X166562112Y-100656781D01*
X166639908Y-100677723D01*
X166790165Y-100718657D01*
X166897739Y-100748974D01*
X166971050Y-100771176D01*
X167018517Y-100787762D01*
X167048562Y-100801233D01*
X167079227Y-100814360D01*
X167139298Y-100827110D01*
X167153749Y-100828352D01*
X167218675Y-100841835D01*
X167301959Y-100865375D01*
X167320673Y-100871246D01*
X167431876Y-100904841D01*
X167535778Y-100934586D01*
X167720640Y-100986534D01*
X167869607Y-101031394D01*
X167968781Y-101065245D01*
X168015556Y-101087258D01*
X168042852Y-101108208D01*
X168116332Y-101161540D01*
X168215700Y-101231548D01*
X168331937Y-101312105D01*
X168456026Y-101397082D01*
X168578948Y-101480350D01*
X168691687Y-101555782D01*
X168785225Y-101617249D01*
X168850543Y-101658624D01*
X168878625Y-101673777D01*
X168883597Y-101674266D01*
X168904556Y-101700097D01*
X168913118Y-101717306D01*
X168956025Y-101742754D01*
X169000257Y-101763635D01*
X169063399Y-101808155D01*
X169108561Y-101844308D01*
X169174208Y-101888469D01*
X169207822Y-101915761D01*
X169238814Y-101969078D01*
X169240208Y-102014918D01*
X169211398Y-102048727D01*
X169142666Y-102056217D01*
X169028057Y-102039376D01*
X168962162Y-102026336D01*
X168833142Y-102002157D01*
X168721112Y-101982640D01*
X168698376Y-101978888D01*
X168591973Y-101960844D01*
X168460078Y-101937981D01*
X168326001Y-101914330D01*
X168285514Y-101907205D01*
X168153142Y-101884972D01*
X168032312Y-101866087D01*
X167945001Y-101854027D01*
X167913626Y-101849824D01*
X167824425Y-101833168D01*
X167761556Y-101814888D01*
X167744761Y-101808813D01*
X167669457Y-101790372D01*
X167578112Y-101775749D01*
X167555612Y-101772905D01*
X167455398Y-101758325D01*
X167328572Y-101738013D01*
X167197112Y-101715447D01*
X167161255Y-101709060D01*
X167052660Y-101689780D01*
X166953672Y-101672355D01*
X166851240Y-101654521D01*
X166732314Y-101634014D01*
X166583844Y-101608571D01*
X166392778Y-101575927D01*
X166338381Y-101566584D01*
X166203986Y-101543081D01*
X166083447Y-101521473D01*
X165997667Y-101505488D01*
X165868681Y-101481587D01*
X165701641Y-101454055D01*
X165552772Y-101433283D01*
X165431360Y-101420385D01*
X165346692Y-101416477D01*
X165308055Y-101422673D01*
X165297611Y-101453900D01*
X165286251Y-101531086D01*
X165276334Y-101641256D01*
X165269226Y-101772134D01*
X165268259Y-101797802D01*
X165264322Y-101930301D01*
X165264867Y-102017201D01*
X165270860Y-102067782D01*
X165283267Y-102091325D01*
X165303054Y-102097110D01*
X165332682Y-102100556D01*
X165398328Y-102122830D01*
X165423567Y-102134446D01*
X165497703Y-102163594D01*
X165588445Y-102195578D01*
X165639018Y-102212724D01*
X165726736Y-102243771D01*
X165786001Y-102266444D01*
X165813187Y-102277220D01*
X165891008Y-102305727D01*
X165983556Y-102337793D01*
X166034270Y-102355104D01*
X166121906Y-102386067D01*
X166181112Y-102408348D01*
X166208323Y-102418868D01*
X166286137Y-102446993D01*
X166378667Y-102478904D01*
X166420716Y-102493208D01*
X166586407Y-102553679D01*
X166704149Y-102604815D01*
X166760680Y-102625539D01*
X166837881Y-102646026D01*
X166841661Y-102646876D01*
X166907966Y-102668347D01*
X166944454Y-102691948D01*
X166969282Y-102708201D01*
X167027778Y-102717999D01*
X167073444Y-102724175D01*
X167112445Y-102746222D01*
X167124104Y-102758291D01*
X167173345Y-102774444D01*
X167175495Y-102774488D01*
X167232239Y-102786724D01*
X167305735Y-102814115D01*
X167339015Y-102828265D01*
X167434105Y-102865327D01*
X167535778Y-102901766D01*
X167586598Y-102919268D01*
X167674172Y-102950410D01*
X167733334Y-102972722D01*
X167739356Y-102975127D01*
X167799983Y-102997994D01*
X167893196Y-103032017D01*
X168001445Y-103070777D01*
X168020970Y-103077715D01*
X168127832Y-103116103D01*
X168216544Y-103148615D01*
X168269556Y-103168832D01*
X168296770Y-103179329D01*
X168374583Y-103207420D01*
X168467112Y-103239317D01*
X168517826Y-103256628D01*
X168605462Y-103287592D01*
X168664667Y-103309873D01*
X168691879Y-103320392D01*
X168769693Y-103348518D01*
X168862223Y-103380428D01*
X168912899Y-103397772D01*
X169000557Y-103429030D01*
X169059778Y-103451777D01*
X169086964Y-103462554D01*
X169164786Y-103491061D01*
X169257334Y-103523126D01*
X169308033Y-103540451D01*
X169395677Y-103571534D01*
X169454889Y-103594006D01*
X169463128Y-103597334D01*
X169525707Y-103621241D01*
X169620367Y-103656301D01*
X169730056Y-103696183D01*
X169736612Y-103698554D01*
X169859263Y-103748825D01*
X169928532Y-103793858D01*
X169946460Y-103838432D01*
X169915086Y-103887324D01*
X169836450Y-103945312D01*
X169800570Y-103967512D01*
X169740158Y-104002447D01*
X169709998Y-104016222D01*
X169683606Y-104028719D01*
X169622652Y-104064348D01*
X169541460Y-104114999D01*
X169464592Y-104162817D01*
X169400912Y-104199671D01*
X169370223Y-104213777D01*
X169345837Y-104224419D01*
X169286041Y-104258478D01*
X169206368Y-104307832D01*
X169187729Y-104319719D01*
X169018941Y-104423197D01*
X168889817Y-104493941D01*
X168801885Y-104531180D01*
X168756673Y-104534147D01*
X168719289Y-104518697D01*
X168643147Y-104498050D01*
X168523503Y-104471628D01*
X168354223Y-104437966D01*
X168313898Y-104429940D01*
X168201789Y-104405675D01*
X168107278Y-104382840D01*
X167989772Y-104352170D01*
X167851755Y-104317851D01*
X167719305Y-104287628D01*
X167564001Y-104254803D01*
X167538158Y-104249399D01*
X167426781Y-104224507D01*
X167335424Y-104201677D01*
X167281778Y-104185268D01*
X167241693Y-104172335D01*
X167156780Y-104150649D01*
X167056001Y-104128821D01*
X166981383Y-104113747D01*
X166871556Y-104090625D01*
X166787889Y-104071937D01*
X166720497Y-104056109D01*
X166587449Y-104025215D01*
X166436116Y-103990356D01*
X166288600Y-103956617D01*
X166167001Y-103929084D01*
X166141002Y-103923213D01*
X166033862Y-103898515D01*
X165941223Y-103876514D01*
X165888655Y-103864338D01*
X165784022Y-103841665D01*
X165673112Y-103818956D01*
X165595863Y-103802471D01*
X165505091Y-103779924D01*
X165447334Y-103761651D01*
X165388116Y-103742072D01*
X165306223Y-103723255D01*
X165238655Y-103710110D01*
X165136443Y-103688364D01*
X165024001Y-103663147D01*
X164916283Y-103638424D01*
X164800652Y-103612063D01*
X164713556Y-103592398D01*
X164698696Y-103589074D01*
X164512829Y-103547133D01*
X164340658Y-103507646D01*
X164195998Y-103473808D01*
X164092667Y-103448815D01*
X164025730Y-103432726D01*
X163912903Y-103406876D01*
X163796334Y-103381222D01*
X163705870Y-103361416D01*
X163589763Y-103335079D01*
X163500001Y-103313718D01*
X163498662Y-103313385D01*
X163412628Y-103292842D01*
X163296653Y-103266215D01*
X163175445Y-103239178D01*
X163170745Y-103238147D01*
X163000077Y-103200176D01*
X162867905Y-103169371D01*
X162757800Y-103141777D01*
X162653334Y-103113435D01*
X162584496Y-103101709D01*
X162472525Y-103092105D01*
X162335000Y-103086120D01*
X162187667Y-103084727D01*
X162143264Y-103085259D01*
X161987555Y-103088534D01*
X161786600Y-103094223D01*
X161548527Y-103101990D01*
X161281462Y-103111500D01*
X160993533Y-103122416D01*
X160692866Y-103134402D01*
X160387590Y-103147122D01*
X160085830Y-103160241D01*
X159795714Y-103173422D01*
X159525369Y-103186329D01*
X159282923Y-103198627D01*
X159076502Y-103209979D01*
X158914233Y-103220050D01*
X158618242Y-103240110D01*
X158773122Y-103337962D01*
X158849185Y-103387028D01*
X158912526Y-103430001D01*
X158942112Y-103452910D01*
X158953060Y-103462671D01*
X158998556Y-103488934D01*
X159002274Y-103490625D01*
X159063983Y-103523483D01*
X159127949Y-103563306D01*
X159167889Y-103593814D01*
X159183078Y-103605525D01*
X159236382Y-103641726D01*
X159313324Y-103691946D01*
X159399283Y-103746791D01*
X159479640Y-103796866D01*
X159539775Y-103832777D01*
X159561848Y-103846185D01*
X159628442Y-103887854D01*
X159730291Y-103952188D01*
X159860248Y-104034657D01*
X160011168Y-104130732D01*
X160175904Y-104235886D01*
X160294167Y-104311439D01*
X160450669Y-104411307D01*
X160588648Y-104499226D01*
X160700848Y-104570578D01*
X160780014Y-104620745D01*
X160818889Y-104645108D01*
X160856364Y-104669264D01*
X160889445Y-104694500D01*
X160891477Y-104696248D01*
X160927900Y-104721123D01*
X161001125Y-104768407D01*
X161101760Y-104832090D01*
X161220411Y-104906167D01*
X161242598Y-104920010D01*
X161359433Y-104995564D01*
X161456599Y-105062712D01*
X161524503Y-105114598D01*
X161553558Y-105144366D01*
X161552834Y-105177700D01*
X161518926Y-105223764D01*
X161468430Y-105244812D01*
X161383334Y-105246120D01*
X161362945Y-105243732D01*
X161286494Y-105238455D01*
X161165237Y-105232178D01*
X161006640Y-105225220D01*
X160818166Y-105217899D01*
X160607280Y-105210532D01*
X160381445Y-105203438D01*
X160376454Y-105203290D01*
X160107856Y-105194982D01*
X159816893Y-105185429D01*
X159519325Y-105175183D01*
X159230907Y-105164799D01*
X158967399Y-105154832D01*
X158744556Y-105145836D01*
X158629008Y-105141007D01*
X158403087Y-105131806D01*
X158179516Y-105122980D01*
X157971804Y-105115050D01*
X157793462Y-105108537D01*
X157658001Y-105103961D01*
X157531445Y-105099898D01*
X157359668Y-105094243D01*
X157154804Y-105087401D01*
X156928539Y-105079766D01*
X156692561Y-105071729D01*
X156458556Y-105063683D01*
X155626001Y-105034906D01*
X155315556Y-104935004D01*
X155200889Y-104898869D01*
X155090506Y-104865739D01*
X155009288Y-104843233D01*
X154969451Y-104834884D01*
X154944029Y-104831116D01*
X154884784Y-104809256D01*
X154845844Y-104793038D01*
X154764596Y-104764953D01*
X154666445Y-104734748D01*
X154586963Y-104711190D01*
X154497553Y-104683421D01*
X154440667Y-104664202D01*
X154399291Y-104650228D01*
X154314775Y-104624479D01*
X154214889Y-104595946D01*
X154135742Y-104572742D01*
X154049288Y-104544118D01*
X153996550Y-104522567D01*
X153965606Y-104509059D01*
X153904445Y-104495999D01*
X153876366Y-104492683D01*
X153812340Y-104471289D01*
X153773375Y-104455361D01*
X153692134Y-104427534D01*
X153594001Y-104397402D01*
X153515031Y-104374296D01*
X153419358Y-104345862D01*
X153354112Y-104325947D01*
X153316063Y-104314154D01*
X153228118Y-104287465D01*
X153128334Y-104257634D01*
X153063783Y-104237950D01*
X152974841Y-104209078D01*
X152916667Y-104187986D01*
X152875281Y-104173013D01*
X152790769Y-104146176D01*
X152690889Y-104117001D01*
X152611748Y-104094123D01*
X152522130Y-104066368D01*
X152465112Y-104046445D01*
X152423715Y-104031655D01*
X152339206Y-104004995D01*
X152239334Y-103975890D01*
X152160217Y-103952949D01*
X152070584Y-103924937D01*
X152013556Y-103904636D01*
X151972049Y-103889391D01*
X151887574Y-103862046D01*
X151787778Y-103832240D01*
X151764168Y-103825443D01*
X151586846Y-103773010D01*
X151385377Y-103711591D01*
X151185179Y-103649017D01*
X151011667Y-103593119D01*
X150945684Y-103571901D01*
X150812368Y-103530832D01*
X150687112Y-103494070D01*
X150607883Y-103470914D01*
X150518318Y-103442921D01*
X150461334Y-103422888D01*
X150419946Y-103408080D01*
X150335434Y-103381417D01*
X150235556Y-103352332D01*
X150156363Y-103329639D01*
X150066777Y-103302548D01*
X150009778Y-103283574D01*
X149968087Y-103269223D01*
X149883670Y-103242510D01*
X149784001Y-103212563D01*
X149704425Y-103188820D01*
X149615072Y-103161044D01*
X149558223Y-103142008D01*
X149516520Y-103127851D01*
X149432106Y-103101325D01*
X149332445Y-103071452D01*
X149252870Y-103047709D01*
X149163516Y-103019933D01*
X149106667Y-103000897D01*
X149064964Y-102986740D01*
X148980551Y-102960214D01*
X148880889Y-102930341D01*
X148801356Y-102906497D01*
X148711977Y-102878303D01*
X148655112Y-102858655D01*
X148613696Y-102844326D01*
X148529193Y-102818123D01*
X148429334Y-102789222D01*
X148350221Y-102766326D01*
X148260586Y-102738399D01*
X148203556Y-102718199D01*
X148166226Y-102703841D01*
X148090667Y-102679920D01*
X148056161Y-102670406D01*
X147975065Y-102646718D01*
X147879001Y-102617695D01*
X147803641Y-102597300D01*
X147668980Y-102568393D01*
X147540334Y-102547976D01*
X147530220Y-102546761D01*
X147425714Y-102534235D01*
X147284654Y-102517370D01*
X147124266Y-102498224D01*
X146961778Y-102478856D01*
X146940933Y-102476371D01*
X146777730Y-102456781D01*
X146618890Y-102437505D01*
X146481644Y-102420644D01*
X146383223Y-102408301D01*
X146373118Y-102407011D01*
X146268615Y-102393942D01*
X146127552Y-102376615D01*
X145967160Y-102357135D01*
X145804667Y-102337609D01*
X145786601Y-102335450D01*
X145621474Y-102315715D01*
X145458743Y-102296250D01*
X145316290Y-102279194D01*
X145212001Y-102266689D01*
X145202667Y-102265568D01*
X145093155Y-102252441D01*
X144947506Y-102235006D01*
X144783605Y-102215405D01*
X144619334Y-102195776D01*
X144598481Y-102193283D01*
X144435280Y-102173619D01*
X144276442Y-102154245D01*
X144139198Y-102137274D01*
X144040778Y-102124819D01*
X143990476Y-102118498D01*
X143860465Y-102103063D01*
X143709509Y-102085977D01*
X143561001Y-102069917D01*
X143483005Y-102061375D01*
X143338102Y-102043949D01*
X143207170Y-102026411D01*
X143111317Y-102011502D01*
X143056772Y-102002841D01*
X142941166Y-101989484D01*
X142845210Y-101984222D01*
X142834693Y-101984114D01*
X142734145Y-101975606D01*
X142645782Y-101957662D01*
X142590619Y-101945595D01*
X142490001Y-101929588D01*
X142361653Y-101912679D01*
X142220445Y-101896990D01*
X142100028Y-101884668D01*
X141943683Y-101868187D01*
X141803040Y-101852868D01*
X141698334Y-101840886D01*
X141688687Y-101839731D01*
X141564061Y-101824998D01*
X141416181Y-101807756D01*
X141275001Y-101791499D01*
X141245618Y-101788095D01*
X141121315Y-101772758D01*
X141011237Y-101757833D01*
X140936334Y-101746128D01*
X140910300Y-101741812D01*
X140819276Y-101728994D01*
X140699351Y-101713956D01*
X140569445Y-101699124D01*
X140529914Y-101694812D01*
X140377756Y-101677759D01*
X140226506Y-101660229D01*
X140103778Y-101645408D01*
X140034294Y-101636773D01*
X139875049Y-101617183D01*
X139684708Y-101593941D01*
X139479279Y-101568991D01*
X139274772Y-101544275D01*
X139087195Y-101521734D01*
X138932556Y-101503312D01*
X138829143Y-101491320D01*
X138681474Y-101474587D01*
X138516384Y-101456168D01*
X138354001Y-101438325D01*
X138334173Y-101436144D01*
X138194006Y-101419462D01*
X138072903Y-101402961D01*
X137983233Y-101388440D01*
X137937363Y-101377699D01*
X137905675Y-101371119D01*
X137852697Y-101385642D01*
X137852168Y-101386066D01*
X137813077Y-101410452D01*
X137735214Y-101454340D01*
X137629619Y-101511638D01*
X137507334Y-101576252D01*
X137382878Y-101641297D01*
X137205236Y-101734368D01*
X137022198Y-101830465D01*
X136858223Y-101916758D01*
X136719441Y-101989492D01*
X136549727Y-102077606D01*
X136386506Y-102161590D01*
X136251445Y-102230251D01*
X136165127Y-102274072D01*
X136067834Y-102324507D01*
X135998824Y-102361553D01*
X135969223Y-102379333D01*
X135963978Y-102383153D01*
X135919598Y-102408771D01*
X135841853Y-102450546D01*
X135743445Y-102501600D01*
X135741730Y-102502476D01*
X135609285Y-102570296D01*
X135465457Y-102644160D01*
X135341082Y-102708230D01*
X135150385Y-102806705D01*
X134931860Y-102775306D01*
X134931137Y-102775202D01*
X134801913Y-102755804D01*
X134673007Y-102735122D01*
X134572223Y-102717615D01*
X134530458Y-102709954D01*
X134421693Y-102690833D01*
X134332334Y-102676146D01*
X134191493Y-102654501D01*
X134000437Y-102625111D01*
X133851751Y-102602188D01*
X133737092Y-102584440D01*
X133648123Y-102570575D01*
X133576502Y-102559300D01*
X133513889Y-102549323D01*
X133465496Y-102541625D01*
X133347104Y-102523009D01*
X133205709Y-102500961D01*
X133062334Y-102478767D01*
X132983106Y-102466504D01*
X132838243Y-102443856D01*
X132707125Y-102423101D01*
X132610778Y-102407555D01*
X132562413Y-102399702D01*
X132444018Y-102380868D01*
X132302612Y-102358706D01*
X132159223Y-102336522D01*
X132077939Y-102323958D01*
X131936768Y-102301790D01*
X131811376Y-102281700D01*
X131721778Y-102266877D01*
X131667402Y-102257857D01*
X131552461Y-102239533D01*
X131413691Y-102217984D01*
X131270223Y-102196204D01*
X131174002Y-102181676D01*
X131031599Y-102159823D01*
X130906779Y-102140281D01*
X130818667Y-102126022D01*
X130764178Y-102117066D01*
X130649248Y-102098642D01*
X130510524Y-102076763D01*
X130367112Y-102054459D01*
X130270736Y-102039501D01*
X130128390Y-102017134D01*
X130003628Y-101997225D01*
X129915556Y-101982807D01*
X129869055Y-101975130D01*
X129756245Y-101957015D01*
X129619259Y-101935437D01*
X129478112Y-101913564D01*
X129398905Y-101901350D01*
X129254034Y-101878780D01*
X129122908Y-101858087D01*
X129026556Y-101842577D01*
X128968887Y-101833106D01*
X128859114Y-101815081D01*
X128772556Y-101800871D01*
X128730319Y-101793838D01*
X128627223Y-101776303D01*
X128518556Y-101757480D01*
X128417700Y-101740627D01*
X128283007Y-101719389D01*
X128151667Y-101699739D01*
X128030050Y-101681713D01*
X127900932Y-101661769D01*
X127798889Y-101645190D01*
X127744511Y-101636218D01*
X127629570Y-101617954D01*
X127490801Y-101596447D01*
X127347334Y-101574683D01*
X127251126Y-101560135D01*
X127108718Y-101538182D01*
X126983893Y-101518476D01*
X126895778Y-101504011D01*
X126849284Y-101496231D01*
X126736473Y-101477963D01*
X126599485Y-101456279D01*
X126458334Y-101434365D01*
X126379129Y-101422150D01*
X126234257Y-101399570D01*
X126103131Y-101378862D01*
X126006778Y-101363333D01*
X125958398Y-101355472D01*
X125840004Y-101336603D01*
X125698604Y-101314380D01*
X125555223Y-101292120D01*
X125475977Y-101279875D01*
X125331120Y-101257358D01*
X125200009Y-101236826D01*
X125103667Y-101221565D01*
X125055289Y-101213875D01*
X124936896Y-101195294D01*
X124795494Y-101173307D01*
X124652112Y-101151189D01*
X124572948Y-101138931D01*
X124428062Y-101116046D01*
X124296920Y-101094814D01*
X124200556Y-101078618D01*
X124100016Y-101062301D01*
X123965180Y-101042352D01*
X123833667Y-101024510D01*
X123741515Y-101011604D01*
X123596995Y-100986025D01*
X123483268Y-100958792D01*
X123408814Y-100932092D01*
X123382112Y-100908109D01*
X123381466Y-100902813D01*
X123354741Y-100883555D01*
X123352476Y-100883246D01*
X123328910Y-100873301D01*
X123281624Y-100848005D01*
X123207599Y-100805543D01*
X123103812Y-100744097D01*
X122967244Y-100661851D01*
X122794874Y-100556988D01*
X122583681Y-100427692D01*
X122330644Y-100272146D01*
X122032743Y-100088534D01*
X121930492Y-100025734D01*
X121808271Y-99951502D01*
X121709420Y-99892439D01*
X121642128Y-99853422D01*
X121614582Y-99839333D01*
X121610056Y-99838072D01*
X121571027Y-99815707D01*
X121510506Y-99774230D01*
X121499628Y-99766497D01*
X121407911Y-99707611D01*
X121312930Y-99654286D01*
X121293320Y-99643956D01*
X121211427Y-99594553D01*
X121150653Y-99548955D01*
X121141699Y-99539665D01*
X121132257Y-99524839D01*
X121124216Y-99502249D01*
X121117465Y-99467839D01*
X121111890Y-99417553D01*
X121107379Y-99347333D01*
X121103820Y-99253124D01*
X121101100Y-99130867D01*
X121099107Y-98976507D01*
X121097729Y-98785986D01*
X121096853Y-98555247D01*
X121096366Y-98280235D01*
X121096157Y-97956892D01*
X121096112Y-97581161D01*
X121096112Y-95663855D01*
X121187834Y-95679050D01*
X121267432Y-95693602D01*
X121336001Y-95708440D01*
X121339843Y-95709387D01*
X121399539Y-95722762D01*
X121493830Y-95742720D01*
X121604112Y-95765316D01*
X121606088Y-95765714D01*
X121727595Y-95790351D01*
X121843394Y-95814051D01*
X121928667Y-95831735D01*
X121971826Y-95840715D01*
X122073697Y-95861647D01*
X122201667Y-95887747D01*
X122337889Y-95915365D01*
X122426459Y-95933475D01*
X122555753Y-95960624D01*
X122663585Y-95984091D01*
X122733001Y-96000235D01*
X122772552Y-96009105D01*
X122869169Y-96027832D01*
X122993409Y-96049820D01*
X123128112Y-96071955D01*
X123219930Y-96086704D01*
X123338449Y-96106575D01*
X123430288Y-96122961D01*
X123480889Y-96133329D01*
X123505642Y-96139071D01*
X123584125Y-96154603D01*
X123678445Y-96171134D01*
X123701285Y-96174932D01*
X123807684Y-96193214D01*
X123939534Y-96216473D01*
X124073556Y-96240616D01*
X124111388Y-96247493D01*
X124247186Y-96271903D01*
X124374040Y-96294339D01*
X124468667Y-96310672D01*
X124541518Y-96323085D01*
X124684687Y-96347938D01*
X124848485Y-96376750D01*
X125013846Y-96406143D01*
X125161706Y-96432740D01*
X125273001Y-96453162D01*
X125302736Y-96458641D01*
X125405336Y-96477014D01*
X125534094Y-96499591D01*
X125668112Y-96522694D01*
X125720148Y-96531599D01*
X125858069Y-96555372D01*
X125984490Y-96577376D01*
X126077334Y-96593777D01*
X126108070Y-96599250D01*
X126216606Y-96618287D01*
X126350126Y-96641436D01*
X126486556Y-96664861D01*
X126540944Y-96674209D01*
X126675342Y-96697772D01*
X126795885Y-96719490D01*
X126881667Y-96735617D01*
X126911362Y-96741322D01*
X127013964Y-96760163D01*
X127142739Y-96783024D01*
X127276778Y-96806172D01*
X127402596Y-96827743D01*
X127552462Y-96854284D01*
X127698174Y-96881407D01*
X127869445Y-96914546D01*
X127903390Y-96920676D01*
X127989659Y-96935197D01*
X128105770Y-96954078D01*
X128236334Y-96974792D01*
X128323257Y-96988759D01*
X128453205Y-97010868D01*
X128561655Y-97030747D01*
X128631445Y-97045333D01*
X128670991Y-97053945D01*
X128767608Y-97072289D01*
X128891851Y-97093958D01*
X129026556Y-97115888D01*
X129113459Y-97129893D01*
X129243415Y-97152191D01*
X129351873Y-97172377D01*
X129421667Y-97187346D01*
X129517908Y-97208988D01*
X129619223Y-97227672D01*
X129639923Y-97230947D01*
X129728110Y-97245417D01*
X129845333Y-97265105D01*
X129972001Y-97286730D01*
X130009424Y-97293172D01*
X130145353Y-97316541D01*
X130272367Y-97338338D01*
X130367112Y-97354554D01*
X130428051Y-97365042D01*
X130567734Y-97389403D01*
X130731791Y-97418285D01*
X130900345Y-97448171D01*
X131053522Y-97475545D01*
X131171445Y-97496888D01*
X131232975Y-97508072D01*
X131373371Y-97533274D01*
X131537725Y-97562507D01*
X131706162Y-97592255D01*
X131858805Y-97618999D01*
X131975778Y-97639222D01*
X132006539Y-97644473D01*
X132115074Y-97663000D01*
X132248583Y-97685793D01*
X132385001Y-97709083D01*
X132436975Y-97718011D01*
X132574917Y-97742151D01*
X132701361Y-97764837D01*
X132794223Y-97782128D01*
X132840413Y-97790545D01*
X132953251Y-97809343D01*
X133090362Y-97830732D01*
X133231667Y-97851527D01*
X133308331Y-97862456D01*
X133457000Y-97883796D01*
X133594045Y-97903633D01*
X133697334Y-97918770D01*
X133773562Y-97929843D01*
X133902866Y-97948178D01*
X134053210Y-97969163D01*
X134205334Y-97990094D01*
X134326742Y-98006791D01*
X134482733Y-98028570D01*
X134623004Y-98048484D01*
X134727445Y-98063700D01*
X134829395Y-98078372D01*
X134977523Y-98098545D01*
X135115163Y-98116231D01*
X135115179Y-98116233D01*
X135228749Y-98131232D01*
X135330133Y-98146391D01*
X135397385Y-98158429D01*
X135405065Y-98160034D01*
X135477833Y-98172741D01*
X135583191Y-98188782D01*
X135701112Y-98205082D01*
X135702626Y-98205280D01*
X135839215Y-98223534D01*
X135980534Y-98242964D01*
X136096223Y-98259398D01*
X136163784Y-98269169D01*
X136291324Y-98287390D01*
X136440135Y-98308473D01*
X136590112Y-98329563D01*
X136697738Y-98344675D01*
X136848887Y-98366025D01*
X136984344Y-98385293D01*
X137084001Y-98399625D01*
X137160253Y-98410550D01*
X137289554Y-98428763D01*
X137439888Y-98449704D01*
X137592001Y-98470681D01*
X137716615Y-98487929D01*
X137864917Y-98508832D01*
X137994153Y-98527436D01*
X138085889Y-98541110D01*
X138159064Y-98552067D01*
X138283281Y-98570025D01*
X138429664Y-98590726D01*
X138579778Y-98611540D01*
X138702890Y-98628461D01*
X138855022Y-98649472D01*
X138989736Y-98668181D01*
X139087778Y-98681920D01*
X139155364Y-98691463D01*
X139282901Y-98709434D01*
X139431702Y-98730373D01*
X139581667Y-98751451D01*
X139689294Y-98766638D01*
X139840443Y-98788172D01*
X139975899Y-98807685D01*
X140075556Y-98822295D01*
X140160387Y-98834575D01*
X140291474Y-98852952D01*
X140443398Y-98873826D01*
X140597667Y-98894635D01*
X140737516Y-98913570D01*
X140886650Y-98934302D01*
X141015277Y-98952721D01*
X141105667Y-98966325D01*
X141111952Y-98967314D01*
X141221689Y-98983453D01*
X141357533Y-99001973D01*
X141491575Y-99019060D01*
X141495665Y-99019560D01*
X141635430Y-99037627D01*
X141780747Y-99057926D01*
X141900797Y-99076157D01*
X141983928Y-99087912D01*
X142105954Y-99100406D01*
X142204635Y-99105342D01*
X142253142Y-99106845D01*
X142370649Y-99116680D01*
X142486857Y-99132611D01*
X142562265Y-99143152D01*
X142683619Y-99156970D01*
X142837431Y-99172595D01*
X143011622Y-99188800D01*
X143194112Y-99204362D01*
X143200434Y-99204876D01*
X143377466Y-99219657D01*
X143540939Y-99234007D01*
X143680175Y-99246936D01*
X143784496Y-99257453D01*
X143843223Y-99264568D01*
X143862806Y-99267424D01*
X143950929Y-99278316D01*
X144068634Y-99291136D01*
X144196001Y-99303677D01*
X144300625Y-99313427D01*
X144511458Y-99333219D01*
X144737394Y-99354580D01*
X144966548Y-99376375D01*
X145187035Y-99397469D01*
X145386974Y-99416726D01*
X145554479Y-99433012D01*
X145677667Y-99445191D01*
X145738916Y-99451272D01*
X145876565Y-99464695D01*
X146045085Y-99480925D01*
X146228653Y-99498439D01*
X146411445Y-99515717D01*
X146522547Y-99526203D01*
X146705245Y-99543606D01*
X146877809Y-99560219D01*
X147024883Y-99574561D01*
X147131112Y-99585150D01*
X147274982Y-99599752D01*
X147561907Y-99628363D01*
X147819019Y-99652969D01*
X148054160Y-99674023D01*
X148275171Y-99691980D01*
X148489892Y-99707292D01*
X148706164Y-99720413D01*
X148931828Y-99731796D01*
X149174724Y-99741894D01*
X149442693Y-99751161D01*
X149743575Y-99760049D01*
X150085213Y-99769013D01*
X150475445Y-99778506D01*
X150569377Y-99780778D01*
X150873415Y-99788639D01*
X151185957Y-99797405D01*
X151496181Y-99806732D01*
X151793263Y-99816277D01*
X152066381Y-99825696D01*
X152304712Y-99834644D01*
X152497433Y-99842778D01*
X152525496Y-99844054D01*
X152772383Y-99854320D01*
X152971438Y-99860424D01*
X153130337Y-99862369D01*
X153256759Y-99860160D01*
X153358380Y-99853802D01*
X153442878Y-99843298D01*
X153515327Y-99832583D01*
X153657795Y-99814127D01*
X153818643Y-99795543D01*
X153975001Y-99779570D01*
X154077491Y-99769766D01*
X154236656Y-99753968D01*
X154383914Y-99738746D01*
X154497112Y-99726358D01*
X154573666Y-99717659D01*
X154713203Y-99702048D01*
X154883749Y-99683139D01*
X155071040Y-99662502D01*
X155260809Y-99641701D01*
X155438793Y-99622305D01*
X155590727Y-99605879D01*
X155702346Y-99593990D01*
X155742448Y-99588205D01*
X155821642Y-99566959D01*
X155868079Y-99540361D01*
X155889739Y-99520553D01*
X155939901Y-99500666D01*
X155956179Y-99498057D01*
X155978778Y-99472444D01*
X155979419Y-99465844D01*
X156001832Y-99444222D01*
X156003324Y-99443985D01*
X156039516Y-99425831D01*
X156111744Y-99382960D01*
X156210313Y-99321287D01*
X156325527Y-99246730D01*
X156452135Y-99162097D01*
X156539181Y-99098017D01*
X156589082Y-99049241D01*
X156607328Y-99008506D01*
X156599405Y-98968550D01*
X156570801Y-98922110D01*
X156548390Y-98885478D01*
X156507614Y-98814292D01*
X156457683Y-98724555D01*
X156409819Y-98637413D01*
X156353312Y-98534533D01*
X156310426Y-98456444D01*
X156214188Y-98326814D01*
X156077556Y-98228542D01*
X156066459Y-98222688D01*
X156005652Y-98186886D01*
X155917556Y-98132076D01*
X155817181Y-98067539D01*
X155626979Y-97944389D01*
X155418685Y-97811949D01*
X155222177Y-97689441D01*
X155044489Y-97581144D01*
X154892653Y-97491338D01*
X154773702Y-97424305D01*
X154694667Y-97384324D01*
X154637366Y-97358903D01*
X154514462Y-97303832D01*
X154398334Y-97251238D01*
X154328373Y-97219578D01*
X154242677Y-97181520D01*
X154186667Y-97157531D01*
X154148937Y-97141555D01*
X154068828Y-97106368D01*
X153975001Y-97064257D01*
X153889470Y-97025497D01*
X153726704Y-96951868D01*
X153564977Y-96878851D01*
X153421073Y-96814022D01*
X153311778Y-96764956D01*
X153284162Y-96752580D01*
X153177007Y-96704370D01*
X153071889Y-96656860D01*
X153031236Y-96638556D01*
X152915310Y-96587148D01*
X152803778Y-96538544D01*
X152749983Y-96515376D01*
X152664152Y-96478362D01*
X152606223Y-96453317D01*
X152579057Y-96442330D01*
X152501231Y-96413510D01*
X152408667Y-96381317D01*
X152357944Y-96364014D01*
X152270314Y-96333117D01*
X152211112Y-96310943D01*
X152164390Y-96293033D01*
X152076708Y-96260340D01*
X151961066Y-96217693D01*
X151830112Y-96169778D01*
X151813351Y-96163668D01*
X151660773Y-96107992D01*
X151550086Y-96067413D01*
X151471084Y-96038109D01*
X151413559Y-96016261D01*
X151367304Y-95998047D01*
X151322112Y-95979649D01*
X151291941Y-95967802D01*
X151206822Y-95936583D01*
X151110445Y-95903126D01*
X151059789Y-95885764D01*
X150972119Y-95854352D01*
X150912889Y-95831359D01*
X150864827Y-95812869D01*
X150785889Y-95787536D01*
X150770521Y-95782939D01*
X150691083Y-95754554D01*
X150602445Y-95718097D01*
X150554897Y-95698136D01*
X150445304Y-95656046D01*
X150334334Y-95617178D01*
X150267461Y-95594392D01*
X150191694Y-95566289D01*
X150150889Y-95548078D01*
X150144453Y-95544920D01*
X150092984Y-95525637D01*
X150001642Y-95494490D01*
X149881009Y-95455027D01*
X149741667Y-95410799D01*
X149698679Y-95397311D01*
X149559755Y-95353218D01*
X149439976Y-95314467D01*
X149350934Y-95284839D01*
X149304223Y-95268116D01*
X149295591Y-95264778D01*
X149235221Y-95243999D01*
X149135889Y-95211559D01*
X149009205Y-95171209D01*
X148866778Y-95126703D01*
X148823055Y-95113097D01*
X148685179Y-95069257D01*
X148567275Y-95030399D01*
X148480689Y-95000320D01*
X148436772Y-94982819D01*
X148406074Y-94969720D01*
X148344667Y-94956888D01*
X148316043Y-94953257D01*
X148252562Y-94930703D01*
X148220865Y-94916782D01*
X148143056Y-94888814D01*
X148048334Y-94859058D01*
X147983868Y-94839657D01*
X147894876Y-94811181D01*
X147836667Y-94790419D01*
X147795021Y-94775327D01*
X147710590Y-94747903D01*
X147610889Y-94717674D01*
X147531386Y-94693758D01*
X147441989Y-94665266D01*
X147385112Y-94645181D01*
X147351006Y-94632640D01*
X147269791Y-94605707D01*
X147173445Y-94575888D01*
X147108814Y-94556093D01*
X147019921Y-94527280D01*
X146961778Y-94506434D01*
X146912947Y-94489644D01*
X146825191Y-94463314D01*
X146721889Y-94434777D01*
X146628094Y-94409091D01*
X146537981Y-94382672D01*
X146482001Y-94364179D01*
X146411168Y-94339062D01*
X146313728Y-94308541D01*
X146214253Y-94280252D01*
X146131261Y-94259436D01*
X146083266Y-94251333D01*
X146056244Y-94247729D01*
X145994784Y-94225715D01*
X145937441Y-94201624D01*
X145844919Y-94170651D01*
X145742415Y-94141086D01*
X145650920Y-94118939D01*
X145591425Y-94110222D01*
X145562573Y-94106609D01*
X145524456Y-94085253D01*
X145493411Y-94064398D01*
X145431068Y-94045225D01*
X145339848Y-94026120D01*
X145218214Y-93996873D01*
X145112571Y-93967644D01*
X145042667Y-93943600D01*
X145032011Y-93939225D01*
X144960288Y-93914467D01*
X144873334Y-93889005D01*
X144862373Y-93886082D01*
X144686813Y-93838875D01*
X144558091Y-93803289D01*
X144468748Y-93777146D01*
X144411324Y-93758268D01*
X144378360Y-93744477D01*
X144366842Y-93739425D01*
X144301254Y-93719820D01*
X144216230Y-93702033D01*
X144187103Y-93696428D01*
X144117150Y-93676513D01*
X144081594Y-93656210D01*
X144048308Y-93638515D01*
X143984334Y-93630444D01*
X143923790Y-93622718D01*
X143885556Y-93602222D01*
X143869246Y-93587735D01*
X143816576Y-93573999D01*
X143780036Y-93569395D01*
X143697531Y-93550845D01*
X143594879Y-93522964D01*
X143491241Y-93491049D01*
X143405778Y-93460401D01*
X143397344Y-93457246D01*
X143333513Y-93437332D01*
X143236441Y-93410187D01*
X143123556Y-93380731D01*
X143118087Y-93379351D01*
X142982406Y-93344444D01*
X142842723Y-93307463D01*
X142728445Y-93276189D01*
X142649373Y-93254612D01*
X142553761Y-93230253D01*
X142488556Y-93215697D01*
X142435724Y-93203404D01*
X142361556Y-93178888D01*
X142314149Y-93161777D01*
X142234556Y-93140310D01*
X142210822Y-93135042D01*
X142121452Y-93113000D01*
X142000316Y-93081322D01*
X141863367Y-93044230D01*
X141726556Y-93005941D01*
X141705638Y-93000122D01*
X141605038Y-92974215D01*
X141500778Y-92949684D01*
X141467963Y-92942061D01*
X141379572Y-92918308D01*
X141317334Y-92897146D01*
X141269938Y-92879754D01*
X141190334Y-92858088D01*
X141152698Y-92849529D01*
X141058413Y-92825933D01*
X140938934Y-92794522D01*
X140812274Y-92760066D01*
X140696445Y-92727333D01*
X140626523Y-92707403D01*
X140502688Y-92673270D01*
X140378639Y-92640185D01*
X140272541Y-92612961D01*
X140202556Y-92596414D01*
X140150243Y-92583800D01*
X140089667Y-92564946D01*
X140064588Y-92556612D01*
X139988822Y-92535264D01*
X139885663Y-92508471D01*
X139772403Y-92480673D01*
X139666334Y-92456305D01*
X139613185Y-92442667D01*
X139539334Y-92418371D01*
X139531382Y-92415472D01*
X139467719Y-92397039D01*
X139370419Y-92372672D01*
X139257112Y-92346841D01*
X139230855Y-92341072D01*
X139119643Y-92315248D01*
X139028445Y-92291974D01*
X138974889Y-92275696D01*
X138957652Y-92269762D01*
X138886490Y-92249011D01*
X138783440Y-92221514D01*
X138664445Y-92191591D01*
X138616756Y-92179949D01*
X138492195Y-92149538D01*
X138384104Y-92123143D01*
X138311667Y-92105449D01*
X138245690Y-92089277D01*
X138109052Y-92055587D01*
X137967054Y-92020380D01*
X137839757Y-91988635D01*
X137747223Y-91965333D01*
X137683776Y-91949321D01*
X137577749Y-91922798D01*
X137465001Y-91894777D01*
X137372733Y-91871860D01*
X137263558Y-91844582D01*
X137182778Y-91824222D01*
X137119332Y-91808210D01*
X137013304Y-91781687D01*
X136900556Y-91753666D01*
X136808289Y-91730749D01*
X136699114Y-91703471D01*
X136618334Y-91683110D01*
X136550664Y-91665966D01*
X136399925Y-91628269D01*
X136262368Y-91594489D01*
X136151820Y-91568005D01*
X136082112Y-91552191D01*
X136029806Y-91539518D01*
X135969223Y-91520435D01*
X135965163Y-91518876D01*
X135900796Y-91499660D01*
X135801617Y-91474956D01*
X135686326Y-91448996D01*
X135573624Y-91426012D01*
X135482213Y-91410235D01*
X135465047Y-91407460D01*
X135396404Y-91389808D01*
X135360603Y-91369685D01*
X135341546Y-91355394D01*
X135287206Y-91344444D01*
X135246711Y-91340672D01*
X135158026Y-91325670D01*
X135047333Y-91303038D01*
X134933289Y-91276885D01*
X134834552Y-91251321D01*
X134769778Y-91230456D01*
X134710656Y-91211650D01*
X134628667Y-91194139D01*
X134595419Y-91188279D01*
X134495911Y-91167587D01*
X134362647Y-91137387D01*
X134209442Y-91100853D01*
X134050112Y-91061162D01*
X133977566Y-91043368D01*
X133869387Y-91017795D01*
X133753778Y-90991173D01*
X133645830Y-90966491D01*
X133536419Y-90941114D01*
X133457445Y-90922406D01*
X133404929Y-90910322D01*
X133300276Y-90887864D01*
X133189334Y-90865430D01*
X133111905Y-90848709D01*
X133024385Y-90825597D01*
X132970995Y-90806203D01*
X132926626Y-90790327D01*
X132850667Y-90779999D01*
X132797371Y-90774607D01*
X132730340Y-90753796D01*
X132692830Y-90739338D01*
X132611169Y-90716558D01*
X132512001Y-90694568D01*
X132437483Y-90679616D01*
X132327601Y-90656306D01*
X132243889Y-90637100D01*
X132129517Y-90609480D01*
X131989966Y-90577100D01*
X131854898Y-90546903D01*
X131741093Y-90522633D01*
X131665334Y-90508032D01*
X131594562Y-90492708D01*
X131524223Y-90470677D01*
X131476681Y-90455953D01*
X131388511Y-90434815D01*
X131284334Y-90413815D01*
X131194652Y-90396739D01*
X131078116Y-90372981D01*
X130988001Y-90352893D01*
X130967633Y-90348039D01*
X130857627Y-90323233D01*
X130748112Y-90300212D01*
X130696702Y-90289694D01*
X130589866Y-90266713D01*
X130451617Y-90235750D01*
X130274138Y-90195045D01*
X130049612Y-90142835D01*
X129950111Y-90120957D01*
X129831180Y-90097699D01*
X129738519Y-90082647D01*
X129707846Y-90077937D01*
X129637878Y-90060908D01*
X129602798Y-90042478D01*
X129575269Y-90026524D01*
X129514998Y-90017999D01*
X129513291Y-90017993D01*
X129429191Y-90008294D01*
X129328131Y-89984750D01*
X129234459Y-89954106D01*
X129172521Y-89923109D01*
X129155663Y-89905665D01*
X129113203Y-89845644D01*
X129066613Y-89765772D01*
X129044587Y-89725934D01*
X128987448Y-89632254D01*
X128936247Y-89559311D01*
X128900797Y-89507426D01*
X128890283Y-89466762D01*
X128912053Y-89441875D01*
X128969771Y-89432730D01*
X129067096Y-89439295D01*
G37*
G36*
X175351931Y-104883285D02*
G01*
X175363437Y-104971412D01*
X175367445Y-105103684D01*
X175367445Y-105341149D01*
X175136301Y-105588852D01*
X175065973Y-105663983D01*
X174938341Y-105799502D01*
X174810528Y-105934374D01*
X174701808Y-106048222D01*
X174656171Y-106095934D01*
X174548270Y-106210039D01*
X174445215Y-106320535D01*
X174364253Y-106408989D01*
X174358784Y-106415028D01*
X174289071Y-106485797D01*
X174231844Y-106533403D01*
X174199024Y-106547828D01*
X174187373Y-106528923D01*
X174174194Y-106465926D01*
X174164356Y-106374200D01*
X174158633Y-106269539D01*
X174157801Y-106167737D01*
X174162634Y-106084591D01*
X174173907Y-106035895D01*
X174177610Y-106030311D01*
X174210123Y-105990897D01*
X174274425Y-105918801D01*
X174371747Y-105812699D01*
X174503321Y-105671264D01*
X174670378Y-105493171D01*
X174874149Y-105277094D01*
X175115865Y-105021708D01*
X175149303Y-104987085D01*
X175236075Y-104904662D01*
X175299945Y-104855910D01*
X175334587Y-104845912D01*
X175351931Y-104883285D01*
G37*
G36*
X176636473Y-104439555D02*
G01*
X176640262Y-104447294D01*
X176652838Y-104506479D01*
X176661739Y-104601105D01*
X176665235Y-104714636D01*
X176665667Y-104947385D01*
X176461056Y-105165017D01*
X176403452Y-105226216D01*
X176309235Y-105326038D01*
X176227685Y-105412121D01*
X176171778Y-105470751D01*
X176146204Y-105497539D01*
X176074869Y-105572979D01*
X175985587Y-105667989D01*
X175891826Y-105768259D01*
X175886935Y-105773503D01*
X175803139Y-105863002D01*
X175691042Y-105982303D01*
X175560428Y-106121015D01*
X175421079Y-106268748D01*
X175282778Y-106415110D01*
X175272667Y-106425801D01*
X175133938Y-106572667D01*
X174994895Y-106720166D01*
X174865323Y-106857898D01*
X174755006Y-106975463D01*
X174673731Y-107062460D01*
X174633369Y-107105624D01*
X174526583Y-107218230D01*
X174422436Y-107326168D01*
X174338682Y-107410972D01*
X174270629Y-107475404D01*
X174219423Y-107510837D01*
X174186514Y-107507322D01*
X174167731Y-107460492D01*
X174158907Y-107365976D01*
X174155873Y-107219408D01*
X174153889Y-106993594D01*
X174312149Y-106824297D01*
X174432674Y-106695526D01*
X174573802Y-106545045D01*
X174720682Y-106388686D01*
X174865926Y-106234295D01*
X175002146Y-106089719D01*
X175121953Y-105962807D01*
X175217960Y-105861404D01*
X175282778Y-105793358D01*
X175309241Y-105765649D01*
X175388307Y-105682253D01*
X175490651Y-105573777D01*
X175605944Y-105451181D01*
X175723857Y-105325421D01*
X175912421Y-105124322D01*
X176090888Y-104935067D01*
X176237295Y-104781439D01*
X176354879Y-104660295D01*
X176446880Y-104568491D01*
X176516536Y-104502883D01*
X176567085Y-104460329D01*
X176601765Y-104437686D01*
X176623815Y-104431809D01*
X176636473Y-104439555D01*
G37*
G36*
X121127860Y-99925478D02*
G01*
X121175094Y-99947496D01*
X121241632Y-99987499D01*
X121248583Y-99992029D01*
X121343217Y-100051011D01*
X121436071Y-100105318D01*
X121454601Y-100115792D01*
X121515890Y-100152806D01*
X121547667Y-100175874D01*
X121591273Y-100210679D01*
X121659920Y-100251703D01*
X121724056Y-100280888D01*
X121750559Y-100293189D01*
X121773445Y-100319110D01*
X121781211Y-100333330D01*
X121822834Y-100357333D01*
X121849063Y-100367656D01*
X121914556Y-100402749D01*
X121919173Y-100405798D01*
X121964821Y-100434909D01*
X122050278Y-100488826D01*
X122169155Y-100563539D01*
X122315067Y-100655037D01*
X122481626Y-100759310D01*
X122662445Y-100872347D01*
X122691110Y-100890247D01*
X122893229Y-101015850D01*
X123055050Y-101114785D01*
X123182958Y-101190460D01*
X123283340Y-101246283D01*
X123362582Y-101285662D01*
X123427070Y-101312006D01*
X123483192Y-101328722D01*
X123537334Y-101339218D01*
X123542585Y-101340027D01*
X123799437Y-101379814D01*
X124050916Y-101419189D01*
X124327556Y-101462931D01*
X124436675Y-101480197D01*
X124675795Y-101517709D01*
X124914679Y-101554789D01*
X125142227Y-101589736D01*
X125347340Y-101620852D01*
X125518919Y-101646437D01*
X125645864Y-101664791D01*
X125678570Y-101669425D01*
X125724245Y-101678655D01*
X125758448Y-101694942D01*
X125781728Y-101724404D01*
X125794635Y-101773158D01*
X125797722Y-101847322D01*
X125791537Y-101953015D01*
X125776632Y-102096355D01*
X125753557Y-102283458D01*
X125722863Y-102520444D01*
X125722382Y-102524144D01*
X125709405Y-102626220D01*
X125692038Y-102765611D01*
X125672490Y-102924454D01*
X125652975Y-103084888D01*
X125652059Y-103092467D01*
X125632532Y-103253234D01*
X125613143Y-103411541D01*
X125596091Y-103549527D01*
X125583569Y-103649333D01*
X125571335Y-103746254D01*
X125554112Y-103883986D01*
X125534553Y-104041306D01*
X125514969Y-104199666D01*
X125496348Y-104349563D01*
X125475523Y-104515015D01*
X125456439Y-104664594D01*
X125441640Y-104778222D01*
X125422854Y-104920317D01*
X125406138Y-105049082D01*
X125391818Y-105163483D01*
X125377743Y-105281136D01*
X125361762Y-105419658D01*
X125341725Y-105596666D01*
X125339511Y-105616150D01*
X125321106Y-105768428D01*
X125302290Y-105909479D01*
X125285152Y-106024332D01*
X125271779Y-106098015D01*
X125268152Y-106115191D01*
X125251533Y-106226047D01*
X125244778Y-106329460D01*
X125244033Y-106358720D01*
X125234387Y-106467096D01*
X125217161Y-106575999D01*
X125209039Y-106620711D01*
X125192359Y-106731385D01*
X125174701Y-106867015D01*
X125158746Y-107007777D01*
X125151013Y-107081037D01*
X125134284Y-107233714D01*
X125117881Y-107377018D01*
X125104451Y-107487555D01*
X125085480Y-107636184D01*
X125051588Y-107904764D01*
X125022579Y-108138936D01*
X124999107Y-108333316D01*
X124981826Y-108482521D01*
X124971393Y-108581166D01*
X124957332Y-108729333D01*
X123026722Y-108729333D01*
X121096112Y-108729333D01*
X121096112Y-104326666D01*
X121096142Y-104103517D01*
X121096428Y-103611038D01*
X121097001Y-103136570D01*
X121097846Y-102683070D01*
X121098946Y-102253496D01*
X121100285Y-101850802D01*
X121101847Y-101477946D01*
X121103615Y-101137883D01*
X121105573Y-100833570D01*
X121107704Y-100567964D01*
X121109993Y-100344020D01*
X121112423Y-100164696D01*
X121114977Y-100032946D01*
X121117640Y-99951729D01*
X121120396Y-99923999D01*
X121127860Y-99925478D01*
G37*
G36*
X175333136Y-106771120D02*
G01*
X175340348Y-106782853D01*
X175343514Y-106789519D01*
X175355325Y-106847151D01*
X175363707Y-106940529D01*
X175367013Y-107052980D01*
X175366873Y-107111771D01*
X175363297Y-107208056D01*
X175351942Y-107271490D01*
X175328793Y-107318289D01*
X175289834Y-107364668D01*
X175260410Y-107396071D01*
X175185297Y-107475953D01*
X175085777Y-107581579D01*
X174968866Y-107705523D01*
X174841577Y-107840362D01*
X174710922Y-107978673D01*
X174583918Y-108113031D01*
X174467576Y-108236013D01*
X174368911Y-108340195D01*
X174294937Y-108418153D01*
X174252667Y-108462464D01*
X174226994Y-108489308D01*
X174155594Y-108564682D01*
X174066229Y-108659612D01*
X173972362Y-108759815D01*
X173895537Y-108841658D01*
X173785223Y-108958556D01*
X173655890Y-109095164D01*
X173517862Y-109240578D01*
X173381462Y-109383896D01*
X173353045Y-109413611D01*
X173234891Y-109534988D01*
X173130695Y-109638636D01*
X173046598Y-109718675D01*
X172988742Y-109769223D01*
X172963268Y-109784397D01*
X172958034Y-109774234D01*
X172949119Y-109718310D01*
X172943129Y-109626049D01*
X172941148Y-109510834D01*
X172941961Y-109251444D01*
X173086314Y-109096222D01*
X173150054Y-109027871D01*
X173224823Y-108948083D01*
X173315233Y-108851969D01*
X173425928Y-108734608D01*
X173561550Y-108591074D01*
X173726742Y-108416446D01*
X173926149Y-108205802D01*
X173939937Y-108191237D01*
X174040358Y-108085094D01*
X174167433Y-107950682D01*
X174310849Y-107798918D01*
X174460291Y-107640715D01*
X174605445Y-107486988D01*
X174769973Y-107312684D01*
X174922982Y-107150771D01*
X175044409Y-107022890D01*
X175138101Y-106925357D01*
X175207901Y-106854486D01*
X175257657Y-106806594D01*
X175291213Y-106777996D01*
X175312414Y-106765007D01*
X175325107Y-106763943D01*
X175333136Y-106771120D01*
G37*
G36*
X120428058Y-99908473D02*
G01*
X120432775Y-99922676D01*
X120437087Y-99952224D01*
X120441023Y-99999534D01*
X120444614Y-100067024D01*
X120447889Y-100157113D01*
X120450877Y-100272216D01*
X120453609Y-100414752D01*
X120456114Y-100587139D01*
X120458422Y-100791794D01*
X120460562Y-101031134D01*
X120462565Y-101307578D01*
X120464460Y-101623544D01*
X120466276Y-101981447D01*
X120468044Y-102383707D01*
X120469793Y-102832741D01*
X120471552Y-103330966D01*
X120473353Y-103880801D01*
X120475223Y-104484662D01*
X120475255Y-104495142D01*
X120477225Y-105117901D01*
X120479199Y-105686446D01*
X120481203Y-106202972D01*
X120483257Y-106669673D01*
X120485387Y-107088744D01*
X120487615Y-107462381D01*
X120489964Y-107792777D01*
X120492458Y-108082128D01*
X120495120Y-108332629D01*
X120497974Y-108546475D01*
X120501041Y-108725860D01*
X120504347Y-108872979D01*
X120507914Y-108990027D01*
X120511765Y-109079199D01*
X120515924Y-109142690D01*
X120520414Y-109182695D01*
X120525259Y-109201408D01*
X120532418Y-109214025D01*
X120546593Y-109237168D01*
X120563470Y-109257202D01*
X120586888Y-109274380D01*
X120620685Y-109288957D01*
X120668700Y-109301186D01*
X120734772Y-109311322D01*
X120822739Y-109319618D01*
X120936440Y-109326328D01*
X121079713Y-109331707D01*
X121256397Y-109336007D01*
X121470330Y-109339483D01*
X121725352Y-109342388D01*
X122025301Y-109344977D01*
X122374016Y-109347504D01*
X122775334Y-109350222D01*
X124863778Y-109364333D01*
X124858321Y-109434888D01*
X124849569Y-109534576D01*
X124835696Y-109665646D01*
X124820043Y-109793611D01*
X124804367Y-109905199D01*
X124790428Y-109987134D01*
X124779984Y-110026144D01*
X124763194Y-110031083D01*
X124697497Y-110036977D01*
X124581527Y-110042043D01*
X124414402Y-110046294D01*
X124195241Y-110049743D01*
X123923163Y-110052402D01*
X123597289Y-110054286D01*
X123216736Y-110055406D01*
X122780625Y-110055777D01*
X120799581Y-110055777D01*
X119295989Y-108551988D01*
X117792397Y-107048199D01*
X117800310Y-105793266D01*
X117808223Y-104538333D01*
X118002934Y-104199666D01*
X118109750Y-104013433D01*
X118216985Y-103825111D01*
X118302501Y-103673075D01*
X118370128Y-103550555D01*
X118391503Y-103513722D01*
X118415001Y-103479999D01*
X118416337Y-103478623D01*
X118427496Y-103464072D01*
X118445171Y-103434720D01*
X118474223Y-103381736D01*
X118519513Y-103296291D01*
X118585901Y-103169555D01*
X118591667Y-103158548D01*
X118639582Y-103069056D01*
X118677109Y-103002293D01*
X118696551Y-102971999D01*
X118711681Y-102952080D01*
X118742132Y-102901444D01*
X118747893Y-102890912D01*
X118786095Y-102821499D01*
X118840346Y-102723297D01*
X118901472Y-102612877D01*
X118960303Y-102506809D01*
X119007667Y-102421666D01*
X119017496Y-102404030D01*
X119068448Y-102312355D01*
X119128666Y-102203732D01*
X119188979Y-102094732D01*
X119240215Y-102001927D01*
X119273203Y-101941888D01*
X119294604Y-101905049D01*
X119318112Y-101871333D01*
X119332853Y-101851390D01*
X119363021Y-101800777D01*
X119368782Y-101790245D01*
X119406984Y-101720832D01*
X119461234Y-101622630D01*
X119522361Y-101512210D01*
X119581192Y-101406143D01*
X119628556Y-101320999D01*
X119661114Y-101262513D01*
X119713440Y-101168335D01*
X119769667Y-101066999D01*
X119783709Y-101041678D01*
X119861013Y-100902557D01*
X119927678Y-100783286D01*
X119996573Y-100660907D01*
X120080572Y-100512461D01*
X120096370Y-100484454D01*
X120145612Y-100395283D01*
X120180043Y-100329996D01*
X120193001Y-100301117D01*
X120203330Y-100278692D01*
X120236647Y-100220462D01*
X120284990Y-100141366D01*
X120325667Y-100075187D01*
X120380495Y-99982325D01*
X120419046Y-99912662D01*
X120422907Y-99907197D01*
X120428058Y-99908473D01*
G37*
%TO.C,C20*%
D15*
X175738747Y-85185000D02*
X176261253Y-85185000D01*
X175738747Y-83715000D02*
X176261253Y-83715000D01*
%TO.C,R2*%
X172722500Y-76704724D02*
X172722500Y-76195276D01*
X171677500Y-76704724D02*
X171677500Y-76195276D01*
%TO.C,RESET*%
D16*
X178100000Y-81250000D02*
G75*
G02*
X176300000Y-81250000I-900000J0D01*
G01*
X176300000Y-81250000D02*
G75*
G02*
X178100000Y-81250000I900000J0D01*
G01*
D17*
X179226000Y-82791000D02*
X179226000Y-82360000D01*
X179226000Y-79709000D02*
X179226000Y-80140000D01*
D18*
X175174000Y-82791000D02*
X179226000Y-82791000D01*
D17*
X175174000Y-82360000D02*
X175174000Y-82791000D01*
D18*
X175174000Y-79709000D02*
X179226000Y-79709000D01*
D17*
X175174000Y-79709000D02*
X175174000Y-80140000D01*
%TO.C,R1*%
D15*
X172722500Y-80795276D02*
X172722500Y-81304724D01*
X171677500Y-80795276D02*
X171677500Y-81304724D01*
%TO.C,BOOT*%
D17*
X175174000Y-74909000D02*
X175174000Y-75340000D01*
D18*
X175174000Y-74909000D02*
X179226000Y-74909000D01*
D17*
X175174000Y-77560000D02*
X175174000Y-77991000D01*
D18*
X175174000Y-77991000D02*
X179226000Y-77991000D01*
D17*
X179226000Y-74909000D02*
X179226000Y-75340000D01*
X179226000Y-77991000D02*
X179226000Y-77560000D01*
D16*
X178100000Y-76450000D02*
G75*
G02*
X176300000Y-76450000I-900000J0D01*
G01*
X176300000Y-76450000D02*
G75*
G02*
X178100000Y-76450000I900000J0D01*
G01*
%TD*%
M02*
