%TF.GenerationSoftware,KiCad,Pcbnew,10.0.3*%
%TF.CreationDate,2026-06-06T23:17:52-04:00*%
%TF.ProjectId,watch,77617463-682e-46b6-9963-61645f706362,rev?*%
%TF.SameCoordinates,Original*%
%TF.FileFunction,Soldermask,Top*%
%TF.FilePolarity,Negative*%
%FSLAX46Y46*%
G04 Gerber Fmt 4.6, Leading zero omitted, Abs format (unit mm)*
G04 Created by KiCad (PCBNEW 10.0.3) date 2026-06-06 23:17:52*
%MOMM*%
%LPD*%
G01*
G04 APERTURE LIST*
G04 Aperture macros list*
%AMRoundRect*
0 Rectangle with rounded corners*
0 $1 Rounding radius*
0 $2 $3 $4 $5 $6 $7 $8 $9 X,Y pos of 4 corners*
0 Add a 4 corners polygon primitive as box body*
4,1,4,$2,$3,$4,$5,$6,$7,$8,$9,$2,$3,0*
0 Add four circle primitives for the rounded corners*
1,1,$1+$1,$2,$3*
1,1,$1+$1,$4,$5*
1,1,$1+$1,$6,$7*
1,1,$1+$1,$8,$9*
0 Add four rect primitives between the rounded corners*
20,1,$1+$1,$2,$3,$4,$5,0*
20,1,$1+$1,$4,$5,$6,$7,0*
20,1,$1+$1,$6,$7,$8,$9,0*
20,1,$1+$1,$8,$9,$2,$3,0*%
%AMRotRect*
0 Rectangle, with rotation*
0 The origin of the aperture is its center*
0 $1 length*
0 $2 width*
0 $3 Rotation angle, in degrees counterclockwise*
0 Add horizontal line*
21,1,$1,$2,0,0,$3*%
%AMOutline5P*
0 Free polygon, 5 corners , with rotation*
0 The origin of the aperture is its center*
0 number of corners: always 5*
0 $1 to $10 corner X, Y*
0 $11 Rotation angle, in degrees counterclockwise*
0 create outline with 5 corners*
4,1,5,$1,$2,$3,$4,$5,$6,$7,$8,$9,$10,$1,$2,$11*%
%AMOutline6P*
0 Free polygon, 6 corners , with rotation*
0 The origin of the aperture is its center*
0 number of corners: always 6*
0 $1 to $12 corner X, Y*
0 $13 Rotation angle, in degrees counterclockwise*
0 create outline with 6 corners*
4,1,6,$1,$2,$3,$4,$5,$6,$7,$8,$9,$10,$11,$12,$1,$2,$13*%
%AMOutline7P*
0 Free polygon, 7 corners , with rotation*
0 The origin of the aperture is its center*
0 number of corners: always 7*
0 $1 to $14 corner X, Y*
0 $15 Rotation angle, in degrees counterclockwise*
0 create outline with 7 corners*
4,1,7,$1,$2,$3,$4,$5,$6,$7,$8,$9,$10,$11,$12,$13,$14,$1,$2,$15*%
%AMOutline8P*
0 Free polygon, 8 corners , with rotation*
0 The origin of the aperture is its center*
0 number of corners: always 8*
0 $1 to $16 corner X, Y*
0 $17 Rotation angle, in degrees counterclockwise*
0 create outline with 8 corners*
4,1,8,$1,$2,$3,$4,$5,$6,$7,$8,$9,$10,$11,$12,$13,$14,$15,$16,$1,$2,$17*%
G04 Aperture macros list end*
%ADD10C,0.000000*%
%ADD11RoundRect,0.135000X0.185000X-0.135000X0.185000X0.135000X-0.185000X0.135000X-0.185000X-0.135000X0*%
%ADD12RoundRect,0.135000X0.135000X0.185000X-0.135000X0.185000X-0.135000X-0.185000X0.135000X-0.185000X0*%
%ADD13RoundRect,0.135000X-0.135000X-0.185000X0.135000X-0.185000X0.135000X0.185000X-0.135000X0.185000X0*%
%ADD14RoundRect,0.135000X-0.185000X0.135000X-0.185000X-0.135000X0.185000X-0.135000X0.185000X0.135000X0*%
%ADD15RoundRect,0.250000X-1.000000X-0.650000X1.000000X-0.650000X1.000000X0.650000X-1.000000X0.650000X0*%
%ADD16RoundRect,0.150000X-0.512500X-0.150000X0.512500X-0.150000X0.512500X0.150000X-0.512500X0.150000X0*%
%ADD17RoundRect,0.250000X-0.475000X0.250000X-0.475000X-0.250000X0.475000X-0.250000X0.475000X0.250000X0*%
%ADD18R,1.300000X0.300000*%
%ADD19R,3.000000X2.000000*%
%ADD20RoundRect,0.250000X-0.250000X-0.475000X0.250000X-0.475000X0.250000X0.475000X-0.250000X0.475000X0*%
%ADD21RoundRect,0.250000X1.000000X0.650000X-1.000000X0.650000X-1.000000X-0.650000X1.000000X-0.650000X0*%
%ADD22RoundRect,0.250000X-0.650000X1.000000X-0.650000X-1.000000X0.650000X-1.000000X0.650000X1.000000X0*%
%ADD23RotRect,1.230000X1.860000X45.000000*%
%ADD24C,0.650000*%
%ADD25RoundRect,0.150000X-0.150000X-0.470000X0.150000X-0.470000X0.150000X0.470000X-0.150000X0.470000X0*%
%ADD26RoundRect,0.075000X-0.075000X-0.545000X0.075000X-0.545000X0.075000X0.545000X-0.075000X0.545000X0*%
%ADD27O,1.000000X2.100000*%
%ADD28O,1.000000X1.800000*%
%ADD29RoundRect,0.112500X-0.350000X-0.112500X0.350000X-0.112500X0.350000X0.112500X-0.350000X0.112500X0*%
%ADD30RoundRect,0.150000X-0.150000X0.512500X-0.150000X-0.512500X0.150000X-0.512500X0.150000X0.512500X0*%
%ADD31R,0.800000X0.400000*%
%ADD32R,0.400000X0.800000*%
%ADD33Outline5P,-0.600000X0.204000X-0.204000X0.600000X0.600000X0.600000X0.600000X-0.600000X-0.600000X-0.600000X0.000000*%
%ADD34R,1.200000X1.200000*%
%ADD35R,0.800000X0.800000*%
%ADD36C,1.700000*%
%ADD37R,1.700000X1.700000*%
%ADD38RoundRect,0.250000X0.650000X-1.000000X0.650000X1.000000X-0.650000X1.000000X-0.650000X-1.000000X0*%
%ADD39RoundRect,0.250000X0.475000X-0.250000X0.475000X0.250000X-0.475000X0.250000X-0.475000X-0.250000X0*%
%ADD40RotRect,1.230000X1.860000X225.000000*%
%ADD41RoundRect,0.250000X-0.350000X-0.625000X0.350000X-0.625000X0.350000X0.625000X-0.350000X0.625000X0*%
%ADD42O,1.200000X1.750000*%
%ADD43RoundRect,0.218750X-0.256250X0.218750X-0.256250X-0.218750X0.256250X-0.218750X0.256250X0.218750X0*%
%ADD44RoundRect,0.250000X0.250000X0.475000X-0.250000X0.475000X-0.250000X-0.475000X0.250000X-0.475000X0*%
%ADD45RoundRect,0.250000X0.600000X2.600000X-0.600000X2.600000X-0.600000X-2.600000X0.600000X-2.600000X0*%
G04 APERTURE END LIST*
D10*
%TO.C,G\u002A\u002A\u002A*%
G36*
X116223129Y-106635051D02*
G01*
X116296577Y-106652167D01*
X116308108Y-106664052D01*
X116278718Y-106711209D01*
X116203690Y-106791808D01*
X116147212Y-106844980D01*
X116072529Y-106913639D01*
X115945860Y-107031651D01*
X115777508Y-107189346D01*
X115577779Y-107377059D01*
X115356977Y-107585121D01*
X115156628Y-107774340D01*
X114326939Y-108558784D01*
X114105446Y-108558222D01*
X113883952Y-108557661D01*
X114291554Y-108159842D01*
X114462833Y-107993820D01*
X114676200Y-107788744D01*
X114911132Y-107564245D01*
X115147104Y-107339948D01*
X115299831Y-107195537D01*
X115507825Y-106999894D01*
X115664491Y-106855433D01*
X115780853Y-106754386D01*
X115867937Y-106688980D01*
X115936769Y-106651445D01*
X115998372Y-106634012D01*
X116063774Y-106628909D01*
X116104307Y-106628545D01*
X116223129Y-106635051D01*
G37*
G36*
X123226098Y-106628948D02*
G01*
X123451858Y-106629855D01*
X122787470Y-107261802D01*
X122562785Y-107475734D01*
X122333763Y-107694179D01*
X122116835Y-107901437D01*
X121928434Y-108081808D01*
X121784991Y-108219591D01*
X121779193Y-108225178D01*
X121628510Y-108369204D01*
X121521553Y-108463988D01*
X121440283Y-108519861D01*
X121366663Y-108547150D01*
X121282652Y-108556184D01*
X121199324Y-108557199D01*
X120963344Y-108557792D01*
X121478209Y-108066906D01*
X121993074Y-107576020D01*
X121778547Y-107572133D01*
X121696260Y-107568972D01*
X121627532Y-107557097D01*
X121559385Y-107527843D01*
X121478844Y-107472542D01*
X121372933Y-107382530D01*
X121228674Y-107249140D01*
X121070608Y-107099358D01*
X120577196Y-106630471D01*
X120813175Y-106630552D01*
X121049155Y-106630632D01*
X121521115Y-107078211D01*
X121686588Y-107233777D01*
X121830033Y-107366064D01*
X121940074Y-107464782D01*
X122005339Y-107519644D01*
X122017711Y-107527422D01*
X122055858Y-107500113D01*
X122144815Y-107423733D01*
X122273250Y-107308384D01*
X122429827Y-107164168D01*
X122521344Y-107078547D01*
X123000339Y-106628040D01*
X123226098Y-106628948D01*
G37*
G36*
X117843600Y-105976373D02*
G01*
X117681378Y-106130168D01*
X117475370Y-106325314D01*
X117244155Y-106544222D01*
X117006310Y-106769299D01*
X116801520Y-106963003D01*
X116157939Y-107571570D01*
X115921959Y-107570402D01*
X115685979Y-107569233D01*
X115987657Y-107280984D01*
X116108952Y-107165358D01*
X116278605Y-107004010D01*
X116482649Y-106810205D01*
X116707117Y-106597205D01*
X116938042Y-106378273D01*
X117025384Y-106295523D01*
X117761434Y-105598311D01*
X118001766Y-105598311D01*
X118242099Y-105598311D01*
X117843600Y-105976373D01*
G37*
G36*
X117688664Y-106628271D02*
G01*
X117917060Y-106628502D01*
X117423648Y-107098076D01*
X116930236Y-107567651D01*
X116695081Y-107569805D01*
X116459927Y-107571959D01*
X116587818Y-107450429D01*
X116841507Y-107209265D01*
X117041154Y-107020430D01*
X117195302Y-106877545D01*
X117312492Y-106774231D01*
X117401266Y-106704108D01*
X117470167Y-106660796D01*
X117527736Y-106637915D01*
X117582515Y-106629087D01*
X117643048Y-106627931D01*
X117688664Y-106628271D01*
G37*
G36*
X118937354Y-107098861D02*
G01*
X119418750Y-107569682D01*
X119198479Y-107570821D01*
X118978209Y-107571959D01*
X118490540Y-107101955D01*
X118002871Y-106631952D01*
X118229415Y-106629996D01*
X118455958Y-106628040D01*
X118937354Y-107098861D01*
G37*
G36*
X119079138Y-106632913D02*
G01*
X119146164Y-106645371D01*
X119214314Y-106676126D01*
X119296404Y-106733838D01*
X119405247Y-106827166D01*
X119553660Y-106964772D01*
X119697635Y-107101283D01*
X120191047Y-107570428D01*
X119955067Y-107570264D01*
X119719087Y-107570099D01*
X119257854Y-107116988D01*
X119097363Y-106958198D01*
X118961159Y-106821290D01*
X118859865Y-106717116D01*
X118804105Y-106656525D01*
X118796621Y-106645959D01*
X118835118Y-106635897D01*
X118933049Y-106630424D01*
X119000422Y-106630089D01*
X119079138Y-106632913D01*
G37*
G36*
X120728557Y-107097826D02*
G01*
X121220777Y-107567611D01*
X120994990Y-107569785D01*
X120769203Y-107571959D01*
X120287051Y-107101395D01*
X119804898Y-106630830D01*
X120020618Y-106629435D01*
X120236337Y-106628040D01*
X120728557Y-107097826D01*
G37*
G36*
X124074845Y-106631679D02*
G01*
X124148289Y-106638024D01*
X124159797Y-106642781D01*
X124130959Y-106676454D01*
X124051478Y-106759500D01*
X123931905Y-106881136D01*
X123782790Y-107030578D01*
X123698564Y-107114225D01*
X123237331Y-107570928D01*
X123001351Y-107570678D01*
X122765371Y-107570428D01*
X123258783Y-107101283D01*
X123445022Y-106925043D01*
X123582140Y-106799537D01*
X123682953Y-106716102D01*
X123760276Y-106666078D01*
X123826923Y-106640806D01*
X123895710Y-106631623D01*
X123955996Y-106630089D01*
X124074845Y-106631679D01*
G37*
G36*
X125286064Y-107083012D02*
G01*
X125446555Y-107241802D01*
X125582759Y-107378709D01*
X125684054Y-107482883D01*
X125739813Y-107543475D01*
X125747297Y-107554041D01*
X125708722Y-107564352D01*
X125610290Y-107570830D01*
X125536982Y-107571959D01*
X125456291Y-107570383D01*
X125389153Y-107559870D01*
X125322702Y-107531743D01*
X125244074Y-107477324D01*
X125140403Y-107387935D01*
X124998824Y-107254899D01*
X124839769Y-107101698D01*
X124352871Y-106631437D01*
X124588851Y-106630669D01*
X124824831Y-106629900D01*
X125286064Y-107083012D01*
G37*
G36*
X125449892Y-106629585D02*
G01*
X125520049Y-106640154D01*
X125588407Y-106668646D01*
X125668766Y-106723962D01*
X125774925Y-106815001D01*
X125920687Y-106950664D01*
X126039894Y-107063841D01*
X126204794Y-107220494D01*
X126349092Y-107357257D01*
X126460633Y-107462634D01*
X126527265Y-107525132D01*
X126538902Y-107535800D01*
X126523846Y-107555361D01*
X126441291Y-107567895D01*
X126345827Y-107570702D01*
X126193898Y-107561967D01*
X126087016Y-107528366D01*
X125985095Y-107455769D01*
X125961824Y-107435368D01*
X125829786Y-107315360D01*
X125681350Y-107177097D01*
X125529484Y-107033093D01*
X125387154Y-106895866D01*
X125267329Y-106777930D01*
X125182975Y-106691802D01*
X125147060Y-106649996D01*
X125146621Y-106648564D01*
X125185267Y-106636922D01*
X125284200Y-106629484D01*
X125364134Y-106628040D01*
X125449892Y-106629585D01*
G37*
G36*
X126669763Y-106629900D02*
G01*
X127130996Y-107083012D01*
X127291487Y-107241802D01*
X127427692Y-107378709D01*
X127528986Y-107482883D01*
X127584745Y-107543475D01*
X127592229Y-107554041D01*
X127553728Y-107564274D01*
X127455787Y-107570180D01*
X127388429Y-107570812D01*
X127261518Y-107562120D01*
X127162500Y-107527638D01*
X127057247Y-107452186D01*
X126991554Y-107394295D01*
X126843589Y-107258099D01*
X126687362Y-107111316D01*
X126535472Y-106966163D01*
X126400520Y-106834856D01*
X126295105Y-106729612D01*
X126231825Y-106662648D01*
X126219256Y-106645466D01*
X126257975Y-106635887D01*
X126357424Y-106629973D01*
X126444510Y-106628970D01*
X126669763Y-106629900D01*
G37*
G36*
X127610776Y-106582460D02*
G01*
X128600276Y-107571959D01*
X128360110Y-107571959D01*
X128119945Y-107571959D01*
X127174882Y-106595861D01*
X126229819Y-105619763D01*
X126425548Y-105606362D01*
X126621277Y-105592961D01*
X127610776Y-106582460D01*
G37*
G36*
X128561566Y-106660768D02*
G01*
X128660205Y-106727045D01*
X128699457Y-106760104D01*
X128799258Y-106849198D01*
X128927062Y-106967513D01*
X129069253Y-107101903D01*
X129212216Y-107239219D01*
X129342334Y-107366314D01*
X129445992Y-107470040D01*
X129509573Y-107537250D01*
X129522973Y-107555301D01*
X129484427Y-107564945D01*
X129386206Y-107570959D01*
X129315579Y-107571959D01*
X129235765Y-107570014D01*
X129167833Y-107558584D01*
X129098788Y-107529277D01*
X129015635Y-107473702D01*
X128905378Y-107383466D01*
X128755022Y-107250179D01*
X128601325Y-107110726D01*
X128094466Y-106649493D01*
X128317720Y-106636441D01*
X128461243Y-106635050D01*
X128561566Y-106660768D01*
G37*
G36*
X144105909Y-112355955D02*
G01*
X144086278Y-112376359D01*
X144054601Y-112408537D01*
X144012055Y-112451313D01*
X143959817Y-112503513D01*
X143899062Y-112563963D01*
X143830966Y-112631490D01*
X143756707Y-112704918D01*
X143677459Y-112783074D01*
X143641539Y-112818436D01*
X143167368Y-113284983D01*
X143167368Y-114198869D01*
X143167368Y-115112754D01*
X142988388Y-115291280D01*
X142809408Y-115469806D01*
X141342278Y-115472805D01*
X139875149Y-115475805D01*
X139221073Y-115765572D01*
X139112912Y-115813451D01*
X139010164Y-115858861D01*
X138914311Y-115901151D01*
X138826837Y-115939669D01*
X138749225Y-115973766D01*
X138682958Y-116002789D01*
X138629519Y-116026089D01*
X138590392Y-116043014D01*
X138567059Y-116052913D01*
X138560781Y-116055339D01*
X138563611Y-116049168D01*
X138577696Y-116033408D01*
X138589687Y-116021451D01*
X138641109Y-115971790D01*
X138700257Y-115914585D01*
X138765606Y-115851317D01*
X138835633Y-115783466D01*
X138908812Y-115712515D01*
X138983619Y-115639943D01*
X139058529Y-115567232D01*
X139132017Y-115495862D01*
X139202559Y-115427316D01*
X139268629Y-115363073D01*
X139328703Y-115304614D01*
X139381257Y-115253422D01*
X139424765Y-115210976D01*
X139457703Y-115178758D01*
X139478547Y-115158249D01*
X139484418Y-115152379D01*
X139527272Y-115108677D01*
X139527272Y-114201277D01*
X140251000Y-114201277D01*
X140261910Y-114205817D01*
X140289898Y-114215848D01*
X140332855Y-114230657D01*
X140388669Y-114249531D01*
X140455230Y-114271759D01*
X140530427Y-114296627D01*
X140612150Y-114323423D01*
X140632608Y-114330097D01*
X141006900Y-114452081D01*
X141172068Y-114738337D01*
X141211910Y-114806947D01*
X141248683Y-114869426D01*
X141281161Y-114923761D01*
X141308120Y-114967936D01*
X141328337Y-114999936D01*
X141340586Y-115017746D01*
X141343699Y-115020757D01*
X141350134Y-115011405D01*
X141365377Y-114986667D01*
X141388184Y-114948638D01*
X141417312Y-114899415D01*
X141451517Y-114841096D01*
X141489556Y-114775777D01*
X141513439Y-114734552D01*
X141676717Y-114452182D01*
X142051479Y-114330040D01*
X142134519Y-114302865D01*
X142211548Y-114277448D01*
X142280456Y-114254498D01*
X142339133Y-114234729D01*
X142385470Y-114218852D01*
X142417356Y-114207580D01*
X142432681Y-114201624D01*
X142433670Y-114201056D01*
X142427584Y-114195576D01*
X142405598Y-114185562D01*
X142371094Y-114172390D01*
X142327453Y-114157436D01*
X142322753Y-114155907D01*
X142280148Y-114142070D01*
X142222521Y-114123288D01*
X142154008Y-114100913D01*
X142078745Y-114076295D01*
X142000868Y-114050787D01*
X141940081Y-114030850D01*
X141675755Y-113944101D01*
X141511538Y-113658817D01*
X141471854Y-113590133D01*
X141435319Y-113527388D01*
X141403151Y-113472635D01*
X141376567Y-113427928D01*
X141356785Y-113395322D01*
X141345025Y-113376869D01*
X141342278Y-113373435D01*
X141336209Y-113381814D01*
X141321317Y-113405636D01*
X141298822Y-113442854D01*
X141269945Y-113491422D01*
X141235903Y-113549293D01*
X141197918Y-113614422D01*
X141171913Y-113659294D01*
X141006588Y-113945250D01*
X140625135Y-114069845D01*
X140542021Y-114097216D01*
X140465509Y-114122844D01*
X140397586Y-114146031D01*
X140340241Y-114166078D01*
X140295459Y-114182288D01*
X140265228Y-114193963D01*
X140251535Y-114200404D01*
X140251000Y-114201277D01*
X139527272Y-114201277D01*
X139527272Y-114198168D01*
X139527272Y-113287660D01*
X139706147Y-113108577D01*
X139885022Y-112929495D01*
X141339677Y-112929495D01*
X142794332Y-112929495D01*
X143451629Y-112637300D01*
X143559928Y-112589224D01*
X143662755Y-112543707D01*
X143758641Y-112501390D01*
X143846118Y-112462917D01*
X143923716Y-112428930D01*
X143989965Y-112400070D01*
X144043397Y-112376980D01*
X144082542Y-112360302D01*
X144105931Y-112350679D01*
X144112319Y-112348497D01*
X144105909Y-112355955D01*
G37*
%TD*%
D11*
%TO.C,R8*%
X166000000Y-107500000D03*
X166000000Y-106480000D03*
%TD*%
D12*
%TO.C,R3*%
X157980002Y-103600000D03*
X159000000Y-103600000D03*
%TD*%
D11*
%TO.C,R7*%
X163000000Y-107510000D03*
X163000000Y-106490000D03*
%TD*%
D13*
%TO.C,R6*%
X136377500Y-83450000D03*
X137397500Y-83450000D03*
%TD*%
D12*
%TO.C,R5*%
X137397500Y-81050000D03*
X136377500Y-81050000D03*
%TD*%
D14*
%TO.C,R4*%
X165000000Y-103490000D03*
X165000000Y-104510000D03*
%TD*%
D15*
%TO.C,D4*%
X148600000Y-82200000D03*
X144600000Y-82200000D03*
%TD*%
D16*
%TO.C,U3*%
X171137500Y-99037499D03*
X171137500Y-100937499D03*
X168862500Y-100937499D03*
X168862500Y-99987499D03*
X168862500Y-99037499D03*
%TD*%
D17*
%TO.C,C16*%
X171200000Y-97149999D03*
X171200000Y-95250001D03*
%TD*%
D18*
%TO.C,J5*%
X118885787Y-94300000D03*
X118885787Y-94800000D03*
X118885787Y-96300000D03*
X118885787Y-95800000D03*
X118885787Y-91300000D03*
X118885787Y-90800000D03*
D19*
X116535787Y-89150000D03*
X116535787Y-103950000D03*
D18*
X118885787Y-100800000D03*
X118885787Y-101800000D03*
X118885787Y-91800000D03*
X118885787Y-95300000D03*
X118885787Y-96800000D03*
X118885787Y-97300000D03*
X118885787Y-93300000D03*
X118885787Y-93800000D03*
X118885787Y-98300000D03*
X118885787Y-102300000D03*
X118885787Y-99300000D03*
X118885787Y-97800000D03*
X118885787Y-92800000D03*
X118885787Y-92300000D03*
X118885787Y-99800000D03*
X118885787Y-100300000D03*
X118885787Y-101300000D03*
X118885787Y-98800000D03*
%TD*%
D20*
%TO.C,C7*%
X141650000Y-100800000D03*
X143550000Y-100800000D03*
%TD*%
D21*
%TO.C,D5*%
X148600000Y-86800000D03*
X144599998Y-86800000D03*
%TD*%
D22*
%TO.C,D1*%
X154000000Y-99999999D03*
X154000000Y-104000001D03*
%TD*%
D23*
%TO.C,SW4*%
X173000000Y-114545028D03*
X176090056Y-111454972D03*
%TD*%
D20*
%TO.C,C13*%
X139937500Y-85050000D03*
X141837500Y-85050000D03*
%TD*%
%TO.C,C3*%
X141650001Y-111200000D03*
X143549999Y-111200000D03*
%TD*%
%TO.C,C9*%
X141650000Y-95600000D03*
X143550000Y-95600000D03*
%TD*%
D17*
%TO.C,C11*%
X154000000Y-85250001D03*
X154000000Y-87149999D03*
%TD*%
D24*
%TO.C,USB-C*%
X161360000Y-110395000D03*
X167140000Y-110395000D03*
D25*
X161050000Y-109275000D03*
X161850000Y-109275000D03*
D26*
X163000000Y-109275000D03*
X164000000Y-109275000D03*
X164500000Y-109275000D03*
X165500000Y-109275000D03*
D25*
X166650000Y-109275000D03*
X167450000Y-109275000D03*
X167450000Y-109275000D03*
X166650000Y-109275000D03*
D26*
X166000000Y-109275000D03*
X165000000Y-109275000D03*
X163500000Y-109275000D03*
X162500000Y-109275000D03*
D25*
X161850000Y-109275000D03*
X161050000Y-109275000D03*
D27*
X159930000Y-109875000D03*
D28*
X159930000Y-114075000D03*
D27*
X168570000Y-109875000D03*
D28*
X168570000Y-114075000D03*
%TD*%
D29*
%TO.C,Q1*%
X139800000Y-81600000D03*
X139800000Y-82900000D03*
X141575000Y-82250000D03*
%TD*%
D22*
%TO.C,D3*%
X162000000Y-99999999D03*
X162000000Y-104000001D03*
%TD*%
D30*
%TO.C,U2*%
X158949999Y-99862500D03*
X158000000Y-99862500D03*
X157050001Y-99862500D03*
X157050001Y-102137500D03*
X158949999Y-102137500D03*
%TD*%
D20*
%TO.C,C8*%
X141650000Y-98200000D03*
X143550000Y-98200000D03*
%TD*%
D31*
%TO.C,ESP32 S3 MINI 1*%
X161750000Y-77050000D03*
X161750000Y-77900000D03*
X161750000Y-78750000D03*
X161750000Y-79600000D03*
X161750000Y-80450000D03*
X161750000Y-81300000D03*
X161750000Y-82150000D03*
X161750000Y-83000000D03*
X161750000Y-83850000D03*
X161750000Y-84700000D03*
X161750000Y-85550000D03*
X161750000Y-86400000D03*
X161750000Y-87250000D03*
X161750000Y-88100000D03*
X161750000Y-88950000D03*
D32*
X162800000Y-90000000D03*
X163650000Y-90000000D03*
X164500000Y-90000000D03*
X165350000Y-90000000D03*
X166200000Y-90000000D03*
X167050000Y-90000000D03*
X167900000Y-90000000D03*
X168750000Y-90000000D03*
X169600000Y-90000000D03*
X170450000Y-90000000D03*
X171300000Y-90000000D03*
X172150000Y-90000000D03*
X173000000Y-90000000D03*
X173850000Y-90000000D03*
X174700000Y-90000000D03*
D31*
X175750000Y-88950000D03*
X175750000Y-88100000D03*
X175750000Y-87250000D03*
X175750000Y-86400000D03*
X175750000Y-85550000D03*
X175750000Y-84700000D03*
X175750000Y-83850000D03*
X175750000Y-83000000D03*
X175750000Y-82150000D03*
X175750000Y-81300000D03*
X175750000Y-80450000D03*
X175750000Y-79600000D03*
X175750000Y-78750000D03*
X175750000Y-77900000D03*
X175750000Y-77050000D03*
D32*
X174700000Y-76000000D03*
X173850000Y-76000000D03*
X173000000Y-76000000D03*
X172150000Y-76000000D03*
X171300000Y-76000000D03*
X170450000Y-76000000D03*
X169600000Y-76000000D03*
X168750000Y-76000000D03*
X167900000Y-76000000D03*
X167050000Y-76000000D03*
X166200000Y-76000000D03*
X165350000Y-76000000D03*
X164500000Y-76000000D03*
X163650000Y-76000000D03*
X162800000Y-76000000D03*
D33*
X167100000Y-81350000D03*
D34*
X167100000Y-83000000D03*
X167100000Y-84650000D03*
X168750000Y-81350000D03*
X168750000Y-83000000D03*
X168750000Y-84650000D03*
X170400000Y-81350000D03*
X170400000Y-83000000D03*
X170400000Y-84650000D03*
D35*
X161750000Y-76000000D03*
X161750000Y-90000000D03*
X175750000Y-90000000D03*
X175750000Y-76000000D03*
%TD*%
D36*
%TO.C,IO pins*%
X182000000Y-82840000D03*
X182000000Y-85380000D03*
X182000000Y-87920000D03*
X182000000Y-80300000D03*
X182000000Y-90460000D03*
X182000000Y-93000000D03*
X182000000Y-95540000D03*
D37*
X182000000Y-77760000D03*
%TD*%
D38*
%TO.C,D6*%
X148600000Y-109000001D03*
X148600000Y-104999999D03*
%TD*%
D39*
%TO.C,C15*%
X166000000Y-99949999D03*
X166000000Y-98050001D03*
%TD*%
D20*
%TO.C,C4*%
X141650001Y-108600000D03*
X143549999Y-108600000D03*
%TD*%
D40*
%TO.C,SW3*%
X182545028Y-104954972D03*
X179454972Y-108045028D03*
%TD*%
D20*
%TO.C,C10*%
X134050000Y-97200000D03*
X135950000Y-97200000D03*
%TD*%
D41*
%TO.C,J3*%
X154000000Y-110550000D03*
D42*
X156000000Y-110550000D03*
%TD*%
D20*
%TO.C,C14*%
X139937500Y-87450000D03*
X141837500Y-87450000D03*
%TD*%
%TO.C,C2*%
X157050000Y-96000000D03*
X158950000Y-96000000D03*
%TD*%
D43*
%TO.C,D2*%
X166500000Y-103212499D03*
X166500000Y-104787501D03*
%TD*%
D20*
%TO.C,C5*%
X141650001Y-106000000D03*
X143549999Y-106000000D03*
%TD*%
D44*
%TO.C,C1*%
X157949999Y-107000000D03*
X156050001Y-107000000D03*
%TD*%
D17*
%TO.C,C12*%
X157600000Y-85250001D03*
X157600000Y-87149999D03*
%TD*%
D45*
%TO.C,L1*%
X157750000Y-80000000D03*
X153250000Y-80000000D03*
%TD*%
D20*
%TO.C,C6*%
X141650001Y-103400000D03*
X143549999Y-103400000D03*
%TD*%
M02*
