%TF.GenerationSoftware,KiCad,Pcbnew,10.0.3*%
%TF.CreationDate,2026-07-15T17:23:03-04:00*%
%TF.ProjectId,watch,77617463-682e-46b6-9963-61645f706362,rev?*%
%TF.SameCoordinates,Original*%
%TF.FileFunction,Copper,L2,Bot*%
%TF.FilePolarity,Positive*%
%FSLAX46Y46*%
G04 Gerber Fmt 4.6, Leading zero omitted, Abs format (unit mm)*
G04 Created by KiCad (PCBNEW 10.0.3) date 2026-07-15 17:23:03*
%MOMM*%
%LPD*%
G01*
G04 APERTURE LIST*
G04 Aperture macros list*
%AMRoundRect*
0 Rectangle with rounded corners*
0 $1 Rounding radius*
0 $2 $3 $4 $5 $6 $7 $8 $9 X,Y pos of 4 corners*
0 Add a 4 corners polygon primitive as box body*
4,1,4,$2,$3,$4,$5,$6,$7,$8,$9,$2,$3,0*
0 Add four circle primitives for the rounded corners*
1,1,$1+$1,$2,$3*
1,1,$1+$1,$4,$5*
1,1,$1+$1,$6,$7*
1,1,$1+$1,$8,$9*
0 Add four rect primitives between the rounded corners*
20,1,$1+$1,$2,$3,$4,$5,0*
20,1,$1+$1,$4,$5,$6,$7,0*
20,1,$1+$1,$6,$7,$8,$9,0*
20,1,$1+$1,$8,$9,$2,$3,0*%
G04 Aperture macros list end*
%TA.AperFunction,EtchedComponent*%
%ADD10C,0.000000*%
%TD*%
%TA.AperFunction,ComponentPad*%
%ADD11O,1.000000X2.100000*%
%TD*%
%TA.AperFunction,ComponentPad*%
%ADD12O,1.000000X1.800000*%
%TD*%
%TA.AperFunction,ComponentPad*%
%ADD13C,1.700000*%
%TD*%
%TA.AperFunction,ComponentPad*%
%ADD14R,1.700000X1.700000*%
%TD*%
%TA.AperFunction,ComponentPad*%
%ADD15RoundRect,0.250000X-0.350000X-0.625000X0.350000X-0.625000X0.350000X0.625000X-0.350000X0.625000X0*%
%TD*%
%TA.AperFunction,ComponentPad*%
%ADD16O,1.200000X1.750000*%
%TD*%
%TA.AperFunction,SMDPad,CuDef*%
%ADD17RoundRect,0.237500X-0.237500X0.250000X-0.237500X-0.250000X0.237500X-0.250000X0.237500X0.250000X0*%
%TD*%
%TA.AperFunction,SMDPad,CuDef*%
%ADD18R,1.230000X1.860000*%
%TD*%
%TA.AperFunction,SMDPad,CuDef*%
%ADD19RoundRect,0.250000X-0.337500X-0.475000X0.337500X-0.475000X0.337500X0.475000X-0.337500X0.475000X0*%
%TD*%
%TA.AperFunction,SMDPad,CuDef*%
%ADD20RoundRect,0.237500X0.237500X-0.250000X0.237500X0.250000X-0.237500X0.250000X-0.237500X-0.250000X0*%
%TD*%
%TA.AperFunction,ViaPad*%
%ADD21C,0.600000*%
%TD*%
%TA.AperFunction,Conductor*%
%ADD22C,0.300000*%
%TD*%
%TA.AperFunction,Conductor*%
%ADD23C,0.200000*%
%TD*%
%TA.AperFunction,Conductor*%
%ADD24C,0.400000*%
%TD*%
G04 APERTURE END LIST*
D10*
%TA.AperFunction,EtchedComponent*%
%TO.C,G\u002A\u002A\u002A*%
G36*
X153033994Y-77908080D02*
G01*
X153407938Y-78275337D01*
X153414019Y-78281313D01*
X153527856Y-78394604D01*
X153622734Y-78491679D01*
X153693248Y-78566785D01*
X153733989Y-78614171D01*
X153739550Y-78628083D01*
X153705236Y-78614344D01*
X153628324Y-78581558D01*
X153522810Y-78535575D01*
X153400883Y-78481664D01*
X153310056Y-78441429D01*
X153160784Y-78375969D01*
X153020386Y-78315102D01*
X152910168Y-78268100D01*
X152715786Y-78186445D01*
X151620661Y-78186445D01*
X150525536Y-78186445D01*
X150382765Y-78049557D01*
X150239994Y-77912670D01*
X150239994Y-77216140D01*
X150822576Y-77216140D01*
X151108025Y-77306629D01*
X151393475Y-77397118D01*
X151484762Y-77558948D01*
X151494753Y-77576699D01*
X151559628Y-77691696D01*
X151604645Y-77760715D01*
X151638843Y-77785365D01*
X151671264Y-77767257D01*
X151710948Y-77708000D01*
X151766935Y-77609206D01*
X151888832Y-77394959D01*
X152172135Y-77306882D01*
X152455438Y-77218806D01*
X152171439Y-77123477D01*
X151887439Y-77028149D01*
X151765603Y-76814010D01*
X151643768Y-76599872D01*
X151595302Y-76680547D01*
X151576289Y-76712571D01*
X151525644Y-76799531D01*
X151472205Y-76892848D01*
X151454248Y-76923991D01*
X151420463Y-76974111D01*
X151381220Y-77011223D01*
X151324452Y-77042907D01*
X151238093Y-77076742D01*
X151110075Y-77120307D01*
X150822576Y-77216140D01*
X150239994Y-77216140D01*
X150239994Y-77213280D01*
X150239994Y-76513891D01*
X149872060Y-76161176D01*
X149762070Y-76054813D01*
X149660478Y-75954628D01*
X149581157Y-75874261D01*
X149530348Y-75820042D01*
X149514288Y-75798299D01*
X149515132Y-75798071D01*
X149548792Y-75808697D01*
X149624816Y-75838918D01*
X149735219Y-75885380D01*
X149872016Y-75944733D01*
X150027223Y-76013624D01*
X150529995Y-76239111D01*
X151646970Y-76239111D01*
X152763944Y-76239111D01*
X152898969Y-76372106D01*
X153033994Y-76505101D01*
X153033994Y-77206590D01*
X153033994Y-77218806D01*
X153033994Y-77908080D01*
G37*
%TD.AperFunction*%
%TD*%
D11*
%TO.P,USB-C,SH,SHIELD_SH*%
%TO.N,GND*%
X135480000Y-104650000D03*
D12*
X135480000Y-108850000D03*
D11*
X144120000Y-104650000D03*
D12*
X144120000Y-108850000D03*
%TD*%
D13*
%TO.P,IO Pins,1,Pin_3_1*%
%TO.N,/IO1*%
X181800000Y-81240000D03*
%TO.P,IO Pins,2,Pin_4_2*%
%TO.N,/IO2*%
X181800000Y-83780000D03*
%TO.P,IO Pins,3,Pin_5_3*%
%TO.N,/IO3*%
X181800000Y-86320000D03*
%TO.P,IO Pins,3V3,Pin_1_3V3*%
%TO.N,+3V3*%
X181800000Y-78700000D03*
%TO.P,IO Pins,4,Pin_6_4*%
%TO.N,/IO4*%
X181800000Y-88860000D03*
%TO.P,IO Pins,5,Pin_7_5*%
%TO.N,/IO5*%
X181800000Y-91400000D03*
%TO.P,IO Pins,6,Pin_8_6*%
%TO.N,/IO6*%
X181800000Y-93940000D03*
D14*
%TO.P,IO Pins,GND,Pin_2_GND*%
%TO.N,GND*%
X181800000Y-76160000D03*
%TD*%
D15*
%TO.P,J3,1,Pin_1_1*%
%TO.N,GND*%
X162800000Y-105050000D03*
D16*
%TO.P,J3,2,Pin_2_2*%
%TO.N,Net-(D1-A)*%
X164800000Y-105050000D03*
%TD*%
D17*
%TO.P,R1,1*%
%TO.N,+3V3*%
X172200000Y-80137500D03*
%TO.P,R1,2*%
%TO.N,/RESET*%
X172200000Y-81962500D03*
%TD*%
D18*
%TO.P,BOOT,1,1_1*%
%TO.N,GND*%
X179385000Y-76450000D03*
%TO.P,BOOT,2,2_2*%
%TO.N,/BOOT*%
X175015000Y-76450000D03*
%TD*%
D19*
%TO.P,C19,1*%
%TO.N,/RESET*%
X174962500Y-84450000D03*
%TO.P,C19,2*%
%TO.N,GND*%
X177037500Y-84450000D03*
%TD*%
D20*
%TO.P,R2,1*%
%TO.N,+3V3*%
X172200000Y-77362500D03*
%TO.P,R2,2*%
%TO.N,/BOOT*%
X172200000Y-75537500D03*
%TD*%
D18*
%TO.P,RESET,1,1_1*%
%TO.N,GND*%
X179385000Y-81250000D03*
%TO.P,RESET,2,2_2*%
%TO.N,/RESET*%
X175015000Y-81250000D03*
%TD*%
D21*
%TO.N,VBUS*%
X136119999Y-102150000D03*
%TO.N,/RTC_CLKOUT*%
X148000000Y-79700000D03*
%TO.N,/RTC_INT*%
X148000000Y-80550000D03*
%TO.N,/RTC_SCL*%
X148000000Y-81450000D03*
%TO.N,/RTC_SDA*%
X148000000Y-82350000D03*
%TO.N,GND*%
X163900000Y-77200000D03*
X170000000Y-108500000D03*
X179900000Y-96400000D03*
X141800000Y-76700000D03*
X121500000Y-92250000D03*
X144850000Y-89800000D03*
X158000000Y-89200000D03*
X177200000Y-76400000D03*
X160400000Y-89200000D03*
X139800000Y-105600000D03*
X157200000Y-77400000D03*
X121500000Y-77000000D03*
X121500000Y-107500000D03*
X139800000Y-107500000D03*
X158400000Y-107600000D03*
X149000000Y-105000000D03*
X137700000Y-100300000D03*
X145000000Y-98900000D03*
X164200000Y-99900000D03*
%TO.N,VBUS*%
X139800000Y-102200000D03*
%TO.N,/D+*%
X140225000Y-96775000D03*
%TO.N,Net-(D1-K)*%
X135400000Y-97800000D03*
%TO.N,/PREVGL*%
X134250000Y-95250000D03*
%TO.N,Net-(D1-K)*%
X152700000Y-97800000D03*
%TO.N,/RTC_CLKOUT*%
X165100000Y-85300000D03*
%TO.N,/RTC_INT*%
X165100000Y-86200000D03*
%TO.N,/RTC_SDA*%
X165075000Y-87925000D03*
%TO.N,/RTC_SCL*%
X165100000Y-87125000D03*
%TO.N,/DC*%
X161100000Y-92200000D03*
%TO.N,/EPD_RST*%
X163100000Y-91400000D03*
%TO.N,/BUSY*%
X162400000Y-90600000D03*
%TO.N,/CLK*%
X130800000Y-92050000D03*
%TO.N,/D-*%
X168825000Y-87750000D03*
%TO.N,/D+*%
X169675000Y-87750000D03*
%TO.N,GND*%
X177200000Y-81250000D03*
%TO.N,/BUSY*%
X133800000Y-89050000D03*
%TO.N,/CS*%
X131550000Y-91300000D03*
X160400000Y-93050000D03*
%TO.N,/DC*%
X132300000Y-90550000D03*
%TO.N,/PREVGL*%
X128600000Y-100850000D03*
%TO.N,/EPD_RST*%
X133000000Y-89850000D03*
%TO.N,/CLK*%
X167200000Y-85650000D03*
%TO.N,/MOSI*%
X168050000Y-86550000D03*
X130050000Y-92800000D03*
%TO.N,/BUTTONB*%
X170600003Y-90450000D03*
X176550000Y-103800000D03*
%TO.N,Net-(D4-A)*%
X136000000Y-83250000D03*
X154400000Y-97050000D03*
X152200000Y-89850000D03*
X163000000Y-97000000D03*
%TO.N,/BOOT*%
X170000000Y-77250000D03*
%TO.N,/IO1*%
X160200000Y-79780790D03*
%TO.N,/IO2*%
X160200000Y-80650000D03*
%TO.N,/IO3*%
X160175735Y-81625735D03*
%TO.N,/IO4*%
X160200000Y-82500000D03*
%TO.N,/IO5*%
X160200000Y-83450000D03*
%TO.N,/IO6*%
X160200000Y-84450000D03*
%TO.N,/BUTTONA*%
X177550000Y-102800000D03*
X171550000Y-90450000D03*
%TO.N,/RESET*%
X173800000Y-80050000D03*
%TO.N,/D-*%
X139375000Y-96775000D03*
%TO.N,+3V3*%
X159300000Y-78800000D03*
%TD*%
%TO.N,VBUS*%
D22*
X136169999Y-102200000D02*
X139800000Y-102200000D01*
X136119999Y-102150000D02*
X136169999Y-102200000D01*
%TO.N,+3V3*%
X164950000Y-78850000D02*
X172800000Y-78850000D01*
X164900000Y-78800000D02*
X164950000Y-78850000D01*
X159300000Y-78800000D02*
X164900000Y-78800000D01*
%TO.N,/RTC_SDA*%
D23*
X153575000Y-87925000D02*
X165075000Y-87925000D01*
X148000000Y-82350000D02*
X153575000Y-87925000D01*
%TO.N,/RTC_SCL*%
X162175000Y-87125000D02*
X165100000Y-87125000D01*
X162150000Y-87100000D02*
X162175000Y-87125000D01*
X153650000Y-87100000D02*
X162150000Y-87100000D01*
X148000000Y-81450000D02*
X153650000Y-87100000D01*
%TO.N,/RTC_INT*%
X153650000Y-86200000D02*
X165100000Y-86200000D01*
X148000000Y-80550000D02*
X153650000Y-86200000D01*
%TO.N,/RTC_CLKOUT*%
X153600000Y-85300000D02*
X165100000Y-85300000D01*
X148000000Y-79700000D02*
X153600000Y-85300000D01*
%TO.N,/RTC_SDA*%
X165075000Y-87925000D02*
X165050000Y-87900000D01*
%TO.N,/DC*%
X161050000Y-92250000D02*
X161100000Y-92200000D01*
X134000000Y-92250000D02*
X161050000Y-92250000D01*
X132300000Y-90550000D02*
X134000000Y-92250000D01*
%TO.N,/D-*%
X169024999Y-87949999D02*
X168825000Y-87750000D01*
X169024999Y-90656803D02*
X169024999Y-87949999D01*
X164156802Y-95525000D02*
X169024999Y-90656803D01*
X140625000Y-95525000D02*
X164156802Y-95525000D01*
X139375000Y-96775000D02*
X140625000Y-95525000D01*
%TO.N,/D+*%
X169475001Y-90843197D02*
X169475001Y-87949999D01*
X164343198Y-95975000D02*
X169475001Y-90843197D01*
X169475001Y-87949999D02*
X169675000Y-87750000D01*
X140225000Y-96561397D02*
X140811397Y-95975000D01*
X140225000Y-96775000D02*
X140225000Y-96561397D01*
X140811397Y-95975000D02*
X164343198Y-95975000D01*
%TO.N,/PREVGL*%
X134200000Y-95250000D02*
X128600000Y-100850000D01*
X134250000Y-95250000D02*
X134200000Y-95250000D01*
%TO.N,Net-(D1-K)*%
D24*
X152700000Y-97800000D02*
X135400000Y-97800000D01*
%TO.N,/EPD_RST*%
D23*
X134600000Y-91450000D02*
X133000000Y-89850000D01*
X163050000Y-91450000D02*
X134600000Y-91450000D01*
X163100000Y-91400000D02*
X163050000Y-91450000D01*
%TO.N,/BUSY*%
X162350000Y-90650000D02*
X135400000Y-90650000D01*
X162400000Y-90600000D02*
X162350000Y-90650000D01*
X135400000Y-90650000D02*
X133800000Y-89050000D01*
%TO.N,/IO4*%
X174410000Y-88860000D02*
X181800000Y-88860000D01*
X160250000Y-82450000D02*
X168000000Y-82450000D01*
X168000000Y-82450000D02*
X174410000Y-88860000D01*
X160200000Y-82500000D02*
X160250000Y-82450000D01*
%TO.N,GND*%
X179385000Y-76450000D02*
X181510000Y-76450000D01*
X181510000Y-76450000D02*
X181800000Y-76160000D01*
%TO.N,+3V3*%
X172200000Y-80137500D02*
X172200000Y-79450000D01*
X172200000Y-77362500D02*
X172200000Y-78250000D01*
X172200000Y-79450000D02*
X172800000Y-78850000D01*
D22*
X181650000Y-78850000D02*
X181800000Y-78700000D01*
D23*
X172200000Y-78250000D02*
X172800000Y-78850000D01*
D22*
X172800000Y-78850000D02*
X181650000Y-78850000D01*
%TO.N,/CS*%
D23*
X133300000Y-93050000D02*
X131550000Y-91300000D01*
X160400000Y-93050000D02*
X133300000Y-93050000D01*
%TO.N,/MOSI*%
X163000000Y-94650000D02*
X131900000Y-94650000D01*
X131900000Y-94650000D02*
X130050000Y-92800000D01*
X168050000Y-86550000D02*
X168050000Y-89600000D01*
X168050000Y-89600000D02*
X163000000Y-94650000D01*
%TO.N,/BUTTONB*%
X170600003Y-90450000D02*
X170600003Y-97850003D01*
X170600003Y-97850003D02*
X176550000Y-103800000D01*
%TO.N,Net-(D4-A)*%
X162850000Y-97000000D02*
X163000000Y-97000000D01*
D22*
X154400000Y-97050000D02*
X162800000Y-97050000D01*
D23*
X162800000Y-97050000D02*
X162850000Y-97000000D01*
D22*
X145600000Y-83250000D02*
X152200000Y-89850000D01*
X136000000Y-83250000D02*
X145600000Y-83250000D01*
%TO.N,/BOOT*%
D23*
X175015000Y-76450000D02*
X173112500Y-76450000D01*
X172200000Y-75537500D02*
X171712500Y-75537500D01*
X173112500Y-76450000D02*
X172200000Y-75537500D01*
X171712500Y-75537500D02*
X170000000Y-77250000D01*
%TO.N,/IO1*%
X177400000Y-86050000D02*
X181800000Y-81650000D01*
X174600000Y-86050000D02*
X177400000Y-86050000D01*
X181800000Y-81650000D02*
X181800000Y-81240000D01*
X160200000Y-79780790D02*
X168330790Y-79780790D01*
X168330790Y-79780790D02*
X174600000Y-86050000D01*
%TO.N,/IO2*%
X178330000Y-87250000D02*
X181800000Y-83780000D01*
X168199998Y-80650000D02*
X174799998Y-87250000D01*
X160200000Y-80650000D02*
X168199998Y-80650000D01*
X174799998Y-87250000D02*
X178330000Y-87250000D01*
%TO.N,/IO3*%
X180070000Y-88050000D02*
X181800000Y-86320000D01*
X160175735Y-81625735D02*
X168175735Y-81625735D01*
X168175735Y-81625735D02*
X174600000Y-88050000D01*
X174600000Y-88050000D02*
X180070000Y-88050000D01*
%TO.N,/IO5*%
X167800000Y-83450000D02*
X175750000Y-91400000D01*
X175750000Y-91400000D02*
X181800000Y-91400000D01*
X160200000Y-83450000D02*
X167800000Y-83450000D01*
%TO.N,/IO6*%
X167600000Y-84450000D02*
X177090000Y-93940000D01*
X177090000Y-93940000D02*
X181800000Y-93940000D01*
X160200000Y-84450000D02*
X167600000Y-84450000D01*
%TO.N,/BUTTONA*%
X171550000Y-96800000D02*
X177550000Y-102800000D01*
X171550000Y-90450000D02*
X171550000Y-96800000D01*
%TO.N,/RESET*%
X175000000Y-81250000D02*
X173800000Y-80050000D01*
X175015000Y-81250000D02*
X172912500Y-81250000D01*
X174962500Y-81302500D02*
X175015000Y-81250000D01*
X175015000Y-81250000D02*
X175000000Y-81250000D01*
X172912500Y-81250000D02*
X172200000Y-81962500D01*
X174962500Y-84450000D02*
X174962500Y-81302500D01*
%TO.N,/CLK*%
X167200000Y-89350002D02*
X167200000Y-85650000D01*
X132600000Y-93850000D02*
X162700002Y-93850000D01*
X162700002Y-93850000D02*
X167200000Y-89350002D01*
X130800000Y-92050000D02*
X132600000Y-93850000D01*
%TD*%
%TA.AperFunction,Conductor*%
%TO.N,GND*%
G36*
X171423487Y-74570185D02*
G01*
X171469242Y-74622989D01*
X171479186Y-74692147D01*
X171450161Y-74755703D01*
X171444129Y-74762181D01*
X171379661Y-74826648D01*
X171289093Y-74973481D01*
X171289091Y-74973486D01*
X171234824Y-75137253D01*
X171234675Y-75137950D01*
X171234465Y-75138337D01*
X171232697Y-75143673D01*
X171231744Y-75143357D01*
X171201383Y-75199378D01*
X171201107Y-75199655D01*
X169985339Y-76415425D01*
X169924016Y-76448910D01*
X169921850Y-76449361D01*
X169766508Y-76480261D01*
X169766498Y-76480264D01*
X169620827Y-76540602D01*
X169620814Y-76540609D01*
X169489711Y-76628210D01*
X169489707Y-76628213D01*
X169378213Y-76739707D01*
X169378210Y-76739711D01*
X169290609Y-76870814D01*
X169290602Y-76870827D01*
X169230264Y-77016498D01*
X169230261Y-77016510D01*
X169199500Y-77171153D01*
X169199500Y-77328846D01*
X169230261Y-77483489D01*
X169230264Y-77483501D01*
X169290602Y-77629172D01*
X169290609Y-77629185D01*
X169378210Y-77760288D01*
X169378213Y-77760292D01*
X169489707Y-77871786D01*
X169489711Y-77871789D01*
X169620814Y-77959390D01*
X169620821Y-77959394D01*
X169624549Y-77960938D01*
X169678953Y-78004778D01*
X169701019Y-78071072D01*
X169683741Y-78138771D01*
X169632605Y-78186383D01*
X169577098Y-78199500D01*
X165174767Y-78199500D01*
X165171891Y-78199034D01*
X165170374Y-78199422D01*
X165158963Y-78196941D01*
X165135639Y-78193165D01*
X165131423Y-78191763D01*
X165089744Y-78174499D01*
X165071867Y-78170943D01*
X165064273Y-78169432D01*
X165064269Y-78169431D01*
X164964071Y-78149500D01*
X164964069Y-78149500D01*
X159804935Y-78149500D01*
X159737896Y-78129815D01*
X159736090Y-78128633D01*
X159679179Y-78090606D01*
X159679172Y-78090602D01*
X159533501Y-78030264D01*
X159533489Y-78030261D01*
X159378845Y-77999500D01*
X159378842Y-77999500D01*
X159221158Y-77999500D01*
X159221155Y-77999500D01*
X159066510Y-78030261D01*
X159066498Y-78030264D01*
X158920827Y-78090602D01*
X158920814Y-78090609D01*
X158789711Y-78178210D01*
X158789707Y-78178213D01*
X158678213Y-78289707D01*
X158678210Y-78289711D01*
X158590609Y-78420814D01*
X158590602Y-78420827D01*
X158530264Y-78566498D01*
X158530261Y-78566510D01*
X158499500Y-78721153D01*
X158499500Y-78878846D01*
X158530261Y-79033489D01*
X158530264Y-79033501D01*
X158590602Y-79179172D01*
X158590609Y-79179185D01*
X158678210Y-79310288D01*
X158678213Y-79310292D01*
X158789707Y-79421786D01*
X158789711Y-79421789D01*
X158920814Y-79509390D01*
X158920827Y-79509397D01*
X159066498Y-79569735D01*
X159066503Y-79569737D01*
X159221153Y-79600499D01*
X159221156Y-79600500D01*
X159275500Y-79600500D01*
X159342539Y-79620185D01*
X159388294Y-79672989D01*
X159399500Y-79724500D01*
X159399500Y-79859636D01*
X159430261Y-80014279D01*
X159430264Y-80014291D01*
X159492937Y-80165597D01*
X159490967Y-80166412D01*
X159503226Y-80225384D01*
X159491688Y-80264676D01*
X159492937Y-80265193D01*
X159430264Y-80416498D01*
X159430261Y-80416510D01*
X159399500Y-80571153D01*
X159399500Y-80728846D01*
X159430261Y-80883489D01*
X159430264Y-80883501D01*
X159490602Y-81029171D01*
X159490604Y-81029175D01*
X159490606Y-81029179D01*
X159490609Y-81029183D01*
X159490611Y-81029187D01*
X159505065Y-81050820D01*
X159525942Y-81117498D01*
X159507456Y-81184878D01*
X159505066Y-81188597D01*
X159466345Y-81246549D01*
X159466337Y-81246563D01*
X159405999Y-81392233D01*
X159405996Y-81392245D01*
X159375235Y-81546888D01*
X159375235Y-81704581D01*
X159405996Y-81859224D01*
X159405999Y-81859236D01*
X159466337Y-82004906D01*
X159466339Y-82004910D01*
X159466341Y-82004914D01*
X159466344Y-82004919D01*
X159466345Y-82004920D01*
X159474136Y-82016581D01*
X159495012Y-82083259D01*
X159485593Y-82132921D01*
X159430264Y-82266498D01*
X159430261Y-82266510D01*
X159399500Y-82421153D01*
X159399500Y-82578846D01*
X159430261Y-82733489D01*
X159430264Y-82733501D01*
X159490602Y-82879171D01*
X159490604Y-82879175D01*
X159490606Y-82879179D01*
X159490609Y-82879184D01*
X159490610Y-82879185D01*
X159508601Y-82906112D01*
X159529477Y-82972790D01*
X159510991Y-83040169D01*
X159508601Y-83043888D01*
X159490610Y-83070814D01*
X159490602Y-83070828D01*
X159430264Y-83216498D01*
X159430261Y-83216510D01*
X159399500Y-83371153D01*
X159399500Y-83528846D01*
X159430261Y-83683489D01*
X159430264Y-83683501D01*
X159490602Y-83829172D01*
X159490609Y-83829185D01*
X159525304Y-83881109D01*
X159546182Y-83947786D01*
X159527698Y-84015167D01*
X159525304Y-84018891D01*
X159490609Y-84070814D01*
X159490602Y-84070827D01*
X159430264Y-84216498D01*
X159430261Y-84216510D01*
X159399500Y-84371153D01*
X159399500Y-84528841D01*
X159403969Y-84551310D01*
X159397740Y-84620901D01*
X159354877Y-84676078D01*
X159288987Y-84699322D01*
X159282351Y-84699500D01*
X153900097Y-84699500D01*
X153833058Y-84679815D01*
X153812416Y-84663181D01*
X148834574Y-79685339D01*
X148801089Y-79624016D01*
X148800638Y-79621849D01*
X148778269Y-79509397D01*
X148769737Y-79466503D01*
X148745428Y-79407816D01*
X148709397Y-79320827D01*
X148709390Y-79320814D01*
X148621789Y-79189711D01*
X148621786Y-79189707D01*
X148510292Y-79078213D01*
X148510288Y-79078210D01*
X148379185Y-78990609D01*
X148379172Y-78990602D01*
X148233501Y-78930264D01*
X148233489Y-78930261D01*
X148078845Y-78899500D01*
X148078842Y-78899500D01*
X147921158Y-78899500D01*
X147921155Y-78899500D01*
X147766510Y-78930261D01*
X147766498Y-78930264D01*
X147620827Y-78990602D01*
X147620814Y-78990609D01*
X147489711Y-79078210D01*
X147489707Y-79078213D01*
X147378213Y-79189707D01*
X147378210Y-79189711D01*
X147290609Y-79320814D01*
X147290602Y-79320827D01*
X147230264Y-79466498D01*
X147230261Y-79466510D01*
X147199500Y-79621153D01*
X147199500Y-79778846D01*
X147230261Y-79933489D01*
X147230264Y-79933501D01*
X147289930Y-80077548D01*
X147297399Y-80147017D01*
X147289930Y-80172452D01*
X147230264Y-80316498D01*
X147230261Y-80316510D01*
X147199500Y-80471153D01*
X147199500Y-80628846D01*
X147230261Y-80783489D01*
X147230264Y-80783501D01*
X147290604Y-80929177D01*
X147290605Y-80929179D01*
X147291899Y-80931115D01*
X147292264Y-80932282D01*
X147293476Y-80934549D01*
X147293045Y-80934778D01*
X147312773Y-80997794D01*
X147294285Y-81065173D01*
X147291899Y-81068885D01*
X147290605Y-81070820D01*
X147290604Y-81070822D01*
X147230264Y-81216498D01*
X147230261Y-81216510D01*
X147199500Y-81371153D01*
X147199500Y-81528846D01*
X147230261Y-81683489D01*
X147230264Y-81683501D01*
X147290604Y-81829177D01*
X147290605Y-81829179D01*
X147291899Y-81831115D01*
X147292264Y-81832282D01*
X147293476Y-81834549D01*
X147293045Y-81834778D01*
X147312773Y-81897794D01*
X147294285Y-81965173D01*
X147291899Y-81968885D01*
X147290605Y-81970820D01*
X147290604Y-81970822D01*
X147230264Y-82116498D01*
X147230261Y-82116510D01*
X147199500Y-82271153D01*
X147199500Y-82428846D01*
X147230261Y-82583489D01*
X147230264Y-82583501D01*
X147290602Y-82729172D01*
X147290609Y-82729185D01*
X147378210Y-82860288D01*
X147378213Y-82860292D01*
X147489707Y-82971786D01*
X147489711Y-82971789D01*
X147620814Y-83059390D01*
X147620827Y-83059397D01*
X147766498Y-83119735D01*
X147766503Y-83119737D01*
X147831147Y-83132595D01*
X147921849Y-83150638D01*
X147983760Y-83183023D01*
X147985338Y-83184573D01*
X153206284Y-88405520D01*
X153206286Y-88405521D01*
X153206290Y-88405524D01*
X153343209Y-88484573D01*
X153343216Y-88484577D01*
X153495943Y-88525501D01*
X153495945Y-88525501D01*
X153661654Y-88525501D01*
X153661670Y-88525500D01*
X164495234Y-88525500D01*
X164562273Y-88545185D01*
X164564125Y-88546398D01*
X164695814Y-88634390D01*
X164695827Y-88634397D01*
X164841498Y-88694735D01*
X164841503Y-88694737D01*
X164996153Y-88725499D01*
X164996156Y-88725500D01*
X164996158Y-88725500D01*
X165153844Y-88725500D01*
X165153845Y-88725499D01*
X165308497Y-88694737D01*
X165454179Y-88634394D01*
X165585289Y-88546789D01*
X165696789Y-88435289D01*
X165784394Y-88304179D01*
X165844737Y-88158497D01*
X165875500Y-88003842D01*
X165875500Y-87846158D01*
X165875500Y-87846155D01*
X165875499Y-87846153D01*
X165847412Y-87704951D01*
X165844737Y-87691503D01*
X165807924Y-87602630D01*
X165800456Y-87533161D01*
X165807925Y-87507726D01*
X165869735Y-87358501D01*
X165869737Y-87358497D01*
X165900500Y-87203842D01*
X165900500Y-87046158D01*
X165900500Y-87046155D01*
X165900499Y-87046153D01*
X165896852Y-87027820D01*
X165869737Y-86891503D01*
X165811453Y-86750791D01*
X165809396Y-86745825D01*
X165809395Y-86745823D01*
X165809394Y-86745821D01*
X165799752Y-86731390D01*
X165778873Y-86664717D01*
X165797356Y-86597336D01*
X165799726Y-86593647D01*
X165809394Y-86579179D01*
X165869737Y-86433497D01*
X165900500Y-86278842D01*
X165900500Y-86121158D01*
X165900500Y-86121155D01*
X165900499Y-86121153D01*
X165882204Y-86029179D01*
X165869737Y-85966503D01*
X165850025Y-85918913D01*
X165809397Y-85820827D01*
X165809395Y-85820824D01*
X165809394Y-85820821D01*
X165808103Y-85818889D01*
X165807737Y-85817723D01*
X165806525Y-85815454D01*
X165806955Y-85815223D01*
X165787226Y-85752214D01*
X165805710Y-85684834D01*
X165808077Y-85681149D01*
X165809394Y-85679179D01*
X165869737Y-85533497D01*
X165900500Y-85378842D01*
X165900500Y-85221158D01*
X165896031Y-85198690D01*
X165902260Y-85129099D01*
X165945123Y-85073922D01*
X166011013Y-85050678D01*
X166017649Y-85050500D01*
X166405832Y-85050500D01*
X166472871Y-85070185D01*
X166518626Y-85122989D01*
X166528570Y-85192147D01*
X166508933Y-85243392D01*
X166490610Y-85270812D01*
X166490602Y-85270827D01*
X166430264Y-85416498D01*
X166430261Y-85416510D01*
X166399500Y-85571153D01*
X166399500Y-85728846D01*
X166430261Y-85883489D01*
X166430264Y-85883501D01*
X166490602Y-86029172D01*
X166490609Y-86029185D01*
X166578602Y-86160874D01*
X166599480Y-86227551D01*
X166599500Y-86229765D01*
X166599500Y-89049905D01*
X166579815Y-89116944D01*
X166563181Y-89137586D01*
X164109735Y-91591031D01*
X164048412Y-91624516D01*
X163978720Y-91619532D01*
X163922787Y-91577660D01*
X163898370Y-91512196D01*
X163900077Y-91484924D01*
X163899903Y-91484907D01*
X163900384Y-91480017D01*
X163900439Y-91479147D01*
X163900500Y-91478840D01*
X163900500Y-91321155D01*
X163900499Y-91321153D01*
X163881462Y-91225447D01*
X163869737Y-91166503D01*
X163813099Y-91029765D01*
X163809397Y-91020827D01*
X163809390Y-91020814D01*
X163721789Y-90889711D01*
X163721786Y-90889707D01*
X163610292Y-90778213D01*
X163610288Y-90778210D01*
X163479185Y-90690609D01*
X163479172Y-90690602D01*
X163333501Y-90630264D01*
X163333492Y-90630261D01*
X163298878Y-90623376D01*
X163236967Y-90590990D01*
X163202394Y-90530273D01*
X163201454Y-90525951D01*
X163169738Y-90366508D01*
X163169737Y-90366507D01*
X163169737Y-90366503D01*
X163169153Y-90365093D01*
X163109397Y-90220827D01*
X163109390Y-90220814D01*
X163021789Y-90089711D01*
X163021786Y-90089707D01*
X162910292Y-89978213D01*
X162910288Y-89978210D01*
X162779185Y-89890609D01*
X162779172Y-89890602D01*
X162633501Y-89830264D01*
X162633489Y-89830261D01*
X162478845Y-89799500D01*
X162478842Y-89799500D01*
X162321158Y-89799500D01*
X162321155Y-89799500D01*
X162166510Y-89830261D01*
X162166498Y-89830264D01*
X162020827Y-89890602D01*
X162020814Y-89890609D01*
X161889711Y-89978210D01*
X161889707Y-89978213D01*
X161854742Y-90013180D01*
X161793420Y-90046666D01*
X161767060Y-90049500D01*
X153124500Y-90049500D01*
X153057461Y-90029815D01*
X153011706Y-89977011D01*
X153000500Y-89925500D01*
X153000500Y-89771155D01*
X153000499Y-89771153D01*
X152976419Y-89650097D01*
X152969737Y-89616503D01*
X152967399Y-89610858D01*
X152909397Y-89470827D01*
X152909390Y-89470814D01*
X152821789Y-89339711D01*
X152821786Y-89339707D01*
X152710292Y-89228213D01*
X152710288Y-89228210D01*
X152579185Y-89140609D01*
X152579172Y-89140602D01*
X152433501Y-89080264D01*
X152433489Y-89080261D01*
X152366420Y-89066920D01*
X152304509Y-89034535D01*
X152302930Y-89032984D01*
X146014674Y-82744727D01*
X146014673Y-82744726D01*
X146014669Y-82744723D01*
X145908127Y-82673535D01*
X145907681Y-82673350D01*
X145789742Y-82624498D01*
X145789739Y-82624497D01*
X145786216Y-82623797D01*
X145786210Y-82623796D01*
X145664071Y-82599500D01*
X145664069Y-82599500D01*
X136504935Y-82599500D01*
X136437896Y-82579815D01*
X136436090Y-82578633D01*
X136379179Y-82540606D01*
X136379172Y-82540602D01*
X136233501Y-82480264D01*
X136233489Y-82480261D01*
X136078845Y-82449500D01*
X136078842Y-82449500D01*
X135921158Y-82449500D01*
X135921155Y-82449500D01*
X135766510Y-82480261D01*
X135766498Y-82480264D01*
X135620827Y-82540602D01*
X135620814Y-82540609D01*
X135489711Y-82628210D01*
X135489707Y-82628213D01*
X135378213Y-82739707D01*
X135378210Y-82739711D01*
X135290609Y-82870814D01*
X135290602Y-82870827D01*
X135230264Y-83016498D01*
X135230261Y-83016510D01*
X135199500Y-83171153D01*
X135199500Y-83328846D01*
X135230261Y-83483489D01*
X135230264Y-83483501D01*
X135290602Y-83629172D01*
X135290609Y-83629185D01*
X135378210Y-83760288D01*
X135378213Y-83760292D01*
X135489707Y-83871786D01*
X135489711Y-83871789D01*
X135620814Y-83959390D01*
X135620827Y-83959397D01*
X135766498Y-84019735D01*
X135766503Y-84019737D01*
X135921153Y-84050499D01*
X135921156Y-84050500D01*
X135921158Y-84050500D01*
X136078844Y-84050500D01*
X136078845Y-84050499D01*
X136233497Y-84019737D01*
X136379179Y-83959394D01*
X136436044Y-83921397D01*
X136502721Y-83900520D01*
X136504935Y-83900500D01*
X145279192Y-83900500D01*
X145346231Y-83920185D01*
X145366873Y-83936819D01*
X151267873Y-89837819D01*
X151301358Y-89899142D01*
X151296374Y-89968834D01*
X151254502Y-90024767D01*
X151189038Y-90049184D01*
X151180192Y-90049500D01*
X135700098Y-90049500D01*
X135633059Y-90029815D01*
X135612417Y-90013181D01*
X134634573Y-89035337D01*
X134601088Y-88974014D01*
X134600637Y-88971847D01*
X134569738Y-88816510D01*
X134569738Y-88816508D01*
X134569737Y-88816503D01*
X134532043Y-88725500D01*
X134509397Y-88670827D01*
X134509390Y-88670814D01*
X134421789Y-88539711D01*
X134421786Y-88539707D01*
X134310292Y-88428213D01*
X134310288Y-88428210D01*
X134179185Y-88340609D01*
X134179172Y-88340602D01*
X134033501Y-88280264D01*
X134033489Y-88280261D01*
X133878845Y-88249500D01*
X133878842Y-88249500D01*
X133721158Y-88249500D01*
X133721155Y-88249500D01*
X133566510Y-88280261D01*
X133566498Y-88280264D01*
X133420827Y-88340602D01*
X133420814Y-88340609D01*
X133289711Y-88428210D01*
X133289707Y-88428213D01*
X133178213Y-88539707D01*
X133178210Y-88539711D01*
X133090609Y-88670814D01*
X133090602Y-88670827D01*
X133030264Y-88816498D01*
X133030261Y-88816508D01*
X133002665Y-88955240D01*
X132970280Y-89017151D01*
X132909564Y-89051725D01*
X132905240Y-89052665D01*
X132766508Y-89080261D01*
X132766498Y-89080264D01*
X132620827Y-89140602D01*
X132620814Y-89140609D01*
X132489711Y-89228210D01*
X132489707Y-89228213D01*
X132378213Y-89339707D01*
X132378210Y-89339711D01*
X132290609Y-89470814D01*
X132290602Y-89470827D01*
X132230264Y-89616498D01*
X132230262Y-89616505D01*
X132219256Y-89671833D01*
X132186870Y-89733743D01*
X132126153Y-89768316D01*
X132121833Y-89769256D01*
X132066505Y-89780262D01*
X132066498Y-89780264D01*
X131920827Y-89840602D01*
X131920814Y-89840609D01*
X131789711Y-89928210D01*
X131789707Y-89928213D01*
X131678213Y-90039707D01*
X131678210Y-90039711D01*
X131590609Y-90170814D01*
X131590602Y-90170827D01*
X131530264Y-90316498D01*
X131530261Y-90316508D01*
X131510961Y-90413536D01*
X131478576Y-90475447D01*
X131417860Y-90510021D01*
X131413536Y-90510961D01*
X131316508Y-90530261D01*
X131316498Y-90530264D01*
X131170827Y-90590602D01*
X131170814Y-90590609D01*
X131039711Y-90678210D01*
X131039707Y-90678213D01*
X130928213Y-90789707D01*
X130928210Y-90789711D01*
X130840609Y-90920814D01*
X130840602Y-90920827D01*
X130780264Y-91066498D01*
X130780261Y-91066508D01*
X130760961Y-91163536D01*
X130728576Y-91225447D01*
X130667860Y-91260021D01*
X130663536Y-91260961D01*
X130566508Y-91280261D01*
X130566498Y-91280264D01*
X130420827Y-91340602D01*
X130420814Y-91340609D01*
X130289711Y-91428210D01*
X130289707Y-91428213D01*
X130178213Y-91539707D01*
X130178210Y-91539711D01*
X130090609Y-91670814D01*
X130090602Y-91670827D01*
X130030264Y-91816498D01*
X130030261Y-91816508D01*
X130010961Y-91913536D01*
X129978576Y-91975447D01*
X129917860Y-92010021D01*
X129913536Y-92010961D01*
X129816508Y-92030261D01*
X129816498Y-92030264D01*
X129670827Y-92090602D01*
X129670814Y-92090609D01*
X129539711Y-92178210D01*
X129539707Y-92178213D01*
X129428213Y-92289707D01*
X129428210Y-92289711D01*
X129340609Y-92420814D01*
X129340602Y-92420827D01*
X129280264Y-92566498D01*
X129280261Y-92566510D01*
X129249500Y-92721153D01*
X129249500Y-92878846D01*
X129280261Y-93033489D01*
X129280264Y-93033501D01*
X129340602Y-93179172D01*
X129340609Y-93179185D01*
X129428210Y-93310288D01*
X129428213Y-93310292D01*
X129539707Y-93421786D01*
X129539711Y-93421789D01*
X129670814Y-93509390D01*
X129670827Y-93509397D01*
X129816498Y-93569735D01*
X129816503Y-93569737D01*
X129881147Y-93582595D01*
X129971849Y-93600638D01*
X130033760Y-93633023D01*
X130035339Y-93634574D01*
X131415139Y-95014374D01*
X131415149Y-95014385D01*
X131419479Y-95018715D01*
X131419480Y-95018716D01*
X131531284Y-95130520D01*
X131531286Y-95130521D01*
X131531290Y-95130524D01*
X131601667Y-95171156D01*
X131601671Y-95171157D01*
X131601672Y-95171158D01*
X131634943Y-95190367D01*
X131668212Y-95209576D01*
X131668214Y-95209576D01*
X131668215Y-95209577D01*
X131820943Y-95250500D01*
X131979057Y-95250500D01*
X133050903Y-95250500D01*
X133117942Y-95270185D01*
X133163697Y-95322989D01*
X133173641Y-95392147D01*
X133144616Y-95455703D01*
X133138584Y-95462181D01*
X128585339Y-100015425D01*
X128524016Y-100048910D01*
X128521850Y-100049361D01*
X128366508Y-100080261D01*
X128366498Y-100080264D01*
X128220827Y-100140602D01*
X128220814Y-100140609D01*
X128089711Y-100228210D01*
X128089707Y-100228213D01*
X127978213Y-100339707D01*
X127978210Y-100339711D01*
X127890609Y-100470814D01*
X127890602Y-100470827D01*
X127830264Y-100616498D01*
X127830261Y-100616510D01*
X127799500Y-100771153D01*
X127799500Y-100928846D01*
X127830261Y-101083489D01*
X127830264Y-101083501D01*
X127890602Y-101229172D01*
X127890609Y-101229185D01*
X127978210Y-101360288D01*
X127978213Y-101360292D01*
X128089707Y-101471786D01*
X128089711Y-101471789D01*
X128220814Y-101559390D01*
X128220827Y-101559397D01*
X128266254Y-101578213D01*
X128366503Y-101619737D01*
X128521153Y-101650499D01*
X128521156Y-101650500D01*
X128521158Y-101650500D01*
X128678844Y-101650500D01*
X128678845Y-101650499D01*
X128833497Y-101619737D01*
X128979179Y-101559394D01*
X129110289Y-101471789D01*
X129221789Y-101360289D01*
X129309394Y-101229179D01*
X129369737Y-101083497D01*
X129389113Y-100986085D01*
X129400638Y-100928150D01*
X129433023Y-100866239D01*
X129434518Y-100864716D01*
X134212416Y-96086819D01*
X134273739Y-96053334D01*
X134300097Y-96050500D01*
X134328844Y-96050500D01*
X134328845Y-96050499D01*
X134483497Y-96019737D01*
X134629179Y-95959394D01*
X134760289Y-95871789D01*
X134871789Y-95760289D01*
X134959394Y-95629179D01*
X135019737Y-95483497D01*
X135037908Y-95392147D01*
X135046231Y-95350308D01*
X135078616Y-95288397D01*
X135139332Y-95253823D01*
X135167848Y-95250500D01*
X139750903Y-95250500D01*
X139817942Y-95270185D01*
X139863697Y-95322989D01*
X139873641Y-95392147D01*
X139844616Y-95455703D01*
X139838584Y-95462181D01*
X139360339Y-95940425D01*
X139299016Y-95973910D01*
X139296850Y-95974361D01*
X139141508Y-96005261D01*
X139141498Y-96005264D01*
X138995827Y-96065602D01*
X138995814Y-96065609D01*
X138864711Y-96153210D01*
X138864707Y-96153213D01*
X138753213Y-96264707D01*
X138753210Y-96264711D01*
X138665609Y-96395814D01*
X138665602Y-96395827D01*
X138605264Y-96541498D01*
X138605261Y-96541510D01*
X138574500Y-96696153D01*
X138574500Y-96696158D01*
X138574500Y-96853842D01*
X138574500Y-96853844D01*
X138574499Y-96853844D01*
X138593887Y-96951308D01*
X138587660Y-97020900D01*
X138544797Y-97076077D01*
X138478907Y-97099322D01*
X138472270Y-97099500D01*
X135825316Y-97099500D01*
X135777864Y-97090061D01*
X135633501Y-97030264D01*
X135633489Y-97030261D01*
X135478845Y-96999500D01*
X135478842Y-96999500D01*
X135321158Y-96999500D01*
X135321155Y-96999500D01*
X135166510Y-97030261D01*
X135166498Y-97030264D01*
X135020827Y-97090602D01*
X135020814Y-97090609D01*
X134889711Y-97178210D01*
X134889707Y-97178213D01*
X134778213Y-97289707D01*
X134778210Y-97289711D01*
X134690609Y-97420814D01*
X134690602Y-97420827D01*
X134630264Y-97566498D01*
X134630261Y-97566510D01*
X134599500Y-97721153D01*
X134599500Y-97878846D01*
X134630261Y-98033489D01*
X134630264Y-98033501D01*
X134690602Y-98179172D01*
X134690609Y-98179185D01*
X134778210Y-98310288D01*
X134778213Y-98310292D01*
X134889707Y-98421786D01*
X134889711Y-98421789D01*
X135020814Y-98509390D01*
X135020827Y-98509397D01*
X135166498Y-98569735D01*
X135166503Y-98569737D01*
X135321153Y-98600499D01*
X135321156Y-98600500D01*
X135321158Y-98600500D01*
X135478844Y-98600500D01*
X135478845Y-98600499D01*
X135633497Y-98569737D01*
X135708963Y-98538478D01*
X135777864Y-98509939D01*
X135825316Y-98500500D01*
X152274684Y-98500500D01*
X152322136Y-98509939D01*
X152466498Y-98569735D01*
X152466503Y-98569737D01*
X152621153Y-98600499D01*
X152621156Y-98600500D01*
X152621158Y-98600500D01*
X152778844Y-98600500D01*
X152778845Y-98600499D01*
X152933497Y-98569737D01*
X153079179Y-98509394D01*
X153210289Y-98421789D01*
X153321789Y-98310289D01*
X153409394Y-98179179D01*
X153469737Y-98033497D01*
X153500500Y-97878842D01*
X153500500Y-97721158D01*
X153500500Y-97721155D01*
X153500499Y-97721153D01*
X153480734Y-97621789D01*
X153469737Y-97566503D01*
X153446452Y-97510288D01*
X153409397Y-97420827D01*
X153409390Y-97420814D01*
X153321789Y-97289711D01*
X153321786Y-97289707D01*
X153210292Y-97178213D01*
X153210288Y-97178210D01*
X153079185Y-97090609D01*
X153079172Y-97090602D01*
X152933501Y-97030264D01*
X152933489Y-97030261D01*
X152778845Y-96999500D01*
X152778842Y-96999500D01*
X152621158Y-96999500D01*
X152621155Y-96999500D01*
X152466510Y-97030261D01*
X152466498Y-97030264D01*
X152322136Y-97090061D01*
X152274684Y-97099500D01*
X141127730Y-97099500D01*
X141060691Y-97079815D01*
X141014936Y-97027011D01*
X141004992Y-96957853D01*
X141006113Y-96951308D01*
X141025500Y-96853844D01*
X141025500Y-96699500D01*
X141045185Y-96632461D01*
X141097989Y-96586706D01*
X141149500Y-96575500D01*
X153544510Y-96575500D01*
X153611549Y-96595185D01*
X153657304Y-96647989D01*
X153667248Y-96717147D01*
X153659071Y-96746952D01*
X153630264Y-96816498D01*
X153630261Y-96816510D01*
X153599500Y-96971153D01*
X153599500Y-97128846D01*
X153630261Y-97283489D01*
X153630264Y-97283501D01*
X153690602Y-97429172D01*
X153690609Y-97429185D01*
X153778210Y-97560288D01*
X153778213Y-97560292D01*
X153889707Y-97671786D01*
X153889711Y-97671789D01*
X154020814Y-97759390D01*
X154020827Y-97759397D01*
X154120060Y-97800500D01*
X154166503Y-97819737D01*
X154321153Y-97850499D01*
X154321156Y-97850500D01*
X154321158Y-97850500D01*
X154478844Y-97850500D01*
X154478845Y-97850499D01*
X154633497Y-97819737D01*
X154769626Y-97763351D01*
X154779172Y-97759397D01*
X154779172Y-97759396D01*
X154779179Y-97759394D01*
X154836044Y-97721397D01*
X154902721Y-97700520D01*
X154904935Y-97700500D01*
X162574684Y-97700500D01*
X162622136Y-97709939D01*
X162766498Y-97769735D01*
X162766503Y-97769737D01*
X162921153Y-97800499D01*
X162921156Y-97800500D01*
X162921158Y-97800500D01*
X163078844Y-97800500D01*
X163078845Y-97800499D01*
X163233497Y-97769737D01*
X163379179Y-97709394D01*
X163510289Y-97621789D01*
X163621789Y-97510289D01*
X163709394Y-97379179D01*
X163769737Y-97233497D01*
X163800500Y-97078842D01*
X163800500Y-96921158D01*
X163800500Y-96921155D01*
X163800499Y-96921153D01*
X163779684Y-96816510D01*
X163769737Y-96766503D01*
X163761639Y-96746952D01*
X163754170Y-96677483D01*
X163785445Y-96615004D01*
X163845534Y-96579352D01*
X163876200Y-96575500D01*
X164256529Y-96575500D01*
X164256545Y-96575501D01*
X164264141Y-96575501D01*
X164422252Y-96575501D01*
X164422255Y-96575501D01*
X164574983Y-96534577D01*
X164644010Y-96494724D01*
X164711914Y-96455520D01*
X164823718Y-96343716D01*
X164823718Y-96343714D01*
X164833922Y-96333511D01*
X164833926Y-96333506D01*
X169787822Y-91379610D01*
X169849145Y-91346125D01*
X169918837Y-91351109D01*
X169974770Y-91392981D01*
X169999187Y-91458445D01*
X169999503Y-91467291D01*
X169999503Y-97763333D01*
X169999502Y-97763351D01*
X169999502Y-97929057D01*
X169999501Y-97929057D01*
X170040426Y-98081790D01*
X170040427Y-98081791D01*
X170055631Y-98108124D01*
X170055633Y-98108127D01*
X170119480Y-98218715D01*
X170119484Y-98218720D01*
X170238352Y-98337588D01*
X170238358Y-98337593D01*
X175715425Y-103814660D01*
X175748910Y-103875983D01*
X175749361Y-103878149D01*
X175780261Y-104033491D01*
X175780264Y-104033501D01*
X175840602Y-104179172D01*
X175840609Y-104179185D01*
X175928210Y-104310288D01*
X175928213Y-104310292D01*
X176039707Y-104421786D01*
X176039711Y-104421789D01*
X176170814Y-104509390D01*
X176170827Y-104509397D01*
X176316498Y-104569735D01*
X176316503Y-104569737D01*
X176471153Y-104600499D01*
X176471156Y-104600500D01*
X176471158Y-104600500D01*
X176628844Y-104600500D01*
X176628845Y-104600499D01*
X176783497Y-104569737D01*
X176910087Y-104517302D01*
X176929172Y-104509397D01*
X176929172Y-104509396D01*
X176929179Y-104509394D01*
X177060289Y-104421789D01*
X177171789Y-104310289D01*
X177259394Y-104179179D01*
X177319737Y-104033497D01*
X177350500Y-103878842D01*
X177350500Y-103724500D01*
X177370185Y-103657461D01*
X177422989Y-103611706D01*
X177474500Y-103600500D01*
X177628844Y-103600500D01*
X177628845Y-103600499D01*
X177783497Y-103569737D01*
X177929179Y-103509394D01*
X178060289Y-103421789D01*
X178171789Y-103310289D01*
X178259394Y-103179179D01*
X178319737Y-103033497D01*
X178350500Y-102878842D01*
X178350500Y-102721158D01*
X178350500Y-102721155D01*
X178350499Y-102721153D01*
X178338392Y-102660288D01*
X178319737Y-102566503D01*
X178319735Y-102566498D01*
X178259397Y-102420827D01*
X178259390Y-102420814D01*
X178171789Y-102289711D01*
X178171786Y-102289707D01*
X178060292Y-102178213D01*
X178060288Y-102178210D01*
X177929185Y-102090609D01*
X177929172Y-102090602D01*
X177783501Y-102030264D01*
X177783491Y-102030261D01*
X177628149Y-101999361D01*
X177566238Y-101966976D01*
X177564660Y-101965425D01*
X172186819Y-96587584D01*
X172153334Y-96526261D01*
X172150500Y-96499903D01*
X172150500Y-91029765D01*
X172170185Y-90962726D01*
X172171398Y-90960874D01*
X172259390Y-90829185D01*
X172259390Y-90829184D01*
X172259394Y-90829179D01*
X172319737Y-90683497D01*
X172350500Y-90528842D01*
X172350500Y-90371158D01*
X172350500Y-90371155D01*
X172350438Y-90370844D01*
X172350452Y-90370677D01*
X172349903Y-90365093D01*
X172350961Y-90364988D01*
X172356665Y-90301252D01*
X172399528Y-90246075D01*
X172465417Y-90222830D01*
X172533414Y-90238897D01*
X172559734Y-90258969D01*
X176721284Y-94420520D01*
X176721286Y-94420521D01*
X176721290Y-94420524D01*
X176858209Y-94499573D01*
X176858216Y-94499577D01*
X177010943Y-94540501D01*
X177010945Y-94540501D01*
X177176654Y-94540501D01*
X177176670Y-94540500D01*
X180514281Y-94540500D01*
X180581320Y-94560185D01*
X180624765Y-94608205D01*
X180644947Y-94647814D01*
X180644948Y-94647815D01*
X180769890Y-94819786D01*
X180920213Y-94970109D01*
X181092179Y-95095048D01*
X181092181Y-95095049D01*
X181092184Y-95095051D01*
X181281588Y-95191557D01*
X181483757Y-95257246D01*
X181693713Y-95290500D01*
X181693714Y-95290500D01*
X181906286Y-95290500D01*
X181906287Y-95290500D01*
X182116243Y-95257246D01*
X182318412Y-95191557D01*
X182507816Y-95095051D01*
X182612887Y-95018713D01*
X182679786Y-94970109D01*
X182679788Y-94970106D01*
X182679792Y-94970104D01*
X182830104Y-94819792D01*
X182830106Y-94819788D01*
X182830109Y-94819786D01*
X182955048Y-94647820D01*
X182955047Y-94647820D01*
X182955051Y-94647816D01*
X183051557Y-94458412D01*
X183057569Y-94439907D01*
X183097006Y-94382232D01*
X183161365Y-94355034D01*
X183230211Y-94366949D01*
X183281687Y-94414193D01*
X183299500Y-94478226D01*
X183299500Y-99791324D01*
X183279815Y-99858363D01*
X183263181Y-99879005D01*
X173629005Y-109513181D01*
X173567682Y-109546666D01*
X173541324Y-109549500D01*
X145231111Y-109549500D01*
X145164072Y-109529815D01*
X145118317Y-109477011D01*
X145108373Y-109407853D01*
X145109494Y-109401308D01*
X145119999Y-109348492D01*
X145120000Y-109348492D01*
X145120000Y-109100000D01*
X144420000Y-109100000D01*
X144420000Y-108600000D01*
X145120000Y-108600000D01*
X145120000Y-108351508D01*
X145119999Y-108351504D01*
X145081572Y-108158318D01*
X145081569Y-108158306D01*
X145006192Y-107976328D01*
X145006185Y-107976315D01*
X144896751Y-107812537D01*
X144896748Y-107812533D01*
X144757466Y-107673251D01*
X144757462Y-107673248D01*
X144593684Y-107563814D01*
X144593671Y-107563807D01*
X144411691Y-107488429D01*
X144411683Y-107488427D01*
X144370000Y-107480135D01*
X144370000Y-108283011D01*
X144360060Y-108265795D01*
X144304205Y-108209940D01*
X144235796Y-108170444D01*
X144159496Y-108150000D01*
X144080504Y-108150000D01*
X144004204Y-108170444D01*
X143935795Y-108209940D01*
X143879940Y-108265795D01*
X143870000Y-108283011D01*
X143870000Y-107480136D01*
X143869999Y-107480135D01*
X143828316Y-107488427D01*
X143828308Y-107488429D01*
X143646328Y-107563807D01*
X143646315Y-107563814D01*
X143482537Y-107673248D01*
X143482533Y-107673251D01*
X143343251Y-107812533D01*
X143343248Y-107812537D01*
X143233814Y-107976315D01*
X143233807Y-107976328D01*
X143158430Y-108158306D01*
X143158427Y-108158318D01*
X143120000Y-108351504D01*
X143120000Y-108600000D01*
X143820000Y-108600000D01*
X143820000Y-109100000D01*
X143120000Y-109100000D01*
X143120000Y-109348492D01*
X143130506Y-109401308D01*
X143124279Y-109470900D01*
X143081416Y-109526077D01*
X143015527Y-109549322D01*
X143008889Y-109549500D01*
X136591111Y-109549500D01*
X136524072Y-109529815D01*
X136478317Y-109477011D01*
X136468373Y-109407853D01*
X136469494Y-109401308D01*
X136479999Y-109348492D01*
X136480000Y-109348492D01*
X136480000Y-109100000D01*
X135780000Y-109100000D01*
X135780000Y-108600000D01*
X136480000Y-108600000D01*
X136480000Y-108351508D01*
X136479999Y-108351504D01*
X136441572Y-108158318D01*
X136441569Y-108158306D01*
X136366192Y-107976328D01*
X136366185Y-107976315D01*
X136256751Y-107812537D01*
X136256748Y-107812533D01*
X136117466Y-107673251D01*
X136117462Y-107673248D01*
X135953684Y-107563814D01*
X135953671Y-107563807D01*
X135771691Y-107488429D01*
X135771683Y-107488427D01*
X135730000Y-107480135D01*
X135730000Y-108283011D01*
X135720060Y-108265795D01*
X135664205Y-108209940D01*
X135595796Y-108170444D01*
X135519496Y-108150000D01*
X135440504Y-108150000D01*
X135364204Y-108170444D01*
X135295795Y-108209940D01*
X135239940Y-108265795D01*
X135230000Y-108283011D01*
X135230000Y-107480136D01*
X135229999Y-107480135D01*
X135188316Y-107488427D01*
X135188308Y-107488429D01*
X135006328Y-107563807D01*
X135006315Y-107563814D01*
X134842537Y-107673248D01*
X134842533Y-107673251D01*
X134703251Y-107812533D01*
X134703248Y-107812537D01*
X134593814Y-107976315D01*
X134593807Y-107976328D01*
X134518430Y-108158306D01*
X134518427Y-108158318D01*
X134480000Y-108351504D01*
X134480000Y-108600000D01*
X135180000Y-108600000D01*
X135180000Y-109100000D01*
X134480000Y-109100000D01*
X134480000Y-109348492D01*
X134490506Y-109401308D01*
X134484279Y-109470900D01*
X134441416Y-109526077D01*
X134375527Y-109549322D01*
X134368889Y-109549500D01*
X121058676Y-109549500D01*
X120991637Y-109529815D01*
X120970995Y-109513181D01*
X118336819Y-106879005D01*
X118303334Y-106817682D01*
X118300500Y-106791324D01*
X118300500Y-104001504D01*
X134480000Y-104001504D01*
X134480000Y-104400000D01*
X135180000Y-104400000D01*
X135180000Y-104900000D01*
X134480000Y-104900000D01*
X134480000Y-105298495D01*
X134518427Y-105491681D01*
X134518430Y-105491693D01*
X134593807Y-105673671D01*
X134593814Y-105673684D01*
X134703248Y-105837462D01*
X134703251Y-105837466D01*
X134842533Y-105976748D01*
X134842537Y-105976751D01*
X135006315Y-106086185D01*
X135006328Y-106086192D01*
X135188308Y-106161569D01*
X135230000Y-106169862D01*
X135230000Y-105366988D01*
X135239940Y-105384205D01*
X135295795Y-105440060D01*
X135364204Y-105479556D01*
X135440504Y-105500000D01*
X135519496Y-105500000D01*
X135595796Y-105479556D01*
X135664205Y-105440060D01*
X135720060Y-105384205D01*
X135730000Y-105366988D01*
X135730000Y-106169862D01*
X135771690Y-106161569D01*
X135771692Y-106161569D01*
X135953671Y-106086192D01*
X135953684Y-106086185D01*
X136117462Y-105976751D01*
X136117466Y-105976748D01*
X136256748Y-105837466D01*
X136256751Y-105837462D01*
X136366181Y-105673690D01*
X136369037Y-105668346D01*
X136417993Y-105618495D01*
X136486128Y-105603025D01*
X136551811Y-105626847D01*
X136553895Y-105628412D01*
X136556632Y-105630512D01*
X136556635Y-105630515D01*
X136687865Y-105706281D01*
X136834234Y-105745500D01*
X136834236Y-105745500D01*
X136985764Y-105745500D01*
X136985766Y-105745500D01*
X137132135Y-105706281D01*
X137263365Y-105630515D01*
X137370515Y-105523365D01*
X137446281Y-105392135D01*
X137485500Y-105245766D01*
X137485500Y-105094234D01*
X142114500Y-105094234D01*
X142114500Y-105245765D01*
X142153719Y-105392136D01*
X142191602Y-105457750D01*
X142229485Y-105523365D01*
X142336635Y-105630515D01*
X142467865Y-105706281D01*
X142614234Y-105745500D01*
X142614236Y-105745500D01*
X142765764Y-105745500D01*
X142765766Y-105745500D01*
X142912135Y-105706281D01*
X143043365Y-105630515D01*
X143043373Y-105630506D01*
X143046105Y-105628412D01*
X143048834Y-105627356D01*
X143050403Y-105626451D01*
X143050544Y-105626695D01*
X143111274Y-105603215D01*
X143179719Y-105617251D01*
X143229710Y-105666064D01*
X143230955Y-105668335D01*
X143233812Y-105673680D01*
X143343248Y-105837462D01*
X143343251Y-105837466D01*
X143482533Y-105976748D01*
X143482537Y-105976751D01*
X143646315Y-106086185D01*
X143646328Y-106086192D01*
X143828308Y-106161569D01*
X143870000Y-106169862D01*
X143870000Y-105366988D01*
X143879940Y-105384205D01*
X143935795Y-105440060D01*
X144004204Y-105479556D01*
X144080504Y-105500000D01*
X144159496Y-105500000D01*
X144235796Y-105479556D01*
X144304205Y-105440060D01*
X144360060Y-105384205D01*
X144370000Y-105366988D01*
X144370000Y-106169862D01*
X144411690Y-106161569D01*
X144411692Y-106161569D01*
X144593671Y-106086192D01*
X144593684Y-106086185D01*
X144757462Y-105976751D01*
X144757466Y-105976748D01*
X144896748Y-105837466D01*
X144896751Y-105837462D01*
X145006185Y-105673684D01*
X145006192Y-105673671D01*
X145081569Y-105491693D01*
X145081572Y-105491681D01*
X145119999Y-105298495D01*
X145120000Y-105298492D01*
X145120000Y-104900000D01*
X144420000Y-104900000D01*
X144420000Y-104400000D01*
X145120000Y-104400000D01*
X145120000Y-104375013D01*
X161700000Y-104375013D01*
X161700000Y-104800000D01*
X162519670Y-104800000D01*
X162499925Y-104819745D01*
X162450556Y-104905255D01*
X162425000Y-105000630D01*
X162425000Y-105099370D01*
X162450556Y-105194745D01*
X162499925Y-105280255D01*
X162519670Y-105300000D01*
X161700001Y-105300000D01*
X161700001Y-105724986D01*
X161710494Y-105827697D01*
X161765641Y-105994119D01*
X161765643Y-105994124D01*
X161857684Y-106143345D01*
X161981654Y-106267315D01*
X162130875Y-106359356D01*
X162130880Y-106359358D01*
X162297302Y-106414505D01*
X162297309Y-106414506D01*
X162400019Y-106424999D01*
X162549999Y-106424999D01*
X162550000Y-106424998D01*
X162550000Y-105330330D01*
X162569745Y-105350075D01*
X162655255Y-105399444D01*
X162750630Y-105425000D01*
X162849370Y-105425000D01*
X162944745Y-105399444D01*
X163030255Y-105350075D01*
X163050000Y-105330330D01*
X163050000Y-106424999D01*
X163199972Y-106424999D01*
X163199986Y-106424998D01*
X163302697Y-106414505D01*
X163469119Y-106359358D01*
X163469124Y-106359356D01*
X163618345Y-106267315D01*
X163742315Y-106143345D01*
X163781945Y-106079094D01*
X163833893Y-106032368D01*
X163902855Y-106021145D01*
X163966937Y-106048988D01*
X163975166Y-106056508D01*
X164083072Y-106164414D01*
X164223212Y-106266232D01*
X164377555Y-106344873D01*
X164542299Y-106398402D01*
X164713389Y-106425500D01*
X164713390Y-106425500D01*
X164886610Y-106425500D01*
X164886611Y-106425500D01*
X165057701Y-106398402D01*
X165222445Y-106344873D01*
X165376788Y-106266232D01*
X165516928Y-106164414D01*
X165639414Y-106041928D01*
X165741232Y-105901788D01*
X165819873Y-105747445D01*
X165873402Y-105582701D01*
X165900500Y-105411611D01*
X165900500Y-104688389D01*
X165873402Y-104517299D01*
X165819873Y-104352555D01*
X165741232Y-104198212D01*
X165639414Y-104058072D01*
X165516928Y-103935586D01*
X165376788Y-103833768D01*
X165222445Y-103755127D01*
X165057701Y-103701598D01*
X165057699Y-103701597D01*
X165057698Y-103701597D01*
X164926271Y-103680781D01*
X164886611Y-103674500D01*
X164713389Y-103674500D01*
X164673728Y-103680781D01*
X164542302Y-103701597D01*
X164377552Y-103755128D01*
X164223211Y-103833768D01*
X164083073Y-103935585D01*
X163975166Y-104043492D01*
X163913843Y-104076976D01*
X163844151Y-104071992D01*
X163788218Y-104030120D01*
X163781946Y-104020906D01*
X163742317Y-103956656D01*
X163618345Y-103832684D01*
X163469124Y-103740643D01*
X163469119Y-103740641D01*
X163302697Y-103685494D01*
X163302690Y-103685493D01*
X163199986Y-103675000D01*
X163050000Y-103675000D01*
X163050000Y-104769670D01*
X163030255Y-104749925D01*
X162944745Y-104700556D01*
X162849370Y-104675000D01*
X162750630Y-104675000D01*
X162655255Y-104700556D01*
X162569745Y-104749925D01*
X162550000Y-104769670D01*
X162550000Y-103675000D01*
X162400027Y-103675000D01*
X162400012Y-103675001D01*
X162297302Y-103685494D01*
X162130880Y-103740641D01*
X162130875Y-103740643D01*
X161981654Y-103832684D01*
X161857684Y-103956654D01*
X161765643Y-104105875D01*
X161765641Y-104105880D01*
X161710494Y-104272302D01*
X161710493Y-104272309D01*
X161700000Y-104375013D01*
X145120000Y-104375013D01*
X145120000Y-104001508D01*
X145119999Y-104001504D01*
X145081572Y-103808318D01*
X145081569Y-103808306D01*
X145006192Y-103626328D01*
X145006185Y-103626315D01*
X144896751Y-103462537D01*
X144896748Y-103462533D01*
X144757466Y-103323251D01*
X144757462Y-103323248D01*
X144593684Y-103213814D01*
X144593671Y-103213807D01*
X144411691Y-103138429D01*
X144411683Y-103138427D01*
X144370000Y-103130135D01*
X144370000Y-103933011D01*
X144360060Y-103915795D01*
X144304205Y-103859940D01*
X144235796Y-103820444D01*
X144159496Y-103800000D01*
X144080504Y-103800000D01*
X144004204Y-103820444D01*
X143935795Y-103859940D01*
X143879940Y-103915795D01*
X143870000Y-103933011D01*
X143870000Y-103130136D01*
X143869999Y-103130135D01*
X143828316Y-103138427D01*
X143828308Y-103138429D01*
X143646328Y-103213807D01*
X143646315Y-103213814D01*
X143482537Y-103323248D01*
X143482533Y-103323251D01*
X143343251Y-103462533D01*
X143343248Y-103462537D01*
X143233814Y-103626315D01*
X143233807Y-103626328D01*
X143158430Y-103808306D01*
X143158427Y-103808318D01*
X143120000Y-104001504D01*
X143120000Y-104400000D01*
X143820000Y-104400000D01*
X143820000Y-104900000D01*
X143270237Y-104900000D01*
X143203198Y-104880315D01*
X143162850Y-104838000D01*
X143150515Y-104816635D01*
X143043365Y-104709485D01*
X142977750Y-104671602D01*
X142912136Y-104633719D01*
X142838950Y-104614109D01*
X142765766Y-104594500D01*
X142614234Y-104594500D01*
X142467863Y-104633719D01*
X142336635Y-104709485D01*
X142336632Y-104709487D01*
X142229487Y-104816632D01*
X142229485Y-104816635D01*
X142153719Y-104947863D01*
X142114500Y-105094234D01*
X137485500Y-105094234D01*
X137446281Y-104947865D01*
X137370515Y-104816635D01*
X137263365Y-104709485D01*
X137197750Y-104671602D01*
X137132136Y-104633719D01*
X137058950Y-104614109D01*
X136985766Y-104594500D01*
X136834234Y-104594500D01*
X136687863Y-104633719D01*
X136556635Y-104709485D01*
X136556632Y-104709487D01*
X136449487Y-104816632D01*
X136449483Y-104816638D01*
X136437150Y-104838000D01*
X136386583Y-104886216D01*
X136329763Y-104900000D01*
X135780000Y-104900000D01*
X135780000Y-104400000D01*
X136480000Y-104400000D01*
X136480000Y-104001508D01*
X136479999Y-104001504D01*
X136441572Y-103808318D01*
X136441569Y-103808306D01*
X136366192Y-103626328D01*
X136366185Y-103626315D01*
X136256751Y-103462537D01*
X136256748Y-103462533D01*
X136117466Y-103323251D01*
X136117462Y-103323248D01*
X135953684Y-103213814D01*
X135953675Y-103213809D01*
X135814746Y-103156263D01*
X135763382Y-103136775D01*
X135730001Y-103130135D01*
X135730000Y-103130136D01*
X135730000Y-103933011D01*
X135720060Y-103915795D01*
X135664205Y-103859940D01*
X135595796Y-103820444D01*
X135519496Y-103800000D01*
X135440504Y-103800000D01*
X135364204Y-103820444D01*
X135295795Y-103859940D01*
X135239940Y-103915795D01*
X135230000Y-103933011D01*
X135230000Y-103130136D01*
X135229999Y-103130135D01*
X135188316Y-103138427D01*
X135188308Y-103138429D01*
X135006328Y-103213807D01*
X135006315Y-103213814D01*
X134842537Y-103323248D01*
X134842533Y-103323251D01*
X134703251Y-103462533D01*
X134703248Y-103462537D01*
X134593814Y-103626315D01*
X134593807Y-103626328D01*
X134518430Y-103808306D01*
X134518427Y-103808318D01*
X134480000Y-104001504D01*
X118300500Y-104001504D01*
X118300500Y-102071153D01*
X135319499Y-102071153D01*
X135319499Y-102228846D01*
X135350260Y-102383489D01*
X135350263Y-102383501D01*
X135410601Y-102529172D01*
X135410608Y-102529185D01*
X135498209Y-102660288D01*
X135498212Y-102660292D01*
X135609706Y-102771786D01*
X135609710Y-102771789D01*
X135740813Y-102859390D01*
X135740826Y-102859397D01*
X135805562Y-102886210D01*
X135886502Y-102919737D01*
X135951890Y-102932743D01*
X136041154Y-102950500D01*
X136041157Y-102950500D01*
X136198843Y-102950500D01*
X136198844Y-102950499D01*
X136353496Y-102919737D01*
X136428962Y-102888478D01*
X136497863Y-102859939D01*
X136545315Y-102850500D01*
X139295065Y-102850500D01*
X139362104Y-102870185D01*
X139363909Y-102871366D01*
X139420821Y-102909394D01*
X139420823Y-102909395D01*
X139420827Y-102909397D01*
X139520060Y-102950500D01*
X139566503Y-102969737D01*
X139716131Y-102999500D01*
X139721153Y-103000499D01*
X139721156Y-103000500D01*
X139721158Y-103000500D01*
X139878844Y-103000500D01*
X139878845Y-103000499D01*
X140033497Y-102969737D01*
X140179179Y-102909394D01*
X140310289Y-102821789D01*
X140421789Y-102710289D01*
X140509394Y-102579179D01*
X140569737Y-102433497D01*
X140600500Y-102278842D01*
X140600500Y-102121158D01*
X140600500Y-102121155D01*
X140600499Y-102121153D01*
X140582419Y-102030261D01*
X140569737Y-101966503D01*
X140569735Y-101966498D01*
X140509397Y-101820827D01*
X140509390Y-101820814D01*
X140421789Y-101689711D01*
X140421786Y-101689707D01*
X140310292Y-101578213D01*
X140310288Y-101578210D01*
X140179185Y-101490609D01*
X140179172Y-101490602D01*
X140033501Y-101430264D01*
X140033489Y-101430261D01*
X139878845Y-101399500D01*
X139878842Y-101399500D01*
X139721158Y-101399500D01*
X139721155Y-101399500D01*
X139566510Y-101430261D01*
X139566498Y-101430264D01*
X139420827Y-101490602D01*
X139420820Y-101490606D01*
X139391928Y-101509911D01*
X139363955Y-101528602D01*
X139297279Y-101549480D01*
X139295065Y-101549500D01*
X136699765Y-101549500D01*
X136632726Y-101529815D01*
X136630874Y-101528602D01*
X136499184Y-101440609D01*
X136499171Y-101440602D01*
X136353500Y-101380264D01*
X136353488Y-101380261D01*
X136198844Y-101349500D01*
X136198841Y-101349500D01*
X136041157Y-101349500D01*
X136041154Y-101349500D01*
X135886509Y-101380261D01*
X135886497Y-101380264D01*
X135740826Y-101440602D01*
X135740813Y-101440609D01*
X135609710Y-101528210D01*
X135609706Y-101528213D01*
X135498212Y-101639707D01*
X135498209Y-101639711D01*
X135410608Y-101770814D01*
X135410601Y-101770827D01*
X135350263Y-101916498D01*
X135350260Y-101916510D01*
X135319499Y-102071153D01*
X118300500Y-102071153D01*
X118300500Y-77308676D01*
X118320185Y-77241637D01*
X118336819Y-77220995D01*
X119726688Y-75831126D01*
X149009855Y-75831126D01*
X149039536Y-75971911D01*
X149039536Y-75971912D01*
X149039537Y-75971913D01*
X149039537Y-75971915D01*
X149107676Y-76098629D01*
X149110934Y-76103039D01*
X149123739Y-76120375D01*
X149161495Y-76165697D01*
X149212304Y-76219916D01*
X149221381Y-76229355D01*
X149300702Y-76309722D01*
X149305537Y-76314554D01*
X149407129Y-76414739D01*
X149410669Y-76418197D01*
X149520659Y-76524560D01*
X149522244Y-76526086D01*
X149696306Y-76692947D01*
X149731076Y-76753547D01*
X149734494Y-76782458D01*
X149734494Y-77912670D01*
X149748415Y-78030488D01*
X149801519Y-78164206D01*
X149801520Y-78164207D01*
X149801521Y-78164209D01*
X149825864Y-78195340D01*
X149890152Y-78277555D01*
X150014624Y-78396896D01*
X150014625Y-78396898D01*
X150014626Y-78396898D01*
X150032919Y-78414437D01*
X150032919Y-78414438D01*
X150175690Y-78551326D01*
X150212421Y-78580294D01*
X150252239Y-78611697D01*
X150252246Y-78611701D01*
X150383116Y-78671468D01*
X150383119Y-78671468D01*
X150383120Y-78671469D01*
X150525536Y-78691945D01*
X152588938Y-78691945D01*
X152597455Y-78693661D01*
X152602808Y-78692723D01*
X152636958Y-78701621D01*
X152712747Y-78733457D01*
X152713364Y-78733719D01*
X152820298Y-78779321D01*
X152820953Y-78779601D01*
X152958727Y-78839331D01*
X153105958Y-78903895D01*
X153106273Y-78904035D01*
X153106276Y-78904036D01*
X153123317Y-78911585D01*
X153148518Y-78922748D01*
X153196143Y-78943846D01*
X153196463Y-78943987D01*
X153196540Y-78944021D01*
X153196541Y-78944022D01*
X153318448Y-78997924D01*
X153320985Y-78999037D01*
X153426150Y-79044868D01*
X153426309Y-79044936D01*
X153426372Y-79044964D01*
X153430099Y-79046571D01*
X153430198Y-79046613D01*
X153430288Y-79046652D01*
X153506994Y-79079350D01*
X153517291Y-79083606D01*
X153517310Y-79083613D01*
X153517340Y-79083626D01*
X153551654Y-79097365D01*
X153573965Y-79105694D01*
X153573967Y-79105694D01*
X153573969Y-79105695D01*
X153612107Y-79113066D01*
X153715231Y-79132998D01*
X153858467Y-79119397D01*
X153992069Y-79065992D01*
X154105213Y-78977111D01*
X154188734Y-78859954D01*
X154235864Y-78724012D01*
X154238395Y-78671468D01*
X154242786Y-78580305D01*
X154242785Y-78580303D01*
X154242786Y-78580298D01*
X154208939Y-78440456D01*
X154203378Y-78426544D01*
X154194615Y-78405955D01*
X154117295Y-78284616D01*
X154111222Y-78277552D01*
X154076539Y-78237212D01*
X154061785Y-78220792D01*
X153991280Y-78145695D01*
X153984245Y-78138352D01*
X153889390Y-78041300D01*
X153884412Y-78036276D01*
X153770628Y-77923039D01*
X153768194Y-77920632D01*
X153768194Y-77920631D01*
X153762241Y-77914781D01*
X153762176Y-77914718D01*
X153762049Y-77914593D01*
X153762049Y-77914592D01*
X153576607Y-77732466D01*
X153542570Y-77671448D01*
X153539494Y-77643998D01*
X153539494Y-76505109D01*
X153539494Y-76505101D01*
X153527114Y-76393911D01*
X153475813Y-76259487D01*
X153475810Y-76259484D01*
X153475810Y-76259482D01*
X153388723Y-76144966D01*
X153118674Y-75878977D01*
X153118669Y-75878972D01*
X153086180Y-75852993D01*
X153037242Y-75813860D01*
X153037240Y-75813859D01*
X153037238Y-75813857D01*
X153035758Y-75813181D01*
X152906363Y-75754087D01*
X152906358Y-75754086D01*
X152763944Y-75733611D01*
X150664693Y-75733611D01*
X150613950Y-75722753D01*
X150233980Y-75552341D01*
X150233980Y-75552340D01*
X150232418Y-75551644D01*
X150232303Y-75551593D01*
X150077096Y-75482702D01*
X150073219Y-75481001D01*
X150052768Y-75472128D01*
X149936420Y-75421647D01*
X149931358Y-75419483D01*
X149886533Y-75400619D01*
X149820895Y-75372996D01*
X149811549Y-75369172D01*
X149811493Y-75369149D01*
X149735537Y-75338955D01*
X149700968Y-75326646D01*
X149667312Y-75316021D01*
X149667306Y-75316020D01*
X149526128Y-75292691D01*
X149526127Y-75292691D01*
X149383297Y-75310064D01*
X149382451Y-75310293D01*
X149274882Y-75353084D01*
X149274880Y-75353086D01*
X149159147Y-75438569D01*
X149159146Y-75438570D01*
X149072185Y-75553195D01*
X149072184Y-75553197D01*
X149021040Y-75687679D01*
X149011201Y-75813860D01*
X149009855Y-75831126D01*
X119726688Y-75831126D01*
X120970995Y-74586819D01*
X121032318Y-74553334D01*
X121058676Y-74550500D01*
X171356448Y-74550500D01*
X171423487Y-74570185D01*
G37*
%TD.AperFunction*%
%TA.AperFunction,Conductor*%
G36*
X180654355Y-79502041D02*
G01*
X180659717Y-79500955D01*
X180687521Y-79511780D01*
X180716145Y-79520185D01*
X180721079Y-79524845D01*
X180724826Y-79526304D01*
X180749421Y-79551611D01*
X180769896Y-79579792D01*
X180769898Y-79579794D01*
X180920213Y-79730109D01*
X181092182Y-79855050D01*
X181100946Y-79859516D01*
X181151742Y-79907491D01*
X181168536Y-79975312D01*
X181145998Y-80041447D01*
X181100946Y-80080484D01*
X181092182Y-80084949D01*
X180920213Y-80209890D01*
X180769894Y-80360209D01*
X180724318Y-80422940D01*
X180668988Y-80465605D01*
X180599375Y-80471584D01*
X180537580Y-80438978D01*
X180503222Y-80378139D01*
X180500000Y-80350054D01*
X180500000Y-80272172D01*
X180499999Y-80272155D01*
X180493598Y-80212627D01*
X180493596Y-80212620D01*
X180443354Y-80077913D01*
X180443350Y-80077906D01*
X180357190Y-79962812D01*
X180357187Y-79962809D01*
X180242093Y-79876649D01*
X180242086Y-79876645D01*
X180107379Y-79826403D01*
X180107372Y-79826401D01*
X180047844Y-79820000D01*
X179635000Y-79820000D01*
X179635000Y-82680000D01*
X179640652Y-82685652D01*
X179688441Y-82699685D01*
X179734196Y-82752489D01*
X179744140Y-82821647D01*
X179715115Y-82885203D01*
X179709083Y-82891681D01*
X178336680Y-84264084D01*
X178275357Y-84297569D01*
X178205665Y-84292585D01*
X178149732Y-84250713D01*
X178125315Y-84185249D01*
X178124999Y-84176403D01*
X178124999Y-83925028D01*
X178124998Y-83925013D01*
X178114505Y-83822302D01*
X178059358Y-83655880D01*
X178059356Y-83655875D01*
X177967315Y-83506654D01*
X177843345Y-83382684D01*
X177694124Y-83290643D01*
X177694119Y-83290641D01*
X177527697Y-83235494D01*
X177527690Y-83235493D01*
X177424986Y-83225000D01*
X177287500Y-83225000D01*
X177287500Y-84326000D01*
X177267815Y-84393039D01*
X177215011Y-84438794D01*
X177163500Y-84450000D01*
X176911500Y-84450000D01*
X176844461Y-84430315D01*
X176798706Y-84377511D01*
X176787500Y-84326000D01*
X176787500Y-83225000D01*
X176650027Y-83225000D01*
X176650012Y-83225001D01*
X176547302Y-83235494D01*
X176380880Y-83290641D01*
X176380875Y-83290643D01*
X176231654Y-83382684D01*
X176107683Y-83506655D01*
X176107679Y-83506660D01*
X176105826Y-83509665D01*
X176104018Y-83511290D01*
X176103202Y-83512323D01*
X176103025Y-83512183D01*
X176053874Y-83556385D01*
X175984911Y-83567601D01*
X175920831Y-83539752D01*
X175894753Y-83509653D01*
X175894737Y-83509628D01*
X175892712Y-83506344D01*
X175768656Y-83382288D01*
X175621902Y-83291770D01*
X175575179Y-83239823D01*
X175563000Y-83186232D01*
X175563000Y-82804188D01*
X175582685Y-82737149D01*
X175635489Y-82691394D01*
X175674669Y-82681768D01*
X175674571Y-82680854D01*
X175737483Y-82674091D01*
X175860488Y-82628213D01*
X175872331Y-82623796D01*
X175987546Y-82537546D01*
X176073796Y-82422331D01*
X176124091Y-82287483D01*
X176130500Y-82227873D01*
X176130500Y-82227844D01*
X178270000Y-82227844D01*
X178276401Y-82287372D01*
X178276403Y-82287379D01*
X178326645Y-82422086D01*
X178326649Y-82422093D01*
X178412809Y-82537187D01*
X178412812Y-82537190D01*
X178527906Y-82623350D01*
X178527913Y-82623354D01*
X178662620Y-82673596D01*
X178662627Y-82673598D01*
X178722155Y-82679999D01*
X178722172Y-82680000D01*
X179135000Y-82680000D01*
X179135000Y-81500000D01*
X178270000Y-81500000D01*
X178270000Y-82227844D01*
X176130500Y-82227844D01*
X176130499Y-81246563D01*
X176130499Y-80272155D01*
X178270000Y-80272155D01*
X178270000Y-81000000D01*
X179135000Y-81000000D01*
X179135000Y-79820000D01*
X178722155Y-79820000D01*
X178662627Y-79826401D01*
X178662620Y-79826403D01*
X178527913Y-79876645D01*
X178527906Y-79876649D01*
X178412812Y-79962809D01*
X178412809Y-79962812D01*
X178326649Y-80077906D01*
X178326645Y-80077913D01*
X178276403Y-80212620D01*
X178276401Y-80212627D01*
X178270000Y-80272155D01*
X176130499Y-80272155D01*
X176130499Y-80272129D01*
X176130498Y-80272123D01*
X176130358Y-80270821D01*
X176124091Y-80212517D01*
X176123113Y-80209896D01*
X176073797Y-80077671D01*
X176073793Y-80077664D01*
X175987547Y-79962455D01*
X175987544Y-79962452D01*
X175872335Y-79876206D01*
X175872328Y-79876202D01*
X175737482Y-79825908D01*
X175737483Y-79825908D01*
X175677883Y-79819501D01*
X175677881Y-79819500D01*
X175677873Y-79819500D01*
X175677865Y-79819500D01*
X174653833Y-79819500D01*
X174586794Y-79799815D01*
X174541039Y-79747011D01*
X174539272Y-79742953D01*
X174509863Y-79671953D01*
X174502394Y-79602483D01*
X174533669Y-79540004D01*
X174593758Y-79504352D01*
X174624424Y-79500500D01*
X180649106Y-79500500D01*
X180654355Y-79502041D01*
G37*
%TD.AperFunction*%
%TA.AperFunction,Conductor*%
G36*
X183242539Y-74570185D02*
G01*
X183288294Y-74622989D01*
X183299500Y-74674500D01*
X183299500Y-74970730D01*
X183279815Y-75037769D01*
X183227011Y-75083524D01*
X183157853Y-75093468D01*
X183094297Y-75064443D01*
X183076234Y-75045042D01*
X183007187Y-74952809D01*
X182892093Y-74866649D01*
X182892086Y-74866645D01*
X182757379Y-74816403D01*
X182757372Y-74816401D01*
X182697844Y-74810000D01*
X182050000Y-74810000D01*
X182050000Y-75726988D01*
X181992993Y-75694075D01*
X181865826Y-75660000D01*
X181734174Y-75660000D01*
X181607007Y-75694075D01*
X181550000Y-75726988D01*
X181550000Y-74810000D01*
X180902155Y-74810000D01*
X180842627Y-74816401D01*
X180842620Y-74816403D01*
X180707913Y-74866645D01*
X180707906Y-74866649D01*
X180592812Y-74952809D01*
X180592809Y-74952812D01*
X180506649Y-75067906D01*
X180506642Y-75067919D01*
X180504238Y-75074365D01*
X180462364Y-75130296D01*
X180396898Y-75154710D01*
X180328626Y-75139854D01*
X180313747Y-75130291D01*
X180242089Y-75076647D01*
X180242086Y-75076645D01*
X180107379Y-75026403D01*
X180107372Y-75026401D01*
X180047844Y-75020000D01*
X179635000Y-75020000D01*
X179635000Y-77880000D01*
X180047828Y-77880000D01*
X180047844Y-77879999D01*
X180107372Y-77873598D01*
X180107379Y-77873596D01*
X180242086Y-77823354D01*
X180242093Y-77823350D01*
X180357187Y-77737190D01*
X180357190Y-77737187D01*
X180443350Y-77622093D01*
X180443355Y-77622084D01*
X180492408Y-77490565D01*
X180534278Y-77434631D01*
X180599743Y-77410213D01*
X180659631Y-77420889D01*
X180847178Y-77505596D01*
X180870639Y-77525754D01*
X180895404Y-77544293D01*
X180896908Y-77548325D01*
X180900172Y-77551130D01*
X180909011Y-77580775D01*
X180919821Y-77609758D01*
X180918906Y-77613962D01*
X180920136Y-77618087D01*
X180911544Y-77647805D01*
X180904969Y-77678031D01*
X180901444Y-77682738D01*
X180900731Y-77685208D01*
X180897451Y-77688074D01*
X180883819Y-77706285D01*
X180769889Y-77820215D01*
X180644951Y-77992179D01*
X180611489Y-78057853D01*
X180576252Y-78127011D01*
X180573814Y-78131795D01*
X180525840Y-78182591D01*
X180463329Y-78199500D01*
X173164705Y-78199500D01*
X173097666Y-78179815D01*
X173051911Y-78127011D01*
X173041967Y-78057853D01*
X173059166Y-78010404D01*
X173110904Y-77926522D01*
X173110908Y-77926516D01*
X173165174Y-77762753D01*
X173175500Y-77661677D01*
X173175499Y-77174499D01*
X173195183Y-77107461D01*
X173247987Y-77061706D01*
X173299499Y-77050500D01*
X173775501Y-77050500D01*
X173842540Y-77070185D01*
X173888295Y-77122989D01*
X173899501Y-77174500D01*
X173899501Y-77427876D01*
X173905908Y-77487483D01*
X173956202Y-77622328D01*
X173956206Y-77622335D01*
X174042452Y-77737544D01*
X174042455Y-77737547D01*
X174157664Y-77823793D01*
X174157671Y-77823797D01*
X174292517Y-77874091D01*
X174292516Y-77874091D01*
X174299444Y-77874835D01*
X174352127Y-77880500D01*
X175677872Y-77880499D01*
X175737483Y-77874091D01*
X175872331Y-77823796D01*
X175987546Y-77737546D01*
X176073796Y-77622331D01*
X176124091Y-77487483D01*
X176130500Y-77427873D01*
X176130500Y-77427844D01*
X178270000Y-77427844D01*
X178276401Y-77487372D01*
X178276403Y-77487379D01*
X178326645Y-77622086D01*
X178326649Y-77622093D01*
X178412809Y-77737187D01*
X178412812Y-77737190D01*
X178527906Y-77823350D01*
X178527913Y-77823354D01*
X178662620Y-77873596D01*
X178662627Y-77873598D01*
X178722155Y-77879999D01*
X178722172Y-77880000D01*
X179135000Y-77880000D01*
X179135000Y-76700000D01*
X178270000Y-76700000D01*
X178270000Y-77427844D01*
X176130500Y-77427844D01*
X176130499Y-76449500D01*
X176130499Y-75472155D01*
X178270000Y-75472155D01*
X178270000Y-76200000D01*
X179135000Y-76200000D01*
X179135000Y-75020000D01*
X178722155Y-75020000D01*
X178662627Y-75026401D01*
X178662620Y-75026403D01*
X178527913Y-75076645D01*
X178527906Y-75076649D01*
X178412812Y-75162809D01*
X178412809Y-75162812D01*
X178326649Y-75277906D01*
X178326645Y-75277913D01*
X178276403Y-75412620D01*
X178276401Y-75412627D01*
X178270000Y-75472155D01*
X176130499Y-75472155D01*
X176130499Y-75472129D01*
X176130498Y-75472123D01*
X176130497Y-75472116D01*
X176124091Y-75412517D01*
X176107924Y-75369172D01*
X176073797Y-75277671D01*
X176073793Y-75277664D01*
X175987547Y-75162455D01*
X175987544Y-75162452D01*
X175872335Y-75076206D01*
X175872328Y-75076202D01*
X175737482Y-75025908D01*
X175737483Y-75025908D01*
X175677883Y-75019501D01*
X175677881Y-75019500D01*
X175677873Y-75019500D01*
X175677864Y-75019500D01*
X174352129Y-75019500D01*
X174352123Y-75019501D01*
X174292516Y-75025908D01*
X174157671Y-75076202D01*
X174157664Y-75076206D01*
X174042455Y-75162452D01*
X174042452Y-75162455D01*
X173956206Y-75277664D01*
X173956202Y-75277671D01*
X173905908Y-75412517D01*
X173899501Y-75472116D01*
X173899501Y-75472123D01*
X173899500Y-75472135D01*
X173899500Y-75725500D01*
X173879815Y-75792539D01*
X173827011Y-75838294D01*
X173775500Y-75849500D01*
X173412597Y-75849500D01*
X173383156Y-75840855D01*
X173353170Y-75834332D01*
X173348154Y-75830577D01*
X173345558Y-75829815D01*
X173324916Y-75813181D01*
X173211818Y-75700083D01*
X173178333Y-75638760D01*
X173175499Y-75612402D01*
X173175499Y-75238330D01*
X173175498Y-75238313D01*
X173165174Y-75137247D01*
X173147372Y-75083524D01*
X173110908Y-74973484D01*
X173020340Y-74826650D01*
X172955871Y-74762181D01*
X172922386Y-74700858D01*
X172927370Y-74631166D01*
X172969242Y-74575233D01*
X173034706Y-74550816D01*
X173043552Y-74550500D01*
X183175500Y-74550500D01*
X183242539Y-74570185D01*
G37*
%TD.AperFunction*%
%TD*%
M02*
