%TF.GenerationSoftware,KiCad,Pcbnew,10.0.3*%
%TF.CreationDate,2026-06-30T23:08:37-04:00*%
%TF.ProjectId,watch,77617463-682e-46b6-9963-61645f706362,rev?*%
%TF.SameCoordinates,Original*%
%TF.FileFunction,Legend,Top*%
%TF.FilePolarity,Positive*%
%FSLAX46Y46*%
G04 Gerber Fmt 4.6, Leading zero omitted, Abs format (unit mm)*
G04 Created by KiCad (PCBNEW 10.0.3) date 2026-06-30 23:08:37*
%MOMM*%
%LPD*%
G01*
G04 APERTURE LIST*
%ADD10C,0.100000*%
%ADD11C,0.200000*%
%ADD12C,0.150000*%
%ADD13C,0.120000*%
%ADD14C,0.000000*%
%ADD15C,0.254000*%
%ADD16C,0.152500*%
%ADD17C,0.152000*%
G04 APERTURE END LIST*
D10*
X158792893Y-76139651D02*
X158792894Y-108050000D01*
X120792893Y-108050000D02*
X158792894Y-108050000D01*
D11*
X126169673Y-77033465D02*
X126503006Y-77033465D01*
X126645863Y-77557275D02*
X126169673Y-77557275D01*
X126169673Y-77557275D02*
X126169673Y-76557275D01*
X126169673Y-76557275D02*
X126645863Y-76557275D01*
X127074435Y-77176322D02*
X127836340Y-77176322D01*
X128312530Y-76890608D02*
X128312530Y-77890608D01*
X128312530Y-76938227D02*
X128407768Y-76890608D01*
X128407768Y-76890608D02*
X128598244Y-76890608D01*
X128598244Y-76890608D02*
X128693482Y-76938227D01*
X128693482Y-76938227D02*
X128741101Y-76985846D01*
X128741101Y-76985846D02*
X128788720Y-77081084D01*
X128788720Y-77081084D02*
X128788720Y-77366798D01*
X128788720Y-77366798D02*
X128741101Y-77462036D01*
X128741101Y-77462036D02*
X128693482Y-77509656D01*
X128693482Y-77509656D02*
X128598244Y-77557275D01*
X128598244Y-77557275D02*
X128407768Y-77557275D01*
X128407768Y-77557275D02*
X128312530Y-77509656D01*
X129645863Y-77557275D02*
X129645863Y-77033465D01*
X129645863Y-77033465D02*
X129598244Y-76938227D01*
X129598244Y-76938227D02*
X129503006Y-76890608D01*
X129503006Y-76890608D02*
X129312530Y-76890608D01*
X129312530Y-76890608D02*
X129217292Y-76938227D01*
X129645863Y-77509656D02*
X129550625Y-77557275D01*
X129550625Y-77557275D02*
X129312530Y-77557275D01*
X129312530Y-77557275D02*
X129217292Y-77509656D01*
X129217292Y-77509656D02*
X129169673Y-77414417D01*
X129169673Y-77414417D02*
X129169673Y-77319179D01*
X129169673Y-77319179D02*
X129217292Y-77223941D01*
X129217292Y-77223941D02*
X129312530Y-77176322D01*
X129312530Y-77176322D02*
X129550625Y-77176322D01*
X129550625Y-77176322D02*
X129645863Y-77128703D01*
X130122054Y-76890608D02*
X130122054Y-77890608D01*
X130122054Y-76938227D02*
X130217292Y-76890608D01*
X130217292Y-76890608D02*
X130407768Y-76890608D01*
X130407768Y-76890608D02*
X130503006Y-76938227D01*
X130503006Y-76938227D02*
X130550625Y-76985846D01*
X130550625Y-76985846D02*
X130598244Y-77081084D01*
X130598244Y-77081084D02*
X130598244Y-77366798D01*
X130598244Y-77366798D02*
X130550625Y-77462036D01*
X130550625Y-77462036D02*
X130503006Y-77509656D01*
X130503006Y-77509656D02*
X130407768Y-77557275D01*
X130407768Y-77557275D02*
X130217292Y-77557275D01*
X130217292Y-77557275D02*
X130122054Y-77509656D01*
X131407768Y-77509656D02*
X131312530Y-77557275D01*
X131312530Y-77557275D02*
X131122054Y-77557275D01*
X131122054Y-77557275D02*
X131026816Y-77509656D01*
X131026816Y-77509656D02*
X130979197Y-77414417D01*
X130979197Y-77414417D02*
X130979197Y-77033465D01*
X130979197Y-77033465D02*
X131026816Y-76938227D01*
X131026816Y-76938227D02*
X131122054Y-76890608D01*
X131122054Y-76890608D02*
X131312530Y-76890608D01*
X131312530Y-76890608D02*
X131407768Y-76938227D01*
X131407768Y-76938227D02*
X131455387Y-77033465D01*
X131455387Y-77033465D02*
X131455387Y-77128703D01*
X131455387Y-77128703D02*
X130979197Y-77223941D01*
X131883959Y-77557275D02*
X131883959Y-76890608D01*
X131883959Y-77081084D02*
X131931578Y-76985846D01*
X131931578Y-76985846D02*
X131979197Y-76938227D01*
X131979197Y-76938227D02*
X132074435Y-76890608D01*
X132074435Y-76890608D02*
X132169673Y-76890608D01*
X133693483Y-77557275D02*
X133693483Y-76557275D01*
X133693483Y-77509656D02*
X133598245Y-77557275D01*
X133598245Y-77557275D02*
X133407769Y-77557275D01*
X133407769Y-77557275D02*
X133312531Y-77509656D01*
X133312531Y-77509656D02*
X133264912Y-77462036D01*
X133264912Y-77462036D02*
X133217293Y-77366798D01*
X133217293Y-77366798D02*
X133217293Y-77081084D01*
X133217293Y-77081084D02*
X133264912Y-76985846D01*
X133264912Y-76985846D02*
X133312531Y-76938227D01*
X133312531Y-76938227D02*
X133407769Y-76890608D01*
X133407769Y-76890608D02*
X133598245Y-76890608D01*
X133598245Y-76890608D02*
X133693483Y-76938227D01*
X134169674Y-77557275D02*
X134169674Y-76890608D01*
X134169674Y-76557275D02*
X134122055Y-76604894D01*
X134122055Y-76604894D02*
X134169674Y-76652513D01*
X134169674Y-76652513D02*
X134217293Y-76604894D01*
X134217293Y-76604894D02*
X134169674Y-76557275D01*
X134169674Y-76557275D02*
X134169674Y-76652513D01*
X134598245Y-77509656D02*
X134693483Y-77557275D01*
X134693483Y-77557275D02*
X134883959Y-77557275D01*
X134883959Y-77557275D02*
X134979197Y-77509656D01*
X134979197Y-77509656D02*
X135026816Y-77414417D01*
X135026816Y-77414417D02*
X135026816Y-77366798D01*
X135026816Y-77366798D02*
X134979197Y-77271560D01*
X134979197Y-77271560D02*
X134883959Y-77223941D01*
X134883959Y-77223941D02*
X134741102Y-77223941D01*
X134741102Y-77223941D02*
X134645864Y-77176322D01*
X134645864Y-77176322D02*
X134598245Y-77081084D01*
X134598245Y-77081084D02*
X134598245Y-77033465D01*
X134598245Y-77033465D02*
X134645864Y-76938227D01*
X134645864Y-76938227D02*
X134741102Y-76890608D01*
X134741102Y-76890608D02*
X134883959Y-76890608D01*
X134883959Y-76890608D02*
X134979197Y-76938227D01*
X135455388Y-76890608D02*
X135455388Y-77890608D01*
X135455388Y-76938227D02*
X135550626Y-76890608D01*
X135550626Y-76890608D02*
X135741102Y-76890608D01*
X135741102Y-76890608D02*
X135836340Y-76938227D01*
X135836340Y-76938227D02*
X135883959Y-76985846D01*
X135883959Y-76985846D02*
X135931578Y-77081084D01*
X135931578Y-77081084D02*
X135931578Y-77366798D01*
X135931578Y-77366798D02*
X135883959Y-77462036D01*
X135883959Y-77462036D02*
X135836340Y-77509656D01*
X135836340Y-77509656D02*
X135741102Y-77557275D01*
X135741102Y-77557275D02*
X135550626Y-77557275D01*
X135550626Y-77557275D02*
X135455388Y-77509656D01*
X136503007Y-77557275D02*
X136407769Y-77509656D01*
X136407769Y-77509656D02*
X136360150Y-77414417D01*
X136360150Y-77414417D02*
X136360150Y-76557275D01*
X137312531Y-77557275D02*
X137312531Y-77033465D01*
X137312531Y-77033465D02*
X137264912Y-76938227D01*
X137264912Y-76938227D02*
X137169674Y-76890608D01*
X137169674Y-76890608D02*
X136979198Y-76890608D01*
X136979198Y-76890608D02*
X136883960Y-76938227D01*
X137312531Y-77509656D02*
X137217293Y-77557275D01*
X137217293Y-77557275D02*
X136979198Y-77557275D01*
X136979198Y-77557275D02*
X136883960Y-77509656D01*
X136883960Y-77509656D02*
X136836341Y-77414417D01*
X136836341Y-77414417D02*
X136836341Y-77319179D01*
X136836341Y-77319179D02*
X136883960Y-77223941D01*
X136883960Y-77223941D02*
X136979198Y-77176322D01*
X136979198Y-77176322D02*
X137217293Y-77176322D01*
X137217293Y-77176322D02*
X137312531Y-77128703D01*
X137693484Y-76890608D02*
X137931579Y-77557275D01*
X138169674Y-76890608D02*
X137931579Y-77557275D01*
X137931579Y-77557275D02*
X137836341Y-77795370D01*
X137836341Y-77795370D02*
X137788722Y-77842989D01*
X137788722Y-77842989D02*
X137693484Y-77890608D01*
D10*
X126103884Y-79062475D02*
X126103884Y-78062475D01*
X126103884Y-78538665D02*
X126675312Y-78538665D01*
X126675312Y-79062475D02*
X126675312Y-78062475D01*
X127580074Y-79062475D02*
X127580074Y-78538665D01*
X127580074Y-78538665D02*
X127532455Y-78443427D01*
X127532455Y-78443427D02*
X127437217Y-78395808D01*
X127437217Y-78395808D02*
X127246741Y-78395808D01*
X127246741Y-78395808D02*
X127151503Y-78443427D01*
X127580074Y-79014856D02*
X127484836Y-79062475D01*
X127484836Y-79062475D02*
X127246741Y-79062475D01*
X127246741Y-79062475D02*
X127151503Y-79014856D01*
X127151503Y-79014856D02*
X127103884Y-78919617D01*
X127103884Y-78919617D02*
X127103884Y-78824379D01*
X127103884Y-78824379D02*
X127151503Y-78729141D01*
X127151503Y-78729141D02*
X127246741Y-78681522D01*
X127246741Y-78681522D02*
X127484836Y-78681522D01*
X127484836Y-78681522D02*
X127580074Y-78633903D01*
X128199122Y-79062475D02*
X128103884Y-79014856D01*
X128103884Y-79014856D02*
X128056265Y-78967236D01*
X128056265Y-78967236D02*
X128008646Y-78871998D01*
X128008646Y-78871998D02*
X128008646Y-78586284D01*
X128008646Y-78586284D02*
X128056265Y-78491046D01*
X128056265Y-78491046D02*
X128103884Y-78443427D01*
X128103884Y-78443427D02*
X128199122Y-78395808D01*
X128199122Y-78395808D02*
X128341979Y-78395808D01*
X128341979Y-78395808D02*
X128437217Y-78443427D01*
X128437217Y-78443427D02*
X128484836Y-78491046D01*
X128484836Y-78491046D02*
X128532455Y-78586284D01*
X128532455Y-78586284D02*
X128532455Y-78871998D01*
X128532455Y-78871998D02*
X128484836Y-78967236D01*
X128484836Y-78967236D02*
X128437217Y-79014856D01*
X128437217Y-79014856D02*
X128341979Y-79062475D01*
X128341979Y-79062475D02*
X128199122Y-79062475D01*
X128865789Y-78395808D02*
X129103884Y-79062475D01*
X129341979Y-78395808D02*
X129103884Y-79062475D01*
X129103884Y-79062475D02*
X129008646Y-79300570D01*
X129008646Y-79300570D02*
X128961027Y-79348189D01*
X128961027Y-79348189D02*
X128865789Y-79395808D01*
X130151503Y-79062475D02*
X130151503Y-78538665D01*
X130151503Y-78538665D02*
X130103884Y-78443427D01*
X130103884Y-78443427D02*
X130008646Y-78395808D01*
X130008646Y-78395808D02*
X129818170Y-78395808D01*
X129818170Y-78395808D02*
X129722932Y-78443427D01*
X130151503Y-79014856D02*
X130056265Y-79062475D01*
X130056265Y-79062475D02*
X129818170Y-79062475D01*
X129818170Y-79062475D02*
X129722932Y-79014856D01*
X129722932Y-79014856D02*
X129675313Y-78919617D01*
X129675313Y-78919617D02*
X129675313Y-78824379D01*
X129675313Y-78824379D02*
X129722932Y-78729141D01*
X129722932Y-78729141D02*
X129818170Y-78681522D01*
X129818170Y-78681522D02*
X130056265Y-78681522D01*
X130056265Y-78681522D02*
X130151503Y-78633903D01*
X130627694Y-78395808D02*
X130627694Y-79062475D01*
X130627694Y-78491046D02*
X130675313Y-78443427D01*
X130675313Y-78443427D02*
X130770551Y-78395808D01*
X130770551Y-78395808D02*
X130913408Y-78395808D01*
X130913408Y-78395808D02*
X131008646Y-78443427D01*
X131008646Y-78443427D02*
X131056265Y-78538665D01*
X131056265Y-78538665D02*
X131056265Y-79062475D01*
X132770551Y-79062475D02*
X132294361Y-79062475D01*
X132294361Y-79062475D02*
X132294361Y-78062475D01*
X133103885Y-79062475D02*
X133103885Y-78395808D01*
X133103885Y-78062475D02*
X133056266Y-78110094D01*
X133056266Y-78110094D02*
X133103885Y-78157713D01*
X133103885Y-78157713D02*
X133151504Y-78110094D01*
X133151504Y-78110094D02*
X133103885Y-78062475D01*
X133103885Y-78062475D02*
X133103885Y-78157713D01*
X134627694Y-79443427D02*
X134580075Y-79395808D01*
X134580075Y-79395808D02*
X134484837Y-79252951D01*
X134484837Y-79252951D02*
X134437218Y-79157713D01*
X134437218Y-79157713D02*
X134389599Y-79014856D01*
X134389599Y-79014856D02*
X134341980Y-78776760D01*
X134341980Y-78776760D02*
X134341980Y-78586284D01*
X134341980Y-78586284D02*
X134389599Y-78348189D01*
X134389599Y-78348189D02*
X134437218Y-78205332D01*
X134437218Y-78205332D02*
X134484837Y-78110094D01*
X134484837Y-78110094D02*
X134580075Y-77967236D01*
X134580075Y-77967236D02*
X134627694Y-77919617D01*
X135008647Y-79062475D02*
X135008647Y-78062475D01*
X135437218Y-79062475D02*
X135437218Y-78538665D01*
X135437218Y-78538665D02*
X135389599Y-78443427D01*
X135389599Y-78443427D02*
X135294361Y-78395808D01*
X135294361Y-78395808D02*
X135151504Y-78395808D01*
X135151504Y-78395808D02*
X135056266Y-78443427D01*
X135056266Y-78443427D02*
X135008647Y-78491046D01*
X136341980Y-79062475D02*
X136341980Y-78538665D01*
X136341980Y-78538665D02*
X136294361Y-78443427D01*
X136294361Y-78443427D02*
X136199123Y-78395808D01*
X136199123Y-78395808D02*
X136008647Y-78395808D01*
X136008647Y-78395808D02*
X135913409Y-78443427D01*
X136341980Y-79014856D02*
X136246742Y-79062475D01*
X136246742Y-79062475D02*
X136008647Y-79062475D01*
X136008647Y-79062475D02*
X135913409Y-79014856D01*
X135913409Y-79014856D02*
X135865790Y-78919617D01*
X135865790Y-78919617D02*
X135865790Y-78824379D01*
X135865790Y-78824379D02*
X135913409Y-78729141D01*
X135913409Y-78729141D02*
X136008647Y-78681522D01*
X136008647Y-78681522D02*
X136246742Y-78681522D01*
X136246742Y-78681522D02*
X136341980Y-78633903D01*
X136961028Y-79062475D02*
X136865790Y-79014856D01*
X136865790Y-79014856D02*
X136818171Y-78967236D01*
X136818171Y-78967236D02*
X136770552Y-78871998D01*
X136770552Y-78871998D02*
X136770552Y-78586284D01*
X136770552Y-78586284D02*
X136818171Y-78491046D01*
X136818171Y-78491046D02*
X136865790Y-78443427D01*
X136865790Y-78443427D02*
X136961028Y-78395808D01*
X136961028Y-78395808D02*
X137103885Y-78395808D01*
X137103885Y-78395808D02*
X137199123Y-78443427D01*
X137199123Y-78443427D02*
X137246742Y-78491046D01*
X137246742Y-78491046D02*
X137294361Y-78586284D01*
X137294361Y-78586284D02*
X137294361Y-78871998D01*
X137294361Y-78871998D02*
X137246742Y-78967236D01*
X137246742Y-78967236D02*
X137199123Y-79014856D01*
X137199123Y-79014856D02*
X137103885Y-79062475D01*
X137103885Y-79062475D02*
X136961028Y-79062475D01*
X137627695Y-78395808D02*
X137865790Y-79062475D01*
X138103885Y-78395808D02*
X137865790Y-79062475D01*
X137865790Y-79062475D02*
X137770552Y-79300570D01*
X137770552Y-79300570D02*
X137722933Y-79348189D01*
X137722933Y-79348189D02*
X137627695Y-79395808D01*
X138913409Y-79062475D02*
X138913409Y-78538665D01*
X138913409Y-78538665D02*
X138865790Y-78443427D01*
X138865790Y-78443427D02*
X138770552Y-78395808D01*
X138770552Y-78395808D02*
X138580076Y-78395808D01*
X138580076Y-78395808D02*
X138484838Y-78443427D01*
X138913409Y-79014856D02*
X138818171Y-79062475D01*
X138818171Y-79062475D02*
X138580076Y-79062475D01*
X138580076Y-79062475D02*
X138484838Y-79014856D01*
X138484838Y-79014856D02*
X138437219Y-78919617D01*
X138437219Y-78919617D02*
X138437219Y-78824379D01*
X138437219Y-78824379D02*
X138484838Y-78729141D01*
X138484838Y-78729141D02*
X138580076Y-78681522D01*
X138580076Y-78681522D02*
X138818171Y-78681522D01*
X138818171Y-78681522D02*
X138913409Y-78633903D01*
X139389600Y-78395808D02*
X139389600Y-79062475D01*
X139389600Y-78491046D02*
X139437219Y-78443427D01*
X139437219Y-78443427D02*
X139532457Y-78395808D01*
X139532457Y-78395808D02*
X139675314Y-78395808D01*
X139675314Y-78395808D02*
X139770552Y-78443427D01*
X139770552Y-78443427D02*
X139818171Y-78538665D01*
X139818171Y-78538665D02*
X139818171Y-79062475D01*
X140437219Y-79062475D02*
X140341981Y-79014856D01*
X140341981Y-79014856D02*
X140294362Y-78919617D01*
X140294362Y-78919617D02*
X140294362Y-78062475D01*
X140818172Y-79062475D02*
X140818172Y-78395808D01*
X140818172Y-78062475D02*
X140770553Y-78110094D01*
X140770553Y-78110094D02*
X140818172Y-78157713D01*
X140818172Y-78157713D02*
X140865791Y-78110094D01*
X140865791Y-78110094D02*
X140818172Y-78062475D01*
X140818172Y-78062475D02*
X140818172Y-78157713D01*
X141294362Y-78967236D02*
X141341981Y-79014856D01*
X141341981Y-79014856D02*
X141294362Y-79062475D01*
X141294362Y-79062475D02*
X141246743Y-79014856D01*
X141246743Y-79014856D02*
X141294362Y-78967236D01*
X141294362Y-78967236D02*
X141294362Y-79062475D01*
X142199123Y-79062475D02*
X142199123Y-78062475D01*
X142199123Y-79014856D02*
X142103885Y-79062475D01*
X142103885Y-79062475D02*
X141913409Y-79062475D01*
X141913409Y-79062475D02*
X141818171Y-79014856D01*
X141818171Y-79014856D02*
X141770552Y-78967236D01*
X141770552Y-78967236D02*
X141722933Y-78871998D01*
X141722933Y-78871998D02*
X141722933Y-78586284D01*
X141722933Y-78586284D02*
X141770552Y-78491046D01*
X141770552Y-78491046D02*
X141818171Y-78443427D01*
X141818171Y-78443427D02*
X141913409Y-78395808D01*
X141913409Y-78395808D02*
X142103885Y-78395808D01*
X142103885Y-78395808D02*
X142199123Y-78443427D01*
X143056266Y-79014856D02*
X142961028Y-79062475D01*
X142961028Y-79062475D02*
X142770552Y-79062475D01*
X142770552Y-79062475D02*
X142675314Y-79014856D01*
X142675314Y-79014856D02*
X142627695Y-78919617D01*
X142627695Y-78919617D02*
X142627695Y-78538665D01*
X142627695Y-78538665D02*
X142675314Y-78443427D01*
X142675314Y-78443427D02*
X142770552Y-78395808D01*
X142770552Y-78395808D02*
X142961028Y-78395808D01*
X142961028Y-78395808D02*
X143056266Y-78443427D01*
X143056266Y-78443427D02*
X143103885Y-78538665D01*
X143103885Y-78538665D02*
X143103885Y-78633903D01*
X143103885Y-78633903D02*
X142627695Y-78729141D01*
X143437219Y-78395808D02*
X143675314Y-79062475D01*
X143675314Y-79062475D02*
X143913409Y-78395808D01*
X144199124Y-79443427D02*
X144246743Y-79395808D01*
X144246743Y-79395808D02*
X144341981Y-79252951D01*
X144341981Y-79252951D02*
X144389600Y-79157713D01*
X144389600Y-79157713D02*
X144437219Y-79014856D01*
X144437219Y-79014856D02*
X144484838Y-78776760D01*
X144484838Y-78776760D02*
X144484838Y-78586284D01*
X144484838Y-78586284D02*
X144437219Y-78348189D01*
X144437219Y-78348189D02*
X144389600Y-78205332D01*
X144389600Y-78205332D02*
X144341981Y-78110094D01*
X144341981Y-78110094D02*
X144246743Y-77967236D01*
X144246743Y-77967236D02*
X144199124Y-77919617D01*
X126627693Y-79720038D02*
X126532455Y-79672419D01*
X126532455Y-79672419D02*
X126389598Y-79672419D01*
X126389598Y-79672419D02*
X126246741Y-79720038D01*
X126246741Y-79720038D02*
X126151503Y-79815276D01*
X126151503Y-79815276D02*
X126103884Y-79910514D01*
X126103884Y-79910514D02*
X126056265Y-80100990D01*
X126056265Y-80100990D02*
X126056265Y-80243847D01*
X126056265Y-80243847D02*
X126103884Y-80434323D01*
X126103884Y-80434323D02*
X126151503Y-80529561D01*
X126151503Y-80529561D02*
X126246741Y-80624800D01*
X126246741Y-80624800D02*
X126389598Y-80672419D01*
X126389598Y-80672419D02*
X126484836Y-80672419D01*
X126484836Y-80672419D02*
X126627693Y-80624800D01*
X126627693Y-80624800D02*
X126675312Y-80577180D01*
X126675312Y-80577180D02*
X126675312Y-80243847D01*
X126675312Y-80243847D02*
X126484836Y-80243847D01*
X127246741Y-80672419D02*
X127151503Y-80624800D01*
X127151503Y-80624800D02*
X127103884Y-80529561D01*
X127103884Y-80529561D02*
X127103884Y-79672419D01*
X127770551Y-80672419D02*
X127675313Y-80624800D01*
X127675313Y-80624800D02*
X127627694Y-80577180D01*
X127627694Y-80577180D02*
X127580075Y-80481942D01*
X127580075Y-80481942D02*
X127580075Y-80196228D01*
X127580075Y-80196228D02*
X127627694Y-80100990D01*
X127627694Y-80100990D02*
X127675313Y-80053371D01*
X127675313Y-80053371D02*
X127770551Y-80005752D01*
X127770551Y-80005752D02*
X127913408Y-80005752D01*
X127913408Y-80005752D02*
X128008646Y-80053371D01*
X128008646Y-80053371D02*
X128056265Y-80100990D01*
X128056265Y-80100990D02*
X128103884Y-80196228D01*
X128103884Y-80196228D02*
X128103884Y-80481942D01*
X128103884Y-80481942D02*
X128056265Y-80577180D01*
X128056265Y-80577180D02*
X128008646Y-80624800D01*
X128008646Y-80624800D02*
X127913408Y-80672419D01*
X127913408Y-80672419D02*
X127770551Y-80672419D01*
X128532456Y-80672419D02*
X128532456Y-80005752D01*
X128532456Y-80196228D02*
X128580075Y-80100990D01*
X128580075Y-80100990D02*
X128627694Y-80053371D01*
X128627694Y-80053371D02*
X128722932Y-80005752D01*
X128722932Y-80005752D02*
X128818170Y-80005752D01*
X129056266Y-80005752D02*
X129294361Y-80672419D01*
X129532456Y-80005752D02*
X129294361Y-80672419D01*
X129294361Y-80672419D02*
X129199123Y-80910514D01*
X129199123Y-80910514D02*
X129151504Y-80958133D01*
X129151504Y-80958133D02*
X129056266Y-81005752D01*
X130532457Y-80005752D02*
X130913409Y-80005752D01*
X130675314Y-79672419D02*
X130675314Y-80529561D01*
X130675314Y-80529561D02*
X130722933Y-80624800D01*
X130722933Y-80624800D02*
X130818171Y-80672419D01*
X130818171Y-80672419D02*
X130913409Y-80672419D01*
X131389600Y-80672419D02*
X131294362Y-80624800D01*
X131294362Y-80624800D02*
X131246743Y-80577180D01*
X131246743Y-80577180D02*
X131199124Y-80481942D01*
X131199124Y-80481942D02*
X131199124Y-80196228D01*
X131199124Y-80196228D02*
X131246743Y-80100990D01*
X131246743Y-80100990D02*
X131294362Y-80053371D01*
X131294362Y-80053371D02*
X131389600Y-80005752D01*
X131389600Y-80005752D02*
X131532457Y-80005752D01*
X131532457Y-80005752D02*
X131627695Y-80053371D01*
X131627695Y-80053371D02*
X131675314Y-80100990D01*
X131675314Y-80100990D02*
X131722933Y-80196228D01*
X131722933Y-80196228D02*
X131722933Y-80481942D01*
X131722933Y-80481942D02*
X131675314Y-80577180D01*
X131675314Y-80577180D02*
X131627695Y-80624800D01*
X131627695Y-80624800D02*
X131532457Y-80672419D01*
X131532457Y-80672419D02*
X131389600Y-80672419D01*
X132913410Y-80148609D02*
X133246743Y-80148609D01*
X133389600Y-80672419D02*
X132913410Y-80672419D01*
X132913410Y-80672419D02*
X132913410Y-79672419D01*
X132913410Y-79672419D02*
X133389600Y-79672419D01*
X133818172Y-80672419D02*
X133818172Y-80005752D01*
X133818172Y-80196228D02*
X133865791Y-80100990D01*
X133865791Y-80100990D02*
X133913410Y-80053371D01*
X133913410Y-80053371D02*
X134008648Y-80005752D01*
X134008648Y-80005752D02*
X134103886Y-80005752D01*
X134818172Y-80624800D02*
X134722934Y-80672419D01*
X134722934Y-80672419D02*
X134532458Y-80672419D01*
X134532458Y-80672419D02*
X134437220Y-80624800D01*
X134437220Y-80624800D02*
X134389601Y-80529561D01*
X134389601Y-80529561D02*
X134389601Y-80148609D01*
X134389601Y-80148609D02*
X134437220Y-80053371D01*
X134437220Y-80053371D02*
X134532458Y-80005752D01*
X134532458Y-80005752D02*
X134722934Y-80005752D01*
X134722934Y-80005752D02*
X134818172Y-80053371D01*
X134818172Y-80053371D02*
X134865791Y-80148609D01*
X134865791Y-80148609D02*
X134865791Y-80243847D01*
X134865791Y-80243847D02*
X134389601Y-80339085D01*
X135294363Y-80672419D02*
X135294363Y-79672419D01*
X135294363Y-80053371D02*
X135389601Y-80005752D01*
X135389601Y-80005752D02*
X135580077Y-80005752D01*
X135580077Y-80005752D02*
X135675315Y-80053371D01*
X135675315Y-80053371D02*
X135722934Y-80100990D01*
X135722934Y-80100990D02*
X135770553Y-80196228D01*
X135770553Y-80196228D02*
X135770553Y-80481942D01*
X135770553Y-80481942D02*
X135722934Y-80577180D01*
X135722934Y-80577180D02*
X135675315Y-80624800D01*
X135675315Y-80624800D02*
X135580077Y-80672419D01*
X135580077Y-80672419D02*
X135389601Y-80672419D01*
X135389601Y-80672419D02*
X135294363Y-80624800D01*
X136341982Y-80672419D02*
X136246744Y-80624800D01*
X136246744Y-80624800D02*
X136199125Y-80577180D01*
X136199125Y-80577180D02*
X136151506Y-80481942D01*
X136151506Y-80481942D02*
X136151506Y-80196228D01*
X136151506Y-80196228D02*
X136199125Y-80100990D01*
X136199125Y-80100990D02*
X136246744Y-80053371D01*
X136246744Y-80053371D02*
X136341982Y-80005752D01*
X136341982Y-80005752D02*
X136484839Y-80005752D01*
X136484839Y-80005752D02*
X136580077Y-80053371D01*
X136580077Y-80053371D02*
X136627696Y-80100990D01*
X136627696Y-80100990D02*
X136675315Y-80196228D01*
X136675315Y-80196228D02*
X136675315Y-80481942D01*
X136675315Y-80481942D02*
X136627696Y-80577180D01*
X136627696Y-80577180D02*
X136580077Y-80624800D01*
X136580077Y-80624800D02*
X136484839Y-80672419D01*
X136484839Y-80672419D02*
X136341982Y-80672419D01*
X137103887Y-80672419D02*
X137103887Y-80005752D01*
X137103887Y-80196228D02*
X137151506Y-80100990D01*
X137151506Y-80100990D02*
X137199125Y-80053371D01*
X137199125Y-80053371D02*
X137294363Y-80005752D01*
X137294363Y-80005752D02*
X137389601Y-80005752D01*
D11*
X177769673Y-86867219D02*
X177769673Y-85867219D01*
X178436339Y-85867219D02*
X178626815Y-85867219D01*
X178626815Y-85867219D02*
X178722053Y-85914838D01*
X178722053Y-85914838D02*
X178817291Y-86010076D01*
X178817291Y-86010076D02*
X178864910Y-86200552D01*
X178864910Y-86200552D02*
X178864910Y-86533885D01*
X178864910Y-86533885D02*
X178817291Y-86724361D01*
X178817291Y-86724361D02*
X178722053Y-86819600D01*
X178722053Y-86819600D02*
X178626815Y-86867219D01*
X178626815Y-86867219D02*
X178436339Y-86867219D01*
X178436339Y-86867219D02*
X178341101Y-86819600D01*
X178341101Y-86819600D02*
X178245863Y-86724361D01*
X178245863Y-86724361D02*
X178198244Y-86533885D01*
X178198244Y-86533885D02*
X178198244Y-86200552D01*
X178198244Y-86200552D02*
X178245863Y-86010076D01*
X178245863Y-86010076D02*
X178341101Y-85914838D01*
X178341101Y-85914838D02*
X178436339Y-85867219D01*
X179198244Y-85867219D02*
X179817291Y-85867219D01*
X179817291Y-85867219D02*
X179483958Y-86248171D01*
X179483958Y-86248171D02*
X179626815Y-86248171D01*
X179626815Y-86248171D02*
X179722053Y-86295790D01*
X179722053Y-86295790D02*
X179769672Y-86343409D01*
X179769672Y-86343409D02*
X179817291Y-86438647D01*
X179817291Y-86438647D02*
X179817291Y-86676742D01*
X179817291Y-86676742D02*
X179769672Y-86771980D01*
X179769672Y-86771980D02*
X179722053Y-86819600D01*
X179722053Y-86819600D02*
X179626815Y-86867219D01*
X179626815Y-86867219D02*
X179341101Y-86867219D01*
X179341101Y-86867219D02*
X179245863Y-86819600D01*
X179245863Y-86819600D02*
X179198244Y-86771980D01*
X177769673Y-84267219D02*
X177769673Y-83267219D01*
X178436339Y-83267219D02*
X178626815Y-83267219D01*
X178626815Y-83267219D02*
X178722053Y-83314838D01*
X178722053Y-83314838D02*
X178817291Y-83410076D01*
X178817291Y-83410076D02*
X178864910Y-83600552D01*
X178864910Y-83600552D02*
X178864910Y-83933885D01*
X178864910Y-83933885D02*
X178817291Y-84124361D01*
X178817291Y-84124361D02*
X178722053Y-84219600D01*
X178722053Y-84219600D02*
X178626815Y-84267219D01*
X178626815Y-84267219D02*
X178436339Y-84267219D01*
X178436339Y-84267219D02*
X178341101Y-84219600D01*
X178341101Y-84219600D02*
X178245863Y-84124361D01*
X178245863Y-84124361D02*
X178198244Y-83933885D01*
X178198244Y-83933885D02*
X178198244Y-83600552D01*
X178198244Y-83600552D02*
X178245863Y-83410076D01*
X178245863Y-83410076D02*
X178341101Y-83314838D01*
X178341101Y-83314838D02*
X178436339Y-83267219D01*
X179245863Y-83362457D02*
X179293482Y-83314838D01*
X179293482Y-83314838D02*
X179388720Y-83267219D01*
X179388720Y-83267219D02*
X179626815Y-83267219D01*
X179626815Y-83267219D02*
X179722053Y-83314838D01*
X179722053Y-83314838D02*
X179769672Y-83362457D01*
X179769672Y-83362457D02*
X179817291Y-83457695D01*
X179817291Y-83457695D02*
X179817291Y-83552933D01*
X179817291Y-83552933D02*
X179769672Y-83695790D01*
X179769672Y-83695790D02*
X179198244Y-84267219D01*
X179198244Y-84267219D02*
X179817291Y-84267219D01*
X177893482Y-75714838D02*
X177798244Y-75667219D01*
X177798244Y-75667219D02*
X177655387Y-75667219D01*
X177655387Y-75667219D02*
X177512530Y-75714838D01*
X177512530Y-75714838D02*
X177417292Y-75810076D01*
X177417292Y-75810076D02*
X177369673Y-75905314D01*
X177369673Y-75905314D02*
X177322054Y-76095790D01*
X177322054Y-76095790D02*
X177322054Y-76238647D01*
X177322054Y-76238647D02*
X177369673Y-76429123D01*
X177369673Y-76429123D02*
X177417292Y-76524361D01*
X177417292Y-76524361D02*
X177512530Y-76619600D01*
X177512530Y-76619600D02*
X177655387Y-76667219D01*
X177655387Y-76667219D02*
X177750625Y-76667219D01*
X177750625Y-76667219D02*
X177893482Y-76619600D01*
X177893482Y-76619600D02*
X177941101Y-76571980D01*
X177941101Y-76571980D02*
X177941101Y-76238647D01*
X177941101Y-76238647D02*
X177750625Y-76238647D01*
X178369673Y-76667219D02*
X178369673Y-75667219D01*
X178369673Y-75667219D02*
X178941101Y-76667219D01*
X178941101Y-76667219D02*
X178941101Y-75667219D01*
X179417292Y-76667219D02*
X179417292Y-75667219D01*
X179417292Y-75667219D02*
X179655387Y-75667219D01*
X179655387Y-75667219D02*
X179798244Y-75714838D01*
X179798244Y-75714838D02*
X179893482Y-75810076D01*
X179893482Y-75810076D02*
X179941101Y-75905314D01*
X179941101Y-75905314D02*
X179988720Y-76095790D01*
X179988720Y-76095790D02*
X179988720Y-76238647D01*
X179988720Y-76238647D02*
X179941101Y-76429123D01*
X179941101Y-76429123D02*
X179893482Y-76524361D01*
X179893482Y-76524361D02*
X179798244Y-76619600D01*
X179798244Y-76619600D02*
X179655387Y-76667219D01*
X179655387Y-76667219D02*
X179417292Y-76667219D01*
X177474435Y-78267219D02*
X178093482Y-78267219D01*
X178093482Y-78267219D02*
X177760149Y-78648171D01*
X177760149Y-78648171D02*
X177903006Y-78648171D01*
X177903006Y-78648171D02*
X177998244Y-78695790D01*
X177998244Y-78695790D02*
X178045863Y-78743409D01*
X178045863Y-78743409D02*
X178093482Y-78838647D01*
X178093482Y-78838647D02*
X178093482Y-79076742D01*
X178093482Y-79076742D02*
X178045863Y-79171980D01*
X178045863Y-79171980D02*
X177998244Y-79219600D01*
X177998244Y-79219600D02*
X177903006Y-79267219D01*
X177903006Y-79267219D02*
X177617292Y-79267219D01*
X177617292Y-79267219D02*
X177522054Y-79219600D01*
X177522054Y-79219600D02*
X177474435Y-79171980D01*
X178379197Y-78267219D02*
X178712530Y-79267219D01*
X178712530Y-79267219D02*
X179045863Y-78267219D01*
X179283959Y-78267219D02*
X179903006Y-78267219D01*
X179903006Y-78267219D02*
X179569673Y-78648171D01*
X179569673Y-78648171D02*
X179712530Y-78648171D01*
X179712530Y-78648171D02*
X179807768Y-78695790D01*
X179807768Y-78695790D02*
X179855387Y-78743409D01*
X179855387Y-78743409D02*
X179903006Y-78838647D01*
X179903006Y-78838647D02*
X179903006Y-79076742D01*
X179903006Y-79076742D02*
X179855387Y-79171980D01*
X179855387Y-79171980D02*
X179807768Y-79219600D01*
X179807768Y-79219600D02*
X179712530Y-79267219D01*
X179712530Y-79267219D02*
X179426816Y-79267219D01*
X179426816Y-79267219D02*
X179331578Y-79219600D01*
X179331578Y-79219600D02*
X179283959Y-79171980D01*
X177769673Y-81667219D02*
X177769673Y-80667219D01*
X178436339Y-80667219D02*
X178626815Y-80667219D01*
X178626815Y-80667219D02*
X178722053Y-80714838D01*
X178722053Y-80714838D02*
X178817291Y-80810076D01*
X178817291Y-80810076D02*
X178864910Y-81000552D01*
X178864910Y-81000552D02*
X178864910Y-81333885D01*
X178864910Y-81333885D02*
X178817291Y-81524361D01*
X178817291Y-81524361D02*
X178722053Y-81619600D01*
X178722053Y-81619600D02*
X178626815Y-81667219D01*
X178626815Y-81667219D02*
X178436339Y-81667219D01*
X178436339Y-81667219D02*
X178341101Y-81619600D01*
X178341101Y-81619600D02*
X178245863Y-81524361D01*
X178245863Y-81524361D02*
X178198244Y-81333885D01*
X178198244Y-81333885D02*
X178198244Y-81000552D01*
X178198244Y-81000552D02*
X178245863Y-80810076D01*
X178245863Y-80810076D02*
X178341101Y-80714838D01*
X178341101Y-80714838D02*
X178436339Y-80667219D01*
X179817291Y-81667219D02*
X179245863Y-81667219D01*
X179531577Y-81667219D02*
X179531577Y-80667219D01*
X179531577Y-80667219D02*
X179436339Y-80810076D01*
X179436339Y-80810076D02*
X179341101Y-80905314D01*
X179341101Y-80905314D02*
X179245863Y-80952933D01*
X177769673Y-89467219D02*
X177769673Y-88467219D01*
X178436339Y-88467219D02*
X178626815Y-88467219D01*
X178626815Y-88467219D02*
X178722053Y-88514838D01*
X178722053Y-88514838D02*
X178817291Y-88610076D01*
X178817291Y-88610076D02*
X178864910Y-88800552D01*
X178864910Y-88800552D02*
X178864910Y-89133885D01*
X178864910Y-89133885D02*
X178817291Y-89324361D01*
X178817291Y-89324361D02*
X178722053Y-89419600D01*
X178722053Y-89419600D02*
X178626815Y-89467219D01*
X178626815Y-89467219D02*
X178436339Y-89467219D01*
X178436339Y-89467219D02*
X178341101Y-89419600D01*
X178341101Y-89419600D02*
X178245863Y-89324361D01*
X178245863Y-89324361D02*
X178198244Y-89133885D01*
X178198244Y-89133885D02*
X178198244Y-88800552D01*
X178198244Y-88800552D02*
X178245863Y-88610076D01*
X178245863Y-88610076D02*
X178341101Y-88514838D01*
X178341101Y-88514838D02*
X178436339Y-88467219D01*
X179722053Y-88800552D02*
X179722053Y-89467219D01*
X179483958Y-88419600D02*
X179245863Y-89133885D01*
X179245863Y-89133885D02*
X179864910Y-89133885D01*
X177769673Y-92067219D02*
X177769673Y-91067219D01*
X178436339Y-91067219D02*
X178626815Y-91067219D01*
X178626815Y-91067219D02*
X178722053Y-91114838D01*
X178722053Y-91114838D02*
X178817291Y-91210076D01*
X178817291Y-91210076D02*
X178864910Y-91400552D01*
X178864910Y-91400552D02*
X178864910Y-91733885D01*
X178864910Y-91733885D02*
X178817291Y-91924361D01*
X178817291Y-91924361D02*
X178722053Y-92019600D01*
X178722053Y-92019600D02*
X178626815Y-92067219D01*
X178626815Y-92067219D02*
X178436339Y-92067219D01*
X178436339Y-92067219D02*
X178341101Y-92019600D01*
X178341101Y-92019600D02*
X178245863Y-91924361D01*
X178245863Y-91924361D02*
X178198244Y-91733885D01*
X178198244Y-91733885D02*
X178198244Y-91400552D01*
X178198244Y-91400552D02*
X178245863Y-91210076D01*
X178245863Y-91210076D02*
X178341101Y-91114838D01*
X178341101Y-91114838D02*
X178436339Y-91067219D01*
X179769672Y-91067219D02*
X179293482Y-91067219D01*
X179293482Y-91067219D02*
X179245863Y-91543409D01*
X179245863Y-91543409D02*
X179293482Y-91495790D01*
X179293482Y-91495790D02*
X179388720Y-91448171D01*
X179388720Y-91448171D02*
X179626815Y-91448171D01*
X179626815Y-91448171D02*
X179722053Y-91495790D01*
X179722053Y-91495790D02*
X179769672Y-91543409D01*
X179769672Y-91543409D02*
X179817291Y-91638647D01*
X179817291Y-91638647D02*
X179817291Y-91876742D01*
X179817291Y-91876742D02*
X179769672Y-91971980D01*
X179769672Y-91971980D02*
X179722053Y-92019600D01*
X179722053Y-92019600D02*
X179626815Y-92067219D01*
X179626815Y-92067219D02*
X179388720Y-92067219D01*
X179388720Y-92067219D02*
X179293482Y-92019600D01*
X179293482Y-92019600D02*
X179245863Y-91971980D01*
X177769673Y-94467219D02*
X177769673Y-93467219D01*
X178436339Y-93467219D02*
X178626815Y-93467219D01*
X178626815Y-93467219D02*
X178722053Y-93514838D01*
X178722053Y-93514838D02*
X178817291Y-93610076D01*
X178817291Y-93610076D02*
X178864910Y-93800552D01*
X178864910Y-93800552D02*
X178864910Y-94133885D01*
X178864910Y-94133885D02*
X178817291Y-94324361D01*
X178817291Y-94324361D02*
X178722053Y-94419600D01*
X178722053Y-94419600D02*
X178626815Y-94467219D01*
X178626815Y-94467219D02*
X178436339Y-94467219D01*
X178436339Y-94467219D02*
X178341101Y-94419600D01*
X178341101Y-94419600D02*
X178245863Y-94324361D01*
X178245863Y-94324361D02*
X178198244Y-94133885D01*
X178198244Y-94133885D02*
X178198244Y-93800552D01*
X178198244Y-93800552D02*
X178245863Y-93610076D01*
X178245863Y-93610076D02*
X178341101Y-93514838D01*
X178341101Y-93514838D02*
X178436339Y-93467219D01*
X179722053Y-93467219D02*
X179531577Y-93467219D01*
X179531577Y-93467219D02*
X179436339Y-93514838D01*
X179436339Y-93514838D02*
X179388720Y-93562457D01*
X179388720Y-93562457D02*
X179293482Y-93705314D01*
X179293482Y-93705314D02*
X179245863Y-93895790D01*
X179245863Y-93895790D02*
X179245863Y-94276742D01*
X179245863Y-94276742D02*
X179293482Y-94371980D01*
X179293482Y-94371980D02*
X179341101Y-94419600D01*
X179341101Y-94419600D02*
X179436339Y-94467219D01*
X179436339Y-94467219D02*
X179626815Y-94467219D01*
X179626815Y-94467219D02*
X179722053Y-94419600D01*
X179722053Y-94419600D02*
X179769672Y-94371980D01*
X179769672Y-94371980D02*
X179817291Y-94276742D01*
X179817291Y-94276742D02*
X179817291Y-94038647D01*
X179817291Y-94038647D02*
X179769672Y-93943409D01*
X179769672Y-93943409D02*
X179722053Y-93895790D01*
X179722053Y-93895790D02*
X179626815Y-93848171D01*
X179626815Y-93848171D02*
X179436339Y-93848171D01*
X179436339Y-93848171D02*
X179341101Y-93895790D01*
X179341101Y-93895790D02*
X179293482Y-93943409D01*
X179293482Y-93943409D02*
X179245863Y-94038647D01*
D10*
X120792893Y-108050000D02*
X120792893Y-76050000D01*
X120807107Y-76050000D02*
X158807107Y-76139651D01*
D12*
X144824819Y-80566666D02*
X144348628Y-80899999D01*
X144824819Y-81138094D02*
X143824819Y-81138094D01*
X143824819Y-81138094D02*
X143824819Y-80757142D01*
X143824819Y-80757142D02*
X143872438Y-80661904D01*
X143872438Y-80661904D02*
X143920057Y-80614285D01*
X143920057Y-80614285D02*
X144015295Y-80566666D01*
X144015295Y-80566666D02*
X144158152Y-80566666D01*
X144158152Y-80566666D02*
X144253390Y-80614285D01*
X144253390Y-80614285D02*
X144301009Y-80661904D01*
X144301009Y-80661904D02*
X144348628Y-80757142D01*
X144348628Y-80757142D02*
X144348628Y-81138094D01*
X144824819Y-80090475D02*
X144824819Y-79899999D01*
X144824819Y-79899999D02*
X144777200Y-79804761D01*
X144777200Y-79804761D02*
X144729580Y-79757142D01*
X144729580Y-79757142D02*
X144586723Y-79661904D01*
X144586723Y-79661904D02*
X144396247Y-79614285D01*
X144396247Y-79614285D02*
X144015295Y-79614285D01*
X144015295Y-79614285D02*
X143920057Y-79661904D01*
X143920057Y-79661904D02*
X143872438Y-79709523D01*
X143872438Y-79709523D02*
X143824819Y-79804761D01*
X143824819Y-79804761D02*
X143824819Y-79995237D01*
X143824819Y-79995237D02*
X143872438Y-80090475D01*
X143872438Y-80090475D02*
X143920057Y-80138094D01*
X143920057Y-80138094D02*
X144015295Y-80185713D01*
X144015295Y-80185713D02*
X144253390Y-80185713D01*
X144253390Y-80185713D02*
X144348628Y-80138094D01*
X144348628Y-80138094D02*
X144396247Y-80090475D01*
X144396247Y-80090475D02*
X144443866Y-79995237D01*
X144443866Y-79995237D02*
X144443866Y-79804761D01*
X144443866Y-79804761D02*
X144396247Y-79709523D01*
X144396247Y-79709523D02*
X144348628Y-79661904D01*
X144348628Y-79661904D02*
X144253390Y-79614285D01*
X149561905Y-109504819D02*
X149561905Y-108504819D01*
X149561905Y-108504819D02*
X149800000Y-108504819D01*
X149800000Y-108504819D02*
X149942857Y-108552438D01*
X149942857Y-108552438D02*
X150038095Y-108647676D01*
X150038095Y-108647676D02*
X150085714Y-108742914D01*
X150085714Y-108742914D02*
X150133333Y-108933390D01*
X150133333Y-108933390D02*
X150133333Y-109076247D01*
X150133333Y-109076247D02*
X150085714Y-109266723D01*
X150085714Y-109266723D02*
X150038095Y-109361961D01*
X150038095Y-109361961D02*
X149942857Y-109457200D01*
X149942857Y-109457200D02*
X149800000Y-109504819D01*
X149800000Y-109504819D02*
X149561905Y-109504819D01*
X150514286Y-108600057D02*
X150561905Y-108552438D01*
X150561905Y-108552438D02*
X150657143Y-108504819D01*
X150657143Y-108504819D02*
X150895238Y-108504819D01*
X150895238Y-108504819D02*
X150990476Y-108552438D01*
X150990476Y-108552438D02*
X151038095Y-108600057D01*
X151038095Y-108600057D02*
X151085714Y-108695295D01*
X151085714Y-108695295D02*
X151085714Y-108790533D01*
X151085714Y-108790533D02*
X151038095Y-108933390D01*
X151038095Y-108933390D02*
X150466667Y-109504819D01*
X150466667Y-109504819D02*
X151085714Y-109504819D01*
X162633333Y-95104819D02*
X162157143Y-95104819D01*
X162157143Y-95104819D02*
X162157143Y-94104819D01*
X163490476Y-95104819D02*
X162919048Y-95104819D01*
X163204762Y-95104819D02*
X163204762Y-94104819D01*
X163204762Y-94104819D02*
X163109524Y-94247676D01*
X163109524Y-94247676D02*
X163014286Y-94342914D01*
X163014286Y-94342914D02*
X162919048Y-94390533D01*
X147557142Y-88209580D02*
X147509523Y-88257200D01*
X147509523Y-88257200D02*
X147366666Y-88304819D01*
X147366666Y-88304819D02*
X147271428Y-88304819D01*
X147271428Y-88304819D02*
X147128571Y-88257200D01*
X147128571Y-88257200D02*
X147033333Y-88161961D01*
X147033333Y-88161961D02*
X146985714Y-88066723D01*
X146985714Y-88066723D02*
X146938095Y-87876247D01*
X146938095Y-87876247D02*
X146938095Y-87733390D01*
X146938095Y-87733390D02*
X146985714Y-87542914D01*
X146985714Y-87542914D02*
X147033333Y-87447676D01*
X147033333Y-87447676D02*
X147128571Y-87352438D01*
X147128571Y-87352438D02*
X147271428Y-87304819D01*
X147271428Y-87304819D02*
X147366666Y-87304819D01*
X147366666Y-87304819D02*
X147509523Y-87352438D01*
X147509523Y-87352438D02*
X147557142Y-87400057D01*
X148509523Y-88304819D02*
X147938095Y-88304819D01*
X148223809Y-88304819D02*
X148223809Y-87304819D01*
X148223809Y-87304819D02*
X148128571Y-87447676D01*
X148128571Y-87447676D02*
X148033333Y-87542914D01*
X148033333Y-87542914D02*
X147938095Y-87590533D01*
X149128571Y-87304819D02*
X149223809Y-87304819D01*
X149223809Y-87304819D02*
X149319047Y-87352438D01*
X149319047Y-87352438D02*
X149366666Y-87400057D01*
X149366666Y-87400057D02*
X149414285Y-87495295D01*
X149414285Y-87495295D02*
X149461904Y-87685771D01*
X149461904Y-87685771D02*
X149461904Y-87923866D01*
X149461904Y-87923866D02*
X149414285Y-88114342D01*
X149414285Y-88114342D02*
X149366666Y-88209580D01*
X149366666Y-88209580D02*
X149319047Y-88257200D01*
X149319047Y-88257200D02*
X149223809Y-88304819D01*
X149223809Y-88304819D02*
X149128571Y-88304819D01*
X149128571Y-88304819D02*
X149033333Y-88257200D01*
X149033333Y-88257200D02*
X148985714Y-88209580D01*
X148985714Y-88209580D02*
X148938095Y-88114342D01*
X148938095Y-88114342D02*
X148890476Y-87923866D01*
X148890476Y-87923866D02*
X148890476Y-87685771D01*
X148890476Y-87685771D02*
X148938095Y-87495295D01*
X148938095Y-87495295D02*
X148985714Y-87400057D01*
X148985714Y-87400057D02*
X149033333Y-87352438D01*
X149033333Y-87352438D02*
X149128571Y-87304819D01*
X141633333Y-94809580D02*
X141585714Y-94857200D01*
X141585714Y-94857200D02*
X141442857Y-94904819D01*
X141442857Y-94904819D02*
X141347619Y-94904819D01*
X141347619Y-94904819D02*
X141204762Y-94857200D01*
X141204762Y-94857200D02*
X141109524Y-94761961D01*
X141109524Y-94761961D02*
X141061905Y-94666723D01*
X141061905Y-94666723D02*
X141014286Y-94476247D01*
X141014286Y-94476247D02*
X141014286Y-94333390D01*
X141014286Y-94333390D02*
X141061905Y-94142914D01*
X141061905Y-94142914D02*
X141109524Y-94047676D01*
X141109524Y-94047676D02*
X141204762Y-93952438D01*
X141204762Y-93952438D02*
X141347619Y-93904819D01*
X141347619Y-93904819D02*
X141442857Y-93904819D01*
X141442857Y-93904819D02*
X141585714Y-93952438D01*
X141585714Y-93952438D02*
X141633333Y-94000057D01*
X141966667Y-93904819D02*
X142633333Y-93904819D01*
X142633333Y-93904819D02*
X142204762Y-94904819D01*
X139033333Y-94809580D02*
X138985714Y-94857200D01*
X138985714Y-94857200D02*
X138842857Y-94904819D01*
X138842857Y-94904819D02*
X138747619Y-94904819D01*
X138747619Y-94904819D02*
X138604762Y-94857200D01*
X138604762Y-94857200D02*
X138509524Y-94761961D01*
X138509524Y-94761961D02*
X138461905Y-94666723D01*
X138461905Y-94666723D02*
X138414286Y-94476247D01*
X138414286Y-94476247D02*
X138414286Y-94333390D01*
X138414286Y-94333390D02*
X138461905Y-94142914D01*
X138461905Y-94142914D02*
X138509524Y-94047676D01*
X138509524Y-94047676D02*
X138604762Y-93952438D01*
X138604762Y-93952438D02*
X138747619Y-93904819D01*
X138747619Y-93904819D02*
X138842857Y-93904819D01*
X138842857Y-93904819D02*
X138985714Y-93952438D01*
X138985714Y-93952438D02*
X139033333Y-94000057D01*
X139604762Y-94333390D02*
X139509524Y-94285771D01*
X139509524Y-94285771D02*
X139461905Y-94238152D01*
X139461905Y-94238152D02*
X139414286Y-94142914D01*
X139414286Y-94142914D02*
X139414286Y-94095295D01*
X139414286Y-94095295D02*
X139461905Y-94000057D01*
X139461905Y-94000057D02*
X139509524Y-93952438D01*
X139509524Y-93952438D02*
X139604762Y-93904819D01*
X139604762Y-93904819D02*
X139795238Y-93904819D01*
X139795238Y-93904819D02*
X139890476Y-93952438D01*
X139890476Y-93952438D02*
X139938095Y-94000057D01*
X139938095Y-94000057D02*
X139985714Y-94095295D01*
X139985714Y-94095295D02*
X139985714Y-94142914D01*
X139985714Y-94142914D02*
X139938095Y-94238152D01*
X139938095Y-94238152D02*
X139890476Y-94285771D01*
X139890476Y-94285771D02*
X139795238Y-94333390D01*
X139795238Y-94333390D02*
X139604762Y-94333390D01*
X139604762Y-94333390D02*
X139509524Y-94381009D01*
X139509524Y-94381009D02*
X139461905Y-94428628D01*
X139461905Y-94428628D02*
X139414286Y-94523866D01*
X139414286Y-94523866D02*
X139414286Y-94714342D01*
X139414286Y-94714342D02*
X139461905Y-94809580D01*
X139461905Y-94809580D02*
X139509524Y-94857200D01*
X139509524Y-94857200D02*
X139604762Y-94904819D01*
X139604762Y-94904819D02*
X139795238Y-94904819D01*
X139795238Y-94904819D02*
X139890476Y-94857200D01*
X139890476Y-94857200D02*
X139938095Y-94809580D01*
X139938095Y-94809580D02*
X139985714Y-94714342D01*
X139985714Y-94714342D02*
X139985714Y-94523866D01*
X139985714Y-94523866D02*
X139938095Y-94428628D01*
X139938095Y-94428628D02*
X139890476Y-94381009D01*
X139890476Y-94381009D02*
X139795238Y-94333390D01*
X143911905Y-91504819D02*
X143911905Y-90504819D01*
X143911905Y-90504819D02*
X144150000Y-90504819D01*
X144150000Y-90504819D02*
X144292857Y-90552438D01*
X144292857Y-90552438D02*
X144388095Y-90647676D01*
X144388095Y-90647676D02*
X144435714Y-90742914D01*
X144435714Y-90742914D02*
X144483333Y-90933390D01*
X144483333Y-90933390D02*
X144483333Y-91076247D01*
X144483333Y-91076247D02*
X144435714Y-91266723D01*
X144435714Y-91266723D02*
X144388095Y-91361961D01*
X144388095Y-91361961D02*
X144292857Y-91457200D01*
X144292857Y-91457200D02*
X144150000Y-91504819D01*
X144150000Y-91504819D02*
X143911905Y-91504819D01*
X145340476Y-90504819D02*
X145150000Y-90504819D01*
X145150000Y-90504819D02*
X145054762Y-90552438D01*
X145054762Y-90552438D02*
X145007143Y-90600057D01*
X145007143Y-90600057D02*
X144911905Y-90742914D01*
X144911905Y-90742914D02*
X144864286Y-90933390D01*
X144864286Y-90933390D02*
X144864286Y-91314342D01*
X144864286Y-91314342D02*
X144911905Y-91409580D01*
X144911905Y-91409580D02*
X144959524Y-91457200D01*
X144959524Y-91457200D02*
X145054762Y-91504819D01*
X145054762Y-91504819D02*
X145245238Y-91504819D01*
X145245238Y-91504819D02*
X145340476Y-91457200D01*
X145340476Y-91457200D02*
X145388095Y-91409580D01*
X145388095Y-91409580D02*
X145435714Y-91314342D01*
X145435714Y-91314342D02*
X145435714Y-91076247D01*
X145435714Y-91076247D02*
X145388095Y-90981009D01*
X145388095Y-90981009D02*
X145340476Y-90933390D01*
X145340476Y-90933390D02*
X145245238Y-90885771D01*
X145245238Y-90885771D02*
X145054762Y-90885771D01*
X145054762Y-90885771D02*
X144959524Y-90933390D01*
X144959524Y-90933390D02*
X144911905Y-90981009D01*
X144911905Y-90981009D02*
X144864286Y-91076247D01*
X143911905Y-96304819D02*
X143911905Y-95304819D01*
X143911905Y-95304819D02*
X144150000Y-95304819D01*
X144150000Y-95304819D02*
X144292857Y-95352438D01*
X144292857Y-95352438D02*
X144388095Y-95447676D01*
X144388095Y-95447676D02*
X144435714Y-95542914D01*
X144435714Y-95542914D02*
X144483333Y-95733390D01*
X144483333Y-95733390D02*
X144483333Y-95876247D01*
X144483333Y-95876247D02*
X144435714Y-96066723D01*
X144435714Y-96066723D02*
X144388095Y-96161961D01*
X144388095Y-96161961D02*
X144292857Y-96257200D01*
X144292857Y-96257200D02*
X144150000Y-96304819D01*
X144150000Y-96304819D02*
X143911905Y-96304819D01*
X145340476Y-95638152D02*
X145340476Y-96304819D01*
X145102381Y-95257200D02*
X144864286Y-95971485D01*
X144864286Y-95971485D02*
X145483333Y-95971485D01*
X154307141Y-82059580D02*
X154259522Y-82107200D01*
X154259522Y-82107200D02*
X154116665Y-82154819D01*
X154116665Y-82154819D02*
X154021427Y-82154819D01*
X154021427Y-82154819D02*
X153878570Y-82107200D01*
X153878570Y-82107200D02*
X153783332Y-82011961D01*
X153783332Y-82011961D02*
X153735713Y-81916723D01*
X153735713Y-81916723D02*
X153688094Y-81726247D01*
X153688094Y-81726247D02*
X153688094Y-81583390D01*
X153688094Y-81583390D02*
X153735713Y-81392914D01*
X153735713Y-81392914D02*
X153783332Y-81297676D01*
X153783332Y-81297676D02*
X153878570Y-81202438D01*
X153878570Y-81202438D02*
X154021427Y-81154819D01*
X154021427Y-81154819D02*
X154116665Y-81154819D01*
X154116665Y-81154819D02*
X154259522Y-81202438D01*
X154259522Y-81202438D02*
X154307141Y-81250057D01*
X155259522Y-82154819D02*
X154688094Y-82154819D01*
X154973808Y-82154819D02*
X154973808Y-81154819D01*
X154973808Y-81154819D02*
X154878570Y-81297676D01*
X154878570Y-81297676D02*
X154783332Y-81392914D01*
X154783332Y-81392914D02*
X154688094Y-81440533D01*
X155735713Y-82154819D02*
X155926189Y-82154819D01*
X155926189Y-82154819D02*
X156021427Y-82107200D01*
X156021427Y-82107200D02*
X156069046Y-82059580D01*
X156069046Y-82059580D02*
X156164284Y-81916723D01*
X156164284Y-81916723D02*
X156211903Y-81726247D01*
X156211903Y-81726247D02*
X156211903Y-81345295D01*
X156211903Y-81345295D02*
X156164284Y-81250057D01*
X156164284Y-81250057D02*
X156116665Y-81202438D01*
X156116665Y-81202438D02*
X156021427Y-81154819D01*
X156021427Y-81154819D02*
X155830951Y-81154819D01*
X155830951Y-81154819D02*
X155735713Y-81202438D01*
X155735713Y-81202438D02*
X155688094Y-81250057D01*
X155688094Y-81250057D02*
X155640475Y-81345295D01*
X155640475Y-81345295D02*
X155640475Y-81583390D01*
X155640475Y-81583390D02*
X155688094Y-81678628D01*
X155688094Y-81678628D02*
X155735713Y-81726247D01*
X155735713Y-81726247D02*
X155830951Y-81773866D01*
X155830951Y-81773866D02*
X156021427Y-81773866D01*
X156021427Y-81773866D02*
X156116665Y-81726247D01*
X156116665Y-81726247D02*
X156164284Y-81678628D01*
X156164284Y-81678628D02*
X156211903Y-81583390D01*
X154307141Y-79259580D02*
X154259522Y-79307200D01*
X154259522Y-79307200D02*
X154116665Y-79354819D01*
X154116665Y-79354819D02*
X154021427Y-79354819D01*
X154021427Y-79354819D02*
X153878570Y-79307200D01*
X153878570Y-79307200D02*
X153783332Y-79211961D01*
X153783332Y-79211961D02*
X153735713Y-79116723D01*
X153735713Y-79116723D02*
X153688094Y-78926247D01*
X153688094Y-78926247D02*
X153688094Y-78783390D01*
X153688094Y-78783390D02*
X153735713Y-78592914D01*
X153735713Y-78592914D02*
X153783332Y-78497676D01*
X153783332Y-78497676D02*
X153878570Y-78402438D01*
X153878570Y-78402438D02*
X154021427Y-78354819D01*
X154021427Y-78354819D02*
X154116665Y-78354819D01*
X154116665Y-78354819D02*
X154259522Y-78402438D01*
X154259522Y-78402438D02*
X154307141Y-78450057D01*
X155259522Y-79354819D02*
X154688094Y-79354819D01*
X154973808Y-79354819D02*
X154973808Y-78354819D01*
X154973808Y-78354819D02*
X154878570Y-78497676D01*
X154878570Y-78497676D02*
X154783332Y-78592914D01*
X154783332Y-78592914D02*
X154688094Y-78640533D01*
X155830951Y-78783390D02*
X155735713Y-78735771D01*
X155735713Y-78735771D02*
X155688094Y-78688152D01*
X155688094Y-78688152D02*
X155640475Y-78592914D01*
X155640475Y-78592914D02*
X155640475Y-78545295D01*
X155640475Y-78545295D02*
X155688094Y-78450057D01*
X155688094Y-78450057D02*
X155735713Y-78402438D01*
X155735713Y-78402438D02*
X155830951Y-78354819D01*
X155830951Y-78354819D02*
X156021427Y-78354819D01*
X156021427Y-78354819D02*
X156116665Y-78402438D01*
X156116665Y-78402438D02*
X156164284Y-78450057D01*
X156164284Y-78450057D02*
X156211903Y-78545295D01*
X156211903Y-78545295D02*
X156211903Y-78592914D01*
X156211903Y-78592914D02*
X156164284Y-78688152D01*
X156164284Y-78688152D02*
X156116665Y-78735771D01*
X156116665Y-78735771D02*
X156021427Y-78783390D01*
X156021427Y-78783390D02*
X155830951Y-78783390D01*
X155830951Y-78783390D02*
X155735713Y-78831009D01*
X155735713Y-78831009D02*
X155688094Y-78878628D01*
X155688094Y-78878628D02*
X155640475Y-78973866D01*
X155640475Y-78973866D02*
X155640475Y-79164342D01*
X155640475Y-79164342D02*
X155688094Y-79259580D01*
X155688094Y-79259580D02*
X155735713Y-79307200D01*
X155735713Y-79307200D02*
X155830951Y-79354819D01*
X155830951Y-79354819D02*
X156021427Y-79354819D01*
X156021427Y-79354819D02*
X156116665Y-79307200D01*
X156116665Y-79307200D02*
X156164284Y-79259580D01*
X156164284Y-79259580D02*
X156211903Y-79164342D01*
X156211903Y-79164342D02*
X156211903Y-78973866D01*
X156211903Y-78973866D02*
X156164284Y-78878628D01*
X156164284Y-78878628D02*
X156116665Y-78831009D01*
X156116665Y-78831009D02*
X156021427Y-78783390D01*
X147523809Y-84078628D02*
X147523809Y-84554819D01*
X147190476Y-83554819D02*
X147523809Y-84078628D01*
X147523809Y-84078628D02*
X147857142Y-83554819D01*
X148714285Y-84554819D02*
X148142857Y-84554819D01*
X148428571Y-84554819D02*
X148428571Y-83554819D01*
X148428571Y-83554819D02*
X148333333Y-83697676D01*
X148333333Y-83697676D02*
X148238095Y-83792914D01*
X148238095Y-83792914D02*
X148142857Y-83840533D01*
X150133333Y-107004819D02*
X149800000Y-106528628D01*
X149561905Y-107004819D02*
X149561905Y-106004819D01*
X149561905Y-106004819D02*
X149942857Y-106004819D01*
X149942857Y-106004819D02*
X150038095Y-106052438D01*
X150038095Y-106052438D02*
X150085714Y-106100057D01*
X150085714Y-106100057D02*
X150133333Y-106195295D01*
X150133333Y-106195295D02*
X150133333Y-106338152D01*
X150133333Y-106338152D02*
X150085714Y-106433390D01*
X150085714Y-106433390D02*
X150038095Y-106481009D01*
X150038095Y-106481009D02*
X149942857Y-106528628D01*
X149942857Y-106528628D02*
X149561905Y-106528628D01*
X150990476Y-106338152D02*
X150990476Y-107004819D01*
X150752381Y-105957200D02*
X150514286Y-106671485D01*
X150514286Y-106671485D02*
X151133333Y-106671485D01*
X152357142Y-87609580D02*
X152309523Y-87657200D01*
X152309523Y-87657200D02*
X152166666Y-87704819D01*
X152166666Y-87704819D02*
X152071428Y-87704819D01*
X152071428Y-87704819D02*
X151928571Y-87657200D01*
X151928571Y-87657200D02*
X151833333Y-87561961D01*
X151833333Y-87561961D02*
X151785714Y-87466723D01*
X151785714Y-87466723D02*
X151738095Y-87276247D01*
X151738095Y-87276247D02*
X151738095Y-87133390D01*
X151738095Y-87133390D02*
X151785714Y-86942914D01*
X151785714Y-86942914D02*
X151833333Y-86847676D01*
X151833333Y-86847676D02*
X151928571Y-86752438D01*
X151928571Y-86752438D02*
X152071428Y-86704819D01*
X152071428Y-86704819D02*
X152166666Y-86704819D01*
X152166666Y-86704819D02*
X152309523Y-86752438D01*
X152309523Y-86752438D02*
X152357142Y-86800057D01*
X153309523Y-87704819D02*
X152738095Y-87704819D01*
X153023809Y-87704819D02*
X153023809Y-86704819D01*
X153023809Y-86704819D02*
X152928571Y-86847676D01*
X152928571Y-86847676D02*
X152833333Y-86942914D01*
X152833333Y-86942914D02*
X152738095Y-86990533D01*
X153642857Y-86704819D02*
X154309523Y-86704819D01*
X154309523Y-86704819D02*
X153880952Y-87704819D01*
X148288095Y-97504819D02*
X148288095Y-98314342D01*
X148288095Y-98314342D02*
X148335714Y-98409580D01*
X148335714Y-98409580D02*
X148383333Y-98457200D01*
X148383333Y-98457200D02*
X148478571Y-98504819D01*
X148478571Y-98504819D02*
X148669047Y-98504819D01*
X148669047Y-98504819D02*
X148764285Y-98457200D01*
X148764285Y-98457200D02*
X148811904Y-98409580D01*
X148811904Y-98409580D02*
X148859523Y-98314342D01*
X148859523Y-98314342D02*
X148859523Y-97504819D01*
X149288095Y-97600057D02*
X149335714Y-97552438D01*
X149335714Y-97552438D02*
X149430952Y-97504819D01*
X149430952Y-97504819D02*
X149669047Y-97504819D01*
X149669047Y-97504819D02*
X149764285Y-97552438D01*
X149764285Y-97552438D02*
X149811904Y-97600057D01*
X149811904Y-97600057D02*
X149859523Y-97695295D01*
X149859523Y-97695295D02*
X149859523Y-97790533D01*
X149859523Y-97790533D02*
X149811904Y-97933390D01*
X149811904Y-97933390D02*
X149240476Y-98504819D01*
X149240476Y-98504819D02*
X149859523Y-98504819D01*
X178200000Y-96854819D02*
X178200000Y-95854819D01*
X178866666Y-95854819D02*
X179057142Y-95854819D01*
X179057142Y-95854819D02*
X179152380Y-95902438D01*
X179152380Y-95902438D02*
X179247618Y-95997676D01*
X179247618Y-95997676D02*
X179295237Y-96188152D01*
X179295237Y-96188152D02*
X179295237Y-96521485D01*
X179295237Y-96521485D02*
X179247618Y-96711961D01*
X179247618Y-96711961D02*
X179152380Y-96807200D01*
X179152380Y-96807200D02*
X179057142Y-96854819D01*
X179057142Y-96854819D02*
X178866666Y-96854819D01*
X178866666Y-96854819D02*
X178771428Y-96807200D01*
X178771428Y-96807200D02*
X178676190Y-96711961D01*
X178676190Y-96711961D02*
X178628571Y-96521485D01*
X178628571Y-96521485D02*
X178628571Y-96188152D01*
X178628571Y-96188152D02*
X178676190Y-95997676D01*
X178676190Y-95997676D02*
X178771428Y-95902438D01*
X178771428Y-95902438D02*
X178866666Y-95854819D01*
X180485714Y-96854819D02*
X180485714Y-95854819D01*
X180485714Y-95854819D02*
X180866666Y-95854819D01*
X180866666Y-95854819D02*
X180961904Y-95902438D01*
X180961904Y-95902438D02*
X181009523Y-95950057D01*
X181009523Y-95950057D02*
X181057142Y-96045295D01*
X181057142Y-96045295D02*
X181057142Y-96188152D01*
X181057142Y-96188152D02*
X181009523Y-96283390D01*
X181009523Y-96283390D02*
X180961904Y-96331009D01*
X180961904Y-96331009D02*
X180866666Y-96378628D01*
X180866666Y-96378628D02*
X180485714Y-96378628D01*
X181485714Y-96854819D02*
X181485714Y-96188152D01*
X181485714Y-95854819D02*
X181438095Y-95902438D01*
X181438095Y-95902438D02*
X181485714Y-95950057D01*
X181485714Y-95950057D02*
X181533333Y-95902438D01*
X181533333Y-95902438D02*
X181485714Y-95854819D01*
X181485714Y-95854819D02*
X181485714Y-95950057D01*
X181961904Y-96188152D02*
X181961904Y-96854819D01*
X181961904Y-96283390D02*
X182009523Y-96235771D01*
X182009523Y-96235771D02*
X182104761Y-96188152D01*
X182104761Y-96188152D02*
X182247618Y-96188152D01*
X182247618Y-96188152D02*
X182342856Y-96235771D01*
X182342856Y-96235771D02*
X182390475Y-96331009D01*
X182390475Y-96331009D02*
X182390475Y-96854819D01*
X182819047Y-96807200D02*
X182914285Y-96854819D01*
X182914285Y-96854819D02*
X183104761Y-96854819D01*
X183104761Y-96854819D02*
X183199999Y-96807200D01*
X183199999Y-96807200D02*
X183247618Y-96711961D01*
X183247618Y-96711961D02*
X183247618Y-96664342D01*
X183247618Y-96664342D02*
X183199999Y-96569104D01*
X183199999Y-96569104D02*
X183104761Y-96521485D01*
X183104761Y-96521485D02*
X182961904Y-96521485D01*
X182961904Y-96521485D02*
X182866666Y-96473866D01*
X182866666Y-96473866D02*
X182819047Y-96378628D01*
X182819047Y-96378628D02*
X182819047Y-96331009D01*
X182819047Y-96331009D02*
X182866666Y-96235771D01*
X182866666Y-96235771D02*
X182961904Y-96188152D01*
X182961904Y-96188152D02*
X183104761Y-96188152D01*
X183104761Y-96188152D02*
X183199999Y-96235771D01*
X129383333Y-106909580D02*
X129335714Y-106957200D01*
X129335714Y-106957200D02*
X129192857Y-107004819D01*
X129192857Y-107004819D02*
X129097619Y-107004819D01*
X129097619Y-107004819D02*
X128954762Y-106957200D01*
X128954762Y-106957200D02*
X128859524Y-106861961D01*
X128859524Y-106861961D02*
X128811905Y-106766723D01*
X128811905Y-106766723D02*
X128764286Y-106576247D01*
X128764286Y-106576247D02*
X128764286Y-106433390D01*
X128764286Y-106433390D02*
X128811905Y-106242914D01*
X128811905Y-106242914D02*
X128859524Y-106147676D01*
X128859524Y-106147676D02*
X128954762Y-106052438D01*
X128954762Y-106052438D02*
X129097619Y-106004819D01*
X129097619Y-106004819D02*
X129192857Y-106004819D01*
X129192857Y-106004819D02*
X129335714Y-106052438D01*
X129335714Y-106052438D02*
X129383333Y-106100057D01*
X130288095Y-106004819D02*
X129811905Y-106004819D01*
X129811905Y-106004819D02*
X129764286Y-106481009D01*
X129764286Y-106481009D02*
X129811905Y-106433390D01*
X129811905Y-106433390D02*
X129907143Y-106385771D01*
X129907143Y-106385771D02*
X130145238Y-106385771D01*
X130145238Y-106385771D02*
X130240476Y-106433390D01*
X130240476Y-106433390D02*
X130288095Y-106481009D01*
X130288095Y-106481009D02*
X130335714Y-106576247D01*
X130335714Y-106576247D02*
X130335714Y-106814342D01*
X130335714Y-106814342D02*
X130288095Y-106909580D01*
X130288095Y-106909580D02*
X130240476Y-106957200D01*
X130240476Y-106957200D02*
X130145238Y-107004819D01*
X130145238Y-107004819D02*
X129907143Y-107004819D01*
X129907143Y-107004819D02*
X129811905Y-106957200D01*
X129811905Y-106957200D02*
X129764286Y-106909580D01*
X169859580Y-102242857D02*
X169907200Y-102290476D01*
X169907200Y-102290476D02*
X169954819Y-102433333D01*
X169954819Y-102433333D02*
X169954819Y-102528571D01*
X169954819Y-102528571D02*
X169907200Y-102671428D01*
X169907200Y-102671428D02*
X169811961Y-102766666D01*
X169811961Y-102766666D02*
X169716723Y-102814285D01*
X169716723Y-102814285D02*
X169526247Y-102861904D01*
X169526247Y-102861904D02*
X169383390Y-102861904D01*
X169383390Y-102861904D02*
X169192914Y-102814285D01*
X169192914Y-102814285D02*
X169097676Y-102766666D01*
X169097676Y-102766666D02*
X169002438Y-102671428D01*
X169002438Y-102671428D02*
X168954819Y-102528571D01*
X168954819Y-102528571D02*
X168954819Y-102433333D01*
X168954819Y-102433333D02*
X169002438Y-102290476D01*
X169002438Y-102290476D02*
X169050057Y-102242857D01*
X169954819Y-101290476D02*
X169954819Y-101861904D01*
X169954819Y-101576190D02*
X168954819Y-101576190D01*
X168954819Y-101576190D02*
X169097676Y-101671428D01*
X169097676Y-101671428D02*
X169192914Y-101766666D01*
X169192914Y-101766666D02*
X169240533Y-101861904D01*
X168954819Y-100385714D02*
X168954819Y-100861904D01*
X168954819Y-100861904D02*
X169431009Y-100909523D01*
X169431009Y-100909523D02*
X169383390Y-100861904D01*
X169383390Y-100861904D02*
X169335771Y-100766666D01*
X169335771Y-100766666D02*
X169335771Y-100528571D01*
X169335771Y-100528571D02*
X169383390Y-100433333D01*
X169383390Y-100433333D02*
X169431009Y-100385714D01*
X169431009Y-100385714D02*
X169526247Y-100338095D01*
X169526247Y-100338095D02*
X169764342Y-100338095D01*
X169764342Y-100338095D02*
X169859580Y-100385714D01*
X169859580Y-100385714D02*
X169907200Y-100433333D01*
X169907200Y-100433333D02*
X169954819Y-100528571D01*
X169954819Y-100528571D02*
X169954819Y-100766666D01*
X169954819Y-100766666D02*
X169907200Y-100861904D01*
X169907200Y-100861904D02*
X169859580Y-100909523D01*
X134754819Y-101038094D02*
X133754819Y-101038094D01*
X133754819Y-101038094D02*
X133754819Y-100799999D01*
X133754819Y-100799999D02*
X133802438Y-100657142D01*
X133802438Y-100657142D02*
X133897676Y-100561904D01*
X133897676Y-100561904D02*
X133992914Y-100514285D01*
X133992914Y-100514285D02*
X134183390Y-100466666D01*
X134183390Y-100466666D02*
X134326247Y-100466666D01*
X134326247Y-100466666D02*
X134516723Y-100514285D01*
X134516723Y-100514285D02*
X134611961Y-100561904D01*
X134611961Y-100561904D02*
X134707200Y-100657142D01*
X134707200Y-100657142D02*
X134754819Y-100799999D01*
X134754819Y-100799999D02*
X134754819Y-101038094D01*
X133754819Y-100133332D02*
X133754819Y-99514285D01*
X133754819Y-99514285D02*
X134135771Y-99847618D01*
X134135771Y-99847618D02*
X134135771Y-99704761D01*
X134135771Y-99704761D02*
X134183390Y-99609523D01*
X134183390Y-99609523D02*
X134231009Y-99561904D01*
X134231009Y-99561904D02*
X134326247Y-99514285D01*
X134326247Y-99514285D02*
X134564342Y-99514285D01*
X134564342Y-99514285D02*
X134659580Y-99561904D01*
X134659580Y-99561904D02*
X134707200Y-99609523D01*
X134707200Y-99609523D02*
X134754819Y-99704761D01*
X134754819Y-99704761D02*
X134754819Y-99990475D01*
X134754819Y-99990475D02*
X134707200Y-100085713D01*
X134707200Y-100085713D02*
X134659580Y-100133332D01*
X144883333Y-98909580D02*
X144835714Y-98957200D01*
X144835714Y-98957200D02*
X144692857Y-99004819D01*
X144692857Y-99004819D02*
X144597619Y-99004819D01*
X144597619Y-99004819D02*
X144454762Y-98957200D01*
X144454762Y-98957200D02*
X144359524Y-98861961D01*
X144359524Y-98861961D02*
X144311905Y-98766723D01*
X144311905Y-98766723D02*
X144264286Y-98576247D01*
X144264286Y-98576247D02*
X144264286Y-98433390D01*
X144264286Y-98433390D02*
X144311905Y-98242914D01*
X144311905Y-98242914D02*
X144359524Y-98147676D01*
X144359524Y-98147676D02*
X144454762Y-98052438D01*
X144454762Y-98052438D02*
X144597619Y-98004819D01*
X144597619Y-98004819D02*
X144692857Y-98004819D01*
X144692857Y-98004819D02*
X144835714Y-98052438D01*
X144835714Y-98052438D02*
X144883333Y-98100057D01*
X145835714Y-99004819D02*
X145264286Y-99004819D01*
X145550000Y-99004819D02*
X145550000Y-98004819D01*
X145550000Y-98004819D02*
X145454762Y-98147676D01*
X145454762Y-98147676D02*
X145359524Y-98242914D01*
X145359524Y-98242914D02*
X145264286Y-98290533D01*
X143504819Y-101216666D02*
X143028628Y-101549999D01*
X143504819Y-101788094D02*
X142504819Y-101788094D01*
X142504819Y-101788094D02*
X142504819Y-101407142D01*
X142504819Y-101407142D02*
X142552438Y-101311904D01*
X142552438Y-101311904D02*
X142600057Y-101264285D01*
X142600057Y-101264285D02*
X142695295Y-101216666D01*
X142695295Y-101216666D02*
X142838152Y-101216666D01*
X142838152Y-101216666D02*
X142933390Y-101264285D01*
X142933390Y-101264285D02*
X142981009Y-101311904D01*
X142981009Y-101311904D02*
X143028628Y-101407142D01*
X143028628Y-101407142D02*
X143028628Y-101788094D01*
X142933390Y-100645237D02*
X142885771Y-100740475D01*
X142885771Y-100740475D02*
X142838152Y-100788094D01*
X142838152Y-100788094D02*
X142742914Y-100835713D01*
X142742914Y-100835713D02*
X142695295Y-100835713D01*
X142695295Y-100835713D02*
X142600057Y-100788094D01*
X142600057Y-100788094D02*
X142552438Y-100740475D01*
X142552438Y-100740475D02*
X142504819Y-100645237D01*
X142504819Y-100645237D02*
X142504819Y-100454761D01*
X142504819Y-100454761D02*
X142552438Y-100359523D01*
X142552438Y-100359523D02*
X142600057Y-100311904D01*
X142600057Y-100311904D02*
X142695295Y-100264285D01*
X142695295Y-100264285D02*
X142742914Y-100264285D01*
X142742914Y-100264285D02*
X142838152Y-100311904D01*
X142838152Y-100311904D02*
X142885771Y-100359523D01*
X142885771Y-100359523D02*
X142933390Y-100454761D01*
X142933390Y-100454761D02*
X142933390Y-100645237D01*
X142933390Y-100645237D02*
X142981009Y-100740475D01*
X142981009Y-100740475D02*
X143028628Y-100788094D01*
X143028628Y-100788094D02*
X143123866Y-100835713D01*
X143123866Y-100835713D02*
X143314342Y-100835713D01*
X143314342Y-100835713D02*
X143409580Y-100788094D01*
X143409580Y-100788094D02*
X143457200Y-100740475D01*
X143457200Y-100740475D02*
X143504819Y-100645237D01*
X143504819Y-100645237D02*
X143504819Y-100454761D01*
X143504819Y-100454761D02*
X143457200Y-100359523D01*
X143457200Y-100359523D02*
X143409580Y-100311904D01*
X143409580Y-100311904D02*
X143314342Y-100264285D01*
X143314342Y-100264285D02*
X143123866Y-100264285D01*
X143123866Y-100264285D02*
X143028628Y-100311904D01*
X143028628Y-100311904D02*
X142981009Y-100359523D01*
X142981009Y-100359523D02*
X142933390Y-100454761D01*
X156004819Y-100788094D02*
X155004819Y-100788094D01*
X155004819Y-100788094D02*
X155004819Y-100549999D01*
X155004819Y-100549999D02*
X155052438Y-100407142D01*
X155052438Y-100407142D02*
X155147676Y-100311904D01*
X155147676Y-100311904D02*
X155242914Y-100264285D01*
X155242914Y-100264285D02*
X155433390Y-100216666D01*
X155433390Y-100216666D02*
X155576247Y-100216666D01*
X155576247Y-100216666D02*
X155766723Y-100264285D01*
X155766723Y-100264285D02*
X155861961Y-100311904D01*
X155861961Y-100311904D02*
X155957200Y-100407142D01*
X155957200Y-100407142D02*
X156004819Y-100549999D01*
X156004819Y-100549999D02*
X156004819Y-100788094D01*
X156004819Y-99264285D02*
X156004819Y-99835713D01*
X156004819Y-99549999D02*
X155004819Y-99549999D01*
X155004819Y-99549999D02*
X155147676Y-99645237D01*
X155147676Y-99645237D02*
X155242914Y-99740475D01*
X155242914Y-99740475D02*
X155290533Y-99835713D01*
X152357142Y-85009580D02*
X152309523Y-85057200D01*
X152309523Y-85057200D02*
X152166666Y-85104819D01*
X152166666Y-85104819D02*
X152071428Y-85104819D01*
X152071428Y-85104819D02*
X151928571Y-85057200D01*
X151928571Y-85057200D02*
X151833333Y-84961961D01*
X151833333Y-84961961D02*
X151785714Y-84866723D01*
X151785714Y-84866723D02*
X151738095Y-84676247D01*
X151738095Y-84676247D02*
X151738095Y-84533390D01*
X151738095Y-84533390D02*
X151785714Y-84342914D01*
X151785714Y-84342914D02*
X151833333Y-84247676D01*
X151833333Y-84247676D02*
X151928571Y-84152438D01*
X151928571Y-84152438D02*
X152071428Y-84104819D01*
X152071428Y-84104819D02*
X152166666Y-84104819D01*
X152166666Y-84104819D02*
X152309523Y-84152438D01*
X152309523Y-84152438D02*
X152357142Y-84200057D01*
X153309523Y-85104819D02*
X152738095Y-85104819D01*
X153023809Y-85104819D02*
X153023809Y-84104819D01*
X153023809Y-84104819D02*
X152928571Y-84247676D01*
X152928571Y-84247676D02*
X152833333Y-84342914D01*
X152833333Y-84342914D02*
X152738095Y-84390533D01*
X154166666Y-84104819D02*
X153976190Y-84104819D01*
X153976190Y-84104819D02*
X153880952Y-84152438D01*
X153880952Y-84152438D02*
X153833333Y-84200057D01*
X153833333Y-84200057D02*
X153738095Y-84342914D01*
X153738095Y-84342914D02*
X153690476Y-84533390D01*
X153690476Y-84533390D02*
X153690476Y-84914342D01*
X153690476Y-84914342D02*
X153738095Y-85009580D01*
X153738095Y-85009580D02*
X153785714Y-85057200D01*
X153785714Y-85057200D02*
X153880952Y-85104819D01*
X153880952Y-85104819D02*
X154071428Y-85104819D01*
X154071428Y-85104819D02*
X154166666Y-85057200D01*
X154166666Y-85057200D02*
X154214285Y-85009580D01*
X154214285Y-85009580D02*
X154261904Y-84914342D01*
X154261904Y-84914342D02*
X154261904Y-84676247D01*
X154261904Y-84676247D02*
X154214285Y-84581009D01*
X154214285Y-84581009D02*
X154166666Y-84533390D01*
X154166666Y-84533390D02*
X154071428Y-84485771D01*
X154071428Y-84485771D02*
X153880952Y-84485771D01*
X153880952Y-84485771D02*
X153785714Y-84533390D01*
X153785714Y-84533390D02*
X153738095Y-84581009D01*
X153738095Y-84581009D02*
X153690476Y-84676247D01*
X142407142Y-85409580D02*
X142359523Y-85457200D01*
X142359523Y-85457200D02*
X142216666Y-85504819D01*
X142216666Y-85504819D02*
X142121428Y-85504819D01*
X142121428Y-85504819D02*
X141978571Y-85457200D01*
X141978571Y-85457200D02*
X141883333Y-85361961D01*
X141883333Y-85361961D02*
X141835714Y-85266723D01*
X141835714Y-85266723D02*
X141788095Y-85076247D01*
X141788095Y-85076247D02*
X141788095Y-84933390D01*
X141788095Y-84933390D02*
X141835714Y-84742914D01*
X141835714Y-84742914D02*
X141883333Y-84647676D01*
X141883333Y-84647676D02*
X141978571Y-84552438D01*
X141978571Y-84552438D02*
X142121428Y-84504819D01*
X142121428Y-84504819D02*
X142216666Y-84504819D01*
X142216666Y-84504819D02*
X142359523Y-84552438D01*
X142359523Y-84552438D02*
X142407142Y-84600057D01*
X143359523Y-85504819D02*
X142788095Y-85504819D01*
X143073809Y-85504819D02*
X143073809Y-84504819D01*
X143073809Y-84504819D02*
X142978571Y-84647676D01*
X142978571Y-84647676D02*
X142883333Y-84742914D01*
X142883333Y-84742914D02*
X142788095Y-84790533D01*
X143692857Y-84504819D02*
X144311904Y-84504819D01*
X144311904Y-84504819D02*
X143978571Y-84885771D01*
X143978571Y-84885771D02*
X144121428Y-84885771D01*
X144121428Y-84885771D02*
X144216666Y-84933390D01*
X144216666Y-84933390D02*
X144264285Y-84981009D01*
X144264285Y-84981009D02*
X144311904Y-85076247D01*
X144311904Y-85076247D02*
X144311904Y-85314342D01*
X144311904Y-85314342D02*
X144264285Y-85409580D01*
X144264285Y-85409580D02*
X144216666Y-85457200D01*
X144216666Y-85457200D02*
X144121428Y-85504819D01*
X144121428Y-85504819D02*
X143835714Y-85504819D01*
X143835714Y-85504819D02*
X143740476Y-85457200D01*
X143740476Y-85457200D02*
X143692857Y-85409580D01*
X123733333Y-106909580D02*
X123685714Y-106957200D01*
X123685714Y-106957200D02*
X123542857Y-107004819D01*
X123542857Y-107004819D02*
X123447619Y-107004819D01*
X123447619Y-107004819D02*
X123304762Y-106957200D01*
X123304762Y-106957200D02*
X123209524Y-106861961D01*
X123209524Y-106861961D02*
X123161905Y-106766723D01*
X123161905Y-106766723D02*
X123114286Y-106576247D01*
X123114286Y-106576247D02*
X123114286Y-106433390D01*
X123114286Y-106433390D02*
X123161905Y-106242914D01*
X123161905Y-106242914D02*
X123209524Y-106147676D01*
X123209524Y-106147676D02*
X123304762Y-106052438D01*
X123304762Y-106052438D02*
X123447619Y-106004819D01*
X123447619Y-106004819D02*
X123542857Y-106004819D01*
X123542857Y-106004819D02*
X123685714Y-106052438D01*
X123685714Y-106052438D02*
X123733333Y-106100057D01*
X124066667Y-106004819D02*
X124685714Y-106004819D01*
X124685714Y-106004819D02*
X124352381Y-106385771D01*
X124352381Y-106385771D02*
X124495238Y-106385771D01*
X124495238Y-106385771D02*
X124590476Y-106433390D01*
X124590476Y-106433390D02*
X124638095Y-106481009D01*
X124638095Y-106481009D02*
X124685714Y-106576247D01*
X124685714Y-106576247D02*
X124685714Y-106814342D01*
X124685714Y-106814342D02*
X124638095Y-106909580D01*
X124638095Y-106909580D02*
X124590476Y-106957200D01*
X124590476Y-106957200D02*
X124495238Y-107004819D01*
X124495238Y-107004819D02*
X124209524Y-107004819D01*
X124209524Y-107004819D02*
X124114286Y-106957200D01*
X124114286Y-106957200D02*
X124066667Y-106909580D01*
X136433333Y-94809580D02*
X136385714Y-94857200D01*
X136385714Y-94857200D02*
X136242857Y-94904819D01*
X136242857Y-94904819D02*
X136147619Y-94904819D01*
X136147619Y-94904819D02*
X136004762Y-94857200D01*
X136004762Y-94857200D02*
X135909524Y-94761961D01*
X135909524Y-94761961D02*
X135861905Y-94666723D01*
X135861905Y-94666723D02*
X135814286Y-94476247D01*
X135814286Y-94476247D02*
X135814286Y-94333390D01*
X135814286Y-94333390D02*
X135861905Y-94142914D01*
X135861905Y-94142914D02*
X135909524Y-94047676D01*
X135909524Y-94047676D02*
X136004762Y-93952438D01*
X136004762Y-93952438D02*
X136147619Y-93904819D01*
X136147619Y-93904819D02*
X136242857Y-93904819D01*
X136242857Y-93904819D02*
X136385714Y-93952438D01*
X136385714Y-93952438D02*
X136433333Y-94000057D01*
X136909524Y-94904819D02*
X137100000Y-94904819D01*
X137100000Y-94904819D02*
X137195238Y-94857200D01*
X137195238Y-94857200D02*
X137242857Y-94809580D01*
X137242857Y-94809580D02*
X137338095Y-94666723D01*
X137338095Y-94666723D02*
X137385714Y-94476247D01*
X137385714Y-94476247D02*
X137385714Y-94095295D01*
X137385714Y-94095295D02*
X137338095Y-94000057D01*
X137338095Y-94000057D02*
X137290476Y-93952438D01*
X137290476Y-93952438D02*
X137195238Y-93904819D01*
X137195238Y-93904819D02*
X137004762Y-93904819D01*
X137004762Y-93904819D02*
X136909524Y-93952438D01*
X136909524Y-93952438D02*
X136861905Y-94000057D01*
X136861905Y-94000057D02*
X136814286Y-94095295D01*
X136814286Y-94095295D02*
X136814286Y-94333390D01*
X136814286Y-94333390D02*
X136861905Y-94428628D01*
X136861905Y-94428628D02*
X136909524Y-94476247D01*
X136909524Y-94476247D02*
X137004762Y-94523866D01*
X137004762Y-94523866D02*
X137195238Y-94523866D01*
X137195238Y-94523866D02*
X137290476Y-94476247D01*
X137290476Y-94476247D02*
X137338095Y-94428628D01*
X137338095Y-94428628D02*
X137385714Y-94333390D01*
X154559580Y-94092857D02*
X154607200Y-94140476D01*
X154607200Y-94140476D02*
X154654819Y-94283333D01*
X154654819Y-94283333D02*
X154654819Y-94378571D01*
X154654819Y-94378571D02*
X154607200Y-94521428D01*
X154607200Y-94521428D02*
X154511961Y-94616666D01*
X154511961Y-94616666D02*
X154416723Y-94664285D01*
X154416723Y-94664285D02*
X154226247Y-94711904D01*
X154226247Y-94711904D02*
X154083390Y-94711904D01*
X154083390Y-94711904D02*
X153892914Y-94664285D01*
X153892914Y-94664285D02*
X153797676Y-94616666D01*
X153797676Y-94616666D02*
X153702438Y-94521428D01*
X153702438Y-94521428D02*
X153654819Y-94378571D01*
X153654819Y-94378571D02*
X153654819Y-94283333D01*
X153654819Y-94283333D02*
X153702438Y-94140476D01*
X153702438Y-94140476D02*
X153750057Y-94092857D01*
X154654819Y-93140476D02*
X154654819Y-93711904D01*
X154654819Y-93426190D02*
X153654819Y-93426190D01*
X153654819Y-93426190D02*
X153797676Y-93521428D01*
X153797676Y-93521428D02*
X153892914Y-93616666D01*
X153892914Y-93616666D02*
X153940533Y-93711904D01*
X154654819Y-92188095D02*
X154654819Y-92759523D01*
X154654819Y-92473809D02*
X153654819Y-92473809D01*
X153654819Y-92473809D02*
X153797676Y-92569047D01*
X153797676Y-92569047D02*
X153892914Y-92664285D01*
X153892914Y-92664285D02*
X153940533Y-92759523D01*
X127633333Y-83704819D02*
X127300000Y-83228628D01*
X127061905Y-83704819D02*
X127061905Y-82704819D01*
X127061905Y-82704819D02*
X127442857Y-82704819D01*
X127442857Y-82704819D02*
X127538095Y-82752438D01*
X127538095Y-82752438D02*
X127585714Y-82800057D01*
X127585714Y-82800057D02*
X127633333Y-82895295D01*
X127633333Y-82895295D02*
X127633333Y-83038152D01*
X127633333Y-83038152D02*
X127585714Y-83133390D01*
X127585714Y-83133390D02*
X127538095Y-83181009D01*
X127538095Y-83181009D02*
X127442857Y-83228628D01*
X127442857Y-83228628D02*
X127061905Y-83228628D01*
X128538095Y-82704819D02*
X128061905Y-82704819D01*
X128061905Y-82704819D02*
X128014286Y-83181009D01*
X128014286Y-83181009D02*
X128061905Y-83133390D01*
X128061905Y-83133390D02*
X128157143Y-83085771D01*
X128157143Y-83085771D02*
X128395238Y-83085771D01*
X128395238Y-83085771D02*
X128490476Y-83133390D01*
X128490476Y-83133390D02*
X128538095Y-83181009D01*
X128538095Y-83181009D02*
X128585714Y-83276247D01*
X128585714Y-83276247D02*
X128585714Y-83514342D01*
X128585714Y-83514342D02*
X128538095Y-83609580D01*
X128538095Y-83609580D02*
X128490476Y-83657200D01*
X128490476Y-83657200D02*
X128395238Y-83704819D01*
X128395238Y-83704819D02*
X128157143Y-83704819D01*
X128157143Y-83704819D02*
X128061905Y-83657200D01*
X128061905Y-83657200D02*
X128014286Y-83609580D01*
X161800001Y-91381009D02*
X162133334Y-91381009D01*
X162276191Y-91904819D02*
X161800001Y-91904819D01*
X161800001Y-91904819D02*
X161800001Y-90904819D01*
X161800001Y-90904819D02*
X162276191Y-90904819D01*
X162657144Y-91857200D02*
X162800001Y-91904819D01*
X162800001Y-91904819D02*
X163038096Y-91904819D01*
X163038096Y-91904819D02*
X163133334Y-91857200D01*
X163133334Y-91857200D02*
X163180953Y-91809580D01*
X163180953Y-91809580D02*
X163228572Y-91714342D01*
X163228572Y-91714342D02*
X163228572Y-91619104D01*
X163228572Y-91619104D02*
X163180953Y-91523866D01*
X163180953Y-91523866D02*
X163133334Y-91476247D01*
X163133334Y-91476247D02*
X163038096Y-91428628D01*
X163038096Y-91428628D02*
X162847620Y-91381009D01*
X162847620Y-91381009D02*
X162752382Y-91333390D01*
X162752382Y-91333390D02*
X162704763Y-91285771D01*
X162704763Y-91285771D02*
X162657144Y-91190533D01*
X162657144Y-91190533D02*
X162657144Y-91095295D01*
X162657144Y-91095295D02*
X162704763Y-91000057D01*
X162704763Y-91000057D02*
X162752382Y-90952438D01*
X162752382Y-90952438D02*
X162847620Y-90904819D01*
X162847620Y-90904819D02*
X163085715Y-90904819D01*
X163085715Y-90904819D02*
X163228572Y-90952438D01*
X163657144Y-91904819D02*
X163657144Y-90904819D01*
X163657144Y-90904819D02*
X164038096Y-90904819D01*
X164038096Y-90904819D02*
X164133334Y-90952438D01*
X164133334Y-90952438D02*
X164180953Y-91000057D01*
X164180953Y-91000057D02*
X164228572Y-91095295D01*
X164228572Y-91095295D02*
X164228572Y-91238152D01*
X164228572Y-91238152D02*
X164180953Y-91333390D01*
X164180953Y-91333390D02*
X164133334Y-91381009D01*
X164133334Y-91381009D02*
X164038096Y-91428628D01*
X164038096Y-91428628D02*
X163657144Y-91428628D01*
X164561906Y-90904819D02*
X165180953Y-90904819D01*
X165180953Y-90904819D02*
X164847620Y-91285771D01*
X164847620Y-91285771D02*
X164990477Y-91285771D01*
X164990477Y-91285771D02*
X165085715Y-91333390D01*
X165085715Y-91333390D02*
X165133334Y-91381009D01*
X165133334Y-91381009D02*
X165180953Y-91476247D01*
X165180953Y-91476247D02*
X165180953Y-91714342D01*
X165180953Y-91714342D02*
X165133334Y-91809580D01*
X165133334Y-91809580D02*
X165085715Y-91857200D01*
X165085715Y-91857200D02*
X164990477Y-91904819D01*
X164990477Y-91904819D02*
X164704763Y-91904819D01*
X164704763Y-91904819D02*
X164609525Y-91857200D01*
X164609525Y-91857200D02*
X164561906Y-91809580D01*
X165561906Y-91000057D02*
X165609525Y-90952438D01*
X165609525Y-90952438D02*
X165704763Y-90904819D01*
X165704763Y-90904819D02*
X165942858Y-90904819D01*
X165942858Y-90904819D02*
X166038096Y-90952438D01*
X166038096Y-90952438D02*
X166085715Y-91000057D01*
X166085715Y-91000057D02*
X166133334Y-91095295D01*
X166133334Y-91095295D02*
X166133334Y-91190533D01*
X166133334Y-91190533D02*
X166085715Y-91333390D01*
X166085715Y-91333390D02*
X165514287Y-91904819D01*
X165514287Y-91904819D02*
X166133334Y-91904819D01*
X166561906Y-91523866D02*
X167323811Y-91523866D01*
X167752382Y-91857200D02*
X167895239Y-91904819D01*
X167895239Y-91904819D02*
X168133334Y-91904819D01*
X168133334Y-91904819D02*
X168228572Y-91857200D01*
X168228572Y-91857200D02*
X168276191Y-91809580D01*
X168276191Y-91809580D02*
X168323810Y-91714342D01*
X168323810Y-91714342D02*
X168323810Y-91619104D01*
X168323810Y-91619104D02*
X168276191Y-91523866D01*
X168276191Y-91523866D02*
X168228572Y-91476247D01*
X168228572Y-91476247D02*
X168133334Y-91428628D01*
X168133334Y-91428628D02*
X167942858Y-91381009D01*
X167942858Y-91381009D02*
X167847620Y-91333390D01*
X167847620Y-91333390D02*
X167800001Y-91285771D01*
X167800001Y-91285771D02*
X167752382Y-91190533D01*
X167752382Y-91190533D02*
X167752382Y-91095295D01*
X167752382Y-91095295D02*
X167800001Y-91000057D01*
X167800001Y-91000057D02*
X167847620Y-90952438D01*
X167847620Y-90952438D02*
X167942858Y-90904819D01*
X167942858Y-90904819D02*
X168180953Y-90904819D01*
X168180953Y-90904819D02*
X168323810Y-90952438D01*
X168657144Y-90904819D02*
X169276191Y-90904819D01*
X169276191Y-90904819D02*
X168942858Y-91285771D01*
X168942858Y-91285771D02*
X169085715Y-91285771D01*
X169085715Y-91285771D02*
X169180953Y-91333390D01*
X169180953Y-91333390D02*
X169228572Y-91381009D01*
X169228572Y-91381009D02*
X169276191Y-91476247D01*
X169276191Y-91476247D02*
X169276191Y-91714342D01*
X169276191Y-91714342D02*
X169228572Y-91809580D01*
X169228572Y-91809580D02*
X169180953Y-91857200D01*
X169180953Y-91857200D02*
X169085715Y-91904819D01*
X169085715Y-91904819D02*
X168800001Y-91904819D01*
X168800001Y-91904819D02*
X168704763Y-91857200D01*
X168704763Y-91857200D02*
X168657144Y-91809580D01*
X169704763Y-91523866D02*
X170466668Y-91523866D01*
X170942858Y-91904819D02*
X170942858Y-90904819D01*
X170942858Y-90904819D02*
X171276191Y-91619104D01*
X171276191Y-91619104D02*
X171609524Y-90904819D01*
X171609524Y-90904819D02*
X171609524Y-91904819D01*
X172085715Y-91904819D02*
X172085715Y-90904819D01*
X172561905Y-91904819D02*
X172561905Y-90904819D01*
X172561905Y-90904819D02*
X173133333Y-91904819D01*
X173133333Y-91904819D02*
X173133333Y-90904819D01*
X173609524Y-91904819D02*
X173609524Y-90904819D01*
X174085714Y-91523866D02*
X174847619Y-91523866D01*
X175847618Y-91904819D02*
X175276190Y-91904819D01*
X175561904Y-91904819D02*
X175561904Y-90904819D01*
X175561904Y-90904819D02*
X175466666Y-91047676D01*
X175466666Y-91047676D02*
X175371428Y-91142914D01*
X175371428Y-91142914D02*
X175276190Y-91190533D01*
X135233333Y-86904819D02*
X134900000Y-86428628D01*
X134661905Y-86904819D02*
X134661905Y-85904819D01*
X134661905Y-85904819D02*
X135042857Y-85904819D01*
X135042857Y-85904819D02*
X135138095Y-85952438D01*
X135138095Y-85952438D02*
X135185714Y-86000057D01*
X135185714Y-86000057D02*
X135233333Y-86095295D01*
X135233333Y-86095295D02*
X135233333Y-86238152D01*
X135233333Y-86238152D02*
X135185714Y-86333390D01*
X135185714Y-86333390D02*
X135138095Y-86381009D01*
X135138095Y-86381009D02*
X135042857Y-86428628D01*
X135042857Y-86428628D02*
X134661905Y-86428628D01*
X136090476Y-85904819D02*
X135900000Y-85904819D01*
X135900000Y-85904819D02*
X135804762Y-85952438D01*
X135804762Y-85952438D02*
X135757143Y-86000057D01*
X135757143Y-86000057D02*
X135661905Y-86142914D01*
X135661905Y-86142914D02*
X135614286Y-86333390D01*
X135614286Y-86333390D02*
X135614286Y-86714342D01*
X135614286Y-86714342D02*
X135661905Y-86809580D01*
X135661905Y-86809580D02*
X135709524Y-86857200D01*
X135709524Y-86857200D02*
X135804762Y-86904819D01*
X135804762Y-86904819D02*
X135995238Y-86904819D01*
X135995238Y-86904819D02*
X136090476Y-86857200D01*
X136090476Y-86857200D02*
X136138095Y-86809580D01*
X136138095Y-86809580D02*
X136185714Y-86714342D01*
X136185714Y-86714342D02*
X136185714Y-86476247D01*
X136185714Y-86476247D02*
X136138095Y-86381009D01*
X136138095Y-86381009D02*
X136090476Y-86333390D01*
X136090476Y-86333390D02*
X135995238Y-86285771D01*
X135995238Y-86285771D02*
X135804762Y-86285771D01*
X135804762Y-86285771D02*
X135709524Y-86333390D01*
X135709524Y-86333390D02*
X135661905Y-86381009D01*
X135661905Y-86381009D02*
X135614286Y-86476247D01*
X126633333Y-106909580D02*
X126585714Y-106957200D01*
X126585714Y-106957200D02*
X126442857Y-107004819D01*
X126442857Y-107004819D02*
X126347619Y-107004819D01*
X126347619Y-107004819D02*
X126204762Y-106957200D01*
X126204762Y-106957200D02*
X126109524Y-106861961D01*
X126109524Y-106861961D02*
X126061905Y-106766723D01*
X126061905Y-106766723D02*
X126014286Y-106576247D01*
X126014286Y-106576247D02*
X126014286Y-106433390D01*
X126014286Y-106433390D02*
X126061905Y-106242914D01*
X126061905Y-106242914D02*
X126109524Y-106147676D01*
X126109524Y-106147676D02*
X126204762Y-106052438D01*
X126204762Y-106052438D02*
X126347619Y-106004819D01*
X126347619Y-106004819D02*
X126442857Y-106004819D01*
X126442857Y-106004819D02*
X126585714Y-106052438D01*
X126585714Y-106052438D02*
X126633333Y-106100057D01*
X127490476Y-106338152D02*
X127490476Y-107004819D01*
X127252381Y-105957200D02*
X127014286Y-106671485D01*
X127014286Y-106671485D02*
X127633333Y-106671485D01*
X142407142Y-87409580D02*
X142359523Y-87457200D01*
X142359523Y-87457200D02*
X142216666Y-87504819D01*
X142216666Y-87504819D02*
X142121428Y-87504819D01*
X142121428Y-87504819D02*
X141978571Y-87457200D01*
X141978571Y-87457200D02*
X141883333Y-87361961D01*
X141883333Y-87361961D02*
X141835714Y-87266723D01*
X141835714Y-87266723D02*
X141788095Y-87076247D01*
X141788095Y-87076247D02*
X141788095Y-86933390D01*
X141788095Y-86933390D02*
X141835714Y-86742914D01*
X141835714Y-86742914D02*
X141883333Y-86647676D01*
X141883333Y-86647676D02*
X141978571Y-86552438D01*
X141978571Y-86552438D02*
X142121428Y-86504819D01*
X142121428Y-86504819D02*
X142216666Y-86504819D01*
X142216666Y-86504819D02*
X142359523Y-86552438D01*
X142359523Y-86552438D02*
X142407142Y-86600057D01*
X143359523Y-87504819D02*
X142788095Y-87504819D01*
X143073809Y-87504819D02*
X143073809Y-86504819D01*
X143073809Y-86504819D02*
X142978571Y-86647676D01*
X142978571Y-86647676D02*
X142883333Y-86742914D01*
X142883333Y-86742914D02*
X142788095Y-86790533D01*
X144216666Y-86838152D02*
X144216666Y-87504819D01*
X143978571Y-86457200D02*
X143740476Y-87171485D01*
X143740476Y-87171485D02*
X144359523Y-87171485D01*
X173559580Y-97092857D02*
X173607200Y-97140476D01*
X173607200Y-97140476D02*
X173654819Y-97283333D01*
X173654819Y-97283333D02*
X173654819Y-97378571D01*
X173654819Y-97378571D02*
X173607200Y-97521428D01*
X173607200Y-97521428D02*
X173511961Y-97616666D01*
X173511961Y-97616666D02*
X173416723Y-97664285D01*
X173416723Y-97664285D02*
X173226247Y-97711904D01*
X173226247Y-97711904D02*
X173083390Y-97711904D01*
X173083390Y-97711904D02*
X172892914Y-97664285D01*
X172892914Y-97664285D02*
X172797676Y-97616666D01*
X172797676Y-97616666D02*
X172702438Y-97521428D01*
X172702438Y-97521428D02*
X172654819Y-97378571D01*
X172654819Y-97378571D02*
X172654819Y-97283333D01*
X172654819Y-97283333D02*
X172702438Y-97140476D01*
X172702438Y-97140476D02*
X172750057Y-97092857D01*
X173654819Y-96140476D02*
X173654819Y-96711904D01*
X173654819Y-96426190D02*
X172654819Y-96426190D01*
X172654819Y-96426190D02*
X172797676Y-96521428D01*
X172797676Y-96521428D02*
X172892914Y-96616666D01*
X172892914Y-96616666D02*
X172940533Y-96711904D01*
X172750057Y-95759523D02*
X172702438Y-95711904D01*
X172702438Y-95711904D02*
X172654819Y-95616666D01*
X172654819Y-95616666D02*
X172654819Y-95378571D01*
X172654819Y-95378571D02*
X172702438Y-95283333D01*
X172702438Y-95283333D02*
X172750057Y-95235714D01*
X172750057Y-95235714D02*
X172845295Y-95188095D01*
X172845295Y-95188095D02*
X172940533Y-95188095D01*
X172940533Y-95188095D02*
X173083390Y-95235714D01*
X173083390Y-95235714D02*
X173654819Y-95807142D01*
X173654819Y-95807142D02*
X173654819Y-95188095D01*
X132133333Y-106909580D02*
X132085714Y-106957200D01*
X132085714Y-106957200D02*
X131942857Y-107004819D01*
X131942857Y-107004819D02*
X131847619Y-107004819D01*
X131847619Y-107004819D02*
X131704762Y-106957200D01*
X131704762Y-106957200D02*
X131609524Y-106861961D01*
X131609524Y-106861961D02*
X131561905Y-106766723D01*
X131561905Y-106766723D02*
X131514286Y-106576247D01*
X131514286Y-106576247D02*
X131514286Y-106433390D01*
X131514286Y-106433390D02*
X131561905Y-106242914D01*
X131561905Y-106242914D02*
X131609524Y-106147676D01*
X131609524Y-106147676D02*
X131704762Y-106052438D01*
X131704762Y-106052438D02*
X131847619Y-106004819D01*
X131847619Y-106004819D02*
X131942857Y-106004819D01*
X131942857Y-106004819D02*
X132085714Y-106052438D01*
X132085714Y-106052438D02*
X132133333Y-106100057D01*
X132990476Y-106004819D02*
X132800000Y-106004819D01*
X132800000Y-106004819D02*
X132704762Y-106052438D01*
X132704762Y-106052438D02*
X132657143Y-106100057D01*
X132657143Y-106100057D02*
X132561905Y-106242914D01*
X132561905Y-106242914D02*
X132514286Y-106433390D01*
X132514286Y-106433390D02*
X132514286Y-106814342D01*
X132514286Y-106814342D02*
X132561905Y-106909580D01*
X132561905Y-106909580D02*
X132609524Y-106957200D01*
X132609524Y-106957200D02*
X132704762Y-107004819D01*
X132704762Y-107004819D02*
X132895238Y-107004819D01*
X132895238Y-107004819D02*
X132990476Y-106957200D01*
X132990476Y-106957200D02*
X133038095Y-106909580D01*
X133038095Y-106909580D02*
X133085714Y-106814342D01*
X133085714Y-106814342D02*
X133085714Y-106576247D01*
X133085714Y-106576247D02*
X133038095Y-106481009D01*
X133038095Y-106481009D02*
X132990476Y-106433390D01*
X132990476Y-106433390D02*
X132895238Y-106385771D01*
X132895238Y-106385771D02*
X132704762Y-106385771D01*
X132704762Y-106385771D02*
X132609524Y-106433390D01*
X132609524Y-106433390D02*
X132561905Y-106481009D01*
X132561905Y-106481009D02*
X132514286Y-106576247D01*
X137419048Y-106254819D02*
X137419048Y-107064342D01*
X137419048Y-107064342D02*
X137466667Y-107159580D01*
X137466667Y-107159580D02*
X137514286Y-107207200D01*
X137514286Y-107207200D02*
X137609524Y-107254819D01*
X137609524Y-107254819D02*
X137800000Y-107254819D01*
X137800000Y-107254819D02*
X137895238Y-107207200D01*
X137895238Y-107207200D02*
X137942857Y-107159580D01*
X137942857Y-107159580D02*
X137990476Y-107064342D01*
X137990476Y-107064342D02*
X137990476Y-106254819D01*
X138419048Y-107207200D02*
X138561905Y-107254819D01*
X138561905Y-107254819D02*
X138800000Y-107254819D01*
X138800000Y-107254819D02*
X138895238Y-107207200D01*
X138895238Y-107207200D02*
X138942857Y-107159580D01*
X138942857Y-107159580D02*
X138990476Y-107064342D01*
X138990476Y-107064342D02*
X138990476Y-106969104D01*
X138990476Y-106969104D02*
X138942857Y-106873866D01*
X138942857Y-106873866D02*
X138895238Y-106826247D01*
X138895238Y-106826247D02*
X138800000Y-106778628D01*
X138800000Y-106778628D02*
X138609524Y-106731009D01*
X138609524Y-106731009D02*
X138514286Y-106683390D01*
X138514286Y-106683390D02*
X138466667Y-106635771D01*
X138466667Y-106635771D02*
X138419048Y-106540533D01*
X138419048Y-106540533D02*
X138419048Y-106445295D01*
X138419048Y-106445295D02*
X138466667Y-106350057D01*
X138466667Y-106350057D02*
X138514286Y-106302438D01*
X138514286Y-106302438D02*
X138609524Y-106254819D01*
X138609524Y-106254819D02*
X138847619Y-106254819D01*
X138847619Y-106254819D02*
X138990476Y-106302438D01*
X139752381Y-106731009D02*
X139895238Y-106778628D01*
X139895238Y-106778628D02*
X139942857Y-106826247D01*
X139942857Y-106826247D02*
X139990476Y-106921485D01*
X139990476Y-106921485D02*
X139990476Y-107064342D01*
X139990476Y-107064342D02*
X139942857Y-107159580D01*
X139942857Y-107159580D02*
X139895238Y-107207200D01*
X139895238Y-107207200D02*
X139800000Y-107254819D01*
X139800000Y-107254819D02*
X139419048Y-107254819D01*
X139419048Y-107254819D02*
X139419048Y-106254819D01*
X139419048Y-106254819D02*
X139752381Y-106254819D01*
X139752381Y-106254819D02*
X139847619Y-106302438D01*
X139847619Y-106302438D02*
X139895238Y-106350057D01*
X139895238Y-106350057D02*
X139942857Y-106445295D01*
X139942857Y-106445295D02*
X139942857Y-106540533D01*
X139942857Y-106540533D02*
X139895238Y-106635771D01*
X139895238Y-106635771D02*
X139847619Y-106683390D01*
X139847619Y-106683390D02*
X139752381Y-106731009D01*
X139752381Y-106731009D02*
X139419048Y-106731009D01*
X140419048Y-106873866D02*
X141180953Y-106873866D01*
X142228571Y-107159580D02*
X142180952Y-107207200D01*
X142180952Y-107207200D02*
X142038095Y-107254819D01*
X142038095Y-107254819D02*
X141942857Y-107254819D01*
X141942857Y-107254819D02*
X141800000Y-107207200D01*
X141800000Y-107207200D02*
X141704762Y-107111961D01*
X141704762Y-107111961D02*
X141657143Y-107016723D01*
X141657143Y-107016723D02*
X141609524Y-106826247D01*
X141609524Y-106826247D02*
X141609524Y-106683390D01*
X141609524Y-106683390D02*
X141657143Y-106492914D01*
X141657143Y-106492914D02*
X141704762Y-106397676D01*
X141704762Y-106397676D02*
X141800000Y-106302438D01*
X141800000Y-106302438D02*
X141942857Y-106254819D01*
X141942857Y-106254819D02*
X142038095Y-106254819D01*
X142038095Y-106254819D02*
X142180952Y-106302438D01*
X142180952Y-106302438D02*
X142228571Y-106350057D01*
X147633333Y-107004819D02*
X147300000Y-106528628D01*
X147061905Y-107004819D02*
X147061905Y-106004819D01*
X147061905Y-106004819D02*
X147442857Y-106004819D01*
X147442857Y-106004819D02*
X147538095Y-106052438D01*
X147538095Y-106052438D02*
X147585714Y-106100057D01*
X147585714Y-106100057D02*
X147633333Y-106195295D01*
X147633333Y-106195295D02*
X147633333Y-106338152D01*
X147633333Y-106338152D02*
X147585714Y-106433390D01*
X147585714Y-106433390D02*
X147538095Y-106481009D01*
X147538095Y-106481009D02*
X147442857Y-106528628D01*
X147442857Y-106528628D02*
X147061905Y-106528628D01*
X147966667Y-106004819D02*
X148585714Y-106004819D01*
X148585714Y-106004819D02*
X148252381Y-106385771D01*
X148252381Y-106385771D02*
X148395238Y-106385771D01*
X148395238Y-106385771D02*
X148490476Y-106433390D01*
X148490476Y-106433390D02*
X148538095Y-106481009D01*
X148538095Y-106481009D02*
X148585714Y-106576247D01*
X148585714Y-106576247D02*
X148585714Y-106814342D01*
X148585714Y-106814342D02*
X148538095Y-106909580D01*
X148538095Y-106909580D02*
X148490476Y-106957200D01*
X148490476Y-106957200D02*
X148395238Y-107004819D01*
X148395238Y-107004819D02*
X148109524Y-107004819D01*
X148109524Y-107004819D02*
X148014286Y-106957200D01*
X148014286Y-106957200D02*
X147966667Y-106909580D01*
X140504819Y-101216666D02*
X140028628Y-101549999D01*
X140504819Y-101788094D02*
X139504819Y-101788094D01*
X139504819Y-101788094D02*
X139504819Y-101407142D01*
X139504819Y-101407142D02*
X139552438Y-101311904D01*
X139552438Y-101311904D02*
X139600057Y-101264285D01*
X139600057Y-101264285D02*
X139695295Y-101216666D01*
X139695295Y-101216666D02*
X139838152Y-101216666D01*
X139838152Y-101216666D02*
X139933390Y-101264285D01*
X139933390Y-101264285D02*
X139981009Y-101311904D01*
X139981009Y-101311904D02*
X140028628Y-101407142D01*
X140028628Y-101407142D02*
X140028628Y-101788094D01*
X139504819Y-100883332D02*
X139504819Y-100216666D01*
X139504819Y-100216666D02*
X140504819Y-100645237D01*
X154833333Y-106009580D02*
X154785714Y-106057200D01*
X154785714Y-106057200D02*
X154642857Y-106104819D01*
X154642857Y-106104819D02*
X154547619Y-106104819D01*
X154547619Y-106104819D02*
X154404762Y-106057200D01*
X154404762Y-106057200D02*
X154309524Y-105961961D01*
X154309524Y-105961961D02*
X154261905Y-105866723D01*
X154261905Y-105866723D02*
X154214286Y-105676247D01*
X154214286Y-105676247D02*
X154214286Y-105533390D01*
X154214286Y-105533390D02*
X154261905Y-105342914D01*
X154261905Y-105342914D02*
X154309524Y-105247676D01*
X154309524Y-105247676D02*
X154404762Y-105152438D01*
X154404762Y-105152438D02*
X154547619Y-105104819D01*
X154547619Y-105104819D02*
X154642857Y-105104819D01*
X154642857Y-105104819D02*
X154785714Y-105152438D01*
X154785714Y-105152438D02*
X154833333Y-105200057D01*
X155214286Y-105200057D02*
X155261905Y-105152438D01*
X155261905Y-105152438D02*
X155357143Y-105104819D01*
X155357143Y-105104819D02*
X155595238Y-105104819D01*
X155595238Y-105104819D02*
X155690476Y-105152438D01*
X155690476Y-105152438D02*
X155738095Y-105200057D01*
X155738095Y-105200057D02*
X155785714Y-105295295D01*
X155785714Y-105295295D02*
X155785714Y-105390533D01*
X155785714Y-105390533D02*
X155738095Y-105533390D01*
X155738095Y-105533390D02*
X155166667Y-106104819D01*
X155166667Y-106104819D02*
X155785714Y-106104819D01*
X143911905Y-93904819D02*
X143911905Y-92904819D01*
X143911905Y-92904819D02*
X144150000Y-92904819D01*
X144150000Y-92904819D02*
X144292857Y-92952438D01*
X144292857Y-92952438D02*
X144388095Y-93047676D01*
X144388095Y-93047676D02*
X144435714Y-93142914D01*
X144435714Y-93142914D02*
X144483333Y-93333390D01*
X144483333Y-93333390D02*
X144483333Y-93476247D01*
X144483333Y-93476247D02*
X144435714Y-93666723D01*
X144435714Y-93666723D02*
X144388095Y-93761961D01*
X144388095Y-93761961D02*
X144292857Y-93857200D01*
X144292857Y-93857200D02*
X144150000Y-93904819D01*
X144150000Y-93904819D02*
X143911905Y-93904819D01*
X145388095Y-92904819D02*
X144911905Y-92904819D01*
X144911905Y-92904819D02*
X144864286Y-93381009D01*
X144864286Y-93381009D02*
X144911905Y-93333390D01*
X144911905Y-93333390D02*
X145007143Y-93285771D01*
X145007143Y-93285771D02*
X145245238Y-93285771D01*
X145245238Y-93285771D02*
X145340476Y-93333390D01*
X145340476Y-93333390D02*
X145388095Y-93381009D01*
X145388095Y-93381009D02*
X145435714Y-93476247D01*
X145435714Y-93476247D02*
X145435714Y-93714342D01*
X145435714Y-93714342D02*
X145388095Y-93809580D01*
X145388095Y-93809580D02*
X145340476Y-93857200D01*
X145340476Y-93857200D02*
X145245238Y-93904819D01*
X145245238Y-93904819D02*
X145007143Y-93904819D01*
X145007143Y-93904819D02*
X144911905Y-93857200D01*
X144911905Y-93857200D02*
X144864286Y-93809580D01*
X132100057Y-83395238D02*
X132052438Y-83490476D01*
X132052438Y-83490476D02*
X131957200Y-83585714D01*
X131957200Y-83585714D02*
X131814342Y-83728571D01*
X131814342Y-83728571D02*
X131766723Y-83823809D01*
X131766723Y-83823809D02*
X131766723Y-83919047D01*
X132004819Y-83871428D02*
X131957200Y-83966666D01*
X131957200Y-83966666D02*
X131861961Y-84061904D01*
X131861961Y-84061904D02*
X131671485Y-84109523D01*
X131671485Y-84109523D02*
X131338152Y-84109523D01*
X131338152Y-84109523D02*
X131147676Y-84061904D01*
X131147676Y-84061904D02*
X131052438Y-83966666D01*
X131052438Y-83966666D02*
X131004819Y-83871428D01*
X131004819Y-83871428D02*
X131004819Y-83680952D01*
X131004819Y-83680952D02*
X131052438Y-83585714D01*
X131052438Y-83585714D02*
X131147676Y-83490476D01*
X131147676Y-83490476D02*
X131338152Y-83442857D01*
X131338152Y-83442857D02*
X131671485Y-83442857D01*
X131671485Y-83442857D02*
X131861961Y-83490476D01*
X131861961Y-83490476D02*
X131957200Y-83585714D01*
X131957200Y-83585714D02*
X132004819Y-83680952D01*
X132004819Y-83680952D02*
X132004819Y-83871428D01*
X132004819Y-82490476D02*
X132004819Y-83061904D01*
X132004819Y-82776190D02*
X131004819Y-82776190D01*
X131004819Y-82776190D02*
X131147676Y-82871428D01*
X131147676Y-82871428D02*
X131242914Y-82966666D01*
X131242914Y-82966666D02*
X131290533Y-83061904D01*
X160788095Y-101504819D02*
X160788095Y-102314342D01*
X160788095Y-102314342D02*
X160835714Y-102409580D01*
X160835714Y-102409580D02*
X160883333Y-102457200D01*
X160883333Y-102457200D02*
X160978571Y-102504819D01*
X160978571Y-102504819D02*
X161169047Y-102504819D01*
X161169047Y-102504819D02*
X161264285Y-102457200D01*
X161264285Y-102457200D02*
X161311904Y-102409580D01*
X161311904Y-102409580D02*
X161359523Y-102314342D01*
X161359523Y-102314342D02*
X161359523Y-101504819D01*
X161740476Y-101504819D02*
X162359523Y-101504819D01*
X162359523Y-101504819D02*
X162026190Y-101885771D01*
X162026190Y-101885771D02*
X162169047Y-101885771D01*
X162169047Y-101885771D02*
X162264285Y-101933390D01*
X162264285Y-101933390D02*
X162311904Y-101981009D01*
X162311904Y-101981009D02*
X162359523Y-102076247D01*
X162359523Y-102076247D02*
X162359523Y-102314342D01*
X162359523Y-102314342D02*
X162311904Y-102409580D01*
X162311904Y-102409580D02*
X162264285Y-102457200D01*
X162264285Y-102457200D02*
X162169047Y-102504819D01*
X162169047Y-102504819D02*
X161883333Y-102504819D01*
X161883333Y-102504819D02*
X161788095Y-102457200D01*
X161788095Y-102457200D02*
X161740476Y-102409580D01*
%TO.C,R9*%
D13*
X145277500Y-80654724D02*
X145277500Y-80145276D01*
X146322500Y-80654724D02*
X146322500Y-80145276D01*
D14*
%TO.C,G\u002A\u002A\u002A*%
G36*
X119437121Y-80648114D02*
G01*
X120281678Y-80648114D01*
X120281679Y-81069386D01*
X120281679Y-81490658D01*
X119582136Y-81490658D01*
X118882592Y-81490658D01*
X118882592Y-82051066D01*
X118882592Y-82611475D01*
X119582136Y-82611474D01*
X120281678Y-82611474D01*
X120281679Y-83032746D01*
X120281679Y-83454018D01*
X119299999Y-83454018D01*
X118318319Y-83454018D01*
X118318319Y-82188348D01*
X118318319Y-80922677D01*
X118455442Y-80785396D01*
X118592565Y-80648113D01*
X119437121Y-80648114D01*
G37*
G36*
X119162718Y-87517859D02*
G01*
X119299999Y-87654983D01*
X119437281Y-87517860D01*
X119574563Y-87380737D01*
X119928121Y-87380737D01*
X120281679Y-87380737D01*
X120281679Y-87802009D01*
X120281679Y-88223280D01*
X119929924Y-88223281D01*
X119578169Y-88223281D01*
X119580152Y-88781757D01*
X119582136Y-89340232D01*
X119931907Y-89342243D01*
X120281679Y-89344254D01*
X120281679Y-89765448D01*
X120281678Y-90186641D01*
X119299999Y-90186641D01*
X118948295Y-90186642D01*
X118318319Y-90186641D01*
X118318319Y-88920971D01*
X118318319Y-88783689D01*
X118882592Y-88783689D01*
X118882592Y-89344097D01*
X118948295Y-89344097D01*
X119013998Y-89344097D01*
X119013998Y-88783689D01*
X119013998Y-88223280D01*
X118948295Y-88223280D01*
X118882592Y-88223280D01*
X118882592Y-88783689D01*
X118318319Y-88783689D01*
X118318319Y-87655301D01*
X118455442Y-87518019D01*
X118592565Y-87380737D01*
X118809001Y-87380737D01*
X119025436Y-87380737D01*
X119162718Y-87517859D01*
G37*
G36*
X118882592Y-91234024D02*
G01*
X118882592Y-91724863D01*
X119582136Y-91724864D01*
X120281678Y-91724864D01*
X120281679Y-92150001D01*
X120281679Y-92575138D01*
X119582194Y-92575138D01*
X118882707Y-92575138D01*
X118880717Y-93064045D01*
X118878727Y-93552954D01*
X118598522Y-93554981D01*
X118318319Y-93557010D01*
X118318319Y-92150097D01*
X118318319Y-90743184D01*
X118600456Y-90743184D01*
X118882592Y-90743184D01*
X118882592Y-91234024D01*
G37*
G36*
X120144556Y-94250642D02*
G01*
X120281679Y-94387924D01*
X120281679Y-95512604D01*
X120281679Y-96637285D01*
X120140535Y-96778274D01*
X119999389Y-96919264D01*
X119158854Y-96919264D01*
X118318319Y-96919264D01*
X118318319Y-96497992D01*
X118318319Y-96076720D01*
X119017863Y-96076720D01*
X119717407Y-96076720D01*
X119717407Y-95516312D01*
X119717407Y-94955905D01*
X119017863Y-94955904D01*
X118318319Y-94955905D01*
X118318319Y-94534632D01*
X118318319Y-94113360D01*
X119162877Y-94113360D01*
X120007434Y-94113360D01*
X120144556Y-94250642D01*
G37*
G36*
X118882592Y-98457487D02*
G01*
X118882592Y-99439166D01*
X118948295Y-99439166D01*
X119013998Y-99439166D01*
X119013998Y-98948327D01*
X119013998Y-98457487D01*
X119296134Y-98457487D01*
X119578271Y-98457487D01*
X119578271Y-98948327D01*
X119578271Y-99439167D01*
X119647839Y-99439167D01*
X119717407Y-99439167D01*
X119717407Y-98457487D01*
X119717407Y-97475807D01*
X119999543Y-97475807D01*
X120281679Y-97475807D01*
X120281679Y-98741634D01*
X120281679Y-100007461D01*
X120140535Y-100148451D01*
X119999389Y-100289441D01*
X119299844Y-100289441D01*
X118600299Y-100289441D01*
X118459309Y-100148296D01*
X118318319Y-100007152D01*
X118318319Y-98741479D01*
X118318319Y-97475807D01*
X118600456Y-97475807D01*
X118882592Y-97475807D01*
X118882592Y-98457487D01*
G37*
G36*
X120279788Y-101547172D02*
G01*
X120277814Y-102248360D01*
X119590795Y-102526919D01*
X118903775Y-102805478D01*
X119592727Y-102807452D01*
X120281678Y-102809426D01*
X120281679Y-103230657D01*
X120281679Y-103651887D01*
X119299999Y-103651887D01*
X118318319Y-103651887D01*
X118318319Y-102953117D01*
X118318319Y-102254347D01*
X118382090Y-102227934D01*
X118398849Y-102221050D01*
X118428764Y-102208827D01*
X118470665Y-102191740D01*
X118523385Y-102170265D01*
X118585755Y-102144877D01*
X118656605Y-102116052D01*
X118734768Y-102084265D01*
X118819073Y-102049992D01*
X118908356Y-102013707D01*
X119001443Y-101975888D01*
X119072672Y-101946957D01*
X119699483Y-101692393D01*
X119008901Y-101690419D01*
X118318319Y-101688445D01*
X118318319Y-101267214D01*
X118318319Y-100845984D01*
X119300040Y-100845984D01*
X120281761Y-100845984D01*
X120279788Y-101547172D01*
G37*
G36*
X134841612Y-92270248D02*
G01*
X134950966Y-92304490D01*
X135049249Y-92360181D01*
X135135317Y-92436463D01*
X135208028Y-92532484D01*
X135266239Y-92647387D01*
X135276046Y-92672573D01*
X135314444Y-92810852D01*
X135329260Y-92953467D01*
X135320750Y-93098017D01*
X135289168Y-93242103D01*
X135234766Y-93383324D01*
X135192326Y-93463888D01*
X135151981Y-93523996D01*
X135096836Y-93593442D01*
X135031989Y-93666811D01*
X134962539Y-93738694D01*
X134893586Y-93803680D01*
X134830228Y-93856358D01*
X134805999Y-93873861D01*
X134646822Y-93968163D01*
X134469590Y-94047168D01*
X134276189Y-94110268D01*
X134068507Y-94156852D01*
X133848432Y-94186314D01*
X133832051Y-94187768D01*
X133755849Y-94192361D01*
X133673736Y-94194051D01*
X133591780Y-94193017D01*
X133516053Y-94189442D01*
X133452624Y-94183508D01*
X133407563Y-94175396D01*
X133406187Y-94175018D01*
X133393812Y-94169141D01*
X133395154Y-94158671D01*
X133412096Y-94138668D01*
X133425134Y-94125421D01*
X133468010Y-94082544D01*
X133666695Y-94081765D01*
X133890051Y-94070204D01*
X134105616Y-94037636D01*
X134310221Y-93984575D01*
X134350937Y-93971070D01*
X134453420Y-93933881D01*
X134539008Y-93898124D01*
X134615065Y-93860224D01*
X134688953Y-93816602D01*
X134744728Y-93779792D01*
X134814105Y-93726237D01*
X134887992Y-93658733D01*
X134960917Y-93583170D01*
X135027409Y-93505432D01*
X135081997Y-93431406D01*
X135108065Y-93388864D01*
X135168426Y-93256023D01*
X135205629Y-93120038D01*
X135219428Y-92983157D01*
X135209577Y-92847637D01*
X135180248Y-92728573D01*
X135132744Y-92620254D01*
X135069995Y-92530189D01*
X134994271Y-92459234D01*
X134907844Y-92408244D01*
X134812983Y-92378073D01*
X134711961Y-92369574D01*
X134607047Y-92383602D01*
X134500514Y-92421012D01*
X134443092Y-92451246D01*
X134400933Y-92478507D01*
X134362390Y-92507310D01*
X134343723Y-92523790D01*
X134302295Y-92556499D01*
X134266701Y-92566505D01*
X134238127Y-92553473D01*
X134238120Y-92553467D01*
X134220941Y-92526655D01*
X134223966Y-92497749D01*
X134248060Y-92463060D01*
X134262822Y-92447690D01*
X134350879Y-92376511D01*
X134453536Y-92319738D01*
X134564288Y-92280053D01*
X134676629Y-92260136D01*
X134722330Y-92258308D01*
X134841612Y-92270248D01*
G37*
G36*
X132003053Y-93781728D02*
G01*
X132021828Y-93783739D01*
X132080455Y-93790636D01*
X132128952Y-93797070D01*
X132162681Y-93802374D01*
X132177007Y-93805875D01*
X132177202Y-93806161D01*
X132168246Y-93815994D01*
X132145249Y-93836022D01*
X132122369Y-93854592D01*
X132094287Y-93875674D01*
X132070874Y-93887796D01*
X132044450Y-93892563D01*
X132007336Y-93891578D01*
X131964052Y-93887654D01*
X131786389Y-93878035D01*
X131618607Y-93884814D01*
X131463053Y-93907613D01*
X131322072Y-93946054D01*
X131198010Y-93999755D01*
X131168930Y-94016102D01*
X131055977Y-94095923D01*
X130963859Y-94189107D01*
X130892610Y-94295570D01*
X130842267Y-94415224D01*
X130812865Y-94547982D01*
X130804441Y-94693760D01*
X130817030Y-94852471D01*
X130818185Y-94860566D01*
X130840126Y-94972278D01*
X130873510Y-95093008D01*
X130914960Y-95212161D01*
X130961098Y-95319142D01*
X130970026Y-95337041D01*
X131041449Y-95449889D01*
X131132598Y-95549830D01*
X131241141Y-95635221D01*
X131364748Y-95704422D01*
X131501087Y-95755791D01*
X131598402Y-95779416D01*
X131737196Y-95795211D01*
X131888104Y-95792618D01*
X132047602Y-95772451D01*
X132212164Y-95735527D01*
X132378263Y-95682660D01*
X132542372Y-95614668D01*
X132700966Y-95532363D01*
X132723209Y-95519341D01*
X132778830Y-95491590D01*
X132821327Y-95481881D01*
X132849196Y-95490541D01*
X132850373Y-95491655D01*
X132855809Y-95508752D01*
X132857236Y-95536722D01*
X132854728Y-95562978D01*
X132849873Y-95574346D01*
X132833949Y-95584853D01*
X132820569Y-95593206D01*
X132801924Y-95603434D01*
X132765826Y-95622270D01*
X132716996Y-95647282D01*
X132660155Y-95676040D01*
X132642613Y-95684851D01*
X132447850Y-95772276D01*
X132256339Y-95837893D01*
X132069233Y-95881554D01*
X131887688Y-95903107D01*
X131712858Y-95902404D01*
X131545898Y-95879293D01*
X131417452Y-95844123D01*
X131272054Y-95782615D01*
X131142961Y-95702553D01*
X131030517Y-95604242D01*
X130935066Y-95487983D01*
X130856954Y-95354079D01*
X130854763Y-95349545D01*
X130788510Y-95191384D01*
X130739978Y-95031350D01*
X130709274Y-94872169D01*
X130696504Y-94716567D01*
X130701772Y-94567269D01*
X130725186Y-94427000D01*
X130766851Y-94298485D01*
X130810512Y-94210821D01*
X130851667Y-94152034D01*
X130907469Y-94087688D01*
X130971194Y-94024743D01*
X131036116Y-93970160D01*
X131059278Y-93953350D01*
X131178029Y-93885587D01*
X131314696Y-93833049D01*
X131467406Y-93796063D01*
X131634285Y-93774960D01*
X131813458Y-93770072D01*
X132003053Y-93781728D01*
G37*
G36*
X129545057Y-96081208D02*
G01*
X129595757Y-96085379D01*
X129646847Y-96093079D01*
X129691125Y-96102861D01*
X129721386Y-96113276D01*
X129728878Y-96118136D01*
X129729153Y-96127156D01*
X129717941Y-96144864D01*
X129693414Y-96173455D01*
X129653737Y-96215124D01*
X129617035Y-96252185D01*
X129565963Y-96303951D01*
X129529852Y-96342645D01*
X129505590Y-96372131D01*
X129490065Y-96396273D01*
X129480162Y-96418935D01*
X129478346Y-96424367D01*
X129464610Y-96507381D01*
X129473401Y-96597892D01*
X129504113Y-96694542D01*
X129556141Y-96795970D01*
X129628882Y-96900817D01*
X129721729Y-97007725D01*
X129751053Y-97037648D01*
X129860349Y-97137707D01*
X129964857Y-97214997D01*
X130066416Y-97270615D01*
X130166863Y-97305659D01*
X130217329Y-97315821D01*
X130269660Y-97321506D01*
X130314529Y-97319553D01*
X130356401Y-97307927D01*
X130399738Y-97284592D01*
X130449005Y-97247514D01*
X130508664Y-97194654D01*
X130533027Y-97171859D01*
X130579032Y-97128912D01*
X130618272Y-97093193D01*
X130647461Y-97067624D01*
X130663310Y-97055126D01*
X130665162Y-97054421D01*
X130675733Y-97075337D01*
X130686498Y-97112906D01*
X130695759Y-97159085D01*
X130701818Y-97205831D01*
X130703246Y-97234877D01*
X130702839Y-97268014D01*
X130700442Y-97296593D01*
X130694292Y-97323104D01*
X130682624Y-97350032D01*
X130663677Y-97379867D01*
X130635685Y-97415098D01*
X130596885Y-97458211D01*
X130545516Y-97511694D01*
X130479811Y-97578038D01*
X130412015Y-97645757D01*
X130331718Y-97725436D01*
X130266814Y-97788862D01*
X130215546Y-97837648D01*
X130176151Y-97873408D01*
X130146873Y-97897757D01*
X130125952Y-97912310D01*
X130116172Y-97917212D01*
X130051382Y-97930982D01*
X129972128Y-97928146D01*
X129882069Y-97908990D01*
X129840502Y-97895654D01*
X129727608Y-97848083D01*
X129614800Y-97785912D01*
X129503730Y-97711230D01*
X129396053Y-97626126D01*
X129293422Y-97532686D01*
X129197490Y-97433000D01*
X129109909Y-97329156D01*
X129032335Y-97223242D01*
X128966418Y-97117347D01*
X128913814Y-97013558D01*
X128876174Y-96913965D01*
X128855153Y-96820655D01*
X128852404Y-96735716D01*
X128867487Y-96666615D01*
X128874662Y-96650014D01*
X128884957Y-96632331D01*
X128900418Y-96611279D01*
X128923089Y-96584570D01*
X128955017Y-96549918D01*
X128998245Y-96505033D01*
X129054816Y-96447630D01*
X129126779Y-96375421D01*
X129136136Y-96366061D01*
X129215530Y-96286950D01*
X129280075Y-96223763D01*
X129332277Y-96174754D01*
X129374641Y-96138174D01*
X129409678Y-96112281D01*
X129439892Y-96095325D01*
X129467791Y-96085562D01*
X129495881Y-96081245D01*
X129526669Y-96080628D01*
X129545057Y-96081208D01*
G37*
G36*
X130776738Y-95412111D02*
G01*
X130799640Y-95458779D01*
X130818986Y-95494926D01*
X130838525Y-95525499D01*
X130862008Y-95555446D01*
X130893186Y-95589713D01*
X130935806Y-95633245D01*
X130971200Y-95668632D01*
X131025833Y-95722554D01*
X131068220Y-95762486D01*
X131103245Y-95792328D01*
X131135789Y-95815980D01*
X131170737Y-95837344D01*
X131207689Y-95857526D01*
X131303922Y-95903007D01*
X131407419Y-95942461D01*
X131506687Y-95971651D01*
X131533471Y-95977678D01*
X131580662Y-95987408D01*
X130973328Y-96594633D01*
X130853696Y-96714169D01*
X130750255Y-96817329D01*
X130661750Y-96905319D01*
X130586921Y-96979343D01*
X130524514Y-97040605D01*
X130473270Y-97090309D01*
X130431932Y-97129659D01*
X130399245Y-97159860D01*
X130373950Y-97182116D01*
X130354790Y-97197631D01*
X130340510Y-97207610D01*
X130329852Y-97213257D01*
X130326206Y-97214609D01*
X130286540Y-97223197D01*
X130244628Y-97222274D01*
X130193696Y-97211034D01*
X130135939Y-97191930D01*
X130046797Y-97151168D01*
X129957962Y-97094794D01*
X129872018Y-97025948D01*
X129791543Y-96947773D01*
X129719118Y-96863411D01*
X129657326Y-96776002D01*
X129608745Y-96688690D01*
X129575958Y-96604616D01*
X129561544Y-96526920D01*
X129561886Y-96493076D01*
X129566185Y-96443145D01*
X130142187Y-95867143D01*
X130718190Y-95291141D01*
X130776738Y-95412111D01*
G37*
G36*
X133566397Y-92754875D02*
G01*
X133627129Y-92758751D01*
X133579017Y-92815620D01*
X133541563Y-92867208D01*
X133524341Y-92913217D01*
X133526196Y-92960557D01*
X133545661Y-93015458D01*
X133586170Y-93084721D01*
X133639555Y-93147347D01*
X133701101Y-93199669D01*
X133766093Y-93238020D01*
X133829819Y-93258734D01*
X133861720Y-93261303D01*
X133893380Y-93258529D01*
X133917902Y-93248731D01*
X133944075Y-93227236D01*
X133964135Y-93206879D01*
X133992180Y-93179775D01*
X134013507Y-93163315D01*
X134022302Y-93160802D01*
X134029727Y-93180680D01*
X134033505Y-93215739D01*
X134033398Y-93256625D01*
X134029170Y-93293988D01*
X134025993Y-93306744D01*
X134017788Y-93323579D01*
X134000786Y-93348112D01*
X133973417Y-93382188D01*
X133934113Y-93427653D01*
X133881303Y-93486351D01*
X133813419Y-93560129D01*
X133779458Y-93596676D01*
X133701848Y-93680342D01*
X133609639Y-93780316D01*
X133504772Y-93894471D01*
X133389185Y-94020674D01*
X133264818Y-94156796D01*
X133133610Y-94300709D01*
X132997501Y-94450280D01*
X132858430Y-94603381D01*
X132718336Y-94757884D01*
X132579158Y-94911655D01*
X132442836Y-95062567D01*
X132311310Y-95208489D01*
X132266607Y-95258167D01*
X132188120Y-95345412D01*
X132114644Y-95427053D01*
X132047851Y-95501236D01*
X131989412Y-95566104D01*
X131940998Y-95619806D01*
X131904279Y-95660486D01*
X131880928Y-95686288D01*
X131872701Y-95695279D01*
X131857078Y-95699048D01*
X131823658Y-95701162D01*
X131779385Y-95701206D01*
X131775029Y-95701092D01*
X131683601Y-95693520D01*
X131587261Y-95677082D01*
X131496255Y-95653893D01*
X131428601Y-95629533D01*
X131365380Y-95597542D01*
X131296227Y-95555207D01*
X131230211Y-95508581D01*
X131176401Y-95463720D01*
X131167995Y-95455584D01*
X131125121Y-95403963D01*
X131080290Y-95334718D01*
X131037235Y-95254333D01*
X130999692Y-95169289D01*
X130993065Y-95151999D01*
X130956201Y-95053130D01*
X131072768Y-94936641D01*
X131107730Y-94902736D01*
X131158538Y-94854912D01*
X131222482Y-94795654D01*
X131296848Y-94727443D01*
X131378924Y-94652764D01*
X131466000Y-94574099D01*
X131555362Y-94493935D01*
X131587516Y-94465235D01*
X131733553Y-94334841D01*
X131885548Y-94198708D01*
X132041144Y-94058968D01*
X132197989Y-93917751D01*
X132353730Y-93777187D01*
X132506013Y-93639409D01*
X132652483Y-93506546D01*
X132790787Y-93380729D01*
X132918571Y-93264087D01*
X133033481Y-93158754D01*
X133133164Y-93066859D01*
X133168643Y-93033971D01*
X133237728Y-92970320D01*
X133302610Y-92911497D01*
X133360623Y-92859848D01*
X133409096Y-92817721D01*
X133445360Y-92787458D01*
X133466748Y-92771407D01*
X133468822Y-92770202D01*
X133503864Y-92759323D01*
X133548696Y-92754543D01*
X133566397Y-92754875D01*
G37*
G36*
X128980738Y-97321754D02*
G01*
X129015633Y-97369462D01*
X129065520Y-97428650D01*
X129126208Y-97495129D01*
X129193509Y-97564711D01*
X129263233Y-97633205D01*
X129331190Y-97696423D01*
X129393192Y-97750176D01*
X129445047Y-97790274D01*
X129458111Y-97799086D01*
X129487421Y-97817939D01*
X128362651Y-98942709D01*
X127237880Y-100067480D01*
X127192290Y-100067480D01*
X127133881Y-100060076D01*
X127073930Y-100036739D01*
X127009514Y-99995786D01*
X126937711Y-99935534D01*
X126898974Y-99898483D01*
X126826514Y-99822114D01*
X126773785Y-99755035D01*
X126738970Y-99694318D01*
X126720250Y-99637038D01*
X126716026Y-99603775D01*
X126713014Y-99550268D01*
X127837433Y-98421276D01*
X128961851Y-97292283D01*
X128980738Y-97321754D01*
G37*
G36*
X126702769Y-99830093D02*
G01*
X126721612Y-99851782D01*
X126740783Y-99877157D01*
X126770254Y-99913040D01*
X126811360Y-99956629D01*
X126856520Y-100000006D01*
X126869262Y-100011387D01*
X126911101Y-100049072D01*
X126935804Y-100074268D01*
X126945758Y-100089730D01*
X126944012Y-100097663D01*
X126930856Y-100106496D01*
X126899150Y-100126426D01*
X126851578Y-100155807D01*
X126790831Y-100192989D01*
X126719592Y-100236326D01*
X126640549Y-100284167D01*
X126605870Y-100305088D01*
X126524752Y-100353854D01*
X126450563Y-100398219D01*
X126385929Y-100436634D01*
X126333470Y-100467549D01*
X126295810Y-100489415D01*
X126275571Y-100500679D01*
X126272869Y-100501878D01*
X126277943Y-100491895D01*
X126294332Y-100463952D01*
X126320168Y-100421061D01*
X126353584Y-100366231D01*
X126392711Y-100302472D01*
X126435684Y-100232796D01*
X126480636Y-100160212D01*
X126525698Y-100087732D01*
X126569005Y-100018364D01*
X126608687Y-99955120D01*
X126642880Y-99901011D01*
X126669715Y-99859045D01*
X126687325Y-99832235D01*
X126693451Y-99823783D01*
X126702769Y-99830093D01*
G37*
G36*
X134120846Y-92514216D02*
G01*
X134131963Y-92570554D01*
X134162149Y-92617364D01*
X134206655Y-92650041D01*
X134260731Y-92663985D01*
X134275358Y-92663995D01*
X134323405Y-92661518D01*
X134166482Y-92839113D01*
X134111829Y-92901061D01*
X134057712Y-92962571D01*
X134008276Y-93018921D01*
X133967658Y-93065393D01*
X133943481Y-93093235D01*
X133910435Y-93130894D01*
X133888268Y-93153076D01*
X133871866Y-93163215D01*
X133856115Y-93164749D01*
X133840893Y-93162159D01*
X133793673Y-93143016D01*
X133742053Y-93107434D01*
X133692259Y-93061346D01*
X133650522Y-93010684D01*
X133623070Y-92961379D01*
X133619582Y-92951359D01*
X133617272Y-92935925D01*
X133622500Y-92919882D01*
X133638333Y-92898504D01*
X133667834Y-92867058D01*
X133686204Y-92848545D01*
X133725902Y-92810337D01*
X133779199Y-92761111D01*
X133840995Y-92705379D01*
X133906188Y-92647650D01*
X133969674Y-92592435D01*
X134026350Y-92544244D01*
X134071115Y-92507587D01*
X134078292Y-92501957D01*
X134120846Y-92468933D01*
X134120846Y-92514216D01*
G37*
G36*
X123581439Y-76439196D02*
G01*
X123581439Y-76579916D01*
X123722160Y-76579916D01*
X123862880Y-76579916D01*
X123862880Y-76720636D01*
X123862880Y-76861356D01*
X124003600Y-76861356D01*
X124144320Y-76861356D01*
X124144320Y-77002077D01*
X124144320Y-77142797D01*
X124847921Y-77142797D01*
X125551523Y-77142797D01*
X125551523Y-77283517D01*
X125551523Y-77424237D01*
X125410802Y-77424237D01*
X125270082Y-77424237D01*
X125270082Y-77564957D01*
X125270082Y-77705678D01*
X125129362Y-77705678D01*
X124988642Y-77705678D01*
X124988642Y-77846398D01*
X124988642Y-77987118D01*
X125129362Y-77987118D01*
X125270082Y-77987118D01*
X125270082Y-78127838D01*
X125270082Y-78268559D01*
X125410802Y-78268559D01*
X125551523Y-78268559D01*
X125551523Y-78549999D01*
X125551523Y-78831439D01*
X125410802Y-78831439D01*
X125270082Y-78831439D01*
X125270082Y-78972160D01*
X125270082Y-79112880D01*
X125129362Y-79112880D01*
X124988642Y-79112880D01*
X124988642Y-79253600D01*
X124988642Y-79394320D01*
X125129362Y-79394320D01*
X125270082Y-79394320D01*
X125270082Y-79535041D01*
X125270082Y-79675761D01*
X125410802Y-79675761D01*
X125551523Y-79675761D01*
X125551523Y-79816481D01*
X125551523Y-79957201D01*
X124847921Y-79957201D01*
X124144320Y-79957201D01*
X124144320Y-80097921D01*
X124144320Y-80238642D01*
X124003600Y-80238642D01*
X123862880Y-80238642D01*
X123862880Y-80379362D01*
X123862880Y-80520082D01*
X123722160Y-80520082D01*
X123581439Y-80520082D01*
X123581439Y-80660802D01*
X123581439Y-80801523D01*
X123299999Y-80801523D01*
X123018559Y-80801523D01*
X123018559Y-80660802D01*
X123018559Y-80520082D01*
X122877838Y-80520082D01*
X122737118Y-80520082D01*
X122737118Y-80379362D01*
X122737118Y-80238642D01*
X122596398Y-80238642D01*
X122455678Y-80238642D01*
X122455678Y-80097921D01*
X122455678Y-79957201D01*
X121752077Y-79957201D01*
X121048476Y-79957201D01*
X121048476Y-79816481D01*
X121048476Y-79675761D01*
X121189196Y-79675761D01*
X121329916Y-79675761D01*
X121329916Y-79535041D01*
X121329916Y-79394320D01*
X121470636Y-79394320D01*
X121611356Y-79394320D01*
X121611356Y-79253600D01*
X121611356Y-79112880D01*
X121470636Y-79112880D01*
X121329916Y-79112880D01*
X121329916Y-78972160D01*
X121329916Y-78831439D01*
X121189196Y-78831439D01*
X121048476Y-78831439D01*
X121048476Y-78549999D01*
X121892797Y-78549999D01*
X121892797Y-78831439D01*
X122033517Y-78831439D01*
X122174237Y-78831439D01*
X122174237Y-78972160D01*
X122174237Y-79112880D01*
X122314957Y-79112880D01*
X122455678Y-79112880D01*
X122455678Y-79253600D01*
X122455678Y-79394320D01*
X122596398Y-79394320D01*
X122737118Y-79394320D01*
X122737118Y-79535041D01*
X122737118Y-79675761D01*
X122877838Y-79675761D01*
X123018559Y-79675761D01*
X123018559Y-79816481D01*
X123018559Y-79957201D01*
X123299999Y-79957201D01*
X123581439Y-79957201D01*
X123581439Y-79816481D01*
X123581439Y-79675761D01*
X123722160Y-79675761D01*
X123862880Y-79675761D01*
X123862880Y-79535041D01*
X123862880Y-79394320D01*
X124003600Y-79394320D01*
X124144320Y-79394320D01*
X124144320Y-79253600D01*
X124144320Y-79112880D01*
X124285041Y-79112880D01*
X124425761Y-79112880D01*
X124425761Y-78972160D01*
X124425761Y-78831439D01*
X124566481Y-78831439D01*
X124707201Y-78831439D01*
X124707201Y-78549999D01*
X124707201Y-78268559D01*
X124566481Y-78268559D01*
X124425761Y-78268559D01*
X124425761Y-78127838D01*
X124425761Y-77987118D01*
X124285041Y-77987118D01*
X124144320Y-77987118D01*
X124144320Y-77846398D01*
X124144320Y-77705678D01*
X124003600Y-77705678D01*
X123862880Y-77705678D01*
X123862880Y-77564957D01*
X123862880Y-77424237D01*
X123722160Y-77424237D01*
X123581439Y-77424237D01*
X123581439Y-77283517D01*
X123581439Y-77142797D01*
X123299999Y-77142797D01*
X123018559Y-77142797D01*
X123018559Y-77283517D01*
X123018559Y-77424237D01*
X122877838Y-77424237D01*
X122737118Y-77424237D01*
X122737118Y-77564957D01*
X122737118Y-77705678D01*
X122596398Y-77705678D01*
X122455678Y-77705678D01*
X122455678Y-77846398D01*
X122455678Y-77987118D01*
X122314957Y-77987118D01*
X122174237Y-77987118D01*
X122174237Y-78127838D01*
X122174237Y-78268559D01*
X122033517Y-78268559D01*
X121892797Y-78268559D01*
X121892797Y-78549999D01*
X121048476Y-78549999D01*
X121048476Y-78268559D01*
X121189196Y-78268559D01*
X121329916Y-78268559D01*
X121329916Y-78127838D01*
X121329916Y-77987118D01*
X121470636Y-77987118D01*
X121611356Y-77987118D01*
X121611356Y-77846398D01*
X121611356Y-77705678D01*
X121470636Y-77705678D01*
X121329916Y-77705678D01*
X121329916Y-77564957D01*
X121329916Y-77424237D01*
X121189196Y-77424237D01*
X121048476Y-77424237D01*
X121048476Y-77283517D01*
X121048476Y-77142797D01*
X121752077Y-77142797D01*
X122455678Y-77142797D01*
X122455678Y-77002077D01*
X122455678Y-76861356D01*
X122596398Y-76861356D01*
X122737118Y-76861356D01*
X122737118Y-76720636D01*
X122737118Y-76579916D01*
X122877838Y-76579916D01*
X123018559Y-76579916D01*
X123018559Y-76439196D01*
X123018559Y-76298476D01*
X123299999Y-76298476D01*
X123581439Y-76298476D01*
X123581439Y-76439196D01*
G37*
G36*
X123581439Y-77846398D02*
G01*
X123581439Y-77987118D01*
X123722160Y-77987118D01*
X123862880Y-77987118D01*
X123862880Y-78127838D01*
X123862880Y-78268559D01*
X124003600Y-78268559D01*
X124144320Y-78268559D01*
X124144320Y-78549999D01*
X124144320Y-78831439D01*
X124003600Y-78831439D01*
X123862880Y-78831439D01*
X123862880Y-78972160D01*
X123862880Y-79112880D01*
X123722160Y-79112880D01*
X123581439Y-79112880D01*
X123581439Y-79253600D01*
X123581439Y-79394320D01*
X123299999Y-79394320D01*
X123018559Y-79394320D01*
X123018559Y-79253600D01*
X123018559Y-79112880D01*
X122877838Y-79112880D01*
X122737118Y-79112880D01*
X122737118Y-78972160D01*
X122737118Y-78831439D01*
X122596398Y-78831439D01*
X122455678Y-78831439D01*
X122455678Y-78549999D01*
X122455678Y-78268559D01*
X122596398Y-78268559D01*
X122737118Y-78268559D01*
X122737118Y-78127838D01*
X122737118Y-77987118D01*
X122877838Y-77987118D01*
X123018559Y-77987118D01*
X123018559Y-77846398D01*
X123018559Y-77705678D01*
X123299999Y-77705678D01*
X123581439Y-77705678D01*
X123581439Y-77846398D01*
G37*
G36*
X152649946Y-108252848D02*
G01*
X152663120Y-108261400D01*
X152684060Y-108275215D01*
X152712230Y-108293931D01*
X152747098Y-108317188D01*
X152788128Y-108344626D01*
X152834788Y-108375885D01*
X152886543Y-108410604D01*
X152942860Y-108448424D01*
X153003203Y-108488983D01*
X153067041Y-108531922D01*
X153133838Y-108576881D01*
X153203060Y-108623497D01*
X153274175Y-108671414D01*
X153346647Y-108720269D01*
X153419943Y-108769701D01*
X153493529Y-108819353D01*
X153566872Y-108868863D01*
X153639438Y-108917870D01*
X153710689Y-108966015D01*
X153780097Y-109012936D01*
X153847125Y-109058275D01*
X153911239Y-109101670D01*
X153971906Y-109142762D01*
X154028592Y-109181189D01*
X154080763Y-109216593D01*
X154127885Y-109248611D01*
X154169423Y-109276887D01*
X154204845Y-109301058D01*
X154233616Y-109320762D01*
X154255203Y-109335641D01*
X154269070Y-109345335D01*
X154274673Y-109349471D01*
X154275988Y-109350931D01*
X154276303Y-109352240D01*
X154275074Y-109353406D01*
X154271757Y-109354437D01*
X154265810Y-109355342D01*
X154256693Y-109356128D01*
X154243859Y-109356806D01*
X154226768Y-109357382D01*
X154204873Y-109357864D01*
X154177636Y-109358261D01*
X154144511Y-109358582D01*
X154104957Y-109358835D01*
X154058429Y-109359025D01*
X154004386Y-109359163D01*
X153942285Y-109359260D01*
X153871581Y-109359319D01*
X153791734Y-109359351D01*
X153702200Y-109359364D01*
X153622604Y-109359366D01*
X152960016Y-109359366D01*
X152960016Y-109604725D01*
X152959905Y-109666623D01*
X152959575Y-109720213D01*
X152959036Y-109765113D01*
X152958295Y-109800933D01*
X152957360Y-109827285D01*
X152956241Y-109843783D01*
X152954945Y-109850037D01*
X152954814Y-109850084D01*
X152949976Y-109847153D01*
X152936839Y-109838598D01*
X152915939Y-109824779D01*
X152887806Y-109806057D01*
X152852973Y-109782792D01*
X152811975Y-109755343D01*
X152765345Y-109724070D01*
X152713615Y-109689334D01*
X152657319Y-109651495D01*
X152596991Y-109610912D01*
X152533163Y-109567945D01*
X152466368Y-109522955D01*
X152397140Y-109476302D01*
X152326011Y-109428344D01*
X152253518Y-109379444D01*
X152180190Y-109329959D01*
X152106562Y-109280251D01*
X152033166Y-109230681D01*
X151960537Y-109181605D01*
X151889207Y-109133386D01*
X151819710Y-109086384D01*
X151752578Y-109040958D01*
X151688346Y-108997468D01*
X151627546Y-108956275D01*
X151570710Y-108917738D01*
X151518374Y-108882217D01*
X151471070Y-108850073D01*
X151429331Y-108821664D01*
X151393690Y-108797353D01*
X151364680Y-108777497D01*
X151342835Y-108762458D01*
X151328689Y-108752595D01*
X151322773Y-108748268D01*
X151322702Y-108748202D01*
X151322621Y-108747072D01*
X151325181Y-108746058D01*
X151330902Y-108745153D01*
X151340298Y-108744352D01*
X151353892Y-108743648D01*
X151372201Y-108743037D01*
X151395743Y-108742510D01*
X151425037Y-108742064D01*
X151460600Y-108741691D01*
X151502955Y-108741385D01*
X151552616Y-108741141D01*
X151610104Y-108740953D01*
X151675936Y-108740815D01*
X151750632Y-108740720D01*
X151834709Y-108740663D01*
X151928688Y-108740637D01*
X151977437Y-108740635D01*
X152639983Y-108740635D01*
X152639983Y-108495276D01*
X152640091Y-108435750D01*
X152640410Y-108383489D01*
X152640927Y-108339039D01*
X152641631Y-108302943D01*
X152642512Y-108275747D01*
X152643557Y-108257995D01*
X152644755Y-108250233D01*
X152645069Y-108249917D01*
X152649946Y-108252848D01*
G37*
%TO.C,SW4*%
D15*
X174745028Y-106550000D02*
G75*
G02*
X172945028Y-106550000I-900000J0D01*
G01*
X172945028Y-106550000D02*
G75*
G02*
X174745028Y-106550000I900000J0D01*
G01*
D16*
X176367278Y-106207053D02*
X173502081Y-109072250D01*
D17*
X176062515Y-105902290D02*
X176367278Y-106207053D01*
X174187975Y-104027750D02*
X174492738Y-104332513D01*
D16*
X174187975Y-104027750D02*
X171322778Y-106892947D01*
D17*
X173502081Y-109072250D02*
X173197318Y-108767487D01*
X171322778Y-106892947D02*
X171627541Y-107197710D01*
%TO.C,J3*%
D13*
X165100000Y-107550000D02*
X166100000Y-107550000D01*
X166100000Y-109150000D01*
X165100000Y-109150000D01*
X165100000Y-107550000D01*
X161500000Y-107550000D02*
X162500000Y-107550000D01*
X162500000Y-109150000D01*
X161500000Y-109150000D01*
X161500000Y-107550000D01*
X166860000Y-111410000D02*
X166860000Y-103590000D01*
X166860000Y-105190000D02*
X165940000Y-105190000D01*
X166860000Y-103590000D02*
X165940000Y-103590000D01*
X165940000Y-105190000D02*
X165660000Y-105190000D01*
X165940000Y-103590000D02*
X165940000Y-105190000D01*
X164300000Y-107050000D02*
X164300000Y-111410000D01*
X163300000Y-111410000D02*
X163300000Y-107050000D01*
X163300000Y-107050000D02*
X164300000Y-107050000D01*
X162500000Y-109150000D02*
X162500000Y-111410000D01*
X162000000Y-109150000D02*
X162000000Y-111410000D01*
X161940000Y-105190000D02*
X161940000Y-103975000D01*
X161940000Y-105190000D02*
X161660000Y-105190000D01*
X161660000Y-105190000D02*
X161660000Y-103590000D01*
X161660000Y-103590000D02*
X160740000Y-103590000D01*
X160740000Y-111410000D02*
X166860000Y-111410000D01*
X160740000Y-105190000D02*
X161660000Y-105190000D01*
X160740000Y-103590000D02*
X160740000Y-111410000D01*
%TO.C,D2*%
X146500000Y-109785000D02*
X148960000Y-109785000D01*
X148960000Y-109785000D02*
X148960000Y-108315000D01*
X148960000Y-108315000D02*
X146500000Y-108315000D01*
%TO.C,L1*%
X170110000Y-93740000D02*
X170110000Y-99960000D01*
X163890000Y-99960000D02*
X163890000Y-93740000D01*
%TO.C,C10*%
X145065000Y-88111253D02*
X145065000Y-87588747D01*
X146535000Y-88111253D02*
X146535000Y-87588747D01*
%TO.C,C7*%
X141065000Y-92111253D02*
X141065000Y-91588747D01*
X142535000Y-92111253D02*
X142535000Y-91588747D01*
%TO.C,C8*%
X138465000Y-92111253D02*
X138465000Y-91588747D01*
X139935000Y-92111253D02*
X139935000Y-91588747D01*
%TO.C,D6*%
X146040000Y-90050000D02*
X146040000Y-92050000D01*
X146040000Y-90050000D02*
X150050000Y-90050000D01*
X146040000Y-92050000D02*
X150050000Y-92050000D01*
%TO.C,D4*%
X146040000Y-96850000D02*
X150050000Y-96850000D01*
X146040000Y-94850000D02*
X150050000Y-94850000D01*
X146040000Y-94850000D02*
X146040000Y-96850000D01*
%TO.C,C19*%
X151461253Y-80815000D02*
X150938747Y-80815000D01*
X151461253Y-82285000D02*
X150938747Y-82285000D01*
%TO.C,C18*%
X151461253Y-78315000D02*
X150938747Y-78315000D01*
X151461253Y-79785000D02*
X150938747Y-79785000D01*
%TO.C,Y1*%
X148824999Y-80975001D02*
X148824999Y-79624999D01*
X147074999Y-80975001D02*
X147074999Y-79624999D01*
%TO.C,R4*%
X150822500Y-103795276D02*
X150822500Y-104304724D01*
X149777500Y-103795276D02*
X149777500Y-104304724D01*
%TO.C,C17*%
X156138748Y-86515000D02*
X156661252Y-86515000D01*
X156138748Y-87985000D02*
X156661252Y-87985000D01*
%TO.C,U2*%
X149960000Y-98990000D02*
X149960000Y-99040000D01*
X148140000Y-98990000D02*
X149960000Y-98990000D01*
X148140000Y-99040000D02*
X148140000Y-98990000D01*
X148140000Y-100940000D02*
X148140000Y-100160000D01*
X149960000Y-102060000D02*
X149960000Y-102110000D01*
X149960000Y-102110000D02*
X148140000Y-102110000D01*
X148140000Y-102110000D02*
X148140000Y-102060000D01*
X150500000Y-102060000D02*
X150740000Y-102390000D01*
X150260000Y-102390000D01*
X150500000Y-102060000D01*
G36*
X150740000Y-102390000D02*
G01*
X150260000Y-102390000D01*
X150500000Y-102060000D01*
X150740000Y-102390000D01*
G37*
%TO.C,IO Pins*%
X183180000Y-77430000D02*
X183180000Y-95320000D01*
X180420000Y-95320000D02*
X183180000Y-95320000D01*
X180420000Y-77430000D02*
X183180000Y-77430000D01*
X180420000Y-77430000D02*
X180420000Y-95320000D01*
X180420000Y-76160000D02*
X180420000Y-74780000D01*
X180420000Y-74780000D02*
X181800000Y-74780000D01*
%TO.C,J5*%
X125750000Y-98150000D02*
X125749999Y-100450000D01*
X125750000Y-85950000D02*
X127050000Y-85950000D01*
X125750000Y-85950000D02*
X125749999Y-83650000D01*
X122350000Y-100420000D02*
X121670000Y-100420000D01*
X122350000Y-83680000D02*
X121670000Y-83680000D01*
%TO.C,C5*%
X130285000Y-103538748D02*
X130285000Y-104061252D01*
X128815000Y-103538748D02*
X128815000Y-104061252D01*
D14*
%TO.C,G\u002A\u002A\u002A*%
G36*
X171192989Y-104275626D02*
G01*
X171345766Y-104451843D01*
X171345766Y-104699539D01*
X171345766Y-104947235D01*
X171200382Y-105115453D01*
X171143609Y-105182446D01*
X171097216Y-105239674D01*
X171066061Y-105280967D01*
X171054998Y-105299999D01*
X171066607Y-105319808D01*
X171098194Y-105361567D01*
X171144901Y-105419109D01*
X171200382Y-105484546D01*
X171345766Y-105652764D01*
X171345766Y-105900460D01*
X171345766Y-106148156D01*
X171192989Y-106324373D01*
X171040212Y-106500590D01*
X169692250Y-106500590D01*
X168344289Y-106500590D01*
X168344289Y-106087887D01*
X169244732Y-106087887D01*
X169845027Y-106087887D01*
X170445322Y-106087887D01*
X170445322Y-105797119D01*
X170445322Y-105506351D01*
X169845027Y-105506351D01*
X169244732Y-105506351D01*
X169244732Y-105797119D01*
X169244732Y-106087887D01*
X168344289Y-106087887D01*
X168344289Y-105797119D01*
X168344289Y-105299999D01*
X168344289Y-105112407D01*
X169244732Y-105112407D01*
X169845027Y-105112407D01*
X170445322Y-105112407D01*
X170445322Y-104821639D01*
X170445322Y-104530871D01*
X169845027Y-104530871D01*
X169244732Y-104530871D01*
X169244732Y-104821639D01*
X169244732Y-105112407D01*
X168344289Y-105112407D01*
X168344289Y-104821639D01*
X168344289Y-104099409D01*
X169692250Y-104099409D01*
X171040212Y-104099409D01*
X171192989Y-104275626D01*
G37*
%TO.C,C15*%
D13*
X167161253Y-100865000D02*
X166638747Y-100865000D01*
X167161253Y-102335000D02*
X166638747Y-102335000D01*
%TO.C,D3*%
X137300000Y-97940000D02*
X137300000Y-101950000D01*
X137300000Y-97940000D02*
X135300000Y-97940000D01*
X135300000Y-97940000D02*
X135300000Y-101950000D01*
%TO.C,C1*%
X145785000Y-101311253D02*
X145785000Y-100788747D01*
X144315000Y-101311253D02*
X144315000Y-100788747D01*
%TO.C,R8*%
X142072500Y-101304724D02*
X142072500Y-100795276D01*
X141027500Y-101304724D02*
X141027500Y-100795276D01*
%TO.C,D1*%
X154550000Y-97940000D02*
X154550000Y-101950000D01*
X154550000Y-97940000D02*
X152550000Y-97940000D01*
X152550000Y-97940000D02*
X152550000Y-101950000D01*
%TO.C,C16*%
X156138747Y-83915000D02*
X156661253Y-83915000D01*
X156138747Y-85385000D02*
X156661253Y-85385000D01*
D14*
%TO.C,G\u002A\u002A\u002A*%
G36*
X177800738Y-98799999D02*
G01*
X177800738Y-100000590D01*
X177397414Y-100000590D01*
X176994091Y-100000590D01*
X176994091Y-99672304D01*
X176994091Y-99344017D01*
X176299999Y-99344017D01*
X175605907Y-99344017D01*
X175605907Y-99672304D01*
X175605907Y-100000590D01*
X175202584Y-100000590D01*
X174799261Y-100000590D01*
X174799261Y-98935534D01*
X174799261Y-98468586D01*
X174799261Y-98143426D01*
X175605907Y-98143426D01*
X175605907Y-98468586D01*
X175606609Y-98575458D01*
X175608553Y-98669051D01*
X175611501Y-98743014D01*
X175615214Y-98790996D01*
X175618644Y-98806483D01*
X175639705Y-98809277D01*
X175693996Y-98811591D01*
X175777228Y-98813376D01*
X175885116Y-98814583D01*
X176013373Y-98815165D01*
X176157711Y-98815072D01*
X176308046Y-98814299D01*
X176984711Y-98809379D01*
X176989834Y-98476403D01*
X176994956Y-98143426D01*
X176300432Y-98143426D01*
X175605907Y-98143426D01*
X174799261Y-98143426D01*
X174799261Y-97870478D01*
X174935706Y-97734943D01*
X175072152Y-97599409D01*
X176436445Y-97599409D01*
X177800738Y-97599409D01*
X177800738Y-98799999D01*
G37*
%TO.C,C13*%
D13*
X139538748Y-84315000D02*
X140061252Y-84315000D01*
X139538748Y-85785000D02*
X140061252Y-85785000D01*
%TO.C,C3*%
X123315000Y-103538748D02*
X123315000Y-104061252D01*
X124785000Y-103538748D02*
X124785000Y-104061252D01*
%TO.C,C9*%
X135865000Y-92111253D02*
X135865000Y-91588747D01*
X137335000Y-92111253D02*
X137335000Y-91588747D01*
%TO.C,C11*%
X153135000Y-93711253D02*
X153135000Y-93188747D01*
X151665000Y-93711253D02*
X151665000Y-93188747D01*
%TO.C,R5*%
X130122500Y-83504724D02*
X130122500Y-82995276D01*
X129077500Y-83504724D02*
X129077500Y-82995276D01*
%TO.C,ESP32-S3-MINI-1*%
X160725000Y-68900000D02*
X160725000Y-71350000D01*
X160725000Y-68900000D02*
X163175000Y-68900000D01*
X161000000Y-69150000D02*
X176600000Y-69150000D01*
X161000000Y-89850000D02*
X161000000Y-69150000D01*
X176600000Y-69150000D02*
X176600000Y-89850000D01*
X176600000Y-89850000D02*
X161000000Y-89850000D01*
X160825000Y-76100000D02*
X160489000Y-76340000D01*
X160489000Y-75860000D01*
X160825000Y-76100000D01*
G36*
X160825000Y-76100000D02*
G01*
X160489000Y-76340000D01*
X160489000Y-75860000D01*
X160825000Y-76100000D01*
G37*
%TO.C,R6*%
X133054724Y-86972500D02*
X132545276Y-86972500D01*
X133054724Y-85927500D02*
X132545276Y-85927500D01*
%TO.C,C4*%
X126065000Y-103538748D02*
X126065000Y-104061252D01*
X127535000Y-103538748D02*
X127535000Y-104061252D01*
%TO.C,SW3*%
D16*
X177777750Y-100392947D02*
X180642947Y-97527750D01*
D17*
X178082513Y-100697710D02*
X177777750Y-100392947D01*
X179957053Y-102572250D02*
X179652290Y-102267487D01*
D16*
X179957053Y-102572250D02*
X182822250Y-99707053D01*
D17*
X180642947Y-97527750D02*
X180947710Y-97832513D01*
X182822250Y-99707053D02*
X182517487Y-99402290D01*
D15*
X181200000Y-100050000D02*
G75*
G02*
X179400000Y-100050000I-900000J0D01*
G01*
X179400000Y-100050000D02*
G75*
G02*
X181200000Y-100050000I900000J0D01*
G01*
%TO.C,C14*%
D13*
X139538748Y-86315000D02*
X140061252Y-86315000D01*
X139538748Y-87785000D02*
X140061252Y-87785000D01*
%TO.C,C12*%
X172335000Y-96711253D02*
X172335000Y-96188747D01*
X170865000Y-96711253D02*
X170865000Y-96188747D01*
%TO.C,C6*%
X131565000Y-103538748D02*
X131565000Y-104061252D01*
X133035000Y-103538748D02*
X133035000Y-104061252D01*
%TO.C,USB-C*%
X135220000Y-105925000D02*
X135220000Y-107845000D01*
X135220000Y-111560000D02*
X135220000Y-109855000D01*
X144380000Y-107845000D02*
X144380000Y-105925000D01*
X144380000Y-109855000D02*
X144380000Y-111560000D01*
X144380000Y-111560000D02*
X135220000Y-111560000D01*
%TO.C,R3*%
X147277500Y-103795276D02*
X147277500Y-104304724D01*
X148322500Y-103795276D02*
X148322500Y-104304724D01*
%TO.C,R7*%
X138027500Y-101304724D02*
X138027500Y-100795276D01*
X139072500Y-101304724D02*
X139072500Y-100795276D01*
%TO.C,C2*%
X156265000Y-105588747D02*
X156265000Y-106111253D01*
X157735000Y-105588747D02*
X157735000Y-106111253D01*
%TO.C,D5*%
X150760000Y-94450000D02*
X150760000Y-92450000D01*
X150760000Y-94450000D02*
X146750000Y-94450000D01*
X150760000Y-92450000D02*
X146750000Y-92450000D01*
%TO.C,Q1*%
X132820000Y-83090000D02*
X132960000Y-83280000D01*
X132680000Y-83280000D01*
X132820000Y-83090000D01*
G36*
X132960000Y-83280000D02*
G01*
X132680000Y-83280000D01*
X132820000Y-83090000D01*
X132960000Y-83280000D01*
G37*
X134735000Y-84385000D02*
X133265000Y-84385000D01*
X134735000Y-83735000D02*
X134735000Y-84385000D01*
X133265000Y-83415000D02*
X133265000Y-83085000D01*
X133265000Y-82115000D02*
X134735000Y-82115000D01*
X134735000Y-82115000D02*
X134735000Y-82765000D01*
%TO.C,U3*%
X160640000Y-97990000D02*
X162460000Y-97990000D01*
X160640000Y-98040000D02*
X160640000Y-97990000D01*
X160640000Y-101110000D02*
X160640000Y-101060000D01*
X162460000Y-97990000D02*
X162460000Y-98040000D01*
X162460000Y-99160000D02*
X162460000Y-99940000D01*
X162460000Y-101060000D02*
X162460000Y-101110000D01*
X162460000Y-101110000D02*
X160640000Y-101110000D01*
X160100000Y-98040000D02*
X159860000Y-97710000D01*
X160340000Y-97710000D01*
X160100000Y-98040000D01*
G36*
X160100000Y-98040000D02*
G01*
X159860000Y-97710000D01*
X160340000Y-97710000D01*
X160100000Y-98040000D01*
G37*
%TD*%
M02*
