%TF.GenerationSoftware,KiCad,Pcbnew,10.0.3*%
%TF.CreationDate,2026-06-15T23:59:44-04:00*%
%TF.ProjectId,watch,77617463-682e-46b6-9963-61645f706362,rev?*%
%TF.SameCoordinates,Original*%
%TF.FileFunction,Soldermask,Bot*%
%TF.FilePolarity,Negative*%
%FSLAX46Y46*%
G04 Gerber Fmt 4.6, Leading zero omitted, Abs format (unit mm)*
G04 Created by KiCad (PCBNEW 10.0.3) date 2026-06-15 23:59:44*
%MOMM*%
%LPD*%
G01*
G04 APERTURE LIST*
G04 Aperture macros list*
%AMRoundRect*
0 Rectangle with rounded corners*
0 $1 Rounding radius*
0 $2 $3 $4 $5 $6 $7 $8 $9 X,Y pos of 4 corners*
0 Add a 4 corners polygon primitive as box body*
4,1,4,$2,$3,$4,$5,$6,$7,$8,$9,$2,$3,0*
0 Add four circle primitives for the rounded corners*
1,1,$1+$1,$2,$3*
1,1,$1+$1,$4,$5*
1,1,$1+$1,$6,$7*
1,1,$1+$1,$8,$9*
0 Add four rect primitives between the rounded corners*
20,1,$1+$1,$2,$3,$4,$5,0*
20,1,$1+$1,$4,$5,$6,$7,0*
20,1,$1+$1,$6,$7,$8,$9,0*
20,1,$1+$1,$8,$9,$2,$3,0*%
G04 Aperture macros list end*
%ADD10C,0.000000*%
%ADD11RoundRect,0.135000X-0.135000X-0.185000X0.135000X-0.185000X0.135000X0.185000X-0.135000X0.185000X0*%
%ADD12C,0.650000*%
%ADD13O,1.000000X2.100000*%
%ADD14O,1.000000X1.800000*%
%ADD15C,1.700000*%
%ADD16R,1.700000X1.700000*%
%ADD17RoundRect,0.250000X-0.350000X-0.625000X0.350000X-0.625000X0.350000X0.625000X-0.350000X0.625000X0*%
%ADD18O,1.200000X1.750000*%
%ADD19R,1.230000X1.860000*%
G04 APERTURE END LIST*
D10*
%TO.C,G\u002A\u002A\u002A*%
G36*
X156416423Y-80317530D02*
G01*
X156415819Y-81010708D01*
X156790783Y-81369845D01*
X156907566Y-81482787D01*
X157007570Y-81581608D01*
X157084380Y-81659807D01*
X157132041Y-81711319D01*
X157144595Y-81730079D01*
X157127286Y-81725420D01*
X157066291Y-81702163D01*
X156973881Y-81663732D01*
X156862059Y-81615017D01*
X156815979Y-81594540D01*
X156665498Y-81527667D01*
X156512962Y-81459882D01*
X156385216Y-81403115D01*
X156169758Y-81307371D01*
X155044058Y-81307371D01*
X153918358Y-81307371D01*
X153769138Y-81160005D01*
X153619918Y-81012639D01*
X153619918Y-80319839D01*
X153619918Y-80317836D01*
X154255217Y-80317836D01*
X154266425Y-80324894D01*
X154321540Y-80347734D01*
X154411250Y-80380000D01*
X154523202Y-80417117D01*
X154780684Y-80499403D01*
X154869071Y-80656168D01*
X154893768Y-80699874D01*
X154952287Y-80801228D01*
X154991505Y-80862513D01*
X155017327Y-80890846D01*
X155035656Y-80893342D01*
X155052400Y-80877120D01*
X155077152Y-80839535D01*
X155120984Y-80766613D01*
X155172659Y-80676631D01*
X155182817Y-80658576D01*
X155222561Y-80591327D01*
X155260175Y-80542556D01*
X155306762Y-80504861D01*
X155373425Y-80470844D01*
X155471267Y-80433105D01*
X155611393Y-80384245D01*
X155837016Y-80306440D01*
X155667900Y-80256002D01*
X155604232Y-80236937D01*
X155468804Y-80194362D01*
X155372483Y-80157470D01*
X155304241Y-80119055D01*
X155253048Y-80071908D01*
X155207875Y-80008822D01*
X155157692Y-79922591D01*
X155142487Y-79895880D01*
X155090160Y-79808980D01*
X155049027Y-79748160D01*
X155026918Y-79725237D01*
X155025318Y-79725658D01*
X155000046Y-79754107D01*
X154957486Y-79818387D01*
X154905913Y-79906128D01*
X154901666Y-79913693D01*
X154847497Y-80005473D01*
X154800463Y-80077456D01*
X154770326Y-80114630D01*
X154757706Y-80122141D01*
X154697045Y-80148397D01*
X154603141Y-80183342D01*
X154490325Y-80221507D01*
X154432709Y-80240694D01*
X154338371Y-80275144D01*
X154275431Y-80302405D01*
X154255217Y-80317836D01*
X153619918Y-80317836D01*
X153619918Y-79627039D01*
X153245558Y-79250881D01*
X153204761Y-79210003D01*
X153091023Y-79096647D01*
X153008114Y-79012324D01*
X152958710Y-78956099D01*
X152945485Y-78927037D01*
X152971118Y-78924200D01*
X153038284Y-78946654D01*
X153149659Y-78993462D01*
X153307919Y-79063689D01*
X153515741Y-79156398D01*
X153906003Y-79329618D01*
X155012295Y-79329618D01*
X156118586Y-79329618D01*
X156267806Y-79476985D01*
X156417026Y-79624351D01*
X156416433Y-80306440D01*
X156416423Y-80317530D01*
G37*
%TD*%
D11*
%TO.C,R2*%
X168910000Y-76000000D03*
X167890000Y-76000000D03*
%TD*%
%TO.C,R1*%
X172710000Y-76000000D03*
X171690000Y-76000000D03*
%TD*%
D12*
%TO.C,USB-C*%
X161360000Y-110395000D03*
X167140000Y-110395000D03*
D13*
X159930000Y-109875000D03*
D14*
X159930000Y-114075000D03*
D13*
X168570000Y-109875000D03*
D14*
X168570000Y-114075000D03*
%TD*%
D15*
%TO.C,IO pins*%
X182000000Y-82840000D03*
X182000000Y-85380000D03*
X182000000Y-87920000D03*
X182000000Y-80300000D03*
X182000000Y-90460000D03*
X182000000Y-93000000D03*
X182000000Y-95540000D03*
D16*
X182000000Y-77760000D03*
%TD*%
D17*
%TO.C,J3*%
X154000000Y-110550000D03*
D18*
X156000000Y-110550000D03*
%TD*%
D19*
%TO.C,BOOT*%
X179600000Y-82200000D03*
X175230000Y-82200000D03*
%TD*%
%TO.C,RESET*%
X179600000Y-77200000D03*
X175230000Y-77200000D03*
%TD*%
M02*
