%TF.GenerationSoftware,KiCad,Pcbnew,10.0.3*%
%TF.CreationDate,2026-06-15T23:59:44-04:00*%
%TF.ProjectId,watch,77617463-682e-46b6-9963-61645f706362,rev?*%
%TF.SameCoordinates,Original*%
%TF.FileFunction,Copper,L2,Bot*%
%TF.FilePolarity,Positive*%
%FSLAX46Y46*%
G04 Gerber Fmt 4.6, Leading zero omitted, Abs format (unit mm)*
G04 Created by KiCad (PCBNEW 10.0.3) date 2026-06-15 23:59:44*
%MOMM*%
%LPD*%
G01*
G04 APERTURE LIST*
G04 Aperture macros list*
%AMRoundRect*
0 Rectangle with rounded corners*
0 $1 Rounding radius*
0 $2 $3 $4 $5 $6 $7 $8 $9 X,Y pos of 4 corners*
0 Add a 4 corners polygon primitive as box body*
4,1,4,$2,$3,$4,$5,$6,$7,$8,$9,$2,$3,0*
0 Add four circle primitives for the rounded corners*
1,1,$1+$1,$2,$3*
1,1,$1+$1,$4,$5*
1,1,$1+$1,$6,$7*
1,1,$1+$1,$8,$9*
0 Add four rect primitives between the rounded corners*
20,1,$1+$1,$2,$3,$4,$5,0*
20,1,$1+$1,$4,$5,$6,$7,0*
20,1,$1+$1,$6,$7,$8,$9,0*
20,1,$1+$1,$8,$9,$2,$3,0*%
G04 Aperture macros list end*
%TA.AperFunction,EtchedComponent*%
%ADD10C,0.000000*%
%TD*%
%TA.AperFunction,SMDPad,CuDef*%
%ADD11RoundRect,0.135000X-0.135000X-0.185000X0.135000X-0.185000X0.135000X0.185000X-0.135000X0.185000X0*%
%TD*%
%TA.AperFunction,ComponentPad*%
%ADD12O,1.000000X2.100000*%
%TD*%
%TA.AperFunction,ComponentPad*%
%ADD13O,1.000000X1.800000*%
%TD*%
%TA.AperFunction,ComponentPad*%
%ADD14C,1.700000*%
%TD*%
%TA.AperFunction,ComponentPad*%
%ADD15R,1.700000X1.700000*%
%TD*%
%TA.AperFunction,ComponentPad*%
%ADD16RoundRect,0.250000X-0.350000X-0.625000X0.350000X-0.625000X0.350000X0.625000X-0.350000X0.625000X0*%
%TD*%
%TA.AperFunction,ComponentPad*%
%ADD17O,1.200000X1.750000*%
%TD*%
%TA.AperFunction,SMDPad,CuDef*%
%ADD18R,1.230000X1.860000*%
%TD*%
%TA.AperFunction,ViaPad*%
%ADD19C,0.600000*%
%TD*%
%TA.AperFunction,Conductor*%
%ADD20C,0.200000*%
%TD*%
G04 APERTURE END LIST*
D10*
%TA.AperFunction,EtchedComponent*%
%TO.C,G\u002A\u002A\u002A*%
G36*
X156418156Y-80321282D02*
G01*
X156417552Y-81014460D01*
X156792516Y-81373597D01*
X156909299Y-81486539D01*
X157009303Y-81585360D01*
X157086113Y-81663559D01*
X157133774Y-81715071D01*
X157146328Y-81733831D01*
X157129019Y-81729172D01*
X157068024Y-81705915D01*
X156975614Y-81667484D01*
X156863792Y-81618769D01*
X156817712Y-81598292D01*
X156667231Y-81531419D01*
X156514695Y-81463634D01*
X156386949Y-81406867D01*
X156171491Y-81311123D01*
X155045791Y-81311123D01*
X153920091Y-81311123D01*
X153770871Y-81163757D01*
X153621651Y-81016391D01*
X153621651Y-80323591D01*
X153621651Y-80321588D01*
X154256950Y-80321588D01*
X154268158Y-80328646D01*
X154323273Y-80351486D01*
X154412983Y-80383752D01*
X154524935Y-80420869D01*
X154782417Y-80503155D01*
X154870804Y-80659920D01*
X154895501Y-80703626D01*
X154954020Y-80804980D01*
X154993238Y-80866265D01*
X155019060Y-80894598D01*
X155037389Y-80897094D01*
X155054133Y-80880872D01*
X155078885Y-80843287D01*
X155122717Y-80770365D01*
X155174392Y-80680383D01*
X155184550Y-80662328D01*
X155224294Y-80595079D01*
X155261908Y-80546308D01*
X155308495Y-80508613D01*
X155375158Y-80474596D01*
X155473000Y-80436857D01*
X155613126Y-80387997D01*
X155838749Y-80310192D01*
X155669633Y-80259754D01*
X155605965Y-80240689D01*
X155470537Y-80198114D01*
X155374216Y-80161222D01*
X155305974Y-80122807D01*
X155254781Y-80075660D01*
X155209608Y-80012574D01*
X155159425Y-79926343D01*
X155144220Y-79899632D01*
X155091893Y-79812732D01*
X155050760Y-79751912D01*
X155028651Y-79728989D01*
X155027051Y-79729410D01*
X155001779Y-79757859D01*
X154959219Y-79822139D01*
X154907646Y-79909880D01*
X154903399Y-79917445D01*
X154849230Y-80009225D01*
X154802196Y-80081208D01*
X154772059Y-80118382D01*
X154759439Y-80125893D01*
X154698778Y-80152149D01*
X154604874Y-80187094D01*
X154492058Y-80225259D01*
X154434442Y-80244446D01*
X154340104Y-80278896D01*
X154277164Y-80306157D01*
X154256950Y-80321588D01*
X153621651Y-80321588D01*
X153621651Y-79630791D01*
X153247291Y-79254633D01*
X153206494Y-79213755D01*
X153092756Y-79100399D01*
X153009847Y-79016076D01*
X152960443Y-78959851D01*
X152947218Y-78930789D01*
X152972851Y-78927952D01*
X153040017Y-78950406D01*
X153151392Y-78997214D01*
X153309652Y-79067441D01*
X153517474Y-79160150D01*
X153907736Y-79333370D01*
X155014028Y-79333370D01*
X156120319Y-79333370D01*
X156269539Y-79480737D01*
X156418759Y-79628103D01*
X156418166Y-80310192D01*
X156418156Y-80321282D01*
G37*
%TD.AperFunction*%
%TD*%
D11*
%TO.P,R2,2*%
%TO.N,/BOOT*%
X168910000Y-76000000D03*
%TO.P,R2,1*%
%TO.N,+3V3*%
X167890000Y-76000000D03*
%TD*%
%TO.P,R1,2*%
%TO.N,/RESET*%
X172710000Y-76000000D03*
%TO.P,R1,1*%
%TO.N,+3V3*%
X171690000Y-76000000D03*
%TD*%
D12*
%TO.P,USB-C,SH,SHIELD_SH*%
%TO.N,GND*%
X159930000Y-109875000D03*
D13*
X159930000Y-114075000D03*
D12*
X168570000Y-109875000D03*
D13*
X168570000Y-114075000D03*
%TD*%
D14*
%TO.P,IO pins,1,Pin_3_1*%
%TO.N,/IO1*%
X182000000Y-82840000D03*
%TO.P,IO pins,2,Pin_4_2*%
%TO.N,/IO2*%
X182000000Y-85380000D03*
%TO.P,IO pins,3,Pin_5_3*%
%TO.N,/IO3*%
X182000000Y-87920000D03*
%TO.P,IO pins,3V3,Pin_1_3V3*%
%TO.N,+3V3*%
X182000000Y-80300000D03*
%TO.P,IO pins,4,Pin_6_4*%
%TO.N,/IO4*%
X182000000Y-90460000D03*
%TO.P,IO pins,5,Pin_7_5*%
%TO.N,/IO5*%
X182000000Y-93000000D03*
%TO.P,IO pins,6,Pin_8_6*%
%TO.N,/IO6*%
X182000000Y-95540000D03*
D15*
%TO.P,IO pins,GND,Pin_2_GND*%
%TO.N,GND*%
X182000000Y-77760000D03*
%TD*%
D16*
%TO.P,J3,1,Pin_1_1*%
%TO.N,Net-(D1-A)*%
X154000000Y-110550000D03*
D17*
%TO.P,J3,2,Pin_2_2*%
%TO.N,GND*%
X156000000Y-110550000D03*
%TD*%
D18*
%TO.P,BOOT,1,1_1*%
%TO.N,GND*%
X179600000Y-82200000D03*
%TO.P,BOOT,2,2_2*%
%TO.N,/BOOT*%
X175230000Y-82200000D03*
%TD*%
%TO.P,RESET,1,1_1*%
%TO.N,GND*%
X179600000Y-77200000D03*
%TO.P,RESET,2,2_2*%
%TO.N,/RESET*%
X175230000Y-77200000D03*
%TD*%
D19*
%TO.N,/BOOT*%
X170400000Y-77000000D03*
%TO.N,/RESET*%
X173910000Y-77200000D03*
%TO.N,/BUTTONA*%
X178600000Y-107800000D03*
%TO.N,/BUTTONB*%
X178000000Y-108400000D03*
%TO.N,GND*%
X172800000Y-94600000D03*
X160400000Y-86800000D03*
X174200000Y-91800000D03*
X173600000Y-80900000D03*
X160400000Y-90000000D03*
%TO.N,+3V3*%
X163250000Y-96500000D03*
X160000000Y-78000000D03*
%TO.N,/PREVGH*%
X129750000Y-102250000D03*
X141925000Y-85250000D03*
%TO.N,/PREVGL*%
X141875000Y-86950000D03*
X124250000Y-102250000D03*
%TO.N,/MOSI*%
X128250000Y-93200000D03*
X130750000Y-92500000D03*
%TO.N,Net-(D5-K)*%
X148250000Y-84000000D03*
X131750000Y-105500000D03*
%TO.N,/BUTTONB*%
X170500000Y-88500000D03*
%TO.N,Net-(U2-STAT)*%
X165000000Y-102500000D03*
X159000000Y-98500000D03*
%TO.N,/D+*%
X169500000Y-88500000D03*
X165000000Y-107000000D03*
%TO.N,/D-*%
X164000000Y-107000000D03*
X168699997Y-88500000D03*
%TO.N,/BOOT*%
X172600000Y-82200000D03*
%TO.N,/IO1*%
X160000000Y-80250000D03*
%TO.N,/IO2*%
X160000000Y-81250000D03*
%TO.N,/IO3*%
X160000000Y-82250000D03*
%TO.N,/IO4*%
X160000000Y-83250000D03*
%TO.N,/IO5*%
X160000000Y-84250000D03*
%TO.N,/IO6*%
X160000000Y-85250000D03*
%TO.N,/BUTTONA*%
X171500000Y-88500000D03*
%TD*%
%TO.N,/BOOT*%
D20*
X169400000Y-76000000D02*
X170400000Y-77000000D01*
X168910000Y-76000000D02*
X169400000Y-76000000D01*
%TO.N,+3V3*%
X167890000Y-76000000D02*
X167890000Y-79590000D01*
%TO.N,/RESET*%
X173605000Y-76895000D02*
X173610000Y-76900000D01*
X173605000Y-76895000D02*
X172710000Y-76000000D01*
%TO.N,+3V3*%
X171690000Y-79490000D02*
X171690000Y-76000000D01*
X172500000Y-80300000D02*
X171690000Y-79490000D01*
%TO.N,/RESET*%
X173910000Y-77200000D02*
X173605000Y-76895000D01*
X175230000Y-77200000D02*
X173910000Y-77200000D01*
%TO.N,/BUTTONA*%
X171500000Y-100700000D02*
X178600000Y-107800000D01*
X171500000Y-88500000D02*
X171500000Y-100700000D01*
%TO.N,/BUTTONB*%
X170500000Y-100900000D02*
X178000000Y-108400000D01*
X170500000Y-88500000D02*
X170500000Y-100900000D01*
%TO.N,GND*%
X160400000Y-90000000D02*
X160400000Y-86800000D01*
X174200000Y-91800000D02*
X174200000Y-91700000D01*
X179600000Y-82200000D02*
X178300000Y-80900000D01*
X179785000Y-77215000D02*
X179800000Y-77200000D01*
X181440000Y-77200000D02*
X182000000Y-77760000D01*
X178300000Y-80900000D02*
X173600000Y-80900000D01*
X174200000Y-91800000D02*
X174200000Y-93200000D01*
X180000000Y-77200000D02*
X181440000Y-77200000D01*
X174200000Y-93200000D02*
X172800000Y-94600000D01*
%TO.N,+3V3*%
X172500000Y-80300000D02*
X168600000Y-80300000D01*
X163250000Y-96500000D02*
X159400000Y-92650000D01*
X168600000Y-80300000D02*
X162300000Y-80300000D01*
X159400000Y-92650000D02*
X159400000Y-78600000D01*
X167890000Y-79590000D02*
X168600000Y-80300000D01*
X182000000Y-80300000D02*
X172500000Y-80300000D01*
X162300000Y-80300000D02*
X160000000Y-78000000D01*
X159400000Y-78600000D02*
X160000000Y-78000000D01*
%TO.N,/PREVGH*%
X141925000Y-85250000D02*
X142475000Y-85800000D01*
X142475000Y-89525000D02*
X129750000Y-102250000D01*
X142475000Y-85800000D02*
X142475000Y-89525000D01*
%TO.N,/PREVGL*%
X141875000Y-86950000D02*
X139550000Y-86950000D01*
X139550000Y-86950000D02*
X124250000Y-102250000D01*
%TO.N,/MOSI*%
X128250000Y-93200000D02*
X128300000Y-93250000D01*
X128300000Y-93250000D02*
X130000000Y-93250000D01*
X130000000Y-93250000D02*
X130750000Y-92500000D01*
%TO.N,Net-(D5-K)*%
X148250000Y-84000000D02*
X148250000Y-89000000D01*
X148250000Y-89000000D02*
X131750000Y-105500000D01*
%TO.N,Net-(U2-STAT)*%
X159000000Y-98500000D02*
X163000000Y-102500000D01*
X163000000Y-102500000D02*
X165000000Y-102500000D01*
%TO.N,/D+*%
X169500000Y-102500000D02*
X165000000Y-107000000D01*
X169500000Y-88500000D02*
X169500000Y-102500000D01*
%TO.N,/D-*%
X168500000Y-102500000D02*
X164000000Y-107000000D01*
X168699997Y-88500000D02*
X168500000Y-88699997D01*
X168500000Y-88699997D02*
X168500000Y-102500000D01*
%TO.N,/BOOT*%
X175230000Y-82200000D02*
X172600000Y-82200000D01*
%TO.N,/IO1*%
X163800000Y-84000000D02*
X160050000Y-80250000D01*
X160050000Y-80250000D02*
X160000000Y-80250000D01*
X182000000Y-82840000D02*
X180840000Y-84000000D01*
X180840000Y-84000000D02*
X163800000Y-84000000D01*
%TO.N,/IO2*%
X181420000Y-84800000D02*
X163550000Y-84800000D01*
X163550000Y-84800000D02*
X160000000Y-81250000D01*
X182000000Y-85380000D02*
X181420000Y-84800000D01*
%TO.N,/IO3*%
X182000000Y-87920000D02*
X179480000Y-85400000D01*
X179480000Y-85400000D02*
X163150000Y-85400000D01*
X163150000Y-85400000D02*
X160000000Y-82250000D01*
%TO.N,/IO4*%
X162750000Y-86000000D02*
X160000000Y-83250000D01*
X177540000Y-86000000D02*
X162750000Y-86000000D01*
X182000000Y-90460000D02*
X177540000Y-86000000D01*
%TO.N,/IO5*%
X160050000Y-84250000D02*
X160000000Y-84250000D01*
X175600000Y-86600000D02*
X162400000Y-86600000D01*
X162400000Y-86600000D02*
X160050000Y-84250000D01*
X182000000Y-93000000D02*
X175600000Y-86600000D01*
%TO.N,/IO6*%
X182000000Y-95540000D02*
X173660000Y-87200000D01*
X162000000Y-87200000D02*
X160050000Y-85250000D01*
X173660000Y-87200000D02*
X162000000Y-87200000D01*
X160050000Y-85250000D02*
X160000000Y-85250000D01*
%TD*%
M02*
