%TF.GenerationSoftware,KiCad,Pcbnew,10.0.3*%
%TF.CreationDate,2026-06-06T23:17:52-04:00*%
%TF.ProjectId,watch,77617463-682e-46b6-9963-61645f706362,rev?*%
%TF.SameCoordinates,Original*%
%TF.FileFunction,Legend,Top*%
%TF.FilePolarity,Positive*%
%FSLAX46Y46*%
G04 Gerber Fmt 4.6, Leading zero omitted, Abs format (unit mm)*
G04 Created by KiCad (PCBNEW 10.0.3) date 2026-06-06 23:17:52*
%MOMM*%
%LPD*%
G01*
G04 APERTURE LIST*
%ADD10C,0.100000*%
%ADD11C,0.200000*%
%ADD12C,0.150000*%
%ADD13C,0.120000*%
%ADD14C,0.000000*%
%ADD15C,0.152000*%
%ADD16C,0.152500*%
%ADD17C,0.254000*%
G04 APERTURE END LIST*
D10*
X113903884Y-109762475D02*
X113903884Y-108762475D01*
X113903884Y-108762475D02*
X114475312Y-109762475D01*
X114475312Y-109762475D02*
X114475312Y-108762475D01*
X115094360Y-109762475D02*
X114999122Y-109714856D01*
X114999122Y-109714856D02*
X114951503Y-109667236D01*
X114951503Y-109667236D02*
X114903884Y-109571998D01*
X114903884Y-109571998D02*
X114903884Y-109286284D01*
X114903884Y-109286284D02*
X114951503Y-109191046D01*
X114951503Y-109191046D02*
X114999122Y-109143427D01*
X114999122Y-109143427D02*
X115094360Y-109095808D01*
X115094360Y-109095808D02*
X115237217Y-109095808D01*
X115237217Y-109095808D02*
X115332455Y-109143427D01*
X115332455Y-109143427D02*
X115380074Y-109191046D01*
X115380074Y-109191046D02*
X115427693Y-109286284D01*
X115427693Y-109286284D02*
X115427693Y-109571998D01*
X115427693Y-109571998D02*
X115380074Y-109667236D01*
X115380074Y-109667236D02*
X115332455Y-109714856D01*
X115332455Y-109714856D02*
X115237217Y-109762475D01*
X115237217Y-109762475D02*
X115094360Y-109762475D01*
X115713408Y-109095808D02*
X116094360Y-109095808D01*
X115856265Y-108762475D02*
X115856265Y-109619617D01*
X115856265Y-109619617D02*
X115903884Y-109714856D01*
X115903884Y-109714856D02*
X115999122Y-109762475D01*
X115999122Y-109762475D02*
X116094360Y-109762475D01*
X116427694Y-109762475D02*
X116427694Y-108762475D01*
X116856265Y-109762475D02*
X116856265Y-109238665D01*
X116856265Y-109238665D02*
X116808646Y-109143427D01*
X116808646Y-109143427D02*
X116713408Y-109095808D01*
X116713408Y-109095808D02*
X116570551Y-109095808D01*
X116570551Y-109095808D02*
X116475313Y-109143427D01*
X116475313Y-109143427D02*
X116427694Y-109191046D01*
X117332456Y-109762475D02*
X117332456Y-109095808D01*
X117332456Y-108762475D02*
X117284837Y-108810094D01*
X117284837Y-108810094D02*
X117332456Y-108857713D01*
X117332456Y-108857713D02*
X117380075Y-108810094D01*
X117380075Y-108810094D02*
X117332456Y-108762475D01*
X117332456Y-108762475D02*
X117332456Y-108857713D01*
X117808646Y-109095808D02*
X117808646Y-109762475D01*
X117808646Y-109191046D02*
X117856265Y-109143427D01*
X117856265Y-109143427D02*
X117951503Y-109095808D01*
X117951503Y-109095808D02*
X118094360Y-109095808D01*
X118094360Y-109095808D02*
X118189598Y-109143427D01*
X118189598Y-109143427D02*
X118237217Y-109238665D01*
X118237217Y-109238665D02*
X118237217Y-109762475D01*
X119141979Y-109095808D02*
X119141979Y-109905332D01*
X119141979Y-109905332D02*
X119094360Y-110000570D01*
X119094360Y-110000570D02*
X119046741Y-110048189D01*
X119046741Y-110048189D02*
X118951503Y-110095808D01*
X118951503Y-110095808D02*
X118808646Y-110095808D01*
X118808646Y-110095808D02*
X118713408Y-110048189D01*
X119141979Y-109714856D02*
X119046741Y-109762475D01*
X119046741Y-109762475D02*
X118856265Y-109762475D01*
X118856265Y-109762475D02*
X118761027Y-109714856D01*
X118761027Y-109714856D02*
X118713408Y-109667236D01*
X118713408Y-109667236D02*
X118665789Y-109571998D01*
X118665789Y-109571998D02*
X118665789Y-109286284D01*
X118665789Y-109286284D02*
X118713408Y-109191046D01*
X118713408Y-109191046D02*
X118761027Y-109143427D01*
X118761027Y-109143427D02*
X118856265Y-109095808D01*
X118856265Y-109095808D02*
X119046741Y-109095808D01*
X119046741Y-109095808D02*
X119141979Y-109143427D01*
X120237218Y-109095808D02*
X120618170Y-109095808D01*
X120380075Y-108762475D02*
X120380075Y-109619617D01*
X120380075Y-109619617D02*
X120427694Y-109714856D01*
X120427694Y-109714856D02*
X120522932Y-109762475D01*
X120522932Y-109762475D02*
X120618170Y-109762475D01*
X121094361Y-109762475D02*
X120999123Y-109714856D01*
X120999123Y-109714856D02*
X120951504Y-109667236D01*
X120951504Y-109667236D02*
X120903885Y-109571998D01*
X120903885Y-109571998D02*
X120903885Y-109286284D01*
X120903885Y-109286284D02*
X120951504Y-109191046D01*
X120951504Y-109191046D02*
X120999123Y-109143427D01*
X120999123Y-109143427D02*
X121094361Y-109095808D01*
X121094361Y-109095808D02*
X121237218Y-109095808D01*
X121237218Y-109095808D02*
X121332456Y-109143427D01*
X121332456Y-109143427D02*
X121380075Y-109191046D01*
X121380075Y-109191046D02*
X121427694Y-109286284D01*
X121427694Y-109286284D02*
X121427694Y-109571998D01*
X121427694Y-109571998D02*
X121380075Y-109667236D01*
X121380075Y-109667236D02*
X121332456Y-109714856D01*
X121332456Y-109714856D02*
X121237218Y-109762475D01*
X121237218Y-109762475D02*
X121094361Y-109762475D01*
X122570552Y-109714856D02*
X122665790Y-109762475D01*
X122665790Y-109762475D02*
X122856266Y-109762475D01*
X122856266Y-109762475D02*
X122951504Y-109714856D01*
X122951504Y-109714856D02*
X122999123Y-109619617D01*
X122999123Y-109619617D02*
X122999123Y-109571998D01*
X122999123Y-109571998D02*
X122951504Y-109476760D01*
X122951504Y-109476760D02*
X122856266Y-109429141D01*
X122856266Y-109429141D02*
X122713409Y-109429141D01*
X122713409Y-109429141D02*
X122618171Y-109381522D01*
X122618171Y-109381522D02*
X122570552Y-109286284D01*
X122570552Y-109286284D02*
X122570552Y-109238665D01*
X122570552Y-109238665D02*
X122618171Y-109143427D01*
X122618171Y-109143427D02*
X122713409Y-109095808D01*
X122713409Y-109095808D02*
X122856266Y-109095808D01*
X122856266Y-109095808D02*
X122951504Y-109143427D01*
X123808647Y-109714856D02*
X123713409Y-109762475D01*
X123713409Y-109762475D02*
X123522933Y-109762475D01*
X123522933Y-109762475D02*
X123427695Y-109714856D01*
X123427695Y-109714856D02*
X123380076Y-109619617D01*
X123380076Y-109619617D02*
X123380076Y-109238665D01*
X123380076Y-109238665D02*
X123427695Y-109143427D01*
X123427695Y-109143427D02*
X123522933Y-109095808D01*
X123522933Y-109095808D02*
X123713409Y-109095808D01*
X123713409Y-109095808D02*
X123808647Y-109143427D01*
X123808647Y-109143427D02*
X123856266Y-109238665D01*
X123856266Y-109238665D02*
X123856266Y-109333903D01*
X123856266Y-109333903D02*
X123380076Y-109429141D01*
X124665790Y-109714856D02*
X124570552Y-109762475D01*
X124570552Y-109762475D02*
X124380076Y-109762475D01*
X124380076Y-109762475D02*
X124284838Y-109714856D01*
X124284838Y-109714856D02*
X124237219Y-109619617D01*
X124237219Y-109619617D02*
X124237219Y-109238665D01*
X124237219Y-109238665D02*
X124284838Y-109143427D01*
X124284838Y-109143427D02*
X124380076Y-109095808D01*
X124380076Y-109095808D02*
X124570552Y-109095808D01*
X124570552Y-109095808D02*
X124665790Y-109143427D01*
X124665790Y-109143427D02*
X124713409Y-109238665D01*
X124713409Y-109238665D02*
X124713409Y-109333903D01*
X124713409Y-109333903D02*
X124237219Y-109429141D01*
X125903886Y-109762475D02*
X125903886Y-108762475D01*
X126332457Y-109762475D02*
X126332457Y-109238665D01*
X126332457Y-109238665D02*
X126284838Y-109143427D01*
X126284838Y-109143427D02*
X126189600Y-109095808D01*
X126189600Y-109095808D02*
X126046743Y-109095808D01*
X126046743Y-109095808D02*
X125951505Y-109143427D01*
X125951505Y-109143427D02*
X125903886Y-109191046D01*
X127189600Y-109714856D02*
X127094362Y-109762475D01*
X127094362Y-109762475D02*
X126903886Y-109762475D01*
X126903886Y-109762475D02*
X126808648Y-109714856D01*
X126808648Y-109714856D02*
X126761029Y-109619617D01*
X126761029Y-109619617D02*
X126761029Y-109238665D01*
X126761029Y-109238665D02*
X126808648Y-109143427D01*
X126808648Y-109143427D02*
X126903886Y-109095808D01*
X126903886Y-109095808D02*
X127094362Y-109095808D01*
X127094362Y-109095808D02*
X127189600Y-109143427D01*
X127189600Y-109143427D02*
X127237219Y-109238665D01*
X127237219Y-109238665D02*
X127237219Y-109333903D01*
X127237219Y-109333903D02*
X126761029Y-109429141D01*
X127665791Y-109762475D02*
X127665791Y-109095808D01*
X127665791Y-109286284D02*
X127713410Y-109191046D01*
X127713410Y-109191046D02*
X127761029Y-109143427D01*
X127761029Y-109143427D02*
X127856267Y-109095808D01*
X127856267Y-109095808D02*
X127951505Y-109095808D01*
X128665791Y-109714856D02*
X128570553Y-109762475D01*
X128570553Y-109762475D02*
X128380077Y-109762475D01*
X128380077Y-109762475D02*
X128284839Y-109714856D01*
X128284839Y-109714856D02*
X128237220Y-109619617D01*
X128237220Y-109619617D02*
X128237220Y-109238665D01*
X128237220Y-109238665D02*
X128284839Y-109143427D01*
X128284839Y-109143427D02*
X128380077Y-109095808D01*
X128380077Y-109095808D02*
X128570553Y-109095808D01*
X128570553Y-109095808D02*
X128665791Y-109143427D01*
X128665791Y-109143427D02*
X128713410Y-109238665D01*
X128713410Y-109238665D02*
X128713410Y-109333903D01*
X128713410Y-109333903D02*
X128237220Y-109429141D01*
X129903887Y-109667236D02*
X129951506Y-109714856D01*
X129951506Y-109714856D02*
X129903887Y-109762475D01*
X129903887Y-109762475D02*
X129856268Y-109714856D01*
X129856268Y-109714856D02*
X129903887Y-109667236D01*
X129903887Y-109667236D02*
X129903887Y-109762475D01*
X129903887Y-109143427D02*
X129951506Y-109191046D01*
X129951506Y-109191046D02*
X129903887Y-109238665D01*
X129903887Y-109238665D02*
X129856268Y-109191046D01*
X129856268Y-109191046D02*
X129903887Y-109143427D01*
X129903887Y-109143427D02*
X129903887Y-109238665D01*
X130284839Y-108762475D02*
X130903886Y-108762475D01*
X130903886Y-108762475D02*
X130570553Y-109143427D01*
X130570553Y-109143427D02*
X130713410Y-109143427D01*
X130713410Y-109143427D02*
X130808648Y-109191046D01*
X130808648Y-109191046D02*
X130856267Y-109238665D01*
X130856267Y-109238665D02*
X130903886Y-109333903D01*
X130903886Y-109333903D02*
X130903886Y-109571998D01*
X130903886Y-109571998D02*
X130856267Y-109667236D01*
X130856267Y-109667236D02*
X130808648Y-109714856D01*
X130808648Y-109714856D02*
X130713410Y-109762475D01*
X130713410Y-109762475D02*
X130427696Y-109762475D01*
X130427696Y-109762475D02*
X130332458Y-109714856D01*
X130332458Y-109714856D02*
X130284839Y-109667236D01*
X113903884Y-111372419D02*
X113903884Y-110372419D01*
X113903884Y-110848609D02*
X114475312Y-110848609D01*
X114475312Y-111372419D02*
X114475312Y-110372419D01*
X115380074Y-111372419D02*
X115380074Y-110848609D01*
X115380074Y-110848609D02*
X115332455Y-110753371D01*
X115332455Y-110753371D02*
X115237217Y-110705752D01*
X115237217Y-110705752D02*
X115046741Y-110705752D01*
X115046741Y-110705752D02*
X114951503Y-110753371D01*
X115380074Y-111324800D02*
X115284836Y-111372419D01*
X115284836Y-111372419D02*
X115046741Y-111372419D01*
X115046741Y-111372419D02*
X114951503Y-111324800D01*
X114951503Y-111324800D02*
X114903884Y-111229561D01*
X114903884Y-111229561D02*
X114903884Y-111134323D01*
X114903884Y-111134323D02*
X114951503Y-111039085D01*
X114951503Y-111039085D02*
X115046741Y-110991466D01*
X115046741Y-110991466D02*
X115284836Y-110991466D01*
X115284836Y-110991466D02*
X115380074Y-110943847D01*
X115999122Y-111372419D02*
X115903884Y-111324800D01*
X115903884Y-111324800D02*
X115856265Y-111277180D01*
X115856265Y-111277180D02*
X115808646Y-111181942D01*
X115808646Y-111181942D02*
X115808646Y-110896228D01*
X115808646Y-110896228D02*
X115856265Y-110800990D01*
X115856265Y-110800990D02*
X115903884Y-110753371D01*
X115903884Y-110753371D02*
X115999122Y-110705752D01*
X115999122Y-110705752D02*
X116141979Y-110705752D01*
X116141979Y-110705752D02*
X116237217Y-110753371D01*
X116237217Y-110753371D02*
X116284836Y-110800990D01*
X116284836Y-110800990D02*
X116332455Y-110896228D01*
X116332455Y-110896228D02*
X116332455Y-111181942D01*
X116332455Y-111181942D02*
X116284836Y-111277180D01*
X116284836Y-111277180D02*
X116237217Y-111324800D01*
X116237217Y-111324800D02*
X116141979Y-111372419D01*
X116141979Y-111372419D02*
X115999122Y-111372419D01*
X116665789Y-110705752D02*
X116903884Y-111372419D01*
X117141979Y-110705752D02*
X116903884Y-111372419D01*
X116903884Y-111372419D02*
X116808646Y-111610514D01*
X116808646Y-111610514D02*
X116761027Y-111658133D01*
X116761027Y-111658133D02*
X116665789Y-111705752D01*
X117951503Y-111372419D02*
X117951503Y-110848609D01*
X117951503Y-110848609D02*
X117903884Y-110753371D01*
X117903884Y-110753371D02*
X117808646Y-110705752D01*
X117808646Y-110705752D02*
X117618170Y-110705752D01*
X117618170Y-110705752D02*
X117522932Y-110753371D01*
X117951503Y-111324800D02*
X117856265Y-111372419D01*
X117856265Y-111372419D02*
X117618170Y-111372419D01*
X117618170Y-111372419D02*
X117522932Y-111324800D01*
X117522932Y-111324800D02*
X117475313Y-111229561D01*
X117475313Y-111229561D02*
X117475313Y-111134323D01*
X117475313Y-111134323D02*
X117522932Y-111039085D01*
X117522932Y-111039085D02*
X117618170Y-110991466D01*
X117618170Y-110991466D02*
X117856265Y-110991466D01*
X117856265Y-110991466D02*
X117951503Y-110943847D01*
X118427694Y-110705752D02*
X118427694Y-111372419D01*
X118427694Y-110800990D02*
X118475313Y-110753371D01*
X118475313Y-110753371D02*
X118570551Y-110705752D01*
X118570551Y-110705752D02*
X118713408Y-110705752D01*
X118713408Y-110705752D02*
X118808646Y-110753371D01*
X118808646Y-110753371D02*
X118856265Y-110848609D01*
X118856265Y-110848609D02*
X118856265Y-111372419D01*
X120570551Y-111372419D02*
X120094361Y-111372419D01*
X120094361Y-111372419D02*
X120094361Y-110372419D01*
X120903885Y-111372419D02*
X120903885Y-110705752D01*
X120903885Y-110372419D02*
X120856266Y-110420038D01*
X120856266Y-110420038D02*
X120903885Y-110467657D01*
X120903885Y-110467657D02*
X120951504Y-110420038D01*
X120951504Y-110420038D02*
X120903885Y-110372419D01*
X120903885Y-110372419D02*
X120903885Y-110467657D01*
X122427694Y-111753371D02*
X122380075Y-111705752D01*
X122380075Y-111705752D02*
X122284837Y-111562895D01*
X122284837Y-111562895D02*
X122237218Y-111467657D01*
X122237218Y-111467657D02*
X122189599Y-111324800D01*
X122189599Y-111324800D02*
X122141980Y-111086704D01*
X122141980Y-111086704D02*
X122141980Y-110896228D01*
X122141980Y-110896228D02*
X122189599Y-110658133D01*
X122189599Y-110658133D02*
X122237218Y-110515276D01*
X122237218Y-110515276D02*
X122284837Y-110420038D01*
X122284837Y-110420038D02*
X122380075Y-110277180D01*
X122380075Y-110277180D02*
X122427694Y-110229561D01*
X122808647Y-111372419D02*
X122808647Y-110372419D01*
X123237218Y-111372419D02*
X123237218Y-110848609D01*
X123237218Y-110848609D02*
X123189599Y-110753371D01*
X123189599Y-110753371D02*
X123094361Y-110705752D01*
X123094361Y-110705752D02*
X122951504Y-110705752D01*
X122951504Y-110705752D02*
X122856266Y-110753371D01*
X122856266Y-110753371D02*
X122808647Y-110800990D01*
X124141980Y-111372419D02*
X124141980Y-110848609D01*
X124141980Y-110848609D02*
X124094361Y-110753371D01*
X124094361Y-110753371D02*
X123999123Y-110705752D01*
X123999123Y-110705752D02*
X123808647Y-110705752D01*
X123808647Y-110705752D02*
X123713409Y-110753371D01*
X124141980Y-111324800D02*
X124046742Y-111372419D01*
X124046742Y-111372419D02*
X123808647Y-111372419D01*
X123808647Y-111372419D02*
X123713409Y-111324800D01*
X123713409Y-111324800D02*
X123665790Y-111229561D01*
X123665790Y-111229561D02*
X123665790Y-111134323D01*
X123665790Y-111134323D02*
X123713409Y-111039085D01*
X123713409Y-111039085D02*
X123808647Y-110991466D01*
X123808647Y-110991466D02*
X124046742Y-110991466D01*
X124046742Y-110991466D02*
X124141980Y-110943847D01*
X124761028Y-111372419D02*
X124665790Y-111324800D01*
X124665790Y-111324800D02*
X124618171Y-111277180D01*
X124618171Y-111277180D02*
X124570552Y-111181942D01*
X124570552Y-111181942D02*
X124570552Y-110896228D01*
X124570552Y-110896228D02*
X124618171Y-110800990D01*
X124618171Y-110800990D02*
X124665790Y-110753371D01*
X124665790Y-110753371D02*
X124761028Y-110705752D01*
X124761028Y-110705752D02*
X124903885Y-110705752D01*
X124903885Y-110705752D02*
X124999123Y-110753371D01*
X124999123Y-110753371D02*
X125046742Y-110800990D01*
X125046742Y-110800990D02*
X125094361Y-110896228D01*
X125094361Y-110896228D02*
X125094361Y-111181942D01*
X125094361Y-111181942D02*
X125046742Y-111277180D01*
X125046742Y-111277180D02*
X124999123Y-111324800D01*
X124999123Y-111324800D02*
X124903885Y-111372419D01*
X124903885Y-111372419D02*
X124761028Y-111372419D01*
X125427695Y-110705752D02*
X125665790Y-111372419D01*
X125903885Y-110705752D02*
X125665790Y-111372419D01*
X125665790Y-111372419D02*
X125570552Y-111610514D01*
X125570552Y-111610514D02*
X125522933Y-111658133D01*
X125522933Y-111658133D02*
X125427695Y-111705752D01*
X126713409Y-111372419D02*
X126713409Y-110848609D01*
X126713409Y-110848609D02*
X126665790Y-110753371D01*
X126665790Y-110753371D02*
X126570552Y-110705752D01*
X126570552Y-110705752D02*
X126380076Y-110705752D01*
X126380076Y-110705752D02*
X126284838Y-110753371D01*
X126713409Y-111324800D02*
X126618171Y-111372419D01*
X126618171Y-111372419D02*
X126380076Y-111372419D01*
X126380076Y-111372419D02*
X126284838Y-111324800D01*
X126284838Y-111324800D02*
X126237219Y-111229561D01*
X126237219Y-111229561D02*
X126237219Y-111134323D01*
X126237219Y-111134323D02*
X126284838Y-111039085D01*
X126284838Y-111039085D02*
X126380076Y-110991466D01*
X126380076Y-110991466D02*
X126618171Y-110991466D01*
X126618171Y-110991466D02*
X126713409Y-110943847D01*
X127189600Y-110705752D02*
X127189600Y-111372419D01*
X127189600Y-110800990D02*
X127237219Y-110753371D01*
X127237219Y-110753371D02*
X127332457Y-110705752D01*
X127332457Y-110705752D02*
X127475314Y-110705752D01*
X127475314Y-110705752D02*
X127570552Y-110753371D01*
X127570552Y-110753371D02*
X127618171Y-110848609D01*
X127618171Y-110848609D02*
X127618171Y-111372419D01*
X128237219Y-111372419D02*
X128141981Y-111324800D01*
X128141981Y-111324800D02*
X128094362Y-111229561D01*
X128094362Y-111229561D02*
X128094362Y-110372419D01*
X128618172Y-111372419D02*
X128618172Y-110705752D01*
X128618172Y-110372419D02*
X128570553Y-110420038D01*
X128570553Y-110420038D02*
X128618172Y-110467657D01*
X128618172Y-110467657D02*
X128665791Y-110420038D01*
X128665791Y-110420038D02*
X128618172Y-110372419D01*
X128618172Y-110372419D02*
X128618172Y-110467657D01*
X129094362Y-111277180D02*
X129141981Y-111324800D01*
X129141981Y-111324800D02*
X129094362Y-111372419D01*
X129094362Y-111372419D02*
X129046743Y-111324800D01*
X129046743Y-111324800D02*
X129094362Y-111277180D01*
X129094362Y-111277180D02*
X129094362Y-111372419D01*
X129999123Y-111372419D02*
X129999123Y-110372419D01*
X129999123Y-111324800D02*
X129903885Y-111372419D01*
X129903885Y-111372419D02*
X129713409Y-111372419D01*
X129713409Y-111372419D02*
X129618171Y-111324800D01*
X129618171Y-111324800D02*
X129570552Y-111277180D01*
X129570552Y-111277180D02*
X129522933Y-111181942D01*
X129522933Y-111181942D02*
X129522933Y-110896228D01*
X129522933Y-110896228D02*
X129570552Y-110800990D01*
X129570552Y-110800990D02*
X129618171Y-110753371D01*
X129618171Y-110753371D02*
X129713409Y-110705752D01*
X129713409Y-110705752D02*
X129903885Y-110705752D01*
X129903885Y-110705752D02*
X129999123Y-110753371D01*
X130856266Y-111324800D02*
X130761028Y-111372419D01*
X130761028Y-111372419D02*
X130570552Y-111372419D01*
X130570552Y-111372419D02*
X130475314Y-111324800D01*
X130475314Y-111324800D02*
X130427695Y-111229561D01*
X130427695Y-111229561D02*
X130427695Y-110848609D01*
X130427695Y-110848609D02*
X130475314Y-110753371D01*
X130475314Y-110753371D02*
X130570552Y-110705752D01*
X130570552Y-110705752D02*
X130761028Y-110705752D01*
X130761028Y-110705752D02*
X130856266Y-110753371D01*
X130856266Y-110753371D02*
X130903885Y-110848609D01*
X130903885Y-110848609D02*
X130903885Y-110943847D01*
X130903885Y-110943847D02*
X130427695Y-111039085D01*
X131237219Y-110705752D02*
X131475314Y-111372419D01*
X131475314Y-111372419D02*
X131713409Y-110705752D01*
X131999124Y-111753371D02*
X132046743Y-111705752D01*
X132046743Y-111705752D02*
X132141981Y-111562895D01*
X132141981Y-111562895D02*
X132189600Y-111467657D01*
X132189600Y-111467657D02*
X132237219Y-111324800D01*
X132237219Y-111324800D02*
X132284838Y-111086704D01*
X132284838Y-111086704D02*
X132284838Y-110896228D01*
X132284838Y-110896228D02*
X132237219Y-110658133D01*
X132237219Y-110658133D02*
X132189600Y-110515276D01*
X132189600Y-110515276D02*
X132141981Y-110420038D01*
X132141981Y-110420038D02*
X132046743Y-110277180D01*
X132046743Y-110277180D02*
X131999124Y-110229561D01*
X112585786Y-112000000D02*
X112585786Y-80000000D01*
X112585786Y-112000000D02*
X150585787Y-112000000D01*
X112600000Y-80000000D02*
X150600000Y-80089651D01*
X150585786Y-80089651D02*
X150585787Y-112000000D01*
X113503884Y-81328721D02*
X113837217Y-81328721D01*
X113980074Y-81852531D02*
X113503884Y-81852531D01*
X113503884Y-81852531D02*
X113503884Y-80852531D01*
X113503884Y-80852531D02*
X113980074Y-80852531D01*
X114408646Y-81471578D02*
X115170551Y-81471578D01*
X115646741Y-81185864D02*
X115646741Y-82185864D01*
X115646741Y-81233483D02*
X115741979Y-81185864D01*
X115741979Y-81185864D02*
X115932455Y-81185864D01*
X115932455Y-81185864D02*
X116027693Y-81233483D01*
X116027693Y-81233483D02*
X116075312Y-81281102D01*
X116075312Y-81281102D02*
X116122931Y-81376340D01*
X116122931Y-81376340D02*
X116122931Y-81662054D01*
X116122931Y-81662054D02*
X116075312Y-81757292D01*
X116075312Y-81757292D02*
X116027693Y-81804912D01*
X116027693Y-81804912D02*
X115932455Y-81852531D01*
X115932455Y-81852531D02*
X115741979Y-81852531D01*
X115741979Y-81852531D02*
X115646741Y-81804912D01*
X116980074Y-81852531D02*
X116980074Y-81328721D01*
X116980074Y-81328721D02*
X116932455Y-81233483D01*
X116932455Y-81233483D02*
X116837217Y-81185864D01*
X116837217Y-81185864D02*
X116646741Y-81185864D01*
X116646741Y-81185864D02*
X116551503Y-81233483D01*
X116980074Y-81804912D02*
X116884836Y-81852531D01*
X116884836Y-81852531D02*
X116646741Y-81852531D01*
X116646741Y-81852531D02*
X116551503Y-81804912D01*
X116551503Y-81804912D02*
X116503884Y-81709673D01*
X116503884Y-81709673D02*
X116503884Y-81614435D01*
X116503884Y-81614435D02*
X116551503Y-81519197D01*
X116551503Y-81519197D02*
X116646741Y-81471578D01*
X116646741Y-81471578D02*
X116884836Y-81471578D01*
X116884836Y-81471578D02*
X116980074Y-81423959D01*
X117456265Y-81185864D02*
X117456265Y-82185864D01*
X117456265Y-81233483D02*
X117551503Y-81185864D01*
X117551503Y-81185864D02*
X117741979Y-81185864D01*
X117741979Y-81185864D02*
X117837217Y-81233483D01*
X117837217Y-81233483D02*
X117884836Y-81281102D01*
X117884836Y-81281102D02*
X117932455Y-81376340D01*
X117932455Y-81376340D02*
X117932455Y-81662054D01*
X117932455Y-81662054D02*
X117884836Y-81757292D01*
X117884836Y-81757292D02*
X117837217Y-81804912D01*
X117837217Y-81804912D02*
X117741979Y-81852531D01*
X117741979Y-81852531D02*
X117551503Y-81852531D01*
X117551503Y-81852531D02*
X117456265Y-81804912D01*
X118741979Y-81804912D02*
X118646741Y-81852531D01*
X118646741Y-81852531D02*
X118456265Y-81852531D01*
X118456265Y-81852531D02*
X118361027Y-81804912D01*
X118361027Y-81804912D02*
X118313408Y-81709673D01*
X118313408Y-81709673D02*
X118313408Y-81328721D01*
X118313408Y-81328721D02*
X118361027Y-81233483D01*
X118361027Y-81233483D02*
X118456265Y-81185864D01*
X118456265Y-81185864D02*
X118646741Y-81185864D01*
X118646741Y-81185864D02*
X118741979Y-81233483D01*
X118741979Y-81233483D02*
X118789598Y-81328721D01*
X118789598Y-81328721D02*
X118789598Y-81423959D01*
X118789598Y-81423959D02*
X118313408Y-81519197D01*
X119218170Y-81852531D02*
X119218170Y-81185864D01*
X119218170Y-81376340D02*
X119265789Y-81281102D01*
X119265789Y-81281102D02*
X119313408Y-81233483D01*
X119313408Y-81233483D02*
X119408646Y-81185864D01*
X119408646Y-81185864D02*
X119503884Y-81185864D01*
X121027694Y-81852531D02*
X121027694Y-80852531D01*
X121027694Y-81804912D02*
X120932456Y-81852531D01*
X120932456Y-81852531D02*
X120741980Y-81852531D01*
X120741980Y-81852531D02*
X120646742Y-81804912D01*
X120646742Y-81804912D02*
X120599123Y-81757292D01*
X120599123Y-81757292D02*
X120551504Y-81662054D01*
X120551504Y-81662054D02*
X120551504Y-81376340D01*
X120551504Y-81376340D02*
X120599123Y-81281102D01*
X120599123Y-81281102D02*
X120646742Y-81233483D01*
X120646742Y-81233483D02*
X120741980Y-81185864D01*
X120741980Y-81185864D02*
X120932456Y-81185864D01*
X120932456Y-81185864D02*
X121027694Y-81233483D01*
X121503885Y-81852531D02*
X121503885Y-81185864D01*
X121503885Y-80852531D02*
X121456266Y-80900150D01*
X121456266Y-80900150D02*
X121503885Y-80947769D01*
X121503885Y-80947769D02*
X121551504Y-80900150D01*
X121551504Y-80900150D02*
X121503885Y-80852531D01*
X121503885Y-80852531D02*
X121503885Y-80947769D01*
X121932456Y-81804912D02*
X122027694Y-81852531D01*
X122027694Y-81852531D02*
X122218170Y-81852531D01*
X122218170Y-81852531D02*
X122313408Y-81804912D01*
X122313408Y-81804912D02*
X122361027Y-81709673D01*
X122361027Y-81709673D02*
X122361027Y-81662054D01*
X122361027Y-81662054D02*
X122313408Y-81566816D01*
X122313408Y-81566816D02*
X122218170Y-81519197D01*
X122218170Y-81519197D02*
X122075313Y-81519197D01*
X122075313Y-81519197D02*
X121980075Y-81471578D01*
X121980075Y-81471578D02*
X121932456Y-81376340D01*
X121932456Y-81376340D02*
X121932456Y-81328721D01*
X121932456Y-81328721D02*
X121980075Y-81233483D01*
X121980075Y-81233483D02*
X122075313Y-81185864D01*
X122075313Y-81185864D02*
X122218170Y-81185864D01*
X122218170Y-81185864D02*
X122313408Y-81233483D01*
X122789599Y-81185864D02*
X122789599Y-82185864D01*
X122789599Y-81233483D02*
X122884837Y-81185864D01*
X122884837Y-81185864D02*
X123075313Y-81185864D01*
X123075313Y-81185864D02*
X123170551Y-81233483D01*
X123170551Y-81233483D02*
X123218170Y-81281102D01*
X123218170Y-81281102D02*
X123265789Y-81376340D01*
X123265789Y-81376340D02*
X123265789Y-81662054D01*
X123265789Y-81662054D02*
X123218170Y-81757292D01*
X123218170Y-81757292D02*
X123170551Y-81804912D01*
X123170551Y-81804912D02*
X123075313Y-81852531D01*
X123075313Y-81852531D02*
X122884837Y-81852531D01*
X122884837Y-81852531D02*
X122789599Y-81804912D01*
X123837218Y-81852531D02*
X123741980Y-81804912D01*
X123741980Y-81804912D02*
X123694361Y-81709673D01*
X123694361Y-81709673D02*
X123694361Y-80852531D01*
X124646742Y-81852531D02*
X124646742Y-81328721D01*
X124646742Y-81328721D02*
X124599123Y-81233483D01*
X124599123Y-81233483D02*
X124503885Y-81185864D01*
X124503885Y-81185864D02*
X124313409Y-81185864D01*
X124313409Y-81185864D02*
X124218171Y-81233483D01*
X124646742Y-81804912D02*
X124551504Y-81852531D01*
X124551504Y-81852531D02*
X124313409Y-81852531D01*
X124313409Y-81852531D02*
X124218171Y-81804912D01*
X124218171Y-81804912D02*
X124170552Y-81709673D01*
X124170552Y-81709673D02*
X124170552Y-81614435D01*
X124170552Y-81614435D02*
X124218171Y-81519197D01*
X124218171Y-81519197D02*
X124313409Y-81471578D01*
X124313409Y-81471578D02*
X124551504Y-81471578D01*
X124551504Y-81471578D02*
X124646742Y-81423959D01*
X125027695Y-81185864D02*
X125265790Y-81852531D01*
X125503885Y-81185864D02*
X125265790Y-81852531D01*
X125265790Y-81852531D02*
X125170552Y-82090626D01*
X125170552Y-82090626D02*
X125122933Y-82138245D01*
X125122933Y-82138245D02*
X125027695Y-82185864D01*
X114075312Y-83462475D02*
X113741979Y-82986284D01*
X113503884Y-83462475D02*
X113503884Y-82462475D01*
X113503884Y-82462475D02*
X113884836Y-82462475D01*
X113884836Y-82462475D02*
X113980074Y-82510094D01*
X113980074Y-82510094D02*
X114027693Y-82557713D01*
X114027693Y-82557713D02*
X114075312Y-82652951D01*
X114075312Y-82652951D02*
X114075312Y-82795808D01*
X114075312Y-82795808D02*
X114027693Y-82891046D01*
X114027693Y-82891046D02*
X113980074Y-82938665D01*
X113980074Y-82938665D02*
X113884836Y-82986284D01*
X113884836Y-82986284D02*
X113503884Y-82986284D01*
X114503884Y-83462475D02*
X114503884Y-82462475D01*
X114980074Y-83462475D02*
X114980074Y-82462475D01*
X114980074Y-82462475D02*
X115361026Y-82462475D01*
X115361026Y-82462475D02*
X115456264Y-82510094D01*
X115456264Y-82510094D02*
X115503883Y-82557713D01*
X115503883Y-82557713D02*
X115551502Y-82652951D01*
X115551502Y-82652951D02*
X115551502Y-82795808D01*
X115551502Y-82795808D02*
X115503883Y-82891046D01*
X115503883Y-82891046D02*
X115456264Y-82938665D01*
X115456264Y-82938665D02*
X115361026Y-82986284D01*
X115361026Y-82986284D02*
X114980074Y-82986284D01*
X116741979Y-83462475D02*
X116741979Y-82462475D01*
X116741979Y-82462475D02*
X116980074Y-82462475D01*
X116980074Y-82462475D02*
X117122931Y-82510094D01*
X117122931Y-82510094D02*
X117218169Y-82605332D01*
X117218169Y-82605332D02*
X117265788Y-82700570D01*
X117265788Y-82700570D02*
X117313407Y-82891046D01*
X117313407Y-82891046D02*
X117313407Y-83033903D01*
X117313407Y-83033903D02*
X117265788Y-83224379D01*
X117265788Y-83224379D02*
X117218169Y-83319617D01*
X117218169Y-83319617D02*
X117122931Y-83414856D01*
X117122931Y-83414856D02*
X116980074Y-83462475D01*
X116980074Y-83462475D02*
X116741979Y-83462475D01*
X117694360Y-83414856D02*
X117837217Y-83462475D01*
X117837217Y-83462475D02*
X118075312Y-83462475D01*
X118075312Y-83462475D02*
X118170550Y-83414856D01*
X118170550Y-83414856D02*
X118218169Y-83367236D01*
X118218169Y-83367236D02*
X118265788Y-83271998D01*
X118265788Y-83271998D02*
X118265788Y-83176760D01*
X118265788Y-83176760D02*
X118218169Y-83081522D01*
X118218169Y-83081522D02*
X118170550Y-83033903D01*
X118170550Y-83033903D02*
X118075312Y-82986284D01*
X118075312Y-82986284D02*
X117884836Y-82938665D01*
X117884836Y-82938665D02*
X117789598Y-82891046D01*
X117789598Y-82891046D02*
X117741979Y-82843427D01*
X117741979Y-82843427D02*
X117694360Y-82748189D01*
X117694360Y-82748189D02*
X117694360Y-82652951D01*
X117694360Y-82652951D02*
X117741979Y-82557713D01*
X117741979Y-82557713D02*
X117789598Y-82510094D01*
X117789598Y-82510094D02*
X117884836Y-82462475D01*
X117884836Y-82462475D02*
X118122931Y-82462475D01*
X118122931Y-82462475D02*
X118265788Y-82510094D01*
X118599122Y-82462475D02*
X119218169Y-82462475D01*
X119218169Y-82462475D02*
X118884836Y-82843427D01*
X118884836Y-82843427D02*
X119027693Y-82843427D01*
X119027693Y-82843427D02*
X119122931Y-82891046D01*
X119122931Y-82891046D02*
X119170550Y-82938665D01*
X119170550Y-82938665D02*
X119218169Y-83033903D01*
X119218169Y-83033903D02*
X119218169Y-83271998D01*
X119218169Y-83271998D02*
X119170550Y-83367236D01*
X119170550Y-83367236D02*
X119122931Y-83414856D01*
X119122931Y-83414856D02*
X119027693Y-83462475D01*
X119027693Y-83462475D02*
X118741979Y-83462475D01*
X118741979Y-83462475D02*
X118646741Y-83414856D01*
X118646741Y-83414856D02*
X118599122Y-83367236D01*
X119599122Y-82557713D02*
X119646741Y-82510094D01*
X119646741Y-82510094D02*
X119741979Y-82462475D01*
X119741979Y-82462475D02*
X119980074Y-82462475D01*
X119980074Y-82462475D02*
X120075312Y-82510094D01*
X120075312Y-82510094D02*
X120122931Y-82557713D01*
X120122931Y-82557713D02*
X120170550Y-82652951D01*
X120170550Y-82652951D02*
X120170550Y-82748189D01*
X120170550Y-82748189D02*
X120122931Y-82891046D01*
X120122931Y-82891046D02*
X119551503Y-83462475D01*
X119551503Y-83462475D02*
X120170550Y-83462475D01*
X120503884Y-82462475D02*
X121122931Y-82462475D01*
X121122931Y-82462475D02*
X120789598Y-82843427D01*
X120789598Y-82843427D02*
X120932455Y-82843427D01*
X120932455Y-82843427D02*
X121027693Y-82891046D01*
X121027693Y-82891046D02*
X121075312Y-82938665D01*
X121075312Y-82938665D02*
X121122931Y-83033903D01*
X121122931Y-83033903D02*
X121122931Y-83271998D01*
X121122931Y-83271998D02*
X121075312Y-83367236D01*
X121075312Y-83367236D02*
X121027693Y-83414856D01*
X121027693Y-83414856D02*
X120932455Y-83462475D01*
X120932455Y-83462475D02*
X120646741Y-83462475D01*
X120646741Y-83462475D02*
X120551503Y-83414856D01*
X120551503Y-83414856D02*
X120503884Y-83367236D01*
X122075312Y-83462475D02*
X121503884Y-83462475D01*
X121789598Y-83462475D02*
X121789598Y-82462475D01*
X121789598Y-82462475D02*
X121694360Y-82605332D01*
X121694360Y-82605332D02*
X121599122Y-82700570D01*
X121599122Y-82700570D02*
X121503884Y-82748189D01*
X122503884Y-83462475D02*
X122503884Y-82462475D01*
X122503884Y-82462475D02*
X122837217Y-83176760D01*
X122837217Y-83176760D02*
X123170550Y-82462475D01*
X123170550Y-82462475D02*
X123170550Y-83462475D01*
X123551503Y-82462475D02*
X124218169Y-82462475D01*
X124218169Y-82462475D02*
X123551503Y-83462475D01*
X123551503Y-83462475D02*
X124218169Y-83462475D01*
X125789598Y-83462475D02*
X125789598Y-82938665D01*
X125789598Y-82938665D02*
X125741979Y-82843427D01*
X125741979Y-82843427D02*
X125646741Y-82795808D01*
X125646741Y-82795808D02*
X125456265Y-82795808D01*
X125456265Y-82795808D02*
X125361027Y-82843427D01*
X125789598Y-83414856D02*
X125694360Y-83462475D01*
X125694360Y-83462475D02*
X125456265Y-83462475D01*
X125456265Y-83462475D02*
X125361027Y-83414856D01*
X125361027Y-83414856D02*
X125313408Y-83319617D01*
X125313408Y-83319617D02*
X125313408Y-83224379D01*
X125313408Y-83224379D02*
X125361027Y-83129141D01*
X125361027Y-83129141D02*
X125456265Y-83081522D01*
X125456265Y-83081522D02*
X125694360Y-83081522D01*
X125694360Y-83081522D02*
X125789598Y-83033903D01*
X126265789Y-82795808D02*
X126265789Y-83462475D01*
X126265789Y-82891046D02*
X126313408Y-82843427D01*
X126313408Y-82843427D02*
X126408646Y-82795808D01*
X126408646Y-82795808D02*
X126551503Y-82795808D01*
X126551503Y-82795808D02*
X126646741Y-82843427D01*
X126646741Y-82843427D02*
X126694360Y-82938665D01*
X126694360Y-82938665D02*
X126694360Y-83462475D01*
X127599122Y-83462475D02*
X127599122Y-82462475D01*
X127599122Y-83414856D02*
X127503884Y-83462475D01*
X127503884Y-83462475D02*
X127313408Y-83462475D01*
X127313408Y-83462475D02*
X127218170Y-83414856D01*
X127218170Y-83414856D02*
X127170551Y-83367236D01*
X127170551Y-83367236D02*
X127122932Y-83271998D01*
X127122932Y-83271998D02*
X127122932Y-82986284D01*
X127122932Y-82986284D02*
X127170551Y-82891046D01*
X127170551Y-82891046D02*
X127218170Y-82843427D01*
X127218170Y-82843427D02*
X127313408Y-82795808D01*
X127313408Y-82795808D02*
X127503884Y-82795808D01*
X127503884Y-82795808D02*
X127599122Y-82843427D01*
X113503884Y-85072419D02*
X113503884Y-84405752D01*
X113503884Y-84072419D02*
X113456265Y-84120038D01*
X113456265Y-84120038D02*
X113503884Y-84167657D01*
X113503884Y-84167657D02*
X113551503Y-84120038D01*
X113551503Y-84120038D02*
X113503884Y-84072419D01*
X113503884Y-84072419D02*
X113503884Y-84167657D01*
X113837217Y-84405752D02*
X114218169Y-84405752D01*
X113980074Y-84072419D02*
X113980074Y-84929561D01*
X113980074Y-84929561D02*
X114027693Y-85024800D01*
X114027693Y-85024800D02*
X114122931Y-85072419D01*
X114122931Y-85072419D02*
X114218169Y-85072419D01*
X114503884Y-85024800D02*
X114599122Y-85072419D01*
X114599122Y-85072419D02*
X114789598Y-85072419D01*
X114789598Y-85072419D02*
X114884836Y-85024800D01*
X114884836Y-85024800D02*
X114932455Y-84929561D01*
X114932455Y-84929561D02*
X114932455Y-84881942D01*
X114932455Y-84881942D02*
X114884836Y-84786704D01*
X114884836Y-84786704D02*
X114789598Y-84739085D01*
X114789598Y-84739085D02*
X114646741Y-84739085D01*
X114646741Y-84739085D02*
X114551503Y-84691466D01*
X114551503Y-84691466D02*
X114503884Y-84596228D01*
X114503884Y-84596228D02*
X114503884Y-84548609D01*
X114503884Y-84548609D02*
X114551503Y-84453371D01*
X114551503Y-84453371D02*
X114646741Y-84405752D01*
X114646741Y-84405752D02*
X114789598Y-84405752D01*
X114789598Y-84405752D02*
X114884836Y-84453371D01*
X115980075Y-84405752D02*
X116361027Y-84405752D01*
X116122932Y-85072419D02*
X116122932Y-84215276D01*
X116122932Y-84215276D02*
X116170551Y-84120038D01*
X116170551Y-84120038D02*
X116265789Y-84072419D01*
X116265789Y-84072419D02*
X116361027Y-84072419D01*
X116837218Y-85072419D02*
X116741980Y-85024800D01*
X116741980Y-85024800D02*
X116694361Y-84977180D01*
X116694361Y-84977180D02*
X116646742Y-84881942D01*
X116646742Y-84881942D02*
X116646742Y-84596228D01*
X116646742Y-84596228D02*
X116694361Y-84500990D01*
X116694361Y-84500990D02*
X116741980Y-84453371D01*
X116741980Y-84453371D02*
X116837218Y-84405752D01*
X116837218Y-84405752D02*
X116980075Y-84405752D01*
X116980075Y-84405752D02*
X117075313Y-84453371D01*
X117075313Y-84453371D02*
X117122932Y-84500990D01*
X117122932Y-84500990D02*
X117170551Y-84596228D01*
X117170551Y-84596228D02*
X117170551Y-84881942D01*
X117170551Y-84881942D02*
X117122932Y-84977180D01*
X117122932Y-84977180D02*
X117075313Y-85024800D01*
X117075313Y-85024800D02*
X116980075Y-85072419D01*
X116980075Y-85072419D02*
X116837218Y-85072419D01*
X118027694Y-84405752D02*
X118027694Y-85072419D01*
X117599123Y-84405752D02*
X117599123Y-84929561D01*
X117599123Y-84929561D02*
X117646742Y-85024800D01*
X117646742Y-85024800D02*
X117741980Y-85072419D01*
X117741980Y-85072419D02*
X117884837Y-85072419D01*
X117884837Y-85072419D02*
X117980075Y-85024800D01*
X117980075Y-85024800D02*
X118027694Y-84977180D01*
X118503885Y-85072419D02*
X118503885Y-84405752D01*
X118503885Y-84596228D02*
X118551504Y-84500990D01*
X118551504Y-84500990D02*
X118599123Y-84453371D01*
X118599123Y-84453371D02*
X118694361Y-84405752D01*
X118694361Y-84405752D02*
X118789599Y-84405752D01*
X120027695Y-85072419D02*
X119932457Y-85024800D01*
X119932457Y-85024800D02*
X119884838Y-84929561D01*
X119884838Y-84929561D02*
X119884838Y-84072419D01*
X120837219Y-85072419D02*
X120837219Y-84548609D01*
X120837219Y-84548609D02*
X120789600Y-84453371D01*
X120789600Y-84453371D02*
X120694362Y-84405752D01*
X120694362Y-84405752D02*
X120503886Y-84405752D01*
X120503886Y-84405752D02*
X120408648Y-84453371D01*
X120837219Y-85024800D02*
X120741981Y-85072419D01*
X120741981Y-85072419D02*
X120503886Y-85072419D01*
X120503886Y-85072419D02*
X120408648Y-85024800D01*
X120408648Y-85024800D02*
X120361029Y-84929561D01*
X120361029Y-84929561D02*
X120361029Y-84834323D01*
X120361029Y-84834323D02*
X120408648Y-84739085D01*
X120408648Y-84739085D02*
X120503886Y-84691466D01*
X120503886Y-84691466D02*
X120741981Y-84691466D01*
X120741981Y-84691466D02*
X120837219Y-84643847D01*
X121741981Y-85024800D02*
X121646743Y-85072419D01*
X121646743Y-85072419D02*
X121456267Y-85072419D01*
X121456267Y-85072419D02*
X121361029Y-85024800D01*
X121361029Y-85024800D02*
X121313410Y-84977180D01*
X121313410Y-84977180D02*
X121265791Y-84881942D01*
X121265791Y-84881942D02*
X121265791Y-84596228D01*
X121265791Y-84596228D02*
X121313410Y-84500990D01*
X121313410Y-84500990D02*
X121361029Y-84453371D01*
X121361029Y-84453371D02*
X121456267Y-84405752D01*
X121456267Y-84405752D02*
X121646743Y-84405752D01*
X121646743Y-84405752D02*
X121741981Y-84453371D01*
X122170553Y-85072419D02*
X122170553Y-84072419D01*
X122265791Y-84691466D02*
X122551505Y-85072419D01*
X122551505Y-84405752D02*
X122170553Y-84786704D01*
X123361029Y-85024800D02*
X123265791Y-85072419D01*
X123265791Y-85072419D02*
X123075315Y-85072419D01*
X123075315Y-85072419D02*
X122980077Y-85024800D01*
X122980077Y-85024800D02*
X122932458Y-84929561D01*
X122932458Y-84929561D02*
X122932458Y-84548609D01*
X122932458Y-84548609D02*
X122980077Y-84453371D01*
X122980077Y-84453371D02*
X123075315Y-84405752D01*
X123075315Y-84405752D02*
X123265791Y-84405752D01*
X123265791Y-84405752D02*
X123361029Y-84453371D01*
X123361029Y-84453371D02*
X123408648Y-84548609D01*
X123408648Y-84548609D02*
X123408648Y-84643847D01*
X123408648Y-84643847D02*
X122932458Y-84739085D01*
X123741982Y-84405752D02*
X123980077Y-85072419D01*
X124218172Y-84405752D02*
X123980077Y-85072419D01*
X123980077Y-85072419D02*
X123884839Y-85310514D01*
X123884839Y-85310514D02*
X123837220Y-85358133D01*
X123837220Y-85358133D02*
X123741982Y-85405752D01*
X124551506Y-85024800D02*
X124646744Y-85072419D01*
X124646744Y-85072419D02*
X124837220Y-85072419D01*
X124837220Y-85072419D02*
X124932458Y-85024800D01*
X124932458Y-85024800D02*
X124980077Y-84929561D01*
X124980077Y-84929561D02*
X124980077Y-84881942D01*
X124980077Y-84881942D02*
X124932458Y-84786704D01*
X124932458Y-84786704D02*
X124837220Y-84739085D01*
X124837220Y-84739085D02*
X124694363Y-84739085D01*
X124694363Y-84739085D02*
X124599125Y-84691466D01*
X124599125Y-84691466D02*
X124551506Y-84596228D01*
X124551506Y-84596228D02*
X124551506Y-84548609D01*
X124551506Y-84548609D02*
X124599125Y-84453371D01*
X124599125Y-84453371D02*
X124694363Y-84405752D01*
X124694363Y-84405752D02*
X124837220Y-84405752D01*
X124837220Y-84405752D02*
X124932458Y-84453371D01*
D11*
X178093482Y-77314838D02*
X177998244Y-77267219D01*
X177998244Y-77267219D02*
X177855387Y-77267219D01*
X177855387Y-77267219D02*
X177712530Y-77314838D01*
X177712530Y-77314838D02*
X177617292Y-77410076D01*
X177617292Y-77410076D02*
X177569673Y-77505314D01*
X177569673Y-77505314D02*
X177522054Y-77695790D01*
X177522054Y-77695790D02*
X177522054Y-77838647D01*
X177522054Y-77838647D02*
X177569673Y-78029123D01*
X177569673Y-78029123D02*
X177617292Y-78124361D01*
X177617292Y-78124361D02*
X177712530Y-78219600D01*
X177712530Y-78219600D02*
X177855387Y-78267219D01*
X177855387Y-78267219D02*
X177950625Y-78267219D01*
X177950625Y-78267219D02*
X178093482Y-78219600D01*
X178093482Y-78219600D02*
X178141101Y-78171980D01*
X178141101Y-78171980D02*
X178141101Y-77838647D01*
X178141101Y-77838647D02*
X177950625Y-77838647D01*
X178569673Y-78267219D02*
X178569673Y-77267219D01*
X178569673Y-77267219D02*
X179141101Y-78267219D01*
X179141101Y-78267219D02*
X179141101Y-77267219D01*
X179617292Y-78267219D02*
X179617292Y-77267219D01*
X179617292Y-77267219D02*
X179855387Y-77267219D01*
X179855387Y-77267219D02*
X179998244Y-77314838D01*
X179998244Y-77314838D02*
X180093482Y-77410076D01*
X180093482Y-77410076D02*
X180141101Y-77505314D01*
X180141101Y-77505314D02*
X180188720Y-77695790D01*
X180188720Y-77695790D02*
X180188720Y-77838647D01*
X180188720Y-77838647D02*
X180141101Y-78029123D01*
X180141101Y-78029123D02*
X180093482Y-78124361D01*
X180093482Y-78124361D02*
X179998244Y-78219600D01*
X179998244Y-78219600D02*
X179855387Y-78267219D01*
X179855387Y-78267219D02*
X179617292Y-78267219D01*
X177674435Y-79867219D02*
X178293482Y-79867219D01*
X178293482Y-79867219D02*
X177960149Y-80248171D01*
X177960149Y-80248171D02*
X178103006Y-80248171D01*
X178103006Y-80248171D02*
X178198244Y-80295790D01*
X178198244Y-80295790D02*
X178245863Y-80343409D01*
X178245863Y-80343409D02*
X178293482Y-80438647D01*
X178293482Y-80438647D02*
X178293482Y-80676742D01*
X178293482Y-80676742D02*
X178245863Y-80771980D01*
X178245863Y-80771980D02*
X178198244Y-80819600D01*
X178198244Y-80819600D02*
X178103006Y-80867219D01*
X178103006Y-80867219D02*
X177817292Y-80867219D01*
X177817292Y-80867219D02*
X177722054Y-80819600D01*
X177722054Y-80819600D02*
X177674435Y-80771980D01*
X178579197Y-79867219D02*
X178912530Y-80867219D01*
X178912530Y-80867219D02*
X179245863Y-79867219D01*
X179483959Y-79867219D02*
X180103006Y-79867219D01*
X180103006Y-79867219D02*
X179769673Y-80248171D01*
X179769673Y-80248171D02*
X179912530Y-80248171D01*
X179912530Y-80248171D02*
X180007768Y-80295790D01*
X180007768Y-80295790D02*
X180055387Y-80343409D01*
X180055387Y-80343409D02*
X180103006Y-80438647D01*
X180103006Y-80438647D02*
X180103006Y-80676742D01*
X180103006Y-80676742D02*
X180055387Y-80771980D01*
X180055387Y-80771980D02*
X180007768Y-80819600D01*
X180007768Y-80819600D02*
X179912530Y-80867219D01*
X179912530Y-80867219D02*
X179626816Y-80867219D01*
X179626816Y-80867219D02*
X179531578Y-80819600D01*
X179531578Y-80819600D02*
X179483959Y-80771980D01*
X177969673Y-83267219D02*
X177969673Y-82267219D01*
X178636339Y-82267219D02*
X178826815Y-82267219D01*
X178826815Y-82267219D02*
X178922053Y-82314838D01*
X178922053Y-82314838D02*
X179017291Y-82410076D01*
X179017291Y-82410076D02*
X179064910Y-82600552D01*
X179064910Y-82600552D02*
X179064910Y-82933885D01*
X179064910Y-82933885D02*
X179017291Y-83124361D01*
X179017291Y-83124361D02*
X178922053Y-83219600D01*
X178922053Y-83219600D02*
X178826815Y-83267219D01*
X178826815Y-83267219D02*
X178636339Y-83267219D01*
X178636339Y-83267219D02*
X178541101Y-83219600D01*
X178541101Y-83219600D02*
X178445863Y-83124361D01*
X178445863Y-83124361D02*
X178398244Y-82933885D01*
X178398244Y-82933885D02*
X178398244Y-82600552D01*
X178398244Y-82600552D02*
X178445863Y-82410076D01*
X178445863Y-82410076D02*
X178541101Y-82314838D01*
X178541101Y-82314838D02*
X178636339Y-82267219D01*
X180017291Y-83267219D02*
X179445863Y-83267219D01*
X179731577Y-83267219D02*
X179731577Y-82267219D01*
X179731577Y-82267219D02*
X179636339Y-82410076D01*
X179636339Y-82410076D02*
X179541101Y-82505314D01*
X179541101Y-82505314D02*
X179445863Y-82552933D01*
X177969673Y-85867219D02*
X177969673Y-84867219D01*
X178636339Y-84867219D02*
X178826815Y-84867219D01*
X178826815Y-84867219D02*
X178922053Y-84914838D01*
X178922053Y-84914838D02*
X179017291Y-85010076D01*
X179017291Y-85010076D02*
X179064910Y-85200552D01*
X179064910Y-85200552D02*
X179064910Y-85533885D01*
X179064910Y-85533885D02*
X179017291Y-85724361D01*
X179017291Y-85724361D02*
X178922053Y-85819600D01*
X178922053Y-85819600D02*
X178826815Y-85867219D01*
X178826815Y-85867219D02*
X178636339Y-85867219D01*
X178636339Y-85867219D02*
X178541101Y-85819600D01*
X178541101Y-85819600D02*
X178445863Y-85724361D01*
X178445863Y-85724361D02*
X178398244Y-85533885D01*
X178398244Y-85533885D02*
X178398244Y-85200552D01*
X178398244Y-85200552D02*
X178445863Y-85010076D01*
X178445863Y-85010076D02*
X178541101Y-84914838D01*
X178541101Y-84914838D02*
X178636339Y-84867219D01*
X179445863Y-84962457D02*
X179493482Y-84914838D01*
X179493482Y-84914838D02*
X179588720Y-84867219D01*
X179588720Y-84867219D02*
X179826815Y-84867219D01*
X179826815Y-84867219D02*
X179922053Y-84914838D01*
X179922053Y-84914838D02*
X179969672Y-84962457D01*
X179969672Y-84962457D02*
X180017291Y-85057695D01*
X180017291Y-85057695D02*
X180017291Y-85152933D01*
X180017291Y-85152933D02*
X179969672Y-85295790D01*
X179969672Y-85295790D02*
X179398244Y-85867219D01*
X179398244Y-85867219D02*
X180017291Y-85867219D01*
X177969673Y-88467219D02*
X177969673Y-87467219D01*
X178636339Y-87467219D02*
X178826815Y-87467219D01*
X178826815Y-87467219D02*
X178922053Y-87514838D01*
X178922053Y-87514838D02*
X179017291Y-87610076D01*
X179017291Y-87610076D02*
X179064910Y-87800552D01*
X179064910Y-87800552D02*
X179064910Y-88133885D01*
X179064910Y-88133885D02*
X179017291Y-88324361D01*
X179017291Y-88324361D02*
X178922053Y-88419600D01*
X178922053Y-88419600D02*
X178826815Y-88467219D01*
X178826815Y-88467219D02*
X178636339Y-88467219D01*
X178636339Y-88467219D02*
X178541101Y-88419600D01*
X178541101Y-88419600D02*
X178445863Y-88324361D01*
X178445863Y-88324361D02*
X178398244Y-88133885D01*
X178398244Y-88133885D02*
X178398244Y-87800552D01*
X178398244Y-87800552D02*
X178445863Y-87610076D01*
X178445863Y-87610076D02*
X178541101Y-87514838D01*
X178541101Y-87514838D02*
X178636339Y-87467219D01*
X179398244Y-87467219D02*
X180017291Y-87467219D01*
X180017291Y-87467219D02*
X179683958Y-87848171D01*
X179683958Y-87848171D02*
X179826815Y-87848171D01*
X179826815Y-87848171D02*
X179922053Y-87895790D01*
X179922053Y-87895790D02*
X179969672Y-87943409D01*
X179969672Y-87943409D02*
X180017291Y-88038647D01*
X180017291Y-88038647D02*
X180017291Y-88276742D01*
X180017291Y-88276742D02*
X179969672Y-88371980D01*
X179969672Y-88371980D02*
X179922053Y-88419600D01*
X179922053Y-88419600D02*
X179826815Y-88467219D01*
X179826815Y-88467219D02*
X179541101Y-88467219D01*
X179541101Y-88467219D02*
X179445863Y-88419600D01*
X179445863Y-88419600D02*
X179398244Y-88371980D01*
X177969673Y-91067219D02*
X177969673Y-90067219D01*
X178636339Y-90067219D02*
X178826815Y-90067219D01*
X178826815Y-90067219D02*
X178922053Y-90114838D01*
X178922053Y-90114838D02*
X179017291Y-90210076D01*
X179017291Y-90210076D02*
X179064910Y-90400552D01*
X179064910Y-90400552D02*
X179064910Y-90733885D01*
X179064910Y-90733885D02*
X179017291Y-90924361D01*
X179017291Y-90924361D02*
X178922053Y-91019600D01*
X178922053Y-91019600D02*
X178826815Y-91067219D01*
X178826815Y-91067219D02*
X178636339Y-91067219D01*
X178636339Y-91067219D02*
X178541101Y-91019600D01*
X178541101Y-91019600D02*
X178445863Y-90924361D01*
X178445863Y-90924361D02*
X178398244Y-90733885D01*
X178398244Y-90733885D02*
X178398244Y-90400552D01*
X178398244Y-90400552D02*
X178445863Y-90210076D01*
X178445863Y-90210076D02*
X178541101Y-90114838D01*
X178541101Y-90114838D02*
X178636339Y-90067219D01*
X179922053Y-90400552D02*
X179922053Y-91067219D01*
X179683958Y-90019600D02*
X179445863Y-90733885D01*
X179445863Y-90733885D02*
X180064910Y-90733885D01*
X177969673Y-93667219D02*
X177969673Y-92667219D01*
X178636339Y-92667219D02*
X178826815Y-92667219D01*
X178826815Y-92667219D02*
X178922053Y-92714838D01*
X178922053Y-92714838D02*
X179017291Y-92810076D01*
X179017291Y-92810076D02*
X179064910Y-93000552D01*
X179064910Y-93000552D02*
X179064910Y-93333885D01*
X179064910Y-93333885D02*
X179017291Y-93524361D01*
X179017291Y-93524361D02*
X178922053Y-93619600D01*
X178922053Y-93619600D02*
X178826815Y-93667219D01*
X178826815Y-93667219D02*
X178636339Y-93667219D01*
X178636339Y-93667219D02*
X178541101Y-93619600D01*
X178541101Y-93619600D02*
X178445863Y-93524361D01*
X178445863Y-93524361D02*
X178398244Y-93333885D01*
X178398244Y-93333885D02*
X178398244Y-93000552D01*
X178398244Y-93000552D02*
X178445863Y-92810076D01*
X178445863Y-92810076D02*
X178541101Y-92714838D01*
X178541101Y-92714838D02*
X178636339Y-92667219D01*
X179969672Y-92667219D02*
X179493482Y-92667219D01*
X179493482Y-92667219D02*
X179445863Y-93143409D01*
X179445863Y-93143409D02*
X179493482Y-93095790D01*
X179493482Y-93095790D02*
X179588720Y-93048171D01*
X179588720Y-93048171D02*
X179826815Y-93048171D01*
X179826815Y-93048171D02*
X179922053Y-93095790D01*
X179922053Y-93095790D02*
X179969672Y-93143409D01*
X179969672Y-93143409D02*
X180017291Y-93238647D01*
X180017291Y-93238647D02*
X180017291Y-93476742D01*
X180017291Y-93476742D02*
X179969672Y-93571980D01*
X179969672Y-93571980D02*
X179922053Y-93619600D01*
X179922053Y-93619600D02*
X179826815Y-93667219D01*
X179826815Y-93667219D02*
X179588720Y-93667219D01*
X179588720Y-93667219D02*
X179493482Y-93619600D01*
X179493482Y-93619600D02*
X179445863Y-93571980D01*
X177969673Y-96067219D02*
X177969673Y-95067219D01*
X178636339Y-95067219D02*
X178826815Y-95067219D01*
X178826815Y-95067219D02*
X178922053Y-95114838D01*
X178922053Y-95114838D02*
X179017291Y-95210076D01*
X179017291Y-95210076D02*
X179064910Y-95400552D01*
X179064910Y-95400552D02*
X179064910Y-95733885D01*
X179064910Y-95733885D02*
X179017291Y-95924361D01*
X179017291Y-95924361D02*
X178922053Y-96019600D01*
X178922053Y-96019600D02*
X178826815Y-96067219D01*
X178826815Y-96067219D02*
X178636339Y-96067219D01*
X178636339Y-96067219D02*
X178541101Y-96019600D01*
X178541101Y-96019600D02*
X178445863Y-95924361D01*
X178445863Y-95924361D02*
X178398244Y-95733885D01*
X178398244Y-95733885D02*
X178398244Y-95400552D01*
X178398244Y-95400552D02*
X178445863Y-95210076D01*
X178445863Y-95210076D02*
X178541101Y-95114838D01*
X178541101Y-95114838D02*
X178636339Y-95067219D01*
X179922053Y-95067219D02*
X179731577Y-95067219D01*
X179731577Y-95067219D02*
X179636339Y-95114838D01*
X179636339Y-95114838D02*
X179588720Y-95162457D01*
X179588720Y-95162457D02*
X179493482Y-95305314D01*
X179493482Y-95305314D02*
X179445863Y-95495790D01*
X179445863Y-95495790D02*
X179445863Y-95876742D01*
X179445863Y-95876742D02*
X179493482Y-95971980D01*
X179493482Y-95971980D02*
X179541101Y-96019600D01*
X179541101Y-96019600D02*
X179636339Y-96067219D01*
X179636339Y-96067219D02*
X179826815Y-96067219D01*
X179826815Y-96067219D02*
X179922053Y-96019600D01*
X179922053Y-96019600D02*
X179969672Y-95971980D01*
X179969672Y-95971980D02*
X180017291Y-95876742D01*
X180017291Y-95876742D02*
X180017291Y-95638647D01*
X180017291Y-95638647D02*
X179969672Y-95543409D01*
X179969672Y-95543409D02*
X179922053Y-95495790D01*
X179922053Y-95495790D02*
X179826815Y-95448171D01*
X179826815Y-95448171D02*
X179636339Y-95448171D01*
X179636339Y-95448171D02*
X179541101Y-95495790D01*
X179541101Y-95495790D02*
X179493482Y-95543409D01*
X179493482Y-95543409D02*
X179445863Y-95638647D01*
D12*
X167654819Y-107156666D02*
X167178628Y-107489999D01*
X167654819Y-107728094D02*
X166654819Y-107728094D01*
X166654819Y-107728094D02*
X166654819Y-107347142D01*
X166654819Y-107347142D02*
X166702438Y-107251904D01*
X166702438Y-107251904D02*
X166750057Y-107204285D01*
X166750057Y-107204285D02*
X166845295Y-107156666D01*
X166845295Y-107156666D02*
X166988152Y-107156666D01*
X166988152Y-107156666D02*
X167083390Y-107204285D01*
X167083390Y-107204285D02*
X167131009Y-107251904D01*
X167131009Y-107251904D02*
X167178628Y-107347142D01*
X167178628Y-107347142D02*
X167178628Y-107728094D01*
X167083390Y-106585237D02*
X167035771Y-106680475D01*
X167035771Y-106680475D02*
X166988152Y-106728094D01*
X166988152Y-106728094D02*
X166892914Y-106775713D01*
X166892914Y-106775713D02*
X166845295Y-106775713D01*
X166845295Y-106775713D02*
X166750057Y-106728094D01*
X166750057Y-106728094D02*
X166702438Y-106680475D01*
X166702438Y-106680475D02*
X166654819Y-106585237D01*
X166654819Y-106585237D02*
X166654819Y-106394761D01*
X166654819Y-106394761D02*
X166702438Y-106299523D01*
X166702438Y-106299523D02*
X166750057Y-106251904D01*
X166750057Y-106251904D02*
X166845295Y-106204285D01*
X166845295Y-106204285D02*
X166892914Y-106204285D01*
X166892914Y-106204285D02*
X166988152Y-106251904D01*
X166988152Y-106251904D02*
X167035771Y-106299523D01*
X167035771Y-106299523D02*
X167083390Y-106394761D01*
X167083390Y-106394761D02*
X167083390Y-106585237D01*
X167083390Y-106585237D02*
X167131009Y-106680475D01*
X167131009Y-106680475D02*
X167178628Y-106728094D01*
X167178628Y-106728094D02*
X167273866Y-106775713D01*
X167273866Y-106775713D02*
X167464342Y-106775713D01*
X167464342Y-106775713D02*
X167559580Y-106728094D01*
X167559580Y-106728094D02*
X167607200Y-106680475D01*
X167607200Y-106680475D02*
X167654819Y-106585237D01*
X167654819Y-106585237D02*
X167654819Y-106394761D01*
X167654819Y-106394761D02*
X167607200Y-106299523D01*
X167607200Y-106299523D02*
X167559580Y-106251904D01*
X167559580Y-106251904D02*
X167464342Y-106204285D01*
X167464342Y-106204285D02*
X167273866Y-106204285D01*
X167273866Y-106204285D02*
X167178628Y-106251904D01*
X167178628Y-106251904D02*
X167131009Y-106299523D01*
X167131009Y-106299523D02*
X167083390Y-106394761D01*
X158333333Y-105354819D02*
X158000000Y-104878628D01*
X157761905Y-105354819D02*
X157761905Y-104354819D01*
X157761905Y-104354819D02*
X158142857Y-104354819D01*
X158142857Y-104354819D02*
X158238095Y-104402438D01*
X158238095Y-104402438D02*
X158285714Y-104450057D01*
X158285714Y-104450057D02*
X158333333Y-104545295D01*
X158333333Y-104545295D02*
X158333333Y-104688152D01*
X158333333Y-104688152D02*
X158285714Y-104783390D01*
X158285714Y-104783390D02*
X158238095Y-104831009D01*
X158238095Y-104831009D02*
X158142857Y-104878628D01*
X158142857Y-104878628D02*
X157761905Y-104878628D01*
X158666667Y-104354819D02*
X159285714Y-104354819D01*
X159285714Y-104354819D02*
X158952381Y-104735771D01*
X158952381Y-104735771D02*
X159095238Y-104735771D01*
X159095238Y-104735771D02*
X159190476Y-104783390D01*
X159190476Y-104783390D02*
X159238095Y-104831009D01*
X159238095Y-104831009D02*
X159285714Y-104926247D01*
X159285714Y-104926247D02*
X159285714Y-105164342D01*
X159285714Y-105164342D02*
X159238095Y-105259580D01*
X159238095Y-105259580D02*
X159190476Y-105307200D01*
X159190476Y-105307200D02*
X159095238Y-105354819D01*
X159095238Y-105354819D02*
X158809524Y-105354819D01*
X158809524Y-105354819D02*
X158714286Y-105307200D01*
X158714286Y-105307200D02*
X158666667Y-105259580D01*
X162254819Y-107166666D02*
X161778628Y-107499999D01*
X162254819Y-107738094D02*
X161254819Y-107738094D01*
X161254819Y-107738094D02*
X161254819Y-107357142D01*
X161254819Y-107357142D02*
X161302438Y-107261904D01*
X161302438Y-107261904D02*
X161350057Y-107214285D01*
X161350057Y-107214285D02*
X161445295Y-107166666D01*
X161445295Y-107166666D02*
X161588152Y-107166666D01*
X161588152Y-107166666D02*
X161683390Y-107214285D01*
X161683390Y-107214285D02*
X161731009Y-107261904D01*
X161731009Y-107261904D02*
X161778628Y-107357142D01*
X161778628Y-107357142D02*
X161778628Y-107738094D01*
X161254819Y-106833332D02*
X161254819Y-106166666D01*
X161254819Y-106166666D02*
X162254819Y-106595237D01*
X134933333Y-83954819D02*
X134600000Y-83478628D01*
X134361905Y-83954819D02*
X134361905Y-82954819D01*
X134361905Y-82954819D02*
X134742857Y-82954819D01*
X134742857Y-82954819D02*
X134838095Y-83002438D01*
X134838095Y-83002438D02*
X134885714Y-83050057D01*
X134885714Y-83050057D02*
X134933333Y-83145295D01*
X134933333Y-83145295D02*
X134933333Y-83288152D01*
X134933333Y-83288152D02*
X134885714Y-83383390D01*
X134885714Y-83383390D02*
X134838095Y-83431009D01*
X134838095Y-83431009D02*
X134742857Y-83478628D01*
X134742857Y-83478628D02*
X134361905Y-83478628D01*
X135790476Y-82954819D02*
X135600000Y-82954819D01*
X135600000Y-82954819D02*
X135504762Y-83002438D01*
X135504762Y-83002438D02*
X135457143Y-83050057D01*
X135457143Y-83050057D02*
X135361905Y-83192914D01*
X135361905Y-83192914D02*
X135314286Y-83383390D01*
X135314286Y-83383390D02*
X135314286Y-83764342D01*
X135314286Y-83764342D02*
X135361905Y-83859580D01*
X135361905Y-83859580D02*
X135409524Y-83907200D01*
X135409524Y-83907200D02*
X135504762Y-83954819D01*
X135504762Y-83954819D02*
X135695238Y-83954819D01*
X135695238Y-83954819D02*
X135790476Y-83907200D01*
X135790476Y-83907200D02*
X135838095Y-83859580D01*
X135838095Y-83859580D02*
X135885714Y-83764342D01*
X135885714Y-83764342D02*
X135885714Y-83526247D01*
X135885714Y-83526247D02*
X135838095Y-83431009D01*
X135838095Y-83431009D02*
X135790476Y-83383390D01*
X135790476Y-83383390D02*
X135695238Y-83335771D01*
X135695238Y-83335771D02*
X135504762Y-83335771D01*
X135504762Y-83335771D02*
X135409524Y-83383390D01*
X135409524Y-83383390D02*
X135361905Y-83431009D01*
X135361905Y-83431009D02*
X135314286Y-83526247D01*
X134933333Y-81554819D02*
X134600000Y-81078628D01*
X134361905Y-81554819D02*
X134361905Y-80554819D01*
X134361905Y-80554819D02*
X134742857Y-80554819D01*
X134742857Y-80554819D02*
X134838095Y-80602438D01*
X134838095Y-80602438D02*
X134885714Y-80650057D01*
X134885714Y-80650057D02*
X134933333Y-80745295D01*
X134933333Y-80745295D02*
X134933333Y-80888152D01*
X134933333Y-80888152D02*
X134885714Y-80983390D01*
X134885714Y-80983390D02*
X134838095Y-81031009D01*
X134838095Y-81031009D02*
X134742857Y-81078628D01*
X134742857Y-81078628D02*
X134361905Y-81078628D01*
X135838095Y-80554819D02*
X135361905Y-80554819D01*
X135361905Y-80554819D02*
X135314286Y-81031009D01*
X135314286Y-81031009D02*
X135361905Y-80983390D01*
X135361905Y-80983390D02*
X135457143Y-80935771D01*
X135457143Y-80935771D02*
X135695238Y-80935771D01*
X135695238Y-80935771D02*
X135790476Y-80983390D01*
X135790476Y-80983390D02*
X135838095Y-81031009D01*
X135838095Y-81031009D02*
X135885714Y-81126247D01*
X135885714Y-81126247D02*
X135885714Y-81364342D01*
X135885714Y-81364342D02*
X135838095Y-81459580D01*
X135838095Y-81459580D02*
X135790476Y-81507200D01*
X135790476Y-81507200D02*
X135695238Y-81554819D01*
X135695238Y-81554819D02*
X135457143Y-81554819D01*
X135457143Y-81554819D02*
X135361905Y-81507200D01*
X135361905Y-81507200D02*
X135314286Y-81459580D01*
X164833333Y-106054819D02*
X164500000Y-105578628D01*
X164261905Y-106054819D02*
X164261905Y-105054819D01*
X164261905Y-105054819D02*
X164642857Y-105054819D01*
X164642857Y-105054819D02*
X164738095Y-105102438D01*
X164738095Y-105102438D02*
X164785714Y-105150057D01*
X164785714Y-105150057D02*
X164833333Y-105245295D01*
X164833333Y-105245295D02*
X164833333Y-105388152D01*
X164833333Y-105388152D02*
X164785714Y-105483390D01*
X164785714Y-105483390D02*
X164738095Y-105531009D01*
X164738095Y-105531009D02*
X164642857Y-105578628D01*
X164642857Y-105578628D02*
X164261905Y-105578628D01*
X165690476Y-105388152D02*
X165690476Y-106054819D01*
X165452381Y-105007200D02*
X165214286Y-105721485D01*
X165214286Y-105721485D02*
X165833333Y-105721485D01*
X145861905Y-85054819D02*
X145861905Y-84054819D01*
X145861905Y-84054819D02*
X146100000Y-84054819D01*
X146100000Y-84054819D02*
X146242857Y-84102438D01*
X146242857Y-84102438D02*
X146338095Y-84197676D01*
X146338095Y-84197676D02*
X146385714Y-84292914D01*
X146385714Y-84292914D02*
X146433333Y-84483390D01*
X146433333Y-84483390D02*
X146433333Y-84626247D01*
X146433333Y-84626247D02*
X146385714Y-84816723D01*
X146385714Y-84816723D02*
X146338095Y-84911961D01*
X146338095Y-84911961D02*
X146242857Y-85007200D01*
X146242857Y-85007200D02*
X146100000Y-85054819D01*
X146100000Y-85054819D02*
X145861905Y-85054819D01*
X147290476Y-84388152D02*
X147290476Y-85054819D01*
X147052381Y-84007200D02*
X146814286Y-84721485D01*
X146814286Y-84721485D02*
X147433333Y-84721485D01*
X169238095Y-102054819D02*
X169238095Y-102864342D01*
X169238095Y-102864342D02*
X169285714Y-102959580D01*
X169285714Y-102959580D02*
X169333333Y-103007200D01*
X169333333Y-103007200D02*
X169428571Y-103054819D01*
X169428571Y-103054819D02*
X169619047Y-103054819D01*
X169619047Y-103054819D02*
X169714285Y-103007200D01*
X169714285Y-103007200D02*
X169761904Y-102959580D01*
X169761904Y-102959580D02*
X169809523Y-102864342D01*
X169809523Y-102864342D02*
X169809523Y-102054819D01*
X170190476Y-102054819D02*
X170809523Y-102054819D01*
X170809523Y-102054819D02*
X170476190Y-102435771D01*
X170476190Y-102435771D02*
X170619047Y-102435771D01*
X170619047Y-102435771D02*
X170714285Y-102483390D01*
X170714285Y-102483390D02*
X170761904Y-102531009D01*
X170761904Y-102531009D02*
X170809523Y-102626247D01*
X170809523Y-102626247D02*
X170809523Y-102864342D01*
X170809523Y-102864342D02*
X170761904Y-102959580D01*
X170761904Y-102959580D02*
X170714285Y-103007200D01*
X170714285Y-103007200D02*
X170619047Y-103054819D01*
X170619047Y-103054819D02*
X170333333Y-103054819D01*
X170333333Y-103054819D02*
X170238095Y-103007200D01*
X170238095Y-103007200D02*
X170190476Y-102959580D01*
X169959580Y-96842857D02*
X170007200Y-96890476D01*
X170007200Y-96890476D02*
X170054819Y-97033333D01*
X170054819Y-97033333D02*
X170054819Y-97128571D01*
X170054819Y-97128571D02*
X170007200Y-97271428D01*
X170007200Y-97271428D02*
X169911961Y-97366666D01*
X169911961Y-97366666D02*
X169816723Y-97414285D01*
X169816723Y-97414285D02*
X169626247Y-97461904D01*
X169626247Y-97461904D02*
X169483390Y-97461904D01*
X169483390Y-97461904D02*
X169292914Y-97414285D01*
X169292914Y-97414285D02*
X169197676Y-97366666D01*
X169197676Y-97366666D02*
X169102438Y-97271428D01*
X169102438Y-97271428D02*
X169054819Y-97128571D01*
X169054819Y-97128571D02*
X169054819Y-97033333D01*
X169054819Y-97033333D02*
X169102438Y-96890476D01*
X169102438Y-96890476D02*
X169150057Y-96842857D01*
X170054819Y-95890476D02*
X170054819Y-96461904D01*
X170054819Y-96176190D02*
X169054819Y-96176190D01*
X169054819Y-96176190D02*
X169197676Y-96271428D01*
X169197676Y-96271428D02*
X169292914Y-96366666D01*
X169292914Y-96366666D02*
X169340533Y-96461904D01*
X169054819Y-95033333D02*
X169054819Y-95223809D01*
X169054819Y-95223809D02*
X169102438Y-95319047D01*
X169102438Y-95319047D02*
X169150057Y-95366666D01*
X169150057Y-95366666D02*
X169292914Y-95461904D01*
X169292914Y-95461904D02*
X169483390Y-95509523D01*
X169483390Y-95509523D02*
X169864342Y-95509523D01*
X169864342Y-95509523D02*
X169959580Y-95461904D01*
X169959580Y-95461904D02*
X170007200Y-95414285D01*
X170007200Y-95414285D02*
X170054819Y-95319047D01*
X170054819Y-95319047D02*
X170054819Y-95128571D01*
X170054819Y-95128571D02*
X170007200Y-95033333D01*
X170007200Y-95033333D02*
X169959580Y-94985714D01*
X169959580Y-94985714D02*
X169864342Y-94938095D01*
X169864342Y-94938095D02*
X169626247Y-94938095D01*
X169626247Y-94938095D02*
X169531009Y-94985714D01*
X169531009Y-94985714D02*
X169483390Y-95033333D01*
X169483390Y-95033333D02*
X169435771Y-95128571D01*
X169435771Y-95128571D02*
X169435771Y-95319047D01*
X169435771Y-95319047D02*
X169483390Y-95414285D01*
X169483390Y-95414285D02*
X169531009Y-95461904D01*
X169531009Y-95461904D02*
X169626247Y-95509523D01*
X120740606Y-96883333D02*
X121454891Y-96883333D01*
X121454891Y-96883333D02*
X121597748Y-96930952D01*
X121597748Y-96930952D02*
X121692987Y-97026190D01*
X121692987Y-97026190D02*
X121740606Y-97169047D01*
X121740606Y-97169047D02*
X121740606Y-97264285D01*
X120740606Y-95930952D02*
X120740606Y-96407142D01*
X120740606Y-96407142D02*
X121216796Y-96454761D01*
X121216796Y-96454761D02*
X121169177Y-96407142D01*
X121169177Y-96407142D02*
X121121558Y-96311904D01*
X121121558Y-96311904D02*
X121121558Y-96073809D01*
X121121558Y-96073809D02*
X121169177Y-95978571D01*
X121169177Y-95978571D02*
X121216796Y-95930952D01*
X121216796Y-95930952D02*
X121312034Y-95883333D01*
X121312034Y-95883333D02*
X121550129Y-95883333D01*
X121550129Y-95883333D02*
X121645367Y-95930952D01*
X121645367Y-95930952D02*
X121692987Y-95978571D01*
X121692987Y-95978571D02*
X121740606Y-96073809D01*
X121740606Y-96073809D02*
X121740606Y-96311904D01*
X121740606Y-96311904D02*
X121692987Y-96407142D01*
X121692987Y-96407142D02*
X121645367Y-96454761D01*
X145233333Y-101159580D02*
X145185714Y-101207200D01*
X145185714Y-101207200D02*
X145042857Y-101254819D01*
X145042857Y-101254819D02*
X144947619Y-101254819D01*
X144947619Y-101254819D02*
X144804762Y-101207200D01*
X144804762Y-101207200D02*
X144709524Y-101111961D01*
X144709524Y-101111961D02*
X144661905Y-101016723D01*
X144661905Y-101016723D02*
X144614286Y-100826247D01*
X144614286Y-100826247D02*
X144614286Y-100683390D01*
X144614286Y-100683390D02*
X144661905Y-100492914D01*
X144661905Y-100492914D02*
X144709524Y-100397676D01*
X144709524Y-100397676D02*
X144804762Y-100302438D01*
X144804762Y-100302438D02*
X144947619Y-100254819D01*
X144947619Y-100254819D02*
X145042857Y-100254819D01*
X145042857Y-100254819D02*
X145185714Y-100302438D01*
X145185714Y-100302438D02*
X145233333Y-100350057D01*
X145566667Y-100254819D02*
X146233333Y-100254819D01*
X146233333Y-100254819D02*
X145804762Y-101254819D01*
X145861904Y-89754819D02*
X145861904Y-88754819D01*
X145861904Y-88754819D02*
X146099999Y-88754819D01*
X146099999Y-88754819D02*
X146242856Y-88802438D01*
X146242856Y-88802438D02*
X146338094Y-88897676D01*
X146338094Y-88897676D02*
X146385713Y-88992914D01*
X146385713Y-88992914D02*
X146433332Y-89183390D01*
X146433332Y-89183390D02*
X146433332Y-89326247D01*
X146433332Y-89326247D02*
X146385713Y-89516723D01*
X146385713Y-89516723D02*
X146338094Y-89611961D01*
X146338094Y-89611961D02*
X146242856Y-89707200D01*
X146242856Y-89707200D02*
X146099999Y-89754819D01*
X146099999Y-89754819D02*
X145861904Y-89754819D01*
X147338094Y-88754819D02*
X146861904Y-88754819D01*
X146861904Y-88754819D02*
X146814285Y-89231009D01*
X146814285Y-89231009D02*
X146861904Y-89183390D01*
X146861904Y-89183390D02*
X146957142Y-89135771D01*
X146957142Y-89135771D02*
X147195237Y-89135771D01*
X147195237Y-89135771D02*
X147290475Y-89183390D01*
X147290475Y-89183390D02*
X147338094Y-89231009D01*
X147338094Y-89231009D02*
X147385713Y-89326247D01*
X147385713Y-89326247D02*
X147385713Y-89564342D01*
X147385713Y-89564342D02*
X147338094Y-89659580D01*
X147338094Y-89659580D02*
X147290475Y-89707200D01*
X147290475Y-89707200D02*
X147195237Y-89754819D01*
X147195237Y-89754819D02*
X146957142Y-89754819D01*
X146957142Y-89754819D02*
X146861904Y-89707200D01*
X146861904Y-89707200D02*
X146814285Y-89659580D01*
X151954819Y-102738094D02*
X150954819Y-102738094D01*
X150954819Y-102738094D02*
X150954819Y-102499999D01*
X150954819Y-102499999D02*
X151002438Y-102357142D01*
X151002438Y-102357142D02*
X151097676Y-102261904D01*
X151097676Y-102261904D02*
X151192914Y-102214285D01*
X151192914Y-102214285D02*
X151383390Y-102166666D01*
X151383390Y-102166666D02*
X151526247Y-102166666D01*
X151526247Y-102166666D02*
X151716723Y-102214285D01*
X151716723Y-102214285D02*
X151811961Y-102261904D01*
X151811961Y-102261904D02*
X151907200Y-102357142D01*
X151907200Y-102357142D02*
X151954819Y-102499999D01*
X151954819Y-102499999D02*
X151954819Y-102738094D01*
X151954819Y-101214285D02*
X151954819Y-101785713D01*
X151954819Y-101499999D02*
X150954819Y-101499999D01*
X150954819Y-101499999D02*
X151097676Y-101595237D01*
X151097676Y-101595237D02*
X151192914Y-101690475D01*
X151192914Y-101690475D02*
X151240533Y-101785713D01*
X136644642Y-85409580D02*
X136597023Y-85457200D01*
X136597023Y-85457200D02*
X136454166Y-85504819D01*
X136454166Y-85504819D02*
X136358928Y-85504819D01*
X136358928Y-85504819D02*
X136216071Y-85457200D01*
X136216071Y-85457200D02*
X136120833Y-85361961D01*
X136120833Y-85361961D02*
X136073214Y-85266723D01*
X136073214Y-85266723D02*
X136025595Y-85076247D01*
X136025595Y-85076247D02*
X136025595Y-84933390D01*
X136025595Y-84933390D02*
X136073214Y-84742914D01*
X136073214Y-84742914D02*
X136120833Y-84647676D01*
X136120833Y-84647676D02*
X136216071Y-84552438D01*
X136216071Y-84552438D02*
X136358928Y-84504819D01*
X136358928Y-84504819D02*
X136454166Y-84504819D01*
X136454166Y-84504819D02*
X136597023Y-84552438D01*
X136597023Y-84552438D02*
X136644642Y-84600057D01*
X137597023Y-85504819D02*
X137025595Y-85504819D01*
X137311309Y-85504819D02*
X137311309Y-84504819D01*
X137311309Y-84504819D02*
X137216071Y-84647676D01*
X137216071Y-84647676D02*
X137120833Y-84742914D01*
X137120833Y-84742914D02*
X137025595Y-84790533D01*
X137930357Y-84504819D02*
X138549404Y-84504819D01*
X138549404Y-84504819D02*
X138216071Y-84885771D01*
X138216071Y-84885771D02*
X138358928Y-84885771D01*
X138358928Y-84885771D02*
X138454166Y-84933390D01*
X138454166Y-84933390D02*
X138501785Y-84981009D01*
X138501785Y-84981009D02*
X138549404Y-85076247D01*
X138549404Y-85076247D02*
X138549404Y-85314342D01*
X138549404Y-85314342D02*
X138501785Y-85409580D01*
X138501785Y-85409580D02*
X138454166Y-85457200D01*
X138454166Y-85457200D02*
X138358928Y-85504819D01*
X138358928Y-85504819D02*
X138073214Y-85504819D01*
X138073214Y-85504819D02*
X137977976Y-85457200D01*
X137977976Y-85457200D02*
X137930357Y-85409580D01*
X145233333Y-111579578D02*
X145185714Y-111627198D01*
X145185714Y-111627198D02*
X145042857Y-111674817D01*
X145042857Y-111674817D02*
X144947619Y-111674817D01*
X144947619Y-111674817D02*
X144804762Y-111627198D01*
X144804762Y-111627198D02*
X144709524Y-111531959D01*
X144709524Y-111531959D02*
X144661905Y-111436721D01*
X144661905Y-111436721D02*
X144614286Y-111246245D01*
X144614286Y-111246245D02*
X144614286Y-111103388D01*
X144614286Y-111103388D02*
X144661905Y-110912912D01*
X144661905Y-110912912D02*
X144709524Y-110817674D01*
X144709524Y-110817674D02*
X144804762Y-110722436D01*
X144804762Y-110722436D02*
X144947619Y-110674817D01*
X144947619Y-110674817D02*
X145042857Y-110674817D01*
X145042857Y-110674817D02*
X145185714Y-110722436D01*
X145185714Y-110722436D02*
X145233333Y-110770055D01*
X145566667Y-110674817D02*
X146185714Y-110674817D01*
X146185714Y-110674817D02*
X145852381Y-111055769D01*
X145852381Y-111055769D02*
X145995238Y-111055769D01*
X145995238Y-111055769D02*
X146090476Y-111103388D01*
X146090476Y-111103388D02*
X146138095Y-111151007D01*
X146138095Y-111151007D02*
X146185714Y-111246245D01*
X146185714Y-111246245D02*
X146185714Y-111484340D01*
X146185714Y-111484340D02*
X146138095Y-111579578D01*
X146138095Y-111579578D02*
X146090476Y-111627198D01*
X146090476Y-111627198D02*
X145995238Y-111674817D01*
X145995238Y-111674817D02*
X145709524Y-111674817D01*
X145709524Y-111674817D02*
X145614286Y-111627198D01*
X145614286Y-111627198D02*
X145566667Y-111579578D01*
X145233333Y-95959580D02*
X145185714Y-96007200D01*
X145185714Y-96007200D02*
X145042857Y-96054819D01*
X145042857Y-96054819D02*
X144947619Y-96054819D01*
X144947619Y-96054819D02*
X144804762Y-96007200D01*
X144804762Y-96007200D02*
X144709524Y-95911961D01*
X144709524Y-95911961D02*
X144661905Y-95816723D01*
X144661905Y-95816723D02*
X144614286Y-95626247D01*
X144614286Y-95626247D02*
X144614286Y-95483390D01*
X144614286Y-95483390D02*
X144661905Y-95292914D01*
X144661905Y-95292914D02*
X144709524Y-95197676D01*
X144709524Y-95197676D02*
X144804762Y-95102438D01*
X144804762Y-95102438D02*
X144947619Y-95054819D01*
X144947619Y-95054819D02*
X145042857Y-95054819D01*
X145042857Y-95054819D02*
X145185714Y-95102438D01*
X145185714Y-95102438D02*
X145233333Y-95150057D01*
X145709524Y-96054819D02*
X145900000Y-96054819D01*
X145900000Y-96054819D02*
X145995238Y-96007200D01*
X145995238Y-96007200D02*
X146042857Y-95959580D01*
X146042857Y-95959580D02*
X146138095Y-95816723D01*
X146138095Y-95816723D02*
X146185714Y-95626247D01*
X146185714Y-95626247D02*
X146185714Y-95245295D01*
X146185714Y-95245295D02*
X146138095Y-95150057D01*
X146138095Y-95150057D02*
X146090476Y-95102438D01*
X146090476Y-95102438D02*
X145995238Y-95054819D01*
X145995238Y-95054819D02*
X145804762Y-95054819D01*
X145804762Y-95054819D02*
X145709524Y-95102438D01*
X145709524Y-95102438D02*
X145661905Y-95150057D01*
X145661905Y-95150057D02*
X145614286Y-95245295D01*
X145614286Y-95245295D02*
X145614286Y-95483390D01*
X145614286Y-95483390D02*
X145661905Y-95578628D01*
X145661905Y-95578628D02*
X145709524Y-95626247D01*
X145709524Y-95626247D02*
X145804762Y-95673866D01*
X145804762Y-95673866D02*
X145995238Y-95673866D01*
X145995238Y-95673866D02*
X146090476Y-95626247D01*
X146090476Y-95626247D02*
X146138095Y-95578628D01*
X146138095Y-95578628D02*
X146185714Y-95483390D01*
X152559580Y-86842857D02*
X152607200Y-86890476D01*
X152607200Y-86890476D02*
X152654819Y-87033333D01*
X152654819Y-87033333D02*
X152654819Y-87128571D01*
X152654819Y-87128571D02*
X152607200Y-87271428D01*
X152607200Y-87271428D02*
X152511961Y-87366666D01*
X152511961Y-87366666D02*
X152416723Y-87414285D01*
X152416723Y-87414285D02*
X152226247Y-87461904D01*
X152226247Y-87461904D02*
X152083390Y-87461904D01*
X152083390Y-87461904D02*
X151892914Y-87414285D01*
X151892914Y-87414285D02*
X151797676Y-87366666D01*
X151797676Y-87366666D02*
X151702438Y-87271428D01*
X151702438Y-87271428D02*
X151654819Y-87128571D01*
X151654819Y-87128571D02*
X151654819Y-87033333D01*
X151654819Y-87033333D02*
X151702438Y-86890476D01*
X151702438Y-86890476D02*
X151750057Y-86842857D01*
X152654819Y-85890476D02*
X152654819Y-86461904D01*
X152654819Y-86176190D02*
X151654819Y-86176190D01*
X151654819Y-86176190D02*
X151797676Y-86271428D01*
X151797676Y-86271428D02*
X151892914Y-86366666D01*
X151892914Y-86366666D02*
X151940533Y-86461904D01*
X152654819Y-84938095D02*
X152654819Y-85509523D01*
X152654819Y-85223809D02*
X151654819Y-85223809D01*
X151654819Y-85223809D02*
X151797676Y-85319047D01*
X151797676Y-85319047D02*
X151892914Y-85414285D01*
X151892914Y-85414285D02*
X151940533Y-85509523D01*
X161869048Y-112454819D02*
X161869048Y-113264342D01*
X161869048Y-113264342D02*
X161916667Y-113359580D01*
X161916667Y-113359580D02*
X161964286Y-113407200D01*
X161964286Y-113407200D02*
X162059524Y-113454819D01*
X162059524Y-113454819D02*
X162250000Y-113454819D01*
X162250000Y-113454819D02*
X162345238Y-113407200D01*
X162345238Y-113407200D02*
X162392857Y-113359580D01*
X162392857Y-113359580D02*
X162440476Y-113264342D01*
X162440476Y-113264342D02*
X162440476Y-112454819D01*
X162869048Y-113407200D02*
X163011905Y-113454819D01*
X163011905Y-113454819D02*
X163250000Y-113454819D01*
X163250000Y-113454819D02*
X163345238Y-113407200D01*
X163345238Y-113407200D02*
X163392857Y-113359580D01*
X163392857Y-113359580D02*
X163440476Y-113264342D01*
X163440476Y-113264342D02*
X163440476Y-113169104D01*
X163440476Y-113169104D02*
X163392857Y-113073866D01*
X163392857Y-113073866D02*
X163345238Y-113026247D01*
X163345238Y-113026247D02*
X163250000Y-112978628D01*
X163250000Y-112978628D02*
X163059524Y-112931009D01*
X163059524Y-112931009D02*
X162964286Y-112883390D01*
X162964286Y-112883390D02*
X162916667Y-112835771D01*
X162916667Y-112835771D02*
X162869048Y-112740533D01*
X162869048Y-112740533D02*
X162869048Y-112645295D01*
X162869048Y-112645295D02*
X162916667Y-112550057D01*
X162916667Y-112550057D02*
X162964286Y-112502438D01*
X162964286Y-112502438D02*
X163059524Y-112454819D01*
X163059524Y-112454819D02*
X163297619Y-112454819D01*
X163297619Y-112454819D02*
X163440476Y-112502438D01*
X164202381Y-112931009D02*
X164345238Y-112978628D01*
X164345238Y-112978628D02*
X164392857Y-113026247D01*
X164392857Y-113026247D02*
X164440476Y-113121485D01*
X164440476Y-113121485D02*
X164440476Y-113264342D01*
X164440476Y-113264342D02*
X164392857Y-113359580D01*
X164392857Y-113359580D02*
X164345238Y-113407200D01*
X164345238Y-113407200D02*
X164250000Y-113454819D01*
X164250000Y-113454819D02*
X163869048Y-113454819D01*
X163869048Y-113454819D02*
X163869048Y-112454819D01*
X163869048Y-112454819D02*
X164202381Y-112454819D01*
X164202381Y-112454819D02*
X164297619Y-112502438D01*
X164297619Y-112502438D02*
X164345238Y-112550057D01*
X164345238Y-112550057D02*
X164392857Y-112645295D01*
X164392857Y-112645295D02*
X164392857Y-112740533D01*
X164392857Y-112740533D02*
X164345238Y-112835771D01*
X164345238Y-112835771D02*
X164297619Y-112883390D01*
X164297619Y-112883390D02*
X164202381Y-112931009D01*
X164202381Y-112931009D02*
X163869048Y-112931009D01*
X164869048Y-113073866D02*
X165630953Y-113073866D01*
X166678571Y-113359580D02*
X166630952Y-113407200D01*
X166630952Y-113407200D02*
X166488095Y-113454819D01*
X166488095Y-113454819D02*
X166392857Y-113454819D01*
X166392857Y-113454819D02*
X166250000Y-113407200D01*
X166250000Y-113407200D02*
X166154762Y-113311961D01*
X166154762Y-113311961D02*
X166107143Y-113216723D01*
X166107143Y-113216723D02*
X166059524Y-113026247D01*
X166059524Y-113026247D02*
X166059524Y-112883390D01*
X166059524Y-112883390D02*
X166107143Y-112692914D01*
X166107143Y-112692914D02*
X166154762Y-112597676D01*
X166154762Y-112597676D02*
X166250000Y-112502438D01*
X166250000Y-112502438D02*
X166392857Y-112454819D01*
X166392857Y-112454819D02*
X166488095Y-112454819D01*
X166488095Y-112454819D02*
X166630952Y-112502438D01*
X166630952Y-112502438D02*
X166678571Y-112550057D01*
X137992261Y-82800057D02*
X137897023Y-82752438D01*
X137897023Y-82752438D02*
X137801785Y-82657200D01*
X137801785Y-82657200D02*
X137658928Y-82514342D01*
X137658928Y-82514342D02*
X137563690Y-82466723D01*
X137563690Y-82466723D02*
X137468452Y-82466723D01*
X137516071Y-82704819D02*
X137420833Y-82657200D01*
X137420833Y-82657200D02*
X137325595Y-82561961D01*
X137325595Y-82561961D02*
X137277976Y-82371485D01*
X137277976Y-82371485D02*
X137277976Y-82038152D01*
X137277976Y-82038152D02*
X137325595Y-81847676D01*
X137325595Y-81847676D02*
X137420833Y-81752438D01*
X137420833Y-81752438D02*
X137516071Y-81704819D01*
X137516071Y-81704819D02*
X137706547Y-81704819D01*
X137706547Y-81704819D02*
X137801785Y-81752438D01*
X137801785Y-81752438D02*
X137897023Y-81847676D01*
X137897023Y-81847676D02*
X137944642Y-82038152D01*
X137944642Y-82038152D02*
X137944642Y-82371485D01*
X137944642Y-82371485D02*
X137897023Y-82561961D01*
X137897023Y-82561961D02*
X137801785Y-82657200D01*
X137801785Y-82657200D02*
X137706547Y-82704819D01*
X137706547Y-82704819D02*
X137516071Y-82704819D01*
X138897023Y-82704819D02*
X138325595Y-82704819D01*
X138611309Y-82704819D02*
X138611309Y-81704819D01*
X138611309Y-81704819D02*
X138516071Y-81847676D01*
X138516071Y-81847676D02*
X138420833Y-81942914D01*
X138420833Y-81942914D02*
X138325595Y-81990533D01*
X164954819Y-102738094D02*
X163954819Y-102738094D01*
X163954819Y-102738094D02*
X163954819Y-102499999D01*
X163954819Y-102499999D02*
X164002438Y-102357142D01*
X164002438Y-102357142D02*
X164097676Y-102261904D01*
X164097676Y-102261904D02*
X164192914Y-102214285D01*
X164192914Y-102214285D02*
X164383390Y-102166666D01*
X164383390Y-102166666D02*
X164526247Y-102166666D01*
X164526247Y-102166666D02*
X164716723Y-102214285D01*
X164716723Y-102214285D02*
X164811961Y-102261904D01*
X164811961Y-102261904D02*
X164907200Y-102357142D01*
X164907200Y-102357142D02*
X164954819Y-102499999D01*
X164954819Y-102499999D02*
X164954819Y-102738094D01*
X163954819Y-101833332D02*
X163954819Y-101214285D01*
X163954819Y-101214285D02*
X164335771Y-101547618D01*
X164335771Y-101547618D02*
X164335771Y-101404761D01*
X164335771Y-101404761D02*
X164383390Y-101309523D01*
X164383390Y-101309523D02*
X164431009Y-101261904D01*
X164431009Y-101261904D02*
X164526247Y-101214285D01*
X164526247Y-101214285D02*
X164764342Y-101214285D01*
X164764342Y-101214285D02*
X164859580Y-101261904D01*
X164859580Y-101261904D02*
X164907200Y-101309523D01*
X164907200Y-101309523D02*
X164954819Y-101404761D01*
X164954819Y-101404761D02*
X164954819Y-101690475D01*
X164954819Y-101690475D02*
X164907200Y-101785713D01*
X164907200Y-101785713D02*
X164859580Y-101833332D01*
X157238095Y-97454819D02*
X157238095Y-98264342D01*
X157238095Y-98264342D02*
X157285714Y-98359580D01*
X157285714Y-98359580D02*
X157333333Y-98407200D01*
X157333333Y-98407200D02*
X157428571Y-98454819D01*
X157428571Y-98454819D02*
X157619047Y-98454819D01*
X157619047Y-98454819D02*
X157714285Y-98407200D01*
X157714285Y-98407200D02*
X157761904Y-98359580D01*
X157761904Y-98359580D02*
X157809523Y-98264342D01*
X157809523Y-98264342D02*
X157809523Y-97454819D01*
X158238095Y-97550057D02*
X158285714Y-97502438D01*
X158285714Y-97502438D02*
X158380952Y-97454819D01*
X158380952Y-97454819D02*
X158619047Y-97454819D01*
X158619047Y-97454819D02*
X158714285Y-97502438D01*
X158714285Y-97502438D02*
X158761904Y-97550057D01*
X158761904Y-97550057D02*
X158809523Y-97645295D01*
X158809523Y-97645295D02*
X158809523Y-97740533D01*
X158809523Y-97740533D02*
X158761904Y-97883390D01*
X158761904Y-97883390D02*
X158190476Y-98454819D01*
X158190476Y-98454819D02*
X158809523Y-98454819D01*
X145233333Y-98559580D02*
X145185714Y-98607200D01*
X145185714Y-98607200D02*
X145042857Y-98654819D01*
X145042857Y-98654819D02*
X144947619Y-98654819D01*
X144947619Y-98654819D02*
X144804762Y-98607200D01*
X144804762Y-98607200D02*
X144709524Y-98511961D01*
X144709524Y-98511961D02*
X144661905Y-98416723D01*
X144661905Y-98416723D02*
X144614286Y-98226247D01*
X144614286Y-98226247D02*
X144614286Y-98083390D01*
X144614286Y-98083390D02*
X144661905Y-97892914D01*
X144661905Y-97892914D02*
X144709524Y-97797676D01*
X144709524Y-97797676D02*
X144804762Y-97702438D01*
X144804762Y-97702438D02*
X144947619Y-97654819D01*
X144947619Y-97654819D02*
X145042857Y-97654819D01*
X145042857Y-97654819D02*
X145185714Y-97702438D01*
X145185714Y-97702438D02*
X145233333Y-97750057D01*
X145804762Y-98083390D02*
X145709524Y-98035771D01*
X145709524Y-98035771D02*
X145661905Y-97988152D01*
X145661905Y-97988152D02*
X145614286Y-97892914D01*
X145614286Y-97892914D02*
X145614286Y-97845295D01*
X145614286Y-97845295D02*
X145661905Y-97750057D01*
X145661905Y-97750057D02*
X145709524Y-97702438D01*
X145709524Y-97702438D02*
X145804762Y-97654819D01*
X145804762Y-97654819D02*
X145995238Y-97654819D01*
X145995238Y-97654819D02*
X146090476Y-97702438D01*
X146090476Y-97702438D02*
X146138095Y-97750057D01*
X146138095Y-97750057D02*
X146185714Y-97845295D01*
X146185714Y-97845295D02*
X146185714Y-97892914D01*
X146185714Y-97892914D02*
X146138095Y-97988152D01*
X146138095Y-97988152D02*
X146090476Y-98035771D01*
X146090476Y-98035771D02*
X145995238Y-98083390D01*
X145995238Y-98083390D02*
X145804762Y-98083390D01*
X145804762Y-98083390D02*
X145709524Y-98131009D01*
X145709524Y-98131009D02*
X145661905Y-98178628D01*
X145661905Y-98178628D02*
X145614286Y-98273866D01*
X145614286Y-98273866D02*
X145614286Y-98464342D01*
X145614286Y-98464342D02*
X145661905Y-98559580D01*
X145661905Y-98559580D02*
X145709524Y-98607200D01*
X145709524Y-98607200D02*
X145804762Y-98654819D01*
X145804762Y-98654819D02*
X145995238Y-98654819D01*
X145995238Y-98654819D02*
X146090476Y-98607200D01*
X146090476Y-98607200D02*
X146138095Y-98559580D01*
X146138095Y-98559580D02*
X146185714Y-98464342D01*
X146185714Y-98464342D02*
X146185714Y-98273866D01*
X146185714Y-98273866D02*
X146138095Y-98178628D01*
X146138095Y-98178628D02*
X146090476Y-98131009D01*
X146090476Y-98131009D02*
X145995238Y-98083390D01*
X162464286Y-92331009D02*
X162797619Y-92331009D01*
X162940476Y-92854819D02*
X162464286Y-92854819D01*
X162464286Y-92854819D02*
X162464286Y-91854819D01*
X162464286Y-91854819D02*
X162940476Y-91854819D01*
X163321429Y-92807200D02*
X163464286Y-92854819D01*
X163464286Y-92854819D02*
X163702381Y-92854819D01*
X163702381Y-92854819D02*
X163797619Y-92807200D01*
X163797619Y-92807200D02*
X163845238Y-92759580D01*
X163845238Y-92759580D02*
X163892857Y-92664342D01*
X163892857Y-92664342D02*
X163892857Y-92569104D01*
X163892857Y-92569104D02*
X163845238Y-92473866D01*
X163845238Y-92473866D02*
X163797619Y-92426247D01*
X163797619Y-92426247D02*
X163702381Y-92378628D01*
X163702381Y-92378628D02*
X163511905Y-92331009D01*
X163511905Y-92331009D02*
X163416667Y-92283390D01*
X163416667Y-92283390D02*
X163369048Y-92235771D01*
X163369048Y-92235771D02*
X163321429Y-92140533D01*
X163321429Y-92140533D02*
X163321429Y-92045295D01*
X163321429Y-92045295D02*
X163369048Y-91950057D01*
X163369048Y-91950057D02*
X163416667Y-91902438D01*
X163416667Y-91902438D02*
X163511905Y-91854819D01*
X163511905Y-91854819D02*
X163750000Y-91854819D01*
X163750000Y-91854819D02*
X163892857Y-91902438D01*
X164321429Y-92854819D02*
X164321429Y-91854819D01*
X164321429Y-91854819D02*
X164702381Y-91854819D01*
X164702381Y-91854819D02*
X164797619Y-91902438D01*
X164797619Y-91902438D02*
X164845238Y-91950057D01*
X164845238Y-91950057D02*
X164892857Y-92045295D01*
X164892857Y-92045295D02*
X164892857Y-92188152D01*
X164892857Y-92188152D02*
X164845238Y-92283390D01*
X164845238Y-92283390D02*
X164797619Y-92331009D01*
X164797619Y-92331009D02*
X164702381Y-92378628D01*
X164702381Y-92378628D02*
X164321429Y-92378628D01*
X165226191Y-91854819D02*
X165845238Y-91854819D01*
X165845238Y-91854819D02*
X165511905Y-92235771D01*
X165511905Y-92235771D02*
X165654762Y-92235771D01*
X165654762Y-92235771D02*
X165750000Y-92283390D01*
X165750000Y-92283390D02*
X165797619Y-92331009D01*
X165797619Y-92331009D02*
X165845238Y-92426247D01*
X165845238Y-92426247D02*
X165845238Y-92664342D01*
X165845238Y-92664342D02*
X165797619Y-92759580D01*
X165797619Y-92759580D02*
X165750000Y-92807200D01*
X165750000Y-92807200D02*
X165654762Y-92854819D01*
X165654762Y-92854819D02*
X165369048Y-92854819D01*
X165369048Y-92854819D02*
X165273810Y-92807200D01*
X165273810Y-92807200D02*
X165226191Y-92759580D01*
X166226191Y-91950057D02*
X166273810Y-91902438D01*
X166273810Y-91902438D02*
X166369048Y-91854819D01*
X166369048Y-91854819D02*
X166607143Y-91854819D01*
X166607143Y-91854819D02*
X166702381Y-91902438D01*
X166702381Y-91902438D02*
X166750000Y-91950057D01*
X166750000Y-91950057D02*
X166797619Y-92045295D01*
X166797619Y-92045295D02*
X166797619Y-92140533D01*
X166797619Y-92140533D02*
X166750000Y-92283390D01*
X166750000Y-92283390D02*
X166178572Y-92854819D01*
X166178572Y-92854819D02*
X166797619Y-92854819D01*
X167940477Y-92807200D02*
X168083334Y-92854819D01*
X168083334Y-92854819D02*
X168321429Y-92854819D01*
X168321429Y-92854819D02*
X168416667Y-92807200D01*
X168416667Y-92807200D02*
X168464286Y-92759580D01*
X168464286Y-92759580D02*
X168511905Y-92664342D01*
X168511905Y-92664342D02*
X168511905Y-92569104D01*
X168511905Y-92569104D02*
X168464286Y-92473866D01*
X168464286Y-92473866D02*
X168416667Y-92426247D01*
X168416667Y-92426247D02*
X168321429Y-92378628D01*
X168321429Y-92378628D02*
X168130953Y-92331009D01*
X168130953Y-92331009D02*
X168035715Y-92283390D01*
X168035715Y-92283390D02*
X167988096Y-92235771D01*
X167988096Y-92235771D02*
X167940477Y-92140533D01*
X167940477Y-92140533D02*
X167940477Y-92045295D01*
X167940477Y-92045295D02*
X167988096Y-91950057D01*
X167988096Y-91950057D02*
X168035715Y-91902438D01*
X168035715Y-91902438D02*
X168130953Y-91854819D01*
X168130953Y-91854819D02*
X168369048Y-91854819D01*
X168369048Y-91854819D02*
X168511905Y-91902438D01*
X168845239Y-91854819D02*
X169464286Y-91854819D01*
X169464286Y-91854819D02*
X169130953Y-92235771D01*
X169130953Y-92235771D02*
X169273810Y-92235771D01*
X169273810Y-92235771D02*
X169369048Y-92283390D01*
X169369048Y-92283390D02*
X169416667Y-92331009D01*
X169416667Y-92331009D02*
X169464286Y-92426247D01*
X169464286Y-92426247D02*
X169464286Y-92664342D01*
X169464286Y-92664342D02*
X169416667Y-92759580D01*
X169416667Y-92759580D02*
X169369048Y-92807200D01*
X169369048Y-92807200D02*
X169273810Y-92854819D01*
X169273810Y-92854819D02*
X168988096Y-92854819D01*
X168988096Y-92854819D02*
X168892858Y-92807200D01*
X168892858Y-92807200D02*
X168845239Y-92759580D01*
X170654763Y-92854819D02*
X170654763Y-91854819D01*
X170654763Y-91854819D02*
X170988096Y-92569104D01*
X170988096Y-92569104D02*
X171321429Y-91854819D01*
X171321429Y-91854819D02*
X171321429Y-92854819D01*
X171797620Y-92854819D02*
X171797620Y-91854819D01*
X172273810Y-92854819D02*
X172273810Y-91854819D01*
X172273810Y-91854819D02*
X172845238Y-92854819D01*
X172845238Y-92854819D02*
X172845238Y-91854819D01*
X173321429Y-92854819D02*
X173321429Y-91854819D01*
X175083333Y-92854819D02*
X174511905Y-92854819D01*
X174797619Y-92854819D02*
X174797619Y-91854819D01*
X174797619Y-91854819D02*
X174702381Y-91997676D01*
X174702381Y-91997676D02*
X174607143Y-92092914D01*
X174607143Y-92092914D02*
X174511905Y-92140533D01*
X178447619Y-98454819D02*
X178447619Y-97454819D01*
X179114285Y-97454819D02*
X179304761Y-97454819D01*
X179304761Y-97454819D02*
X179399999Y-97502438D01*
X179399999Y-97502438D02*
X179495237Y-97597676D01*
X179495237Y-97597676D02*
X179542856Y-97788152D01*
X179542856Y-97788152D02*
X179542856Y-98121485D01*
X179542856Y-98121485D02*
X179495237Y-98311961D01*
X179495237Y-98311961D02*
X179399999Y-98407200D01*
X179399999Y-98407200D02*
X179304761Y-98454819D01*
X179304761Y-98454819D02*
X179114285Y-98454819D01*
X179114285Y-98454819D02*
X179019047Y-98407200D01*
X179019047Y-98407200D02*
X178923809Y-98311961D01*
X178923809Y-98311961D02*
X178876190Y-98121485D01*
X178876190Y-98121485D02*
X178876190Y-97788152D01*
X178876190Y-97788152D02*
X178923809Y-97597676D01*
X178923809Y-97597676D02*
X179019047Y-97502438D01*
X179019047Y-97502438D02*
X179114285Y-97454819D01*
X180733333Y-97788152D02*
X180733333Y-98788152D01*
X180733333Y-97835771D02*
X180828571Y-97788152D01*
X180828571Y-97788152D02*
X181019047Y-97788152D01*
X181019047Y-97788152D02*
X181114285Y-97835771D01*
X181114285Y-97835771D02*
X181161904Y-97883390D01*
X181161904Y-97883390D02*
X181209523Y-97978628D01*
X181209523Y-97978628D02*
X181209523Y-98264342D01*
X181209523Y-98264342D02*
X181161904Y-98359580D01*
X181161904Y-98359580D02*
X181114285Y-98407200D01*
X181114285Y-98407200D02*
X181019047Y-98454819D01*
X181019047Y-98454819D02*
X180828571Y-98454819D01*
X180828571Y-98454819D02*
X180733333Y-98407200D01*
X181638095Y-98454819D02*
X181638095Y-97788152D01*
X181638095Y-97454819D02*
X181590476Y-97502438D01*
X181590476Y-97502438D02*
X181638095Y-97550057D01*
X181638095Y-97550057D02*
X181685714Y-97502438D01*
X181685714Y-97502438D02*
X181638095Y-97454819D01*
X181638095Y-97454819D02*
X181638095Y-97550057D01*
X182114285Y-97788152D02*
X182114285Y-98454819D01*
X182114285Y-97883390D02*
X182161904Y-97835771D01*
X182161904Y-97835771D02*
X182257142Y-97788152D01*
X182257142Y-97788152D02*
X182399999Y-97788152D01*
X182399999Y-97788152D02*
X182495237Y-97835771D01*
X182495237Y-97835771D02*
X182542856Y-97931009D01*
X182542856Y-97931009D02*
X182542856Y-98454819D01*
X182971428Y-98407200D02*
X183066666Y-98454819D01*
X183066666Y-98454819D02*
X183257142Y-98454819D01*
X183257142Y-98454819D02*
X183352380Y-98407200D01*
X183352380Y-98407200D02*
X183399999Y-98311961D01*
X183399999Y-98311961D02*
X183399999Y-98264342D01*
X183399999Y-98264342D02*
X183352380Y-98169104D01*
X183352380Y-98169104D02*
X183257142Y-98121485D01*
X183257142Y-98121485D02*
X183114285Y-98121485D01*
X183114285Y-98121485D02*
X183019047Y-98073866D01*
X183019047Y-98073866D02*
X182971428Y-97978628D01*
X182971428Y-97978628D02*
X182971428Y-97931009D01*
X182971428Y-97931009D02*
X183019047Y-97835771D01*
X183019047Y-97835771D02*
X183114285Y-97788152D01*
X183114285Y-97788152D02*
X183257142Y-97788152D01*
X183257142Y-97788152D02*
X183352380Y-97835771D01*
X147861905Y-102854819D02*
X147861905Y-101854819D01*
X147861905Y-101854819D02*
X148100000Y-101854819D01*
X148100000Y-101854819D02*
X148242857Y-101902438D01*
X148242857Y-101902438D02*
X148338095Y-101997676D01*
X148338095Y-101997676D02*
X148385714Y-102092914D01*
X148385714Y-102092914D02*
X148433333Y-102283390D01*
X148433333Y-102283390D02*
X148433333Y-102426247D01*
X148433333Y-102426247D02*
X148385714Y-102616723D01*
X148385714Y-102616723D02*
X148338095Y-102711961D01*
X148338095Y-102711961D02*
X148242857Y-102807200D01*
X148242857Y-102807200D02*
X148100000Y-102854819D01*
X148100000Y-102854819D02*
X147861905Y-102854819D01*
X149290476Y-101854819D02*
X149100000Y-101854819D01*
X149100000Y-101854819D02*
X149004762Y-101902438D01*
X149004762Y-101902438D02*
X148957143Y-101950057D01*
X148957143Y-101950057D02*
X148861905Y-102092914D01*
X148861905Y-102092914D02*
X148814286Y-102283390D01*
X148814286Y-102283390D02*
X148814286Y-102664342D01*
X148814286Y-102664342D02*
X148861905Y-102759580D01*
X148861905Y-102759580D02*
X148909524Y-102807200D01*
X148909524Y-102807200D02*
X149004762Y-102854819D01*
X149004762Y-102854819D02*
X149195238Y-102854819D01*
X149195238Y-102854819D02*
X149290476Y-102807200D01*
X149290476Y-102807200D02*
X149338095Y-102759580D01*
X149338095Y-102759580D02*
X149385714Y-102664342D01*
X149385714Y-102664342D02*
X149385714Y-102426247D01*
X149385714Y-102426247D02*
X149338095Y-102331009D01*
X149338095Y-102331009D02*
X149290476Y-102283390D01*
X149290476Y-102283390D02*
X149195238Y-102235771D01*
X149195238Y-102235771D02*
X149004762Y-102235771D01*
X149004762Y-102235771D02*
X148909524Y-102283390D01*
X148909524Y-102283390D02*
X148861905Y-102331009D01*
X148861905Y-102331009D02*
X148814286Y-102426247D01*
X164759580Y-99642857D02*
X164807200Y-99690476D01*
X164807200Y-99690476D02*
X164854819Y-99833333D01*
X164854819Y-99833333D02*
X164854819Y-99928571D01*
X164854819Y-99928571D02*
X164807200Y-100071428D01*
X164807200Y-100071428D02*
X164711961Y-100166666D01*
X164711961Y-100166666D02*
X164616723Y-100214285D01*
X164616723Y-100214285D02*
X164426247Y-100261904D01*
X164426247Y-100261904D02*
X164283390Y-100261904D01*
X164283390Y-100261904D02*
X164092914Y-100214285D01*
X164092914Y-100214285D02*
X163997676Y-100166666D01*
X163997676Y-100166666D02*
X163902438Y-100071428D01*
X163902438Y-100071428D02*
X163854819Y-99928571D01*
X163854819Y-99928571D02*
X163854819Y-99833333D01*
X163854819Y-99833333D02*
X163902438Y-99690476D01*
X163902438Y-99690476D02*
X163950057Y-99642857D01*
X164854819Y-98690476D02*
X164854819Y-99261904D01*
X164854819Y-98976190D02*
X163854819Y-98976190D01*
X163854819Y-98976190D02*
X163997676Y-99071428D01*
X163997676Y-99071428D02*
X164092914Y-99166666D01*
X164092914Y-99166666D02*
X164140533Y-99261904D01*
X163854819Y-97785714D02*
X163854819Y-98261904D01*
X163854819Y-98261904D02*
X164331009Y-98309523D01*
X164331009Y-98309523D02*
X164283390Y-98261904D01*
X164283390Y-98261904D02*
X164235771Y-98166666D01*
X164235771Y-98166666D02*
X164235771Y-97928571D01*
X164235771Y-97928571D02*
X164283390Y-97833333D01*
X164283390Y-97833333D02*
X164331009Y-97785714D01*
X164331009Y-97785714D02*
X164426247Y-97738095D01*
X164426247Y-97738095D02*
X164664342Y-97738095D01*
X164664342Y-97738095D02*
X164759580Y-97785714D01*
X164759580Y-97785714D02*
X164807200Y-97833333D01*
X164807200Y-97833333D02*
X164854819Y-97928571D01*
X164854819Y-97928571D02*
X164854819Y-98166666D01*
X164854819Y-98166666D02*
X164807200Y-98261904D01*
X164807200Y-98261904D02*
X164759580Y-98309523D01*
X145233333Y-108979578D02*
X145185714Y-109027198D01*
X145185714Y-109027198D02*
X145042857Y-109074817D01*
X145042857Y-109074817D02*
X144947619Y-109074817D01*
X144947619Y-109074817D02*
X144804762Y-109027198D01*
X144804762Y-109027198D02*
X144709524Y-108931959D01*
X144709524Y-108931959D02*
X144661905Y-108836721D01*
X144661905Y-108836721D02*
X144614286Y-108646245D01*
X144614286Y-108646245D02*
X144614286Y-108503388D01*
X144614286Y-108503388D02*
X144661905Y-108312912D01*
X144661905Y-108312912D02*
X144709524Y-108217674D01*
X144709524Y-108217674D02*
X144804762Y-108122436D01*
X144804762Y-108122436D02*
X144947619Y-108074817D01*
X144947619Y-108074817D02*
X145042857Y-108074817D01*
X145042857Y-108074817D02*
X145185714Y-108122436D01*
X145185714Y-108122436D02*
X145233333Y-108170055D01*
X146090476Y-108408150D02*
X146090476Y-109074817D01*
X145852381Y-108027198D02*
X145614286Y-108741483D01*
X145614286Y-108741483D02*
X146233333Y-108741483D01*
X134357142Y-95879580D02*
X134309523Y-95927200D01*
X134309523Y-95927200D02*
X134166666Y-95974819D01*
X134166666Y-95974819D02*
X134071428Y-95974819D01*
X134071428Y-95974819D02*
X133928571Y-95927200D01*
X133928571Y-95927200D02*
X133833333Y-95831961D01*
X133833333Y-95831961D02*
X133785714Y-95736723D01*
X133785714Y-95736723D02*
X133738095Y-95546247D01*
X133738095Y-95546247D02*
X133738095Y-95403390D01*
X133738095Y-95403390D02*
X133785714Y-95212914D01*
X133785714Y-95212914D02*
X133833333Y-95117676D01*
X133833333Y-95117676D02*
X133928571Y-95022438D01*
X133928571Y-95022438D02*
X134071428Y-94974819D01*
X134071428Y-94974819D02*
X134166666Y-94974819D01*
X134166666Y-94974819D02*
X134309523Y-95022438D01*
X134309523Y-95022438D02*
X134357142Y-95070057D01*
X135309523Y-95974819D02*
X134738095Y-95974819D01*
X135023809Y-95974819D02*
X135023809Y-94974819D01*
X135023809Y-94974819D02*
X134928571Y-95117676D01*
X134928571Y-95117676D02*
X134833333Y-95212914D01*
X134833333Y-95212914D02*
X134738095Y-95260533D01*
X135928571Y-94974819D02*
X136023809Y-94974819D01*
X136023809Y-94974819D02*
X136119047Y-95022438D01*
X136119047Y-95022438D02*
X136166666Y-95070057D01*
X136166666Y-95070057D02*
X136214285Y-95165295D01*
X136214285Y-95165295D02*
X136261904Y-95355771D01*
X136261904Y-95355771D02*
X136261904Y-95593866D01*
X136261904Y-95593866D02*
X136214285Y-95784342D01*
X136214285Y-95784342D02*
X136166666Y-95879580D01*
X136166666Y-95879580D02*
X136119047Y-95927200D01*
X136119047Y-95927200D02*
X136023809Y-95974819D01*
X136023809Y-95974819D02*
X135928571Y-95974819D01*
X135928571Y-95974819D02*
X135833333Y-95927200D01*
X135833333Y-95927200D02*
X135785714Y-95879580D01*
X135785714Y-95879580D02*
X135738095Y-95784342D01*
X135738095Y-95784342D02*
X135690476Y-95593866D01*
X135690476Y-95593866D02*
X135690476Y-95355771D01*
X135690476Y-95355771D02*
X135738095Y-95165295D01*
X135738095Y-95165295D02*
X135785714Y-95070057D01*
X135785714Y-95070057D02*
X135833333Y-95022438D01*
X135833333Y-95022438D02*
X135928571Y-94974819D01*
X136644642Y-87609580D02*
X136597023Y-87657200D01*
X136597023Y-87657200D02*
X136454166Y-87704819D01*
X136454166Y-87704819D02*
X136358928Y-87704819D01*
X136358928Y-87704819D02*
X136216071Y-87657200D01*
X136216071Y-87657200D02*
X136120833Y-87561961D01*
X136120833Y-87561961D02*
X136073214Y-87466723D01*
X136073214Y-87466723D02*
X136025595Y-87276247D01*
X136025595Y-87276247D02*
X136025595Y-87133390D01*
X136025595Y-87133390D02*
X136073214Y-86942914D01*
X136073214Y-86942914D02*
X136120833Y-86847676D01*
X136120833Y-86847676D02*
X136216071Y-86752438D01*
X136216071Y-86752438D02*
X136358928Y-86704819D01*
X136358928Y-86704819D02*
X136454166Y-86704819D01*
X136454166Y-86704819D02*
X136597023Y-86752438D01*
X136597023Y-86752438D02*
X136644642Y-86800057D01*
X137597023Y-87704819D02*
X137025595Y-87704819D01*
X137311309Y-87704819D02*
X137311309Y-86704819D01*
X137311309Y-86704819D02*
X137216071Y-86847676D01*
X137216071Y-86847676D02*
X137120833Y-86942914D01*
X137120833Y-86942914D02*
X137025595Y-86990533D01*
X138454166Y-87038152D02*
X138454166Y-87704819D01*
X138216071Y-86657200D02*
X137977976Y-87371485D01*
X137977976Y-87371485D02*
X138597023Y-87371485D01*
X157833333Y-94679580D02*
X157785714Y-94727200D01*
X157785714Y-94727200D02*
X157642857Y-94774819D01*
X157642857Y-94774819D02*
X157547619Y-94774819D01*
X157547619Y-94774819D02*
X157404762Y-94727200D01*
X157404762Y-94727200D02*
X157309524Y-94631961D01*
X157309524Y-94631961D02*
X157261905Y-94536723D01*
X157261905Y-94536723D02*
X157214286Y-94346247D01*
X157214286Y-94346247D02*
X157214286Y-94203390D01*
X157214286Y-94203390D02*
X157261905Y-94012914D01*
X157261905Y-94012914D02*
X157309524Y-93917676D01*
X157309524Y-93917676D02*
X157404762Y-93822438D01*
X157404762Y-93822438D02*
X157547619Y-93774819D01*
X157547619Y-93774819D02*
X157642857Y-93774819D01*
X157642857Y-93774819D02*
X157785714Y-93822438D01*
X157785714Y-93822438D02*
X157833333Y-93870057D01*
X158214286Y-93870057D02*
X158261905Y-93822438D01*
X158261905Y-93822438D02*
X158357143Y-93774819D01*
X158357143Y-93774819D02*
X158595238Y-93774819D01*
X158595238Y-93774819D02*
X158690476Y-93822438D01*
X158690476Y-93822438D02*
X158738095Y-93870057D01*
X158738095Y-93870057D02*
X158785714Y-93965295D01*
X158785714Y-93965295D02*
X158785714Y-94060533D01*
X158785714Y-94060533D02*
X158738095Y-94203390D01*
X158738095Y-94203390D02*
X158166667Y-94774819D01*
X158166667Y-94774819D02*
X158785714Y-94774819D01*
X165761905Y-101954819D02*
X165761905Y-100954819D01*
X165761905Y-100954819D02*
X166000000Y-100954819D01*
X166000000Y-100954819D02*
X166142857Y-101002438D01*
X166142857Y-101002438D02*
X166238095Y-101097676D01*
X166238095Y-101097676D02*
X166285714Y-101192914D01*
X166285714Y-101192914D02*
X166333333Y-101383390D01*
X166333333Y-101383390D02*
X166333333Y-101526247D01*
X166333333Y-101526247D02*
X166285714Y-101716723D01*
X166285714Y-101716723D02*
X166238095Y-101811961D01*
X166238095Y-101811961D02*
X166142857Y-101907200D01*
X166142857Y-101907200D02*
X166000000Y-101954819D01*
X166000000Y-101954819D02*
X165761905Y-101954819D01*
X166714286Y-101050057D02*
X166761905Y-101002438D01*
X166761905Y-101002438D02*
X166857143Y-100954819D01*
X166857143Y-100954819D02*
X167095238Y-100954819D01*
X167095238Y-100954819D02*
X167190476Y-101002438D01*
X167190476Y-101002438D02*
X167238095Y-101050057D01*
X167238095Y-101050057D02*
X167285714Y-101145295D01*
X167285714Y-101145295D02*
X167285714Y-101240533D01*
X167285714Y-101240533D02*
X167238095Y-101383390D01*
X167238095Y-101383390D02*
X166666667Y-101954819D01*
X166666667Y-101954819D02*
X167285714Y-101954819D01*
X145233333Y-106379578D02*
X145185714Y-106427198D01*
X145185714Y-106427198D02*
X145042857Y-106474817D01*
X145042857Y-106474817D02*
X144947619Y-106474817D01*
X144947619Y-106474817D02*
X144804762Y-106427198D01*
X144804762Y-106427198D02*
X144709524Y-106331959D01*
X144709524Y-106331959D02*
X144661905Y-106236721D01*
X144661905Y-106236721D02*
X144614286Y-106046245D01*
X144614286Y-106046245D02*
X144614286Y-105903388D01*
X144614286Y-105903388D02*
X144661905Y-105712912D01*
X144661905Y-105712912D02*
X144709524Y-105617674D01*
X144709524Y-105617674D02*
X144804762Y-105522436D01*
X144804762Y-105522436D02*
X144947619Y-105474817D01*
X144947619Y-105474817D02*
X145042857Y-105474817D01*
X145042857Y-105474817D02*
X145185714Y-105522436D01*
X145185714Y-105522436D02*
X145233333Y-105570055D01*
X146138095Y-105474817D02*
X145661905Y-105474817D01*
X145661905Y-105474817D02*
X145614286Y-105951007D01*
X145614286Y-105951007D02*
X145661905Y-105903388D01*
X145661905Y-105903388D02*
X145757143Y-105855769D01*
X145757143Y-105855769D02*
X145995238Y-105855769D01*
X145995238Y-105855769D02*
X146090476Y-105903388D01*
X146090476Y-105903388D02*
X146138095Y-105951007D01*
X146138095Y-105951007D02*
X146185714Y-106046245D01*
X146185714Y-106046245D02*
X146185714Y-106284340D01*
X146185714Y-106284340D02*
X146138095Y-106379578D01*
X146138095Y-106379578D02*
X146090476Y-106427198D01*
X146090476Y-106427198D02*
X145995238Y-106474817D01*
X145995238Y-106474817D02*
X145757143Y-106474817D01*
X145757143Y-106474817D02*
X145661905Y-106427198D01*
X145661905Y-106427198D02*
X145614286Y-106379578D01*
X154233333Y-107359580D02*
X154185714Y-107407200D01*
X154185714Y-107407200D02*
X154042857Y-107454819D01*
X154042857Y-107454819D02*
X153947619Y-107454819D01*
X153947619Y-107454819D02*
X153804762Y-107407200D01*
X153804762Y-107407200D02*
X153709524Y-107311961D01*
X153709524Y-107311961D02*
X153661905Y-107216723D01*
X153661905Y-107216723D02*
X153614286Y-107026247D01*
X153614286Y-107026247D02*
X153614286Y-106883390D01*
X153614286Y-106883390D02*
X153661905Y-106692914D01*
X153661905Y-106692914D02*
X153709524Y-106597676D01*
X153709524Y-106597676D02*
X153804762Y-106502438D01*
X153804762Y-106502438D02*
X153947619Y-106454819D01*
X153947619Y-106454819D02*
X154042857Y-106454819D01*
X154042857Y-106454819D02*
X154185714Y-106502438D01*
X154185714Y-106502438D02*
X154233333Y-106550057D01*
X155185714Y-107454819D02*
X154614286Y-107454819D01*
X154900000Y-107454819D02*
X154900000Y-106454819D01*
X154900000Y-106454819D02*
X154804762Y-106597676D01*
X154804762Y-106597676D02*
X154709524Y-106692914D01*
X154709524Y-106692914D02*
X154614286Y-106740533D01*
X156359580Y-86842857D02*
X156407200Y-86890476D01*
X156407200Y-86890476D02*
X156454819Y-87033333D01*
X156454819Y-87033333D02*
X156454819Y-87128571D01*
X156454819Y-87128571D02*
X156407200Y-87271428D01*
X156407200Y-87271428D02*
X156311961Y-87366666D01*
X156311961Y-87366666D02*
X156216723Y-87414285D01*
X156216723Y-87414285D02*
X156026247Y-87461904D01*
X156026247Y-87461904D02*
X155883390Y-87461904D01*
X155883390Y-87461904D02*
X155692914Y-87414285D01*
X155692914Y-87414285D02*
X155597676Y-87366666D01*
X155597676Y-87366666D02*
X155502438Y-87271428D01*
X155502438Y-87271428D02*
X155454819Y-87128571D01*
X155454819Y-87128571D02*
X155454819Y-87033333D01*
X155454819Y-87033333D02*
X155502438Y-86890476D01*
X155502438Y-86890476D02*
X155550057Y-86842857D01*
X156454819Y-85890476D02*
X156454819Y-86461904D01*
X156454819Y-86176190D02*
X155454819Y-86176190D01*
X155454819Y-86176190D02*
X155597676Y-86271428D01*
X155597676Y-86271428D02*
X155692914Y-86366666D01*
X155692914Y-86366666D02*
X155740533Y-86461904D01*
X155550057Y-85509523D02*
X155502438Y-85461904D01*
X155502438Y-85461904D02*
X155454819Y-85366666D01*
X155454819Y-85366666D02*
X155454819Y-85128571D01*
X155454819Y-85128571D02*
X155502438Y-85033333D01*
X155502438Y-85033333D02*
X155550057Y-84985714D01*
X155550057Y-84985714D02*
X155645295Y-84938095D01*
X155645295Y-84938095D02*
X155740533Y-84938095D01*
X155740533Y-84938095D02*
X155883390Y-84985714D01*
X155883390Y-84985714D02*
X156454819Y-85557142D01*
X156454819Y-85557142D02*
X156454819Y-84938095D01*
X155333333Y-84404819D02*
X154857143Y-84404819D01*
X154857143Y-84404819D02*
X154857143Y-83404819D01*
X156190476Y-84404819D02*
X155619048Y-84404819D01*
X155904762Y-84404819D02*
X155904762Y-83404819D01*
X155904762Y-83404819D02*
X155809524Y-83547676D01*
X155809524Y-83547676D02*
X155714286Y-83642914D01*
X155714286Y-83642914D02*
X155619048Y-83690533D01*
X145233333Y-103779578D02*
X145185714Y-103827198D01*
X145185714Y-103827198D02*
X145042857Y-103874817D01*
X145042857Y-103874817D02*
X144947619Y-103874817D01*
X144947619Y-103874817D02*
X144804762Y-103827198D01*
X144804762Y-103827198D02*
X144709524Y-103731959D01*
X144709524Y-103731959D02*
X144661905Y-103636721D01*
X144661905Y-103636721D02*
X144614286Y-103446245D01*
X144614286Y-103446245D02*
X144614286Y-103303388D01*
X144614286Y-103303388D02*
X144661905Y-103112912D01*
X144661905Y-103112912D02*
X144709524Y-103017674D01*
X144709524Y-103017674D02*
X144804762Y-102922436D01*
X144804762Y-102922436D02*
X144947619Y-102874817D01*
X144947619Y-102874817D02*
X145042857Y-102874817D01*
X145042857Y-102874817D02*
X145185714Y-102922436D01*
X145185714Y-102922436D02*
X145233333Y-102970055D01*
X146090476Y-102874817D02*
X145900000Y-102874817D01*
X145900000Y-102874817D02*
X145804762Y-102922436D01*
X145804762Y-102922436D02*
X145757143Y-102970055D01*
X145757143Y-102970055D02*
X145661905Y-103112912D01*
X145661905Y-103112912D02*
X145614286Y-103303388D01*
X145614286Y-103303388D02*
X145614286Y-103684340D01*
X145614286Y-103684340D02*
X145661905Y-103779578D01*
X145661905Y-103779578D02*
X145709524Y-103827198D01*
X145709524Y-103827198D02*
X145804762Y-103874817D01*
X145804762Y-103874817D02*
X145995238Y-103874817D01*
X145995238Y-103874817D02*
X146090476Y-103827198D01*
X146090476Y-103827198D02*
X146138095Y-103779578D01*
X146138095Y-103779578D02*
X146185714Y-103684340D01*
X146185714Y-103684340D02*
X146185714Y-103446245D01*
X146185714Y-103446245D02*
X146138095Y-103351007D01*
X146138095Y-103351007D02*
X146090476Y-103303388D01*
X146090476Y-103303388D02*
X145995238Y-103255769D01*
X145995238Y-103255769D02*
X145804762Y-103255769D01*
X145804762Y-103255769D02*
X145709524Y-103303388D01*
X145709524Y-103303388D02*
X145661905Y-103351007D01*
X145661905Y-103351007D02*
X145614286Y-103446245D01*
%TO.C,R8*%
D13*
X165620000Y-107143641D02*
X165620000Y-106836359D01*
X166380000Y-107143641D02*
X166380000Y-106836359D01*
%TO.C,R3*%
X158643642Y-103220000D02*
X158336360Y-103220000D01*
X158643642Y-103980000D02*
X158336360Y-103980000D01*
%TO.C,R7*%
X162620000Y-107153641D02*
X162620000Y-106846359D01*
X163380000Y-107153641D02*
X163380000Y-106846359D01*
%TO.C,R6*%
X136733859Y-83070000D02*
X137041141Y-83070000D01*
X136733859Y-83830000D02*
X137041141Y-83830000D01*
%TO.C,R5*%
X137041141Y-81430000D02*
X136733859Y-81430000D01*
X137041141Y-80670000D02*
X136733859Y-80670000D01*
%TO.C,R4*%
X165380000Y-103846359D02*
X165380000Y-104153641D01*
X164620000Y-103846359D02*
X164620000Y-104153641D01*
D14*
%TO.C,G\u002A\u002A\u002A*%
G36*
X135611949Y-88015891D02*
G01*
X135651465Y-88024871D01*
X135775055Y-88070536D01*
X135999882Y-88167504D01*
X136303745Y-88305107D01*
X136664440Y-88472677D01*
X137059764Y-88659545D01*
X137467515Y-88855044D01*
X137865491Y-89048504D01*
X138231487Y-89229259D01*
X138543303Y-89386638D01*
X138778734Y-89509975D01*
X138915578Y-89588600D01*
X138934853Y-89602518D01*
X139035665Y-89770238D01*
X139043465Y-89982026D01*
X138965925Y-90183638D01*
X138834993Y-90308563D01*
X138772488Y-90337933D01*
X138702742Y-90350012D01*
X138609295Y-90338640D01*
X138475687Y-90297655D01*
X138285457Y-90220897D01*
X138022145Y-90102203D01*
X137669288Y-89935412D01*
X137210428Y-89714364D01*
X137083802Y-89653088D01*
X135517009Y-88894601D01*
X134576925Y-89832749D01*
X133636842Y-90770898D01*
X133636842Y-91229935D01*
X133636842Y-91688971D01*
X134577537Y-92673294D01*
X135518233Y-93657617D01*
X137073218Y-92888994D01*
X137561751Y-92648663D01*
X137941015Y-92465683D01*
X138227179Y-92333623D01*
X138436411Y-92246054D01*
X138584879Y-92196546D01*
X138688752Y-92178670D01*
X138764196Y-92185995D01*
X138804266Y-92200590D01*
X138965599Y-92344502D01*
X139042173Y-92564149D01*
X139018666Y-92812871D01*
X139011908Y-92832892D01*
X138970389Y-92898901D01*
X138881435Y-92976707D01*
X138731152Y-93074062D01*
X138505647Y-93198714D01*
X138191028Y-93358415D01*
X137773401Y-93560914D01*
X137330748Y-93770737D01*
X136814506Y-94009694D01*
X136361492Y-94211084D01*
X135985999Y-94368979D01*
X135702316Y-94477445D01*
X135524736Y-94530554D01*
X135489193Y-94534983D01*
X135368517Y-94523516D01*
X135241745Y-94478328D01*
X135091901Y-94386776D01*
X134902006Y-94236218D01*
X134655082Y-94014010D01*
X134334151Y-93707509D01*
X134192157Y-93569140D01*
X133586530Y-92976906D01*
X133545746Y-93180823D01*
X133449539Y-93375889D01*
X133280222Y-93483026D01*
X133072934Y-93504216D01*
X132862818Y-93441441D01*
X132685013Y-93296681D01*
X132590962Y-93126986D01*
X132550632Y-92940066D01*
X132521918Y-92671035D01*
X132511080Y-92380636D01*
X132511080Y-91863435D01*
X131146685Y-91863435D01*
X129782291Y-91863435D01*
X129734005Y-92056925D01*
X129657541Y-92245365D01*
X129535171Y-92447783D01*
X129520426Y-92467667D01*
X129355132Y-92684920D01*
X131268232Y-96372654D01*
X133181333Y-100060387D01*
X134675569Y-100079377D01*
X136169806Y-100098366D01*
X136169806Y-100976468D01*
X136169806Y-101854570D01*
X131279778Y-101854570D01*
X126389750Y-101854570D01*
X126389750Y-100975069D01*
X126389750Y-100095568D01*
X127590614Y-100095568D01*
X128027830Y-100094601D01*
X128343110Y-100090378D01*
X128555231Y-100080912D01*
X128682972Y-100064217D01*
X128745111Y-100038307D01*
X128760425Y-100001196D01*
X128754863Y-99972437D01*
X128728293Y-99881931D01*
X128666259Y-99670011D01*
X128572755Y-99350338D01*
X128451775Y-98936573D01*
X128307312Y-98442378D01*
X128143361Y-97881414D01*
X127963916Y-97267341D01*
X127772969Y-96613822D01*
X127763679Y-96582024D01*
X127573393Y-95931630D01*
X127395083Y-95323930D01*
X127232615Y-94771980D01*
X127089859Y-94288837D01*
X126970681Y-93887558D01*
X126878949Y-93581200D01*
X126818532Y-93382818D01*
X126803662Y-93337241D01*
X128045535Y-93337241D01*
X128060610Y-93409087D01*
X128111499Y-93599936D01*
X128193558Y-93894011D01*
X128302142Y-94275536D01*
X128432606Y-94728735D01*
X128580305Y-95237831D01*
X128740597Y-95787048D01*
X128908834Y-96360610D01*
X129080374Y-96942740D01*
X129250572Y-97517664D01*
X129414783Y-98069603D01*
X129568363Y-98582782D01*
X129706666Y-99041424D01*
X129825050Y-99429754D01*
X129918868Y-99731995D01*
X129983477Y-99932371D01*
X130005939Y-99996226D01*
X130050318Y-100037914D01*
X130159206Y-100066698D01*
X130352413Y-100084564D01*
X130649749Y-100093503D01*
X130995454Y-100095568D01*
X131946849Y-100095568D01*
X131032444Y-98318975D01*
X130733505Y-97738132D01*
X130398929Y-97087989D01*
X130050890Y-96411636D01*
X129711561Y-95752163D01*
X129403115Y-95152659D01*
X129264361Y-94882951D01*
X129006281Y-94382957D01*
X128803049Y-93994930D01*
X128646100Y-93705217D01*
X128526870Y-93500162D01*
X128436793Y-93366112D01*
X128367304Y-93289412D01*
X128309838Y-93256407D01*
X128255830Y-93253444D01*
X128243498Y-93255480D01*
X128102339Y-93298761D01*
X128045535Y-93337241D01*
X126803662Y-93337241D01*
X126793296Y-93305471D01*
X126792920Y-93304907D01*
X126728472Y-93266113D01*
X126585866Y-93180377D01*
X126519680Y-93140599D01*
X126102558Y-92815354D01*
X125802097Y-92411964D01*
X125619221Y-91932333D01*
X125554859Y-91378368D01*
X125560415Y-91168743D01*
X125564573Y-91138718D01*
X126671626Y-91138718D01*
X126680409Y-91487043D01*
X126792667Y-91795005D01*
X126990498Y-92045627D01*
X127255998Y-92221930D01*
X127571264Y-92306939D01*
X127918393Y-92283676D01*
X128246939Y-92154069D01*
X128518638Y-91926601D01*
X128687669Y-91624979D01*
X128746208Y-91279007D01*
X128686427Y-90918489D01*
X128615050Y-90752151D01*
X128407789Y-90491190D01*
X128128497Y-90322511D01*
X127808511Y-90245861D01*
X127479169Y-90260983D01*
X127171808Y-90367626D01*
X126917767Y-90565533D01*
X126784222Y-90767005D01*
X126671626Y-91138718D01*
X125564573Y-91138718D01*
X125627863Y-90681703D01*
X125777733Y-90277554D01*
X126028582Y-89913791D01*
X126178670Y-89752631D01*
X126583122Y-89424836D01*
X127025608Y-89223443D01*
X127525280Y-89135133D01*
X128106533Y-89149498D01*
X128611656Y-89282059D01*
X129042002Y-89533547D01*
X129398925Y-89904692D01*
X129620972Y-90265390D01*
X129861889Y-90737673D01*
X131178092Y-90737673D01*
X132494295Y-90737673D01*
X132523933Y-90060015D01*
X132540469Y-89742397D01*
X132562489Y-89532220D01*
X132598787Y-89396241D01*
X132658160Y-89301219D01*
X132747330Y-89215694D01*
X132989460Y-89073417D01*
X133218932Y-89057843D01*
X133411933Y-89165196D01*
X133524891Y-89338994D01*
X133608372Y-89537537D01*
X134388639Y-88808021D01*
X134729192Y-88494410D01*
X134989787Y-88269119D01*
X135189394Y-88120384D01*
X135346978Y-88036443D01*
X135481508Y-88005533D01*
X135611949Y-88015891D01*
G37*
G36*
X175634635Y-94049281D02*
G01*
X175777446Y-94096050D01*
X175806315Y-94108737D01*
X175952065Y-94191135D01*
X176081939Y-94296563D01*
X176194167Y-94422831D01*
X176286977Y-94567751D01*
X176358600Y-94729131D01*
X176390050Y-94830604D01*
X176406355Y-94913474D01*
X176418151Y-95016255D01*
X176425182Y-95130278D01*
X176427190Y-95246872D01*
X176423917Y-95357366D01*
X176415106Y-95453091D01*
X176409556Y-95487518D01*
X176356038Y-95696628D01*
X176275005Y-95908013D01*
X176167512Y-96119614D01*
X176034614Y-96329373D01*
X175877365Y-96535232D01*
X175865051Y-96549944D01*
X175805976Y-96616597D01*
X175739631Y-96685731D01*
X175671169Y-96752488D01*
X175605747Y-96812011D01*
X175548525Y-96859442D01*
X175504660Y-96889923D01*
X175503213Y-96890745D01*
X175488157Y-96896106D01*
X175480625Y-96886362D01*
X175478102Y-96855884D01*
X175477928Y-96834200D01*
X175477928Y-96763458D01*
X175641192Y-96598908D01*
X175815914Y-96405110D01*
X175966878Y-96200412D01*
X176091895Y-95987848D01*
X176114343Y-95943118D01*
X176168209Y-95827896D01*
X176209318Y-95727791D01*
X176240795Y-95633781D01*
X176265763Y-95536840D01*
X176281408Y-95460460D01*
X176294460Y-95359047D01*
X176299727Y-95242406D01*
X176297551Y-95119910D01*
X176288273Y-95000926D01*
X176272237Y-94894824D01*
X176258648Y-94838223D01*
X176198855Y-94678841D01*
X176117361Y-94535967D01*
X176015826Y-94411664D01*
X175895901Y-94307991D01*
X175773483Y-94233964D01*
X175644935Y-94183793D01*
X175518870Y-94161260D01*
X175397867Y-94165194D01*
X175284503Y-94194428D01*
X175181357Y-94247794D01*
X175091006Y-94324122D01*
X175016030Y-94422245D01*
X174959005Y-94540991D01*
X174936577Y-94613304D01*
X174924287Y-94670572D01*
X174916252Y-94726131D01*
X174914447Y-94755124D01*
X174907255Y-94816285D01*
X174886146Y-94853902D01*
X174851822Y-94866724D01*
X174851811Y-94866724D01*
X174815520Y-94858778D01*
X174794171Y-94832436D01*
X174785430Y-94783942D01*
X174784928Y-94759085D01*
X174798853Y-94627722D01*
X174836705Y-94496199D01*
X174895331Y-94372095D01*
X174971577Y-94262987D01*
X175007771Y-94223778D01*
X175116024Y-94135225D01*
X175234485Y-94073260D01*
X175361506Y-94038124D01*
X175495438Y-94030052D01*
X175634635Y-94049281D01*
G37*
G36*
X174185061Y-97600315D02*
G01*
X174185784Y-97615817D01*
X174183335Y-97651309D01*
X174179779Y-97685504D01*
X174174004Y-97726062D01*
X174164690Y-97755377D01*
X174146825Y-97781108D01*
X174115395Y-97810912D01*
X174076450Y-97843384D01*
X173921950Y-97982012D01*
X173789130Y-98126018D01*
X173679612Y-98273152D01*
X173595020Y-98421167D01*
X173536975Y-98567815D01*
X173526471Y-98605290D01*
X173499139Y-98764320D01*
X173500018Y-98917187D01*
X173529068Y-99063791D01*
X173586247Y-99204032D01*
X173671512Y-99337807D01*
X173784823Y-99465018D01*
X173926138Y-99585562D01*
X173933769Y-99591287D01*
X174044028Y-99665344D01*
X174171164Y-99737401D01*
X174303654Y-99801503D01*
X174429972Y-99851695D01*
X174452104Y-99859096D01*
X174604119Y-99893271D01*
X174761760Y-99900523D01*
X174921748Y-99881424D01*
X175080806Y-99836541D01*
X175235657Y-99766444D01*
X175335428Y-99705652D01*
X175462956Y-99604185D01*
X175585310Y-99477552D01*
X175700253Y-99329336D01*
X175805549Y-99163118D01*
X175898961Y-98982482D01*
X175978253Y-98791007D01*
X176041188Y-98592276D01*
X176048794Y-98563184D01*
X176071786Y-98494405D01*
X176098834Y-98451337D01*
X176128970Y-98435491D01*
X176130861Y-98435439D01*
X176149450Y-98445058D01*
X176173699Y-98466956D01*
X176193292Y-98490685D01*
X176198665Y-98504068D01*
X176194196Y-98525873D01*
X176190048Y-98543801D01*
X176183104Y-98567620D01*
X176168864Y-98612938D01*
X176149216Y-98673855D01*
X176126049Y-98744471D01*
X176118846Y-98766211D01*
X176030296Y-98999004D01*
X175926439Y-99211124D01*
X175808103Y-99401497D01*
X175676116Y-99569044D01*
X175531308Y-99712691D01*
X175374508Y-99831361D01*
X175239533Y-99908309D01*
X175068844Y-99977515D01*
X174896299Y-100017964D01*
X174722435Y-100029623D01*
X174547783Y-100012457D01*
X174372879Y-99966432D01*
X174367332Y-99964498D01*
X174182198Y-99888678D01*
X174010141Y-99796693D01*
X173853494Y-99690706D01*
X173714593Y-99572876D01*
X173595775Y-99445365D01*
X173499374Y-99310334D01*
X173427727Y-99169943D01*
X173391426Y-99061605D01*
X173376880Y-98979157D01*
X173369832Y-98880039D01*
X173370476Y-98775542D01*
X173379005Y-98676955D01*
X173384246Y-98643980D01*
X173426309Y-98490115D01*
X173495711Y-98334028D01*
X173591178Y-98177537D01*
X173711438Y-98022460D01*
X173855216Y-97870616D01*
X174021238Y-97723824D01*
X174038386Y-97709995D01*
X174092441Y-97667320D01*
X174137757Y-97632621D01*
X174169958Y-97609170D01*
X174184664Y-97600240D01*
X174185061Y-97600315D01*
G37*
G36*
X175643345Y-101535896D02*
G01*
X175683218Y-101558008D01*
X175728954Y-101588466D01*
X175772516Y-101622031D01*
X175797656Y-101644813D01*
X175824656Y-101672486D01*
X175846256Y-101698040D01*
X175863052Y-101724985D01*
X175875642Y-101756823D01*
X175884624Y-101797068D01*
X175890595Y-101849223D01*
X175894154Y-101916796D01*
X175895897Y-102003298D01*
X175896424Y-102112230D01*
X175896362Y-102224025D01*
X175895852Y-102355999D01*
X175894632Y-102461865D01*
X175892583Y-102544406D01*
X175889586Y-102606407D01*
X175885520Y-102650646D01*
X175880265Y-102679910D01*
X175876242Y-102692022D01*
X175834152Y-102756832D01*
X175766432Y-102819872D01*
X175676333Y-102878364D01*
X175631041Y-102901655D01*
X175498664Y-102955543D01*
X175354314Y-102997317D01*
X175201077Y-103027335D01*
X175042040Y-103045956D01*
X174880290Y-103053539D01*
X174718913Y-103050442D01*
X174560996Y-103037025D01*
X174409625Y-103013647D01*
X174267888Y-102980666D01*
X174138870Y-102938441D01*
X174025659Y-102887331D01*
X173931341Y-102827696D01*
X173859002Y-102759893D01*
X173814440Y-102690445D01*
X173806663Y-102670831D01*
X173800568Y-102647750D01*
X173795956Y-102617628D01*
X173792626Y-102576891D01*
X173790378Y-102521966D01*
X173789012Y-102449277D01*
X173788326Y-102355253D01*
X173788121Y-102236317D01*
X173788119Y-102220877D01*
X173788353Y-102090117D01*
X173789473Y-101984743D01*
X173792106Y-101901248D01*
X173796880Y-101836122D01*
X173804422Y-101785857D01*
X173815360Y-101746945D01*
X173830321Y-101715875D01*
X173849932Y-101689141D01*
X173874822Y-101663233D01*
X173890470Y-101648543D01*
X173935736Y-101610157D01*
X173984236Y-101574363D01*
X174028832Y-101545904D01*
X174062390Y-101529533D01*
X174072579Y-101527362D01*
X174080246Y-101534576D01*
X174085605Y-101558433D01*
X174088957Y-101602254D01*
X174090602Y-101669360D01*
X174090898Y-101730211D01*
X174091470Y-101815049D01*
X174093601Y-101876760D01*
X174097910Y-101921100D01*
X174105019Y-101953824D01*
X174115545Y-101980689D01*
X174118528Y-101986669D01*
X174175679Y-102066482D01*
X174257599Y-102133897D01*
X174362667Y-102188293D01*
X174489262Y-102229046D01*
X174635766Y-102255533D01*
X174800554Y-102267133D01*
X174849430Y-102267627D01*
X175022139Y-102260007D01*
X175172114Y-102237553D01*
X175301780Y-102199654D01*
X175413555Y-102145698D01*
X175463569Y-102112449D01*
X175511430Y-102073969D01*
X175546835Y-102035342D01*
X175571786Y-101991209D01*
X175588286Y-101936208D01*
X175598342Y-101864976D01*
X175603952Y-101772153D01*
X175605246Y-101733249D01*
X175607768Y-101659869D01*
X175610673Y-101598031D01*
X175613659Y-101552859D01*
X175616424Y-101529471D01*
X175617369Y-101527361D01*
X175643345Y-101535896D01*
G37*
G36*
X175492288Y-100893832D02*
G01*
X175492208Y-101091135D01*
X175491977Y-101261573D01*
X175491551Y-101407174D01*
X175490888Y-101529971D01*
X175489942Y-101631994D01*
X175488672Y-101715271D01*
X175487033Y-101781835D01*
X175484981Y-101833716D01*
X175482475Y-101872943D01*
X175479469Y-101901548D01*
X175475920Y-101921561D01*
X175471785Y-101935012D01*
X175469893Y-101939136D01*
X175444257Y-101978942D01*
X175408918Y-102012757D01*
X175357629Y-102045501D01*
X175294222Y-102077387D01*
X175187056Y-102117300D01*
X175067265Y-102144078D01*
X174939570Y-102158184D01*
X174808690Y-102160082D01*
X174679348Y-102150233D01*
X174556264Y-102129101D01*
X174444159Y-102097149D01*
X174347751Y-102054839D01*
X174271765Y-102002635D01*
X174244127Y-101974432D01*
X174206484Y-101929696D01*
X174206484Y-100979340D01*
X174206484Y-100028985D01*
X174354578Y-100080480D01*
X174411970Y-100100086D01*
X174457749Y-100113947D01*
X174499092Y-100123049D01*
X174543168Y-100128381D01*
X174597156Y-100130930D01*
X174668229Y-100131682D01*
X174726620Y-100131677D01*
X174816174Y-100131090D01*
X174884084Y-100129064D01*
X174937596Y-100124789D01*
X174983956Y-100117454D01*
X175030410Y-100106248D01*
X175077544Y-100092412D01*
X175194451Y-100050544D01*
X175312380Y-99997711D01*
X175418352Y-99939899D01*
X175445420Y-99922777D01*
X175492377Y-99891873D01*
X175492288Y-100893832D01*
G37*
G36*
X174524345Y-95626722D02*
G01*
X174536005Y-95700179D01*
X174559752Y-95752341D01*
X174600337Y-95789865D01*
X174661685Y-95819098D01*
X174752242Y-95842818D01*
X174847946Y-95850442D01*
X174941883Y-95842832D01*
X175027138Y-95820854D01*
X175096797Y-95785371D01*
X175125232Y-95761175D01*
X175149062Y-95732768D01*
X175161208Y-95704456D01*
X175165067Y-95665131D01*
X175164824Y-95631789D01*
X175165598Y-95586292D01*
X175169613Y-95555120D01*
X175174797Y-95545792D01*
X175197321Y-95556064D01*
X175229359Y-95581871D01*
X175263000Y-95615688D01*
X175290335Y-95649998D01*
X175298238Y-95663142D01*
X175305358Y-95683799D01*
X175311570Y-95718064D01*
X175317103Y-95768754D01*
X175322185Y-95838685D01*
X175327043Y-95930675D01*
X175331905Y-96047539D01*
X175334038Y-96105704D01*
X175339033Y-96238751D01*
X175345441Y-96397294D01*
X175353102Y-96577978D01*
X175361860Y-96777444D01*
X175371558Y-96992337D01*
X175382038Y-97219300D01*
X175393144Y-97454975D01*
X175404719Y-97696005D01*
X175416604Y-97939034D01*
X175428644Y-98180704D01*
X175440680Y-98417659D01*
X175452556Y-98646544D01*
X175456660Y-98724405D01*
X175463885Y-98861126D01*
X175470621Y-98989092D01*
X175476717Y-99105389D01*
X175482021Y-99207112D01*
X175486383Y-99291354D01*
X175489650Y-99355204D01*
X175491673Y-99395754D01*
X175492304Y-99409959D01*
X175482524Y-99425957D01*
X175456698Y-99455269D01*
X175420210Y-99491830D01*
X175416523Y-99495329D01*
X175334853Y-99564507D01*
X175241816Y-99630423D01*
X175147610Y-99686369D01*
X175071701Y-99722086D01*
X174993156Y-99747848D01*
X174901182Y-99769972D01*
X174808258Y-99785969D01*
X174726859Y-99793350D01*
X174713212Y-99793573D01*
X174635258Y-99786356D01*
X174541150Y-99766217D01*
X174439317Y-99735422D01*
X174338188Y-99696235D01*
X174318457Y-99687439D01*
X174206485Y-99636286D01*
X174206547Y-99444025D01*
X174207420Y-99387212D01*
X174209882Y-99305846D01*
X174213746Y-99204209D01*
X174218824Y-99086589D01*
X174224927Y-98957272D01*
X174231866Y-98820544D01*
X174239454Y-98680690D01*
X174242303Y-98630489D01*
X174255208Y-98402445D01*
X174268293Y-98164753D01*
X174281374Y-97921112D01*
X174294267Y-97675224D01*
X174306788Y-97430785D01*
X174318753Y-97191497D01*
X174329978Y-96961059D01*
X174340279Y-96743170D01*
X174349471Y-96541529D01*
X174357372Y-96359837D01*
X174363796Y-96201793D01*
X174365934Y-96145393D01*
X174370416Y-96035892D01*
X174375414Y-95933840D01*
X174380666Y-95843375D01*
X174385899Y-95768633D01*
X174390852Y-95713750D01*
X174395252Y-95682866D01*
X174395971Y-95680160D01*
X174415903Y-95642278D01*
X174448946Y-95601349D01*
X174463822Y-95587021D01*
X174517121Y-95540117D01*
X174524345Y-95626722D01*
G37*
G36*
X174448330Y-103137479D02*
G01*
X174516472Y-103148049D01*
X174606454Y-103155723D01*
X174711363Y-103160500D01*
X174824284Y-103162382D01*
X174938310Y-103161367D01*
X175046524Y-103157458D01*
X175142016Y-103150653D01*
X175217873Y-103140953D01*
X175235921Y-103137447D01*
X175275653Y-103128820D01*
X175275653Y-104984596D01*
X175275653Y-106840372D01*
X175238043Y-106877981D01*
X175183749Y-106920059D01*
X175115041Y-106950265D01*
X175028116Y-106969621D01*
X174919177Y-106979149D01*
X174856654Y-106980540D01*
X174733878Y-106977315D01*
X174635040Y-106965477D01*
X174556229Y-106944110D01*
X174493533Y-106912299D01*
X174462608Y-106888344D01*
X174415983Y-106846686D01*
X174412209Y-104987717D01*
X174408435Y-103128749D01*
X174448330Y-103137479D01*
G37*
G36*
X174671812Y-107088330D02*
G01*
X174708560Y-107093448D01*
X174762475Y-107098738D01*
X174832345Y-107100787D01*
X174905382Y-107099315D01*
X174925283Y-107098193D01*
X174990887Y-107094766D01*
X175032053Y-107095173D01*
X175053020Y-107099717D01*
X175058124Y-107107701D01*
X175054557Y-107125841D01*
X175044842Y-107168439D01*
X175029836Y-107231922D01*
X175010395Y-107312709D01*
X174987377Y-107407229D01*
X174961638Y-107511904D01*
X174950287Y-107557771D01*
X174923598Y-107664920D01*
X174898995Y-107762722D01*
X174877365Y-107847733D01*
X174859593Y-107916513D01*
X174846563Y-107965619D01*
X174839160Y-107991607D01*
X174837919Y-107994828D01*
X174833870Y-107982404D01*
X174824338Y-107945834D01*
X174810268Y-107889136D01*
X174792602Y-107816337D01*
X174772282Y-107731460D01*
X174750254Y-107638528D01*
X174727458Y-107541567D01*
X174704839Y-107444599D01*
X174683340Y-107351648D01*
X174663903Y-107266738D01*
X174647472Y-107193892D01*
X174634990Y-107137135D01*
X174627400Y-107100490D01*
X174625483Y-107088464D01*
X174638375Y-107085983D01*
X174671812Y-107088330D01*
G37*
G36*
X175028359Y-95161468D02*
G01*
X175034377Y-95257661D01*
X175040476Y-95353046D01*
X175046180Y-95440316D01*
X175051010Y-95512161D01*
X175054032Y-95555076D01*
X175057839Y-95613403D01*
X175057851Y-95649990D01*
X175052683Y-95671886D01*
X175040955Y-95686144D01*
X175026261Y-95696565D01*
X174971515Y-95719728D01*
X174899577Y-95732960D01*
X174820479Y-95736016D01*
X174744253Y-95728653D01*
X174680931Y-95710626D01*
X174669788Y-95705236D01*
X174655149Y-95694410D01*
X174646228Y-95676863D01*
X174641653Y-95646165D01*
X174640049Y-95595886D01*
X174639931Y-95565459D01*
X174641159Y-95501191D01*
X174644519Y-95416613D01*
X174649522Y-95319657D01*
X174655678Y-95218252D01*
X174662501Y-95120329D01*
X174669501Y-95033817D01*
X174676190Y-94966647D01*
X174677467Y-94956082D01*
X174685329Y-94893734D01*
X174722686Y-94931091D01*
X174778333Y-94968395D01*
X174841851Y-94982109D01*
X174905524Y-94972352D01*
X174961637Y-94939244D01*
X174973712Y-94927186D01*
X175011305Y-94885506D01*
X175028359Y-95161468D01*
G37*
G36*
X118505689Y-112921879D02*
G01*
X119415427Y-112924454D01*
X119783755Y-113830667D01*
X120152084Y-114736881D01*
X120158251Y-114571795D01*
X120159295Y-114534058D01*
X120160322Y-114478228D01*
X120161315Y-114406375D01*
X120162257Y-114320573D01*
X120163131Y-114222893D01*
X120163919Y-114115409D01*
X120164605Y-114000193D01*
X120165170Y-113879316D01*
X120165598Y-113754851D01*
X120165814Y-113663060D01*
X120167209Y-112919412D01*
X120711711Y-112919412D01*
X121256213Y-112919412D01*
X121256213Y-114200000D01*
X121256213Y-115480587D01*
X120345661Y-115480587D01*
X119435109Y-115480587D01*
X119068699Y-114575605D01*
X119016574Y-114447002D01*
X118966468Y-114323647D01*
X118918912Y-114206833D01*
X118874436Y-114097850D01*
X118833571Y-113997991D01*
X118796847Y-113908547D01*
X118764796Y-113830809D01*
X118737948Y-113766069D01*
X118716833Y-113715618D01*
X118701982Y-113680749D01*
X118693927Y-113662751D01*
X118692702Y-113660540D01*
X118691003Y-113668623D01*
X118689534Y-113696320D01*
X118688300Y-113743079D01*
X118687304Y-113808348D01*
X118686549Y-113891575D01*
X118686040Y-113992209D01*
X118685781Y-114109697D01*
X118685774Y-114243488D01*
X118686025Y-114393029D01*
X118686536Y-114557770D01*
X118686556Y-114563001D01*
X118689996Y-115475546D01*
X118142973Y-115478153D01*
X117595951Y-115480761D01*
X117595951Y-114200033D01*
X117595951Y-112919305D01*
X118505689Y-112921879D01*
G37*
G36*
X125642477Y-113282413D02*
G01*
X125642477Y-113645415D01*
X124361889Y-113645415D01*
X123081302Y-113645415D01*
X123081302Y-113741206D01*
X123081302Y-113836998D01*
X123721596Y-113836998D01*
X124361889Y-113836998D01*
X124361889Y-114200000D01*
X124361889Y-114563001D01*
X123721217Y-114563001D01*
X123080545Y-114563001D01*
X123083444Y-114656272D01*
X123086344Y-114749543D01*
X124364410Y-114752103D01*
X125642477Y-114754662D01*
X125642477Y-115117625D01*
X125642477Y-115480587D01*
X124001307Y-115480587D01*
X122360137Y-115480587D01*
X122176217Y-115296466D01*
X121992298Y-115112345D01*
X121992298Y-114199798D01*
X121992298Y-113287251D01*
X122176419Y-113103331D01*
X122360540Y-112919412D01*
X124001509Y-112919412D01*
X125642477Y-112919412D01*
X125642477Y-113282413D01*
G37*
G36*
X127477650Y-113836998D02*
G01*
X127477650Y-114754585D01*
X128208694Y-114754585D01*
X128939738Y-114754585D01*
X128939738Y-113836998D01*
X128939738Y-112919412D01*
X129489281Y-112919412D01*
X130038825Y-112919412D01*
X130038825Y-114016080D01*
X130038825Y-115112749D01*
X129854704Y-115296668D01*
X129670583Y-115480587D01*
X128208492Y-115480587D01*
X126746401Y-115480587D01*
X126562482Y-115296466D01*
X126378563Y-115112345D01*
X126378563Y-114015879D01*
X126378563Y-112919412D01*
X126928106Y-112919412D01*
X127477650Y-112919412D01*
X127477650Y-113836998D01*
G37*
G36*
X134425089Y-113282413D02*
G01*
X134425089Y-113645415D01*
X133784795Y-113645415D01*
X133144502Y-113645415D01*
X133144502Y-114563001D01*
X133144502Y-115480587D01*
X132600000Y-115480587D01*
X132055498Y-115480587D01*
X132055498Y-114563001D01*
X132055498Y-113645415D01*
X131415204Y-113645415D01*
X130774910Y-113645415D01*
X130774910Y-113282413D01*
X130774910Y-112919412D01*
X132600000Y-112919412D01*
X134425089Y-112919412D01*
X134425089Y-113282413D01*
G37*
G36*
X138637518Y-113103533D02*
G01*
X138821437Y-113287654D01*
X138821437Y-113559706D01*
X138821437Y-113831758D01*
X138637518Y-114015879D01*
X138453598Y-114200000D01*
X138637518Y-114384121D01*
X138821437Y-114568242D01*
X138821437Y-115024414D01*
X138821437Y-115480587D01*
X138276935Y-115480587D01*
X137732433Y-115480587D01*
X137732433Y-115021794D01*
X137732433Y-114563001D01*
X136996347Y-114563001D01*
X136260262Y-114563001D01*
X136260262Y-115021794D01*
X136260262Y-115480587D01*
X135715760Y-115480587D01*
X135171258Y-115480587D01*
X135171258Y-114200000D01*
X135171258Y-113837130D01*
X136260262Y-113837130D01*
X136993827Y-113834543D01*
X137727392Y-113831957D01*
X137727392Y-113741206D01*
X137727392Y-113650456D01*
X136993827Y-113647869D01*
X136260262Y-113645283D01*
X136260262Y-113741206D01*
X136260262Y-113837130D01*
X135171258Y-113837130D01*
X135171258Y-113741206D01*
X135171258Y-112919412D01*
X136812428Y-112919412D01*
X138453598Y-112919412D01*
X138637518Y-113103533D01*
G37*
G36*
X147420130Y-113103533D02*
G01*
X147604049Y-113287654D01*
X147604049Y-114384121D01*
X147604049Y-115480587D01*
X147059547Y-115480587D01*
X146515045Y-115480587D01*
X146515045Y-114563001D01*
X146515045Y-113645415D01*
X145778960Y-113645415D01*
X145042874Y-113645415D01*
X145042874Y-114563001D01*
X145042874Y-115480587D01*
X144498372Y-115480587D01*
X143953870Y-115480587D01*
X143953870Y-114200000D01*
X143953870Y-112919412D01*
X145595040Y-112919412D01*
X147236211Y-112919412D01*
X147420130Y-113103533D01*
G37*
%TO.C,D4*%
D13*
X143090000Y-83850000D02*
X148600000Y-83850000D01*
X143090000Y-80550000D02*
X148600000Y-80550000D01*
X143090000Y-80550000D02*
X143090000Y-83850000D01*
%TO.C,U3*%
X168550000Y-98477499D02*
X168310000Y-98147499D01*
X168790000Y-98147499D01*
X168550000Y-98477499D01*
G36*
X168550000Y-98477499D02*
G01*
X168310000Y-98147499D01*
X168790000Y-98147499D01*
X168550000Y-98477499D01*
G37*
X170910000Y-101547499D02*
X169090000Y-101547499D01*
X170910000Y-101497499D02*
X170910000Y-101547499D01*
X170910000Y-99597499D02*
X170910000Y-100377499D01*
X170910000Y-98427499D02*
X170910000Y-98477499D01*
X169090000Y-101547499D02*
X169090000Y-101497499D01*
X169090000Y-98477499D02*
X169090000Y-98427499D01*
X169090000Y-98427499D02*
X170910000Y-98427499D01*
%TO.C,C16*%
X171935000Y-95938747D02*
X171935000Y-96461253D01*
X170465000Y-95938747D02*
X170465000Y-96461253D01*
D14*
%TO.C,G\u002A\u002A\u002A*%
G36*
X173292989Y-109075626D02*
G01*
X173445766Y-109251843D01*
X173445766Y-109499539D01*
X173445766Y-109747235D01*
X173300382Y-109915453D01*
X173243609Y-109982446D01*
X173197216Y-110039674D01*
X173166061Y-110080967D01*
X173154998Y-110099999D01*
X173166607Y-110119808D01*
X173198194Y-110161567D01*
X173244901Y-110219109D01*
X173300382Y-110284546D01*
X173445766Y-110452764D01*
X173445766Y-110700460D01*
X173445766Y-110948156D01*
X173292989Y-111124373D01*
X173140212Y-111300590D01*
X171792250Y-111300590D01*
X170444289Y-111300590D01*
X170444289Y-110887887D01*
X171344732Y-110887887D01*
X171945027Y-110887887D01*
X172545322Y-110887887D01*
X172545322Y-110597119D01*
X172545322Y-110306351D01*
X171945027Y-110306351D01*
X171344732Y-110306351D01*
X171344732Y-110597119D01*
X171344732Y-110887887D01*
X170444289Y-110887887D01*
X170444289Y-110597119D01*
X170444289Y-110099999D01*
X170444289Y-109912407D01*
X171344732Y-109912407D01*
X171945027Y-109912407D01*
X172545322Y-109912407D01*
X172545322Y-109621639D01*
X172545322Y-109330871D01*
X171945027Y-109330871D01*
X171344732Y-109330871D01*
X171344732Y-109621639D01*
X171344732Y-109912407D01*
X170444289Y-109912407D01*
X170444289Y-109621639D01*
X170444289Y-108899409D01*
X171792250Y-108899409D01*
X173140212Y-108899409D01*
X173292989Y-109075626D01*
G37*
%TO.C,J5*%
D13*
X114835787Y-88180000D02*
X114155787Y-88180000D01*
X114835787Y-104920000D02*
X114155787Y-104920000D01*
X118235787Y-90450000D02*
X118235786Y-88150000D01*
X118235787Y-90450000D02*
X119535787Y-90450000D01*
X118235787Y-102650000D02*
X118235786Y-104950000D01*
%TO.C,C7*%
X142338748Y-100065000D02*
X142861252Y-100065000D01*
X142338748Y-101535000D02*
X142861252Y-101535000D01*
%TO.C,D5*%
X150109999Y-85150000D02*
X144599999Y-85150000D01*
X150109999Y-88450000D02*
X144599999Y-88450000D01*
X150109999Y-88450000D02*
X150109999Y-85150000D01*
%TO.C,D1*%
X152350000Y-98490000D02*
X152350000Y-104000000D01*
X155650000Y-98490000D02*
X152350000Y-98490000D01*
X155650000Y-98490000D02*
X155650000Y-104000000D01*
%TO.C,SW4*%
D15*
X172022778Y-113342947D02*
X172327541Y-113647710D01*
X174202081Y-115522250D02*
X173897318Y-115217487D01*
D16*
X174887975Y-110477750D02*
X172022778Y-113342947D01*
D15*
X174887975Y-110477750D02*
X175192738Y-110782513D01*
X176762515Y-112352290D02*
X177067278Y-112657053D01*
D16*
X177067278Y-112657053D02*
X174202081Y-115522250D01*
D17*
X175445028Y-113000000D02*
G75*
G02*
X173645028Y-113000000I-900000J0D01*
G01*
X173645028Y-113000000D02*
G75*
G02*
X175445028Y-113000000I900000J0D01*
G01*
%TO.C,C13*%
D13*
X140626248Y-84315000D02*
X141148752Y-84315000D01*
X140626248Y-85785000D02*
X141148752Y-85785000D01*
%TO.C,C3*%
X142338747Y-110465000D02*
X142861253Y-110465000D01*
X142338747Y-111935000D02*
X142861253Y-111935000D01*
%TO.C,C9*%
X142338748Y-94865000D02*
X142861252Y-94865000D01*
X142338748Y-96335000D02*
X142861252Y-96335000D01*
%TO.C,C11*%
X153265000Y-85938747D02*
X153265000Y-86461253D01*
X154735000Y-85938747D02*
X154735000Y-86461253D01*
%TO.C,USB-C*%
X159670000Y-111150000D02*
X159670000Y-113070000D01*
X159670000Y-116785000D02*
X159670000Y-115080000D01*
X168830000Y-113070000D02*
X168830000Y-111150000D01*
X168830000Y-115080000D02*
X168830000Y-116785000D01*
X168830000Y-116785000D02*
X159670000Y-116785000D01*
%TO.C,Q1*%
X139952500Y-81115000D02*
X141422500Y-81115000D01*
X139952500Y-82415000D02*
X139952500Y-82085000D01*
X141422500Y-81115000D02*
X141422500Y-81765000D01*
X141422500Y-82735000D02*
X141422500Y-83385000D01*
X141422500Y-83385000D02*
X139952500Y-83385000D01*
X139507500Y-82090000D02*
X139647500Y-82280000D01*
X139367500Y-82280000D01*
X139507500Y-82090000D01*
G36*
X139647500Y-82280000D02*
G01*
X139367500Y-82280000D01*
X139507500Y-82090000D01*
X139647500Y-82280000D01*
G37*
%TO.C,D3*%
X160350000Y-98490000D02*
X160350000Y-104000000D01*
X163650000Y-98490000D02*
X160350000Y-98490000D01*
X163650000Y-98490000D02*
X163650000Y-104000000D01*
%TO.C,U2*%
X156440000Y-100090000D02*
X156490000Y-100090000D01*
X156440000Y-101910000D02*
X156440000Y-100090000D01*
X156490000Y-101910000D02*
X156440000Y-101910000D01*
X158390000Y-101910000D02*
X157610000Y-101910000D01*
X159510000Y-100090000D02*
X159560000Y-100090000D01*
X159560000Y-100090000D02*
X159560000Y-101910000D01*
X159560000Y-101910000D02*
X159510000Y-101910000D01*
X159510000Y-99550000D02*
X159840000Y-99310000D01*
X159840000Y-99790000D01*
X159510000Y-99550000D01*
G36*
X159840000Y-99790000D02*
G01*
X159510000Y-99550000D01*
X159840000Y-99310000D01*
X159840000Y-99790000D01*
G37*
%TO.C,C8*%
X142338748Y-97465000D02*
X142861252Y-97465000D01*
X142338748Y-98935000D02*
X142861252Y-98935000D01*
D14*
%TO.C,G\u002A\u002A\u002A*%
G36*
X168782295Y-101960069D02*
G01*
X168782901Y-101979102D01*
X168783480Y-102009863D01*
X168784026Y-102051549D01*
X168784534Y-102103357D01*
X168785000Y-102164485D01*
X168785419Y-102234128D01*
X168785786Y-102311485D01*
X168786095Y-102395752D01*
X168786343Y-102486127D01*
X168786524Y-102581807D01*
X168786633Y-102681990D01*
X168786666Y-102776666D01*
X168786666Y-103600000D01*
X169093888Y-103600000D01*
X169171744Y-103600138D01*
X169238889Y-103600547D01*
X169294894Y-103601218D01*
X169339327Y-103602141D01*
X169371757Y-103603308D01*
X169391756Y-103604709D01*
X169398890Y-103606335D01*
X169398888Y-103606487D01*
X169394806Y-103613121D01*
X169383718Y-103630069D01*
X169366074Y-103656668D01*
X169342324Y-103692252D01*
X169312918Y-103736158D01*
X169278304Y-103787721D01*
X169238933Y-103846276D01*
X169195255Y-103911160D01*
X169147719Y-103981707D01*
X169096774Y-104057253D01*
X169042870Y-104137134D01*
X168986458Y-104220686D01*
X168927985Y-104307243D01*
X168867903Y-104396142D01*
X168806661Y-104486718D01*
X168744709Y-104578306D01*
X168682495Y-104670243D01*
X168620470Y-104761864D01*
X168559084Y-104852503D01*
X168498785Y-104941498D01*
X168440024Y-105028183D01*
X168383251Y-105111894D01*
X168328914Y-105191967D01*
X168277464Y-105267737D01*
X168229350Y-105338539D01*
X168185022Y-105403710D01*
X168144929Y-105462585D01*
X168109522Y-105514499D01*
X168079249Y-105558788D01*
X168054560Y-105594787D01*
X168035906Y-105621833D01*
X168023735Y-105639260D01*
X168018498Y-105646404D01*
X168018333Y-105646549D01*
X168017704Y-105640031D01*
X168017097Y-105620983D01*
X168016519Y-105590207D01*
X168015973Y-105548507D01*
X168015465Y-105496686D01*
X168014999Y-105435547D01*
X168014580Y-105365892D01*
X168014213Y-105288524D01*
X168013904Y-105204248D01*
X168013656Y-105113865D01*
X168013475Y-105018178D01*
X168013366Y-104917991D01*
X168013333Y-104823333D01*
X168013333Y-104000000D01*
X167706111Y-104000000D01*
X167627296Y-103999860D01*
X167559624Y-103999446D01*
X167503458Y-103998766D01*
X167459160Y-103997827D01*
X167427093Y-103996637D01*
X167407617Y-103995204D01*
X167401097Y-103993536D01*
X167401111Y-103993465D01*
X167405185Y-103986848D01*
X167416265Y-103969915D01*
X167433903Y-103943331D01*
X167457648Y-103907760D01*
X167487051Y-103863866D01*
X167521662Y-103812314D01*
X167561031Y-103753769D01*
X167604708Y-103688894D01*
X167652244Y-103618355D01*
X167703189Y-103542816D01*
X167757093Y-103462942D01*
X167813508Y-103379396D01*
X167871982Y-103292843D01*
X167932066Y-103203949D01*
X167993311Y-103113377D01*
X168055266Y-103021791D01*
X168117483Y-102929857D01*
X168179511Y-102838239D01*
X168240901Y-102747601D01*
X168301203Y-102658608D01*
X168359967Y-102571924D01*
X168416744Y-102488214D01*
X168471084Y-102408142D01*
X168522536Y-102332372D01*
X168570653Y-102261570D01*
X168614983Y-102196400D01*
X168655077Y-102137525D01*
X168690485Y-102085612D01*
X168720758Y-102041323D01*
X168745446Y-102005324D01*
X168764099Y-101978279D01*
X168776268Y-101960853D01*
X168781502Y-101953710D01*
X168781666Y-101953565D01*
X168782295Y-101960069D01*
G37*
%TO.C,ESP32 S3 MINI 1*%
D13*
X160675000Y-69850000D02*
X160675000Y-72300000D01*
X160675000Y-69850000D02*
X163125000Y-69850000D01*
X160950000Y-70100000D02*
X176550000Y-70100000D01*
X160950000Y-90800000D02*
X160950000Y-70100000D01*
X176550000Y-70100000D02*
X176550000Y-90800000D01*
X176550000Y-90800000D02*
X160950000Y-90800000D01*
X160775000Y-77050000D02*
X160439000Y-77290000D01*
X160439000Y-76810000D01*
X160775000Y-77050000D01*
G36*
X160775000Y-77050000D02*
G01*
X160439000Y-77290000D01*
X160439000Y-76810000D01*
X160775000Y-77050000D01*
G37*
%TO.C,IO pins*%
X180620000Y-76380000D02*
X182000000Y-76380000D01*
X180620000Y-77760000D02*
X180620000Y-76380000D01*
X180620000Y-79030000D02*
X180620000Y-96920000D01*
X180620000Y-79030000D02*
X183380000Y-79030000D01*
X180620000Y-96920000D02*
X183380000Y-96920000D01*
X183380000Y-79030000D02*
X183380000Y-96920000D01*
%TO.C,D6*%
X146950000Y-110510000D02*
X146950000Y-105000000D01*
X146950000Y-110510000D02*
X150250000Y-110510000D01*
X150250000Y-110510000D02*
X150250000Y-105000000D01*
%TO.C,C15*%
X165265000Y-99261253D02*
X165265000Y-98738747D01*
X166735000Y-99261253D02*
X166735000Y-98738747D01*
%TO.C,C4*%
X142338747Y-107865000D02*
X142861253Y-107865000D01*
X142338747Y-109335000D02*
X142861253Y-109335000D01*
%TO.C,SW3*%
D16*
X178477750Y-106842947D02*
X181342947Y-103977750D01*
D15*
X178782513Y-107147710D02*
X178477750Y-106842947D01*
X180657053Y-109022250D02*
X180352290Y-108717487D01*
D16*
X180657053Y-109022250D02*
X183522250Y-106157053D01*
D15*
X181342947Y-103977750D02*
X181647710Y-104282513D01*
X183522250Y-106157053D02*
X183217487Y-105852290D01*
D17*
X181900000Y-106500000D02*
G75*
G02*
X180100000Y-106500000I-900000J0D01*
G01*
X180100000Y-106500000D02*
G75*
G02*
X181900000Y-106500000I900000J0D01*
G01*
%TO.C,C10*%
D13*
X134738748Y-96465000D02*
X135261252Y-96465000D01*
X134738748Y-97935000D02*
X135261252Y-97935000D01*
%TO.C,J3*%
X151940000Y-109090000D02*
X151940000Y-116910000D01*
X151940000Y-110690000D02*
X152860000Y-110690000D01*
X151940000Y-116910000D02*
X158060000Y-116910000D01*
X152860000Y-109090000D02*
X151940000Y-109090000D01*
X152860000Y-110690000D02*
X152860000Y-109090000D01*
X153140000Y-110690000D02*
X152860000Y-110690000D01*
X153140000Y-110690000D02*
X153140000Y-109475000D01*
X153200000Y-114650000D02*
X153200000Y-116910000D01*
X153700000Y-114650000D02*
X153700000Y-116910000D01*
X154500000Y-112550000D02*
X155500000Y-112550000D01*
X154500000Y-116910000D02*
X154500000Y-112550000D01*
X155500000Y-112550000D02*
X155500000Y-116910000D01*
X157140000Y-109090000D02*
X157140000Y-110690000D01*
X157140000Y-110690000D02*
X156860000Y-110690000D01*
X158060000Y-109090000D02*
X157140000Y-109090000D01*
X158060000Y-110690000D02*
X157140000Y-110690000D01*
X158060000Y-116910000D02*
X158060000Y-109090000D01*
X152700000Y-113050000D02*
X153700000Y-113050000D01*
X153700000Y-114650000D01*
X152700000Y-114650000D01*
X152700000Y-113050000D01*
X156300000Y-113050000D02*
X157300000Y-113050000D01*
X157300000Y-114650000D01*
X156300000Y-114650000D01*
X156300000Y-113050000D01*
%TO.C,C14*%
X140626248Y-86715000D02*
X141148752Y-86715000D01*
X140626248Y-88185000D02*
X141148752Y-88185000D01*
%TO.C,C2*%
X157738748Y-95265000D02*
X158261252Y-95265000D01*
X157738748Y-96735000D02*
X158261252Y-96735000D01*
%TO.C,D2*%
X165765000Y-102515000D02*
X165765000Y-104800000D01*
X167235000Y-102515000D02*
X165765000Y-102515000D01*
X167235000Y-104800000D02*
X167235000Y-102515000D01*
%TO.C,C5*%
X142338747Y-105265000D02*
X142861253Y-105265000D01*
X142338747Y-106735000D02*
X142861253Y-106735000D01*
%TO.C,C1*%
X157261253Y-106265000D02*
X156738747Y-106265000D01*
X157261253Y-107735000D02*
X156738747Y-107735000D01*
%TO.C,C12*%
X156865000Y-85938747D02*
X156865000Y-86461253D01*
X158335000Y-85938747D02*
X158335000Y-86461253D01*
%TO.C,L1*%
X152390000Y-76890000D02*
X158610000Y-76890000D01*
X158610000Y-83110000D02*
X152390000Y-83110000D01*
%TO.C,C6*%
X142338747Y-102665000D02*
X142861253Y-102665000D01*
X142338747Y-104135000D02*
X142861253Y-104135000D01*
D14*
%TO.C,G\u002A\u002A\u002A*%
G36*
X155375600Y-90460998D02*
G01*
X155375600Y-90648798D01*
X155563401Y-90648798D01*
X155751201Y-90648798D01*
X155751201Y-90836598D01*
X155751201Y-91024399D01*
X155939001Y-91024399D01*
X156126802Y-91024399D01*
X156126802Y-91399999D01*
X156126802Y-91775600D01*
X155939001Y-91775600D01*
X155751201Y-91775600D01*
X155751201Y-91963401D01*
X155751201Y-92151201D01*
X155563401Y-92151201D01*
X155375600Y-92151201D01*
X155375600Y-92339001D01*
X155375600Y-92526802D01*
X154999999Y-92526802D01*
X154624399Y-92526802D01*
X154624399Y-92339001D01*
X154624399Y-92151201D01*
X154436598Y-92151201D01*
X154248798Y-92151201D01*
X154248798Y-91963401D01*
X154248798Y-91775600D01*
X154060998Y-91775600D01*
X153873197Y-91775600D01*
X153873197Y-91399999D01*
X153873197Y-91024399D01*
X154060998Y-91024399D01*
X154248798Y-91024399D01*
X154248798Y-90836598D01*
X154248798Y-90648798D01*
X154436598Y-90648798D01*
X154624399Y-90648798D01*
X154624399Y-90460998D01*
X154624399Y-90273197D01*
X154999999Y-90273197D01*
X155375600Y-90273197D01*
X155375600Y-90460998D01*
G37*
G36*
X155375600Y-88582994D02*
G01*
X155375600Y-88770794D01*
X155563401Y-88770794D01*
X155751201Y-88770794D01*
X155751201Y-88958595D01*
X155751201Y-89146395D01*
X155939001Y-89146395D01*
X156126802Y-89146395D01*
X156126802Y-89334195D01*
X156126802Y-89521996D01*
X157065803Y-89521996D01*
X158004805Y-89521996D01*
X158004805Y-89709796D01*
X158004805Y-89897596D01*
X157817005Y-89897596D01*
X157629205Y-89897596D01*
X157629205Y-90085397D01*
X157629205Y-90273197D01*
X157441404Y-90273197D01*
X157253604Y-90273197D01*
X157253604Y-90460998D01*
X157253604Y-90648798D01*
X157441404Y-90648798D01*
X157629205Y-90648798D01*
X157629205Y-90836598D01*
X157629205Y-91024399D01*
X157817005Y-91024399D01*
X158004805Y-91024399D01*
X158004805Y-91399999D01*
X158004805Y-91775600D01*
X157817005Y-91775600D01*
X157629205Y-91775600D01*
X157629205Y-91963401D01*
X157629205Y-92151201D01*
X157441404Y-92151201D01*
X157253604Y-92151201D01*
X157253604Y-92339001D01*
X157253604Y-92526802D01*
X157441404Y-92526802D01*
X157629205Y-92526802D01*
X157629205Y-92714602D01*
X157629205Y-92902402D01*
X157817005Y-92902402D01*
X158004805Y-92902402D01*
X158004805Y-93090203D01*
X158004805Y-93278003D01*
X157065803Y-93278003D01*
X156126802Y-93278003D01*
X156126802Y-93465803D01*
X156126802Y-93653604D01*
X155939001Y-93653604D01*
X155751201Y-93653604D01*
X155751201Y-93841404D01*
X155751201Y-94029205D01*
X155563401Y-94029205D01*
X155375600Y-94029205D01*
X155375600Y-94217005D01*
X155375600Y-94404805D01*
X154999999Y-94404805D01*
X154624399Y-94404805D01*
X154624399Y-94217005D01*
X154624399Y-94029205D01*
X154436598Y-94029205D01*
X154248798Y-94029205D01*
X154248798Y-93841404D01*
X154248798Y-93653604D01*
X154060998Y-93653604D01*
X153873197Y-93653604D01*
X153873197Y-93465803D01*
X153873197Y-93278003D01*
X152934195Y-93278003D01*
X151995194Y-93278003D01*
X151995194Y-93090203D01*
X151995194Y-92902402D01*
X152182994Y-92902402D01*
X152370794Y-92902402D01*
X152370794Y-92714602D01*
X152370794Y-92526802D01*
X152558595Y-92526802D01*
X152746395Y-92526802D01*
X152746395Y-92339001D01*
X152746395Y-92151201D01*
X152558595Y-92151201D01*
X152370794Y-92151201D01*
X152370794Y-91963401D01*
X152370794Y-91775600D01*
X152182994Y-91775600D01*
X151995194Y-91775600D01*
X151995194Y-91399999D01*
X153121996Y-91399999D01*
X153121996Y-91775600D01*
X153309796Y-91775600D01*
X153497596Y-91775600D01*
X153497596Y-91963401D01*
X153497596Y-92151201D01*
X153685397Y-92151201D01*
X153873197Y-92151201D01*
X153873197Y-92339001D01*
X153873197Y-92526802D01*
X154060998Y-92526802D01*
X154248798Y-92526802D01*
X154248798Y-92714602D01*
X154248798Y-92902402D01*
X154436598Y-92902402D01*
X154624399Y-92902402D01*
X154624399Y-93090203D01*
X154624399Y-93278003D01*
X154999999Y-93278003D01*
X155375600Y-93278003D01*
X155375600Y-93090203D01*
X155375600Y-92902402D01*
X155563401Y-92902402D01*
X155751201Y-92902402D01*
X155751201Y-92714602D01*
X155751201Y-92526802D01*
X155939001Y-92526802D01*
X156126802Y-92526802D01*
X156126802Y-92339001D01*
X156126802Y-92151201D01*
X156314602Y-92151201D01*
X156502402Y-92151201D01*
X156502402Y-91963401D01*
X156502402Y-91775600D01*
X156690203Y-91775600D01*
X156878003Y-91775600D01*
X156878003Y-91399999D01*
X156878003Y-91024399D01*
X156690203Y-91024399D01*
X156502402Y-91024399D01*
X156502402Y-90836598D01*
X156502402Y-90648798D01*
X156314602Y-90648798D01*
X156126802Y-90648798D01*
X156126802Y-90460998D01*
X156126802Y-90273197D01*
X155939001Y-90273197D01*
X155751201Y-90273197D01*
X155751201Y-90085397D01*
X155751201Y-89897596D01*
X155563401Y-89897596D01*
X155375600Y-89897596D01*
X155375600Y-89709796D01*
X155375600Y-89521996D01*
X154999999Y-89521996D01*
X154624399Y-89521996D01*
X154624399Y-89709796D01*
X154624399Y-89897596D01*
X154436598Y-89897596D01*
X154248798Y-89897596D01*
X154248798Y-90085397D01*
X154248798Y-90273197D01*
X154060998Y-90273197D01*
X153873197Y-90273197D01*
X153873197Y-90460998D01*
X153873197Y-90648798D01*
X153685397Y-90648798D01*
X153497596Y-90648798D01*
X153497596Y-90836598D01*
X153497596Y-91024399D01*
X153309796Y-91024399D01*
X153121996Y-91024399D01*
X153121996Y-91399999D01*
X151995194Y-91399999D01*
X151995194Y-91024399D01*
X152182994Y-91024399D01*
X152370794Y-91024399D01*
X152370794Y-90836598D01*
X152370794Y-90648798D01*
X152558595Y-90648798D01*
X152746395Y-90648798D01*
X152746395Y-90460998D01*
X152746395Y-90273197D01*
X152558595Y-90273197D01*
X152370794Y-90273197D01*
X152370794Y-90085397D01*
X152370794Y-89897596D01*
X152182994Y-89897596D01*
X151995194Y-89897596D01*
X151995194Y-89709796D01*
X151995194Y-89521996D01*
X152934195Y-89521996D01*
X153873197Y-89521996D01*
X153873197Y-89334195D01*
X153873197Y-89146395D01*
X154060998Y-89146395D01*
X154248798Y-89146395D01*
X154248798Y-88958595D01*
X154248798Y-88770794D01*
X154436598Y-88770794D01*
X154624399Y-88770794D01*
X154624399Y-88582994D01*
X154624399Y-88395194D01*
X154999999Y-88395194D01*
X155375600Y-88395194D01*
X155375600Y-88582994D01*
G37*
G36*
X179900738Y-103599999D02*
G01*
X179900738Y-104800590D01*
X179497414Y-104800590D01*
X179094091Y-104800590D01*
X179094091Y-104472304D01*
X179094091Y-104144017D01*
X178399999Y-104144017D01*
X177705907Y-104144017D01*
X177705907Y-104472304D01*
X177705907Y-104800590D01*
X177302584Y-104800590D01*
X176899261Y-104800590D01*
X176899261Y-103735534D01*
X176899261Y-103268586D01*
X176899261Y-102943426D01*
X177705907Y-102943426D01*
X177705907Y-103268586D01*
X177706609Y-103375458D01*
X177708553Y-103469051D01*
X177711501Y-103543014D01*
X177715214Y-103590996D01*
X177718644Y-103606483D01*
X177739705Y-103609277D01*
X177793996Y-103611591D01*
X177877228Y-103613376D01*
X177985116Y-103614583D01*
X178113373Y-103615165D01*
X178257711Y-103615072D01*
X178408046Y-103614299D01*
X179084711Y-103609379D01*
X179089834Y-103276403D01*
X179094956Y-102943426D01*
X178400432Y-102943426D01*
X177705907Y-102943426D01*
X176899261Y-102943426D01*
X176899261Y-102670478D01*
X177035706Y-102534943D01*
X177172152Y-102399409D01*
X178536445Y-102399409D01*
X179900738Y-102399409D01*
X179900738Y-103599999D01*
G37*
%TD*%
M02*
