%TF.GenerationSoftware,KiCad,Pcbnew,10.0.3*%
%TF.CreationDate,2026-06-22T19:29:37-04:00*%
%TF.ProjectId,watch,77617463-682e-46b6-9963-61645f706362,rev?*%
%TF.SameCoordinates,Original*%
%TF.FileFunction,Legend,Bot*%
%TF.FilePolarity,Positive*%
%FSLAX46Y46*%
G04 Gerber Fmt 4.6, Leading zero omitted, Abs format (unit mm)*
G04 Created by KiCad (PCBNEW 10.0.3) date 2026-06-22 19:29:37*
%MOMM*%
%LPD*%
G01*
G04 APERTURE LIST*
%ADD10C,0.100000*%
%ADD11C,0.187500*%
%ADD12C,0.200000*%
%ADD13C,0.150000*%
%ADD14C,0.120000*%
%ADD15C,0.000000*%
%ADD16C,0.152000*%
%ADD17C,0.152500*%
%ADD18C,0.254000*%
G04 APERTURE END LIST*
D10*
X112100000Y-77000000D02*
X174100000Y-77000000D01*
X112100000Y-113000000D02*
X112100000Y-77000000D01*
X174100000Y-77000000D02*
X174100000Y-113000000D01*
X174100000Y-113000000D02*
X112100000Y-113000000D01*
D11*
X173186168Y-83267869D02*
X173186168Y-83458345D01*
X172805216Y-83267869D02*
X172805216Y-83458345D01*
X172043311Y-83744059D02*
X171900454Y-83791678D01*
X171900454Y-83791678D02*
X171852835Y-83839297D01*
X171852835Y-83839297D02*
X171805216Y-83934535D01*
X171805216Y-83934535D02*
X171805216Y-84077392D01*
X171805216Y-84077392D02*
X171852835Y-84172630D01*
X171852835Y-84172630D02*
X171900454Y-84220250D01*
X171900454Y-84220250D02*
X171995692Y-84267869D01*
X171995692Y-84267869D02*
X172376644Y-84267869D01*
X172376644Y-84267869D02*
X172376644Y-83267869D01*
X172376644Y-83267869D02*
X172043311Y-83267869D01*
X172043311Y-83267869D02*
X171948073Y-83315488D01*
X171948073Y-83315488D02*
X171900454Y-83363107D01*
X171900454Y-83363107D02*
X171852835Y-83458345D01*
X171852835Y-83458345D02*
X171852835Y-83553583D01*
X171852835Y-83553583D02*
X171900454Y-83648821D01*
X171900454Y-83648821D02*
X171948073Y-83696440D01*
X171948073Y-83696440D02*
X172043311Y-83744059D01*
X172043311Y-83744059D02*
X172376644Y-83744059D01*
X170995692Y-84220250D02*
X171090930Y-84267869D01*
X171090930Y-84267869D02*
X171281406Y-84267869D01*
X171281406Y-84267869D02*
X171376644Y-84220250D01*
X171376644Y-84220250D02*
X171424263Y-84125011D01*
X171424263Y-84125011D02*
X171424263Y-83744059D01*
X171424263Y-83744059D02*
X171376644Y-83648821D01*
X171376644Y-83648821D02*
X171281406Y-83601202D01*
X171281406Y-83601202D02*
X171090930Y-83601202D01*
X171090930Y-83601202D02*
X170995692Y-83648821D01*
X170995692Y-83648821D02*
X170948073Y-83744059D01*
X170948073Y-83744059D02*
X170948073Y-83839297D01*
X170948073Y-83839297D02*
X171424263Y-83934535D01*
X170519501Y-84267869D02*
X170519501Y-83601202D01*
X170519501Y-83791678D02*
X170471882Y-83696440D01*
X170471882Y-83696440D02*
X170424263Y-83648821D01*
X170424263Y-83648821D02*
X170329025Y-83601202D01*
X170329025Y-83601202D02*
X170233787Y-83601202D01*
X169900453Y-83601202D02*
X169900453Y-84267869D01*
X169900453Y-83696440D02*
X169852834Y-83648821D01*
X169852834Y-83648821D02*
X169757596Y-83601202D01*
X169757596Y-83601202D02*
X169614739Y-83601202D01*
X169614739Y-83601202D02*
X169519501Y-83648821D01*
X169519501Y-83648821D02*
X169471882Y-83744059D01*
X169471882Y-83744059D02*
X169471882Y-84267869D01*
X168995691Y-84267869D02*
X168995691Y-83601202D01*
X168995691Y-83267869D02*
X169043310Y-83315488D01*
X169043310Y-83315488D02*
X168995691Y-83363107D01*
X168995691Y-83363107D02*
X168948072Y-83315488D01*
X168948072Y-83315488D02*
X168995691Y-83267869D01*
X168995691Y-83267869D02*
X168995691Y-83363107D01*
X168138549Y-84220250D02*
X168233787Y-84267869D01*
X168233787Y-84267869D02*
X168424263Y-84267869D01*
X168424263Y-84267869D02*
X168519501Y-84220250D01*
X168519501Y-84220250D02*
X168567120Y-84125011D01*
X168567120Y-84125011D02*
X168567120Y-83744059D01*
X168567120Y-83744059D02*
X168519501Y-83648821D01*
X168519501Y-83648821D02*
X168424263Y-83601202D01*
X168424263Y-83601202D02*
X168233787Y-83601202D01*
X168233787Y-83601202D02*
X168138549Y-83648821D01*
X168138549Y-83648821D02*
X168090930Y-83744059D01*
X168090930Y-83744059D02*
X168090930Y-83839297D01*
X168090930Y-83839297D02*
X168567120Y-83934535D01*
X167709977Y-83267869D02*
X167709977Y-83458345D01*
X167329025Y-83267869D02*
X167329025Y-83458345D01*
D12*
X173277945Y-81712457D02*
X173230326Y-81664838D01*
X173230326Y-81664838D02*
X173135088Y-81617219D01*
X173135088Y-81617219D02*
X172896993Y-81617219D01*
X172896993Y-81617219D02*
X172801755Y-81664838D01*
X172801755Y-81664838D02*
X172754136Y-81712457D01*
X172754136Y-81712457D02*
X172706517Y-81807695D01*
X172706517Y-81807695D02*
X172706517Y-81902933D01*
X172706517Y-81902933D02*
X172754136Y-82045790D01*
X172754136Y-82045790D02*
X173325564Y-82617219D01*
X173325564Y-82617219D02*
X172706517Y-82617219D01*
X172087469Y-81617219D02*
X171992231Y-81617219D01*
X171992231Y-81617219D02*
X171896993Y-81664838D01*
X171896993Y-81664838D02*
X171849374Y-81712457D01*
X171849374Y-81712457D02*
X171801755Y-81807695D01*
X171801755Y-81807695D02*
X171754136Y-81998171D01*
X171754136Y-81998171D02*
X171754136Y-82236266D01*
X171754136Y-82236266D02*
X171801755Y-82426742D01*
X171801755Y-82426742D02*
X171849374Y-82521980D01*
X171849374Y-82521980D02*
X171896993Y-82569600D01*
X171896993Y-82569600D02*
X171992231Y-82617219D01*
X171992231Y-82617219D02*
X172087469Y-82617219D01*
X172087469Y-82617219D02*
X172182707Y-82569600D01*
X172182707Y-82569600D02*
X172230326Y-82521980D01*
X172230326Y-82521980D02*
X172277945Y-82426742D01*
X172277945Y-82426742D02*
X172325564Y-82236266D01*
X172325564Y-82236266D02*
X172325564Y-81998171D01*
X172325564Y-81998171D02*
X172277945Y-81807695D01*
X172277945Y-81807695D02*
X172230326Y-81712457D01*
X172230326Y-81712457D02*
X172182707Y-81664838D01*
X172182707Y-81664838D02*
X172087469Y-81617219D01*
X171135088Y-81617219D02*
X171039850Y-81617219D01*
X171039850Y-81617219D02*
X170944612Y-81664838D01*
X170944612Y-81664838D02*
X170896993Y-81712457D01*
X170896993Y-81712457D02*
X170849374Y-81807695D01*
X170849374Y-81807695D02*
X170801755Y-81998171D01*
X170801755Y-81998171D02*
X170801755Y-82236266D01*
X170801755Y-82236266D02*
X170849374Y-82426742D01*
X170849374Y-82426742D02*
X170896993Y-82521980D01*
X170896993Y-82521980D02*
X170944612Y-82569600D01*
X170944612Y-82569600D02*
X171039850Y-82617219D01*
X171039850Y-82617219D02*
X171135088Y-82617219D01*
X171135088Y-82617219D02*
X171230326Y-82569600D01*
X171230326Y-82569600D02*
X171277945Y-82521980D01*
X171277945Y-82521980D02*
X171325564Y-82426742D01*
X171325564Y-82426742D02*
X171373183Y-82236266D01*
X171373183Y-82236266D02*
X171373183Y-81998171D01*
X171373183Y-81998171D02*
X171325564Y-81807695D01*
X171325564Y-81807695D02*
X171277945Y-81712457D01*
X171277945Y-81712457D02*
X171230326Y-81664838D01*
X171230326Y-81664838D02*
X171135088Y-81617219D01*
X170182707Y-81617219D02*
X170087469Y-81617219D01*
X170087469Y-81617219D02*
X169992231Y-81664838D01*
X169992231Y-81664838D02*
X169944612Y-81712457D01*
X169944612Y-81712457D02*
X169896993Y-81807695D01*
X169896993Y-81807695D02*
X169849374Y-81998171D01*
X169849374Y-81998171D02*
X169849374Y-82236266D01*
X169849374Y-82236266D02*
X169896993Y-82426742D01*
X169896993Y-82426742D02*
X169944612Y-82521980D01*
X169944612Y-82521980D02*
X169992231Y-82569600D01*
X169992231Y-82569600D02*
X170087469Y-82617219D01*
X170087469Y-82617219D02*
X170182707Y-82617219D01*
X170182707Y-82617219D02*
X170277945Y-82569600D01*
X170277945Y-82569600D02*
X170325564Y-82521980D01*
X170325564Y-82521980D02*
X170373183Y-82426742D01*
X170373183Y-82426742D02*
X170420802Y-82236266D01*
X170420802Y-82236266D02*
X170420802Y-81998171D01*
X170420802Y-81998171D02*
X170373183Y-81807695D01*
X170373183Y-81807695D02*
X170325564Y-81712457D01*
X170325564Y-81712457D02*
X170277945Y-81664838D01*
X170277945Y-81664838D02*
X170182707Y-81617219D01*
X169420802Y-82617219D02*
X169420802Y-81950552D01*
X169420802Y-82045790D02*
X169373183Y-81998171D01*
X169373183Y-81998171D02*
X169277945Y-81950552D01*
X169277945Y-81950552D02*
X169135088Y-81950552D01*
X169135088Y-81950552D02*
X169039850Y-81998171D01*
X169039850Y-81998171D02*
X168992231Y-82093409D01*
X168992231Y-82093409D02*
X168992231Y-82617219D01*
X168992231Y-82093409D02*
X168944612Y-81998171D01*
X168944612Y-81998171D02*
X168849374Y-81950552D01*
X168849374Y-81950552D02*
X168706517Y-81950552D01*
X168706517Y-81950552D02*
X168611278Y-81998171D01*
X168611278Y-81998171D02*
X168563659Y-82093409D01*
X168563659Y-82093409D02*
X168563659Y-82617219D01*
X168135088Y-82331504D02*
X167658898Y-82331504D01*
X168230326Y-82617219D02*
X167896993Y-81617219D01*
X167896993Y-81617219D02*
X167563660Y-82617219D01*
X167230326Y-82617219D02*
X167230326Y-81617219D01*
X166801755Y-82617219D02*
X166801755Y-82093409D01*
X166801755Y-82093409D02*
X166849374Y-81998171D01*
X166849374Y-81998171D02*
X166944612Y-81950552D01*
X166944612Y-81950552D02*
X167087469Y-81950552D01*
X167087469Y-81950552D02*
X167182707Y-81998171D01*
X167182707Y-81998171D02*
X167230326Y-82045790D01*
X165230326Y-82093409D02*
X165087469Y-82141028D01*
X165087469Y-82141028D02*
X165039850Y-82188647D01*
X165039850Y-82188647D02*
X164992231Y-82283885D01*
X164992231Y-82283885D02*
X164992231Y-82426742D01*
X164992231Y-82426742D02*
X165039850Y-82521980D01*
X165039850Y-82521980D02*
X165087469Y-82569600D01*
X165087469Y-82569600D02*
X165182707Y-82617219D01*
X165182707Y-82617219D02*
X165563659Y-82617219D01*
X165563659Y-82617219D02*
X165563659Y-81617219D01*
X165563659Y-81617219D02*
X165230326Y-81617219D01*
X165230326Y-81617219D02*
X165135088Y-81664838D01*
X165135088Y-81664838D02*
X165087469Y-81712457D01*
X165087469Y-81712457D02*
X165039850Y-81807695D01*
X165039850Y-81807695D02*
X165039850Y-81902933D01*
X165039850Y-81902933D02*
X165087469Y-81998171D01*
X165087469Y-81998171D02*
X165135088Y-82045790D01*
X165135088Y-82045790D02*
X165230326Y-82093409D01*
X165230326Y-82093409D02*
X165563659Y-82093409D01*
X164135088Y-82617219D02*
X164135088Y-82093409D01*
X164135088Y-82093409D02*
X164182707Y-81998171D01*
X164182707Y-81998171D02*
X164277945Y-81950552D01*
X164277945Y-81950552D02*
X164468421Y-81950552D01*
X164468421Y-81950552D02*
X164563659Y-81998171D01*
X164135088Y-82569600D02*
X164230326Y-82617219D01*
X164230326Y-82617219D02*
X164468421Y-82617219D01*
X164468421Y-82617219D02*
X164563659Y-82569600D01*
X164563659Y-82569600D02*
X164611278Y-82474361D01*
X164611278Y-82474361D02*
X164611278Y-82379123D01*
X164611278Y-82379123D02*
X164563659Y-82283885D01*
X164563659Y-82283885D02*
X164468421Y-82236266D01*
X164468421Y-82236266D02*
X164230326Y-82236266D01*
X164230326Y-82236266D02*
X164135088Y-82188647D01*
X163801754Y-81950552D02*
X163420802Y-81950552D01*
X163658897Y-81617219D02*
X163658897Y-82474361D01*
X163658897Y-82474361D02*
X163611278Y-82569600D01*
X163611278Y-82569600D02*
X163516040Y-82617219D01*
X163516040Y-82617219D02*
X163420802Y-82617219D01*
X163230325Y-81950552D02*
X162849373Y-81950552D01*
X163087468Y-81617219D02*
X163087468Y-82474361D01*
X163087468Y-82474361D02*
X163039849Y-82569600D01*
X163039849Y-82569600D02*
X162944611Y-82617219D01*
X162944611Y-82617219D02*
X162849373Y-82617219D01*
X162135087Y-82569600D02*
X162230325Y-82617219D01*
X162230325Y-82617219D02*
X162420801Y-82617219D01*
X162420801Y-82617219D02*
X162516039Y-82569600D01*
X162516039Y-82569600D02*
X162563658Y-82474361D01*
X162563658Y-82474361D02*
X162563658Y-82093409D01*
X162563658Y-82093409D02*
X162516039Y-81998171D01*
X162516039Y-81998171D02*
X162420801Y-81950552D01*
X162420801Y-81950552D02*
X162230325Y-81950552D01*
X162230325Y-81950552D02*
X162135087Y-81998171D01*
X162135087Y-81998171D02*
X162087468Y-82093409D01*
X162087468Y-82093409D02*
X162087468Y-82188647D01*
X162087468Y-82188647D02*
X162563658Y-82283885D01*
X161658896Y-82617219D02*
X161658896Y-81950552D01*
X161658896Y-82141028D02*
X161611277Y-82045790D01*
X161611277Y-82045790D02*
X161563658Y-81998171D01*
X161563658Y-81998171D02*
X161468420Y-81950552D01*
X161468420Y-81950552D02*
X161373182Y-81950552D01*
X161135086Y-81950552D02*
X160896991Y-82617219D01*
X160658896Y-81950552D02*
X160896991Y-82617219D01*
X160896991Y-82617219D02*
X160992229Y-82855314D01*
X160992229Y-82855314D02*
X161039848Y-82902933D01*
X161039848Y-82902933D02*
X161135086Y-82950552D01*
D13*
X165766666Y-76554819D02*
X166099999Y-76078628D01*
X166338094Y-76554819D02*
X166338094Y-75554819D01*
X166338094Y-75554819D02*
X165957142Y-75554819D01*
X165957142Y-75554819D02*
X165861904Y-75602438D01*
X165861904Y-75602438D02*
X165814285Y-75650057D01*
X165814285Y-75650057D02*
X165766666Y-75745295D01*
X165766666Y-75745295D02*
X165766666Y-75888152D01*
X165766666Y-75888152D02*
X165814285Y-75983390D01*
X165814285Y-75983390D02*
X165861904Y-76031009D01*
X165861904Y-76031009D02*
X165957142Y-76078628D01*
X165957142Y-76078628D02*
X166338094Y-76078628D01*
X164814285Y-76554819D02*
X165385713Y-76554819D01*
X165099999Y-76554819D02*
X165099999Y-75554819D01*
X165099999Y-75554819D02*
X165195237Y-75697676D01*
X165195237Y-75697676D02*
X165290475Y-75792914D01*
X165290475Y-75792914D02*
X165385713Y-75840533D01*
X178948332Y-85007200D02*
X178805475Y-85054819D01*
X178805475Y-85054819D02*
X178567380Y-85054819D01*
X178567380Y-85054819D02*
X178472142Y-85007200D01*
X178472142Y-85007200D02*
X178424523Y-84959580D01*
X178424523Y-84959580D02*
X178376904Y-84864342D01*
X178376904Y-84864342D02*
X178376904Y-84769104D01*
X178376904Y-84769104D02*
X178424523Y-84673866D01*
X178424523Y-84673866D02*
X178472142Y-84626247D01*
X178472142Y-84626247D02*
X178567380Y-84578628D01*
X178567380Y-84578628D02*
X178757856Y-84531009D01*
X178757856Y-84531009D02*
X178853094Y-84483390D01*
X178853094Y-84483390D02*
X178900713Y-84435771D01*
X178900713Y-84435771D02*
X178948332Y-84340533D01*
X178948332Y-84340533D02*
X178948332Y-84245295D01*
X178948332Y-84245295D02*
X178900713Y-84150057D01*
X178900713Y-84150057D02*
X178853094Y-84102438D01*
X178853094Y-84102438D02*
X178757856Y-84054819D01*
X178757856Y-84054819D02*
X178519761Y-84054819D01*
X178519761Y-84054819D02*
X178376904Y-84102438D01*
X178043570Y-84054819D02*
X177805475Y-85054819D01*
X177805475Y-85054819D02*
X177614999Y-84340533D01*
X177614999Y-84340533D02*
X177424523Y-85054819D01*
X177424523Y-85054819D02*
X177186428Y-84054819D01*
X176853094Y-84150057D02*
X176805475Y-84102438D01*
X176805475Y-84102438D02*
X176710237Y-84054819D01*
X176710237Y-84054819D02*
X176472142Y-84054819D01*
X176472142Y-84054819D02*
X176376904Y-84102438D01*
X176376904Y-84102438D02*
X176329285Y-84150057D01*
X176329285Y-84150057D02*
X176281666Y-84245295D01*
X176281666Y-84245295D02*
X176281666Y-84340533D01*
X176281666Y-84340533D02*
X176329285Y-84483390D01*
X176329285Y-84483390D02*
X176900713Y-85054819D01*
X176900713Y-85054819D02*
X176281666Y-85054819D01*
X163466666Y-76554819D02*
X163799999Y-76078628D01*
X164038094Y-76554819D02*
X164038094Y-75554819D01*
X164038094Y-75554819D02*
X163657142Y-75554819D01*
X163657142Y-75554819D02*
X163561904Y-75602438D01*
X163561904Y-75602438D02*
X163514285Y-75650057D01*
X163514285Y-75650057D02*
X163466666Y-75745295D01*
X163466666Y-75745295D02*
X163466666Y-75888152D01*
X163466666Y-75888152D02*
X163514285Y-75983390D01*
X163514285Y-75983390D02*
X163561904Y-76031009D01*
X163561904Y-76031009D02*
X163657142Y-76078628D01*
X163657142Y-76078628D02*
X164038094Y-76078628D01*
X163085713Y-75650057D02*
X163038094Y-75602438D01*
X163038094Y-75602438D02*
X162942856Y-75554819D01*
X162942856Y-75554819D02*
X162704761Y-75554819D01*
X162704761Y-75554819D02*
X162609523Y-75602438D01*
X162609523Y-75602438D02*
X162561904Y-75650057D01*
X162561904Y-75650057D02*
X162514285Y-75745295D01*
X162514285Y-75745295D02*
X162514285Y-75840533D01*
X162514285Y-75840533D02*
X162561904Y-75983390D01*
X162561904Y-75983390D02*
X163133332Y-76554819D01*
X163133332Y-76554819D02*
X162514285Y-76554819D01*
X178933332Y-80207200D02*
X178790475Y-80254819D01*
X178790475Y-80254819D02*
X178552380Y-80254819D01*
X178552380Y-80254819D02*
X178457142Y-80207200D01*
X178457142Y-80207200D02*
X178409523Y-80159580D01*
X178409523Y-80159580D02*
X178361904Y-80064342D01*
X178361904Y-80064342D02*
X178361904Y-79969104D01*
X178361904Y-79969104D02*
X178409523Y-79873866D01*
X178409523Y-79873866D02*
X178457142Y-79826247D01*
X178457142Y-79826247D02*
X178552380Y-79778628D01*
X178552380Y-79778628D02*
X178742856Y-79731009D01*
X178742856Y-79731009D02*
X178838094Y-79683390D01*
X178838094Y-79683390D02*
X178885713Y-79635771D01*
X178885713Y-79635771D02*
X178933332Y-79540533D01*
X178933332Y-79540533D02*
X178933332Y-79445295D01*
X178933332Y-79445295D02*
X178885713Y-79350057D01*
X178885713Y-79350057D02*
X178838094Y-79302438D01*
X178838094Y-79302438D02*
X178742856Y-79254819D01*
X178742856Y-79254819D02*
X178504761Y-79254819D01*
X178504761Y-79254819D02*
X178361904Y-79302438D01*
X178028570Y-79254819D02*
X177790475Y-80254819D01*
X177790475Y-80254819D02*
X177599999Y-79540533D01*
X177599999Y-79540533D02*
X177409523Y-80254819D01*
X177409523Y-80254819D02*
X177171428Y-79254819D01*
X176266666Y-80254819D02*
X176838094Y-80254819D01*
X176552380Y-80254819D02*
X176552380Y-79254819D01*
X176552380Y-79254819D02*
X176647618Y-79397676D01*
X176647618Y-79397676D02*
X176742856Y-79492914D01*
X176742856Y-79492914D02*
X176838094Y-79540533D01*
%TO.C,R1*%
D14*
X171945276Y-75477500D02*
X172454724Y-75477500D01*
X171945276Y-76522500D02*
X172454724Y-76522500D01*
D15*
%TO.C,G\u002A\u002A\u002A*%
G36*
X181590375Y-98929265D02*
G01*
X181611810Y-98990280D01*
X181603938Y-99096987D01*
X181590584Y-99156925D01*
X181569328Y-99187183D01*
X181527743Y-99181098D01*
X181451338Y-99143044D01*
X181357069Y-99092794D01*
X181432659Y-99002960D01*
X181478928Y-98954930D01*
X181544468Y-98916597D01*
X181590375Y-98929265D01*
G37*
G36*
X176367107Y-90106147D02*
G01*
X176427969Y-90157748D01*
X176441059Y-90179527D01*
X176452793Y-90258984D01*
X176409730Y-90345217D01*
X176400634Y-90355661D01*
X176343772Y-90383023D01*
X176284789Y-90367227D01*
X176238520Y-90316549D01*
X176219801Y-90239266D01*
X176221123Y-90215564D01*
X176249151Y-90140746D01*
X176302657Y-90102377D01*
X176367107Y-90106147D01*
G37*
G36*
X181253014Y-98804536D02*
G01*
X181280451Y-98851459D01*
X181281252Y-98865819D01*
X181273848Y-98973399D01*
X181243723Y-99046131D01*
X181210660Y-99061902D01*
X181142331Y-99064987D01*
X181067885Y-99052023D01*
X181013134Y-99025337D01*
X181006565Y-99006185D01*
X181017965Y-98950777D01*
X181048385Y-98882638D01*
X181088246Y-98821608D01*
X181127965Y-98787529D01*
X181193429Y-98780517D01*
X181253014Y-98804536D01*
G37*
G36*
X163025362Y-78401001D02*
G01*
X163025362Y-78683537D01*
X162530924Y-78683537D01*
X162036486Y-78683537D01*
X162036486Y-79375751D01*
X162036486Y-80067964D01*
X161612682Y-80067964D01*
X161188877Y-80067964D01*
X161188877Y-79375751D01*
X161188877Y-78683537D01*
X160708566Y-78683537D01*
X160228254Y-78683537D01*
X160228254Y-78401001D01*
X160228254Y-78118465D01*
X161626808Y-78118465D01*
X163025362Y-78118465D01*
X163025362Y-78401001D01*
G37*
G36*
X152995329Y-79093215D02*
G01*
X152995329Y-80067964D01*
X152571525Y-80067964D01*
X152147720Y-80067964D01*
X152147720Y-79375751D01*
X152147720Y-78683537D01*
X151596775Y-78683537D01*
X151045830Y-78683537D01*
X151045830Y-79375751D01*
X151045830Y-80067964D01*
X150622025Y-80067964D01*
X150198221Y-80067964D01*
X150198221Y-79228390D01*
X150198221Y-78388815D01*
X150331364Y-78253640D01*
X150464506Y-78118465D01*
X151729918Y-78118465D01*
X152995329Y-78118465D01*
X152995329Y-79093215D01*
G37*
G36*
X164409789Y-78810678D02*
G01*
X164409789Y-79502892D01*
X164960735Y-79502892D01*
X165511680Y-79502892D01*
X165511680Y-78810678D01*
X165511680Y-78118465D01*
X165935485Y-78118465D01*
X166359289Y-78118465D01*
X166359289Y-78958039D01*
X166359289Y-79797614D01*
X166226146Y-79932789D01*
X166093004Y-80067964D01*
X164962768Y-80067964D01*
X163832531Y-80067964D01*
X163697356Y-79934822D01*
X163562181Y-79801679D01*
X163562181Y-78960072D01*
X163562181Y-78118465D01*
X163985985Y-78118465D01*
X164409789Y-78118465D01*
X164409789Y-78810678D01*
G37*
G36*
X181760627Y-103981903D02*
G01*
X181785763Y-103993747D01*
X181785717Y-103994513D01*
X181762262Y-104026046D01*
X181704092Y-104077259D01*
X181623304Y-104137451D01*
X181619273Y-104140246D01*
X181536597Y-104195951D01*
X181473065Y-104235906D01*
X181442139Y-104251627D01*
X181427778Y-104231902D01*
X181411855Y-104176031D01*
X181399392Y-104105523D01*
X181394165Y-104042198D01*
X181399951Y-104007873D01*
X181402872Y-104005545D01*
X181447369Y-103991891D01*
X181522792Y-103982064D01*
X181611742Y-103976698D01*
X181696821Y-103976432D01*
X181760627Y-103981903D01*
G37*
G36*
X176190069Y-93625523D02*
G01*
X176228009Y-93648486D01*
X176286749Y-93697503D01*
X176370688Y-93776423D01*
X176484226Y-93889098D01*
X176631764Y-94039377D01*
X176648740Y-94056810D01*
X176798018Y-94210997D01*
X176951035Y-94370425D01*
X177096950Y-94523712D01*
X177224923Y-94659475D01*
X177324113Y-94766333D01*
X177575974Y-95041232D01*
X177575974Y-95333760D01*
X177575085Y-95423278D01*
X177571212Y-95532422D01*
X177564972Y-95610631D01*
X177557138Y-95645124D01*
X177555703Y-95646491D01*
X177512283Y-95663960D01*
X177481835Y-95644260D01*
X177415474Y-95584070D01*
X177315465Y-95485292D01*
X177183705Y-95349844D01*
X177022092Y-95179644D01*
X176832523Y-94976610D01*
X176767178Y-94906333D01*
X176632051Y-94761775D01*
X176491982Y-94612710D01*
X176368586Y-94482172D01*
X176135947Y-94237152D01*
X176135926Y-93954616D01*
X176136949Y-93876875D01*
X176142499Y-93762104D01*
X176151791Y-93674889D01*
X176163591Y-93629699D01*
X176168528Y-93624763D01*
X176190069Y-93625523D01*
G37*
G36*
X176197738Y-95207562D02*
G01*
X176239675Y-95235256D01*
X176303842Y-95291746D01*
X176395472Y-95381394D01*
X176519798Y-95508565D01*
X176590393Y-95581664D01*
X176800853Y-95800240D01*
X176980314Y-95987800D01*
X177135473Y-96151397D01*
X177273028Y-96298081D01*
X177399676Y-96434904D01*
X177575974Y-96626650D01*
X177575974Y-96917570D01*
X177575105Y-97005596D01*
X177571241Y-97114632D01*
X177564992Y-97192817D01*
X177557138Y-97227326D01*
X177553044Y-97230871D01*
X177507610Y-97246162D01*
X177505569Y-97245644D01*
X177471660Y-97219421D01*
X177404648Y-97156835D01*
X177308960Y-97062416D01*
X177189021Y-96940696D01*
X177049258Y-96796205D01*
X176894098Y-96633473D01*
X176727967Y-96457032D01*
X176555292Y-96271412D01*
X176458518Y-96166893D01*
X176354820Y-96055119D01*
X176266954Y-95960623D01*
X176135356Y-95819355D01*
X176135630Y-95536819D01*
X176136750Y-95459081D01*
X176142503Y-95344308D01*
X176152023Y-95257092D01*
X176164045Y-95211902D01*
X176172798Y-95204298D01*
X176197738Y-95207562D01*
G37*
G36*
X176222522Y-96358354D02*
G01*
X176288080Y-96408816D01*
X176379532Y-96500929D01*
X176411819Y-96534983D01*
X176495313Y-96622582D01*
X176605779Y-96738107D01*
X176735403Y-96873398D01*
X176876368Y-97020294D01*
X177020860Y-97170633D01*
X177119062Y-97273252D01*
X177246993Y-97408609D01*
X177358852Y-97528888D01*
X177448805Y-97627733D01*
X177511018Y-97698791D01*
X177539656Y-97735705D01*
X177546487Y-97753458D01*
X177559926Y-97827394D01*
X177569548Y-97933189D01*
X177574801Y-98053676D01*
X177575133Y-98171688D01*
X177569991Y-98270057D01*
X177558824Y-98331616D01*
X177546614Y-98353644D01*
X177512945Y-98376307D01*
X177491904Y-98364240D01*
X177437758Y-98318554D01*
X177361582Y-98246764D01*
X177272668Y-98157341D01*
X177257706Y-98141851D01*
X177024894Y-97899980D01*
X176786642Y-97651030D01*
X176557997Y-97410765D01*
X176354005Y-97194947D01*
X176135040Y-96962268D01*
X176135040Y-96665397D01*
X176135127Y-96629583D01*
X176139160Y-96485157D01*
X176152267Y-96393696D01*
X176178653Y-96352371D01*
X176222522Y-96358354D01*
G37*
G36*
X176204948Y-103095150D02*
G01*
X176237352Y-103118055D01*
X176283278Y-103157467D01*
X176345497Y-103216153D01*
X176426780Y-103296878D01*
X176529898Y-103402406D01*
X176657624Y-103535503D01*
X176812728Y-103698935D01*
X176997982Y-103895466D01*
X177216156Y-104127863D01*
X177470023Y-104398890D01*
X177575974Y-104512080D01*
X177575974Y-104775809D01*
X177575546Y-104835458D01*
X177572241Y-104949325D01*
X177566383Y-105037361D01*
X177558824Y-105084230D01*
X177547594Y-105106467D01*
X177521464Y-105128921D01*
X177511993Y-105122484D01*
X177468077Y-105082150D01*
X177394321Y-105009738D01*
X177296448Y-104910985D01*
X177180180Y-104791628D01*
X177051239Y-104657407D01*
X177015244Y-104619697D01*
X176867326Y-104464822D01*
X176718834Y-104309474D01*
X176579659Y-104163993D01*
X176459696Y-104038722D01*
X176368837Y-103944003D01*
X176136449Y-103702113D01*
X176136177Y-103419577D01*
X176137109Y-103341835D01*
X176142438Y-103227064D01*
X176151452Y-103139850D01*
X176162959Y-103094661D01*
X176169619Y-103087802D01*
X176183294Y-103085987D01*
X176204948Y-103095150D01*
G37*
G36*
X173027142Y-79092721D02*
G01*
X173027142Y-80067964D01*
X172599619Y-80067964D01*
X172172095Y-80067964D01*
X172192757Y-79396941D01*
X172196417Y-79268022D01*
X172200249Y-79094985D01*
X172202197Y-78948419D01*
X172202222Y-78835822D01*
X172200282Y-78764695D01*
X172196336Y-78742539D01*
X172186770Y-78760695D01*
X172157852Y-78825326D01*
X172113226Y-78929523D01*
X172055975Y-79065986D01*
X171989183Y-79227412D01*
X171915933Y-79406499D01*
X171652614Y-80053837D01*
X170941324Y-80061386D01*
X170230034Y-80068935D01*
X170230034Y-79093700D01*
X170230034Y-78118465D01*
X170653838Y-78118465D01*
X171077643Y-78118465D01*
X171077643Y-78787134D01*
X171078005Y-78914128D01*
X171079785Y-79086689D01*
X171082846Y-79232630D01*
X171086960Y-79344478D01*
X171091898Y-79414762D01*
X171097434Y-79436011D01*
X171106994Y-79418388D01*
X171136106Y-79354124D01*
X171180879Y-79250207D01*
X171238182Y-79114023D01*
X171304884Y-78952960D01*
X171377852Y-78774406D01*
X171638480Y-78132592D01*
X172332811Y-78125035D01*
X173027142Y-78117478D01*
X173027142Y-79092721D01*
G37*
G36*
X177536486Y-108021411D02*
G01*
X177558824Y-108055481D01*
X177560425Y-108060095D01*
X177571146Y-108127339D01*
X177575797Y-108228678D01*
X177574871Y-108346015D01*
X177568863Y-108461252D01*
X177558268Y-108556292D01*
X177543582Y-108613036D01*
X177541874Y-108616148D01*
X177503856Y-108669402D01*
X177439999Y-108745888D01*
X177363151Y-108830144D01*
X177205873Y-108995336D01*
X177050469Y-109158840D01*
X176899369Y-109318177D01*
X176738239Y-109488464D01*
X176552747Y-109684816D01*
X176457379Y-109784918D01*
X176356348Y-109888775D01*
X176273831Y-109971171D01*
X176216488Y-110025475D01*
X176190984Y-110045050D01*
X176184492Y-110044237D01*
X176161393Y-110020123D01*
X176146102Y-109958008D01*
X176137643Y-109851794D01*
X176135040Y-109695382D01*
X176135040Y-109435097D01*
X176251955Y-109309206D01*
X176298058Y-109259732D01*
X176385998Y-109165694D01*
X176501536Y-109042367D01*
X176638472Y-108896359D01*
X176790607Y-108734276D01*
X176951740Y-108562726D01*
X177115672Y-108388317D01*
X177276203Y-108217654D01*
X177375209Y-108115766D01*
X177450674Y-108048113D01*
X177502435Y-108017808D01*
X177536486Y-108021411D01*
G37*
G36*
X177551882Y-98741196D02*
G01*
X177566531Y-98782778D01*
X177573930Y-98859116D01*
X177575974Y-98981034D01*
X177575738Y-99014441D01*
X177571365Y-99131035D01*
X177562610Y-99227496D01*
X177550965Y-99285647D01*
X177534159Y-99314763D01*
X177482478Y-99382624D01*
X177407141Y-99470453D01*
X177317873Y-99566529D01*
X177298436Y-99586677D01*
X177206319Y-99682457D01*
X177087195Y-99806642D01*
X176950445Y-99949438D01*
X176805451Y-100101048D01*
X176661597Y-100251680D01*
X176588909Y-100327549D01*
X176466392Y-100453977D01*
X176359619Y-100562325D01*
X176274351Y-100646840D01*
X176216349Y-100701769D01*
X176191372Y-100721357D01*
X176181668Y-100719515D01*
X176159782Y-100692393D01*
X176145375Y-100627927D01*
X176137458Y-100519790D01*
X176135040Y-100361654D01*
X176135040Y-100091333D01*
X176427929Y-99791829D01*
X176504619Y-99713375D01*
X176644070Y-99570614D01*
X176799685Y-99411213D01*
X176957472Y-99249505D01*
X177103439Y-99099826D01*
X177236774Y-98964907D01*
X177355068Y-98850385D01*
X177441647Y-98773818D01*
X177499350Y-98732713D01*
X177531017Y-98724579D01*
X177551882Y-98741196D01*
G37*
G36*
X176203986Y-104653379D02*
G01*
X176245372Y-104680322D01*
X176307427Y-104733683D01*
X176394456Y-104817340D01*
X176510762Y-104935169D01*
X176660650Y-105091047D01*
X176700817Y-105133132D01*
X176846005Y-105285057D01*
X176989639Y-105435083D01*
X177122364Y-105573454D01*
X177234826Y-105690418D01*
X177317671Y-105776217D01*
X177380021Y-105842288D01*
X177460840Y-105933713D01*
X177521012Y-106008884D01*
X177550764Y-106056066D01*
X177558984Y-106090299D01*
X177568119Y-106171664D01*
X177573721Y-106276152D01*
X177575608Y-106387874D01*
X177573596Y-106490938D01*
X177567500Y-106569453D01*
X177557138Y-106607527D01*
X177552855Y-106611211D01*
X177507317Y-106626362D01*
X177482570Y-106608723D01*
X177423065Y-106555155D01*
X177334192Y-106470618D01*
X177220973Y-106360125D01*
X177088430Y-106228689D01*
X176941585Y-106081323D01*
X176785459Y-105923041D01*
X176625076Y-105758855D01*
X176465457Y-105593778D01*
X176311625Y-105432824D01*
X176135040Y-105246826D01*
X176135040Y-104965304D01*
X176135685Y-104887209D01*
X176141372Y-104765062D01*
X176153623Y-104688965D01*
X176173275Y-104652049D01*
X176178966Y-104648979D01*
X176203986Y-104653379D01*
G37*
G36*
X176203246Y-90778437D02*
G01*
X176245617Y-90808505D01*
X176306844Y-90862279D01*
X176390076Y-90942816D01*
X176498464Y-91053171D01*
X176635158Y-91196400D01*
X176803308Y-91375559D01*
X177006066Y-91593703D01*
X177018543Y-91607167D01*
X177133810Y-91731301D01*
X177248898Y-91854853D01*
X177351083Y-91964184D01*
X177427643Y-92045654D01*
X177575974Y-92202679D01*
X177575588Y-92471195D01*
X177575073Y-92532905D01*
X177571665Y-92651964D01*
X177565804Y-92747333D01*
X177558343Y-92802606D01*
X177556709Y-92808643D01*
X177548224Y-92833928D01*
X177536339Y-92848687D01*
X177517192Y-92849458D01*
X177486921Y-92832778D01*
X177441667Y-92795186D01*
X177377568Y-92733219D01*
X177290764Y-92643415D01*
X177177393Y-92522312D01*
X177033594Y-92366447D01*
X176855507Y-92172359D01*
X176777657Y-92087410D01*
X176651382Y-91949507D01*
X176526276Y-91812760D01*
X176411595Y-91687294D01*
X176316594Y-91583230D01*
X176250528Y-91510691D01*
X176135040Y-91383562D01*
X176135472Y-91101013D01*
X176136600Y-91023269D01*
X176142230Y-90908493D01*
X176151485Y-90821275D01*
X176163133Y-90776084D01*
X176176579Y-90769020D01*
X176203246Y-90778437D01*
G37*
G36*
X176192410Y-105762635D02*
G01*
X176217439Y-105775672D01*
X176253212Y-105802384D01*
X176302848Y-105845814D01*
X176369467Y-105909004D01*
X176456187Y-105994997D01*
X176566130Y-106106838D01*
X176702413Y-106247570D01*
X176868156Y-106420235D01*
X177066479Y-106627876D01*
X177300501Y-106873538D01*
X177575974Y-107162925D01*
X177575974Y-107415025D01*
X177575661Y-107463777D01*
X177572463Y-107576571D01*
X177566546Y-107664528D01*
X177558824Y-107711816D01*
X177546702Y-107733862D01*
X177513719Y-107756507D01*
X177493549Y-107746514D01*
X177453872Y-107714125D01*
X177392148Y-107656610D01*
X177305660Y-107571240D01*
X177191691Y-107455283D01*
X177047525Y-107306013D01*
X176870444Y-107120698D01*
X176657732Y-106896611D01*
X176610930Y-106847234D01*
X176486780Y-106716697D01*
X176375611Y-106600426D01*
X176283873Y-106505132D01*
X176218014Y-106437523D01*
X176184484Y-106404307D01*
X176174211Y-106393697D01*
X176154536Y-106357704D01*
X176142577Y-106299499D01*
X176136642Y-106207669D01*
X176135040Y-106070805D01*
X176136030Y-105991705D01*
X176141610Y-105878721D01*
X176151168Y-105799109D01*
X176163626Y-105764421D01*
X176175006Y-105760228D01*
X176192410Y-105762635D01*
G37*
G36*
X110110956Y-88692122D02*
G01*
X110219356Y-88714970D01*
X110431753Y-88760084D01*
X110627732Y-88800812D01*
X110787832Y-88832839D01*
X110922232Y-88858197D01*
X111041110Y-88878917D01*
X111163475Y-88900119D01*
X111352600Y-88936167D01*
X111516236Y-88971410D01*
X111639100Y-89002684D01*
X111745051Y-89033405D01*
X111745051Y-89306710D01*
X111744444Y-89378610D01*
X111740963Y-89486038D01*
X111735079Y-89563399D01*
X111727589Y-89597477D01*
X111725448Y-89599440D01*
X111709679Y-89606144D01*
X111678422Y-89606529D01*
X111621692Y-89599422D01*
X111529507Y-89583651D01*
X111391881Y-89558042D01*
X111317046Y-89544414D01*
X111207171Y-89525930D01*
X111123471Y-89513593D01*
X111120710Y-89513240D01*
X111035612Y-89497206D01*
X110968076Y-89476418D01*
X110966395Y-89475694D01*
X110897626Y-89454452D01*
X110812682Y-89437658D01*
X110791693Y-89434519D01*
X110703394Y-89420004D01*
X110586155Y-89399595D01*
X110459511Y-89376665D01*
X110417467Y-89368998D01*
X110286758Y-89346278D01*
X110168876Y-89327264D01*
X110085151Y-89315444D01*
X109965073Y-89301206D01*
X109965073Y-88993262D01*
X109965043Y-88959884D01*
X109965808Y-88828701D01*
X109973464Y-88744342D01*
X109995328Y-88698798D01*
X110038719Y-88684061D01*
X110110956Y-88692122D01*
G37*
G36*
X176208526Y-92197195D02*
G01*
X176255931Y-92240626D01*
X176336946Y-92317607D01*
X176447695Y-92424318D01*
X176584301Y-92556941D01*
X176742889Y-92711655D01*
X176919582Y-92884640D01*
X177110506Y-93072077D01*
X177311783Y-93270146D01*
X177519537Y-93475027D01*
X177729893Y-93682900D01*
X177938975Y-93889946D01*
X178142906Y-94092344D01*
X178337811Y-94286276D01*
X178519813Y-94467920D01*
X178685037Y-94633458D01*
X178829606Y-94779070D01*
X178949645Y-94900936D01*
X179101669Y-95056155D01*
X179101669Y-95341221D01*
X179100874Y-95423822D01*
X179097043Y-95532460D01*
X179090762Y-95610554D01*
X179082834Y-95645124D01*
X179080743Y-95647112D01*
X179045646Y-95663960D01*
X179024675Y-95647185D01*
X178967724Y-95594872D01*
X178879634Y-95511399D01*
X178765045Y-95401228D01*
X178628600Y-95268824D01*
X178474937Y-95118650D01*
X178308698Y-94955169D01*
X178277660Y-94924559D01*
X178061874Y-94711959D01*
X177820728Y-94474675D01*
X177567224Y-94225482D01*
X177314363Y-93977155D01*
X177075144Y-93742468D01*
X176862570Y-93534196D01*
X176135040Y-92822015D01*
X176135040Y-92550082D01*
X176135833Y-92448163D01*
X176141050Y-92323733D01*
X176152233Y-92243887D01*
X176170644Y-92201330D01*
X176197543Y-92188765D01*
X176208526Y-92197195D01*
G37*
G36*
X169558040Y-78251607D02*
G01*
X169693215Y-78384750D01*
X169693215Y-79091182D01*
X169693215Y-79797614D01*
X169560073Y-79932789D01*
X169426930Y-80067964D01*
X168161519Y-80067964D01*
X166896108Y-80067964D01*
X166896108Y-79785428D01*
X166896108Y-79502892D01*
X167870857Y-79502892D01*
X168125156Y-79502811D01*
X168335573Y-79502350D01*
X168500445Y-79501188D01*
X168625325Y-79499003D01*
X168715763Y-79495473D01*
X168777309Y-79490276D01*
X168815516Y-79483091D01*
X168835934Y-79473595D01*
X168844114Y-79461467D01*
X168845607Y-79446385D01*
X168843867Y-79428268D01*
X168832941Y-79412681D01*
X168804926Y-79402004D01*
X168751939Y-79395310D01*
X168666096Y-79391675D01*
X168539513Y-79390173D01*
X168364307Y-79389877D01*
X167883007Y-79389877D01*
X167891059Y-79100278D01*
X167899111Y-78810678D01*
X168372359Y-78802932D01*
X168504150Y-78800617D01*
X168641551Y-78797172D01*
X168736174Y-78792442D01*
X168795955Y-78785363D01*
X168828830Y-78774867D01*
X168842736Y-78759888D01*
X168845607Y-78739361D01*
X168844254Y-78725370D01*
X168836341Y-78713200D01*
X168816316Y-78703652D01*
X168778629Y-78696409D01*
X168717732Y-78691151D01*
X168628075Y-78687563D01*
X168504109Y-78685325D01*
X168340283Y-78684120D01*
X168131049Y-78683630D01*
X167870857Y-78683537D01*
X166896108Y-78683537D01*
X166896108Y-78401001D01*
X166896108Y-78118465D01*
X168159486Y-78118465D01*
X169422865Y-78118465D01*
X169558040Y-78251607D01*
G37*
G36*
X177030225Y-86441482D02*
G01*
X177044504Y-86473248D01*
X177060988Y-86553391D01*
X177067409Y-86651057D01*
X177064542Y-86715928D01*
X177051048Y-86804746D01*
X177030225Y-86860631D01*
X177022564Y-86870011D01*
X176965493Y-86900233D01*
X176907601Y-86885596D01*
X176870873Y-86830289D01*
X176865123Y-86809925D01*
X176851545Y-86790998D01*
X176822752Y-86792148D01*
X176767047Y-86815261D01*
X176672731Y-86862222D01*
X176489956Y-86954783D01*
X176664862Y-87043075D01*
X176668806Y-87045065D01*
X176756761Y-87088618D01*
X176822268Y-87119582D01*
X176851406Y-87131368D01*
X176861081Y-87120516D01*
X176877820Y-87074861D01*
X176878266Y-87073227D01*
X176914669Y-87028935D01*
X176973924Y-87020855D01*
X177033505Y-87052258D01*
X177037248Y-87057063D01*
X177053837Y-87110712D01*
X177064167Y-87197145D01*
X177067445Y-87296598D01*
X177062877Y-87389306D01*
X177049673Y-87455502D01*
X177016387Y-87488866D01*
X176959480Y-87494971D01*
X176904529Y-87472813D01*
X176875442Y-87426387D01*
X176875045Y-87424105D01*
X176853321Y-87389111D01*
X176797203Y-87345355D01*
X176700642Y-87288826D01*
X176557589Y-87215510D01*
X176248054Y-87062784D01*
X176248054Y-86953628D01*
X176248054Y-86844472D01*
X176557419Y-86700702D01*
X176566341Y-86696552D01*
X176696970Y-86634225D01*
X176784597Y-86587668D01*
X176837803Y-86551035D01*
X176865168Y-86518480D01*
X176875272Y-86484158D01*
X176880814Y-86459024D01*
X176919286Y-86409695D01*
X176975578Y-86402061D01*
X177030225Y-86441482D01*
G37*
G36*
X159663182Y-79093215D02*
G01*
X159663182Y-80067964D01*
X159239378Y-80067964D01*
X158815574Y-80067964D01*
X158815574Y-79728921D01*
X158815574Y-79389877D01*
X158264628Y-79389877D01*
X157713683Y-79389877D01*
X157713683Y-79728921D01*
X157713683Y-80067964D01*
X157289878Y-80067964D01*
X156866074Y-80067964D01*
X156866074Y-79722746D01*
X156866074Y-79377528D01*
X157007429Y-79234395D01*
X157148784Y-79091262D01*
X157007429Y-78952032D01*
X156866074Y-78812803D01*
X156866074Y-78740044D01*
X157713683Y-78740044D01*
X157713903Y-78748109D01*
X157718911Y-78765499D01*
X157736186Y-78778138D01*
X157773100Y-78786784D01*
X157837029Y-78792191D01*
X157935344Y-78795118D01*
X158075419Y-78796319D01*
X158264628Y-78796552D01*
X158343260Y-78796529D01*
X158512808Y-78796015D01*
X158636042Y-78794244D01*
X158720336Y-78790457D01*
X158773062Y-78783901D01*
X158801595Y-78773817D01*
X158813308Y-78759450D01*
X158815574Y-78740044D01*
X158815353Y-78731979D01*
X158810345Y-78714590D01*
X158793071Y-78701951D01*
X158756156Y-78693305D01*
X158692227Y-78687897D01*
X158593912Y-78684971D01*
X158453837Y-78683769D01*
X158264628Y-78683537D01*
X158185996Y-78683560D01*
X158016448Y-78684073D01*
X157893214Y-78685845D01*
X157808921Y-78689631D01*
X157756194Y-78696188D01*
X157727661Y-78706272D01*
X157715948Y-78720638D01*
X157713683Y-78740044D01*
X156866074Y-78740044D01*
X156866074Y-78614854D01*
X156866074Y-78416905D01*
X157013441Y-78267685D01*
X157160807Y-78118465D01*
X158411994Y-78118465D01*
X159663182Y-78118465D01*
X159663182Y-78740044D01*
X159663182Y-79093215D01*
G37*
G36*
X177055028Y-88205760D02*
G01*
X176999956Y-88336912D01*
X176909702Y-88447068D01*
X176784873Y-88525180D01*
X176765833Y-88529979D01*
X176695795Y-88535338D01*
X176606183Y-88533154D01*
X176519364Y-88519980D01*
X176389568Y-88462114D01*
X176295813Y-88361391D01*
X176238982Y-88218949D01*
X176219958Y-88035924D01*
X176228492Y-87864260D01*
X176254041Y-87728916D01*
X176295173Y-87639734D01*
X176350449Y-87599785D01*
X176418433Y-87612138D01*
X176460356Y-87648415D01*
X176461608Y-87705923D01*
X176461437Y-87706519D01*
X176450154Y-87765579D01*
X176437685Y-87860413D01*
X176426700Y-87970779D01*
X176422563Y-88026184D01*
X176420658Y-88125930D01*
X176431405Y-88193732D01*
X176456615Y-88246252D01*
X176497661Y-88296675D01*
X176531242Y-88318020D01*
X176542174Y-88293424D01*
X176551076Y-88219258D01*
X176556812Y-88102633D01*
X176557332Y-88063737D01*
X176756619Y-88063737D01*
X176756937Y-88104057D01*
X176763769Y-88218694D01*
X176779744Y-88278321D01*
X176805179Y-88283581D01*
X176840386Y-88235116D01*
X176854449Y-88200259D01*
X176868093Y-88113102D01*
X176864251Y-88017008D01*
X176845612Y-87928237D01*
X176814864Y-87863051D01*
X176774695Y-87837708D01*
X176772139Y-87839976D01*
X176764230Y-87879724D01*
X176758700Y-87958768D01*
X176756619Y-88063737D01*
X176557332Y-88063737D01*
X176558844Y-87950723D01*
X176558844Y-87583426D01*
X176634684Y-87583426D01*
X176659784Y-87585649D01*
X176742970Y-87606747D01*
X176833405Y-87642911D01*
X176911335Y-87692206D01*
X177003071Y-87796837D01*
X177057193Y-87924672D01*
X177074310Y-88064664D01*
X177067691Y-88113102D01*
X177055028Y-88205760D01*
G37*
G36*
X177064499Y-89235746D02*
G01*
X177056188Y-89319505D01*
X177038578Y-89365757D01*
X176975898Y-89460552D01*
X176890340Y-89547609D01*
X176800400Y-89606198D01*
X176659014Y-89640696D01*
X176516143Y-89624336D01*
X176386662Y-89559007D01*
X176281899Y-89448164D01*
X176256115Y-89406492D01*
X176232185Y-89346200D01*
X176224885Y-89273077D01*
X176228131Y-89208526D01*
X176414090Y-89208526D01*
X176441755Y-89314680D01*
X176505077Y-89398721D01*
X176542442Y-89423784D01*
X176635599Y-89447086D01*
X176726620Y-89425611D01*
X176804393Y-89366420D01*
X176857807Y-89276576D01*
X176875752Y-89163139D01*
X176851646Y-89068164D01*
X176789445Y-88987997D01*
X176703365Y-88936264D01*
X176607536Y-88921284D01*
X176516085Y-88951376D01*
X176463957Y-89002098D01*
X176421639Y-89098314D01*
X176414090Y-89208526D01*
X176228131Y-89208526D01*
X176230288Y-89165628D01*
X176237147Y-89071023D01*
X176246417Y-88921964D01*
X176253514Y-88784204D01*
X176254379Y-88765022D01*
X176260867Y-88668230D01*
X176271943Y-88613217D01*
X176292069Y-88587203D01*
X176325706Y-88577407D01*
X176380507Y-88586287D01*
X176416831Y-88640977D01*
X176444431Y-88713570D01*
X176925442Y-88713570D01*
X177406452Y-88713570D01*
X177406020Y-88847775D01*
X177403562Y-88917902D01*
X177386793Y-89002107D01*
X177350460Y-89042992D01*
X177290243Y-89048022D01*
X177245490Y-89031513D01*
X177213775Y-88974916D01*
X177206079Y-88944878D01*
X177174601Y-88918048D01*
X177104802Y-88911346D01*
X177049460Y-88913759D01*
X177020509Y-88927724D01*
X177026812Y-88960790D01*
X177045014Y-89022747D01*
X177059988Y-89127230D01*
X177061481Y-89163139D01*
X177064499Y-89235746D01*
G37*
G36*
X111745051Y-108949583D02*
G01*
X111759178Y-113151669D01*
X111837512Y-113230005D01*
X111915847Y-113308342D01*
X114856752Y-113315794D01*
X117797657Y-113323246D01*
X117780320Y-113513569D01*
X117769495Y-113624708D01*
X117753467Y-113775834D01*
X117737435Y-113915795D01*
X117724639Y-114022532D01*
X117706983Y-114170723D01*
X117687339Y-114336276D01*
X117668068Y-114499328D01*
X117665726Y-114519081D01*
X117647813Y-114663308D01*
X117630627Y-114791080D01*
X117616018Y-114889163D01*
X117605836Y-114944323D01*
X117587423Y-115017686D01*
X115252600Y-115017686D01*
X112917776Y-115017686D01*
X111441424Y-113541536D01*
X109965073Y-112065385D01*
X109965073Y-109965319D01*
X109965073Y-107865254D01*
X110074903Y-107676676D01*
X110076262Y-107674342D01*
X110139368Y-107565501D01*
X110199719Y-107460637D01*
X110244425Y-107382147D01*
X110252253Y-107368253D01*
X110306459Y-107272133D01*
X110356009Y-107184371D01*
X110390208Y-107123498D01*
X110444597Y-107026095D01*
X110501892Y-106923025D01*
X110550653Y-106835277D01*
X110606293Y-106735565D01*
X110647775Y-106661679D01*
X110672739Y-106617503D01*
X110739030Y-106500136D01*
X110788942Y-106411637D01*
X110831235Y-106336462D01*
X110874670Y-106259065D01*
X110918285Y-106181361D01*
X110979100Y-106073327D01*
X111049100Y-105949367D01*
X111137650Y-105792881D01*
X111167344Y-105740233D01*
X111228213Y-105631406D01*
X111279545Y-105538598D01*
X111290419Y-105518790D01*
X111346143Y-105418116D01*
X111397332Y-105326696D01*
X111414720Y-105295899D01*
X111469385Y-105198893D01*
X111524630Y-105100667D01*
X111544067Y-105066277D01*
X111606363Y-104957847D01*
X111663486Y-104860511D01*
X111730924Y-104747497D01*
X111745051Y-108949583D01*
G37*
G36*
X156357509Y-79770544D02*
G01*
X156731477Y-80145283D01*
X156736349Y-80150166D01*
X156852113Y-80266921D01*
X156951429Y-80368432D01*
X157028391Y-80448550D01*
X157077089Y-80501130D01*
X157091616Y-80520022D01*
X157090545Y-80519811D01*
X157055309Y-80505960D01*
X156977684Y-80472949D01*
X156865740Y-80424280D01*
X156727546Y-80363460D01*
X156571172Y-80293993D01*
X156064557Y-80067964D01*
X154961699Y-80067964D01*
X153858841Y-80067964D01*
X153709621Y-79920598D01*
X153560401Y-79773232D01*
X153560401Y-79092150D01*
X154150535Y-79092150D01*
X154435166Y-79187027D01*
X154719797Y-79281905D01*
X154843549Y-79495418D01*
X154967300Y-79708931D01*
X155090269Y-79492459D01*
X155213238Y-79275987D01*
X155494961Y-79188522D01*
X155776684Y-79101057D01*
X155636229Y-79047691D01*
X155596718Y-79033058D01*
X155471615Y-78989740D01*
X155354506Y-78952622D01*
X155296417Y-78933965D01*
X155242729Y-78907562D01*
X155198500Y-78866649D01*
X155151692Y-78799456D01*
X155090269Y-78694209D01*
X154967300Y-78477498D01*
X154843178Y-78691650D01*
X154719057Y-78905802D01*
X154434796Y-78998976D01*
X154150535Y-79092150D01*
X153560401Y-79092150D01*
X153560401Y-79076701D01*
X153560401Y-78380170D01*
X153192591Y-78033220D01*
X153084634Y-77930539D01*
X152982259Y-77831314D01*
X152902235Y-77751694D01*
X152850891Y-77697985D01*
X152834558Y-77676492D01*
X152835515Y-77676280D01*
X152869714Y-77687260D01*
X152946295Y-77717720D01*
X153057286Y-77764321D01*
X153194714Y-77823723D01*
X153350605Y-77892590D01*
X153856875Y-78118465D01*
X154972017Y-78118465D01*
X156087159Y-78118465D01*
X156222334Y-78251607D01*
X156357509Y-78384750D01*
X156357509Y-79077647D01*
X156357509Y-79101057D01*
X156357509Y-79770544D01*
G37*
G36*
X126167354Y-74982376D02*
G01*
X126794121Y-74982674D01*
X127390018Y-74983209D01*
X127953215Y-74983974D01*
X128481879Y-74984959D01*
X128974180Y-74986157D01*
X129428286Y-74987561D01*
X129842367Y-74989160D01*
X130214590Y-74990949D01*
X130543125Y-74992918D01*
X130826140Y-74995058D01*
X131061804Y-74997363D01*
X131248286Y-74999824D01*
X131383755Y-75002433D01*
X131466379Y-75005182D01*
X131494328Y-75008061D01*
X131493871Y-75010598D01*
X131474427Y-75051903D01*
X131428462Y-75135192D01*
X131358920Y-75255433D01*
X131268745Y-75407594D01*
X131160883Y-75586640D01*
X131038277Y-75787542D01*
X131035611Y-75791897D01*
X130994540Y-75861983D01*
X130966533Y-75914683D01*
X130948369Y-75948222D01*
X130906432Y-76018735D01*
X130853276Y-76104037D01*
X130810230Y-76173358D01*
X130773754Y-76236077D01*
X130759734Y-76265947D01*
X130759615Y-76267387D01*
X130742159Y-76305936D01*
X130701954Y-76373899D01*
X130648851Y-76456396D01*
X130592697Y-76538546D01*
X130543342Y-76605470D01*
X130510636Y-76642286D01*
X130508482Y-76643470D01*
X130487390Y-76647789D01*
X130444472Y-76651721D01*
X130377687Y-76655275D01*
X130284995Y-76658462D01*
X130164357Y-76661292D01*
X130013732Y-76663777D01*
X129831080Y-76665927D01*
X129614361Y-76667753D01*
X129361536Y-76669266D01*
X129070563Y-76670476D01*
X128739404Y-76671394D01*
X128366019Y-76672030D01*
X127948366Y-76672396D01*
X127484407Y-76672502D01*
X126972101Y-76672358D01*
X126409408Y-76671977D01*
X125794288Y-76671367D01*
X125124701Y-76670540D01*
X119783204Y-76663404D01*
X119786348Y-76522136D01*
X119788920Y-76467367D01*
X119796595Y-76357133D01*
X119808259Y-76212920D01*
X119822895Y-76047165D01*
X119839486Y-75872302D01*
X119852213Y-75740942D01*
X119868895Y-75563150D01*
X119883621Y-75399991D01*
X119895148Y-75265329D01*
X119902231Y-75173025D01*
X119914983Y-74982314D01*
X125704655Y-74982314D01*
X126167354Y-74982376D01*
G37*
G36*
X179082298Y-107508892D02*
G01*
X179092514Y-107579473D01*
X179099244Y-107689574D01*
X179101669Y-107829471D01*
X179101669Y-108153383D01*
X178868577Y-108398161D01*
X178822801Y-108446233D01*
X178702643Y-108572454D01*
X178603252Y-108676954D01*
X178514702Y-108770203D01*
X178427069Y-108862670D01*
X178330426Y-108964824D01*
X178214849Y-109087135D01*
X178070412Y-109240071D01*
X177953662Y-109363906D01*
X177846329Y-109478133D01*
X177756993Y-109573599D01*
X177692604Y-109642878D01*
X177660110Y-109678544D01*
X177652867Y-109686645D01*
X177608808Y-109734383D01*
X177534529Y-109813919D01*
X177436384Y-109918476D01*
X177320730Y-110041279D01*
X177193925Y-110175550D01*
X177178461Y-110191903D01*
X177036720Y-110341898D01*
X176893908Y-110493183D01*
X176760005Y-110635176D01*
X176644991Y-110757297D01*
X176558844Y-110848963D01*
X176491196Y-110920564D01*
X176400461Y-111015027D01*
X176324970Y-111091850D01*
X176276308Y-111139133D01*
X176270588Y-111144284D01*
X176218831Y-111186199D01*
X176187779Y-111203414D01*
X176169561Y-111188720D01*
X176150804Y-111120147D01*
X176139425Y-110995586D01*
X176135426Y-110815059D01*
X176135040Y-110553811D01*
X176325752Y-110351214D01*
X176355898Y-110319230D01*
X176466260Y-110202649D01*
X176578298Y-110084924D01*
X176671858Y-109987248D01*
X176763823Y-109890973D01*
X176878465Y-109769584D01*
X176980767Y-109659992D01*
X177054654Y-109580706D01*
X177159723Y-109468870D01*
X177276425Y-109345335D01*
X177390445Y-109225291D01*
X177437738Y-109175526D01*
X177562200Y-109043762D01*
X177704407Y-108892388D01*
X177850257Y-108736432D01*
X177985652Y-108590922D01*
X178063610Y-108507066D01*
X178188643Y-108373306D01*
X178306696Y-108247820D01*
X178407327Y-108141695D01*
X178480090Y-108066020D01*
X178517418Y-108027546D01*
X178619219Y-107921486D01*
X178732808Y-107802004D01*
X178839842Y-107688357D01*
X178907157Y-107619034D01*
X178984789Y-107546181D01*
X179043090Y-107499819D01*
X179072934Y-107487800D01*
X179082298Y-107508892D01*
G37*
G36*
X110017748Y-98351544D02*
G01*
X110083407Y-98361906D01*
X110169912Y-98377991D01*
X110237078Y-98391473D01*
X110311923Y-98407062D01*
X110401454Y-98426393D01*
X110519147Y-98452379D01*
X110678477Y-98487932D01*
X110686016Y-98489606D01*
X110778177Y-98509100D01*
X110899064Y-98533561D01*
X111024584Y-98558103D01*
X111036713Y-98560435D01*
X111164467Y-98585859D01*
X111286446Y-98611436D01*
X111377754Y-98631959D01*
X111401773Y-98637610D01*
X111514876Y-98662138D01*
X111617910Y-98681866D01*
X111730924Y-98701223D01*
X111738166Y-100827308D01*
X111738809Y-101023963D01*
X111739839Y-101402872D01*
X111740365Y-101730431D01*
X111740333Y-102010146D01*
X111739692Y-102245526D01*
X111738388Y-102440077D01*
X111736370Y-102597309D01*
X111733585Y-102720727D01*
X111729980Y-102813840D01*
X111725502Y-102880156D01*
X111720099Y-102923181D01*
X111713719Y-102946424D01*
X111706309Y-102953392D01*
X111680234Y-102946920D01*
X111632036Y-102911012D01*
X111608863Y-102887973D01*
X111571812Y-102868632D01*
X111556605Y-102863154D01*
X111500488Y-102833108D01*
X111415748Y-102782730D01*
X111313925Y-102718728D01*
X111253341Y-102679980D01*
X111155633Y-102618630D01*
X111079854Y-102572493D01*
X111038710Y-102549386D01*
X111004922Y-102532029D01*
X110941711Y-102494451D01*
X110898077Y-102466183D01*
X110744156Y-102367987D01*
X110609311Y-102284298D01*
X110500532Y-102219318D01*
X110424811Y-102177248D01*
X110389135Y-102162291D01*
X110382210Y-102161495D01*
X110360624Y-102135769D01*
X110352909Y-102125793D01*
X110304519Y-102105994D01*
X110226419Y-102089538D01*
X110188254Y-102083409D01*
X110095346Y-102064675D01*
X110028644Y-102046125D01*
X109965073Y-102022422D01*
X109965073Y-100185237D01*
X109965157Y-99933600D01*
X109965651Y-99586612D01*
X109966644Y-99290566D01*
X109968202Y-99042076D01*
X109970390Y-98837754D01*
X109973273Y-98674216D01*
X109976915Y-98548073D01*
X109981383Y-98455940D01*
X109986742Y-98394431D01*
X109993055Y-98360159D01*
X110000390Y-98349737D01*
X110017748Y-98351544D01*
G37*
G36*
X159651401Y-91258447D02*
G01*
X159708209Y-91280130D01*
X159793261Y-91319373D01*
X159891607Y-91368554D01*
X159988302Y-91420052D01*
X160068398Y-91466244D01*
X160116947Y-91499510D01*
X160134778Y-91526529D01*
X160156244Y-91598294D01*
X160176126Y-91715857D01*
X160195516Y-91884570D01*
X160210601Y-92031492D01*
X160234319Y-92235220D01*
X160259475Y-92406506D01*
X160289084Y-92560220D01*
X160326161Y-92711231D01*
X160373722Y-92874410D01*
X160434780Y-93064627D01*
X160448356Y-93105686D01*
X160503606Y-93267883D01*
X160551860Y-93395297D01*
X160600857Y-93503795D01*
X160658334Y-93609247D01*
X160732030Y-93727523D01*
X160829683Y-93874492D01*
X161080185Y-94246425D01*
X161035836Y-94609086D01*
X161019102Y-94746976D01*
X160997448Y-94927811D01*
X160977090Y-95100131D01*
X160960855Y-95240156D01*
X160954945Y-95291213D01*
X160932505Y-95472863D01*
X160910612Y-95632573D01*
X160890568Y-95761773D01*
X160873680Y-95851896D01*
X160861250Y-95894374D01*
X160846793Y-95908653D01*
X160804915Y-95901730D01*
X160750147Y-95849314D01*
X160685726Y-95756951D01*
X160614895Y-95630183D01*
X160540892Y-95474554D01*
X160466958Y-95295607D01*
X160396332Y-95098887D01*
X160381312Y-95053708D01*
X160330492Y-94897569D01*
X160295518Y-94780712D01*
X160274029Y-94691863D01*
X160263666Y-94619750D01*
X160262068Y-94553099D01*
X160266875Y-94480639D01*
X160283333Y-94300321D01*
X160129650Y-94077221D01*
X160001131Y-93861702D01*
X159892329Y-93607705D01*
X159878855Y-93567273D01*
X159857280Y-93497171D01*
X159838273Y-93424779D01*
X159820804Y-93343357D01*
X159803844Y-93246163D01*
X159786361Y-93126455D01*
X159767326Y-92977492D01*
X159745708Y-92792531D01*
X159720477Y-92564832D01*
X159690604Y-92287653D01*
X159684625Y-92232486D01*
X159667240Y-92077892D01*
X159649573Y-91927511D01*
X159634650Y-91807341D01*
X159629654Y-91767012D01*
X159615434Y-91626633D01*
X159605527Y-91488731D01*
X159601027Y-91371144D01*
X159603029Y-91291713D01*
X159606646Y-91278897D01*
X159640156Y-91256396D01*
X159651401Y-91258447D01*
G37*
G36*
X177558135Y-110344221D02*
G01*
X177572330Y-110434552D01*
X177575974Y-110579143D01*
X177575563Y-110625860D01*
X177570936Y-110744209D01*
X177562255Y-110840877D01*
X177550886Y-110898459D01*
X177539864Y-110917796D01*
X177493304Y-110979056D01*
X177418685Y-111067079D01*
X177323455Y-111173208D01*
X177215063Y-111288785D01*
X177160403Y-111345888D01*
X177047764Y-111463855D01*
X176945997Y-111570807D01*
X176864524Y-111656831D01*
X176812769Y-111712013D01*
X176810542Y-111714417D01*
X176749997Y-111779331D01*
X176659484Y-111875863D01*
X176547434Y-111995070D01*
X176422275Y-112128009D01*
X176292437Y-112265740D01*
X176166349Y-112399319D01*
X176052442Y-112519805D01*
X175959143Y-112618255D01*
X175894884Y-112685727D01*
X175883524Y-112697601D01*
X175846739Y-112736211D01*
X175800526Y-112784960D01*
X175741230Y-112847729D01*
X175665195Y-112928403D01*
X175568766Y-113030864D01*
X175448288Y-113158997D01*
X175300106Y-113316683D01*
X175120564Y-113507805D01*
X174906007Y-113736248D01*
X174898558Y-113744129D01*
X174825436Y-113816309D01*
X174764904Y-113867516D01*
X174729422Y-113887105D01*
X174727399Y-113886957D01*
X174711783Y-113867576D01*
X174701495Y-113811151D01*
X174695836Y-113711225D01*
X174694105Y-113561341D01*
X174694181Y-113506776D01*
X174695836Y-113381252D01*
X174701113Y-113296506D01*
X174711911Y-113240836D01*
X174730132Y-113202536D01*
X174757676Y-113169904D01*
X174798811Y-113127193D01*
X174870372Y-113052297D01*
X174960706Y-112957408D01*
X175059505Y-112853335D01*
X175148041Y-112759983D01*
X175285365Y-112615297D01*
X175427212Y-112465942D01*
X175553943Y-112332602D01*
X175655011Y-112226011D01*
X175779926Y-112093621D01*
X175897795Y-111968090D01*
X175992622Y-111866418D01*
X176026669Y-111829849D01*
X176116490Y-111733990D01*
X176232642Y-111610562D01*
X176366875Y-111468313D01*
X176510938Y-111315992D01*
X176656582Y-111162346D01*
X176735345Y-111079354D01*
X176879901Y-110927016D01*
X177017780Y-110781688D01*
X177140926Y-110651864D01*
X177241283Y-110546038D01*
X177310793Y-110472701D01*
X177403333Y-110379154D01*
X177478528Y-110318486D01*
X177528498Y-110306187D01*
X177558135Y-110344221D01*
G37*
G36*
X112458455Y-89153699D02*
G01*
X112551010Y-89171466D01*
X112649167Y-89194215D01*
X112745578Y-89216576D01*
X112846942Y-89236174D01*
X112867897Y-89239721D01*
X112968603Y-89257932D01*
X113072971Y-89278099D01*
X113112287Y-89285964D01*
X113190559Y-89301433D01*
X113292739Y-89321413D01*
X113426724Y-89347439D01*
X113600409Y-89381048D01*
X113821692Y-89423776D01*
X113861372Y-89431228D01*
X113976551Y-89451259D01*
X114075974Y-89466621D01*
X114097853Y-89470030D01*
X114172361Y-89487720D01*
X114215830Y-89507566D01*
X114233617Y-89516240D01*
X114297831Y-89528317D01*
X114385351Y-89533157D01*
X114398699Y-89533280D01*
X114503775Y-89537790D01*
X114635357Y-89547465D01*
X114768188Y-89560501D01*
X114887710Y-89573087D01*
X115046848Y-89588458D01*
X115221181Y-89604265D01*
X115389767Y-89618552D01*
X115498825Y-89627615D01*
X115765821Y-89652227D01*
X115983709Y-89676476D01*
X116157919Y-89701012D01*
X116293883Y-89726483D01*
X116301299Y-89728112D01*
X116396806Y-89748637D01*
X116520313Y-89774639D01*
X116647053Y-89800900D01*
X116662656Y-89804107D01*
X116787143Y-89829993D01*
X116902697Y-89854470D01*
X116986096Y-89872624D01*
X116993087Y-89874186D01*
X117103615Y-89898171D01*
X117212125Y-89920759D01*
X117277668Y-89937853D01*
X117315775Y-89965318D01*
X117325140Y-90012094D01*
X117324612Y-90023172D01*
X117311773Y-90058964D01*
X117274806Y-90095201D01*
X117204481Y-90139248D01*
X117091567Y-90198469D01*
X116997097Y-90247292D01*
X116857577Y-90326738D01*
X116739099Y-90406945D01*
X116621183Y-90501088D01*
X116599102Y-90518128D01*
X116570359Y-90532623D01*
X116532418Y-90540402D01*
X116478697Y-90540754D01*
X116402610Y-90532968D01*
X116297574Y-90516332D01*
X116157006Y-90490135D01*
X115974322Y-90453666D01*
X115742937Y-90406213D01*
X115700592Y-90397720D01*
X115591977Y-90377538D01*
X115502782Y-90362931D01*
X115499866Y-90362507D01*
X115414844Y-90345413D01*
X115347387Y-90324441D01*
X115338031Y-90320765D01*
X115265969Y-90300943D01*
X115177865Y-90285067D01*
X115094116Y-90272241D01*
X114959870Y-90249116D01*
X114790384Y-90218260D01*
X114596095Y-90181614D01*
X114387442Y-90141116D01*
X114174862Y-90098705D01*
X114160039Y-90095726D01*
X114062113Y-90076537D01*
X113936839Y-90052513D01*
X113807565Y-90028139D01*
X113784207Y-90023768D01*
X113650607Y-89998417D01*
X113522986Y-89973710D01*
X113426141Y-89954438D01*
X113320231Y-89932970D01*
X113083312Y-89886187D01*
X112875195Y-89846813D01*
X112798955Y-89832593D01*
X112678683Y-89809740D01*
X112557342Y-89786328D01*
X112366630Y-89749187D01*
X112366630Y-89443987D01*
X112366630Y-89138787D01*
X112458455Y-89153699D01*
G37*
G36*
X177533138Y-99836604D02*
G01*
X177559557Y-99888766D01*
X177572159Y-99991763D01*
X177575541Y-100146995D01*
X177575974Y-100406115D01*
X177387510Y-100613180D01*
X177366951Y-100635659D01*
X177279833Y-100729702D01*
X177165382Y-100852005D01*
X177032534Y-100993072D01*
X176890224Y-101143407D01*
X176747387Y-101293512D01*
X176677511Y-101366913D01*
X176551523Y-101500210D01*
X176440186Y-101619221D01*
X176349626Y-101717335D01*
X176285973Y-101787939D01*
X176255355Y-101824420D01*
X176244007Y-101845010D01*
X176242415Y-101870242D01*
X176256849Y-101904206D01*
X176291943Y-101953295D01*
X176352331Y-102023905D01*
X176442645Y-102122431D01*
X176567518Y-102255268D01*
X176650685Y-102343202D01*
X176784494Y-102484296D01*
X176913919Y-102620356D01*
X177027509Y-102739347D01*
X177113810Y-102829236D01*
X177148671Y-102865431D01*
X177255289Y-102976830D01*
X177359080Y-103086136D01*
X177441769Y-103174133D01*
X177575974Y-103318269D01*
X177575588Y-103580825D01*
X177575139Y-103636808D01*
X177571778Y-103755310D01*
X177565885Y-103850697D01*
X177558343Y-103906277D01*
X177558125Y-103907083D01*
X177540679Y-103943044D01*
X177511450Y-103949068D01*
X177464454Y-103921694D01*
X177393706Y-103857458D01*
X177293223Y-103752899D01*
X177228589Y-103683803D01*
X177131008Y-103579839D01*
X177012883Y-103454228D01*
X176883626Y-103316977D01*
X176752648Y-103178092D01*
X176752632Y-103178075D01*
X176625214Y-103042858D01*
X176502932Y-102912708D01*
X176394210Y-102796621D01*
X176307473Y-102703592D01*
X176251146Y-102642615D01*
X176135040Y-102515487D01*
X176134420Y-102232938D01*
X176133800Y-101950389D01*
X175661172Y-102442681D01*
X175603464Y-102502801D01*
X175452774Y-102659889D01*
X175303698Y-102815419D01*
X175165620Y-102959593D01*
X175047926Y-103082616D01*
X174959999Y-103174689D01*
X174886215Y-103249902D01*
X174796463Y-103333675D01*
X174732129Y-103383275D01*
X174698653Y-103394134D01*
X174695210Y-103391099D01*
X174679051Y-103341259D01*
X174669189Y-103237760D01*
X174665852Y-103082751D01*
X174667368Y-102949402D01*
X174676407Y-102846413D01*
X174699587Y-102764992D01*
X174743523Y-102689924D01*
X174814834Y-102605992D01*
X174920134Y-102497982D01*
X174950291Y-102467263D01*
X175023296Y-102391869D01*
X175123157Y-102288073D01*
X175242655Y-102163438D01*
X175374569Y-102025530D01*
X175511681Y-101881912D01*
X175646770Y-101740150D01*
X175772618Y-101607806D01*
X175882004Y-101492447D01*
X175967710Y-101401635D01*
X176022516Y-101342936D01*
X176048995Y-101314558D01*
X176116592Y-101242972D01*
X176212177Y-101142295D01*
X176329113Y-101019504D01*
X176460761Y-100881574D01*
X176600483Y-100735484D01*
X176683687Y-100648489D01*
X176828239Y-100496970D01*
X176965278Y-100352875D01*
X177086897Y-100224537D01*
X177185192Y-100120291D01*
X177252255Y-100048470D01*
X177325034Y-99971121D01*
X177420472Y-99879182D01*
X177488309Y-99833876D01*
X177533138Y-99836604D01*
G37*
G36*
X116316656Y-96710538D02*
G01*
X116358887Y-96733176D01*
X116434474Y-96782559D01*
X116534024Y-96852345D01*
X116648145Y-96936192D01*
X116656863Y-96942719D01*
X116782541Y-97033657D01*
X116904156Y-97116490D01*
X117008226Y-97182314D01*
X117081270Y-97222227D01*
X117102218Y-97231746D01*
X117200546Y-97276989D01*
X117322213Y-97333547D01*
X117445690Y-97391425D01*
X117605078Y-97463265D01*
X117753875Y-97522008D01*
X117908066Y-97572798D01*
X118084465Y-97621171D01*
X118299890Y-97672663D01*
X118320677Y-97676636D01*
X118412659Y-97687939D01*
X118546470Y-97699069D01*
X118711322Y-97709319D01*
X118896426Y-97717986D01*
X119090991Y-97724364D01*
X119726697Y-97740600D01*
X119722385Y-97881869D01*
X119722212Y-97887041D01*
X119715670Y-97989306D01*
X119703451Y-98118931D01*
X119688054Y-98249166D01*
X119672958Y-98366122D01*
X119653706Y-98520127D01*
X119632885Y-98690313D01*
X119612975Y-98856618D01*
X119578038Y-99147920D01*
X119537407Y-99473512D01*
X119496977Y-99781924D01*
X119491013Y-99823312D01*
X119475331Y-99877459D01*
X119442761Y-99898420D01*
X119377745Y-99901838D01*
X119341510Y-99901028D01*
X119284478Y-99896659D01*
X119210983Y-99887180D01*
X119111287Y-99871113D01*
X118975648Y-99846978D01*
X118794328Y-99813298D01*
X118756697Y-99806255D01*
X118634814Y-99783758D01*
X118496073Y-99758658D01*
X118327530Y-99728627D01*
X118116241Y-99691337D01*
X117961546Y-99664092D01*
X117787380Y-99633304D01*
X117652082Y-99609200D01*
X117545876Y-99590023D01*
X117458989Y-99574019D01*
X117381647Y-99559433D01*
X117347641Y-99553006D01*
X117219624Y-99529451D01*
X117099111Y-99508026D01*
X117068140Y-99502641D01*
X116959496Y-99483592D01*
X116825911Y-99460022D01*
X116689434Y-99435817D01*
X116637031Y-99426508D01*
X116499060Y-99402088D01*
X116372618Y-99379827D01*
X116279756Y-99363609D01*
X116245824Y-99357682D01*
X116117776Y-99334778D01*
X115997220Y-99312577D01*
X115884133Y-99291832D01*
X115733492Y-99265185D01*
X115574347Y-99237810D01*
X115422720Y-99212425D01*
X115294636Y-99191744D01*
X115206119Y-99178485D01*
X115099970Y-99157619D01*
X115008931Y-99115936D01*
X114969336Y-99054367D01*
X114979214Y-98969175D01*
X115036597Y-98856618D01*
X115057737Y-98821913D01*
X115093211Y-98756251D01*
X115107231Y-98718266D01*
X115107418Y-98714674D01*
X115128421Y-98682388D01*
X115139101Y-98672232D01*
X115172243Y-98623341D01*
X115213371Y-98549868D01*
X115256038Y-98468313D01*
X115318069Y-98353352D01*
X115364155Y-98272892D01*
X115389767Y-98235017D01*
X115393470Y-98230456D01*
X115419795Y-98188407D01*
X115456937Y-98122003D01*
X115459723Y-98116820D01*
X115512987Y-98019779D01*
X115566913Y-97924249D01*
X115618694Y-97833297D01*
X115681098Y-97721461D01*
X115758281Y-97581104D01*
X115856149Y-97401557D01*
X115864141Y-97386891D01*
X115921959Y-97282795D01*
X115973997Y-97192148D01*
X116009835Y-97133148D01*
X116036441Y-97089643D01*
X116085456Y-97003451D01*
X116137411Y-96907119D01*
X116180505Y-96828222D01*
X116228265Y-96756353D01*
X116269490Y-96720110D01*
X116312816Y-96709776D01*
X116316656Y-96710538D01*
G37*
G36*
X112440675Y-103899525D02*
G01*
X112498476Y-103935802D01*
X112588517Y-103990246D01*
X112687895Y-104048886D01*
X112693505Y-104052162D01*
X112779524Y-104104888D01*
X112842977Y-104148249D01*
X112870487Y-104173141D01*
X112872227Y-104176690D01*
X112906938Y-104196552D01*
X112929945Y-104206932D01*
X112993462Y-104242615D01*
X113087677Y-104298317D01*
X113203440Y-104368406D01*
X113331601Y-104447245D01*
X113463010Y-104529200D01*
X113588518Y-104608638D01*
X113698975Y-104679922D01*
X113785230Y-104737419D01*
X113787995Y-104739300D01*
X113849184Y-104775085D01*
X113891182Y-104789877D01*
X113898926Y-104790879D01*
X113920579Y-104818131D01*
X113921391Y-104824877D01*
X113948581Y-104846385D01*
X113955341Y-104848697D01*
X114001964Y-104873478D01*
X114083758Y-104921013D01*
X114191789Y-104985819D01*
X114317125Y-105062411D01*
X114450832Y-105145305D01*
X114583977Y-105229018D01*
X114707626Y-105308064D01*
X114812847Y-105376960D01*
X114851901Y-105400144D01*
X114916519Y-105429699D01*
X114943140Y-105441463D01*
X114966062Y-105464196D01*
X114984354Y-105482428D01*
X115040563Y-105519597D01*
X115121457Y-105565861D01*
X115194094Y-105607636D01*
X115253824Y-105647880D01*
X115276753Y-105671812D01*
X115277436Y-105676702D01*
X115304458Y-105693993D01*
X115333923Y-105704606D01*
X115398663Y-105738791D01*
X115481043Y-105788382D01*
X115494014Y-105796572D01*
X115599313Y-105858421D01*
X115690941Y-105898808D01*
X115792248Y-105926145D01*
X115926586Y-105948839D01*
X116169404Y-105984396D01*
X116388976Y-106016769D01*
X116564375Y-106042931D01*
X116701768Y-106063809D01*
X116807324Y-106080331D01*
X116887209Y-106093426D01*
X116954821Y-106104775D01*
X117093713Y-106127504D01*
X117249582Y-106152189D01*
X117435411Y-106180874D01*
X117664183Y-106215600D01*
X117756706Y-106229622D01*
X117906782Y-106252567D01*
X118043059Y-106273621D01*
X118144495Y-106289545D01*
X118212803Y-106300024D01*
X118346188Y-106318908D01*
X118463267Y-106333777D01*
X118492926Y-106337727D01*
X118589167Y-106361953D01*
X118636627Y-106396845D01*
X118642298Y-106414583D01*
X118646527Y-106470860D01*
X118643116Y-106563308D01*
X118631698Y-106696827D01*
X118611905Y-106876316D01*
X118583369Y-107106674D01*
X118581266Y-107123181D01*
X118567994Y-107230175D01*
X118550650Y-107373091D01*
X118531245Y-107535256D01*
X118511792Y-107700000D01*
X118508082Y-107731581D01*
X118488145Y-107899236D01*
X118468360Y-108062626D01*
X118450834Y-108204461D01*
X118437679Y-108307453D01*
X118426232Y-108394384D01*
X118399998Y-108595960D01*
X118379097Y-108761268D01*
X118361778Y-108904681D01*
X118346287Y-109040572D01*
X118330872Y-109183315D01*
X118322870Y-109256701D01*
X118308077Y-109382370D01*
X118294538Y-109486046D01*
X118284418Y-109550612D01*
X118282018Y-109563703D01*
X118269799Y-109642843D01*
X118254788Y-109753338D01*
X118239690Y-109875528D01*
X118238590Y-109884899D01*
X118221097Y-110031015D01*
X118202233Y-110184444D01*
X118185894Y-110313459D01*
X118169698Y-110440106D01*
X118150338Y-110594261D01*
X118132687Y-110737263D01*
X118126919Y-110784527D01*
X118103014Y-110979695D01*
X118077166Y-111189817D01*
X118051129Y-111400684D01*
X118026662Y-111598086D01*
X118005522Y-111767815D01*
X117989464Y-111895662D01*
X117988471Y-111903518D01*
X117972015Y-112035336D01*
X117953081Y-112189262D01*
X117935570Y-112333593D01*
X117931171Y-112369227D01*
X117915309Y-112485078D01*
X117900024Y-112580379D01*
X117888101Y-112637319D01*
X117869495Y-112700890D01*
X115118063Y-112700890D01*
X112366630Y-112700890D01*
X112366630Y-108275949D01*
X112366630Y-103851009D01*
X112440675Y-103899525D01*
G37*
G36*
X170860709Y-90627400D02*
G01*
X170891018Y-90732210D01*
X170901661Y-90759351D01*
X170922506Y-90833249D01*
X170924020Y-90880542D01*
X170917128Y-90892841D01*
X170872175Y-90915597D01*
X170814794Y-90906682D01*
X170770376Y-90868144D01*
X170751952Y-90842233D01*
X170727414Y-90836728D01*
X170717500Y-90871073D01*
X170716622Y-90874116D01*
X170724549Y-90945955D01*
X170735003Y-90985211D01*
X170760224Y-91020762D01*
X170805170Y-91019785D01*
X170847753Y-91015543D01*
X170906551Y-91029397D01*
X170906615Y-91029436D01*
X170928914Y-91052980D01*
X170926214Y-91092266D01*
X170917040Y-91115128D01*
X170897365Y-91164160D01*
X170864501Y-91274296D01*
X170856789Y-91385271D01*
X170858837Y-91412712D01*
X170856938Y-91470806D01*
X170832682Y-91495831D01*
X170773916Y-91505405D01*
X170737774Y-91510384D01*
X170693391Y-91532037D01*
X170682092Y-91578929D01*
X170681970Y-91586852D01*
X170676194Y-91613938D01*
X170654413Y-91633084D01*
X170606571Y-91647691D01*
X170522616Y-91661161D01*
X170392492Y-91676895D01*
X170116106Y-91708386D01*
X169884205Y-91734082D01*
X169698319Y-91753677D01*
X169553365Y-91767622D01*
X169444262Y-91776372D01*
X169365925Y-91780380D01*
X169313272Y-91780099D01*
X169281221Y-91775982D01*
X169254577Y-91770459D01*
X169216830Y-91772677D01*
X169226630Y-91792562D01*
X169283538Y-91821468D01*
X169309971Y-91832445D01*
X169354797Y-91864091D01*
X169344431Y-91892941D01*
X169278441Y-91919411D01*
X169156397Y-91943915D01*
X169058780Y-91955496D01*
X168889114Y-91950631D01*
X168755424Y-91907278D01*
X168729484Y-91893968D01*
X168662945Y-91869845D01*
X168590382Y-91865173D01*
X168487433Y-91877217D01*
X168470362Y-91879812D01*
X168316115Y-91900422D01*
X168146158Y-91919024D01*
X167972448Y-91934742D01*
X167806943Y-91946697D01*
X167661601Y-91954012D01*
X167548380Y-91955810D01*
X167479239Y-91951211D01*
X167431932Y-91937687D01*
X167342845Y-91885556D01*
X167241046Y-91791137D01*
X167107848Y-91650761D01*
X166966661Y-91676593D01*
X166952084Y-91679146D01*
X166847190Y-91694196D01*
X166715523Y-91709387D01*
X166582051Y-91721787D01*
X166464784Y-91730365D01*
X166389229Y-91731729D01*
X166342503Y-91723311D01*
X166310827Y-91702616D01*
X166280420Y-91667147D01*
X166236716Y-91593702D01*
X166195271Y-91468029D01*
X166179481Y-91336139D01*
X166194223Y-91223159D01*
X166199070Y-91208945D01*
X166236914Y-91126777D01*
X166263590Y-91100433D01*
X170603368Y-91100433D01*
X170606749Y-91133963D01*
X170615247Y-91138384D01*
X170625585Y-91115128D01*
X170623546Y-91100170D01*
X170606749Y-91096292D01*
X170603368Y-91100433D01*
X166263590Y-91100433D01*
X166289372Y-91074972D01*
X166370385Y-91044344D01*
X166493895Y-91025708D01*
X166585572Y-91016078D01*
X166738186Y-91000064D01*
X166877132Y-90985499D01*
X167070058Y-90965293D01*
X167083405Y-90948565D01*
X170346935Y-90948565D01*
X170350315Y-90972961D01*
X170356443Y-90971206D01*
X170395686Y-90944203D01*
X170436944Y-90903069D01*
X170456063Y-90871073D01*
X170444413Y-90844798D01*
X170404027Y-90800595D01*
X170393492Y-90791726D01*
X170365060Y-90775310D01*
X170352548Y-90796582D01*
X170347723Y-90864950D01*
X170347007Y-90886756D01*
X170346935Y-90948565D01*
X167083405Y-90948565D01*
X167222765Y-90773902D01*
X167274789Y-90709650D01*
X167338281Y-90638799D01*
X167352114Y-90627753D01*
X170569510Y-90627753D01*
X170571107Y-90640733D01*
X170594036Y-90663070D01*
X170607303Y-90655784D01*
X170630261Y-90614175D01*
X170643160Y-90560552D01*
X170637055Y-90523854D01*
X170632793Y-90521344D01*
X170607352Y-90536764D01*
X170581579Y-90579430D01*
X170569510Y-90627753D01*
X167352114Y-90627753D01*
X167391478Y-90596321D01*
X167448702Y-90571813D01*
X167524277Y-90554867D01*
X167538294Y-90552354D01*
X167633975Y-90537499D01*
X167763721Y-90519771D01*
X167914667Y-90500668D01*
X168073947Y-90481688D01*
X168228697Y-90464329D01*
X168366050Y-90450088D01*
X168473142Y-90440464D01*
X168537106Y-90436953D01*
X168591100Y-90425212D01*
X168648240Y-90365645D01*
X168664665Y-90338743D01*
X168703194Y-90301557D01*
X168762044Y-90278337D01*
X168853258Y-90265299D01*
X168988877Y-90258663D01*
X169002041Y-90258290D01*
X169094608Y-90257392D01*
X169144342Y-90263767D01*
X169163508Y-90281264D01*
X169164366Y-90313729D01*
X169163779Y-90319893D01*
X169167026Y-90354488D01*
X169195260Y-90363072D01*
X169263254Y-90351252D01*
X169277339Y-90348371D01*
X169373370Y-90332688D01*
X169509544Y-90314344D01*
X169672528Y-90294759D01*
X169848987Y-90275352D01*
X170025588Y-90257541D01*
X170188997Y-90242745D01*
X170325879Y-90232383D01*
X170422901Y-90227873D01*
X170516643Y-90228274D01*
X170580581Y-90237076D01*
X170621940Y-90260059D01*
X170658349Y-90302836D01*
X170711023Y-90354893D01*
X170783564Y-90380534D01*
X170796718Y-90380753D01*
X170833022Y-90390220D01*
X170847345Y-90425020D01*
X170847981Y-90500612D01*
X170847829Y-90515729D01*
X170852999Y-90560552D01*
X170860709Y-90627400D01*
G37*
G36*
X130069936Y-77426251D02*
G01*
X130047236Y-77465816D01*
X129982085Y-77579734D01*
X129920627Y-77687597D01*
X129888841Y-77741077D01*
X129847288Y-77803165D01*
X129821739Y-77831220D01*
X129818192Y-77833033D01*
X129799111Y-77867894D01*
X129786943Y-77899975D01*
X129751233Y-77966063D01*
X129700223Y-78049737D01*
X129652067Y-78126385D01*
X129615374Y-78187620D01*
X129601336Y-78215064D01*
X129600909Y-78216674D01*
X129582539Y-78250770D01*
X129542463Y-78317805D01*
X129488151Y-78405228D01*
X129481766Y-78415369D01*
X129424816Y-78507592D01*
X129379884Y-78583325D01*
X129356211Y-78627030D01*
X129338016Y-78661465D01*
X129296365Y-78732466D01*
X129243367Y-78818290D01*
X129199312Y-78889110D01*
X129163156Y-78949749D01*
X129149278Y-78976647D01*
X129144729Y-78986094D01*
X129116556Y-79035904D01*
X129066929Y-79120754D01*
X129000832Y-79232157D01*
X128923249Y-79361624D01*
X128879149Y-79435352D01*
X128807103Y-79558033D01*
X128749411Y-79659178D01*
X128711106Y-79729892D01*
X128697220Y-79761276D01*
X128696926Y-79764973D01*
X128672262Y-79785428D01*
X128656466Y-79793119D01*
X128631435Y-79834872D01*
X128617009Y-79869541D01*
X128573376Y-79954355D01*
X128509165Y-80068067D01*
X128430689Y-80199618D01*
X128344258Y-80337953D01*
X128296011Y-80415036D01*
X128259233Y-80477228D01*
X128245162Y-80505895D01*
X128232621Y-80531831D01*
X128196957Y-80592428D01*
X128146274Y-80673511D01*
X128099008Y-80751025D01*
X128061688Y-80820062D01*
X128047387Y-80857708D01*
X128046351Y-80865638D01*
X128019133Y-80887319D01*
X128012403Y-80888112D01*
X127990880Y-80914812D01*
X127979792Y-80944192D01*
X127942831Y-81015085D01*
X127884716Y-81117601D01*
X127810408Y-81243217D01*
X127724866Y-81383410D01*
X127633053Y-81529654D01*
X127589436Y-81599931D01*
X127552870Y-81663084D01*
X127538822Y-81693470D01*
X127526356Y-81720669D01*
X127490682Y-81782371D01*
X127439934Y-81863975D01*
X127391794Y-81940640D01*
X127355089Y-82002011D01*
X127341046Y-82029633D01*
X127339514Y-82033383D01*
X127317178Y-82073773D01*
X127272182Y-82151133D01*
X127209601Y-82256947D01*
X127134515Y-82382699D01*
X127052000Y-82519875D01*
X126967135Y-82659960D01*
X126884996Y-82794438D01*
X126882330Y-82798794D01*
X126841259Y-82868880D01*
X126813252Y-82921579D01*
X126795087Y-82955118D01*
X126753151Y-83025631D01*
X126699994Y-83110934D01*
X126656996Y-83180286D01*
X126620487Y-83243415D01*
X126606452Y-83273827D01*
X126595673Y-83298108D01*
X126561545Y-83357824D01*
X126512179Y-83437642D01*
X126509817Y-83441351D01*
X126439507Y-83553714D01*
X126361199Y-83681817D01*
X126284427Y-83809775D01*
X126218725Y-83921702D01*
X126173626Y-84001714D01*
X126159882Y-84026285D01*
X126115603Y-84102493D01*
X126050670Y-84212420D01*
X125970665Y-84346758D01*
X125881167Y-84496197D01*
X125787758Y-84651428D01*
X125696020Y-84803142D01*
X125611533Y-84942030D01*
X125539878Y-85058783D01*
X125497394Y-85128991D01*
X125461750Y-85191264D01*
X125448054Y-85220055D01*
X125447640Y-85221794D01*
X125429310Y-85256718D01*
X125389222Y-85324399D01*
X125334869Y-85412124D01*
X125328512Y-85422219D01*
X125271467Y-85514461D01*
X125226328Y-85590212D01*
X125202382Y-85633926D01*
X125184389Y-85667483D01*
X125142622Y-85737991D01*
X125089538Y-85823281D01*
X125046319Y-85892484D01*
X125009966Y-85953724D01*
X124995996Y-85981638D01*
X124991474Y-85991415D01*
X124963324Y-86041793D01*
X124913696Y-86127130D01*
X124847581Y-86238886D01*
X124769967Y-86368520D01*
X124725867Y-86442248D01*
X124653821Y-86564929D01*
X124596130Y-86666075D01*
X124557825Y-86736789D01*
X124543939Y-86768173D01*
X124543645Y-86771870D01*
X124518980Y-86792325D01*
X124503240Y-86800002D01*
X124478414Y-86841768D01*
X124460798Y-86884824D01*
X124423167Y-86958189D01*
X124378552Y-87034988D01*
X124337571Y-87097164D01*
X124310846Y-87126659D01*
X124307560Y-87128449D01*
X124289656Y-87163333D01*
X124277488Y-87195414D01*
X124241778Y-87261502D01*
X124190768Y-87345176D01*
X124142719Y-87421941D01*
X124105950Y-87484120D01*
X124091881Y-87512792D01*
X124079340Y-87538727D01*
X124043675Y-87599325D01*
X123992993Y-87680408D01*
X123945727Y-87757922D01*
X123908406Y-87826958D01*
X123894105Y-87864605D01*
X123893070Y-87872535D01*
X123865852Y-87894216D01*
X123859122Y-87895009D01*
X123837598Y-87921708D01*
X123826510Y-87951089D01*
X123789549Y-88021982D01*
X123731435Y-88124498D01*
X123657126Y-88250114D01*
X123571585Y-88390306D01*
X123479771Y-88536551D01*
X123436154Y-88606828D01*
X123399589Y-88669980D01*
X123385540Y-88700366D01*
X123373075Y-88727566D01*
X123337401Y-88789268D01*
X123286653Y-88870871D01*
X123238546Y-88947574D01*
X123201818Y-89009244D01*
X123187765Y-89037254D01*
X123184114Y-89045405D01*
X123157280Y-89093462D01*
X123108639Y-89176709D01*
X123043279Y-89286491D01*
X122966285Y-89414152D01*
X122928736Y-89476146D01*
X122853630Y-89600749D01*
X122790848Y-89705710D01*
X122746081Y-89781489D01*
X122725021Y-89818548D01*
X122707135Y-89851804D01*
X122670640Y-89914349D01*
X122652411Y-89944262D01*
X122592259Y-90044000D01*
X122519356Y-90165863D01*
X122442082Y-90295745D01*
X122368817Y-90419539D01*
X122307940Y-90523139D01*
X122267832Y-90592436D01*
X122246625Y-90629242D01*
X122191701Y-90722637D01*
X122123084Y-90837777D01*
X122050825Y-90957743D01*
X121897967Y-91210036D01*
X122071180Y-91381547D01*
X122090731Y-91401065D01*
X122181450Y-91495281D01*
X122262366Y-91584588D01*
X122317931Y-91651946D01*
X122328902Y-91667374D01*
X122377348Y-91744212D01*
X122437966Y-91849397D01*
X122505015Y-91971870D01*
X122572750Y-92100571D01*
X122635430Y-92224442D01*
X122687311Y-92332424D01*
X122722651Y-92413456D01*
X122735707Y-92456481D01*
X122739217Y-92485215D01*
X122761430Y-92549382D01*
X122785951Y-92603357D01*
X122832767Y-92745406D01*
X122876019Y-92924618D01*
X122913501Y-93128181D01*
X122943009Y-93343281D01*
X122962335Y-93557105D01*
X122969276Y-93756841D01*
X122967121Y-93857229D01*
X122953442Y-94052875D01*
X122929232Y-94255390D01*
X122896920Y-94448930D01*
X122858934Y-94617653D01*
X122817702Y-94745717D01*
X122800340Y-94792673D01*
X122770891Y-94878960D01*
X122737867Y-94980396D01*
X122723280Y-95023432D01*
X122647728Y-95204307D01*
X122537250Y-95423631D01*
X122393484Y-95678087D01*
X122384731Y-95692892D01*
X122353348Y-95744640D01*
X122322721Y-95790724D01*
X122285346Y-95840861D01*
X122233718Y-95904762D01*
X122160331Y-95992144D01*
X122057680Y-96112719D01*
X121992002Y-96189337D01*
X121905323Y-96287404D01*
X121832683Y-96362684D01*
X121760444Y-96428067D01*
X121674969Y-96496445D01*
X121562621Y-96580709D01*
X121524164Y-96609538D01*
X121465354Y-96655281D01*
X121436041Y-96680529D01*
X121415631Y-96701248D01*
X121331727Y-96765367D01*
X121210085Y-96842014D01*
X121061491Y-96925730D01*
X120896731Y-97011060D01*
X120726593Y-97092548D01*
X120561862Y-97164735D01*
X120413326Y-97222167D01*
X120291769Y-97259386D01*
X120290311Y-97259740D01*
X120183489Y-97287016D01*
X120092710Y-97312636D01*
X120037487Y-97331096D01*
X120023549Y-97336784D01*
X119942183Y-97362928D01*
X119840712Y-97383207D01*
X119707003Y-97399601D01*
X119528922Y-97414090D01*
X119358243Y-97424950D01*
X119137608Y-97434555D01*
X118954086Y-97435801D01*
X118796347Y-97428676D01*
X118653060Y-97413166D01*
X118547201Y-97398245D01*
X118430328Y-97381766D01*
X118342270Y-97369343D01*
X118320365Y-97365859D01*
X118245873Y-97347957D01*
X118202415Y-97328029D01*
X118178188Y-97314071D01*
X118117654Y-97302253D01*
X118115959Y-97302232D01*
X118080212Y-97298302D01*
X118026752Y-97285869D01*
X117946693Y-97262330D01*
X117831153Y-97225084D01*
X117671247Y-97171530D01*
X117644771Y-97158671D01*
X117621803Y-97129853D01*
X117617984Y-97119199D01*
X117582132Y-97104894D01*
X117514578Y-97088556D01*
X117410750Y-97041991D01*
X117280061Y-96970778D01*
X117131049Y-96880500D01*
X116972255Y-96776741D01*
X116812220Y-96665085D01*
X116659484Y-96551116D01*
X116522587Y-96440418D01*
X116410070Y-96338574D01*
X116296342Y-96220747D01*
X116147883Y-96050531D01*
X116006713Y-95872109D01*
X115884634Y-95700555D01*
X115793447Y-95550945D01*
X115781948Y-95529574D01*
X115719865Y-95414895D01*
X115661948Y-95308926D01*
X115619427Y-95232233D01*
X115606004Y-95207128D01*
X115572645Y-95130473D01*
X115559289Y-95075425D01*
X115556436Y-95048350D01*
X115535811Y-94998587D01*
X115517738Y-94961525D01*
X115490988Y-94885491D01*
X115462057Y-94788098D01*
X115435352Y-94694001D01*
X115407866Y-94603909D01*
X115388502Y-94547942D01*
X115375754Y-94506715D01*
X115356559Y-94395176D01*
X115341874Y-94243923D01*
X115331703Y-94063594D01*
X115326053Y-93864831D01*
X115324932Y-93658274D01*
X115328345Y-93454563D01*
X115336299Y-93264338D01*
X115348801Y-93098238D01*
X115365858Y-92966905D01*
X115387475Y-92880979D01*
X115402273Y-92839326D01*
X115429329Y-92754788D01*
X115459259Y-92654950D01*
X115483497Y-92575330D01*
X115512592Y-92489018D01*
X115533851Y-92436368D01*
X115546689Y-92405843D01*
X115559289Y-92345403D01*
X115560935Y-92332754D01*
X115581954Y-92272434D01*
X115619427Y-92196688D01*
X115625911Y-92185127D01*
X115672290Y-92101192D01*
X115731916Y-91991955D01*
X115793556Y-91877975D01*
X115827669Y-91814735D01*
X115885907Y-91709584D01*
X115934108Y-91630467D01*
X115983401Y-91561124D01*
X116044912Y-91485296D01*
X116129769Y-91386726D01*
X116137751Y-91377556D01*
X116286826Y-91212333D01*
X116429452Y-91064991D01*
X116556476Y-90944637D01*
X116658744Y-90860379D01*
X116698673Y-90830641D01*
X116789831Y-90760102D01*
X116880642Y-90687246D01*
X116899463Y-90672643D01*
X116994897Y-90609642D01*
X117125092Y-90534098D01*
X117276395Y-90452940D01*
X117435149Y-90373096D01*
X117587701Y-90301498D01*
X117720396Y-90245074D01*
X117819578Y-90210754D01*
X117853533Y-90201362D01*
X117941401Y-90174963D01*
X118003227Y-90153522D01*
X118038621Y-90140684D01*
X118167025Y-90107511D01*
X118332623Y-90078874D01*
X118366689Y-90072732D01*
X118419393Y-90049868D01*
X118450356Y-90004361D01*
X118465069Y-89925005D01*
X118469025Y-89800593D01*
X118469051Y-89796074D01*
X118473294Y-89693561D01*
X118483320Y-89563643D01*
X118497070Y-89433296D01*
X118507089Y-89347820D01*
X118523552Y-89197266D01*
X118540844Y-89029994D01*
X118556546Y-88868965D01*
X118566241Y-88765933D01*
X118593839Y-88476379D01*
X118618438Y-88224929D01*
X118641401Y-87997798D01*
X118664091Y-87781201D01*
X118670707Y-87717682D01*
X118685402Y-87570928D01*
X118702570Y-87394244D01*
X118720585Y-87204446D01*
X118737821Y-87018354D01*
X118747402Y-86914281D01*
X118765279Y-86724023D01*
X118783013Y-86539596D01*
X118798979Y-86377818D01*
X118811550Y-86255506D01*
X118828874Y-86091269D01*
X118861127Y-85773277D01*
X118889868Y-85470048D01*
X118917793Y-85153615D01*
X118930509Y-85011318D01*
X118943890Y-84873195D01*
X118955914Y-84760000D01*
X118964991Y-84687430D01*
X118971408Y-84639241D01*
X118983441Y-84534622D01*
X118997165Y-84403567D01*
X119010686Y-84263626D01*
X119018096Y-84184254D01*
X119034279Y-84015215D01*
X119050619Y-83849137D01*
X119064512Y-83712681D01*
X119072797Y-83633223D01*
X119099968Y-83368294D01*
X119127656Y-83091112D01*
X119157315Y-82786998D01*
X119190400Y-82441268D01*
X119200573Y-82334639D01*
X119218677Y-82146841D01*
X119236286Y-81966348D01*
X119251803Y-81809477D01*
X119263633Y-81692547D01*
X119270933Y-81621639D01*
X119290351Y-81430493D01*
X119310583Y-81227351D01*
X119332716Y-81001144D01*
X119357835Y-80740804D01*
X119387027Y-80435261D01*
X119396999Y-80331025D01*
X119415406Y-80140806D01*
X119433483Y-79956427D01*
X119449579Y-79794694D01*
X119462041Y-79672414D01*
X119489097Y-79409417D01*
X119517402Y-79124615D01*
X119543142Y-78852833D01*
X119568595Y-78570523D01*
X119580966Y-78437127D01*
X119597507Y-78273271D01*
X119613890Y-78124115D01*
X119627911Y-78010469D01*
X119641284Y-77894712D01*
X119652038Y-77763237D01*
X119656221Y-77657299D01*
X119657422Y-77612575D01*
X119667963Y-77499212D01*
X119685802Y-77405061D01*
X119715226Y-77299110D01*
X124929106Y-77299110D01*
X130142985Y-77299110D01*
X130069936Y-77426251D01*
G37*
G36*
X182053615Y-99228487D02*
G01*
X181958857Y-99606877D01*
X181930005Y-99722089D01*
X181852148Y-100209101D01*
X181823821Y-100647002D01*
X181821492Y-100683003D01*
X181839373Y-101134505D01*
X181839483Y-101137276D01*
X181873323Y-101425866D01*
X181931358Y-101755681D01*
X182011279Y-102064914D01*
X182118238Y-102372813D01*
X182188210Y-102536649D01*
X182257386Y-102698621D01*
X182439128Y-103113645D01*
X182449734Y-103137864D01*
X182611546Y-103556521D01*
X182739274Y-103948511D01*
X182748175Y-103982977D01*
X182835468Y-104320993D01*
X182854860Y-104417924D01*
X182886694Y-104642636D01*
X182905835Y-104882840D01*
X182912428Y-105126744D01*
X182906615Y-105362557D01*
X182896192Y-105487076D01*
X182888541Y-105578488D01*
X182858349Y-105762746D01*
X182816183Y-105903541D01*
X182794648Y-105984843D01*
X182793411Y-106061991D01*
X182794713Y-106108750D01*
X182767486Y-106149050D01*
X182699018Y-106193333D01*
X182534162Y-106282813D01*
X181998994Y-106545059D01*
X181461822Y-106766359D01*
X180929508Y-106944336D01*
X180408913Y-107076611D01*
X179906897Y-107160808D01*
X179858727Y-107166667D01*
X179739603Y-107181392D01*
X179641507Y-107193838D01*
X179581981Y-107201790D01*
X179542356Y-107207497D01*
X179465787Y-107214549D01*
X179427387Y-107200620D01*
X179413998Y-107155356D01*
X179412459Y-107068403D01*
X179412459Y-106917117D01*
X179788469Y-106897615D01*
X179872301Y-106892784D01*
X180074975Y-106877127D01*
X180261982Y-106857307D01*
X180425162Y-106834560D01*
X180556354Y-106810121D01*
X180647396Y-106785226D01*
X180690128Y-106761109D01*
X180702601Y-106713258D01*
X180709412Y-106619010D01*
X180710682Y-106489501D01*
X180706930Y-106335292D01*
X180698678Y-106166948D01*
X180686446Y-105995033D01*
X180670755Y-105830108D01*
X180652126Y-105682739D01*
X180631079Y-105563489D01*
X180618091Y-105505504D01*
X180577490Y-105336169D01*
X180525321Y-105129983D01*
X180500910Y-105036801D01*
X180999926Y-105036801D01*
X181001120Y-105100167D01*
X181037881Y-105139460D01*
X181039587Y-105140036D01*
X181090431Y-105141841D01*
X181177242Y-105132449D01*
X181282248Y-105113732D01*
X181295716Y-105110918D01*
X181391621Y-105092105D01*
X181460678Y-105080664D01*
X181488717Y-105078980D01*
X181493343Y-105088750D01*
X181513945Y-105138207D01*
X181544113Y-105213682D01*
X181560072Y-105254181D01*
X181589644Y-105329115D01*
X181607196Y-105373427D01*
X181607254Y-105373578D01*
X181590544Y-105402316D01*
X181534958Y-105446077D01*
X181452433Y-105495452D01*
X181414132Y-105516744D01*
X181297209Y-105600088D01*
X181234760Y-105683202D01*
X181225211Y-105767977D01*
X181232583Y-105785711D01*
X181283044Y-105817112D01*
X181368959Y-105826563D01*
X181478170Y-105813726D01*
X181598516Y-105778269D01*
X181631762Y-105766401D01*
X181739410Y-105733502D01*
X181871999Y-105698010D01*
X182008193Y-105665783D01*
X182143396Y-105635419D01*
X182260416Y-105605785D01*
X182337071Y-105579828D01*
X182381610Y-105553853D01*
X182402284Y-105524167D01*
X182407342Y-105487076D01*
X182393427Y-105417833D01*
X182338108Y-105358588D01*
X182237193Y-105323192D01*
X182087016Y-105309613D01*
X181884650Y-105305765D01*
X181834296Y-105171164D01*
X181816279Y-105121261D01*
X181796320Y-105059000D01*
X181791915Y-105033299D01*
X181796956Y-105030923D01*
X181840193Y-105009755D01*
X181917226Y-104971726D01*
X182015885Y-104922840D01*
X182095209Y-104881431D01*
X182192294Y-104818463D01*
X182241404Y-104761823D01*
X182246594Y-104705753D01*
X182211918Y-104644496D01*
X182185604Y-104615552D01*
X182151577Y-104598651D01*
X182098965Y-104600447D01*
X182009697Y-104618630D01*
X181945429Y-104633866D01*
X181796257Y-104673501D01*
X181636436Y-104720549D01*
X181476842Y-104771351D01*
X181328349Y-104822245D01*
X181201833Y-104869572D01*
X181108169Y-104909671D01*
X181058232Y-104938881D01*
X181032443Y-104967634D01*
X180999926Y-105036801D01*
X180500910Y-105036801D01*
X180464829Y-104899068D01*
X180399259Y-104655543D01*
X180331856Y-104411531D01*
X180265867Y-104179150D01*
X180249194Y-104122434D01*
X180719696Y-104122434D01*
X180747306Y-104159080D01*
X180766372Y-104175827D01*
X180799859Y-104187902D01*
X180851502Y-104180784D01*
X180938627Y-104154014D01*
X180947621Y-104151054D01*
X181044097Y-104126360D01*
X181101034Y-104134040D01*
X181128233Y-104179843D01*
X181135497Y-104269520D01*
X181129505Y-104319487D01*
X181095929Y-104379627D01*
X181022915Y-104447437D01*
X180972736Y-104492820D01*
X180920988Y-104564380D01*
X180914200Y-104622311D01*
X180954592Y-104659713D01*
X180965741Y-104664291D01*
X180985771Y-104672128D01*
X181005672Y-104671582D01*
X181037941Y-104658101D01*
X181095076Y-104627133D01*
X181189572Y-104574126D01*
X181281598Y-104523079D01*
X181410285Y-104452229D01*
X181554893Y-104372998D01*
X181698137Y-104294878D01*
X181823812Y-104224107D01*
X181971870Y-104129898D01*
X182068532Y-104050250D01*
X182115069Y-103982977D01*
X182112754Y-103925893D01*
X182062858Y-103876813D01*
X181966655Y-103833551D01*
X181922520Y-103822335D01*
X181801689Y-103809663D01*
X181646563Y-103808713D01*
X181470887Y-103818893D01*
X181288409Y-103839612D01*
X181112875Y-103870279D01*
X181038267Y-103886686D01*
X180924058Y-103917117D01*
X180846559Y-103949343D01*
X180792883Y-103989531D01*
X180750146Y-104043845D01*
X180725930Y-104084206D01*
X180719696Y-104122434D01*
X180249194Y-104122434D01*
X180204537Y-103970523D01*
X180147566Y-103779221D01*
X180076186Y-103531845D01*
X180017148Y-103315151D01*
X180000297Y-103248170D01*
X180503122Y-103248170D01*
X180503403Y-103338888D01*
X180532437Y-103424333D01*
X180603068Y-103521118D01*
X180714377Y-103586703D01*
X180772393Y-103606087D01*
X180948865Y-103631146D01*
X181142130Y-103619023D01*
X181336527Y-103572929D01*
X181516394Y-103496073D01*
X181666068Y-103391665D01*
X181735921Y-103325158D01*
X181776173Y-103270904D01*
X181793296Y-103211405D01*
X181797717Y-103125582D01*
X181797853Y-103113645D01*
X181793418Y-103023060D01*
X181774007Y-102966144D01*
X181733189Y-102922677D01*
X181712683Y-102907615D01*
X181635844Y-102874088D01*
X181566188Y-102871719D01*
X181515690Y-102895872D01*
X181496325Y-102941911D01*
X181520066Y-103005198D01*
X181550337Y-103071086D01*
X181541750Y-103154442D01*
X181480314Y-103232228D01*
X181368097Y-103302092D01*
X181207162Y-103361680D01*
X181051089Y-103396272D01*
X180907342Y-103400713D01*
X180801286Y-103369024D01*
X180735499Y-103302044D01*
X180712558Y-103200612D01*
X180711559Y-103176253D01*
X180693848Y-103133430D01*
X180642143Y-103122914D01*
X180606518Y-103128226D01*
X180540998Y-103172493D01*
X180503122Y-103248170D01*
X180000297Y-103248170D01*
X179966927Y-103115532D01*
X179922000Y-102919380D01*
X179878840Y-102713088D01*
X179833345Y-102460893D01*
X179802061Y-102240002D01*
X180237002Y-102240002D01*
X180241108Y-102262406D01*
X180259752Y-102297963D01*
X180299811Y-102327273D01*
X180369881Y-102354137D01*
X180478555Y-102382354D01*
X180634428Y-102415724D01*
X180649913Y-102418945D01*
X180738967Y-102442353D01*
X180784257Y-102467797D01*
X180796886Y-102501116D01*
X180778172Y-102542835D01*
X180708950Y-102572666D01*
X180652557Y-102592986D01*
X180564830Y-102647331D01*
X180483858Y-102718718D01*
X180424431Y-102793441D01*
X180401336Y-102857792D01*
X180404465Y-102885253D01*
X180431299Y-102916902D01*
X180489545Y-102917037D01*
X180583975Y-102885098D01*
X180719363Y-102820524D01*
X180786036Y-102788883D01*
X180942223Y-102730880D01*
X181086660Y-102696860D01*
X181162888Y-102685926D01*
X181298069Y-102666640D01*
X181415599Y-102649980D01*
X181519400Y-102627651D01*
X181591743Y-102588773D01*
X181609603Y-102536649D01*
X181572673Y-102471627D01*
X181558610Y-102456922D01*
X181524532Y-102432579D01*
X181477203Y-102420360D01*
X181402272Y-102417808D01*
X181285386Y-102422468D01*
X181053418Y-102434580D01*
X181162912Y-102315793D01*
X181178734Y-102298317D01*
X181255226Y-102203894D01*
X181312279Y-102117039D01*
X181343374Y-102048864D01*
X181341996Y-102010478D01*
X181320020Y-101996412D01*
X181259194Y-101999438D01*
X181171990Y-102044556D01*
X181054690Y-102133358D01*
X180885756Y-102273946D01*
X180763167Y-102219719D01*
X180680128Y-102185652D01*
X180528814Y-102139091D01*
X180402938Y-102121474D01*
X180308407Y-102132571D01*
X180251126Y-102172157D01*
X180237002Y-102240002D01*
X179802061Y-102240002D01*
X179790281Y-102156827D01*
X179757528Y-101846941D01*
X179735613Y-101541351D01*
X179725063Y-101250174D01*
X179725823Y-101099237D01*
X180185906Y-101099237D01*
X180211624Y-101213624D01*
X180288358Y-101311189D01*
X180413651Y-101386381D01*
X180528692Y-101420409D01*
X180690794Y-101441493D01*
X180857486Y-101441011D01*
X181002538Y-101417575D01*
X181103207Y-101379629D01*
X181208572Y-101309812D01*
X181274120Y-101225560D01*
X181294500Y-101134505D01*
X181264360Y-101044276D01*
X181246192Y-101018702D01*
X181182731Y-100956307D01*
X181123987Y-100930252D01*
X181080315Y-100939609D01*
X181062070Y-100983449D01*
X181079606Y-101060844D01*
X181099030Y-101116430D01*
X181094610Y-101162296D01*
X181054630Y-101210748D01*
X181050689Y-101214477D01*
X180974410Y-101252929D01*
X180864749Y-101272296D01*
X180740147Y-101272447D01*
X180619046Y-101253250D01*
X180519889Y-101214573D01*
X180496477Y-101199839D01*
X180434542Y-101140634D01*
X180407128Y-101062025D01*
X180407224Y-100947386D01*
X180408794Y-100884915D01*
X180391730Y-100854825D01*
X180344828Y-100848498D01*
X180318535Y-100851045D01*
X180268368Y-100880966D01*
X180222480Y-100954332D01*
X180213662Y-100973584D01*
X180185906Y-101099237D01*
X179725823Y-101099237D01*
X179726405Y-100983525D01*
X179740166Y-100751522D01*
X179766874Y-100564280D01*
X179785099Y-100489664D01*
X180350437Y-100489664D01*
X180358955Y-100620690D01*
X180627365Y-100655805D01*
X180791872Y-100676907D01*
X180969352Y-100697940D01*
X181102646Y-100710799D01*
X181198436Y-100715776D01*
X181263404Y-100713162D01*
X181304233Y-100703248D01*
X181327605Y-100686326D01*
X181347601Y-100647002D01*
X181321520Y-100609954D01*
X181290801Y-100590411D01*
X181195990Y-100554315D01*
X181068977Y-100524133D01*
X180925865Y-100503295D01*
X180782759Y-100495231D01*
X180738191Y-100494946D01*
X180626500Y-100489994D01*
X180559026Y-100471821D01*
X180526376Y-100431242D01*
X180519154Y-100359073D01*
X180527966Y-100246128D01*
X180528452Y-100241231D01*
X180535520Y-100138468D01*
X180535607Y-100057442D01*
X180528661Y-100015315D01*
X180500220Y-99998307D01*
X180465332Y-100025029D01*
X180429257Y-100087543D01*
X180395862Y-100175557D01*
X180369016Y-100278776D01*
X180352585Y-100386910D01*
X180350437Y-100489664D01*
X179785099Y-100489664D01*
X179820559Y-100344491D01*
X179948481Y-99963922D01*
X180088463Y-99644279D01*
X180592366Y-99644279D01*
X180604746Y-99749079D01*
X180648407Y-99842218D01*
X180682164Y-99881873D01*
X180741993Y-99929460D01*
X180825662Y-99971821D01*
X180943767Y-100014015D01*
X181106902Y-100061098D01*
X181156017Y-100074287D01*
X181257077Y-100100662D01*
X181330137Y-100118653D01*
X181361959Y-100124946D01*
X181409229Y-100108572D01*
X181443201Y-100064149D01*
X181440788Y-100012339D01*
X181397276Y-99973375D01*
X181377536Y-99966694D01*
X181306388Y-99945875D01*
X181203330Y-99917735D01*
X181083306Y-99886412D01*
X180953021Y-99851329D01*
X180847664Y-99816513D01*
X180782583Y-99783632D01*
X180749560Y-99748371D01*
X180740379Y-99706418D01*
X180757395Y-99645186D01*
X180812328Y-99606904D01*
X180908638Y-99592838D01*
X181049777Y-99602499D01*
X181239193Y-99635394D01*
X181277324Y-99643060D01*
X181399784Y-99662670D01*
X181477956Y-99663665D01*
X181519351Y-99645311D01*
X181531480Y-99606877D01*
X181516473Y-99565222D01*
X181449968Y-99515733D01*
X181329334Y-99472173D01*
X181153491Y-99434046D01*
X180999248Y-99413833D01*
X180842426Y-99415253D01*
X180723411Y-99447715D01*
X180636384Y-99512095D01*
X180612086Y-99550362D01*
X180592366Y-99644279D01*
X180088463Y-99644279D01*
X180123985Y-99563167D01*
X180345286Y-99145493D01*
X180388287Y-99075584D01*
X180853669Y-99075584D01*
X180861820Y-99115305D01*
X180891108Y-99139154D01*
X180925823Y-99144741D01*
X181001454Y-99163741D01*
X181095946Y-99191550D01*
X181165029Y-99213141D01*
X181297425Y-99254276D01*
X181414647Y-99290437D01*
X181478133Y-99309359D01*
X181550388Y-99329223D01*
X181586853Y-99336930D01*
X181597826Y-99335068D01*
X181645002Y-99298087D01*
X181695064Y-99225217D01*
X181740332Y-99131660D01*
X181773125Y-99032615D01*
X181785763Y-98943281D01*
X181784060Y-98917702D01*
X181749524Y-98845771D01*
X181672410Y-98808864D01*
X181555207Y-98808436D01*
X181488708Y-98812829D01*
X181427632Y-98794828D01*
X181363678Y-98740976D01*
X181273912Y-98679362D01*
X181160561Y-98657994D01*
X181046971Y-98689343D01*
X181004328Y-98730648D01*
X180952835Y-98809559D01*
X180904236Y-98905989D01*
X180868018Y-99000983D01*
X180853669Y-99075584D01*
X180388287Y-99075584D01*
X180610594Y-98714170D01*
X180918121Y-98272466D01*
X181266081Y-97823650D01*
X181384926Y-97679476D01*
X181515455Y-97525627D01*
X181628111Y-97397927D01*
X181718695Y-97300996D01*
X181783008Y-97239450D01*
X181816851Y-97217909D01*
X181822814Y-97230715D01*
X181830558Y-97290820D01*
X181836723Y-97391761D01*
X181840798Y-97524247D01*
X181842270Y-97678989D01*
X181842270Y-98140069D01*
X182244697Y-97935854D01*
X182332982Y-97891558D01*
X182460226Y-97829662D01*
X182564029Y-97781573D01*
X182635488Y-97751366D01*
X182665698Y-97743118D01*
X182666454Y-97744175D01*
X182658024Y-97777967D01*
X182627860Y-97850482D01*
X182580304Y-97951929D01*
X182519695Y-98072515D01*
X182432310Y-98247581D01*
X182221533Y-98734811D01*
X182150624Y-98943281D01*
X182053615Y-99228487D01*
G37*
G36*
X160909174Y-85079966D02*
G01*
X160806334Y-85168342D01*
X160726780Y-85236769D01*
X160680312Y-85276822D01*
X160642510Y-85309158D01*
X160566132Y-85373902D01*
X160468370Y-85456400D01*
X160361356Y-85546401D01*
X160299849Y-85598367D01*
X160215028Y-85673810D01*
X160150699Y-85741088D01*
X160098527Y-85812310D01*
X160050176Y-85899587D01*
X159997309Y-86015029D01*
X159931591Y-86170745D01*
X159890665Y-86268013D01*
X159849880Y-86363233D01*
X159842462Y-86380552D01*
X159804355Y-86467408D01*
X159801796Y-86473138D01*
X159769493Y-86547449D01*
X159722243Y-86658304D01*
X159665990Y-86791690D01*
X159606675Y-86933593D01*
X159599679Y-86950398D01*
X159540416Y-87092023D01*
X159484920Y-87223471D01*
X159439132Y-87330727D01*
X159408994Y-87399777D01*
X159388012Y-87446719D01*
X159312087Y-87622519D01*
X159257325Y-87762945D01*
X159219762Y-87879999D01*
X159195435Y-87985680D01*
X159180380Y-88091991D01*
X159176147Y-88131731D01*
X159142637Y-88437707D01*
X159112251Y-88704821D01*
X159102542Y-88790175D01*
X159055326Y-89193882D01*
X159052015Y-89221882D01*
X159023413Y-89463790D01*
X159000173Y-89660453D01*
X158981133Y-89821723D01*
X158965131Y-89957451D01*
X158951007Y-90077489D01*
X158937598Y-90191688D01*
X158923744Y-90309900D01*
X158920598Y-90336831D01*
X158905024Y-90477573D01*
X158895954Y-90588045D01*
X158893427Y-90685523D01*
X158897485Y-90787282D01*
X158908166Y-90910599D01*
X158925511Y-91072747D01*
X158934296Y-91152649D01*
X158952670Y-91321534D01*
X158970503Y-91487406D01*
X158984929Y-91623693D01*
X158994978Y-91719388D01*
X159016205Y-91919455D01*
X159040253Y-92144135D01*
X159065379Y-92377265D01*
X159089838Y-92602685D01*
X159111886Y-92804230D01*
X159128059Y-92950219D01*
X159129779Y-92965740D01*
X159131806Y-92983915D01*
X159148791Y-93139420D01*
X159166311Y-93304401D01*
X159180874Y-93446051D01*
X159184136Y-93474378D01*
X159210852Y-93625991D01*
X159252955Y-93799055D01*
X159304567Y-93968743D01*
X159321846Y-94019397D01*
X159368285Y-94155183D01*
X159426887Y-94326215D01*
X159493488Y-94520351D01*
X159563924Y-94725448D01*
X159634030Y-94929366D01*
X159665944Y-95022174D01*
X159738414Y-95233170D01*
X159810267Y-95442670D01*
X159877056Y-95637692D01*
X159909445Y-95732445D01*
X159934332Y-95805252D01*
X159977649Y-95932369D01*
X159978292Y-95934262D01*
X160026324Y-96072066D01*
X160072167Y-96197496D01*
X160110657Y-96296787D01*
X160136631Y-96356173D01*
X160154781Y-96386482D01*
X160204307Y-96461878D01*
X160278022Y-96570299D01*
X160370862Y-96704386D01*
X160477763Y-96856783D01*
X160593662Y-97020133D01*
X160653908Y-97104634D01*
X160785296Y-97289300D01*
X160916078Y-97473573D01*
X161038183Y-97646061D01*
X161143544Y-97795374D01*
X161171002Y-97834490D01*
X161224093Y-97910122D01*
X161240236Y-97933112D01*
X161323877Y-98048736D01*
X161398757Y-98146841D01*
X161457231Y-98217672D01*
X161491655Y-98251477D01*
X161525673Y-98270848D01*
X161602281Y-98312880D01*
X161706068Y-98368955D01*
X161824584Y-98432313D01*
X161899526Y-98472283D01*
X162048583Y-98552156D01*
X162220111Y-98644400D01*
X162399650Y-98741211D01*
X162572737Y-98834789D01*
X162724912Y-98917332D01*
X162736318Y-98923553D01*
X162841714Y-98981039D01*
X162901193Y-99021974D01*
X162928760Y-99066867D01*
X162905376Y-99098764D01*
X162831570Y-99110901D01*
X162772817Y-99118385D01*
X162708431Y-99161928D01*
X162686319Y-99242025D01*
X162679378Y-99284101D01*
X162651002Y-99328199D01*
X162645427Y-99330379D01*
X162592886Y-99339178D01*
X162495400Y-99349453D01*
X162361877Y-99360447D01*
X162201227Y-99371403D01*
X162022359Y-99381565D01*
X162018010Y-99381788D01*
X161816415Y-99391597D01*
X161612125Y-99400596D01*
X161419919Y-99408201D01*
X161254576Y-99413824D01*
X161130873Y-99416882D01*
X161070702Y-99417775D01*
X160955323Y-99417825D01*
X160876699Y-99412667D01*
X160820773Y-99399644D01*
X160773486Y-99376099D01*
X160720779Y-99339374D01*
X160608846Y-99257058D01*
X160100697Y-99259800D01*
X159592548Y-99262542D01*
X158843827Y-98878810D01*
X158701474Y-98806043D01*
X158657503Y-98783499D01*
X161142745Y-98783499D01*
X161146138Y-98827785D01*
X161160052Y-98839515D01*
X161216193Y-98874511D01*
X161303930Y-98923755D01*
X161411617Y-98980547D01*
X161662024Y-99108923D01*
X161792388Y-99016238D01*
X161922751Y-98923553D01*
X161746526Y-98829718D01*
X161655493Y-98780973D01*
X161530203Y-98713268D01*
X161423497Y-98654982D01*
X161357148Y-98620391D01*
X161283098Y-98586993D01*
X161239664Y-98574082D01*
X161217216Y-98590014D01*
X161186018Y-98643633D01*
X161158617Y-98715122D01*
X161142745Y-98783499D01*
X158657503Y-98783499D01*
X158512643Y-98709230D01*
X158360903Y-98628803D01*
X158238554Y-98558302D01*
X158137896Y-98491263D01*
X158051230Y-98421225D01*
X157970856Y-98341726D01*
X157889074Y-98246302D01*
X157798186Y-98128492D01*
X157690490Y-97981833D01*
X157558288Y-97799863D01*
X157489642Y-97705765D01*
X157397739Y-97580157D01*
X157319015Y-97472987D01*
X157260152Y-97393345D01*
X157227832Y-97350321D01*
X157187947Y-97297883D01*
X157147716Y-97244192D01*
X159691436Y-97244192D01*
X159698089Y-97273026D01*
X159731748Y-97341845D01*
X159784290Y-97420583D01*
X159788927Y-97426702D01*
X159854189Y-97514457D01*
X159934230Y-97624154D01*
X160012799Y-97733537D01*
X160034851Y-97764155D01*
X160096334Y-97845259D01*
X160143361Y-97901081D01*
X160167164Y-97920972D01*
X160374344Y-97863658D01*
X160449799Y-97834490D01*
X160148315Y-97408092D01*
X160054080Y-97276341D01*
X159966488Y-97156886D01*
X159894218Y-97061467D01*
X159842915Y-96997536D01*
X159818229Y-96972544D01*
X159796474Y-96984406D01*
X159762843Y-97034032D01*
X159728650Y-97105606D01*
X159702108Y-97181527D01*
X159691436Y-97244192D01*
X157147716Y-97244192D01*
X157121463Y-97209155D01*
X157039882Y-97099535D01*
X156952693Y-96981837D01*
X156869389Y-96868873D01*
X156799458Y-96773459D01*
X156752393Y-96708407D01*
X156751181Y-96706673D01*
X156717300Y-96644522D01*
X156671668Y-96543070D01*
X156620113Y-96415986D01*
X156568459Y-96276938D01*
X156532034Y-96174112D01*
X156458238Y-95965845D01*
X156399314Y-95799660D01*
X156352468Y-95667699D01*
X156314908Y-95562103D01*
X156283837Y-95475013D01*
X156256464Y-95398570D01*
X156229993Y-95324916D01*
X156208833Y-95265818D01*
X156163076Y-95136958D01*
X156110992Y-94989333D01*
X156060236Y-94844605D01*
X156034821Y-94772115D01*
X156021107Y-94733304D01*
X158557394Y-94733304D01*
X158721801Y-95215739D01*
X158776447Y-95373905D01*
X158826115Y-95510406D01*
X158865207Y-95606411D01*
X158896983Y-95669120D01*
X158924700Y-95705732D01*
X158951618Y-95723447D01*
X158952903Y-95723937D01*
X159028269Y-95741458D01*
X159117099Y-95748721D01*
X159170639Y-95746424D01*
X159201904Y-95732445D01*
X159197950Y-95699277D01*
X159197874Y-95699083D01*
X159180089Y-95650080D01*
X159148303Y-95559502D01*
X159106125Y-95437903D01*
X159057168Y-95295833D01*
X159005042Y-95143845D01*
X158953358Y-94992490D01*
X158905729Y-94852321D01*
X158865764Y-94733890D01*
X158837076Y-94647749D01*
X158823274Y-94604449D01*
X158796263Y-94532082D01*
X158763577Y-94506657D01*
X158718863Y-94531124D01*
X158654957Y-94605530D01*
X158557394Y-94733304D01*
X156021107Y-94733304D01*
X155975700Y-94604801D01*
X155915619Y-94436203D01*
X155864302Y-94293659D01*
X155801194Y-94087919D01*
X155739103Y-93742714D01*
X155732509Y-93683835D01*
X155712730Y-93511512D01*
X155691910Y-93334931D01*
X155673593Y-93184314D01*
X155641003Y-92922576D01*
X155172838Y-92937552D01*
X155021113Y-92942749D01*
X154804372Y-92950899D01*
X154567376Y-92960420D01*
X154329807Y-92970517D01*
X154111347Y-92980395D01*
X153972032Y-92986731D01*
X153744256Y-92996531D01*
X153487287Y-93007090D01*
X153216870Y-93017778D01*
X152948749Y-93027963D01*
X152698666Y-93037015D01*
X152679394Y-93037693D01*
X152458555Y-93045788D01*
X152246741Y-93054099D01*
X152053442Y-93062213D01*
X151888148Y-93069719D01*
X151760350Y-93076205D01*
X151679539Y-93081259D01*
X151624493Y-93085036D01*
X151531918Y-93086462D01*
X151476144Y-93076501D01*
X151443953Y-93053600D01*
X151429579Y-93033186D01*
X151435164Y-93009912D01*
X151488331Y-92993563D01*
X151498683Y-92991377D01*
X151585890Y-92972725D01*
X151681536Y-92951997D01*
X151709994Y-92946048D01*
X151806874Y-92927310D01*
X151931130Y-92904576D01*
X152062960Y-92881505D01*
X152117401Y-92872147D01*
X152251951Y-92848529D01*
X152372631Y-92826729D01*
X152458510Y-92810504D01*
X152525310Y-92797599D01*
X152654326Y-92773374D01*
X152822926Y-92742211D01*
X153022051Y-92705775D01*
X153242642Y-92665729D01*
X153475640Y-92623735D01*
X153501531Y-92619069D01*
X153631986Y-92595131D01*
X153753587Y-92572214D01*
X153842937Y-92554714D01*
X153865166Y-92550271D01*
X153965497Y-92531137D01*
X154092590Y-92507798D01*
X154224361Y-92484328D01*
X154396706Y-92453960D01*
X154630857Y-92412094D01*
X154855195Y-92371344D01*
X155054421Y-92334494D01*
X155213238Y-92304330D01*
X155253381Y-92296662D01*
X155367168Y-92275816D01*
X155464355Y-92259091D01*
X155574203Y-92241249D01*
X155554811Y-92052549D01*
X155550537Y-92011505D01*
X155536512Y-91880624D01*
X155530373Y-91824696D01*
X158025849Y-91824696D01*
X158032965Y-91924875D01*
X158052214Y-92068163D01*
X158058937Y-92115904D01*
X158076545Y-92248755D01*
X158095799Y-92402029D01*
X158113594Y-92551283D01*
X158147233Y-92843166D01*
X158288916Y-92911516D01*
X158348011Y-92939591D01*
X158411847Y-92968614D01*
X158440718Y-92979866D01*
X158441534Y-92979529D01*
X158443626Y-92950219D01*
X158436834Y-92888042D01*
X158430228Y-92837838D01*
X158418758Y-92738142D01*
X158405130Y-92610741D01*
X158391066Y-92471301D01*
X158380247Y-92365123D01*
X158363429Y-92212731D01*
X158346937Y-92075724D01*
X158333155Y-91974549D01*
X158323382Y-91900710D01*
X158311604Y-91775481D01*
X158307009Y-91670822D01*
X158305589Y-91629818D01*
X158294977Y-91564392D01*
X158277098Y-91538932D01*
X158259883Y-91544466D01*
X158205582Y-91576799D01*
X158135830Y-91628421D01*
X158101159Y-91657315D01*
X158057559Y-91703467D01*
X158033251Y-91755077D01*
X158025849Y-91824696D01*
X155530373Y-91824696D01*
X155519853Y-91728848D01*
X155503305Y-91581312D01*
X155487435Y-91424141D01*
X155472593Y-91156286D01*
X155477603Y-90909530D01*
X155502445Y-90663070D01*
X155508711Y-90616773D01*
X155526391Y-90482538D01*
X155547783Y-90316623D01*
X155570738Y-90135771D01*
X155593108Y-89956730D01*
X155604058Y-89868722D01*
X155616802Y-89767661D01*
X158012877Y-89767661D01*
X158135323Y-89876322D01*
X158189611Y-89922724D01*
X158247742Y-89967624D01*
X158278520Y-89984983D01*
X158290506Y-89963604D01*
X158304697Y-89899798D01*
X158316771Y-89808398D01*
X158329372Y-89688523D01*
X158345600Y-89543859D01*
X158361937Y-89405784D01*
X158372034Y-89323162D01*
X158397117Y-89115966D01*
X158415893Y-88956639D01*
X158428978Y-88839076D01*
X158436989Y-88757172D01*
X158440542Y-88704821D01*
X158440251Y-88675917D01*
X158436734Y-88664356D01*
X158422352Y-88662764D01*
X158366631Y-88673351D01*
X158286307Y-88696935D01*
X158148931Y-88742564D01*
X158114090Y-89031794D01*
X158106981Y-89089893D01*
X158086326Y-89251657D01*
X158064803Y-89412312D01*
X158046064Y-89544342D01*
X158012877Y-89767661D01*
X155616802Y-89767661D01*
X155626109Y-89693857D01*
X155647197Y-89529431D01*
X155665361Y-89390663D01*
X155678640Y-89292770D01*
X155681369Y-89273237D01*
X155699361Y-89140507D01*
X155719555Y-88986507D01*
X155738077Y-88840712D01*
X155742275Y-88807113D01*
X155766323Y-88624695D01*
X155788296Y-88484125D01*
X155811108Y-88372979D01*
X155837673Y-88278831D01*
X155870907Y-88189256D01*
X155913721Y-88091830D01*
X155918690Y-88081035D01*
X155974683Y-87958885D01*
X156029293Y-87838997D01*
X156071351Y-87745884D01*
X156091339Y-87701278D01*
X156159299Y-87549769D01*
X156211757Y-87433196D01*
X156254748Y-87338211D01*
X156294309Y-87251469D01*
X156336475Y-87159622D01*
X156369123Y-87088029D01*
X158589545Y-87088029D01*
X158592563Y-87101441D01*
X158620166Y-87155582D01*
X158667242Y-87224676D01*
X158690661Y-87254018D01*
X158740460Y-87306711D01*
X158773193Y-87328008D01*
X158787247Y-87319056D01*
X158819750Y-87270898D01*
X158855548Y-87194833D01*
X158886994Y-87119005D01*
X158938171Y-86999872D01*
X158989753Y-86883441D01*
X158990945Y-86880802D01*
X159030742Y-86790797D01*
X159059067Y-86723245D01*
X159069856Y-86692591D01*
X159076616Y-86672807D01*
X159102266Y-86614023D01*
X159140490Y-86532616D01*
X159170132Y-86469039D01*
X159199684Y-86399439D01*
X159211124Y-86363233D01*
X159197054Y-86353731D01*
X159140357Y-86344027D01*
X159055030Y-86340267D01*
X159006703Y-86340792D01*
X158934902Y-86347583D01*
X158896161Y-86366723D01*
X158874505Y-86403837D01*
X158858193Y-86443825D01*
X158822285Y-86527235D01*
X158779747Y-86622803D01*
X158717415Y-86761503D01*
X158657803Y-86897582D01*
X158618251Y-86993374D01*
X158596314Y-87054863D01*
X158589545Y-87088029D01*
X156369123Y-87088029D01*
X156381548Y-87060784D01*
X156434398Y-86943116D01*
X156475908Y-86848832D01*
X156562994Y-86651280D01*
X156640002Y-86487420D01*
X156705604Y-86362668D01*
X156763905Y-86269847D01*
X156819012Y-86201782D01*
X156875029Y-86151297D01*
X156912126Y-86122829D01*
X157002912Y-86051967D01*
X157077976Y-85991938D01*
X157083254Y-85987624D01*
X157137492Y-85943271D01*
X157225915Y-85870946D01*
X157340373Y-85777318D01*
X157472717Y-85669052D01*
X157614795Y-85552816D01*
X157622434Y-85546567D01*
X157791137Y-85410081D01*
X157928933Y-85304508D01*
X158002693Y-85254624D01*
X159694350Y-85254624D01*
X159707354Y-85308224D01*
X159737634Y-85381993D01*
X159752139Y-85411074D01*
X159785659Y-85469109D01*
X159806660Y-85492334D01*
X159814235Y-85488821D01*
X159857467Y-85458042D01*
X159928809Y-85402417D01*
X160018160Y-85330318D01*
X160115420Y-85250119D01*
X160210486Y-85170194D01*
X160293259Y-85098917D01*
X160353636Y-85044659D01*
X160381518Y-85015796D01*
X160382339Y-85014250D01*
X160370168Y-84982181D01*
X160321002Y-84946495D01*
X160283943Y-84927906D01*
X160210654Y-84897013D01*
X160151122Y-84889731D01*
X160091232Y-84909408D01*
X160016867Y-84959390D01*
X159913909Y-85043025D01*
X159861218Y-85087526D01*
X159778976Y-85159807D01*
X159720266Y-85215172D01*
X159695254Y-85244264D01*
X159694350Y-85254624D01*
X158002693Y-85254624D01*
X158047463Y-85224346D01*
X158158368Y-85164090D01*
X158273288Y-85118238D01*
X158403863Y-85081286D01*
X158561735Y-85047730D01*
X158758544Y-85012067D01*
X158851887Y-84995475D01*
X158963630Y-84973288D01*
X159039994Y-84952186D01*
X159093532Y-84927257D01*
X159136799Y-84893590D01*
X159182348Y-84846275D01*
X159233391Y-84794570D01*
X159292790Y-84752992D01*
X159368111Y-84725796D01*
X159479534Y-84703271D01*
X159584445Y-84685038D01*
X159713819Y-84662161D01*
X159818577Y-84643230D01*
X159934858Y-84621924D01*
X160189576Y-84576056D01*
X160419646Y-84535739D01*
X160609678Y-84503685D01*
X160716319Y-84485123D01*
X160824722Y-84464183D01*
X160901823Y-84447013D01*
X160919410Y-84442709D01*
X161007429Y-84434102D01*
X161065639Y-84462808D01*
X161109939Y-84535593D01*
X161140246Y-84589226D01*
X161181876Y-84610899D01*
X161256647Y-84610744D01*
X161272252Y-84609877D01*
X161344211Y-84615186D01*
X161378136Y-84635155D01*
X161375437Y-84644628D01*
X161341169Y-84687891D01*
X161274046Y-84756629D01*
X161181312Y-84843630D01*
X161070210Y-84941683D01*
X161025501Y-84980064D01*
X160985694Y-85014250D01*
X160909174Y-85079966D01*
G37*
G36*
X165737709Y-90539005D02*
G01*
X165745062Y-90568499D01*
X165775994Y-90553455D01*
X165791721Y-90532627D01*
X165795398Y-90493027D01*
X165781916Y-90425236D01*
X165749914Y-90316903D01*
X165714114Y-90202653D01*
X165659661Y-90026486D01*
X165619989Y-89893587D01*
X165593267Y-89797157D01*
X165577663Y-89730398D01*
X165571342Y-89686511D01*
X165572474Y-89658700D01*
X165573355Y-89654778D01*
X165595363Y-89621113D01*
X165647939Y-89592061D01*
X165739628Y-89564141D01*
X165878977Y-89533874D01*
X165961153Y-89517305D01*
X166081779Y-89492269D01*
X166203894Y-89466342D01*
X166206098Y-89465870D01*
X166313380Y-89445786D01*
X166457725Y-89422620D01*
X166620504Y-89399203D01*
X166783093Y-89378364D01*
X166796580Y-89376753D01*
X166953517Y-89357279D01*
X167103618Y-89337474D01*
X167230445Y-89319569D01*
X167317561Y-89305797D01*
X167432346Y-89289538D01*
X167549541Y-89280741D01*
X167648958Y-89280723D01*
X167717912Y-89289453D01*
X167743716Y-89306896D01*
X167747913Y-89319353D01*
X167784429Y-89335150D01*
X167821812Y-89344775D01*
X167848335Y-89382434D01*
X167831666Y-89428023D01*
X167819800Y-89442352D01*
X167803936Y-89487656D01*
X167806540Y-89556293D01*
X167828632Y-89657902D01*
X167871231Y-89802118D01*
X167898496Y-89888743D01*
X167941342Y-90026419D01*
X167970090Y-90122868D01*
X167986821Y-90186496D01*
X167993618Y-90225709D01*
X167992562Y-90248911D01*
X167985733Y-90264508D01*
X167964841Y-90282059D01*
X167908547Y-90295773D01*
X167870820Y-90303965D01*
X167867278Y-90339013D01*
X167869181Y-90367015D01*
X167842195Y-90394984D01*
X167777462Y-90419051D01*
X167668749Y-90441400D01*
X167509824Y-90464213D01*
X167369297Y-90479632D01*
X167268181Y-90482224D01*
X167216894Y-90467556D01*
X167212640Y-90432901D01*
X167252621Y-90375528D01*
X167334039Y-90292707D01*
X167385441Y-90239097D01*
X167440521Y-90165072D01*
X167461180Y-90110728D01*
X167454393Y-90053952D01*
X167432881Y-89967863D01*
X167404240Y-89886253D01*
X167376365Y-89834803D01*
X167373978Y-89834274D01*
X167343371Y-89857101D01*
X167284188Y-89916360D01*
X167202085Y-90005926D01*
X167102716Y-90119673D01*
X166991734Y-90251477D01*
X166968653Y-90279275D01*
X166858154Y-90410064D01*
X166759483Y-90523222D01*
X166678579Y-90612183D01*
X166621384Y-90670383D01*
X166593837Y-90691257D01*
X166588581Y-90690618D01*
X166542263Y-90667043D01*
X166483024Y-90620008D01*
X166418476Y-90568745D01*
X166317053Y-90527497D01*
X166223643Y-90542066D01*
X166137973Y-90612529D01*
X166059769Y-90738963D01*
X166045255Y-90769516D01*
X166015679Y-90839869D01*
X165996654Y-90907521D01*
X165985813Y-90987272D01*
X165980785Y-91093922D01*
X165979201Y-91242269D01*
X165984814Y-91444852D01*
X166012019Y-91666575D01*
X166063047Y-91847838D01*
X166088433Y-91896933D01*
X166139323Y-91995351D01*
X166140727Y-91997446D01*
X166175410Y-92055246D01*
X166189767Y-92090952D01*
X166192812Y-92099557D01*
X166225125Y-92138276D01*
X166277532Y-92186570D01*
X166330964Y-92227778D01*
X166366352Y-92245238D01*
X166378967Y-92251695D01*
X166387577Y-92289120D01*
X166378247Y-92336091D01*
X166353880Y-92364799D01*
X166348805Y-92377657D01*
X166353625Y-92437529D01*
X166372939Y-92539346D01*
X166404989Y-92675804D01*
X166448015Y-92839604D01*
X166500257Y-93023444D01*
X166559956Y-93220022D01*
X166565157Y-93237100D01*
X166587226Y-93312547D01*
X166619568Y-93425366D01*
X166658708Y-93563393D01*
X166701172Y-93714460D01*
X166716946Y-93770824D01*
X166765006Y-93942596D01*
X166801457Y-94073001D01*
X166829140Y-94172252D01*
X166850892Y-94250564D01*
X166869554Y-94318150D01*
X166887963Y-94385224D01*
X166891335Y-94397555D01*
X166908959Y-94462000D01*
X166931701Y-94540659D01*
X166955311Y-94612206D01*
X166970347Y-94645648D01*
X166982342Y-94649269D01*
X167015233Y-94625949D01*
X167050090Y-94576948D01*
X167075250Y-94520562D01*
X167079052Y-94475091D01*
X167077920Y-94436509D01*
X167113056Y-94400474D01*
X167193386Y-94373236D01*
X167324523Y-94351982D01*
X167396415Y-94344233D01*
X167456644Y-94343906D01*
X167487167Y-94358345D01*
X167503012Y-94390820D01*
X167521446Y-94425515D01*
X167558949Y-94449054D01*
X167571348Y-94450034D01*
X167606480Y-94476703D01*
X167604439Y-94529331D01*
X167564665Y-94593786D01*
X167557656Y-94601607D01*
X167452814Y-94718567D01*
X167380140Y-94801437D01*
X167334901Y-94858236D01*
X167312362Y-94896978D01*
X167307789Y-94925681D01*
X167316448Y-94952360D01*
X167333604Y-94985032D01*
X167342812Y-95003411D01*
X167372656Y-95089896D01*
X167360722Y-95147060D01*
X167305785Y-95183648D01*
X167258694Y-95211261D01*
X167235151Y-95248390D01*
X167225495Y-95262025D01*
X167183871Y-95277061D01*
X167103799Y-95291137D01*
X166979273Y-95305256D01*
X166804283Y-95320424D01*
X166767022Y-95323400D01*
X166585507Y-95338425D01*
X166401616Y-95354389D01*
X166234925Y-95369560D01*
X166105006Y-95382211D01*
X165972183Y-95393795D01*
X165865233Y-95396254D01*
X165779382Y-95387548D01*
X165696661Y-95367010D01*
X165689447Y-95364756D01*
X165643734Y-95349071D01*
X165607458Y-95338389D01*
X165577406Y-95338048D01*
X165550368Y-95353386D01*
X165523133Y-95389742D01*
X165492489Y-95452455D01*
X165455225Y-95546862D01*
X165408130Y-95678302D01*
X165347991Y-95852115D01*
X165271599Y-96073637D01*
X165270010Y-96078224D01*
X165210617Y-96245077D01*
X165160049Y-96371892D01*
X165110707Y-96472321D01*
X165054992Y-96560012D01*
X164985303Y-96648616D01*
X164894043Y-96751780D01*
X164860803Y-96788500D01*
X164786509Y-96870991D01*
X164689430Y-96979074D01*
X164578380Y-97102937D01*
X164462170Y-97232764D01*
X164133126Y-97600676D01*
X163798210Y-97667439D01*
X163693647Y-97688259D01*
X163533248Y-97720032D01*
X163391343Y-97747834D01*
X163244113Y-97776318D01*
X163067743Y-97810135D01*
X163006414Y-97820158D01*
X162939409Y-97821712D01*
X162873069Y-97806078D01*
X162791240Y-97768943D01*
X162677764Y-97705993D01*
X162465029Y-97585575D01*
X162192233Y-97434536D01*
X161884765Y-97267290D01*
X161764283Y-97196724D01*
X161655918Y-97114563D01*
X161581038Y-97029170D01*
X161523660Y-96929047D01*
X161501141Y-96824340D01*
X161529650Y-96724304D01*
X161610058Y-96616575D01*
X161623511Y-96601856D01*
X161652638Y-96567990D01*
X161679726Y-96531217D01*
X161707217Y-96485985D01*
X161737553Y-96426744D01*
X161773177Y-96347941D01*
X161816529Y-96244024D01*
X161870052Y-96109442D01*
X161936189Y-95938642D01*
X162017380Y-95726074D01*
X162116068Y-95466184D01*
X162183810Y-95287851D01*
X162239625Y-95139830D01*
X162281060Y-95025819D01*
X162310786Y-94936005D01*
X162331473Y-94860578D01*
X162345791Y-94789725D01*
X162356410Y-94713636D01*
X162366000Y-94622499D01*
X162377231Y-94506501D01*
X162378863Y-94489982D01*
X162380252Y-94477308D01*
X165765295Y-94477308D01*
X165913961Y-94473075D01*
X165964383Y-94471262D01*
X166068275Y-94465583D01*
X166147387Y-94458848D01*
X166182777Y-94454751D01*
X166278126Y-94444017D01*
X166382619Y-94432527D01*
X166418316Y-94428375D01*
X166488289Y-94415569D01*
X166516412Y-94397555D01*
X166513568Y-94369056D01*
X166512171Y-94365604D01*
X166490919Y-94303380D01*
X166467454Y-94223025D01*
X166458399Y-94189431D01*
X166446462Y-94145651D01*
X166432650Y-94095908D01*
X166414234Y-94030529D01*
X166388484Y-93939838D01*
X166352672Y-93814162D01*
X166304069Y-93643826D01*
X166272955Y-93535423D01*
X166236635Y-93410415D01*
X166206885Y-93309683D01*
X166188115Y-93248276D01*
X166175626Y-93208202D01*
X166147908Y-93116702D01*
X166112391Y-92997726D01*
X166073744Y-92866852D01*
X166059758Y-92819212D01*
X166014433Y-92665464D01*
X165982293Y-92560230D01*
X165961011Y-92499013D01*
X165948259Y-92477314D01*
X165941711Y-92490637D01*
X165939038Y-92534482D01*
X165937913Y-92604352D01*
X165933826Y-92706504D01*
X165922989Y-92850366D01*
X165908226Y-92985776D01*
X165898888Y-93064408D01*
X165884967Y-93197550D01*
X165869108Y-93361736D01*
X165852624Y-93543303D01*
X165846464Y-93615573D01*
X165836830Y-93728587D01*
X165835648Y-93742714D01*
X165822682Y-93897743D01*
X165808479Y-94061925D01*
X165795799Y-94202961D01*
X165785639Y-94309792D01*
X165778994Y-94371357D01*
X165765295Y-94477308D01*
X162380252Y-94477308D01*
X162394230Y-94349777D01*
X162409919Y-94250712D01*
X162429631Y-94178906D01*
X162457071Y-94120480D01*
X162495942Y-94061554D01*
X162528206Y-94013594D01*
X162560695Y-93954228D01*
X162566549Y-93924316D01*
X162543279Y-93921691D01*
X162471522Y-93923506D01*
X162360832Y-93930178D01*
X162220618Y-93941124D01*
X162060292Y-93955758D01*
X161570301Y-94003467D01*
X161349001Y-93867308D01*
X161267228Y-93814956D01*
X163721078Y-93814956D01*
X164030117Y-94042514D01*
X164050662Y-94057628D01*
X164170862Y-94145486D01*
X164279222Y-94223806D01*
X164364560Y-94284547D01*
X164415690Y-94319671D01*
X164420435Y-94322743D01*
X164471021Y-94352083D01*
X164493520Y-94346657D01*
X164505721Y-94303210D01*
X164508132Y-94289161D01*
X164516807Y-94216255D01*
X164526422Y-94110606D01*
X164535302Y-93989933D01*
X164551387Y-93742714D01*
X164402891Y-93744280D01*
X164373270Y-93745069D01*
X164261741Y-93752048D01*
X164125563Y-93764493D01*
X163987736Y-93780401D01*
X163907318Y-93790822D01*
X163721078Y-93814956D01*
X161267228Y-93814956D01*
X161254399Y-93806743D01*
X161232642Y-93790320D01*
X162674463Y-93790320D01*
X162714573Y-93794760D01*
X162753439Y-93790822D01*
X162749890Y-93780509D01*
X162737100Y-93776778D01*
X162679256Y-93780509D01*
X162674463Y-93790320D01*
X161232642Y-93790320D01*
X161173044Y-93745333D01*
X161103633Y-93676971D01*
X161032383Y-93587891D01*
X160945509Y-93464325D01*
X160893758Y-93386788D01*
X160819270Y-93263866D01*
X160758212Y-93142108D01*
X160701642Y-93002827D01*
X160640613Y-92827338D01*
X160552997Y-92534060D01*
X160489620Y-92239848D01*
X160454308Y-91944224D01*
X160443208Y-91623693D01*
X160444081Y-91557017D01*
X161639092Y-91557017D01*
X161663399Y-91950140D01*
X161726322Y-92330394D01*
X161826016Y-92689225D01*
X161960633Y-93018076D01*
X162128330Y-93308392D01*
X162186933Y-93390423D01*
X162268988Y-93495105D01*
X162342417Y-93578021D01*
X162396323Y-93626245D01*
X162439797Y-93654172D01*
X162490109Y-93680821D01*
X162512009Y-93677225D01*
X162516797Y-93645156D01*
X162511478Y-93615573D01*
X164748833Y-93615573D01*
X164762960Y-93629699D01*
X164777086Y-93615573D01*
X164762960Y-93601446D01*
X164748833Y-93615573D01*
X162511478Y-93615573D01*
X162505742Y-93583666D01*
X162456562Y-93493243D01*
X162383483Y-93428620D01*
X162358304Y-93409624D01*
X162298567Y-93347838D01*
X162224820Y-93258508D01*
X162147564Y-93153865D01*
X162143603Y-93148162D01*
X161992191Y-92885440D01*
X161984563Y-92866498D01*
X164678397Y-92866498D01*
X164686599Y-92897294D01*
X164710596Y-92980229D01*
X164744178Y-93091977D01*
X164782791Y-93217233D01*
X164793828Y-93252891D01*
X164829434Y-93376180D01*
X164847414Y-93459601D01*
X164849515Y-93513748D01*
X164837481Y-93549213D01*
X164830502Y-93560784D01*
X164821287Y-93593259D01*
X164854544Y-93599655D01*
X164894586Y-93594094D01*
X165002435Y-93544360D01*
X165112900Y-93449379D01*
X165219746Y-93316429D01*
X165316737Y-93152790D01*
X165397637Y-92965740D01*
X165403704Y-92948881D01*
X165466268Y-92769799D01*
X165508125Y-92636475D01*
X165530305Y-92543023D01*
X165533837Y-92483558D01*
X165519752Y-92452194D01*
X165489078Y-92443048D01*
X165456035Y-92438168D01*
X165395122Y-92397061D01*
X165370412Y-92329668D01*
X165372190Y-92318658D01*
X165401251Y-92264944D01*
X165454640Y-92203403D01*
X165469383Y-92188800D01*
X165544320Y-92104998D01*
X165612270Y-92016788D01*
X165655454Y-91947110D01*
X165668382Y-91896933D01*
X165653271Y-91850324D01*
X165626552Y-91813384D01*
X165596236Y-91798561D01*
X165593202Y-91800193D01*
X165556526Y-91829061D01*
X165488867Y-91887503D01*
X165398680Y-91968097D01*
X165294422Y-92063423D01*
X165289944Y-92067560D01*
X165173856Y-92174520D01*
X165061217Y-92277830D01*
X164964692Y-92365900D01*
X164896944Y-92427143D01*
X164876963Y-92445824D01*
X164787968Y-92550763D01*
X164720142Y-92666040D01*
X164681085Y-92776378D01*
X164678397Y-92866498D01*
X161984563Y-92866498D01*
X161871420Y-92585558D01*
X161782524Y-92259364D01*
X161726732Y-91917709D01*
X161705276Y-91571442D01*
X161719388Y-91231413D01*
X161726636Y-91185440D01*
X163546392Y-91185440D01*
X163550443Y-91478726D01*
X163572449Y-91767804D01*
X163612382Y-92039487D01*
X163670213Y-92280589D01*
X163744765Y-92527808D01*
X163872438Y-92523780D01*
X163890242Y-92523021D01*
X163989558Y-92515533D01*
X164116128Y-92502642D01*
X164247014Y-92486622D01*
X164305458Y-92478913D01*
X164383456Y-92467345D01*
X164445330Y-92452377D01*
X164500709Y-92428212D01*
X164559221Y-92389052D01*
X164630496Y-92329099D01*
X164724163Y-92242554D01*
X164849850Y-92123619D01*
X165053144Y-91931331D01*
X165012594Y-91798702D01*
X165007209Y-91778970D01*
X164988573Y-91670082D01*
X164975918Y-91526562D01*
X164970918Y-91365809D01*
X164975643Y-91176748D01*
X164997187Y-90994404D01*
X165038695Y-90849561D01*
X165102982Y-90732964D01*
X165192858Y-90635355D01*
X165242631Y-90587909D01*
X165293993Y-90527868D01*
X165313905Y-90487973D01*
X165313681Y-90485630D01*
X165296117Y-90442129D01*
X165254583Y-90362762D01*
X165194814Y-90258013D01*
X165122550Y-90138365D01*
X165106635Y-90112755D01*
X165024183Y-89984274D01*
X164956594Y-89890556D01*
X164892973Y-89819114D01*
X164822428Y-89757464D01*
X164734063Y-89693119D01*
X164536931Y-89556649D01*
X164341573Y-89575209D01*
X164304926Y-89578821D01*
X164211350Y-89592268D01*
X164143924Y-89615748D01*
X164080768Y-89659388D01*
X164000001Y-89733317D01*
X163963506Y-89768525D01*
X163903064Y-89831228D01*
X163882404Y-89857438D01*
X163855123Y-89892049D01*
X163813561Y-89962070D01*
X163772259Y-90052372D01*
X163725095Y-90174039D01*
X163665948Y-90338153D01*
X163642264Y-90412187D01*
X163592274Y-90638984D01*
X163560326Y-90901130D01*
X163546392Y-91185440D01*
X161726636Y-91185440D01*
X161770299Y-90908470D01*
X161859240Y-90613463D01*
X161879205Y-90563118D01*
X161931373Y-90444356D01*
X161983393Y-90354279D01*
X162047462Y-90273967D01*
X162135778Y-90184500D01*
X162198862Y-90124830D01*
X162270203Y-90064356D01*
X162330393Y-90028994D01*
X162396390Y-90009654D01*
X162485152Y-89997247D01*
X162579239Y-89982950D01*
X162656378Y-89957635D01*
X162700597Y-89919686D01*
X162705846Y-89911812D01*
X162720811Y-89857438D01*
X162684028Y-89823109D01*
X162595066Y-89808639D01*
X162453495Y-89813845D01*
X162370745Y-89822260D01*
X162300017Y-89836677D01*
X162242478Y-89864401D01*
X162180504Y-89914406D01*
X162096472Y-89995667D01*
X162033045Y-90060795D01*
X161970299Y-90136136D01*
X161919136Y-90217362D01*
X161869839Y-90320414D01*
X161812691Y-90461232D01*
X161772787Y-90566940D01*
X161730548Y-90695438D01*
X161700569Y-90818157D01*
X161678053Y-90955847D01*
X161658200Y-91129255D01*
X161655247Y-91159582D01*
X161639092Y-91557017D01*
X160444081Y-91557017D01*
X160444868Y-91496904D01*
X160470035Y-91158655D01*
X160526325Y-90859649D01*
X160614838Y-90593294D01*
X160631125Y-90553621D01*
X160670695Y-90451994D01*
X160698235Y-90373401D01*
X160708566Y-90332266D01*
X160719086Y-90311025D01*
X160763195Y-90255667D01*
X160833780Y-90178817D01*
X160922205Y-90090254D01*
X161135844Y-89884097D01*
X161579102Y-89832960D01*
X161728469Y-89815683D01*
X161878308Y-89797678D01*
X161984089Y-89783082D01*
X162052633Y-89770102D01*
X162090763Y-89756947D01*
X162105300Y-89741824D01*
X162103067Y-89722942D01*
X162090884Y-89698507D01*
X162085400Y-89686819D01*
X162074952Y-89615637D01*
X162091440Y-89509692D01*
X162102133Y-89461384D01*
X162124567Y-89353431D01*
X162152126Y-89216077D01*
X162181756Y-89064955D01*
X162210400Y-88915698D01*
X162235005Y-88783941D01*
X162252516Y-88685317D01*
X162257409Y-88657327D01*
X162273233Y-88571417D01*
X162291988Y-88473415D01*
X162292470Y-88470943D01*
X162308865Y-88386237D01*
X162332585Y-88262871D01*
X162360529Y-88117018D01*
X162389591Y-87964850D01*
X162391313Y-87955821D01*
X162420193Y-87805469D01*
X162447684Y-87664110D01*
X162470750Y-87547254D01*
X162486356Y-87470411D01*
X162526178Y-87274536D01*
X162560225Y-87089670D01*
X162581373Y-86950427D01*
X162589170Y-86859826D01*
X162583168Y-86820888D01*
X162577705Y-86816351D01*
X162533856Y-86783222D01*
X162455980Y-86726081D01*
X162353106Y-86651517D01*
X162234261Y-86566124D01*
X161909345Y-86333603D01*
X161888332Y-86513520D01*
X161883741Y-86553514D01*
X161865564Y-86721312D01*
X161842773Y-86943837D01*
X161815315Y-87221615D01*
X161783137Y-87555172D01*
X161778060Y-87607967D01*
X161761710Y-87775265D01*
X161743725Y-87956319D01*
X161727166Y-88120245D01*
X161725716Y-88134460D01*
X161710744Y-88283055D01*
X161692779Y-88463849D01*
X161673951Y-88655297D01*
X161656392Y-88835854D01*
X161649577Y-88902594D01*
X161632248Y-89046449D01*
X161614123Y-89167174D01*
X161596980Y-89253705D01*
X161582598Y-89294975D01*
X161571963Y-89304369D01*
X161503237Y-89327692D01*
X161390257Y-89336778D01*
X161345863Y-89337444D01*
X161212067Y-89344962D01*
X161107816Y-89365784D01*
X161016068Y-89406894D01*
X160919780Y-89475278D01*
X160801909Y-89577921D01*
X160744770Y-89630073D01*
X160673799Y-89698054D01*
X160620263Y-89758434D01*
X160576472Y-89823225D01*
X160534741Y-89904439D01*
X160487380Y-90014088D01*
X160426703Y-90164184D01*
X160364000Y-90315488D01*
X160303793Y-90446258D01*
X160258893Y-90524163D01*
X160228928Y-90549924D01*
X160201948Y-90539465D01*
X160139574Y-90498550D01*
X160056812Y-90435392D01*
X159964591Y-90359355D01*
X159873840Y-90279801D01*
X159795486Y-90206093D01*
X159740460Y-90147592D01*
X159719689Y-90113662D01*
X159719704Y-90111566D01*
X159744345Y-90011308D01*
X159812854Y-89889151D01*
X159920630Y-89751896D01*
X160063071Y-89606339D01*
X160170107Y-89510604D01*
X160283451Y-89424372D01*
X160384473Y-89370716D01*
X160485979Y-89343179D01*
X160600776Y-89335308D01*
X160606041Y-89335268D01*
X160697315Y-89327090D01*
X160773544Y-89309047D01*
X160842200Y-89282944D01*
X160860578Y-88708658D01*
X160861179Y-88689896D01*
X160869736Y-88423344D01*
X160876419Y-88206948D01*
X160880966Y-88034759D01*
X160883117Y-87900827D01*
X160882613Y-87799202D01*
X160879192Y-87723933D01*
X160872596Y-87669072D01*
X160862563Y-87628667D01*
X160848833Y-87596769D01*
X160831147Y-87567427D01*
X160809245Y-87534693D01*
X160786446Y-87503520D01*
X160702764Y-87415047D01*
X160613476Y-87346990D01*
X160581914Y-87327570D01*
X160500682Y-87270135D01*
X160442895Y-87219154D01*
X160431111Y-87205935D01*
X160409390Y-87173984D01*
X160405818Y-87137733D01*
X160421379Y-87081144D01*
X160457056Y-86988175D01*
X160501128Y-86884156D01*
X160547347Y-86803035D01*
X160607540Y-86732711D01*
X160697491Y-86651057D01*
X160728409Y-86624430D01*
X160861849Y-86508910D01*
X160998873Y-86389472D01*
X161127865Y-86276298D01*
X161237211Y-86179569D01*
X161315298Y-86109467D01*
X161351095Y-86077353D01*
X161449019Y-85992744D01*
X161538869Y-85918755D01*
X161648705Y-85831702D01*
X162263323Y-85831702D01*
X162877941Y-85831702D01*
X163463798Y-86262002D01*
X163598812Y-86361901D01*
X163748823Y-86474730D01*
X163879547Y-86575048D01*
X163984362Y-86657699D01*
X164056645Y-86717527D01*
X164089777Y-86749377D01*
X164097538Y-86760803D01*
X164136043Y-86820020D01*
X164195393Y-86913079D01*
X164269057Y-87029704D01*
X164350507Y-87159622D01*
X164571116Y-87512792D01*
X164709418Y-87510152D01*
X164794068Y-87505732D01*
X164920198Y-87494089D01*
X165045496Y-87478252D01*
X165107312Y-87469704D01*
X165196550Y-87462272D01*
X165252000Y-87468166D01*
X165287876Y-87487955D01*
X165318441Y-87509869D01*
X165363906Y-87526919D01*
X165402078Y-87536751D01*
X165408610Y-87576209D01*
X165369419Y-87644299D01*
X165285123Y-87739356D01*
X165136581Y-87889766D01*
X165155636Y-88058192D01*
X165156684Y-88067482D01*
X165165133Y-88157394D01*
X165162022Y-88207047D01*
X165143392Y-88231056D01*
X165105281Y-88244038D01*
X165057506Y-88268313D01*
X165018642Y-88339902D01*
X165015128Y-88360845D01*
X165014450Y-88399355D01*
X165021569Y-88449959D01*
X165038433Y-88519482D01*
X165066991Y-88614748D01*
X165109191Y-88742582D01*
X165166983Y-88909807D01*
X165242314Y-89123248D01*
X165247049Y-89136599D01*
X165301008Y-89289600D01*
X165353143Y-89438832D01*
X165397723Y-89567814D01*
X165429016Y-89660067D01*
X165456523Y-89740734D01*
X165488471Y-89829575D01*
X165510812Y-89886095D01*
X165514941Y-89895832D01*
X165539106Y-89960151D01*
X165572967Y-90056724D01*
X165610551Y-90168632D01*
X165621242Y-90200841D01*
X165658433Y-90308471D01*
X165690437Y-90394867D01*
X165711283Y-90443721D01*
X165724556Y-90474656D01*
X165727278Y-90487973D01*
X165737709Y-90539005D01*
G37*
G36*
X122653448Y-91289057D02*
G01*
X122785847Y-91307837D01*
X122932472Y-91334385D01*
X123077198Y-91365927D01*
X123203898Y-91399690D01*
X123282005Y-91417395D01*
X123364689Y-91425918D01*
X123417198Y-91432178D01*
X123454330Y-91451187D01*
X123458162Y-91455377D01*
X123503218Y-91475072D01*
X123576075Y-91490030D01*
X123653382Y-91502386D01*
X123776913Y-91525798D01*
X123926956Y-91556609D01*
X124088685Y-91591768D01*
X124247276Y-91628222D01*
X124254527Y-91629938D01*
X124364959Y-91655438D01*
X124473304Y-91679608D01*
X124538325Y-91693822D01*
X124647680Y-91717831D01*
X124781948Y-91747377D01*
X124925362Y-91778992D01*
X125059578Y-91808258D01*
X125187357Y-91835450D01*
X125288665Y-91856303D01*
X125349167Y-91867815D01*
X125419993Y-91883366D01*
X125490435Y-91906229D01*
X125549757Y-91926388D01*
X125631703Y-91945892D01*
X125699744Y-91958268D01*
X125866526Y-91989802D01*
X126003705Y-92017521D01*
X126102566Y-92039619D01*
X126154395Y-92054288D01*
X126205897Y-92070028D01*
X126281536Y-92086515D01*
X126312048Y-92092097D01*
X126405630Y-92110257D01*
X126507565Y-92131014D01*
X126569604Y-92142791D01*
X126686833Y-92162565D01*
X126827682Y-92184509D01*
X126973749Y-92205675D01*
X127082517Y-92220828D01*
X127212039Y-92239106D01*
X127331345Y-92256348D01*
X127456949Y-92274984D01*
X127605365Y-92297440D01*
X127793104Y-92326144D01*
X127802931Y-92327642D01*
X127927681Y-92345829D01*
X128075653Y-92366322D01*
X128216908Y-92384969D01*
X128235907Y-92387419D01*
X128372773Y-92406213D01*
X128506493Y-92426208D01*
X128610585Y-92443471D01*
X128666174Y-92452502D01*
X128778802Y-92465993D01*
X128870263Y-92471301D01*
X128886988Y-92471645D01*
X128956655Y-92481131D01*
X128993883Y-92499555D01*
X128995447Y-92501658D01*
X129037113Y-92520196D01*
X129106897Y-92527808D01*
X129114350Y-92527884D01*
X129181797Y-92535894D01*
X129218067Y-92553078D01*
X129221919Y-92557297D01*
X129266982Y-92577334D01*
X129339813Y-92592961D01*
X129415555Y-92605768D01*
X129526715Y-92627964D01*
X129643716Y-92653898D01*
X129752390Y-92678664D01*
X129855414Y-92700905D01*
X129926252Y-92714827D01*
X129997120Y-92730786D01*
X130067520Y-92753837D01*
X130126724Y-92773527D01*
X130208788Y-92791792D01*
X130213564Y-92792568D01*
X130268608Y-92802838D01*
X130347160Y-92819690D01*
X130457044Y-92844915D01*
X130606088Y-92880306D01*
X130802114Y-92927654D01*
X130815973Y-92930975D01*
X130914561Y-92952859D01*
X130999890Y-92969403D01*
X131070736Y-92985161D01*
X131141158Y-93008120D01*
X131200331Y-93027675D01*
X131282426Y-93045577D01*
X131350375Y-93058336D01*
X131452584Y-93080349D01*
X131564962Y-93106511D01*
X131673894Y-93131965D01*
X131776765Y-93154360D01*
X131847498Y-93167941D01*
X131918294Y-93183178D01*
X131988766Y-93205895D01*
X132048040Y-93225874D01*
X132130034Y-93244906D01*
X132206582Y-93259784D01*
X132319945Y-93283981D01*
X132446343Y-93312293D01*
X132564396Y-93339926D01*
X132652726Y-93362088D01*
X132686811Y-93373015D01*
X132770748Y-93405449D01*
X132864628Y-93446338D01*
X132914879Y-93469539D01*
X133024546Y-93520127D01*
X133155242Y-93580379D01*
X133288432Y-93641749D01*
X133382554Y-93685384D01*
X133491582Y-93736687D01*
X133575048Y-93776838D01*
X133620029Y-93799683D01*
X133662787Y-93816182D01*
X133738439Y-93827475D01*
X133786328Y-93833903D01*
X133825251Y-93855728D01*
X133851053Y-93873368D01*
X133910350Y-93883982D01*
X133960978Y-93888522D01*
X134042887Y-93908906D01*
X134051163Y-93911862D01*
X134118488Y-93931273D01*
X134218852Y-93956262D01*
X134333816Y-93982185D01*
X134361094Y-93988128D01*
X134470743Y-94014163D01*
X134559024Y-94038363D01*
X134608906Y-94056149D01*
X134639587Y-94068527D01*
X134713527Y-94081757D01*
X134759010Y-94086707D01*
X134833988Y-94107175D01*
X134842259Y-94110183D01*
X134909583Y-94129823D01*
X135009949Y-94154982D01*
X135124917Y-94180980D01*
X135152218Y-94186929D01*
X135261858Y-94212887D01*
X135350130Y-94236910D01*
X135400007Y-94254450D01*
X135430386Y-94266795D01*
X135496888Y-94279533D01*
X135502344Y-94279696D01*
X135565448Y-94289665D01*
X135645603Y-94310340D01*
X135755760Y-94342919D01*
X135864439Y-94371941D01*
X135986106Y-94400637D01*
X136142048Y-94434324D01*
X136169202Y-94440154D01*
X136278902Y-94465922D01*
X136367229Y-94490015D01*
X136417137Y-94507876D01*
X136447826Y-94520417D01*
X136521759Y-94533815D01*
X136567473Y-94538964D01*
X136642220Y-94560034D01*
X136650380Y-94563079D01*
X136717671Y-94582806D01*
X136818089Y-94607652D01*
X136933149Y-94632982D01*
X136960172Y-94638680D01*
X137069925Y-94664060D01*
X137158303Y-94687887D01*
X137208238Y-94705652D01*
X137238927Y-94718192D01*
X137312860Y-94731590D01*
X137358343Y-94736540D01*
X137433321Y-94757008D01*
X137441592Y-94760016D01*
X137508915Y-94779656D01*
X137609282Y-94804815D01*
X137724250Y-94830814D01*
X137751550Y-94836762D01*
X137861191Y-94862720D01*
X137949462Y-94886743D01*
X137999339Y-94904284D01*
X138005729Y-94907182D01*
X138071754Y-94922940D01*
X138156147Y-94929366D01*
X138172817Y-94929661D01*
X138246840Y-94938207D01*
X138290735Y-94954880D01*
X138302700Y-94962268D01*
X138361813Y-94980439D01*
X138444717Y-94994028D01*
X138524993Y-95004498D01*
X138661983Y-95025761D01*
X138835323Y-95055051D01*
X139034736Y-95090623D01*
X139249945Y-95130733D01*
X139338997Y-95147511D01*
X139444182Y-95166899D01*
X139569524Y-95189547D01*
X139726861Y-95217592D01*
X139928032Y-95253173D01*
X139962875Y-95259334D01*
X140102281Y-95284184D01*
X140235466Y-95308193D01*
X140337709Y-95326912D01*
X140389522Y-95336520D01*
X140518670Y-95360370D01*
X140634372Y-95381622D01*
X140666205Y-95387468D01*
X140913147Y-95434859D01*
X141122644Y-95479536D01*
X141311397Y-95525261D01*
X141496108Y-95575798D01*
X141512105Y-95580397D01*
X141755878Y-95648746D01*
X141964596Y-95703889D01*
X142132080Y-95744253D01*
X142252154Y-95768266D01*
X142256833Y-95769055D01*
X142323542Y-95786882D01*
X142359772Y-95808350D01*
X142385521Y-95824311D01*
X142444655Y-95833481D01*
X142495437Y-95838527D01*
X142563065Y-95859174D01*
X142579133Y-95865972D01*
X142647437Y-95888051D01*
X142748349Y-95916271D01*
X142866408Y-95946196D01*
X142913859Y-95957706D01*
X143038666Y-95988549D01*
X143146989Y-96016067D01*
X143219578Y-96035396D01*
X143316063Y-96061734D01*
X143417353Y-96088098D01*
X143471686Y-96102045D01*
X143575773Y-96129476D01*
X143685763Y-96159060D01*
X143764597Y-96180019D01*
X143860508Y-96204241D01*
X143925918Y-96219240D01*
X143978926Y-96232288D01*
X144053060Y-96257286D01*
X144100486Y-96274343D01*
X144180201Y-96295590D01*
X144250377Y-96310178D01*
X144397654Y-96345236D01*
X144499166Y-96378980D01*
X144562403Y-96415201D01*
X144594853Y-96457694D01*
X144604005Y-96510252D01*
X144608274Y-96579483D01*
X144632900Y-96655079D01*
X144678045Y-96681090D01*
X144705134Y-96684661D01*
X144766847Y-96706590D01*
X144776978Y-96711422D01*
X144844233Y-96736518D01*
X144928922Y-96761751D01*
X145027745Y-96787850D01*
X145190759Y-96832036D01*
X145308027Y-96865820D01*
X145385728Y-96891023D01*
X145430040Y-96909466D01*
X145469440Y-96924150D01*
X145544467Y-96935372D01*
X145588999Y-96940004D01*
X145636675Y-96958469D01*
X145660678Y-96970906D01*
X145728672Y-96994290D01*
X145818911Y-97018573D01*
X145876044Y-97032611D01*
X145991760Y-97062976D01*
X146087320Y-97090290D01*
X146109475Y-97097041D01*
X146218924Y-97129502D01*
X146327476Y-97160659D01*
X146363802Y-97170967D01*
X146445010Y-97194853D01*
X146496997Y-97211332D01*
X146508771Y-97215212D01*
X146570897Y-97234010D01*
X146666259Y-97261789D01*
X146779534Y-97294063D01*
X146817400Y-97304750D01*
X146936247Y-97338414D01*
X147038177Y-97367453D01*
X147104450Y-97386535D01*
X147114335Y-97389396D01*
X147190585Y-97410843D01*
X147297516Y-97440327D01*
X147415240Y-97472356D01*
X147443655Y-97480090D01*
X147554142Y-97511211D01*
X147644624Y-97538257D01*
X147697776Y-97556093D01*
X147716283Y-97562991D01*
X147791268Y-97587410D01*
X147881425Y-97613705D01*
X147902973Y-97619633D01*
X148021982Y-97652509D01*
X148135707Y-97684093D01*
X148157255Y-97690095D01*
X148276265Y-97723104D01*
X148389990Y-97754481D01*
X148424079Y-97764098D01*
X148511871Y-97790897D01*
X148573638Y-97812530D01*
X148632833Y-97831243D01*
X148714906Y-97848750D01*
X148752796Y-97855051D01*
X148860195Y-97874819D01*
X148994985Y-97901141D01*
X149138683Y-97930302D01*
X149272804Y-97958583D01*
X149378866Y-97982268D01*
X149438046Y-97996024D01*
X149640342Y-98041335D01*
X149841638Y-98084089D01*
X150028463Y-98121560D01*
X150187347Y-98151021D01*
X150304821Y-98169744D01*
X150335563Y-98174610D01*
X150405587Y-98191964D01*
X150440693Y-98210533D01*
X150445298Y-98215004D01*
X150491534Y-98229282D01*
X150565518Y-98235039D01*
X150585783Y-98235450D01*
X150654854Y-98243809D01*
X150690343Y-98259545D01*
X150698038Y-98266274D01*
X150748672Y-98285614D01*
X150826215Y-98301714D01*
X150834498Y-98302945D01*
X150943472Y-98321019D01*
X151086064Y-98346923D01*
X151242627Y-98376903D01*
X151393514Y-98407206D01*
X151519078Y-98434077D01*
X151578727Y-98447421D01*
X151803357Y-98496692D01*
X152029166Y-98544872D01*
X152237427Y-98588005D01*
X152409412Y-98622136D01*
X152466230Y-98638860D01*
X152502904Y-98662100D01*
X152527390Y-98677712D01*
X152585652Y-98687097D01*
X152631368Y-98693279D01*
X152670412Y-98715350D01*
X152683576Y-98728299D01*
X152733981Y-98743604D01*
X152746152Y-98744959D01*
X152807887Y-98758636D01*
X152902804Y-98783629D01*
X153016200Y-98815709D01*
X153133374Y-98850650D01*
X153239623Y-98884222D01*
X153320246Y-98912199D01*
X153323522Y-98913424D01*
X153392063Y-98936710D01*
X153475640Y-98962510D01*
X153578265Y-98992801D01*
X153727324Y-99037505D01*
X153869926Y-99080988D01*
X153994131Y-99119569D01*
X154088002Y-99149566D01*
X154139600Y-99167296D01*
X154188681Y-99183896D01*
X154276472Y-99210454D01*
X154379756Y-99239698D01*
X154473506Y-99267460D01*
X154550736Y-99294414D01*
X154590246Y-99313452D01*
X154618070Y-99327212D01*
X154680402Y-99336930D01*
X154721892Y-99342614D01*
X154761180Y-99365183D01*
X154781310Y-99381162D01*
X154836753Y-99393437D01*
X154872279Y-99397527D01*
X154956721Y-99416697D01*
X155059145Y-99446022D01*
X155158577Y-99479326D01*
X155234045Y-99510433D01*
X155264377Y-99522072D01*
X155338328Y-99534705D01*
X155371189Y-99539280D01*
X155411013Y-99562959D01*
X155435534Y-99580268D01*
X155493982Y-99591212D01*
X155497943Y-99591272D01*
X155565909Y-99611874D01*
X155610126Y-99658199D01*
X155614442Y-99713809D01*
X155600786Y-99727712D01*
X155547845Y-99744569D01*
X155450582Y-99757485D01*
X155302918Y-99767509D01*
X155210701Y-99773119D01*
X155097425Y-99782782D01*
X155013685Y-99793294D01*
X154972948Y-99803197D01*
X154971746Y-99810483D01*
X155006248Y-99834311D01*
X155081730Y-99867666D01*
X155189487Y-99906398D01*
X155243249Y-99924338D01*
X155355112Y-99962623D01*
X155444499Y-99994485D01*
X155495774Y-100014410D01*
X155505455Y-100018500D01*
X155569758Y-100042513D01*
X155666356Y-100076132D01*
X155778310Y-100113420D01*
X155809310Y-100123585D01*
X155918763Y-100160440D01*
X156008254Y-100191991D01*
X156060846Y-100212308D01*
X156070484Y-100216359D01*
X156134773Y-100240221D01*
X156231392Y-100273621D01*
X156343382Y-100310656D01*
X156375269Y-100321084D01*
X156483032Y-100357987D01*
X156569551Y-100390052D01*
X156618472Y-100411297D01*
X156649880Y-100425048D01*
X156718772Y-100438821D01*
X156747274Y-100441810D01*
X156796853Y-100462081D01*
X156828030Y-100478650D01*
X156899957Y-100507028D01*
X156993215Y-100538518D01*
X157073782Y-100565356D01*
X157149916Y-100594321D01*
X157189578Y-100614145D01*
X157209275Y-100625118D01*
X157267659Y-100636596D01*
X157299863Y-100640302D01*
X157367959Y-100664120D01*
X157376968Y-100668653D01*
X157438113Y-100693545D01*
X157532258Y-100727575D01*
X157643049Y-100764760D01*
X157674060Y-100774831D01*
X157783508Y-100810987D01*
X157872996Y-100841443D01*
X157925585Y-100860463D01*
X158039791Y-100899766D01*
X158198638Y-100942509D01*
X158405896Y-100989163D01*
X158433050Y-100994993D01*
X158542750Y-101020760D01*
X158631078Y-101044854D01*
X158680986Y-101062715D01*
X158734983Y-101079987D01*
X158813523Y-101088654D01*
X158875783Y-101095556D01*
X158912105Y-101113095D01*
X158916082Y-101117381D01*
X158961081Y-101137678D01*
X159033850Y-101154636D01*
X159097893Y-101166373D01*
X159233333Y-101195553D01*
X159406297Y-101236433D01*
X159606675Y-101286683D01*
X159726259Y-101317104D01*
X159921165Y-101364820D01*
X160129367Y-101413077D01*
X160237203Y-101437937D01*
X160349923Y-101464671D01*
X160433093Y-101485200D01*
X160441159Y-101487274D01*
X160590781Y-101525145D01*
X160752855Y-101564922D01*
X160948722Y-101611846D01*
X161057084Y-101637712D01*
X161166447Y-101664035D01*
X161245385Y-101683272D01*
X161339478Y-101705526D01*
X161429033Y-101725224D01*
X161500147Y-101743141D01*
X161570301Y-101766944D01*
X161629579Y-101786788D01*
X161711569Y-101805751D01*
X161779268Y-101818986D01*
X161881573Y-101840931D01*
X161994105Y-101866421D01*
X162102706Y-101890887D01*
X162208973Y-101913317D01*
X162283967Y-101927495D01*
X162288651Y-101928287D01*
X162355357Y-101946155D01*
X162391585Y-101967638D01*
X162412606Y-101982453D01*
X162468422Y-101992770D01*
X162471237Y-101992836D01*
X162530669Y-102003778D01*
X162622508Y-102029801D01*
X162728100Y-102065669D01*
X162777001Y-102083660D01*
X162876263Y-102120553D01*
X162954263Y-102150576D01*
X163033976Y-102182702D01*
X163138377Y-102225905D01*
X163195263Y-102248951D01*
X163298347Y-102289409D01*
X163406786Y-102330890D01*
X163487570Y-102361817D01*
X163588267Y-102401601D01*
X163661069Y-102431777D01*
X163713468Y-102453522D01*
X163810097Y-102491404D01*
X163915351Y-102530937D01*
X163997238Y-102562673D01*
X164072505Y-102595664D01*
X164111714Y-102617838D01*
X164136899Y-102631673D01*
X164197887Y-102642603D01*
X164235629Y-102646650D01*
X164284061Y-102666186D01*
X164303742Y-102678390D01*
X164367162Y-102707686D01*
X164452170Y-102740955D01*
X164495758Y-102757098D01*
X164609045Y-102801311D01*
X164706452Y-102841995D01*
X164766358Y-102867263D01*
X164876569Y-102910936D01*
X164988989Y-102953015D01*
X165096923Y-102993059D01*
X165214871Y-103041940D01*
X165290323Y-103082421D01*
X165330384Y-103118553D01*
X165342159Y-103154387D01*
X165341390Y-103167172D01*
X165326271Y-103192852D01*
X165281539Y-103204688D01*
X165193827Y-103207461D01*
X165180606Y-103207342D01*
X165072891Y-103202575D01*
X164939198Y-103192258D01*
X164805340Y-103178326D01*
X164752359Y-103172056D01*
X164597873Y-103154504D01*
X164427180Y-103135876D01*
X164268521Y-103119280D01*
X164202769Y-103112553D01*
X164039169Y-103095498D01*
X163877867Y-103078318D01*
X163745830Y-103063871D01*
X163584825Y-103046963D01*
X163436106Y-103033492D01*
X163312057Y-103024442D01*
X163220547Y-103020292D01*
X163169449Y-103021523D01*
X163166630Y-103028612D01*
X163187096Y-103038476D01*
X163223138Y-103063580D01*
X163234256Y-103071195D01*
X163288275Y-103101610D01*
X163378682Y-103149809D01*
X163496517Y-103211043D01*
X163632815Y-103280566D01*
X163784820Y-103357675D01*
X163972038Y-103453025D01*
X164177628Y-103558018D01*
X164385612Y-103664496D01*
X164580015Y-103764299D01*
X164639323Y-103794623D01*
X164803919Y-103876951D01*
X164954182Y-103949552D01*
X165081200Y-104008267D01*
X165176059Y-104048941D01*
X165229848Y-104067414D01*
X165232767Y-104067997D01*
X165317295Y-104088413D01*
X165384539Y-104110216D01*
X165395365Y-104114484D01*
X165467135Y-104138906D01*
X165554061Y-104164729D01*
X165601148Y-104177792D01*
X165711071Y-104208650D01*
X165822470Y-104240272D01*
X165881420Y-104256947D01*
X165996205Y-104288680D01*
X166090880Y-104314009D01*
X166111001Y-104319418D01*
X166194319Y-104345362D01*
X166252954Y-104368827D01*
X166295680Y-104383957D01*
X166371365Y-104394327D01*
X166418912Y-104399955D01*
X166455883Y-104418869D01*
X166459850Y-104423155D01*
X166504858Y-104443503D01*
X166577628Y-104460458D01*
X166645907Y-104474468D01*
X166754585Y-104502118D01*
X166867854Y-104535207D01*
X166961684Y-104564219D01*
X167076122Y-104598565D01*
X167164517Y-104623979D01*
X167183852Y-104629402D01*
X167270176Y-104655785D01*
X167334039Y-104678438D01*
X167336017Y-104679243D01*
X167404747Y-104700736D01*
X167489434Y-104719917D01*
X167544953Y-104731317D01*
X167697061Y-104771000D01*
X167842604Y-104818826D01*
X167853324Y-104822665D01*
X167925116Y-104845297D01*
X168012125Y-104869729D01*
X168059272Y-104882357D01*
X168169171Y-104912571D01*
X168280535Y-104943932D01*
X168339415Y-104960666D01*
X168454236Y-104992893D01*
X168548944Y-105019009D01*
X168569318Y-105024721D01*
X168652496Y-105051423D01*
X168711019Y-105075167D01*
X168741520Y-105087586D01*
X168811937Y-105100667D01*
X168829974Y-105102044D01*
X168901584Y-105115864D01*
X168988905Y-105139734D01*
X169010158Y-105146309D01*
X169127939Y-105181436D01*
X169241158Y-105213589D01*
X169275273Y-105223132D01*
X169363051Y-105249388D01*
X169424806Y-105270189D01*
X169435550Y-105274155D01*
X169507337Y-105297313D01*
X169594328Y-105322130D01*
X169643980Y-105335418D01*
X169791386Y-105375404D01*
X169929419Y-105413560D01*
X170042993Y-105445687D01*
X170117020Y-105467587D01*
X170137340Y-105473791D01*
X170220396Y-105497940D01*
X170314795Y-105524231D01*
X170330184Y-105528474D01*
X170490063Y-105580280D01*
X170617997Y-105636167D01*
X170701884Y-105690921D01*
X170703216Y-105692115D01*
X170753769Y-105731124D01*
X170834676Y-105787590D01*
X170929064Y-105849719D01*
X170942174Y-105858155D01*
X171024944Y-105914389D01*
X171083417Y-105959220D01*
X171105649Y-105983593D01*
X171106853Y-105989347D01*
X171136035Y-106004783D01*
X171150981Y-106009533D01*
X171203318Y-106038637D01*
X171272380Y-106083853D01*
X171340106Y-106133062D01*
X171388432Y-106174144D01*
X171388991Y-106174664D01*
X171419813Y-106197053D01*
X171487492Y-106243678D01*
X171582505Y-106308038D01*
X171695324Y-106383631D01*
X171811853Y-106462399D01*
X171924278Y-106540451D01*
X172014857Y-106605472D01*
X172070880Y-106648495D01*
X172084681Y-106660186D01*
X172128266Y-106702988D01*
X172133675Y-106733544D01*
X172106319Y-106770482D01*
X172067793Y-106799798D01*
X172027426Y-106803128D01*
X172008740Y-106795458D01*
X171942716Y-106779194D01*
X171854617Y-106764438D01*
X171815536Y-106758902D01*
X171704771Y-106741916D01*
X171569557Y-106720048D01*
X171430813Y-106696645D01*
X171364843Y-106685273D01*
X171223350Y-106660985D01*
X171094554Y-106638998D01*
X170999945Y-106622986D01*
X170967050Y-106617438D01*
X170811648Y-106590475D01*
X170626818Y-106557223D01*
X170399556Y-106515349D01*
X170368228Y-106509612D01*
X170253504Y-106489278D01*
X170114891Y-106465375D01*
X169975752Y-106441950D01*
X169925095Y-106433510D01*
X169785198Y-106409896D01*
X169655591Y-106387636D01*
X169559011Y-106370622D01*
X169517727Y-106363164D01*
X169385728Y-106339319D01*
X169262348Y-106317031D01*
X169231316Y-106311490D01*
X169119637Y-106292044D01*
X168983488Y-106268818D01*
X168845607Y-106245702D01*
X168796251Y-106237466D01*
X168654597Y-106213398D01*
X168521994Y-106190329D01*
X168421803Y-106172303D01*
X168360851Y-106161052D01*
X168184434Y-106129073D01*
X167993112Y-106095069D01*
X167800980Y-106061491D01*
X167622134Y-106030790D01*
X167470671Y-106005416D01*
X167360685Y-105987820D01*
X167246063Y-105970344D01*
X167210656Y-106387067D01*
X167205193Y-106455239D01*
X167196187Y-106595351D01*
X167191809Y-106710517D01*
X167192360Y-106790307D01*
X167198136Y-106824290D01*
X167202324Y-106827250D01*
X167248678Y-106849507D01*
X167330399Y-106882930D01*
X167432926Y-106921490D01*
X167452757Y-106928687D01*
X167559627Y-106968117D01*
X167648328Y-107001836D01*
X167701336Y-107023203D01*
X167748197Y-107041575D01*
X167834333Y-107072283D01*
X167935558Y-107106380D01*
X168008483Y-107130591D01*
X168221525Y-107205124D01*
X168407676Y-107275835D01*
X168434931Y-107286226D01*
X168512828Y-107314174D01*
X168605451Y-107346035D01*
X168655432Y-107363123D01*
X168746402Y-107395429D01*
X168810290Y-107419658D01*
X168856562Y-107438603D01*
X168937431Y-107471641D01*
X168947702Y-107475680D01*
X169015027Y-107500123D01*
X169113970Y-107534383D01*
X169227031Y-107572373D01*
X169255853Y-107581965D01*
X169368651Y-107620469D01*
X169463980Y-107654412D01*
X169523694Y-107677371D01*
X169548988Y-107688097D01*
X169632610Y-107721842D01*
X169724951Y-107755708D01*
X169848610Y-107798093D01*
X169868836Y-107804917D01*
X169976843Y-107842346D01*
X170067775Y-107876543D01*
X170173527Y-107919422D01*
X170184157Y-107923671D01*
X170254488Y-107949547D01*
X170355878Y-107984929D01*
X170470190Y-108023458D01*
X170500297Y-108033475D01*
X170611356Y-108071255D01*
X170703689Y-108103871D01*
X170759789Y-108125173D01*
X170852802Y-108163596D01*
X170961826Y-108205097D01*
X171091769Y-108250151D01*
X171142481Y-108267533D01*
X171230249Y-108298988D01*
X171289545Y-108322021D01*
X171299361Y-108326036D01*
X171363705Y-108349825D01*
X171460240Y-108383557D01*
X171572081Y-108421297D01*
X171607672Y-108433307D01*
X171709817Y-108470192D01*
X171787080Y-108501660D01*
X171824951Y-108521938D01*
X171850147Y-108536283D01*
X171911124Y-108547608D01*
X171948853Y-108551477D01*
X171997298Y-108570162D01*
X172022415Y-108584045D01*
X172090198Y-108611909D01*
X172179534Y-108643195D01*
X172243820Y-108664581D01*
X172338822Y-108697869D01*
X172405563Y-108723309D01*
X172461442Y-108746696D01*
X172532704Y-108776384D01*
X172573937Y-108791808D01*
X172657961Y-108820537D01*
X172757098Y-108852592D01*
X172763976Y-108854770D01*
X172882798Y-108900652D01*
X172948149Y-108947033D01*
X172962858Y-108997220D01*
X172929751Y-109054519D01*
X172888889Y-109093906D01*
X172857487Y-109112681D01*
X172835007Y-109122243D01*
X172772489Y-109155970D01*
X172681348Y-109208294D01*
X172572266Y-109273204D01*
X172476648Y-109330767D01*
X172154895Y-109520493D01*
X171840490Y-109699144D01*
X171795485Y-109724724D01*
X171722644Y-109768238D01*
X171678983Y-109797218D01*
X171630443Y-109812474D01*
X171525635Y-109812104D01*
X171369148Y-109792700D01*
X171161755Y-109754387D01*
X170904225Y-109697289D01*
X170597331Y-109621533D01*
X170594771Y-109620879D01*
X170515424Y-109601659D01*
X170404988Y-109576147D01*
X170286541Y-109549679D01*
X170284011Y-109549123D01*
X170162532Y-109522130D01*
X170046827Y-109495858D01*
X169961625Y-109475920D01*
X169954290Y-109474154D01*
X169843889Y-109448163D01*
X169735596Y-109423470D01*
X169728261Y-109421833D01*
X169617860Y-109396587D01*
X169509567Y-109371020D01*
X169508207Y-109370692D01*
X169422074Y-109350557D01*
X169305980Y-109324209D01*
X169184650Y-109297262D01*
X169179276Y-109296082D01*
X169060689Y-109269540D01*
X168951191Y-109244203D01*
X168873861Y-109225407D01*
X168751659Y-109194929D01*
X168591379Y-109156732D01*
X168424841Y-109118519D01*
X168267316Y-109083721D01*
X168134073Y-109055770D01*
X168040379Y-109038096D01*
X167969552Y-109022534D01*
X167899111Y-108999666D01*
X167839863Y-108979793D01*
X167757843Y-108961039D01*
X167736848Y-108957339D01*
X167645187Y-108939305D01*
X167545941Y-108917825D01*
X167396391Y-108883639D01*
X167187793Y-108835575D01*
X167024015Y-108797306D01*
X166910234Y-108770036D01*
X166902774Y-108768210D01*
X166792420Y-108741990D01*
X166684205Y-108717327D01*
X166606417Y-108699914D01*
X166492148Y-108673993D01*
X166373416Y-108646793D01*
X166264848Y-108622423D01*
X166161761Y-108600444D01*
X166090880Y-108586619D01*
X166020012Y-108570659D01*
X165949611Y-108547608D01*
X165890377Y-108527789D01*
X165808343Y-108509178D01*
X165804749Y-108508574D01*
X165731996Y-108494764D01*
X165627169Y-108473184D01*
X165511680Y-108448233D01*
X165396621Y-108422555D01*
X165269331Y-108393328D01*
X165139857Y-108362400D01*
X164981925Y-108323589D01*
X164913376Y-108307142D01*
X164801976Y-108281050D01*
X164663089Y-108248871D01*
X164510737Y-108213829D01*
X164358943Y-108179150D01*
X164221732Y-108148059D01*
X164113126Y-108123781D01*
X164078931Y-108116142D01*
X163969157Y-108091010D01*
X163858844Y-108065110D01*
X163809758Y-108054200D01*
X163721040Y-108038316D01*
X163661069Y-108032596D01*
X163622871Y-108033995D01*
X163534871Y-108037683D01*
X163406075Y-108043288D01*
X163244576Y-108050453D01*
X163058467Y-108058822D01*
X162855841Y-108068039D01*
X162739728Y-108073313D01*
X162492025Y-108084357D01*
X162236603Y-108095511D01*
X161989502Y-108106085D01*
X161766763Y-108115388D01*
X161584428Y-108122731D01*
X161580510Y-108122885D01*
X161410072Y-108129547D01*
X161196949Y-108137873D01*
X160954554Y-108147338D01*
X160696301Y-108157420D01*
X160435603Y-108167593D01*
X160185874Y-108177334D01*
X160108082Y-108180422D01*
X159885804Y-108189829D01*
X159677555Y-108199468D01*
X159491823Y-108208892D01*
X159337097Y-108217656D01*
X159221865Y-108225316D01*
X159154617Y-108231425D01*
X158999222Y-108251359D01*
X160058733Y-108927015D01*
X160221534Y-109030956D01*
X160431353Y-109165287D01*
X160622729Y-109288238D01*
X160790790Y-109396652D01*
X160930658Y-109487375D01*
X161037461Y-109557252D01*
X161106323Y-109603128D01*
X161132370Y-109621849D01*
X161137120Y-109627195D01*
X161178629Y-109652326D01*
X161179532Y-109652658D01*
X161222267Y-109675142D01*
X161302793Y-109723133D01*
X161413982Y-109791988D01*
X161548704Y-109877064D01*
X161699831Y-109973719D01*
X161860233Y-110077310D01*
X162022781Y-110183193D01*
X162180348Y-110286726D01*
X162325803Y-110383266D01*
X162452019Y-110468170D01*
X162551865Y-110536796D01*
X162618214Y-110584500D01*
X162643936Y-110606640D01*
X162646770Y-110633183D01*
X162625032Y-110686515D01*
X162623415Y-110688390D01*
X162585760Y-110710306D01*
X162517249Y-110718325D01*
X162405579Y-110713988D01*
X162369501Y-110711761D01*
X162267282Y-110706780D01*
X162121759Y-110700638D01*
X161941284Y-110693654D01*
X161734205Y-110686147D01*
X161508873Y-110678435D01*
X161273638Y-110670836D01*
X161160729Y-110667251D01*
X160917024Y-110659204D01*
X160680391Y-110651003D01*
X160460713Y-110643011D01*
X160267871Y-110635594D01*
X160111748Y-110629116D01*
X160002225Y-110623941D01*
X159994223Y-110623521D01*
X159875280Y-110617889D01*
X159711732Y-110610937D01*
X159514490Y-110603087D01*
X159294464Y-110594764D01*
X159062564Y-110586392D01*
X158829700Y-110578394D01*
X158661105Y-110572733D01*
X158106001Y-110553684D01*
X157532833Y-110533445D01*
X156960239Y-110512687D01*
X156406857Y-110492084D01*
X155891324Y-110472309D01*
X155698419Y-110463709D01*
X155509470Y-110451895D01*
X155363503Y-110437892D01*
X155253105Y-110420959D01*
X155170857Y-110400355D01*
X155106514Y-110380461D01*
X155008541Y-110352760D01*
X154937419Y-110335761D01*
X154880614Y-110319231D01*
X154843927Y-110296075D01*
X154826437Y-110282409D01*
X154773256Y-110271079D01*
X154740706Y-110267971D01*
X154668972Y-110245896D01*
X154630209Y-110230076D01*
X154548806Y-110202823D01*
X154450390Y-110173741D01*
X154371219Y-110151090D01*
X154281466Y-110123622D01*
X154224361Y-110103951D01*
X154207145Y-110097110D01*
X154179926Y-110087066D01*
X154142577Y-110074592D01*
X154086294Y-110056945D01*
X154002273Y-110031382D01*
X153881708Y-109995162D01*
X153715796Y-109945542D01*
X153659233Y-109928532D01*
X153546322Y-109893934D01*
X153456373Y-109865526D01*
X153405006Y-109848201D01*
X153401730Y-109846976D01*
X153333189Y-109823691D01*
X153249611Y-109797890D01*
X153183189Y-109778347D01*
X153017995Y-109729005D01*
X152865169Y-109682382D01*
X152735187Y-109641735D01*
X152638523Y-109610323D01*
X152585652Y-109591404D01*
X152536845Y-109574358D01*
X152448965Y-109547942D01*
X152345496Y-109519577D01*
X152252030Y-109492946D01*
X152174612Y-109466572D01*
X152135006Y-109447523D01*
X152115287Y-109435758D01*
X152056926Y-109423470D01*
X152025945Y-109420352D01*
X151956625Y-109398685D01*
X151948179Y-109394528D01*
X151915464Y-109380523D01*
X151868325Y-109364015D01*
X151796752Y-109341863D01*
X151690736Y-109310927D01*
X151540268Y-109268067D01*
X151460922Y-109244929D01*
X151371275Y-109217140D01*
X151314239Y-109197441D01*
X151272844Y-109182970D01*
X151188226Y-109156727D01*
X151088210Y-109127977D01*
X151008974Y-109104748D01*
X150922425Y-109076092D01*
X150869628Y-109054517D01*
X150838649Y-109040994D01*
X150777420Y-109027920D01*
X150748941Y-109024388D01*
X150685213Y-109002181D01*
X150652031Y-108987848D01*
X150570950Y-108959075D01*
X150465024Y-108925085D01*
X150349929Y-108890537D01*
X150241342Y-108860092D01*
X150154938Y-108838408D01*
X150106394Y-108830144D01*
X150083309Y-108826982D01*
X150042826Y-108801891D01*
X150024388Y-108786525D01*
X149970141Y-108773637D01*
X149937318Y-108770392D01*
X149865858Y-108747731D01*
X149827032Y-108731492D01*
X149745648Y-108703675D01*
X149647276Y-108674080D01*
X149629587Y-108669053D01*
X149512254Y-108634455D01*
X149372765Y-108591848D01*
X149237598Y-108549296D01*
X149213516Y-108541590D01*
X149075434Y-108497957D01*
X148938065Y-108455309D01*
X148827921Y-108421890D01*
X148748168Y-108397670D01*
X148658769Y-108369223D01*
X148601892Y-108349539D01*
X148570301Y-108337892D01*
X148479308Y-108307576D01*
X148367964Y-108273175D01*
X148251095Y-108238967D01*
X148143530Y-108209234D01*
X148060098Y-108188255D01*
X148015627Y-108180311D01*
X147992541Y-108177149D01*
X147952059Y-108152058D01*
X147926461Y-108134469D01*
X147867298Y-108123804D01*
X147821581Y-108117621D01*
X147782537Y-108095550D01*
X147756939Y-108077962D01*
X147697776Y-108067297D01*
X147652059Y-108061114D01*
X147613015Y-108039043D01*
X147598018Y-108025152D01*
X147546260Y-108010790D01*
X147513983Y-108005554D01*
X147435239Y-107985664D01*
X147326737Y-107954391D01*
X147201820Y-107915428D01*
X147117676Y-107888474D01*
X146972051Y-107842726D01*
X146838231Y-107801682D01*
X146737153Y-107771812D01*
X146657687Y-107747971D01*
X146571280Y-107719043D01*
X146518571Y-107697652D01*
X146487859Y-107684573D01*
X146426363Y-107671746D01*
X146398236Y-107668416D01*
X146334156Y-107646961D01*
X146325709Y-107642804D01*
X146292995Y-107628799D01*
X146245856Y-107612291D01*
X146174283Y-107590139D01*
X146068267Y-107559203D01*
X145917798Y-107516343D01*
X145838483Y-107493128D01*
X145748818Y-107465018D01*
X145691769Y-107444849D01*
X145660066Y-107435066D01*
X145578055Y-107418435D01*
X145479867Y-107404941D01*
X145405102Y-107396932D01*
X145228551Y-107377500D01*
X145030644Y-107355190D01*
X144826887Y-107331792D01*
X144632788Y-107309093D01*
X144463856Y-107288884D01*
X144335596Y-107272951D01*
X144283405Y-107266266D01*
X143987358Y-107229172D01*
X143716803Y-107196928D01*
X143445607Y-107166408D01*
X143386630Y-107159807D01*
X143261440Y-107144928D01*
X143156224Y-107131313D01*
X143089096Y-107121255D01*
X143065639Y-107117429D01*
X142979558Y-107105357D01*
X142863552Y-107090642D01*
X142735926Y-107075648D01*
X142701380Y-107071733D01*
X142548062Y-107053948D01*
X142393347Y-107035469D01*
X142266019Y-107019723D01*
X142188111Y-107009835D01*
X141968484Y-106982285D01*
X141750378Y-106955488D01*
X141514567Y-106927099D01*
X141241825Y-106894772D01*
X141210187Y-106891038D01*
X141042545Y-106871130D01*
X140879172Y-106851542D01*
X140737353Y-106834356D01*
X140634372Y-106821653D01*
X140521431Y-106807592D01*
X140366615Y-106788549D01*
X140224695Y-106771307D01*
X140136239Y-106760659D01*
X139941808Y-106737273D01*
X139729340Y-106711735D01*
X139513664Y-106685827D01*
X139309608Y-106661328D01*
X139131998Y-106640020D01*
X138995663Y-106623685D01*
X138858847Y-106607072D01*
X138704456Y-106587932D01*
X138571858Y-106571127D01*
X138377861Y-106546378D01*
X138116938Y-106513968D01*
X137834157Y-106479855D01*
X137512348Y-106441947D01*
X137478013Y-106437932D01*
X137312419Y-106418397D01*
X137152940Y-106399331D01*
X137016250Y-106382737D01*
X136919022Y-106370619D01*
X136904580Y-106368774D01*
X136801103Y-106355730D01*
X136680757Y-106340888D01*
X136535689Y-106323299D01*
X136358047Y-106302019D01*
X136139981Y-106276099D01*
X135873638Y-106244594D01*
X135708792Y-106224966D01*
X135538562Y-106204419D01*
X135384340Y-106185548D01*
X135266185Y-106170791D01*
X135096064Y-106149303D01*
X134840867Y-106117891D01*
X134604054Y-106089969D01*
X134362070Y-106062721D01*
X134301740Y-106055889D01*
X134154177Y-106037987D01*
X134015756Y-106019760D01*
X133910012Y-106004253D01*
X133823556Y-105992214D01*
X133687531Y-105980397D01*
X133567491Y-105978050D01*
X133476666Y-105985235D01*
X133428288Y-106002012D01*
X133424613Y-106004937D01*
X133380633Y-106031894D01*
X133298827Y-106077707D01*
X133189361Y-106136775D01*
X133062403Y-106203500D01*
X132933357Y-106270566D01*
X132747586Y-106367287D01*
X132560740Y-106464729D01*
X132398444Y-106549536D01*
X132275737Y-106613573D01*
X132110311Y-106699495D01*
X131950797Y-106781962D01*
X131819244Y-106849550D01*
X131745437Y-106887581D01*
X131649187Y-106938232D01*
X131580508Y-106975714D01*
X131550835Y-106993879D01*
X131523269Y-107010676D01*
X131455212Y-107047786D01*
X131357314Y-107099417D01*
X131240045Y-107159972D01*
X131137665Y-107212501D01*
X130938138Y-107315679D01*
X130740650Y-107418735D01*
X130557293Y-107515318D01*
X130400160Y-107599073D01*
X130281344Y-107663648D01*
X130265971Y-107671955D01*
X130162964Y-107713308D01*
X130083569Y-107714310D01*
X130070968Y-107711206D01*
X129994894Y-107695286D01*
X129881231Y-107675053D01*
X129723838Y-107649460D01*
X129516575Y-107617456D01*
X129295023Y-107583628D01*
X129064684Y-107547997D01*
X128863487Y-107516367D01*
X128700354Y-107490143D01*
X128584205Y-107470729D01*
X128538591Y-107462870D01*
X128391124Y-107438125D01*
X128229322Y-107412060D01*
X128039315Y-107382469D01*
X127807231Y-107347146D01*
X127640087Y-107321749D01*
X127419098Y-107287473D01*
X127216333Y-107254997D01*
X127009066Y-107220721D01*
X126906069Y-107204354D01*
X126767948Y-107183864D01*
X126634706Y-107165338D01*
X126625317Y-107164083D01*
X126513058Y-107148026D01*
X126417107Y-107132575D01*
X126357348Y-107120914D01*
X126356815Y-107120782D01*
X126295763Y-107108502D01*
X126199614Y-107092042D01*
X126088939Y-107074925D01*
X125788752Y-107029630D01*
X125405674Y-106967650D01*
X125355612Y-106959381D01*
X125231398Y-106939325D01*
X125085323Y-106916146D01*
X124939489Y-106893367D01*
X124861216Y-106881236D01*
X124714360Y-106858384D01*
X124580223Y-106837408D01*
X124480368Y-106821675D01*
X124382366Y-106806140D01*
X124163073Y-106771601D01*
X123943694Y-106737412D01*
X123696330Y-106699216D01*
X123550832Y-106676683D01*
X123217064Y-106623679D01*
X122891102Y-106569855D01*
X122763450Y-106548760D01*
X122581564Y-106519584D01*
X122358095Y-106484537D01*
X122085874Y-106442485D01*
X122007662Y-106430420D01*
X121860786Y-106407544D01*
X121726624Y-106386397D01*
X121626753Y-106370367D01*
X121482808Y-106346986D01*
X121276888Y-106314162D01*
X121067575Y-106281683D01*
X120828588Y-106245435D01*
X120734131Y-106231112D01*
X120587798Y-106208544D01*
X120457194Y-106187984D01*
X120362403Y-106172571D01*
X120215665Y-106148273D01*
X120036483Y-106119442D01*
X119825758Y-106086347D01*
X119571302Y-106047052D01*
X119507373Y-106037217D01*
X119331812Y-106009889D01*
X119165306Y-105983361D01*
X118986275Y-105954165D01*
X118773138Y-105918836D01*
X118620306Y-105893657D01*
X118431337Y-105863375D01*
X118222188Y-105830827D01*
X117974973Y-105793197D01*
X117814838Y-105768874D01*
X117600577Y-105735685D01*
X117397000Y-105703193D01*
X117176808Y-105667085D01*
X117127659Y-105659092D01*
X117006286Y-105639937D01*
X116862430Y-105617740D01*
X116717687Y-105595852D01*
X116640794Y-105584242D01*
X116492008Y-105561211D01*
X116354866Y-105539337D01*
X116251502Y-105522120D01*
X116181229Y-105510506D01*
X116053307Y-105491416D01*
X115944135Y-105477365D01*
X115911966Y-105473307D01*
X115875695Y-105466262D01*
X115835912Y-105454118D01*
X115787660Y-105434149D01*
X115725983Y-105403630D01*
X115645925Y-105359837D01*
X115542529Y-105300044D01*
X115410839Y-105221528D01*
X115245899Y-105121562D01*
X115042752Y-104997422D01*
X114796441Y-104846383D01*
X114739420Y-104811439D01*
X114591564Y-104721202D01*
X114450857Y-104635806D01*
X114330950Y-104563520D01*
X114245496Y-104512615D01*
X114242643Y-104510934D01*
X114157232Y-104458149D01*
X114094038Y-104414570D01*
X114066556Y-104389484D01*
X114064434Y-104385320D01*
X114029123Y-104366073D01*
X114022681Y-104364630D01*
X113975575Y-104342011D01*
X113898524Y-104297650D01*
X113804568Y-104238932D01*
X113773068Y-104218655D01*
X113686586Y-104164114D01*
X113623593Y-104126078D01*
X113595969Y-104111791D01*
X113594164Y-104111226D01*
X113558959Y-104091748D01*
X113487150Y-104048633D01*
X113387993Y-103987513D01*
X113270746Y-103914015D01*
X113248849Y-103900228D01*
X113132290Y-103828276D01*
X113033850Y-103769830D01*
X112963326Y-103730587D01*
X112930515Y-103716240D01*
X112924080Y-103715428D01*
X112903449Y-103687986D01*
X112902651Y-103681253D01*
X112875839Y-103659733D01*
X112858532Y-103653814D01*
X112799628Y-103623816D01*
X112712119Y-103574193D01*
X112607677Y-103511401D01*
X112367126Y-103363070D01*
X112366878Y-101092694D01*
X112366868Y-100800994D01*
X112366973Y-100426564D01*
X112367288Y-100102565D01*
X112367893Y-99825413D01*
X112368866Y-99591522D01*
X112370285Y-99397307D01*
X112372229Y-99239184D01*
X112374776Y-99113566D01*
X112378004Y-99016869D01*
X112381992Y-98945509D01*
X112386818Y-98895898D01*
X112392561Y-98864454D01*
X112399299Y-98847590D01*
X112407111Y-98841721D01*
X112416074Y-98843263D01*
X112429163Y-98848216D01*
X112498582Y-98868483D01*
X112585596Y-98888666D01*
X112599078Y-98891427D01*
X112714217Y-98915701D01*
X112825752Y-98940116D01*
X112833401Y-98941824D01*
X112925568Y-98961559D01*
X113046406Y-98986468D01*
X113171858Y-99011583D01*
X113185688Y-99014312D01*
X113311837Y-99039723D01*
X113430616Y-99064445D01*
X113517965Y-99083481D01*
X113602135Y-99102640D01*
X113745375Y-99134705D01*
X113865048Y-99160400D01*
X113982319Y-99184207D01*
X114118355Y-99210607D01*
X114184995Y-99223421D01*
X114314394Y-99248844D01*
X114434544Y-99273513D01*
X114566889Y-99301888D01*
X114732871Y-99338428D01*
X114779000Y-99348520D01*
X114834320Y-99360044D01*
X114897301Y-99372277D01*
X114977552Y-99386971D01*
X115084683Y-99405879D01*
X115228302Y-99430753D01*
X115418021Y-99463343D01*
X115529409Y-99482524D01*
X115740785Y-99519568D01*
X115927321Y-99553346D01*
X116110234Y-99587668D01*
X116148987Y-99594878D01*
X116259778Y-99614654D01*
X116395126Y-99638079D01*
X116534039Y-99661497D01*
X116600783Y-99672674D01*
X116740586Y-99696620D01*
X116866604Y-99718845D01*
X116957843Y-99735675D01*
X116985894Y-99741075D01*
X117168960Y-99775606D01*
X117341277Y-99806999D01*
X117480535Y-99831177D01*
X117494833Y-99833560D01*
X117580174Y-99847785D01*
X117695329Y-99866982D01*
X117819578Y-99887698D01*
X117852909Y-99893285D01*
X117973450Y-99913941D01*
X118077129Y-99932348D01*
X118144495Y-99945070D01*
X118174401Y-99951025D01*
X118268191Y-99968818D01*
X118370524Y-99987402D01*
X118418847Y-99996014D01*
X118545875Y-100018983D01*
X118667187Y-100041269D01*
X118698514Y-100047006D01*
X118813239Y-100067341D01*
X118951851Y-100091243D01*
X119090991Y-100114668D01*
X119178529Y-100129266D01*
X119388568Y-100165158D01*
X119580841Y-100199589D01*
X119783204Y-100237501D01*
X119821957Y-100244711D01*
X119932748Y-100264487D01*
X120068096Y-100287912D01*
X120207009Y-100311330D01*
X120273753Y-100322507D01*
X120413556Y-100346453D01*
X120539574Y-100368679D01*
X120630813Y-100385508D01*
X120658864Y-100390908D01*
X120841930Y-100425439D01*
X121014247Y-100456832D01*
X121153505Y-100481010D01*
X121167803Y-100483393D01*
X121253144Y-100497618D01*
X121368299Y-100516816D01*
X121492548Y-100537531D01*
X121525879Y-100543118D01*
X121646420Y-100563775D01*
X121750099Y-100582181D01*
X121817465Y-100594904D01*
X121852157Y-100601787D01*
X121946940Y-100619721D01*
X122050557Y-100638541D01*
X122091861Y-100645882D01*
X122223850Y-100669463D01*
X122347220Y-100691645D01*
X122378394Y-100697236D01*
X122490063Y-100716954D01*
X122626152Y-100740686D01*
X122763961Y-100764465D01*
X122795952Y-100769953D01*
X122989813Y-100803367D01*
X123141939Y-100829956D01*
X123264569Y-100851908D01*
X123369943Y-100871410D01*
X123470301Y-100890647D01*
X123546481Y-100904728D01*
X123680960Y-100927587D01*
X123809345Y-100947507D01*
X123900615Y-100961564D01*
X123998534Y-100978480D01*
X124063627Y-100991877D01*
X124099625Y-101000085D01*
X124188353Y-101017907D01*
X124289656Y-101036318D01*
X124339838Y-101044999D01*
X124472401Y-101068294D01*
X124593382Y-101089960D01*
X124710539Y-101111098D01*
X124879649Y-101141097D01*
X125073177Y-101174838D01*
X125306786Y-101215067D01*
X125418174Y-101234248D01*
X125629550Y-101271292D01*
X125816087Y-101305070D01*
X125999000Y-101339392D01*
X126037752Y-101346602D01*
X126148543Y-101366378D01*
X126283891Y-101389803D01*
X126422804Y-101413221D01*
X126489548Y-101424398D01*
X126629352Y-101448344D01*
X126755370Y-101470570D01*
X126846608Y-101487399D01*
X126850624Y-101488173D01*
X127051042Y-101524876D01*
X127290461Y-101565660D01*
X127552172Y-101607834D01*
X127819467Y-101648702D01*
X128075640Y-101685571D01*
X128195948Y-101702434D01*
X128338056Y-101722694D01*
X128457064Y-101739994D01*
X128553507Y-101754137D01*
X128779078Y-101786503D01*
X129040170Y-101823057D01*
X129347053Y-101865244D01*
X129450807Y-101879527D01*
X129609762Y-101901784D01*
X129756747Y-101922757D01*
X129869745Y-101939328D01*
X130036305Y-101964226D01*
X130288611Y-102001494D01*
X130519578Y-102035102D01*
X130526575Y-102036105D01*
X130615363Y-102048409D01*
X130733927Y-102064365D01*
X130858621Y-102080787D01*
X130952813Y-102093180D01*
X131154172Y-102120584D01*
X131381505Y-102152732D01*
X131649723Y-102191714D01*
X131803531Y-102214185D01*
X131935337Y-102233081D01*
X132056550Y-102249894D01*
X132189388Y-102267701D01*
X132356063Y-102289581D01*
X132456911Y-102302856D01*
X132588271Y-102320454D01*
X132696740Y-102335329D01*
X132765741Y-102345230D01*
X132837149Y-102356143D01*
X132945931Y-102372816D01*
X133062403Y-102390705D01*
X133097230Y-102396041D01*
X133225755Y-102415354D01*
X133360172Y-102434853D01*
X133513016Y-102456305D01*
X133696826Y-102481476D01*
X133924139Y-102512133D01*
X133938808Y-102514104D01*
X134393156Y-102577407D01*
X134828254Y-102642756D01*
X134849692Y-102646017D01*
X134962620Y-102661904D01*
X135100385Y-102679894D01*
X135237932Y-102696689D01*
X135285874Y-102702450D01*
X135405090Y-102718056D01*
X135503272Y-102732642D01*
X135562848Y-102743669D01*
X135565729Y-102744353D01*
X135631577Y-102756686D01*
X135731617Y-102772127D01*
X135845385Y-102787503D01*
X135965405Y-102803009D01*
X136107663Y-102822209D01*
X136226808Y-102839095D01*
X136428524Y-102868711D01*
X136617946Y-102896133D01*
X136787752Y-102920161D01*
X136957077Y-102943499D01*
X137145051Y-102968851D01*
X137285096Y-102987766D01*
X137434380Y-103008268D01*
X137563136Y-103026289D01*
X137653616Y-103039369D01*
X137742738Y-103052711D01*
X137877096Y-103072843D01*
X138006786Y-103092290D01*
X138047338Y-103098175D01*
X138151833Y-103112030D01*
X138283937Y-103127975D01*
X138447744Y-103146446D01*
X138647349Y-103167877D01*
X138886847Y-103192705D01*
X139170334Y-103221363D01*
X139501904Y-103254287D01*
X139885652Y-103291912D01*
X139933247Y-103296570D01*
X140075465Y-103310635D01*
X140208754Y-103324001D01*
X140309456Y-103334300D01*
X140342789Y-103337679D01*
X140447616Y-103347830D01*
X140587733Y-103361006D01*
X140748908Y-103375878D01*
X140916908Y-103391113D01*
X140996704Y-103398318D01*
X141163236Y-103413571D01*
X141316177Y-103427849D01*
X141441297Y-103439816D01*
X141524361Y-103448136D01*
X141554491Y-103451289D01*
X141669313Y-103463053D01*
X141808424Y-103477053D01*
X141948165Y-103490903D01*
X141972241Y-103493271D01*
X142140199Y-103509945D01*
X142322946Y-103528288D01*
X142484984Y-103544740D01*
X142548516Y-103551135D01*
X142695270Y-103565475D01*
X142871951Y-103582359D01*
X143061744Y-103600185D01*
X143247832Y-103617352D01*
X143351920Y-103626917D01*
X143542174Y-103644681D01*
X143726596Y-103662215D01*
X143888370Y-103677915D01*
X144010679Y-103690175D01*
X144131851Y-103702610D01*
X144480854Y-103737495D01*
X144804676Y-103768269D01*
X145126697Y-103797172D01*
X145354804Y-103817207D01*
X145611566Y-103840185D01*
X145822498Y-103859678D01*
X145993576Y-103876268D01*
X146130780Y-103890541D01*
X146240087Y-103903080D01*
X146327476Y-103914468D01*
X146390095Y-103922070D01*
X146539863Y-103935598D01*
X146734758Y-103949149D01*
X146967541Y-103962390D01*
X147230976Y-103974988D01*
X147517826Y-103986607D01*
X147820854Y-103996915D01*
X148132823Y-104005576D01*
X148446497Y-104012258D01*
X148665954Y-104016555D01*
X148944808Y-104022729D01*
X149247469Y-104030025D01*
X149556867Y-104038016D01*
X149855929Y-104046274D01*
X150127587Y-104054371D01*
X150681310Y-104070190D01*
X151196299Y-104081681D01*
X151656197Y-104088315D01*
X152061614Y-104090088D01*
X152413164Y-104087001D01*
X152711457Y-104079052D01*
X152957107Y-104066239D01*
X153150724Y-104048562D01*
X153231202Y-104038919D01*
X153423874Y-104015860D01*
X153574993Y-103997840D01*
X153695296Y-103983601D01*
X153795522Y-103971886D01*
X153886405Y-103961435D01*
X153978683Y-103950990D01*
X154083093Y-103939294D01*
X154107413Y-103936574D01*
X154256948Y-103919772D01*
X154409369Y-103902535D01*
X154535151Y-103888201D01*
X154635058Y-103877278D01*
X154777964Y-103862476D01*
X154939492Y-103846340D01*
X155100223Y-103830838D01*
X155118631Y-103829094D01*
X155260030Y-103815256D01*
X155383179Y-103802479D01*
X155475403Y-103792117D01*
X155524027Y-103785527D01*
X155553757Y-103771169D01*
X155623724Y-103731146D01*
X155724565Y-103670931D01*
X155847636Y-103595922D01*
X155984293Y-103511519D01*
X156125891Y-103423119D01*
X156263787Y-103336121D01*
X156389337Y-103255925D01*
X156493897Y-103187927D01*
X156568822Y-103137527D01*
X156605468Y-103110124D01*
X156602774Y-103098297D01*
X156578553Y-103044884D01*
X156533890Y-102956724D01*
X156473409Y-102842638D01*
X156401731Y-102711445D01*
X156323478Y-102571969D01*
X156292961Y-102517063D01*
X156238034Y-102413151D01*
X156195903Y-102327356D01*
X156131880Y-102235529D01*
X156015556Y-102143708D01*
X155934569Y-102094486D01*
X155814843Y-102020893D01*
X155689003Y-101942853D01*
X155570636Y-101868836D01*
X155473332Y-101807309D01*
X155410679Y-101766741D01*
X155373770Y-101743051D01*
X155293619Y-101693817D01*
X155202583Y-101639599D01*
X155138545Y-101599883D01*
X155080329Y-101558096D01*
X155057872Y-101533648D01*
X155057225Y-101529107D01*
X155030353Y-101512458D01*
X155028709Y-101512243D01*
X154990631Y-101494631D01*
X154916232Y-101452861D01*
X154815487Y-101392715D01*
X154698373Y-101319978D01*
X154695513Y-101318172D01*
X154561311Y-101236026D01*
X154424495Y-101156697D01*
X154295184Y-101085590D01*
X154183500Y-101028109D01*
X154099562Y-100989657D01*
X154053491Y-100975639D01*
X154041246Y-100971599D01*
X153986751Y-100948492D01*
X153900032Y-100909475D01*
X153792918Y-100859805D01*
X153737327Y-100833784D01*
X153622069Y-100780343D01*
X153524579Y-100735789D01*
X153461514Y-100707762D01*
X153281962Y-100630110D01*
X152981202Y-100495234D01*
X152897794Y-100457261D01*
X152792665Y-100409920D01*
X152712793Y-100374528D01*
X152686855Y-100363045D01*
X152599855Y-100323549D01*
X152487413Y-100271687D01*
X152367262Y-100215612D01*
X152302973Y-100185761D01*
X152204457Y-100141503D01*
X152132320Y-100111033D01*
X152098852Y-100099659D01*
X152080715Y-100094576D01*
X152022418Y-100069894D01*
X151943251Y-100031636D01*
X151849401Y-99987828D01*
X151726854Y-99935944D01*
X151604208Y-99888221D01*
X151590135Y-99883035D01*
X151484365Y-99843588D01*
X151395843Y-99809823D01*
X151342492Y-99788566D01*
X151332551Y-99784511D01*
X151268169Y-99760545D01*
X151171692Y-99726406D01*
X151059956Y-99688083D01*
X151024007Y-99675750D01*
X150922020Y-99638553D01*
X150844892Y-99607166D01*
X150807086Y-99587351D01*
X150787362Y-99575418D01*
X150729006Y-99562959D01*
X150697950Y-99559805D01*
X150628705Y-99538001D01*
X150581186Y-99515292D01*
X150460965Y-99466247D01*
X150297109Y-99408358D01*
X150247128Y-99391270D01*
X150156158Y-99358965D01*
X150092270Y-99334735D01*
X150010430Y-99301690D01*
X149926943Y-99269398D01*
X149825995Y-99231951D01*
X149689656Y-99182572D01*
X149669857Y-99175430D01*
X149562974Y-99136406D01*
X149474261Y-99103288D01*
X149421247Y-99082606D01*
X149415231Y-99080141D01*
X149354542Y-99056936D01*
X149261219Y-99022651D01*
X149152837Y-98983760D01*
X149133332Y-98976826D01*
X149026335Y-98938271D01*
X148937508Y-98905461D01*
X148884428Y-98884872D01*
X148878459Y-98882425D01*
X148817789Y-98859289D01*
X148724442Y-98825162D01*
X148616019Y-98786494D01*
X148595616Y-98779264D01*
X148490207Y-98740613D01*
X148404372Y-98707115D01*
X148355056Y-98685341D01*
X148324116Y-98671882D01*
X148262848Y-98658843D01*
X148234738Y-98655523D01*
X148170641Y-98634105D01*
X148131687Y-98618233D01*
X148050340Y-98590556D01*
X147952059Y-98560655D01*
X147872506Y-98536634D01*
X147786153Y-98507705D01*
X147733476Y-98486505D01*
X147702944Y-98473724D01*
X147641269Y-98461068D01*
X147612809Y-98457547D01*
X147549061Y-98435380D01*
X147531906Y-98427798D01*
X147463352Y-98402774D01*
X147362920Y-98369480D01*
X147245718Y-98333014D01*
X147189121Y-98315788D01*
X147076224Y-98280469D01*
X146986288Y-98251076D01*
X146934928Y-98232650D01*
X146900915Y-98219930D01*
X146819571Y-98192957D01*
X146723026Y-98163456D01*
X146658174Y-98143510D01*
X146572333Y-98114069D01*
X146518571Y-98091732D01*
X146487808Y-98079020D01*
X146414287Y-98065517D01*
X146381427Y-98060942D01*
X146341603Y-98037263D01*
X146323165Y-98021898D01*
X146268918Y-98009010D01*
X146236379Y-98005959D01*
X146164634Y-97984272D01*
X146125681Y-97968400D01*
X146044334Y-97940723D01*
X145946052Y-97910822D01*
X145866500Y-97886801D01*
X145780146Y-97857872D01*
X145727470Y-97836672D01*
X145696937Y-97823891D01*
X145635262Y-97811235D01*
X145606505Y-97807539D01*
X145543055Y-97784747D01*
X145539975Y-97783208D01*
X145489690Y-97763643D01*
X145397139Y-97731413D01*
X145272665Y-97689854D01*
X145126608Y-97642303D01*
X144969309Y-97592099D01*
X144811109Y-97542577D01*
X144662350Y-97497074D01*
X144533371Y-97458928D01*
X144453870Y-97435404D01*
X144364318Y-97407429D01*
X144307342Y-97387825D01*
X144296535Y-97383763D01*
X144224761Y-97360177D01*
X144137821Y-97334896D01*
X144079994Y-97319166D01*
X143968928Y-97288930D01*
X143855284Y-97257970D01*
X143776100Y-97235189D01*
X143689518Y-97207305D01*
X143636702Y-97186584D01*
X143606349Y-97174502D01*
X143532419Y-97161401D01*
X143499558Y-97156827D01*
X143459734Y-97133148D01*
X143425471Y-97113775D01*
X143360846Y-97104894D01*
X143300235Y-97097160D01*
X143261959Y-97076641D01*
X143245631Y-97062138D01*
X143192902Y-97048387D01*
X143141155Y-97041250D01*
X143051838Y-97020163D01*
X142949379Y-96991042D01*
X142854793Y-96959903D01*
X142789094Y-96932765D01*
X142758412Y-96920369D01*
X142684472Y-96907119D01*
X142638722Y-96901939D01*
X142564011Y-96880778D01*
X142519923Y-96865022D01*
X142431563Y-96837207D01*
X142329589Y-96807796D01*
X142250364Y-96784738D01*
X142163808Y-96756421D01*
X142111007Y-96735250D01*
X142078730Y-96722290D01*
X142004673Y-96709344D01*
X141969405Y-96705902D01*
X141898338Y-96683844D01*
X141888207Y-96679012D01*
X141820952Y-96653916D01*
X141736263Y-96628682D01*
X141732822Y-96627779D01*
X141554735Y-96580199D01*
X141405376Y-96538671D01*
X141293459Y-96505680D01*
X141227698Y-96483709D01*
X141216966Y-96479683D01*
X141145176Y-96456288D01*
X141058177Y-96431374D01*
X140909864Y-96391488D01*
X140739890Y-96344525D01*
X140618806Y-96309287D01*
X140549611Y-96286628D01*
X140474619Y-96260628D01*
X140313203Y-96213641D01*
X140097554Y-96158936D01*
X140094838Y-96158279D01*
X139989537Y-96130887D01*
X139901922Y-96104719D01*
X139850718Y-96085358D01*
X139807988Y-96070021D01*
X139732307Y-96059510D01*
X139684706Y-96053754D01*
X139647425Y-96034378D01*
X139646544Y-96033117D01*
X139607625Y-96011965D01*
X139539807Y-95995533D01*
X139521544Y-95992527D01*
X139432450Y-95974254D01*
X139316378Y-95947094D01*
X139189757Y-95915266D01*
X139069017Y-95882991D01*
X138970589Y-95854489D01*
X138910902Y-95833981D01*
X138863578Y-95816843D01*
X138783761Y-95796108D01*
X138771317Y-95793694D01*
X138672337Y-95772010D01*
X138553914Y-95743046D01*
X138430948Y-95710811D01*
X138318334Y-95679317D01*
X138230970Y-95652573D01*
X138183755Y-95634589D01*
X138151451Y-95621005D01*
X138077420Y-95607453D01*
X138042150Y-95603996D01*
X137971086Y-95581844D01*
X137963531Y-95578392D01*
X137902958Y-95558329D01*
X137808119Y-95532593D01*
X137695996Y-95505876D01*
X137664807Y-95498767D01*
X137560727Y-95472617D01*
X137481801Y-95449102D01*
X137443126Y-95432597D01*
X137405935Y-95417448D01*
X137338843Y-95409677D01*
X137282778Y-95403124D01*
X137245868Y-95384545D01*
X137244986Y-95383284D01*
X137206067Y-95362132D01*
X137138249Y-95345700D01*
X137113068Y-95341541D01*
X137016738Y-95321821D01*
X136898672Y-95294002D01*
X136774259Y-95262124D01*
X136658883Y-95230226D01*
X136567932Y-95202349D01*
X136516791Y-95182532D01*
X136484487Y-95168947D01*
X136410457Y-95155395D01*
X136375185Y-95151926D01*
X136304122Y-95129702D01*
X136295973Y-95126078D01*
X136236666Y-95106521D01*
X136140639Y-95079234D01*
X136022219Y-95047926D01*
X135895731Y-95016309D01*
X135775504Y-94988092D01*
X135675863Y-94966987D01*
X135622898Y-94954203D01*
X135548722Y-94929366D01*
X135501365Y-94912468D01*
X135421580Y-94891758D01*
X135349955Y-94876665D01*
X135232581Y-94849790D01*
X135099523Y-94817886D01*
X134971851Y-94786021D01*
X134870635Y-94759263D01*
X134859190Y-94756092D01*
X134754919Y-94727955D01*
X134658733Y-94703004D01*
X134595103Y-94687016D01*
X134489002Y-94660335D01*
X134376197Y-94631952D01*
X134283060Y-94609406D01*
X134177083Y-94585714D01*
X134100462Y-94570777D01*
X134095783Y-94569988D01*
X134029074Y-94552161D01*
X133992843Y-94530693D01*
X133958506Y-94513241D01*
X133893834Y-94505562D01*
X133825717Y-94499012D01*
X133761297Y-94479926D01*
X133717324Y-94464411D01*
X133629698Y-94439835D01*
X133511871Y-94409722D01*
X133376603Y-94377227D01*
X133236654Y-94345502D01*
X133104784Y-94317699D01*
X133051763Y-94304576D01*
X132977643Y-94279533D01*
X132918139Y-94259053D01*
X132836375Y-94238178D01*
X132777666Y-94225560D01*
X132677723Y-94203129D01*
X132567965Y-94177793D01*
X132475371Y-94156754D01*
X132369083Y-94134054D01*
X132292231Y-94119267D01*
X132287503Y-94118442D01*
X132220824Y-94100247D01*
X132184612Y-94078636D01*
X132159880Y-94062896D01*
X132101443Y-94053504D01*
X132050815Y-94048963D01*
X131968905Y-94028580D01*
X131960601Y-94025612D01*
X131893268Y-94006124D01*
X131792917Y-93980977D01*
X131677976Y-93954842D01*
X131651768Y-93949111D01*
X131540401Y-93923227D01*
X131449072Y-93899696D01*
X131395440Y-93883006D01*
X131335907Y-93863143D01*
X131254172Y-93842527D01*
X131253658Y-93842421D01*
X131199413Y-93830889D01*
X131133769Y-93816095D01*
X131045856Y-93795493D01*
X130924801Y-93766535D01*
X130759734Y-93726675D01*
X130666624Y-93704851D01*
X130563752Y-93682290D01*
X130491324Y-93668161D01*
X130420495Y-93652578D01*
X130350056Y-93629699D01*
X130290816Y-93609855D01*
X130208788Y-93591179D01*
X130141048Y-93578143D01*
X130038759Y-93556286D01*
X129926252Y-93530737D01*
X129817788Y-93506546D01*
X129705350Y-93483731D01*
X129622349Y-93469311D01*
X129605180Y-93466571D01*
X129536450Y-93449033D01*
X129500603Y-93428940D01*
X129466213Y-93411393D01*
X129401510Y-93403671D01*
X129333387Y-93396967D01*
X129268972Y-93377438D01*
X129231420Y-93362964D01*
X129149669Y-93340158D01*
X129050390Y-93318144D01*
X128952436Y-93298556D01*
X128838834Y-93274076D01*
X128713879Y-93244825D01*
X128555952Y-93205895D01*
X128458716Y-93181717D01*
X128312532Y-93146227D01*
X128175671Y-93114490D01*
X128019133Y-93079687D01*
X128015187Y-93078821D01*
X127895136Y-93052002D01*
X127782535Y-93026075D01*
X127701280Y-93006541D01*
X127699969Y-93006211D01*
X127594469Y-92979650D01*
X127489378Y-92953192D01*
X127487377Y-92952690D01*
X127404657Y-92932846D01*
X127291408Y-92906798D01*
X127171525Y-92880046D01*
X127079321Y-92859686D01*
X126937422Y-92827446D01*
X126798884Y-92794436D01*
X126634706Y-92753837D01*
X126621399Y-92750516D01*
X126424979Y-92702573D01*
X126231919Y-92657285D01*
X126055051Y-92617541D01*
X125907208Y-92586230D01*
X125801224Y-92566239D01*
X125730392Y-92550759D01*
X125659956Y-92528136D01*
X125658114Y-92527364D01*
X125589366Y-92505874D01*
X125504561Y-92487605D01*
X125431958Y-92474293D01*
X125323650Y-92452731D01*
X125207898Y-92428429D01*
X125099881Y-92405774D01*
X124990319Y-92384056D01*
X124911236Y-92369745D01*
X124908126Y-92369236D01*
X124823199Y-92350985D01*
X124755841Y-92329706D01*
X124696621Y-92310186D01*
X124614573Y-92291908D01*
X124557393Y-92281171D01*
X124457454Y-92260730D01*
X124330468Y-92233800D01*
X124190768Y-92203375D01*
X124058795Y-92174260D01*
X123923201Y-92144357D01*
X123811250Y-92119679D01*
X123738710Y-92103702D01*
X123731409Y-92102092D01*
X123620996Y-92077108D01*
X123512682Y-92051759D01*
X123456919Y-92039098D01*
X123345013Y-92015653D01*
X123230145Y-91993347D01*
X123101679Y-91967113D01*
X122962774Y-91931581D01*
X122861177Y-91896490D01*
X122806319Y-91864703D01*
X122785004Y-91835179D01*
X122744122Y-91767210D01*
X122696424Y-91680200D01*
X122657259Y-91610436D01*
X122598236Y-91517962D01*
X122548115Y-91452625D01*
X122523850Y-91423233D01*
X122488402Y-91356696D01*
X122485184Y-91304833D01*
X122516742Y-91281522D01*
X122551403Y-91280817D01*
X122653448Y-91289057D01*
G37*
%TO.C,SW2*%
D16*
X175389000Y-80659000D02*
X175389000Y-81090000D01*
D17*
X175389000Y-80659000D02*
X179441000Y-80659000D01*
D16*
X175389000Y-83310000D02*
X175389000Y-83741000D01*
D17*
X175389000Y-83741000D02*
X179441000Y-83741000D01*
D16*
X179441000Y-80659000D02*
X179441000Y-81090000D01*
X179441000Y-83741000D02*
X179441000Y-83310000D01*
D18*
X178315000Y-82200000D02*
G75*
G02*
X176515000Y-82200000I-900000J0D01*
G01*
X176515000Y-82200000D02*
G75*
G02*
X178315000Y-82200000I900000J0D01*
G01*
%TO.C,R2*%
D14*
X168145276Y-75477500D02*
X168654724Y-75477500D01*
X168145276Y-76522500D02*
X168654724Y-76522500D01*
%TO.C,SW1*%
D16*
X175389000Y-75659000D02*
X175389000Y-76090000D01*
D17*
X175389000Y-75659000D02*
X179441000Y-75659000D01*
D16*
X175389000Y-78310000D02*
X175389000Y-78741000D01*
D17*
X175389000Y-78741000D02*
X179441000Y-78741000D01*
D16*
X179441000Y-75659000D02*
X179441000Y-76090000D01*
X179441000Y-78741000D02*
X179441000Y-78310000D01*
D18*
X178315000Y-77200000D02*
G75*
G02*
X176515000Y-77200000I-900000J0D01*
G01*
X176515000Y-77200000D02*
G75*
G02*
X178315000Y-77200000I900000J0D01*
G01*
%TD*%
M02*
