%TF.GenerationSoftware,KiCad,Pcbnew,10.0.3*%
%TF.CreationDate,2026-06-29T00:25:17-04:00*%
%TF.ProjectId,watch,77617463-682e-46b6-9963-61645f706362,rev?*%
%TF.SameCoordinates,Original*%
%TF.FileFunction,Paste,Top*%
%TF.FilePolarity,Positive*%
%FSLAX46Y46*%
G04 Gerber Fmt 4.6, Leading zero omitted, Abs format (unit mm)*
G04 Created by KiCad (PCBNEW 10.0.3) date 2026-06-29 00:25:17*
%MOMM*%
%LPD*%
G01*
G04 APERTURE LIST*
G04 Aperture macros list*
%AMRoundRect*
0 Rectangle with rounded corners*
0 $1 Rounding radius*
0 $2 $3 $4 $5 $6 $7 $8 $9 X,Y pos of 4 corners*
0 Add a 4 corners polygon primitive as box body*
4,1,4,$2,$3,$4,$5,$6,$7,$8,$9,$2,$3,0*
0 Add four circle primitives for the rounded corners*
1,1,$1+$1,$2,$3*
1,1,$1+$1,$4,$5*
1,1,$1+$1,$6,$7*
1,1,$1+$1,$8,$9*
0 Add four rect primitives between the rounded corners*
20,1,$1+$1,$2,$3,$4,$5,0*
20,1,$1+$1,$4,$5,$6,$7,0*
20,1,$1+$1,$6,$7,$8,$9,0*
20,1,$1+$1,$8,$9,$2,$3,0*%
%AMRotRect*
0 Rectangle, with rotation*
0 The origin of the aperture is its center*
0 $1 length*
0 $2 width*
0 $3 Rotation angle, in degrees counterclockwise*
0 Add horizontal line*
21,1,$1,$2,0,0,$3*%
%AMOutline5P*
0 Free polygon, 5 corners , with rotation*
0 The origin of the aperture is its center*
0 number of corners: always 5*
0 $1 to $10 corner X, Y*
0 $11 Rotation angle, in degrees counterclockwise*
0 create outline with 5 corners*
4,1,5,$1,$2,$3,$4,$5,$6,$7,$8,$9,$10,$1,$2,$11*%
%AMOutline6P*
0 Free polygon, 6 corners , with rotation*
0 The origin of the aperture is its center*
0 number of corners: always 6*
0 $1 to $12 corner X, Y*
0 $13 Rotation angle, in degrees counterclockwise*
0 create outline with 6 corners*
4,1,6,$1,$2,$3,$4,$5,$6,$7,$8,$9,$10,$11,$12,$1,$2,$13*%
%AMOutline7P*
0 Free polygon, 7 corners , with rotation*
0 The origin of the aperture is its center*
0 number of corners: always 7*
0 $1 to $14 corner X, Y*
0 $15 Rotation angle, in degrees counterclockwise*
0 create outline with 7 corners*
4,1,7,$1,$2,$3,$4,$5,$6,$7,$8,$9,$10,$11,$12,$13,$14,$1,$2,$15*%
%AMOutline8P*
0 Free polygon, 8 corners , with rotation*
0 The origin of the aperture is its center*
0 number of corners: always 8*
0 $1 to $16 corner X, Y*
0 $17 Rotation angle, in degrees counterclockwise*
0 create outline with 8 corners*
4,1,8,$1,$2,$3,$4,$5,$6,$7,$8,$9,$10,$11,$12,$13,$14,$15,$16,$1,$2,$17*%
G04 Aperture macros list end*
%ADD10RotRect,1.230000X1.860000X45.000000*%
%ADD11RoundRect,0.237500X0.287500X0.237500X-0.287500X0.237500X-0.287500X-0.237500X0.287500X-0.237500X0*%
%ADD12RoundRect,0.250000X2.600000X-0.600000X2.600000X0.600000X-2.600000X0.600000X-2.600000X-0.600000X0*%
%ADD13RoundRect,0.150000X-0.512500X-0.150000X0.512500X-0.150000X0.512500X0.150000X-0.512500X0.150000X0*%
%ADD14RoundRect,0.250000X0.475000X-0.337500X0.475000X0.337500X-0.475000X0.337500X-0.475000X-0.337500X0*%
%ADD15RoundRect,0.225000X-0.225000X-0.375000X0.225000X-0.375000X0.225000X0.375000X-0.225000X0.375000X0*%
%ADD16RoundRect,0.250000X0.337500X0.475000X-0.337500X0.475000X-0.337500X-0.475000X0.337500X-0.475000X0*%
%ADD17R,1.800000X1.000000*%
%ADD18RoundRect,0.237500X-0.237500X0.250000X-0.237500X-0.250000X0.237500X-0.250000X0.237500X0.250000X0*%
%ADD19RoundRect,0.250000X-0.337500X-0.475000X0.337500X-0.475000X0.337500X0.475000X-0.337500X0.475000X0*%
%ADD20RoundRect,0.150000X0.512500X0.150000X-0.512500X0.150000X-0.512500X-0.150000X0.512500X-0.150000X0*%
%ADD21R,1.300000X0.300000*%
%ADD22R,3.000000X2.000000*%
%ADD23RoundRect,0.250000X-0.475000X0.337500X-0.475000X-0.337500X0.475000X-0.337500X0.475000X0.337500X0*%
%ADD24RoundRect,0.225000X-0.375000X0.225000X-0.375000X-0.225000X0.375000X-0.225000X0.375000X0.225000X0*%
%ADD25RoundRect,0.237500X0.237500X-0.250000X0.237500X0.250000X-0.237500X0.250000X-0.237500X-0.250000X0*%
%ADD26R,0.800000X0.400000*%
%ADD27R,0.400000X0.800000*%
%ADD28Outline5P,-0.600000X0.204000X-0.204000X0.600000X0.600000X0.600000X0.600000X-0.600000X-0.600000X-0.600000X0.000000*%
%ADD29R,1.200000X1.200000*%
%ADD30R,0.800000X0.800000*%
%ADD31RoundRect,0.237500X0.250000X0.237500X-0.250000X0.237500X-0.250000X-0.237500X0.250000X-0.237500X0*%
%ADD32RotRect,1.230000X1.860000X225.000000*%
%ADD33RoundRect,0.150000X-0.150000X-0.470000X0.150000X-0.470000X0.150000X0.470000X-0.150000X0.470000X0*%
%ADD34RoundRect,0.075000X-0.075000X-0.545000X0.075000X-0.545000X0.075000X0.545000X-0.075000X0.545000X0*%
%ADD35RoundRect,0.225000X0.225000X0.375000X-0.225000X0.375000X-0.225000X-0.375000X0.225000X-0.375000X0*%
%ADD36RoundRect,0.112500X-0.350000X-0.112500X0.350000X-0.112500X0.350000X0.112500X-0.350000X0.112500X0*%
G04 APERTURE END LIST*
D10*
%TO.C,SW4*%
X175390056Y-105004972D03*
X172300000Y-108095028D03*
%TD*%
D11*
%TO.C,D2*%
X146425001Y-109050000D03*
X148174999Y-109050000D03*
%TD*%
D12*
%TO.C,L1*%
X167000000Y-99100000D03*
X167000000Y-94600000D03*
%TD*%
D13*
%TO.C,U3*%
X160412500Y-98600001D03*
X160412500Y-99550000D03*
X160412500Y-100499999D03*
X162687500Y-100499999D03*
X162687500Y-98600001D03*
%TD*%
D14*
%TO.C,C10*%
X145800000Y-88887500D03*
X145800000Y-86812500D03*
%TD*%
%TO.C,C7*%
X141800000Y-92887500D03*
X141800000Y-90812500D03*
%TD*%
%TO.C,C8*%
X139200000Y-92887500D03*
X139200000Y-90812500D03*
%TD*%
D15*
%TO.C,D6*%
X150050000Y-91050000D03*
X146750000Y-91050000D03*
%TD*%
%TO.C,D4*%
X150050000Y-95850000D03*
X146750000Y-95850000D03*
%TD*%
D16*
%TO.C,C19*%
X150162500Y-81550000D03*
X152237500Y-81550000D03*
%TD*%
%TO.C,C18*%
X150162500Y-79050000D03*
X152237500Y-79050000D03*
%TD*%
D17*
%TO.C,Y1*%
X147949999Y-81549999D03*
X147949999Y-79050001D03*
%TD*%
D18*
%TO.C,R4*%
X150300000Y-103137500D03*
X150300000Y-104962500D03*
%TD*%
D19*
%TO.C,C17*%
X155362500Y-87250000D03*
X157437500Y-87250000D03*
%TD*%
D20*
%TO.C,U2*%
X150187500Y-101499999D03*
X150187500Y-100550000D03*
X150187500Y-99600001D03*
X147912500Y-99600001D03*
X147912500Y-101499999D03*
%TD*%
D21*
%TO.C,J5*%
X126400000Y-94300000D03*
X126400000Y-96800000D03*
X126400000Y-95800000D03*
X126400000Y-95300000D03*
X126400000Y-87800000D03*
X126400000Y-88300000D03*
X126400000Y-93300000D03*
X126400000Y-94800000D03*
X126400000Y-97800000D03*
X126400000Y-93800000D03*
X126400000Y-89300000D03*
X126400000Y-88800000D03*
X126400000Y-92800000D03*
X126400000Y-92300000D03*
X126400000Y-90800000D03*
X126400000Y-87300000D03*
X126400000Y-97300000D03*
X126400000Y-96300000D03*
D22*
X124050000Y-99450000D03*
X124050000Y-84650000D03*
D21*
X126400000Y-86300000D03*
X126400000Y-86800000D03*
X126400000Y-91300000D03*
X126400000Y-91800000D03*
X126400000Y-90300000D03*
X126400000Y-89800000D03*
%TD*%
D23*
%TO.C,C5*%
X129550000Y-104837500D03*
X129550000Y-102762500D03*
%TD*%
D16*
%TO.C,C15*%
X164962500Y-101650000D03*
X167037500Y-101650000D03*
%TD*%
D24*
%TO.C,D3*%
X136300000Y-101950000D03*
X136300000Y-98650000D03*
%TD*%
D14*
%TO.C,C1*%
X145050000Y-100012500D03*
X145050000Y-102087500D03*
%TD*%
D25*
%TO.C,R8*%
X141550000Y-100137500D03*
X141550000Y-101962500D03*
%TD*%
D24*
%TO.C,D1*%
X153550000Y-101950000D03*
X153550000Y-98650000D03*
%TD*%
D19*
%TO.C,C16*%
X157437500Y-84650000D03*
X155362500Y-84650000D03*
%TD*%
%TO.C,C13*%
X138762500Y-85050000D03*
X140837500Y-85050000D03*
%TD*%
D23*
%TO.C,C3*%
X124050000Y-102762500D03*
X124050000Y-104837500D03*
%TD*%
D14*
%TO.C,C9*%
X136600000Y-92887500D03*
X136600000Y-90812500D03*
%TD*%
%TO.C,C11*%
X152400000Y-94487500D03*
X152400000Y-92412500D03*
%TD*%
D25*
%TO.C,R5*%
X129600000Y-84162500D03*
X129600000Y-82337500D03*
%TD*%
D26*
%TO.C,ESP32-S3-MINI-1*%
X161800000Y-76100000D03*
X161800000Y-76950000D03*
X161800000Y-77800000D03*
X161800000Y-78650000D03*
X161800000Y-79500000D03*
X161800000Y-80350000D03*
X161800000Y-81200000D03*
X161800000Y-82050000D03*
X161800000Y-82900000D03*
X161800000Y-83750000D03*
X161800000Y-84600000D03*
X161800000Y-85450000D03*
X161800000Y-86300000D03*
X161800000Y-87150000D03*
X161800000Y-88000000D03*
D27*
X162850000Y-89050000D03*
X163700000Y-89050000D03*
X164550000Y-89050000D03*
X165400000Y-89050000D03*
X166250000Y-89050000D03*
X167100000Y-89050000D03*
X167950000Y-89050000D03*
X168800000Y-89050000D03*
X169650000Y-89050000D03*
X170500000Y-89050000D03*
X171350000Y-89050000D03*
X172200000Y-89050000D03*
X173050000Y-89050000D03*
X173900000Y-89050000D03*
X174750000Y-89050000D03*
D26*
X175800000Y-88000000D03*
X175800000Y-87150000D03*
X175800000Y-86300000D03*
X175800000Y-85450000D03*
X175800000Y-84600000D03*
X175800000Y-83750000D03*
X175800000Y-82900000D03*
X175800000Y-82050000D03*
X175800000Y-81200000D03*
X175800000Y-80350000D03*
X175800000Y-79500000D03*
X175800000Y-78650000D03*
X175800000Y-77800000D03*
X175800000Y-76950000D03*
X175800000Y-76100000D03*
D27*
X174750000Y-75050000D03*
X173900000Y-75050000D03*
X173050000Y-75050000D03*
X172200000Y-75050000D03*
X171350000Y-75050000D03*
X170500000Y-75050000D03*
X169650000Y-75050000D03*
X168800000Y-75050000D03*
X167950000Y-75050000D03*
X167100000Y-75050000D03*
X166250000Y-75050000D03*
X165400000Y-75050000D03*
X164550000Y-75050000D03*
X163700000Y-75050000D03*
X162850000Y-75050000D03*
D28*
X167150000Y-80400000D03*
D29*
X167150000Y-82050000D03*
X167150000Y-83700000D03*
X168800000Y-80400000D03*
X168800000Y-82050000D03*
X168800000Y-83700000D03*
X170450000Y-80400000D03*
X170450000Y-82050000D03*
X170450000Y-83700000D03*
D30*
X161800000Y-75050000D03*
X161800000Y-89050000D03*
X175800000Y-89050000D03*
X175800000Y-75050000D03*
%TD*%
D31*
%TO.C,R6*%
X133712500Y-86450000D03*
X131887500Y-86450000D03*
%TD*%
D23*
%TO.C,C4*%
X126800000Y-102762500D03*
X126800000Y-104837500D03*
%TD*%
D32*
%TO.C,SW3*%
X181845028Y-98504972D03*
X178754972Y-101595028D03*
%TD*%
D19*
%TO.C,C14*%
X138762500Y-87050000D03*
X140837500Y-87050000D03*
%TD*%
D14*
%TO.C,C12*%
X171600000Y-97487500D03*
X171600000Y-95412500D03*
%TD*%
D23*
%TO.C,C6*%
X132300000Y-102762500D03*
X132300000Y-104837500D03*
%TD*%
D33*
%TO.C,USB-C*%
X136600000Y-104050000D03*
X137400000Y-104050000D03*
D34*
X138550000Y-104050000D03*
X139550000Y-104050000D03*
X140050000Y-104050000D03*
X141050000Y-104050000D03*
D33*
X142200000Y-104050000D03*
X143000000Y-104050000D03*
X143000000Y-104050000D03*
X142200000Y-104050000D03*
D34*
X141550000Y-104050000D03*
X140550000Y-104050000D03*
X139050000Y-104050000D03*
X138050000Y-104050000D03*
D33*
X137400000Y-104050000D03*
X136600000Y-104050000D03*
%TD*%
D18*
%TO.C,R3*%
X147800000Y-104962500D03*
X147800000Y-103137500D03*
%TD*%
D25*
%TO.C,R7*%
X138550000Y-101962500D03*
X138550000Y-100137500D03*
%TD*%
D23*
%TO.C,C2*%
X157000000Y-106887500D03*
X157000000Y-104812500D03*
%TD*%
D35*
%TO.C,D5*%
X146750000Y-93450000D03*
X150050000Y-93450000D03*
%TD*%
D36*
%TO.C,Q1*%
X134887500Y-83250000D03*
X133112500Y-83900000D03*
X133112500Y-82600000D03*
%TD*%
M02*
