%TF.GenerationSoftware,KiCad,Pcbnew,10.0.3*%
%TF.CreationDate,2026-06-15T23:59:44-04:00*%
%TF.ProjectId,watch,77617463-682e-46b6-9963-61645f706362,rev?*%
%TF.SameCoordinates,Original*%
%TF.FileFunction,Paste,Top*%
%TF.FilePolarity,Positive*%
%FSLAX46Y46*%
G04 Gerber Fmt 4.6, Leading zero omitted, Abs format (unit mm)*
G04 Created by KiCad (PCBNEW 10.0.3) date 2026-06-15 23:59:44*
%MOMM*%
%LPD*%
G01*
G04 APERTURE LIST*
G04 Aperture macros list*
%AMRoundRect*
0 Rectangle with rounded corners*
0 $1 Rounding radius*
0 $2 $3 $4 $5 $6 $7 $8 $9 X,Y pos of 4 corners*
0 Add a 4 corners polygon primitive as box body*
4,1,4,$2,$3,$4,$5,$6,$7,$8,$9,$2,$3,0*
0 Add four circle primitives for the rounded corners*
1,1,$1+$1,$2,$3*
1,1,$1+$1,$4,$5*
1,1,$1+$1,$6,$7*
1,1,$1+$1,$8,$9*
0 Add four rect primitives between the rounded corners*
20,1,$1+$1,$2,$3,$4,$5,0*
20,1,$1+$1,$4,$5,$6,$7,0*
20,1,$1+$1,$6,$7,$8,$9,0*
20,1,$1+$1,$8,$9,$2,$3,0*%
%AMRotRect*
0 Rectangle, with rotation*
0 The origin of the aperture is its center*
0 $1 length*
0 $2 width*
0 $3 Rotation angle, in degrees counterclockwise*
0 Add horizontal line*
21,1,$1,$2,0,0,$3*%
%AMOutline5P*
0 Free polygon, 5 corners , with rotation*
0 The origin of the aperture is its center*
0 number of corners: always 5*
0 $1 to $10 corner X, Y*
0 $11 Rotation angle, in degrees counterclockwise*
0 create outline with 5 corners*
4,1,5,$1,$2,$3,$4,$5,$6,$7,$8,$9,$10,$1,$2,$11*%
%AMOutline6P*
0 Free polygon, 6 corners , with rotation*
0 The origin of the aperture is its center*
0 number of corners: always 6*
0 $1 to $12 corner X, Y*
0 $13 Rotation angle, in degrees counterclockwise*
0 create outline with 6 corners*
4,1,6,$1,$2,$3,$4,$5,$6,$7,$8,$9,$10,$11,$12,$1,$2,$13*%
%AMOutline7P*
0 Free polygon, 7 corners , with rotation*
0 The origin of the aperture is its center*
0 number of corners: always 7*
0 $1 to $14 corner X, Y*
0 $15 Rotation angle, in degrees counterclockwise*
0 create outline with 7 corners*
4,1,7,$1,$2,$3,$4,$5,$6,$7,$8,$9,$10,$11,$12,$13,$14,$1,$2,$15*%
%AMOutline8P*
0 Free polygon, 8 corners , with rotation*
0 The origin of the aperture is its center*
0 number of corners: always 8*
0 $1 to $16 corner X, Y*
0 $17 Rotation angle, in degrees counterclockwise*
0 create outline with 8 corners*
4,1,8,$1,$2,$3,$4,$5,$6,$7,$8,$9,$10,$11,$12,$13,$14,$15,$16,$1,$2,$17*%
G04 Aperture macros list end*
%ADD10RoundRect,0.250000X-0.250000X-0.475000X0.250000X-0.475000X0.250000X0.475000X-0.250000X0.475000X0*%
%ADD11RoundRect,0.250000X-0.475000X0.250000X-0.475000X-0.250000X0.475000X-0.250000X0.475000X0.250000X0*%
%ADD12R,1.300000X0.300000*%
%ADD13R,3.000000X2.000000*%
%ADD14RoundRect,0.250000X1.000000X0.650000X-1.000000X0.650000X-1.000000X-0.650000X1.000000X-0.650000X0*%
%ADD15RoundRect,0.250000X-0.650000X1.000000X-0.650000X-1.000000X0.650000X-1.000000X0.650000X1.000000X0*%
%ADD16RoundRect,0.150000X-0.512500X-0.150000X0.512500X-0.150000X0.512500X0.150000X-0.512500X0.150000X0*%
%ADD17RotRect,1.230000X1.860000X45.000000*%
%ADD18RoundRect,0.135000X-0.185000X0.135000X-0.185000X-0.135000X0.185000X-0.135000X0.185000X0.135000X0*%
%ADD19RoundRect,0.135000X0.135000X0.185000X-0.135000X0.185000X-0.135000X-0.185000X0.135000X-0.185000X0*%
%ADD20RoundRect,0.150000X-0.150000X-0.470000X0.150000X-0.470000X0.150000X0.470000X-0.150000X0.470000X0*%
%ADD21RoundRect,0.075000X-0.075000X-0.545000X0.075000X-0.545000X0.075000X0.545000X-0.075000X0.545000X0*%
%ADD22RoundRect,0.112500X0.112500X-0.350000X0.112500X0.350000X-0.112500X0.350000X-0.112500X-0.350000X0*%
%ADD23RoundRect,0.150000X-0.150000X0.512500X-0.150000X-0.512500X0.150000X-0.512500X0.150000X0.512500X0*%
%ADD24R,0.800000X0.400000*%
%ADD25R,0.400000X0.800000*%
%ADD26Outline5P,-0.600000X0.204000X-0.204000X0.600000X0.600000X0.600000X0.600000X-0.600000X-0.600000X-0.600000X0.000000*%
%ADD27R,1.200000X1.200000*%
%ADD28R,0.800000X0.800000*%
%ADD29RoundRect,0.135000X0.185000X-0.135000X0.185000X0.135000X-0.185000X0.135000X-0.185000X-0.135000X0*%
%ADD30RoundRect,0.250000X0.475000X-0.250000X0.475000X0.250000X-0.475000X0.250000X-0.475000X-0.250000X0*%
%ADD31RotRect,1.230000X1.860000X225.000000*%
%ADD32RoundRect,0.218750X-0.256250X0.218750X-0.256250X-0.218750X0.256250X-0.218750X0.256250X0.218750X0*%
%ADD33RoundRect,0.250000X0.250000X0.475000X-0.250000X0.475000X-0.250000X-0.475000X0.250000X-0.475000X0*%
%ADD34RoundRect,0.250000X0.600000X2.600000X-0.600000X2.600000X-0.600000X-2.600000X0.600000X-2.600000X0*%
G04 APERTURE END LIST*
D10*
%TO.C,C8*%
X134050001Y-97900000D03*
X135949999Y-97900000D03*
%TD*%
%TO.C,C9*%
X129500000Y-97900000D03*
X127600000Y-97900000D03*
%TD*%
%TO.C,C7*%
X135949999Y-100100000D03*
X134050001Y-100100000D03*
%TD*%
D11*
%TO.C,C16*%
X171200000Y-95250001D03*
X171200000Y-97149999D03*
%TD*%
D12*
%TO.C,J5*%
X118500000Y-93350000D03*
X118500000Y-93850000D03*
X118500000Y-95350000D03*
X118500000Y-94850000D03*
X118500000Y-90350000D03*
X118500000Y-89850000D03*
D13*
X116150000Y-88200000D03*
X116150000Y-103000000D03*
D12*
X118500000Y-99850000D03*
X118500000Y-100850000D03*
X118500000Y-90850000D03*
X118500000Y-94350000D03*
X118500000Y-95850000D03*
X118500000Y-96350000D03*
X118500000Y-92350000D03*
X118500000Y-92850000D03*
X118500000Y-97350000D03*
X118500000Y-101350000D03*
X118500000Y-98350000D03*
X118500000Y-96850000D03*
X118500000Y-91850000D03*
X118500000Y-91350000D03*
X118500000Y-98850000D03*
X118500000Y-99350000D03*
X118500000Y-100350000D03*
X118500000Y-97850000D03*
%TD*%
D14*
%TO.C,D5*%
X148250000Y-86250000D03*
X144249998Y-86250000D03*
%TD*%
D15*
%TO.C,D1*%
X154000000Y-99999999D03*
X154000000Y-104000001D03*
%TD*%
D16*
%TO.C,U3*%
X168862500Y-99037499D03*
X168862500Y-99987499D03*
X168862500Y-100937499D03*
X171137500Y-100937499D03*
X171137500Y-99037499D03*
%TD*%
D17*
%TO.C,SW4*%
X173454972Y-112745028D03*
X176545028Y-109654972D03*
%TD*%
D18*
%TO.C,R4*%
X165000000Y-103490000D03*
X165000000Y-104510000D03*
%TD*%
D10*
%TO.C,C13*%
X130550002Y-85000000D03*
X132450000Y-85000000D03*
%TD*%
D11*
%TO.C,C3*%
X121750000Y-103550001D03*
X121750000Y-105449999D03*
%TD*%
D19*
%TO.C,R3*%
X159000000Y-103600000D03*
X157980002Y-103600000D03*
%TD*%
D11*
%TO.C,C11*%
X153500000Y-85250001D03*
X153500000Y-87149999D03*
%TD*%
D20*
%TO.C,USB-C*%
X161050000Y-109275000D03*
X161850000Y-109275000D03*
D21*
X163000000Y-109275000D03*
X164000000Y-109275000D03*
X164500000Y-109275000D03*
X165500000Y-109275000D03*
D20*
X166650000Y-109275000D03*
X167450000Y-109275000D03*
X167450000Y-109275000D03*
X166650000Y-109275000D03*
D21*
X166000000Y-109275000D03*
X165000000Y-109275000D03*
X163500000Y-109275000D03*
X162500000Y-109275000D03*
D20*
X161850000Y-109275000D03*
X161050000Y-109275000D03*
%TD*%
D22*
%TO.C,Q1*%
X121350000Y-85387500D03*
X122650000Y-85387500D03*
X122000000Y-83612500D03*
%TD*%
D18*
%TO.C,R5*%
X120585786Y-86990001D03*
X120585786Y-88009999D03*
%TD*%
D15*
%TO.C,D3*%
X162000000Y-99999999D03*
X162000000Y-104000001D03*
%TD*%
D23*
%TO.C,U2*%
X158949999Y-99862500D03*
X158000000Y-99862500D03*
X157050001Y-99862500D03*
X157050001Y-102137500D03*
X158949999Y-102137500D03*
%TD*%
D24*
%TO.C,ESP32 S3 MINI 1*%
X161750000Y-77050000D03*
X161750000Y-77900000D03*
X161750000Y-78750000D03*
X161750000Y-79600000D03*
X161750000Y-80450000D03*
X161750000Y-81300000D03*
X161750000Y-82150000D03*
X161750000Y-83000000D03*
X161750000Y-83850000D03*
X161750000Y-84700000D03*
X161750000Y-85550000D03*
X161750000Y-86400000D03*
X161750000Y-87250000D03*
X161750000Y-88100000D03*
X161750000Y-88950000D03*
D25*
X162800000Y-90000000D03*
X163650000Y-90000000D03*
X164500000Y-90000000D03*
X165350000Y-90000000D03*
X166200000Y-90000000D03*
X167050000Y-90000000D03*
X167900000Y-90000000D03*
X168750000Y-90000000D03*
X169600000Y-90000000D03*
X170450000Y-90000000D03*
X171300000Y-90000000D03*
X172150000Y-90000000D03*
X173000000Y-90000000D03*
X173850000Y-90000000D03*
X174700000Y-90000000D03*
D24*
X175750000Y-88950000D03*
X175750000Y-88100000D03*
X175750000Y-87250000D03*
X175750000Y-86400000D03*
X175750000Y-85550000D03*
X175750000Y-84700000D03*
X175750000Y-83850000D03*
X175750000Y-83000000D03*
X175750000Y-82150000D03*
X175750000Y-81300000D03*
X175750000Y-80450000D03*
X175750000Y-79600000D03*
X175750000Y-78750000D03*
X175750000Y-77900000D03*
X175750000Y-77050000D03*
D25*
X174700000Y-76000000D03*
X173850000Y-76000000D03*
X173000000Y-76000000D03*
X172150000Y-76000000D03*
X171300000Y-76000000D03*
X170450000Y-76000000D03*
X169600000Y-76000000D03*
X168750000Y-76000000D03*
X167900000Y-76000000D03*
X167050000Y-76000000D03*
X166200000Y-76000000D03*
X165350000Y-76000000D03*
X164500000Y-76000000D03*
X163650000Y-76000000D03*
X162800000Y-76000000D03*
D26*
X167100000Y-81350000D03*
D27*
X167100000Y-83000000D03*
X167100000Y-84650000D03*
X168750000Y-81350000D03*
X168750000Y-83000000D03*
X168750000Y-84650000D03*
X170400000Y-81350000D03*
X170400000Y-83000000D03*
X170400000Y-84650000D03*
D28*
X161750000Y-76000000D03*
X161750000Y-90000000D03*
X175750000Y-90000000D03*
X175750000Y-76000000D03*
%TD*%
D29*
%TO.C,R6*%
X123000000Y-88009999D03*
X123000000Y-86990001D03*
%TD*%
D14*
%TO.C,D6*%
X138200001Y-105400000D03*
X134199999Y-105400000D03*
%TD*%
D30*
%TO.C,C15*%
X166000000Y-99949999D03*
X166000000Y-98050001D03*
%TD*%
D11*
%TO.C,C4*%
X124500000Y-103550001D03*
X124500000Y-105449999D03*
%TD*%
D31*
%TO.C,SW3*%
X183000000Y-103154972D03*
X179909944Y-106245028D03*
%TD*%
D10*
%TO.C,C14*%
X130550000Y-88250000D03*
X132450000Y-88250000D03*
%TD*%
%TO.C,C2*%
X156950000Y-96000000D03*
X158850000Y-96000000D03*
%TD*%
D32*
%TO.C,D2*%
X166500000Y-103212499D03*
X166500000Y-104787501D03*
%TD*%
D11*
%TO.C,C5*%
X127250000Y-103550001D03*
X127250000Y-105449999D03*
%TD*%
D33*
%TO.C,C1*%
X157949999Y-107000000D03*
X156050001Y-107000000D03*
%TD*%
D29*
%TO.C,R8*%
X166000000Y-107500000D03*
X166000000Y-106480000D03*
%TD*%
D11*
%TO.C,C12*%
X157500000Y-85250001D03*
X157500000Y-87149999D03*
%TD*%
D14*
%TO.C,D4*%
X139250001Y-86250000D03*
X135249999Y-86250000D03*
%TD*%
D34*
%TO.C,L1*%
X157750000Y-80000000D03*
X153250000Y-80000000D03*
%TD*%
D11*
%TO.C,C6*%
X130000000Y-103550001D03*
X130000000Y-105449999D03*
%TD*%
D29*
%TO.C,R7*%
X163000000Y-107510000D03*
X163000000Y-106490000D03*
%TD*%
D10*
%TO.C,C10*%
X129499999Y-95700000D03*
X127600001Y-95700000D03*
%TD*%
M02*
