%TF.GenerationSoftware,KiCad,Pcbnew,10.0.3*%
%TF.CreationDate,2026-06-06T23:17:52-04:00*%
%TF.ProjectId,watch,77617463-682e-46b6-9963-61645f706362,rev?*%
%TF.SameCoordinates,Original*%
%TF.FileFunction,Copper,L1,Top*%
%TF.FilePolarity,Positive*%
%FSLAX46Y46*%
G04 Gerber Fmt 4.6, Leading zero omitted, Abs format (unit mm)*
G04 Created by KiCad (PCBNEW 10.0.3) date 2026-06-06 23:17:52*
%MOMM*%
%LPD*%
G01*
G04 APERTURE LIST*
G04 Aperture macros list*
%AMRoundRect*
0 Rectangle with rounded corners*
0 $1 Rounding radius*
0 $2 $3 $4 $5 $6 $7 $8 $9 X,Y pos of 4 corners*
0 Add a 4 corners polygon primitive as box body*
4,1,4,$2,$3,$4,$5,$6,$7,$8,$9,$2,$3,0*
0 Add four circle primitives for the rounded corners*
1,1,$1+$1,$2,$3*
1,1,$1+$1,$4,$5*
1,1,$1+$1,$6,$7*
1,1,$1+$1,$8,$9*
0 Add four rect primitives between the rounded corners*
20,1,$1+$1,$2,$3,$4,$5,0*
20,1,$1+$1,$4,$5,$6,$7,0*
20,1,$1+$1,$6,$7,$8,$9,0*
20,1,$1+$1,$8,$9,$2,$3,0*%
%AMRotRect*
0 Rectangle, with rotation*
0 The origin of the aperture is its center*
0 $1 length*
0 $2 width*
0 $3 Rotation angle, in degrees counterclockwise*
0 Add horizontal line*
21,1,$1,$2,0,0,$3*%
%AMOutline5P*
0 Free polygon, 5 corners , with rotation*
0 The origin of the aperture is its center*
0 number of corners: always 5*
0 $1 to $10 corner X, Y*
0 $11 Rotation angle, in degrees counterclockwise*
0 create outline with 5 corners*
4,1,5,$1,$2,$3,$4,$5,$6,$7,$8,$9,$10,$1,$2,$11*%
%AMOutline6P*
0 Free polygon, 6 corners , with rotation*
0 The origin of the aperture is its center*
0 number of corners: always 6*
0 $1 to $12 corner X, Y*
0 $13 Rotation angle, in degrees counterclockwise*
0 create outline with 6 corners*
4,1,6,$1,$2,$3,$4,$5,$6,$7,$8,$9,$10,$11,$12,$1,$2,$13*%
%AMOutline7P*
0 Free polygon, 7 corners , with rotation*
0 The origin of the aperture is its center*
0 number of corners: always 7*
0 $1 to $14 corner X, Y*
0 $15 Rotation angle, in degrees counterclockwise*
0 create outline with 7 corners*
4,1,7,$1,$2,$3,$4,$5,$6,$7,$8,$9,$10,$11,$12,$13,$14,$1,$2,$15*%
%AMOutline8P*
0 Free polygon, 8 corners , with rotation*
0 The origin of the aperture is its center*
0 number of corners: always 8*
0 $1 to $16 corner X, Y*
0 $17 Rotation angle, in degrees counterclockwise*
0 create outline with 8 corners*
4,1,8,$1,$2,$3,$4,$5,$6,$7,$8,$9,$10,$11,$12,$13,$14,$15,$16,$1,$2,$17*%
G04 Aperture macros list end*
%TA.AperFunction,EtchedComponent*%
%ADD10C,0.000000*%
%TD*%
%TA.AperFunction,SMDPad,CuDef*%
%ADD11RoundRect,0.135000X0.185000X-0.135000X0.185000X0.135000X-0.185000X0.135000X-0.185000X-0.135000X0*%
%TD*%
%TA.AperFunction,SMDPad,CuDef*%
%ADD12RoundRect,0.135000X0.135000X0.185000X-0.135000X0.185000X-0.135000X-0.185000X0.135000X-0.185000X0*%
%TD*%
%TA.AperFunction,SMDPad,CuDef*%
%ADD13RoundRect,0.135000X-0.135000X-0.185000X0.135000X-0.185000X0.135000X0.185000X-0.135000X0.185000X0*%
%TD*%
%TA.AperFunction,SMDPad,CuDef*%
%ADD14RoundRect,0.135000X-0.185000X0.135000X-0.185000X-0.135000X0.185000X-0.135000X0.185000X0.135000X0*%
%TD*%
%TA.AperFunction,SMDPad,CuDef*%
%ADD15RoundRect,0.250000X-1.000000X-0.650000X1.000000X-0.650000X1.000000X0.650000X-1.000000X0.650000X0*%
%TD*%
%TA.AperFunction,SMDPad,CuDef*%
%ADD16RoundRect,0.150000X-0.512500X-0.150000X0.512500X-0.150000X0.512500X0.150000X-0.512500X0.150000X0*%
%TD*%
%TA.AperFunction,SMDPad,CuDef*%
%ADD17RoundRect,0.250000X-0.475000X0.250000X-0.475000X-0.250000X0.475000X-0.250000X0.475000X0.250000X0*%
%TD*%
%TA.AperFunction,SMDPad,CuDef*%
%ADD18R,1.300000X0.300000*%
%TD*%
%TA.AperFunction,SMDPad,CuDef*%
%ADD19R,3.000000X2.000000*%
%TD*%
%TA.AperFunction,SMDPad,CuDef*%
%ADD20RoundRect,0.250000X-0.250000X-0.475000X0.250000X-0.475000X0.250000X0.475000X-0.250000X0.475000X0*%
%TD*%
%TA.AperFunction,SMDPad,CuDef*%
%ADD21RoundRect,0.250000X1.000000X0.650000X-1.000000X0.650000X-1.000000X-0.650000X1.000000X-0.650000X0*%
%TD*%
%TA.AperFunction,SMDPad,CuDef*%
%ADD22RoundRect,0.250000X-0.650000X1.000000X-0.650000X-1.000000X0.650000X-1.000000X0.650000X1.000000X0*%
%TD*%
%TA.AperFunction,SMDPad,CuDef*%
%ADD23RotRect,1.230000X1.860000X45.000000*%
%TD*%
%TA.AperFunction,SMDPad,CuDef*%
%ADD24RoundRect,0.150000X-0.150000X-0.470000X0.150000X-0.470000X0.150000X0.470000X-0.150000X0.470000X0*%
%TD*%
%TA.AperFunction,SMDPad,CuDef*%
%ADD25RoundRect,0.075000X-0.075000X-0.545000X0.075000X-0.545000X0.075000X0.545000X-0.075000X0.545000X0*%
%TD*%
%TA.AperFunction,ComponentPad*%
%ADD26O,1.000000X2.100000*%
%TD*%
%TA.AperFunction,ComponentPad*%
%ADD27O,1.000000X1.800000*%
%TD*%
%TA.AperFunction,SMDPad,CuDef*%
%ADD28RoundRect,0.112500X-0.350000X-0.112500X0.350000X-0.112500X0.350000X0.112500X-0.350000X0.112500X0*%
%TD*%
%TA.AperFunction,SMDPad,CuDef*%
%ADD29RoundRect,0.150000X-0.150000X0.512500X-0.150000X-0.512500X0.150000X-0.512500X0.150000X0.512500X0*%
%TD*%
%TA.AperFunction,SMDPad,CuDef*%
%ADD30R,0.800000X0.400000*%
%TD*%
%TA.AperFunction,SMDPad,CuDef*%
%ADD31R,0.400000X0.800000*%
%TD*%
%TA.AperFunction,HeatsinkPad*%
%ADD32Outline5P,-0.600000X0.204000X-0.204000X0.600000X0.600000X0.600000X0.600000X-0.600000X-0.600000X-0.600000X0.000000*%
%TD*%
%TA.AperFunction,HeatsinkPad*%
%ADD33R,1.200000X1.200000*%
%TD*%
%TA.AperFunction,SMDPad,CuDef*%
%ADD34R,0.800000X0.800000*%
%TD*%
%TA.AperFunction,ComponentPad*%
%ADD35C,1.700000*%
%TD*%
%TA.AperFunction,ComponentPad*%
%ADD36R,1.700000X1.700000*%
%TD*%
%TA.AperFunction,SMDPad,CuDef*%
%ADD37RoundRect,0.250000X0.650000X-1.000000X0.650000X1.000000X-0.650000X1.000000X-0.650000X-1.000000X0*%
%TD*%
%TA.AperFunction,SMDPad,CuDef*%
%ADD38RoundRect,0.250000X0.475000X-0.250000X0.475000X0.250000X-0.475000X0.250000X-0.475000X-0.250000X0*%
%TD*%
%TA.AperFunction,SMDPad,CuDef*%
%ADD39RotRect,1.230000X1.860000X225.000000*%
%TD*%
%TA.AperFunction,ComponentPad*%
%ADD40RoundRect,0.250000X-0.350000X-0.625000X0.350000X-0.625000X0.350000X0.625000X-0.350000X0.625000X0*%
%TD*%
%TA.AperFunction,ComponentPad*%
%ADD41O,1.200000X1.750000*%
%TD*%
%TA.AperFunction,SMDPad,CuDef*%
%ADD42RoundRect,0.218750X-0.256250X0.218750X-0.256250X-0.218750X0.256250X-0.218750X0.256250X0.218750X0*%
%TD*%
%TA.AperFunction,SMDPad,CuDef*%
%ADD43RoundRect,0.250000X0.250000X0.475000X-0.250000X0.475000X-0.250000X-0.475000X0.250000X-0.475000X0*%
%TD*%
%TA.AperFunction,SMDPad,CuDef*%
%ADD44RoundRect,0.250000X0.600000X2.600000X-0.600000X2.600000X-0.600000X-2.600000X0.600000X-2.600000X0*%
%TD*%
%TA.AperFunction,ViaPad*%
%ADD45C,0.600000*%
%TD*%
%TA.AperFunction,Conductor*%
%ADD46C,0.200000*%
%TD*%
G04 APERTURE END LIST*
D10*
%TA.AperFunction,EtchedComponent*%
%TO.C,G\u002A\u002A\u002A*%
G36*
X116223129Y-106635051D02*
G01*
X116296577Y-106652167D01*
X116308108Y-106664052D01*
X116278718Y-106711209D01*
X116203690Y-106791808D01*
X116147212Y-106844980D01*
X116072529Y-106913639D01*
X115945860Y-107031651D01*
X115777508Y-107189346D01*
X115577779Y-107377059D01*
X115356977Y-107585121D01*
X115156628Y-107774340D01*
X114326939Y-108558784D01*
X114105446Y-108558222D01*
X113883952Y-108557661D01*
X114291554Y-108159842D01*
X114462833Y-107993820D01*
X114676200Y-107788744D01*
X114911132Y-107564245D01*
X115147104Y-107339948D01*
X115299831Y-107195537D01*
X115507825Y-106999894D01*
X115664491Y-106855433D01*
X115780853Y-106754386D01*
X115867937Y-106688980D01*
X115936769Y-106651445D01*
X115998372Y-106634012D01*
X116063774Y-106628909D01*
X116104307Y-106628545D01*
X116223129Y-106635051D01*
G37*
%TD.AperFunction*%
%TA.AperFunction,EtchedComponent*%
G36*
X123226098Y-106628948D02*
G01*
X123451858Y-106629855D01*
X122787470Y-107261802D01*
X122562785Y-107475734D01*
X122333763Y-107694179D01*
X122116835Y-107901437D01*
X121928434Y-108081808D01*
X121784991Y-108219591D01*
X121779193Y-108225178D01*
X121628510Y-108369204D01*
X121521553Y-108463988D01*
X121440283Y-108519861D01*
X121366663Y-108547150D01*
X121282652Y-108556184D01*
X121199324Y-108557199D01*
X120963344Y-108557792D01*
X121478209Y-108066906D01*
X121993074Y-107576020D01*
X121778547Y-107572133D01*
X121696260Y-107568972D01*
X121627532Y-107557097D01*
X121559385Y-107527843D01*
X121478844Y-107472542D01*
X121372933Y-107382530D01*
X121228674Y-107249140D01*
X121070608Y-107099358D01*
X120577196Y-106630471D01*
X120813175Y-106630552D01*
X121049155Y-106630632D01*
X121521115Y-107078211D01*
X121686588Y-107233777D01*
X121830033Y-107366064D01*
X121940074Y-107464782D01*
X122005339Y-107519644D01*
X122017711Y-107527422D01*
X122055858Y-107500113D01*
X122144815Y-107423733D01*
X122273250Y-107308384D01*
X122429827Y-107164168D01*
X122521344Y-107078547D01*
X123000339Y-106628040D01*
X123226098Y-106628948D01*
G37*
%TD.AperFunction*%
%TA.AperFunction,EtchedComponent*%
G36*
X117843600Y-105976373D02*
G01*
X117681378Y-106130168D01*
X117475370Y-106325314D01*
X117244155Y-106544222D01*
X117006310Y-106769299D01*
X116801520Y-106963003D01*
X116157939Y-107571570D01*
X115921959Y-107570402D01*
X115685979Y-107569233D01*
X115987657Y-107280984D01*
X116108952Y-107165358D01*
X116278605Y-107004010D01*
X116482649Y-106810205D01*
X116707117Y-106597205D01*
X116938042Y-106378273D01*
X117025384Y-106295523D01*
X117761434Y-105598311D01*
X118001766Y-105598311D01*
X118242099Y-105598311D01*
X117843600Y-105976373D01*
G37*
%TD.AperFunction*%
%TA.AperFunction,EtchedComponent*%
G36*
X117688664Y-106628271D02*
G01*
X117917060Y-106628502D01*
X117423648Y-107098076D01*
X116930236Y-107567651D01*
X116695081Y-107569805D01*
X116459927Y-107571959D01*
X116587818Y-107450429D01*
X116841507Y-107209265D01*
X117041154Y-107020430D01*
X117195302Y-106877545D01*
X117312492Y-106774231D01*
X117401266Y-106704108D01*
X117470167Y-106660796D01*
X117527736Y-106637915D01*
X117582515Y-106629087D01*
X117643048Y-106627931D01*
X117688664Y-106628271D01*
G37*
%TD.AperFunction*%
%TA.AperFunction,EtchedComponent*%
G36*
X118937354Y-107098861D02*
G01*
X119418750Y-107569682D01*
X119198479Y-107570821D01*
X118978209Y-107571959D01*
X118490540Y-107101955D01*
X118002871Y-106631952D01*
X118229415Y-106629996D01*
X118455958Y-106628040D01*
X118937354Y-107098861D01*
G37*
%TD.AperFunction*%
%TA.AperFunction,EtchedComponent*%
G36*
X119079138Y-106632913D02*
G01*
X119146164Y-106645371D01*
X119214314Y-106676126D01*
X119296404Y-106733838D01*
X119405247Y-106827166D01*
X119553660Y-106964772D01*
X119697635Y-107101283D01*
X120191047Y-107570428D01*
X119955067Y-107570264D01*
X119719087Y-107570099D01*
X119257854Y-107116988D01*
X119097363Y-106958198D01*
X118961159Y-106821290D01*
X118859865Y-106717116D01*
X118804105Y-106656525D01*
X118796621Y-106645959D01*
X118835118Y-106635897D01*
X118933049Y-106630424D01*
X119000422Y-106630089D01*
X119079138Y-106632913D01*
G37*
%TD.AperFunction*%
%TA.AperFunction,EtchedComponent*%
G36*
X120728557Y-107097826D02*
G01*
X121220777Y-107567611D01*
X120994990Y-107569785D01*
X120769203Y-107571959D01*
X120287051Y-107101395D01*
X119804898Y-106630830D01*
X120020618Y-106629435D01*
X120236337Y-106628040D01*
X120728557Y-107097826D01*
G37*
%TD.AperFunction*%
%TA.AperFunction,EtchedComponent*%
G36*
X124074845Y-106631679D02*
G01*
X124148289Y-106638024D01*
X124159797Y-106642781D01*
X124130959Y-106676454D01*
X124051478Y-106759500D01*
X123931905Y-106881136D01*
X123782790Y-107030578D01*
X123698564Y-107114225D01*
X123237331Y-107570928D01*
X123001351Y-107570678D01*
X122765371Y-107570428D01*
X123258783Y-107101283D01*
X123445022Y-106925043D01*
X123582140Y-106799537D01*
X123682953Y-106716102D01*
X123760276Y-106666078D01*
X123826923Y-106640806D01*
X123895710Y-106631623D01*
X123955996Y-106630089D01*
X124074845Y-106631679D01*
G37*
%TD.AperFunction*%
%TA.AperFunction,EtchedComponent*%
G36*
X125286064Y-107083012D02*
G01*
X125446555Y-107241802D01*
X125582759Y-107378709D01*
X125684054Y-107482883D01*
X125739813Y-107543475D01*
X125747297Y-107554041D01*
X125708722Y-107564352D01*
X125610290Y-107570830D01*
X125536982Y-107571959D01*
X125456291Y-107570383D01*
X125389153Y-107559870D01*
X125322702Y-107531743D01*
X125244074Y-107477324D01*
X125140403Y-107387935D01*
X124998824Y-107254899D01*
X124839769Y-107101698D01*
X124352871Y-106631437D01*
X124588851Y-106630669D01*
X124824831Y-106629900D01*
X125286064Y-107083012D01*
G37*
%TD.AperFunction*%
%TA.AperFunction,EtchedComponent*%
G36*
X125449892Y-106629585D02*
G01*
X125520049Y-106640154D01*
X125588407Y-106668646D01*
X125668766Y-106723962D01*
X125774925Y-106815001D01*
X125920687Y-106950664D01*
X126039894Y-107063841D01*
X126204794Y-107220494D01*
X126349092Y-107357257D01*
X126460633Y-107462634D01*
X126527265Y-107525132D01*
X126538902Y-107535800D01*
X126523846Y-107555361D01*
X126441291Y-107567895D01*
X126345827Y-107570702D01*
X126193898Y-107561967D01*
X126087016Y-107528366D01*
X125985095Y-107455769D01*
X125961824Y-107435368D01*
X125829786Y-107315360D01*
X125681350Y-107177097D01*
X125529484Y-107033093D01*
X125387154Y-106895866D01*
X125267329Y-106777930D01*
X125182975Y-106691802D01*
X125147060Y-106649996D01*
X125146621Y-106648564D01*
X125185267Y-106636922D01*
X125284200Y-106629484D01*
X125364134Y-106628040D01*
X125449892Y-106629585D01*
G37*
%TD.AperFunction*%
%TA.AperFunction,EtchedComponent*%
G36*
X126669763Y-106629900D02*
G01*
X127130996Y-107083012D01*
X127291487Y-107241802D01*
X127427692Y-107378709D01*
X127528986Y-107482883D01*
X127584745Y-107543475D01*
X127592229Y-107554041D01*
X127553728Y-107564274D01*
X127455787Y-107570180D01*
X127388429Y-107570812D01*
X127261518Y-107562120D01*
X127162500Y-107527638D01*
X127057247Y-107452186D01*
X126991554Y-107394295D01*
X126843589Y-107258099D01*
X126687362Y-107111316D01*
X126535472Y-106966163D01*
X126400520Y-106834856D01*
X126295105Y-106729612D01*
X126231825Y-106662648D01*
X126219256Y-106645466D01*
X126257975Y-106635887D01*
X126357424Y-106629973D01*
X126444510Y-106628970D01*
X126669763Y-106629900D01*
G37*
%TD.AperFunction*%
%TA.AperFunction,EtchedComponent*%
G36*
X127610776Y-106582460D02*
G01*
X128600276Y-107571959D01*
X128360110Y-107571959D01*
X128119945Y-107571959D01*
X127174882Y-106595861D01*
X126229819Y-105619763D01*
X126425548Y-105606362D01*
X126621277Y-105592961D01*
X127610776Y-106582460D01*
G37*
%TD.AperFunction*%
%TA.AperFunction,EtchedComponent*%
G36*
X128561566Y-106660768D02*
G01*
X128660205Y-106727045D01*
X128699457Y-106760104D01*
X128799258Y-106849198D01*
X128927062Y-106967513D01*
X129069253Y-107101903D01*
X129212216Y-107239219D01*
X129342334Y-107366314D01*
X129445992Y-107470040D01*
X129509573Y-107537250D01*
X129522973Y-107555301D01*
X129484427Y-107564945D01*
X129386206Y-107570959D01*
X129315579Y-107571959D01*
X129235765Y-107570014D01*
X129167833Y-107558584D01*
X129098788Y-107529277D01*
X129015635Y-107473702D01*
X128905378Y-107383466D01*
X128755022Y-107250179D01*
X128601325Y-107110726D01*
X128094466Y-106649493D01*
X128317720Y-106636441D01*
X128461243Y-106635050D01*
X128561566Y-106660768D01*
G37*
%TD.AperFunction*%
%TA.AperFunction,EtchedComponent*%
G36*
X144109414Y-112359882D02*
G01*
X144089783Y-112380286D01*
X144058106Y-112412464D01*
X144015560Y-112455240D01*
X143963322Y-112507440D01*
X143902567Y-112567890D01*
X143834471Y-112635417D01*
X143760212Y-112708845D01*
X143680964Y-112787001D01*
X143645044Y-112822363D01*
X143170873Y-113288910D01*
X143170873Y-114202796D01*
X143170873Y-115116681D01*
X142991893Y-115295207D01*
X142812913Y-115473733D01*
X141345783Y-115476732D01*
X139878654Y-115479732D01*
X139224578Y-115769499D01*
X139116417Y-115817378D01*
X139013669Y-115862788D01*
X138917816Y-115905078D01*
X138830342Y-115943596D01*
X138752730Y-115977693D01*
X138686463Y-116006716D01*
X138633024Y-116030016D01*
X138593897Y-116046941D01*
X138570564Y-116056840D01*
X138564286Y-116059266D01*
X138567116Y-116053095D01*
X138581201Y-116037335D01*
X138593192Y-116025378D01*
X138644614Y-115975717D01*
X138703762Y-115918512D01*
X138769111Y-115855244D01*
X138839138Y-115787393D01*
X138912317Y-115716442D01*
X138987124Y-115643870D01*
X139062034Y-115571159D01*
X139135522Y-115499789D01*
X139206064Y-115431243D01*
X139272134Y-115367000D01*
X139332208Y-115308541D01*
X139384762Y-115257349D01*
X139428270Y-115214903D01*
X139461208Y-115182685D01*
X139482052Y-115162176D01*
X139487923Y-115156306D01*
X139530777Y-115112604D01*
X139530777Y-114205204D01*
X140254505Y-114205204D01*
X140265415Y-114209744D01*
X140293403Y-114219775D01*
X140336360Y-114234584D01*
X140392174Y-114253458D01*
X140458735Y-114275686D01*
X140533932Y-114300554D01*
X140615655Y-114327350D01*
X140636113Y-114334024D01*
X141010405Y-114456008D01*
X141175573Y-114742264D01*
X141215415Y-114810874D01*
X141252188Y-114873353D01*
X141284666Y-114927688D01*
X141311625Y-114971863D01*
X141331842Y-115003863D01*
X141344091Y-115021673D01*
X141347204Y-115024684D01*
X141353639Y-115015332D01*
X141368882Y-114990594D01*
X141391689Y-114952565D01*
X141420817Y-114903342D01*
X141455022Y-114845023D01*
X141493061Y-114779704D01*
X141516944Y-114738479D01*
X141680222Y-114456109D01*
X142054984Y-114333967D01*
X142138024Y-114306792D01*
X142215053Y-114281375D01*
X142283961Y-114258425D01*
X142342638Y-114238656D01*
X142388975Y-114222779D01*
X142420861Y-114211507D01*
X142436186Y-114205551D01*
X142437175Y-114204983D01*
X142431089Y-114199503D01*
X142409103Y-114189489D01*
X142374599Y-114176317D01*
X142330958Y-114161363D01*
X142326258Y-114159834D01*
X142283653Y-114145997D01*
X142226026Y-114127215D01*
X142157513Y-114104840D01*
X142082250Y-114080222D01*
X142004373Y-114054714D01*
X141943586Y-114034777D01*
X141679260Y-113948028D01*
X141515043Y-113662744D01*
X141475359Y-113594060D01*
X141438824Y-113531315D01*
X141406656Y-113476562D01*
X141380072Y-113431855D01*
X141360290Y-113399249D01*
X141348530Y-113380796D01*
X141345783Y-113377362D01*
X141339714Y-113385741D01*
X141324822Y-113409563D01*
X141302327Y-113446781D01*
X141273450Y-113495349D01*
X141239408Y-113553220D01*
X141201423Y-113618349D01*
X141175418Y-113663221D01*
X141010093Y-113949177D01*
X140628640Y-114073772D01*
X140545526Y-114101143D01*
X140469014Y-114126771D01*
X140401091Y-114149958D01*
X140343746Y-114170005D01*
X140298964Y-114186215D01*
X140268733Y-114197890D01*
X140255040Y-114204331D01*
X140254505Y-114205204D01*
X139530777Y-114205204D01*
X139530777Y-114202095D01*
X139530777Y-113291587D01*
X139709652Y-113112504D01*
X139888527Y-112933422D01*
X141343182Y-112933422D01*
X142797837Y-112933422D01*
X143455134Y-112641227D01*
X143563433Y-112593151D01*
X143666260Y-112547634D01*
X143762146Y-112505317D01*
X143849623Y-112466844D01*
X143927221Y-112432857D01*
X143993470Y-112403997D01*
X144046902Y-112380907D01*
X144086047Y-112364229D01*
X144109436Y-112354606D01*
X144115824Y-112352424D01*
X144109414Y-112359882D01*
G37*
%TD.AperFunction*%
%TD*%
D11*
%TO.P,R8,1*%
%TO.N,Net-(J4-CC2)*%
X166000000Y-107500000D03*
%TO.P,R8,2*%
%TO.N,GND*%
X166000000Y-106480000D03*
%TD*%
D12*
%TO.P,R3,2*%
%TO.N,GND*%
X157980002Y-103600000D03*
%TO.P,R3,1*%
%TO.N,Net-(U2-PROG)*%
X159000000Y-103600000D03*
%TD*%
D11*
%TO.P,R7,1*%
%TO.N,Net-(J4-CC1)*%
X163000000Y-107510000D03*
%TO.P,R7,2*%
%TO.N,GND*%
X163000000Y-106490000D03*
%TD*%
D13*
%TO.P,R6,1*%
%TO.N,/RESE*%
X136377500Y-83450000D03*
%TO.P,R6,2*%
%TO.N,GND*%
X137397500Y-83450000D03*
%TD*%
D12*
%TO.P,R5,1*%
%TO.N,GND*%
X137397500Y-81050000D03*
%TO.P,R5,2*%
%TO.N,/GDR*%
X136377500Y-81050000D03*
%TD*%
D14*
%TO.P,R4,1*%
%TO.N,Net-(U2-STAT)*%
X165000000Y-103490000D03*
%TO.P,R4,2*%
%TO.N,Net-(D2-K)*%
X165000000Y-104510000D03*
%TD*%
D15*
%TO.P,D4,2,A_2*%
%TO.N,Net-(D4-A)*%
X148600000Y-82200000D03*
%TO.P,D4,1,K_1*%
%TO.N,/PREVGH*%
X144600000Y-82200000D03*
%TD*%
D16*
%TO.P,U3,5,OUT_5*%
%TO.N,+3V3*%
X171137500Y-99037499D03*
%TO.P,U3,4,NC_4*%
%TO.N,unconnected-(U3-NC-Pad4)*%
X171137500Y-100937499D03*
%TO.P,U3,3,EN_3*%
%TO.N,Net-(D1-K)*%
X168862500Y-100937499D03*
%TO.P,U3,2,GND_2*%
%TO.N,GND*%
X168862500Y-99987499D03*
%TO.P,U3,1,IN_1*%
%TO.N,Net-(D1-K)*%
X168862500Y-99037499D03*
%TD*%
D17*
%TO.P,C16,2*%
%TO.N,+3V3*%
X171200000Y-97149999D03*
%TO.P,C16,1*%
%TO.N,GND*%
X171200000Y-95250001D03*
%TD*%
D18*
%TO.P,J5,BS,Pin_8_BS*%
%TO.N,GND*%
X118885787Y-94300000D03*
%TO.P,J5,BUSY,Pin_9_BUSY*%
%TO.N,/BUSY*%
X118885787Y-94800000D03*
%TO.P,J5,CS,Pin_12_CS*%
%TO.N,/CS*%
X118885787Y-96300000D03*
%TO.P,J5,DC,Pin_11_DC*%
%TO.N,/DC*%
X118885787Y-95800000D03*
%TO.P,J5,GDR,Pin_2_GDR*%
%TO.N,/GDR*%
X118885787Y-91300000D03*
%TO.P,J5,HTL_CTL,Pin_1_HTL_CTL*%
%TO.N,unconnected-(J5-Pin_1-PadHTL_CTL)*%
X118885787Y-90800000D03*
D19*
%TO.P,J5,MP*%
%TO.N,N/C*%
X116535787Y-89150000D03*
X116535787Y-103950000D03*
D18*
%TO.P,J5,PREVGH,Pin_21_PREVGH*%
%TO.N,/PREVGH*%
X118885787Y-100800000D03*
%TO.P,J5,PREVGL,Pin_23_PREVGL*%
%TO.N,/PREVGL*%
X118885787Y-101800000D03*
%TO.P,J5,RESE,Pin_3_RESE*%
%TO.N,/RESE*%
X118885787Y-91800000D03*
%TO.P,J5,RST,Pin_10_RST*%
%TO.N,/EPD_RST*%
X118885787Y-95300000D03*
%TO.P,J5,SCLK,Pin_13_SCLK*%
%TO.N,/CLK*%
X118885787Y-96800000D03*
%TO.P,J5,SDI,Pin_14_SDI*%
%TO.N,/MOSI*%
X118885787Y-97300000D03*
%TO.P,J5,TSCL,Pin_6_TSCL*%
%TO.N,unconnected-(J5-Pin_6-PadTSCL)*%
X118885787Y-93300000D03*
%TO.P,J5,TSDA,Pin_7_TSDA*%
%TO.N,unconnected-(J5-Pin_7-PadTSDA)*%
X118885787Y-93800000D03*
%TO.P,J5,VCI,Pin_16_VCI*%
%TO.N,+3V3*%
X118885787Y-98300000D03*
%TO.P,J5,VCOM,Pin_24_VCOM*%
%TO.N,Net-(J5-Pin_24)*%
X118885787Y-102300000D03*
%TO.P,J5,VDD,Pin_18_VDD*%
%TO.N,Net-(J5-Pin_18)*%
X118885787Y-99300000D03*
%TO.P,J5,VDDIO,Pin_15_VDDIO*%
%TO.N,+3V3*%
X118885787Y-97800000D03*
%TO.P,J5,VGH,Pin_5_VGH*%
%TO.N,Net-(J5-Pin_5)*%
X118885787Y-92800000D03*
%TO.P,J5,VGL,Pin_4_VGL*%
%TO.N,Net-(J5-Pin_4)*%
X118885787Y-92300000D03*
%TO.P,J5,VPP,Pin_19_VPP*%
%TO.N,Net-(J5-Pin_19)*%
X118885787Y-99800000D03*
%TO.P,J5,VSH,Pin_20_VSH*%
%TO.N,Net-(J5-Pin_20)*%
X118885787Y-100300000D03*
%TO.P,J5,VSL,Pin_22_VSL*%
%TO.N,Net-(J5-Pin_22)*%
X118885787Y-101300000D03*
%TO.P,J5,VSS,Pin_17_VSS*%
%TO.N,GND*%
X118885787Y-98800000D03*
%TD*%
D20*
%TO.P,C7,1*%
%TO.N,Net-(J5-Pin_20)*%
X141650000Y-100800000D03*
%TO.P,C7,2*%
%TO.N,GND*%
X143550000Y-100800000D03*
%TD*%
D21*
%TO.P,D5,1,K_1*%
%TO.N,Net-(D5-K)*%
X148600000Y-86800000D03*
%TO.P,D5,2,A_2*%
%TO.N,/PREVGL*%
X144599998Y-86800000D03*
%TD*%
D22*
%TO.P,D1,1,K_1*%
%TO.N,Net-(D1-K)*%
X154000000Y-99999999D03*
%TO.P,D1,2,A_2*%
%TO.N,Net-(D1-A)*%
X154000000Y-104000001D03*
%TD*%
D23*
%TO.P,SW4,1,1_1*%
%TO.N,GND*%
X173000000Y-114545028D03*
%TO.P,SW4,2,2_2*%
%TO.N,/BUTTONB*%
X176090056Y-111454972D03*
%TD*%
D20*
%TO.P,C13,1*%
%TO.N,Net-(J5-Pin_4)*%
X139937500Y-85050000D03*
%TO.P,C13,2*%
%TO.N,GND*%
X141837500Y-85050000D03*
%TD*%
%TO.P,C3,1*%
%TO.N,Net-(J5-Pin_24)*%
X141650001Y-111200000D03*
%TO.P,C3,2*%
%TO.N,GND*%
X143549999Y-111200000D03*
%TD*%
%TO.P,C9,1*%
%TO.N,Net-(J5-Pin_18)*%
X141650000Y-95600000D03*
%TO.P,C9,2*%
%TO.N,GND*%
X143550000Y-95600000D03*
%TD*%
D17*
%TO.P,C11,1*%
%TO.N,Net-(D4-A)*%
X154000000Y-85250001D03*
%TO.P,C11,2*%
%TO.N,Net-(D5-K)*%
X154000000Y-87149999D03*
%TD*%
D24*
%TO.P,USB-C,A1,GND_A1*%
%TO.N,GND*%
X161050000Y-109275000D03*
%TO.P,USB-C,A4,VBUS_A4*%
%TO.N,VBUS*%
X161850000Y-109275000D03*
D25*
%TO.P,USB-C,A5,CC1_A5*%
%TO.N,Net-(J4-CC1)*%
X163000000Y-109275000D03*
%TO.P,USB-C,A6,D+_A6*%
%TO.N,/D+*%
X164000000Y-109275000D03*
%TO.P,USB-C,A7,D-_A7*%
%TO.N,/D-*%
X164500000Y-109275000D03*
%TO.P,USB-C,A8,SBU1_A8*%
%TO.N,unconnected-(J4-SBU1-PadA8)*%
X165500000Y-109275000D03*
D24*
%TO.P,USB-C,A9,VBUS_A9*%
%TO.N,VBUS*%
X166650000Y-109275000D03*
%TO.P,USB-C,A12,GND_A12*%
%TO.N,GND*%
X167450000Y-109275000D03*
%TO.P,USB-C,B1,GND_B1*%
X167450000Y-109275000D03*
%TO.P,USB-C,B4,VBUS_B4*%
%TO.N,VBUS*%
X166650000Y-109275000D03*
D25*
%TO.P,USB-C,B5,CC2_B5*%
%TO.N,Net-(J4-CC2)*%
X166000000Y-109275000D03*
%TO.P,USB-C,B6,D+_B6*%
%TO.N,/D+*%
X165000000Y-109275000D03*
%TO.P,USB-C,B7,D-_B7*%
%TO.N,/D-*%
X163500000Y-109275000D03*
%TO.P,USB-C,B8,SBU2_B8*%
%TO.N,unconnected-(J4-SBU2-PadB8)*%
X162500000Y-109275000D03*
D24*
%TO.P,USB-C,B9,VBUS_B9*%
%TO.N,VBUS*%
X161850000Y-109275000D03*
%TO.P,USB-C,B12,GND_B12*%
%TO.N,GND*%
X161050000Y-109275000D03*
D26*
%TO.P,USB-C,SH,SHIELD_SH*%
X159930000Y-109875000D03*
D27*
X159930000Y-114075000D03*
D26*
X168570000Y-109875000D03*
D27*
X168570000Y-114075000D03*
%TD*%
D28*
%TO.P,Q1,1,G_1*%
%TO.N,/GDR*%
X139800000Y-81600000D03*
%TO.P,Q1,2,S_2*%
%TO.N,Net-(D4-A)*%
X139800000Y-82900000D03*
%TO.P,Q1,3,D_3*%
%TO.N,/RESE*%
X141575000Y-82250000D03*
%TD*%
D22*
%TO.P,D3,1,K_1*%
%TO.N,Net-(D1-K)*%
X162000000Y-99999999D03*
%TO.P,D3,2,A_2*%
%TO.N,VBUS*%
X162000000Y-104000001D03*
%TD*%
D29*
%TO.P,U2,1,STAT_1*%
%TO.N,Net-(U2-STAT)*%
X158949999Y-99862500D03*
%TO.P,U2,2,V_{SS}_2*%
%TO.N,GND*%
X158000000Y-99862500D03*
%TO.P,U2,3,V_{BAT}_3*%
%TO.N,Net-(D1-A)*%
X157050001Y-99862500D03*
%TO.P,U2,4,V_{DD}_4*%
%TO.N,VBUS*%
X157050001Y-102137500D03*
%TO.P,U2,5,PROG_5*%
%TO.N,Net-(U2-PROG)*%
X158949999Y-102137500D03*
%TD*%
D20*
%TO.P,C8,1*%
%TO.N,Net-(J5-Pin_19)*%
X141650000Y-98200000D03*
%TO.P,C8,2*%
%TO.N,GND*%
X143550000Y-98200000D03*
%TD*%
D30*
%TO.P,ESP32 S3 MINI 1,1,GND_1*%
%TO.N,GND*%
X161750000Y-77050000D03*
%TO.P,ESP32 S3 MINI 1,2,GND_2*%
X161750000Y-77900000D03*
%TO.P,ESP32 S3 MINI 1,3,3V3_3*%
%TO.N,+3V3*%
X161750000Y-78750000D03*
%TO.P,ESP32 S3 MINI 1,4,IO0_4*%
%TO.N,/BOOT*%
X161750000Y-79600000D03*
%TO.P,ESP32 S3 MINI 1,5,IO1_5*%
%TO.N,/IO1*%
X161750000Y-80450000D03*
%TO.P,ESP32 S3 MINI 1,6,IO2_6*%
%TO.N,/IO2*%
X161750000Y-81300000D03*
%TO.P,ESP32 S3 MINI 1,7,IO3_7*%
%TO.N,/IO3*%
X161750000Y-82150000D03*
%TO.P,ESP32 S3 MINI 1,8,IO4_8*%
%TO.N,/IO4*%
X161750000Y-83000000D03*
%TO.P,ESP32 S3 MINI 1,9,IO5_9*%
%TO.N,/IO5*%
X161750000Y-83850000D03*
%TO.P,ESP32 S3 MINI 1,10,IO6_10*%
%TO.N,/IO6*%
X161750000Y-84700000D03*
%TO.P,ESP32 S3 MINI 1,11,IO7_11*%
%TO.N,unconnected-(U1-IO7-Pad11)*%
X161750000Y-85550000D03*
%TO.P,ESP32 S3 MINI 1,12,IO8_12*%
%TO.N,unconnected-(U1-IO8-Pad12)*%
X161750000Y-86400000D03*
%TO.P,ESP32 S3 MINI 1,13,IO9_13*%
%TO.N,unconnected-(U1-IO9-Pad13)*%
X161750000Y-87250000D03*
%TO.P,ESP32 S3 MINI 1,14,IO10_14*%
%TO.N,/BUSY*%
X161750000Y-88100000D03*
%TO.P,ESP32 S3 MINI 1,15,IO11_15*%
%TO.N,/EPD_RST*%
X161750000Y-88950000D03*
D31*
%TO.P,ESP32 S3 MINI 1,16,IO12_16*%
%TO.N,unconnected-(U1-IO12-Pad16)*%
X162800000Y-90000000D03*
%TO.P,ESP32 S3 MINI 1,17,IO13_17*%
%TO.N,unconnected-(U1-IO13-Pad17)*%
X163650000Y-90000000D03*
%TO.P,ESP32 S3 MINI 1,18,IO14_18*%
%TO.N,unconnected-(U1-IO14-Pad18)*%
X164500000Y-90000000D03*
%TO.P,ESP32 S3 MINI 1,19,IO15_19*%
%TO.N,unconnected-(U1-IO15-Pad19)*%
X165350000Y-90000000D03*
%TO.P,ESP32 S3 MINI 1,20,IO16_20*%
%TO.N,unconnected-(U1-IO16-Pad20)*%
X166200000Y-90000000D03*
%TO.P,ESP32 S3 MINI 1,21,IO17_21*%
%TO.N,unconnected-(U1-IO17-Pad21)*%
X167050000Y-90000000D03*
%TO.P,ESP32 S3 MINI 1,22,IO18_22*%
%TO.N,unconnected-(U1-IO18-Pad22)*%
X167900000Y-90000000D03*
%TO.P,ESP32 S3 MINI 1,23,USB_D-_23*%
%TO.N,/D-*%
X168750000Y-90000000D03*
%TO.P,ESP32 S3 MINI 1,24,USB_D+_24*%
%TO.N,/D+*%
X169600000Y-90000000D03*
%TO.P,ESP32 S3 MINI 1,25,IO21_25*%
%TO.N,/BUTTONB*%
X170450000Y-90000000D03*
%TO.P,ESP32 S3 MINI 1,26,IO26_26*%
%TO.N,/BUTTONA*%
X171300000Y-90000000D03*
%TO.P,ESP32 S3 MINI 1,27,IO47_27*%
%TO.N,unconnected-(U1-IO47-Pad27)*%
X172150000Y-90000000D03*
%TO.P,ESP32 S3 MINI 1,28,IO33_28*%
%TO.N,/DC*%
X173000000Y-90000000D03*
%TO.P,ESP32 S3 MINI 1,29,IO34_29*%
%TO.N,/CS*%
X173850000Y-90000000D03*
%TO.P,ESP32 S3 MINI 1,30,IO48_30*%
%TO.N,unconnected-(U1-IO48-Pad30)*%
X174700000Y-90000000D03*
D30*
%TO.P,ESP32 S3 MINI 1,31,IO35_31*%
%TO.N,/MOSI*%
X175750000Y-88950000D03*
%TO.P,ESP32 S3 MINI 1,32,IO36_32*%
%TO.N,/CLK*%
X175750000Y-88100000D03*
%TO.P,ESP32 S3 MINI 1,33,IO37_33*%
%TO.N,unconnected-(U1-IO37-Pad33)*%
X175750000Y-87250000D03*
%TO.P,ESP32 S3 MINI 1,34,IO38_34*%
%TO.N,unconnected-(U1-IO38-Pad34)*%
X175750000Y-86400000D03*
%TO.P,ESP32 S3 MINI 1,35,IO39_35*%
%TO.N,unconnected-(U1-IO39-Pad35)*%
X175750000Y-85550000D03*
%TO.P,ESP32 S3 MINI 1,36,IO40_36*%
%TO.N,unconnected-(U1-IO40-Pad36)*%
X175750000Y-84700000D03*
%TO.P,ESP32 S3 MINI 1,37,IO41_37*%
%TO.N,unconnected-(U1-IO41-Pad37)*%
X175750000Y-83850000D03*
%TO.P,ESP32 S3 MINI 1,38,IO42_38*%
%TO.N,unconnected-(U1-IO42-Pad38)*%
X175750000Y-83000000D03*
%TO.P,ESP32 S3 MINI 1,39,TXD0_39*%
%TO.N,unconnected-(U1-TXD0-Pad39)*%
X175750000Y-82150000D03*
%TO.P,ESP32 S3 MINI 1,40,RXD0_40*%
%TO.N,unconnected-(U1-RXD0-Pad40)*%
X175750000Y-81300000D03*
%TO.P,ESP32 S3 MINI 1,41,IO45_41*%
%TO.N,unconnected-(U1-IO45-Pad41)*%
X175750000Y-80450000D03*
%TO.P,ESP32 S3 MINI 1,42,GND_42*%
%TO.N,GND*%
X175750000Y-79600000D03*
%TO.P,ESP32 S3 MINI 1,43,GND_43*%
X175750000Y-78750000D03*
%TO.P,ESP32 S3 MINI 1,44,IO46_44*%
%TO.N,unconnected-(U1-IO46-Pad44)*%
X175750000Y-77900000D03*
%TO.P,ESP32 S3 MINI 1,45,EN_45*%
%TO.N,/RESET*%
X175750000Y-77050000D03*
D31*
%TO.P,ESP32 S3 MINI 1,46,GND_46*%
%TO.N,GND*%
X174700000Y-76000000D03*
%TO.P,ESP32 S3 MINI 1,47,GND_47*%
X173850000Y-76000000D03*
%TO.P,ESP32 S3 MINI 1,48,GND_48*%
X173000000Y-76000000D03*
%TO.P,ESP32 S3 MINI 1,49,GND_49*%
X172150000Y-76000000D03*
%TO.P,ESP32 S3 MINI 1,50,GND_50*%
X171300000Y-76000000D03*
%TO.P,ESP32 S3 MINI 1,51,GND_51*%
X170450000Y-76000000D03*
%TO.P,ESP32 S3 MINI 1,52,GND_52*%
X169600000Y-76000000D03*
%TO.P,ESP32 S3 MINI 1,53,GND_53*%
X168750000Y-76000000D03*
%TO.P,ESP32 S3 MINI 1,54,GND_54*%
X167900000Y-76000000D03*
%TO.P,ESP32 S3 MINI 1,55,GND_55*%
X167050000Y-76000000D03*
%TO.P,ESP32 S3 MINI 1,56,GND_56*%
X166200000Y-76000000D03*
%TO.P,ESP32 S3 MINI 1,57,GND_57*%
X165350000Y-76000000D03*
%TO.P,ESP32 S3 MINI 1,58,GND_58*%
X164500000Y-76000000D03*
%TO.P,ESP32 S3 MINI 1,59,GND_59*%
X163650000Y-76000000D03*
%TO.P,ESP32 S3 MINI 1,60,GND_60*%
X162800000Y-76000000D03*
D32*
%TO.P,ESP32 S3 MINI 1,61,GND_61*%
X167100000Y-81350000D03*
D33*
X167100000Y-83000000D03*
X167100000Y-84650000D03*
X168750000Y-81350000D03*
X168750000Y-83000000D03*
X168750000Y-84650000D03*
X170400000Y-81350000D03*
X170400000Y-83000000D03*
X170400000Y-84650000D03*
D34*
%TO.P,ESP32 S3 MINI 1,62,GND_62*%
X161750000Y-76000000D03*
%TO.P,ESP32 S3 MINI 1,63,GND_63*%
X161750000Y-90000000D03*
%TO.P,ESP32 S3 MINI 1,64,GND_64*%
X175750000Y-90000000D03*
%TO.P,ESP32 S3 MINI 1,65,GND_65*%
X175750000Y-76000000D03*
%TD*%
D35*
%TO.P,IO pins,1,Pin_3_1*%
%TO.N,/IO1*%
X182000000Y-82840000D03*
%TO.P,IO pins,2,Pin_4_2*%
%TO.N,/IO2*%
X182000000Y-85380000D03*
%TO.P,IO pins,3,Pin_5_3*%
%TO.N,/IO3*%
X182000000Y-87920000D03*
%TO.P,IO pins,3V3,Pin_1_3V3*%
%TO.N,+3V3*%
X182000000Y-80300000D03*
%TO.P,IO pins,4,Pin_6_4*%
%TO.N,/IO4*%
X182000000Y-90460000D03*
%TO.P,IO pins,5,Pin_7_5*%
%TO.N,/IO5*%
X182000000Y-93000000D03*
%TO.P,IO pins,6,Pin_8_6*%
%TO.N,/IO6*%
X182000000Y-95540000D03*
D36*
%TO.P,IO pins,GND,Pin_2_GND*%
%TO.N,GND*%
X182000000Y-77760000D03*
%TD*%
D37*
%TO.P,D6,1,K_1*%
%TO.N,GND*%
X148600000Y-109000001D03*
%TO.P,D6,2,A_2*%
%TO.N,Net-(D5-K)*%
X148600000Y-104999999D03*
%TD*%
D38*
%TO.P,C15,1*%
%TO.N,GND*%
X166000000Y-99949999D03*
%TO.P,C15,2*%
%TO.N,Net-(D1-K)*%
X166000000Y-98050001D03*
%TD*%
D20*
%TO.P,C4,1*%
%TO.N,/PREVGL*%
X141650001Y-108600000D03*
%TO.P,C4,2*%
%TO.N,GND*%
X143549999Y-108600000D03*
%TD*%
D39*
%TO.P,SW3,1,1_1*%
%TO.N,GND*%
X182545028Y-104954972D03*
%TO.P,SW3,2,2_2*%
%TO.N,/BUTTONA*%
X179454972Y-108045028D03*
%TD*%
D20*
%TO.P,C10,1*%
%TO.N,+3V3*%
X134050000Y-97200000D03*
%TO.P,C10,2*%
%TO.N,GND*%
X135950000Y-97200000D03*
%TD*%
D40*
%TO.P,J3,1,Pin_1_1*%
%TO.N,Net-(D1-A)*%
X154000000Y-110550000D03*
D41*
%TO.P,J3,2,Pin_2_2*%
%TO.N,GND*%
X156000000Y-110550000D03*
%TD*%
D20*
%TO.P,C14,1*%
%TO.N,Net-(J5-Pin_5)*%
X139937500Y-87450000D03*
%TO.P,C14,2*%
%TO.N,GND*%
X141837500Y-87450000D03*
%TD*%
%TO.P,C2,1*%
%TO.N,Net-(D1-A)*%
X157050000Y-96000000D03*
%TO.P,C2,2*%
%TO.N,GND*%
X158950000Y-96000000D03*
%TD*%
D42*
%TO.P,D2,1,K_1*%
%TO.N,Net-(D2-K)*%
X166500000Y-103212499D03*
%TO.P,D2,2,A_2*%
%TO.N,VBUS*%
X166500000Y-104787501D03*
%TD*%
D20*
%TO.P,C5,1*%
%TO.N,Net-(J5-Pin_22)*%
X141650001Y-106000000D03*
%TO.P,C5,2*%
%TO.N,GND*%
X143549999Y-106000000D03*
%TD*%
D43*
%TO.P,C1,1*%
%TO.N,VBUS*%
X157949999Y-107000000D03*
%TO.P,C1,2*%
%TO.N,GND*%
X156050001Y-107000000D03*
%TD*%
D17*
%TO.P,C12,1*%
%TO.N,+3V3*%
X157600000Y-85250001D03*
%TO.P,C12,2*%
%TO.N,GND*%
X157600000Y-87149999D03*
%TD*%
D44*
%TO.P,L1,1,1_1*%
%TO.N,+3V3*%
X157750000Y-80000000D03*
%TO.P,L1,2,2_2*%
%TO.N,Net-(D4-A)*%
X153250000Y-80000000D03*
%TD*%
D20*
%TO.P,C6,1*%
%TO.N,/PREVGH*%
X141650001Y-103400000D03*
%TO.P,C6,2*%
%TO.N,GND*%
X143549999Y-103400000D03*
%TD*%
D45*
%TO.N,/PREVGH*%
X142400000Y-80800000D03*
%TO.N,GND*%
X172800000Y-94600000D03*
X160400000Y-86800000D03*
X174200000Y-91800000D03*
X173600000Y-80900000D03*
X160400000Y-90000000D03*
%TO.N,+3V3*%
X163250000Y-96500000D03*
X160000000Y-78000000D03*
%TO.N,/PREVGH*%
X140200000Y-103400000D03*
%TO.N,/PREVGL*%
X146400000Y-88200000D03*
X140200000Y-108600000D03*
%TO.N,/CLK*%
X128000000Y-96750000D03*
X125500000Y-96900000D03*
%TO.N,Net-(D5-K)*%
X148600000Y-101000000D03*
X152200000Y-87200000D03*
%TO.N,/BUTTONB*%
X170500000Y-88500000D03*
X177500000Y-110000000D03*
%TO.N,Net-(U2-STAT)*%
X165000000Y-102500000D03*
X159000000Y-98500000D03*
%TO.N,/D+*%
X169500000Y-88500000D03*
X165000000Y-107000000D03*
%TO.N,/D-*%
X164000000Y-107000000D03*
X168699997Y-88500000D03*
%TO.N,/BOOT*%
X170400000Y-77000000D03*
X172600000Y-82200000D03*
%TO.N,/IO1*%
X160000000Y-80250000D03*
%TO.N,/IO2*%
X160000000Y-81250000D03*
%TO.N,/IO3*%
X160000000Y-82250000D03*
%TO.N,/IO4*%
X160000000Y-83250000D03*
%TO.N,/IO5*%
X160000000Y-84250000D03*
%TO.N,/IO6*%
X160000000Y-85250000D03*
%TO.N,/BUTTONA*%
X171500000Y-88500000D03*
X178065687Y-109434313D03*
%TO.N,/RESET*%
X173400000Y-77200000D03*
%TD*%
%TO.N,GND*%
D46*
X142257500Y-76190000D02*
X137397500Y-81050000D01*
X142257500Y-76000000D02*
X142257500Y-76190000D01*
X164200000Y-101749999D02*
X164200000Y-106400000D01*
X166000000Y-99949999D02*
X164200000Y-101749999D01*
X164200000Y-106400000D02*
X163090000Y-106400000D01*
%TO.N,VBUS*%
X166650000Y-104937501D02*
X166650000Y-109275000D01*
X166500000Y-104787501D02*
X166650000Y-104937501D01*
%TO.N,GND*%
X166000000Y-106480000D02*
X165920000Y-106400000D01*
X165920000Y-106400000D02*
X164700000Y-106400000D01*
%TO.N,Net-(J4-CC2)*%
X166000000Y-107500000D02*
X166000000Y-109275000D01*
%TO.N,/D-*%
X164000000Y-108056904D02*
X164000000Y-107000000D01*
X163500000Y-108556904D02*
X164000000Y-108056904D01*
X163500000Y-109275000D02*
X163500000Y-108556904D01*
%TO.N,GND*%
X141837500Y-87450000D02*
X143187500Y-88800000D01*
X143187500Y-88800000D02*
X149750000Y-88800000D01*
%TO.N,Net-(J5-Pin_5)*%
X139387500Y-88000000D02*
X139937500Y-87450000D01*
X124200000Y-92800000D02*
X129000000Y-88000000D01*
X118885787Y-92800000D02*
X124200000Y-92800000D01*
X129000000Y-88000000D02*
X139387500Y-88000000D01*
%TO.N,/GDR*%
X136377500Y-81050000D02*
X136377500Y-81059999D01*
X136377500Y-81059999D02*
X136917501Y-81600000D01*
X136377500Y-81050000D02*
X133350000Y-81050000D01*
%TO.N,/RESE*%
X137577500Y-82250000D02*
X141575000Y-82250000D01*
X136377500Y-83450000D02*
X137577500Y-82250000D01*
X131800000Y-83400000D02*
X136300000Y-83400000D01*
%TO.N,GND*%
X140237500Y-83450000D02*
X137397500Y-83450000D01*
%TO.N,Net-(D2-K)*%
X165202499Y-104510000D02*
X166500000Y-103212499D01*
X165000000Y-104510000D02*
X165202499Y-104510000D01*
%TO.N,Net-(U2-STAT)*%
X165000000Y-102500000D02*
X165000000Y-103490000D01*
%TO.N,Net-(U2-PROG)*%
X159000000Y-102187501D02*
X158949999Y-102137500D01*
X159000000Y-103600000D02*
X159000000Y-102187501D01*
%TO.N,Net-(J4-CC1)*%
X163000000Y-109275000D02*
X163000000Y-107510000D01*
%TO.N,GND*%
X163090000Y-106400000D02*
X163000000Y-106490000D01*
X164700000Y-106400000D02*
X164200000Y-106400000D01*
%TO.N,/PREVGH*%
X143200000Y-80800000D02*
X142400000Y-80800000D01*
X144600000Y-82200000D02*
X143200000Y-80800000D01*
%TO.N,Net-(D4-A)*%
X148800000Y-82200000D02*
X151000000Y-84400000D01*
X148600000Y-82200000D02*
X148800000Y-82200000D01*
X151850001Y-85250001D02*
X154000000Y-85250001D01*
X151000000Y-84400000D02*
X151850001Y-85250001D01*
%TO.N,Net-(D5-K)*%
X151800000Y-86800000D02*
X152200000Y-87200000D01*
X148600000Y-86800000D02*
X151800000Y-86800000D01*
%TO.N,/PREVGL*%
X144599999Y-86399999D02*
X144599999Y-86000000D01*
X146400000Y-88200000D02*
X144599999Y-86399999D01*
%TO.N,GND*%
X167970000Y-109275000D02*
X168570000Y-109875000D01*
X167450000Y-109275000D02*
X167970000Y-109275000D01*
X160530000Y-109275000D02*
X159930000Y-109875000D01*
X161050000Y-109275000D02*
X160530000Y-109275000D01*
X142257500Y-76000000D02*
X156400000Y-76000000D01*
X155600000Y-76800000D02*
X156400000Y-76000000D01*
X143550000Y-98200000D02*
X143550000Y-100800000D01*
X174900000Y-79600000D02*
X175750000Y-79600000D01*
X156000000Y-110550000D02*
X154825000Y-111725000D01*
X159850001Y-87149999D02*
X157600000Y-87149999D01*
X123700000Y-94300000D02*
X129200000Y-88800000D01*
X117985787Y-94300000D02*
X117935787Y-94350000D01*
X142525000Y-94575000D02*
X143550000Y-95600000D01*
X141837500Y-85050000D02*
X141837500Y-87450000D01*
X118885787Y-94300000D02*
X123700000Y-94300000D01*
X160200000Y-86800000D02*
X159850001Y-87149999D01*
X175750000Y-90000000D02*
X175750000Y-90250000D01*
X161750000Y-77050000D02*
X161750000Y-77900000D01*
X171200000Y-95250001D02*
X172149999Y-95250001D01*
X143549999Y-103400000D02*
X143549999Y-106000000D01*
X149750000Y-88800000D02*
X155000000Y-88800000D01*
X138575000Y-94575000D02*
X142525000Y-94575000D01*
X168825000Y-99949999D02*
X168862500Y-99987499D01*
X161750000Y-76000000D02*
X161750000Y-77050000D01*
X149400000Y-111725000D02*
X144074999Y-111725000D01*
X155600000Y-88200000D02*
X155600000Y-76800000D01*
X160400000Y-86800000D02*
X160200000Y-86800000D01*
X170450000Y-76000000D02*
X169600000Y-76000000D01*
X117935787Y-98750000D02*
X117985787Y-98800000D01*
X129200000Y-88800000D02*
X143187500Y-88800000D01*
X156400000Y-76000000D02*
X161750000Y-76000000D01*
X143550000Y-98200000D02*
X143550000Y-95600000D01*
X155000000Y-88800000D02*
X155600000Y-88200000D01*
X143549999Y-108600000D02*
X143549999Y-106000000D01*
X173600000Y-80900000D02*
X174900000Y-79600000D01*
X117985787Y-98800000D02*
X118885787Y-98800000D01*
X154825000Y-111725000D02*
X149400000Y-111725000D01*
X161750000Y-90000000D02*
X160400000Y-90000000D01*
X143549999Y-108600000D02*
X143549999Y-111200000D01*
X143550000Y-100800000D02*
X143549999Y-103400000D01*
X140237500Y-83450000D02*
X141837500Y-85050000D01*
X118885787Y-94300000D02*
X117985787Y-94300000D01*
X144074999Y-111725000D02*
X143549999Y-111200000D01*
X135950000Y-97200000D02*
X138575000Y-94575000D01*
X172149999Y-95250001D02*
X172800000Y-94600000D01*
X148600000Y-110925000D02*
X149400000Y-111725000D01*
X166000000Y-99949999D02*
X168825000Y-99949999D01*
X175750000Y-90250000D02*
X174200000Y-91800000D01*
X148600000Y-109000001D02*
X148600000Y-110925000D01*
X117935787Y-94350000D02*
X117935787Y-98750000D01*
%TO.N,+3V3*%
X171137500Y-99037499D02*
X168600001Y-96500000D01*
X160500000Y-78750000D02*
X159000000Y-78750000D01*
X161750000Y-78750000D02*
X160500000Y-78750000D01*
X160550000Y-93800000D02*
X163250000Y-96500000D01*
X118885787Y-97800000D02*
X118885787Y-98300000D01*
X171137500Y-99037499D02*
X171137500Y-97212499D01*
X171137500Y-97212499D02*
X171200000Y-97149999D01*
X134050000Y-97200000D02*
X137450000Y-93800000D01*
X157600000Y-85250001D02*
X157600000Y-80150000D01*
X168600001Y-96500000D02*
X163250000Y-96500000D01*
X159000000Y-78750000D02*
X157750000Y-80000000D01*
X160000000Y-78250000D02*
X160000000Y-78000000D01*
X118885787Y-98300000D02*
X132950000Y-98300000D01*
X137450000Y-93800000D02*
X160550000Y-93800000D01*
X160500000Y-78750000D02*
X160000000Y-78250000D01*
X157600000Y-80150000D02*
X157750000Y-80000000D01*
X132950000Y-98300000D02*
X134050000Y-97200000D01*
%TO.N,/BUSY*%
X161750000Y-88100000D02*
X159400000Y-88100000D01*
X158000000Y-89500000D02*
X129750000Y-89500000D01*
X159400000Y-88100000D02*
X158000000Y-89500000D01*
X124450000Y-94800000D02*
X118885787Y-94800000D01*
X129750000Y-89500000D02*
X124450000Y-94800000D01*
%TO.N,/CS*%
X130750000Y-91750000D02*
X126200000Y-96300000D01*
X173850000Y-90000000D02*
X173850000Y-90200000D01*
X173850000Y-90200000D02*
X172300000Y-91750000D01*
X126200000Y-96300000D02*
X118885787Y-96300000D01*
%TO.N,/DC*%
X173000000Y-90000000D02*
X173000000Y-90200000D01*
X125700000Y-95800000D02*
X118885787Y-95800000D01*
X172200000Y-91000000D02*
X130500000Y-91000000D01*
X173000000Y-90200000D02*
X172200000Y-91000000D01*
X130500000Y-91000000D02*
X125700000Y-95800000D01*
%TO.N,/GDR*%
X118885787Y-91300000D02*
X123100000Y-91300000D01*
X123100000Y-91300000D02*
X133350000Y-81050000D01*
X139800000Y-81600000D02*
X136917501Y-81600000D01*
%TO.N,/PREVGH*%
X139050001Y-100800000D02*
X118885787Y-100800000D01*
X140200000Y-103400000D02*
X141650001Y-103400000D01*
X141650001Y-103400000D02*
X139050001Y-100800000D01*
%TO.N,/PREVGL*%
X118885787Y-101800000D02*
X134850001Y-101800000D01*
X134850001Y-101800000D02*
X141650001Y-108600000D01*
X140200000Y-108600000D02*
X141650001Y-108600000D01*
%TO.N,/RESE*%
X123400000Y-91800000D02*
X118885787Y-91800000D01*
X131800000Y-83400000D02*
X123400000Y-91800000D01*
X137567501Y-82250000D02*
X137577500Y-82250000D01*
%TO.N,/EPD_RST*%
X130250000Y-90250000D02*
X158750000Y-90250000D01*
X158750000Y-90250000D02*
X160050000Y-88950000D01*
X125200000Y-95300000D02*
X130250000Y-90250000D01*
X118885787Y-95300000D02*
X125200000Y-95300000D01*
X160050000Y-88950000D02*
X161750000Y-88950000D01*
%TO.N,/CLK*%
X125400000Y-96800000D02*
X118885787Y-96800000D01*
X174465686Y-93250000D02*
X131500000Y-93250000D01*
X125500000Y-96900000D02*
X125400000Y-96800000D01*
X176850000Y-90865686D02*
X174465686Y-93250000D01*
X131500000Y-93250000D02*
X128000000Y-96750000D01*
X175950000Y-88100000D02*
X176850000Y-89000000D01*
X175750000Y-88100000D02*
X175950000Y-88100000D01*
X176850000Y-89000000D02*
X176850000Y-90865686D01*
%TO.N,/MOSI*%
X175750000Y-88950000D02*
X176100000Y-88950000D01*
X131250000Y-92500000D02*
X126250000Y-97500000D01*
X124450000Y-97300000D02*
X118885787Y-97300000D01*
X176450000Y-90700000D02*
X174650000Y-92500000D01*
X176450000Y-89300000D02*
X176450000Y-90700000D01*
X124650000Y-97500000D02*
X124450000Y-97300000D01*
X176100000Y-88950000D02*
X176450000Y-89300000D01*
X174650000Y-92500000D02*
X131250000Y-92500000D01*
X126250000Y-97500000D02*
X124650000Y-97500000D01*
%TO.N,Net-(J5-Pin_24)*%
X132750001Y-102300000D02*
X141650001Y-111200000D01*
X118885787Y-102300000D02*
X132750001Y-102300000D01*
%TO.N,Net-(J5-Pin_18)*%
X141650000Y-95600000D02*
X137950000Y-99300000D01*
X137950000Y-99300000D02*
X118885787Y-99300000D01*
%TO.N,Net-(J5-Pin_4)*%
X137587500Y-87400000D02*
X139937500Y-85050000D01*
X118885787Y-92300000D02*
X123900000Y-92300000D01*
X123900000Y-92300000D02*
X128800000Y-87400000D01*
X128800000Y-87400000D02*
X137587500Y-87400000D01*
%TO.N,Net-(J5-Pin_19)*%
X141650000Y-98200000D02*
X140050000Y-99800000D01*
X140050000Y-99800000D02*
X118885787Y-99800000D01*
%TO.N,Net-(J5-Pin_20)*%
X141150000Y-100300000D02*
X141650000Y-100800000D01*
X118885787Y-100300000D02*
X141150000Y-100300000D01*
%TO.N,Net-(J5-Pin_22)*%
X136540001Y-101300000D02*
X118885787Y-101300000D01*
X141650001Y-106410000D02*
X136540001Y-101300000D01*
%TO.N,Net-(D5-K)*%
X154000000Y-87149999D02*
X152250001Y-87149999D01*
X148600000Y-101000000D02*
X148600000Y-104999999D01*
X152250001Y-87149999D02*
X152200000Y-87200000D01*
%TO.N,Net-(D1-K)*%
X167875002Y-98050001D02*
X168862500Y-99037499D01*
X154000000Y-99999999D02*
X154000000Y-97000000D01*
X156600000Y-94400000D02*
X159600000Y-94400000D01*
X169524999Y-99037499D02*
X170000000Y-99512500D01*
X170000000Y-100487499D02*
X169550000Y-100937499D01*
X162050001Y-98050001D02*
X162000000Y-98000000D01*
X166000000Y-98050001D02*
X162050001Y-98050001D01*
X162000000Y-96800000D02*
X162000000Y-98000000D01*
X170000000Y-99512500D02*
X170000000Y-100487499D01*
X154000000Y-97000000D02*
X156600000Y-94400000D01*
X162000000Y-98000000D02*
X162000000Y-99999999D01*
X166000000Y-98050001D02*
X167875002Y-98050001D01*
X159600000Y-94400000D02*
X162000000Y-96800000D01*
%TO.N,Net-(D1-A)*%
X154912500Y-104000001D02*
X154000000Y-104000001D01*
X157050001Y-99862500D02*
X154000000Y-102912501D01*
X157050001Y-99862500D02*
X157050000Y-96000000D01*
X154000000Y-102912501D02*
X154000000Y-104000001D01*
X154000000Y-110550000D02*
X154000000Y-104000001D01*
%TO.N,unconnected-(U1-IO40-Pad36)*%
X175950000Y-84700000D02*
X176000000Y-84750000D01*
X175750000Y-84700000D02*
X175950000Y-84700000D01*
%TO.N,/BUTTONB*%
X177500000Y-110000000D02*
X176000000Y-111500000D01*
X170450000Y-88550000D02*
X170500000Y-88500000D01*
X170450000Y-90000000D02*
X170450000Y-88550000D01*
%TO.N,Net-(U2-STAT)*%
X158949999Y-99862500D02*
X158949999Y-98550001D01*
X158949999Y-98550001D02*
X159000000Y-98500000D01*
%TO.N,Net-(U2-PROG)*%
X159000000Y-101812499D02*
X158949999Y-101862500D01*
%TO.N,Net-(D4-A)*%
X153250000Y-84500001D02*
X153250000Y-80000000D01*
X154000000Y-85250001D02*
X153250000Y-84500001D01*
%TO.N,VBUS*%
X157050001Y-101862500D02*
X156956250Y-101956250D01*
X161850000Y-109275000D02*
X161850000Y-108000000D01*
X166650000Y-109275000D02*
X166650000Y-109850000D01*
X162550001Y-110595000D02*
X161850000Y-109894999D01*
X161850000Y-108000000D02*
X161850000Y-107000000D01*
X157050001Y-104050001D02*
X157050001Y-102137500D01*
X161850000Y-104150001D02*
X162000000Y-104000001D01*
X161850000Y-109894999D02*
X161850000Y-109275000D01*
X161850000Y-107000000D02*
X157949999Y-107000000D01*
X165905000Y-110595000D02*
X162550001Y-110595000D01*
X161850000Y-106000000D02*
X161850000Y-104150001D01*
X166650000Y-109850000D02*
X165905000Y-110595000D01*
X161850000Y-106000000D02*
X159000000Y-106000000D01*
X159000000Y-106000000D02*
X157050001Y-104050001D01*
X161850000Y-107000000D02*
X161850000Y-106000000D01*
%TO.N,/D+*%
X164732410Y-108355000D02*
X165000000Y-108622590D01*
X169600000Y-90000000D02*
X169600000Y-88600000D01*
X164000000Y-109275000D02*
X164000000Y-108622590D01*
X165000000Y-108622590D02*
X165000000Y-109275000D01*
X164732410Y-107267590D02*
X165000000Y-107000000D01*
X164732410Y-108355000D02*
X164732410Y-107267590D01*
X169600000Y-88600000D02*
X169500000Y-88500000D01*
X164000000Y-108622590D02*
X164267590Y-108355000D01*
X164267590Y-108355000D02*
X164732410Y-108355000D01*
%TO.N,/D-*%
X164500000Y-109927410D02*
X164500000Y-109275000D01*
X163767590Y-110195000D02*
X164232410Y-110195000D01*
X168750000Y-90000000D02*
X168750000Y-88550003D01*
X164232410Y-110195000D02*
X164500000Y-109927410D01*
X163500000Y-109927410D02*
X163767590Y-110195000D01*
X163500000Y-109275000D02*
X163500000Y-109927410D01*
X168750000Y-88550003D02*
X168699997Y-88500000D01*
%TO.N,/BOOT*%
X172600000Y-82200000D02*
X172600000Y-81750000D01*
X170400000Y-79600000D02*
X170400000Y-77000000D01*
X170400000Y-79600000D02*
X161750000Y-79600000D01*
X172600000Y-81750000D02*
X170450000Y-79600000D01*
X170450000Y-79600000D02*
X170400000Y-79600000D01*
%TO.N,/IO1*%
X160200000Y-80450000D02*
X160000000Y-80250000D01*
X161750000Y-80450000D02*
X160200000Y-80450000D01*
%TO.N,/IO2*%
X161750000Y-81300000D02*
X160050000Y-81300000D01*
X160050000Y-81300000D02*
X160000000Y-81250000D01*
%TO.N,/IO3*%
X161750000Y-82150000D02*
X160100000Y-82150000D01*
X160100000Y-82150000D02*
X160000000Y-82250000D01*
%TO.N,/IO4*%
X160250000Y-83000000D02*
X160000000Y-83250000D01*
X161750000Y-83000000D02*
X160250000Y-83000000D01*
%TO.N,/IO5*%
X161750000Y-83850000D02*
X160400000Y-83850000D01*
X160400000Y-83850000D02*
X160000000Y-84250000D01*
%TO.N,/IO6*%
X160550000Y-84700000D02*
X160000000Y-85250000D01*
X161750000Y-84700000D02*
X160550000Y-84700000D01*
%TO.N,/BUTTONA*%
X171300000Y-90000000D02*
X171300000Y-88700000D01*
X178065687Y-109434313D02*
X179500000Y-108000000D01*
X171300000Y-88700000D02*
X171500000Y-88500000D01*
%TO.N,/RESET*%
X173400000Y-77200000D02*
X173550000Y-77050000D01*
X173550000Y-77050000D02*
X175750000Y-77050000D01*
%TO.N,Net-(D4-A)*%
X143600000Y-84400000D02*
X151000000Y-84400000D01*
X142100000Y-82900000D02*
X143600000Y-84400000D01*
X139800000Y-82900000D02*
X142100000Y-82900000D01*
%TO.N,/CS*%
X172300000Y-91750000D02*
X130750000Y-91750000D01*
%TD*%
%TA.AperFunction,Conductor*%
%TO.N,GND*%
G36*
X160793039Y-76019685D02*
G01*
X160838794Y-76072489D01*
X160850000Y-76124000D01*
X160850000Y-76447844D01*
X160856401Y-76507372D01*
X160856403Y-76507382D01*
X160884110Y-76581668D01*
X160889094Y-76651359D01*
X160884110Y-76668332D01*
X160856403Y-76742617D01*
X160856401Y-76742627D01*
X160850000Y-76802155D01*
X160850000Y-76850000D01*
X161500000Y-76850000D01*
X162000000Y-76850000D01*
X162600000Y-76850000D01*
X162600000Y-76250000D01*
X162000000Y-76250000D01*
X162000000Y-76850000D01*
X161500000Y-76850000D01*
X161500000Y-76124000D01*
X161519685Y-76056961D01*
X161572489Y-76011206D01*
X161624000Y-76000000D01*
X161750000Y-76000000D01*
X175750000Y-76000000D01*
X175750000Y-76126000D01*
X175730315Y-76193039D01*
X175677511Y-76238794D01*
X175626000Y-76250000D01*
X174821362Y-76250000D01*
X174754323Y-76230315D01*
X174733681Y-76213681D01*
X174720000Y-76200000D01*
X172350000Y-76200000D01*
X172350000Y-76900000D01*
X172397828Y-76900000D01*
X172397844Y-76899999D01*
X172457372Y-76893598D01*
X172464924Y-76891814D01*
X172465631Y-76894806D01*
X172521057Y-76890803D01*
X172582404Y-76924245D01*
X172615932Y-76985544D01*
X172616403Y-77036178D01*
X172599500Y-77121158D01*
X172599500Y-77278846D01*
X172630261Y-77433489D01*
X172630264Y-77433501D01*
X172690602Y-77579172D01*
X172690609Y-77579185D01*
X172778210Y-77710288D01*
X172778213Y-77710292D01*
X172889707Y-77821786D01*
X172889711Y-77821789D01*
X173020814Y-77909390D01*
X173020827Y-77909397D01*
X173126079Y-77952993D01*
X173166503Y-77969737D01*
X173321153Y-78000499D01*
X173321156Y-78000500D01*
X173321158Y-78000500D01*
X173478844Y-78000500D01*
X173478845Y-78000499D01*
X173633497Y-77969737D01*
X173779179Y-77909394D01*
X173910289Y-77821789D01*
X174021789Y-77710289D01*
X174024914Y-77705611D01*
X174078525Y-77660806D01*
X174128018Y-77650500D01*
X174725500Y-77650500D01*
X174792539Y-77670185D01*
X174838294Y-77722989D01*
X174849500Y-77774500D01*
X174849500Y-78147869D01*
X174849501Y-78147876D01*
X174855909Y-78207485D01*
X174883843Y-78282382D01*
X174888827Y-78352074D01*
X174883844Y-78369046D01*
X174856402Y-78442623D01*
X174856401Y-78442627D01*
X174850000Y-78502155D01*
X174850000Y-78550000D01*
X175101931Y-78550000D01*
X175145263Y-78557817D01*
X175242517Y-78594091D01*
X175302127Y-78600500D01*
X176197872Y-78600499D01*
X176257483Y-78594091D01*
X176354736Y-78557817D01*
X176398069Y-78550000D01*
X176650000Y-78550000D01*
X176650000Y-78502172D01*
X176649999Y-78502155D01*
X176643598Y-78442623D01*
X176616155Y-78369047D01*
X176611171Y-78299355D01*
X176616148Y-78282399D01*
X176644091Y-78207483D01*
X176650500Y-78147873D01*
X176650499Y-77652128D01*
X176644091Y-77592517D01*
X176616421Y-77518332D01*
X176611438Y-77448642D01*
X176616420Y-77431672D01*
X176644091Y-77357483D01*
X176650500Y-77297873D01*
X176650499Y-76802128D01*
X176644091Y-76742517D01*
X176612262Y-76657181D01*
X176610293Y-76646222D01*
X176612900Y-76622114D01*
X176611171Y-76597927D01*
X176616156Y-76580950D01*
X176643597Y-76507379D01*
X176643597Y-76507377D01*
X176649999Y-76447844D01*
X176650000Y-76447827D01*
X176650000Y-76124000D01*
X176669685Y-76056961D01*
X176722489Y-76011206D01*
X176774000Y-76000000D01*
X183876000Y-76000000D01*
X183943039Y-76019685D01*
X183988794Y-76072489D01*
X184000000Y-76124000D01*
X184000000Y-104533733D01*
X183980315Y-104600772D01*
X183927511Y-104646527D01*
X183858353Y-104656471D01*
X183794797Y-104627446D01*
X183788319Y-104621414D01*
X183510230Y-104343325D01*
X183510229Y-104343325D01*
X182898581Y-104954971D01*
X182898581Y-104954972D01*
X183732966Y-105789358D01*
X183732967Y-105789358D01*
X183788319Y-105734006D01*
X183849642Y-105700521D01*
X183919334Y-105705505D01*
X183975267Y-105747377D01*
X183999684Y-105812841D01*
X184000000Y-105821687D01*
X184000000Y-106948638D01*
X183980315Y-107015677D01*
X183963681Y-107036319D01*
X175036319Y-115963681D01*
X174974996Y-115997166D01*
X174948638Y-116000000D01*
X173866715Y-116000000D01*
X173799676Y-115980315D01*
X173753921Y-115927511D01*
X173743977Y-115858353D01*
X173773002Y-115794797D01*
X173779034Y-115788319D01*
X173834386Y-115732967D01*
X173834386Y-115732966D01*
X173000000Y-114898581D01*
X172999999Y-114898581D01*
X172388353Y-115510228D01*
X172388353Y-115510229D01*
X172666443Y-115788319D01*
X172699928Y-115849642D01*
X172694944Y-115919334D01*
X172653072Y-115975267D01*
X172587608Y-115999684D01*
X172578762Y-116000000D01*
X151124000Y-116000000D01*
X151056961Y-115980315D01*
X151011206Y-115927511D01*
X151000000Y-115876000D01*
X151000000Y-113576504D01*
X158930000Y-113576504D01*
X158930000Y-113825000D01*
X159630000Y-113825000D01*
X159630000Y-114325000D01*
X158930000Y-114325000D01*
X158930000Y-114573495D01*
X158968427Y-114766681D01*
X158968430Y-114766693D01*
X159043807Y-114948671D01*
X159043814Y-114948684D01*
X159153248Y-115112462D01*
X159153251Y-115112466D01*
X159292533Y-115251748D01*
X159292537Y-115251751D01*
X159456315Y-115361185D01*
X159456328Y-115361192D01*
X159638308Y-115436569D01*
X159680000Y-115444862D01*
X159680000Y-114641988D01*
X159689940Y-114659205D01*
X159745795Y-114715060D01*
X159814204Y-114754556D01*
X159890504Y-114775000D01*
X159969496Y-114775000D01*
X160045796Y-114754556D01*
X160114205Y-114715060D01*
X160170060Y-114659205D01*
X160180000Y-114641988D01*
X160180000Y-115444862D01*
X160221690Y-115436569D01*
X160221692Y-115436569D01*
X160403671Y-115361192D01*
X160403684Y-115361185D01*
X160567462Y-115251751D01*
X160567466Y-115251748D01*
X160706748Y-115112466D01*
X160706751Y-115112462D01*
X160816185Y-114948684D01*
X160816192Y-114948671D01*
X160891569Y-114766693D01*
X160891572Y-114766681D01*
X160929999Y-114573495D01*
X160930000Y-114573492D01*
X160930000Y-114325000D01*
X160230000Y-114325000D01*
X160230000Y-113825000D01*
X160930000Y-113825000D01*
X160930000Y-113576508D01*
X160929999Y-113576504D01*
X167570000Y-113576504D01*
X167570000Y-113825000D01*
X168270000Y-113825000D01*
X168270000Y-114325000D01*
X167570000Y-114325000D01*
X167570000Y-114573495D01*
X167608427Y-114766681D01*
X167608430Y-114766693D01*
X167683807Y-114948671D01*
X167683814Y-114948684D01*
X167793248Y-115112462D01*
X167793251Y-115112466D01*
X167932533Y-115251748D01*
X167932537Y-115251751D01*
X168096315Y-115361185D01*
X168096328Y-115361192D01*
X168278308Y-115436569D01*
X168320000Y-115444862D01*
X168320000Y-114641988D01*
X168329940Y-114659205D01*
X168385795Y-114715060D01*
X168454204Y-114754556D01*
X168530504Y-114775000D01*
X168609496Y-114775000D01*
X168685796Y-114754556D01*
X168754205Y-114715060D01*
X168810060Y-114659205D01*
X168820000Y-114641988D01*
X168820000Y-115444862D01*
X168861690Y-115436569D01*
X168861692Y-115436569D01*
X169043671Y-115361192D01*
X169043684Y-115361185D01*
X169207462Y-115251751D01*
X169207466Y-115251748D01*
X169346748Y-115112466D01*
X169346751Y-115112462D01*
X169456185Y-114948684D01*
X169456192Y-114948671D01*
X169531569Y-114766693D01*
X169531572Y-114766681D01*
X169569999Y-114573495D01*
X169570000Y-114573492D01*
X169570000Y-114325000D01*
X168870000Y-114325000D01*
X168870000Y-114322289D01*
X171402378Y-114322289D01*
X171422838Y-114464603D01*
X171422839Y-114464608D01*
X171482565Y-114595386D01*
X171482566Y-114595388D01*
X171520144Y-114642019D01*
X171520150Y-114642026D01*
X172034799Y-115156675D01*
X172034800Y-115156675D01*
X172646446Y-114545027D01*
X173353553Y-114545027D01*
X173353553Y-114545028D01*
X174187938Y-115379414D01*
X174187939Y-115379414D01*
X174479854Y-115087499D01*
X174517434Y-115040864D01*
X174577160Y-114910085D01*
X174577161Y-114910080D01*
X174597621Y-114767766D01*
X174577161Y-114625452D01*
X174577160Y-114625447D01*
X174517434Y-114494669D01*
X174517433Y-114494667D01*
X174479855Y-114448036D01*
X174479849Y-114448029D01*
X173965202Y-113933381D01*
X173965201Y-113933381D01*
X173353553Y-114545027D01*
X172646446Y-114545027D01*
X171812060Y-113710641D01*
X171812059Y-113710641D01*
X171520149Y-114002551D01*
X171482565Y-114049191D01*
X171422839Y-114179970D01*
X171422838Y-114179975D01*
X171402378Y-114322289D01*
X168870000Y-114322289D01*
X168870000Y-113825000D01*
X169570000Y-113825000D01*
X169570000Y-113576508D01*
X169569999Y-113576504D01*
X169531572Y-113383318D01*
X169531571Y-113383314D01*
X169520708Y-113357087D01*
X172165613Y-113357087D01*
X172165613Y-113357088D01*
X172999998Y-114191474D01*
X172999999Y-114191474D01*
X173611647Y-113579827D01*
X173096998Y-113065178D01*
X173096991Y-113065172D01*
X173050360Y-113027594D01*
X173050358Y-113027593D01*
X172919580Y-112967867D01*
X172919575Y-112967866D01*
X172777261Y-112947406D01*
X172634947Y-112967866D01*
X172634942Y-112967867D01*
X172504163Y-113027593D01*
X172457523Y-113065177D01*
X172165613Y-113357087D01*
X169520708Y-113357087D01*
X169519089Y-113353179D01*
X169519088Y-113353176D01*
X169456192Y-113201328D01*
X169456185Y-113201315D01*
X169346751Y-113037537D01*
X169346748Y-113037533D01*
X169207466Y-112898251D01*
X169207462Y-112898248D01*
X169043684Y-112788814D01*
X169043671Y-112788807D01*
X168861691Y-112713429D01*
X168861683Y-112713427D01*
X168820000Y-112705135D01*
X168820000Y-113508011D01*
X168810060Y-113490795D01*
X168754205Y-113434940D01*
X168685796Y-113395444D01*
X168609496Y-113375000D01*
X168530504Y-113375000D01*
X168454204Y-113395444D01*
X168385795Y-113434940D01*
X168329940Y-113490795D01*
X168320000Y-113508011D01*
X168320000Y-112705136D01*
X168319999Y-112705135D01*
X168278316Y-112713427D01*
X168278308Y-112713429D01*
X168096328Y-112788807D01*
X168096315Y-112788814D01*
X167932537Y-112898248D01*
X167932533Y-112898251D01*
X167793251Y-113037533D01*
X167793248Y-113037537D01*
X167683814Y-113201315D01*
X167683807Y-113201328D01*
X167608430Y-113383306D01*
X167608427Y-113383318D01*
X167570000Y-113576504D01*
X160929999Y-113576504D01*
X160891572Y-113383318D01*
X160891569Y-113383306D01*
X160816192Y-113201328D01*
X160816185Y-113201315D01*
X160706751Y-113037537D01*
X160706748Y-113037533D01*
X160567466Y-112898251D01*
X160567462Y-112898248D01*
X160403684Y-112788814D01*
X160403671Y-112788807D01*
X160221691Y-112713429D01*
X160221683Y-112713427D01*
X160180000Y-112705135D01*
X160180000Y-113508011D01*
X160170060Y-113490795D01*
X160114205Y-113434940D01*
X160045796Y-113395444D01*
X159969496Y-113375000D01*
X159890504Y-113375000D01*
X159814204Y-113395444D01*
X159745795Y-113434940D01*
X159689940Y-113490795D01*
X159680000Y-113508011D01*
X159680000Y-112705136D01*
X159679999Y-112705135D01*
X159638316Y-112713427D01*
X159638308Y-112713429D01*
X159456328Y-112788807D01*
X159456315Y-112788814D01*
X159292537Y-112898248D01*
X159292533Y-112898251D01*
X159153251Y-113037533D01*
X159153248Y-113037537D01*
X159043814Y-113201315D01*
X159043807Y-113201328D01*
X158968430Y-113383306D01*
X158968427Y-113383318D01*
X158930000Y-113576504D01*
X151000000Y-113576504D01*
X151000000Y-94524500D01*
X151019685Y-94457461D01*
X151072489Y-94411706D01*
X151124000Y-94400500D01*
X155450903Y-94400500D01*
X155517942Y-94420185D01*
X155563697Y-94472989D01*
X155573641Y-94542147D01*
X155544616Y-94605703D01*
X155538585Y-94612179D01*
X154504478Y-95646286D01*
X153631286Y-96519478D01*
X153519481Y-96631282D01*
X153519480Y-96631284D01*
X153482665Y-96695051D01*
X153469361Y-96718094D01*
X153469359Y-96718096D01*
X153440425Y-96768209D01*
X153440424Y-96768210D01*
X153433425Y-96794331D01*
X153399499Y-96920943D01*
X153399499Y-96920945D01*
X153399499Y-97089046D01*
X153399500Y-97089059D01*
X153399500Y-98127356D01*
X153379815Y-98194395D01*
X153327011Y-98240150D01*
X153288102Y-98250714D01*
X153197202Y-98260000D01*
X153197200Y-98260000D01*
X153030668Y-98315184D01*
X153030663Y-98315186D01*
X152881342Y-98407288D01*
X152757289Y-98531341D01*
X152665187Y-98680662D01*
X152665186Y-98680665D01*
X152610001Y-98847202D01*
X152610001Y-98847203D01*
X152610000Y-98847203D01*
X152599500Y-98949982D01*
X152599500Y-101050000D01*
X152599501Y-101050017D01*
X152610000Y-101152795D01*
X152610001Y-101152798D01*
X152665185Y-101319330D01*
X152665187Y-101319335D01*
X152682801Y-101347892D01*
X152757288Y-101468655D01*
X152881344Y-101592711D01*
X153030666Y-101684813D01*
X153197203Y-101739998D01*
X153299991Y-101750499D01*
X154013405Y-101750498D01*
X154080443Y-101770182D01*
X154126198Y-101822986D01*
X154136142Y-101892145D01*
X154107117Y-101955701D01*
X154101085Y-101962179D01*
X153850082Y-102213182D01*
X153788759Y-102246667D01*
X153762401Y-102249501D01*
X153299998Y-102249501D01*
X153299980Y-102249502D01*
X153197203Y-102260001D01*
X153197200Y-102260002D01*
X153030668Y-102315186D01*
X153030663Y-102315188D01*
X152881342Y-102407290D01*
X152757289Y-102531343D01*
X152665187Y-102680664D01*
X152665185Y-102680669D01*
X152641361Y-102752567D01*
X152610001Y-102847204D01*
X152610001Y-102847205D01*
X152610000Y-102847205D01*
X152599500Y-102949984D01*
X152599500Y-105050002D01*
X152599501Y-105050019D01*
X152610000Y-105152797D01*
X152610001Y-105152800D01*
X152665185Y-105319332D01*
X152665186Y-105319335D01*
X152757288Y-105468657D01*
X152881344Y-105592713D01*
X153030666Y-105684815D01*
X153197203Y-105740000D01*
X153288103Y-105749286D01*
X153352794Y-105775682D01*
X153392945Y-105832862D01*
X153399500Y-105872644D01*
X153399500Y-109129091D01*
X153379815Y-109196130D01*
X153335731Y-109234641D01*
X153336813Y-109236395D01*
X153330667Y-109240185D01*
X153330666Y-109240186D01*
X153248925Y-109290604D01*
X153181342Y-109332289D01*
X153057289Y-109456342D01*
X152965187Y-109605663D01*
X152965185Y-109605668D01*
X152944596Y-109667802D01*
X152910001Y-109772203D01*
X152910001Y-109772204D01*
X152910000Y-109772204D01*
X152899500Y-109874983D01*
X152899500Y-111225001D01*
X152899501Y-111225018D01*
X152910000Y-111327796D01*
X152910001Y-111327799D01*
X152965185Y-111494331D01*
X152965187Y-111494336D01*
X152994341Y-111541602D01*
X153057288Y-111643656D01*
X153181344Y-111767712D01*
X153330666Y-111859814D01*
X153497203Y-111914999D01*
X153599991Y-111925500D01*
X154400008Y-111925499D01*
X154400016Y-111925498D01*
X154400019Y-111925498D01*
X154456302Y-111919748D01*
X154502797Y-111914999D01*
X154669334Y-111859814D01*
X154818656Y-111767712D01*
X154942712Y-111643656D01*
X154982581Y-111579016D01*
X155034525Y-111532294D01*
X155103488Y-111521071D01*
X155167570Y-111548914D01*
X155175799Y-111556434D01*
X155283397Y-111664032D01*
X155423475Y-111765804D01*
X155577744Y-111844408D01*
X155742415Y-111897914D01*
X155742414Y-111897914D01*
X155749999Y-111899115D01*
X155750000Y-111899114D01*
X155750000Y-110830330D01*
X155769745Y-110850075D01*
X155855255Y-110899444D01*
X155950630Y-110925000D01*
X156049370Y-110925000D01*
X156144745Y-110899444D01*
X156230255Y-110850075D01*
X156250000Y-110830330D01*
X156250000Y-111899115D01*
X156257584Y-111897914D01*
X156422255Y-111844408D01*
X156576524Y-111765804D01*
X156716602Y-111664032D01*
X156839032Y-111541602D01*
X156940804Y-111401524D01*
X157019408Y-111247257D01*
X157072914Y-111082584D01*
X157100000Y-110911571D01*
X157100000Y-110800000D01*
X156280330Y-110800000D01*
X156300075Y-110780255D01*
X156349444Y-110694745D01*
X156375000Y-110599370D01*
X156375000Y-110500630D01*
X156349444Y-110405255D01*
X156300075Y-110319745D01*
X156280330Y-110300000D01*
X157100000Y-110300000D01*
X157100000Y-110188428D01*
X157084891Y-110093036D01*
X157072913Y-110017415D01*
X157019408Y-109852742D01*
X156940804Y-109698475D01*
X156839032Y-109558397D01*
X156716602Y-109435967D01*
X156576524Y-109334195D01*
X156570060Y-109330902D01*
X156422257Y-109255591D01*
X156257589Y-109202087D01*
X156257581Y-109202085D01*
X156250000Y-109200884D01*
X156250000Y-110269670D01*
X156230255Y-110249925D01*
X156144745Y-110200556D01*
X156049370Y-110175000D01*
X155950630Y-110175000D01*
X155855255Y-110200556D01*
X155769745Y-110249925D01*
X155750000Y-110269670D01*
X155750000Y-109200884D01*
X155749999Y-109200884D01*
X155742418Y-109202085D01*
X155742410Y-109202087D01*
X155577742Y-109255591D01*
X155423475Y-109334195D01*
X155283401Y-109435964D01*
X155175799Y-109543566D01*
X155114476Y-109577050D01*
X155044784Y-109572066D01*
X154988851Y-109530194D01*
X154982585Y-109520988D01*
X154942712Y-109456344D01*
X154818656Y-109332288D01*
X154669334Y-109240186D01*
X154669332Y-109240185D01*
X154663187Y-109236395D01*
X154664290Y-109234605D01*
X154619649Y-109195290D01*
X154600500Y-109129091D01*
X154600500Y-107524986D01*
X155050002Y-107524986D01*
X155060495Y-107627697D01*
X155115642Y-107794119D01*
X155115644Y-107794124D01*
X155207685Y-107943345D01*
X155331655Y-108067315D01*
X155480876Y-108159356D01*
X155480881Y-108159358D01*
X155647303Y-108214505D01*
X155647310Y-108214506D01*
X155750020Y-108224999D01*
X155800000Y-108224998D01*
X155800001Y-108224998D01*
X155800001Y-107250000D01*
X155050002Y-107250000D01*
X155050002Y-107524986D01*
X154600500Y-107524986D01*
X154600500Y-106475013D01*
X155050001Y-106475013D01*
X155050001Y-106750000D01*
X155800001Y-106750000D01*
X155800001Y-105775000D01*
X155800000Y-105774999D01*
X155750030Y-105775000D01*
X155750012Y-105775001D01*
X155647303Y-105785494D01*
X155480881Y-105840641D01*
X155480876Y-105840643D01*
X155331655Y-105932684D01*
X155207685Y-106056654D01*
X155115644Y-106205875D01*
X155115642Y-106205880D01*
X155060495Y-106372302D01*
X155060494Y-106372309D01*
X155050001Y-106475013D01*
X154600500Y-106475013D01*
X154600500Y-105872643D01*
X154620185Y-105805604D01*
X154672989Y-105759849D01*
X154711897Y-105749285D01*
X154802797Y-105740000D01*
X154969334Y-105684815D01*
X155118656Y-105592713D01*
X155242712Y-105468657D01*
X155334814Y-105319335D01*
X155389999Y-105152798D01*
X155400500Y-105050010D01*
X155400499Y-104388985D01*
X155417111Y-104326988D01*
X155472077Y-104231785D01*
X155513000Y-104079058D01*
X155513000Y-103920944D01*
X155472077Y-103768217D01*
X155417111Y-103673012D01*
X155400499Y-103611013D01*
X155400499Y-102949999D01*
X155400498Y-102949982D01*
X155389999Y-102847204D01*
X155389998Y-102847201D01*
X155352320Y-102733497D01*
X155334814Y-102680667D01*
X155289482Y-102607171D01*
X155271042Y-102539779D01*
X155291965Y-102473115D01*
X155307335Y-102454399D01*
X156037821Y-101723914D01*
X156099143Y-101690430D01*
X156168835Y-101695414D01*
X156224768Y-101737286D01*
X156249185Y-101802750D01*
X156249501Y-101811596D01*
X156249501Y-102715701D01*
X156252402Y-102752567D01*
X156252403Y-102752573D01*
X156298255Y-102910393D01*
X156298256Y-102910396D01*
X156381918Y-103051862D01*
X156381924Y-103051870D01*
X156413181Y-103083126D01*
X156446667Y-103144448D01*
X156449501Y-103170808D01*
X156449501Y-103963331D01*
X156449500Y-103963349D01*
X156449500Y-104129055D01*
X156449499Y-104129055D01*
X156490424Y-104281786D01*
X156507187Y-104310820D01*
X156507186Y-104310820D01*
X156507187Y-104310821D01*
X156569476Y-104418710D01*
X156569482Y-104418718D01*
X156688350Y-104537586D01*
X156688356Y-104537591D01*
X157715231Y-105564466D01*
X157748716Y-105625789D01*
X157743732Y-105695481D01*
X157701860Y-105751414D01*
X157640153Y-105775505D01*
X157547201Y-105785001D01*
X157547199Y-105785001D01*
X157380667Y-105840185D01*
X157380662Y-105840187D01*
X157231341Y-105932289D01*
X157107287Y-106056343D01*
X157107283Y-106056348D01*
X157105240Y-106059661D01*
X157103246Y-106061453D01*
X157102806Y-106062011D01*
X157102710Y-106061935D01*
X157053289Y-106106382D01*
X156984326Y-106117599D01*
X156920246Y-106089752D01*
X156894169Y-106059656D01*
X156892320Y-106056659D01*
X156892317Y-106056655D01*
X156768346Y-105932684D01*
X156619125Y-105840643D01*
X156619120Y-105840641D01*
X156452698Y-105785494D01*
X156452691Y-105785493D01*
X156349987Y-105775000D01*
X156300001Y-105775000D01*
X156300001Y-108224999D01*
X156349973Y-108224999D01*
X156349987Y-108224998D01*
X156452698Y-108214505D01*
X156619120Y-108159358D01*
X156619125Y-108159356D01*
X156768346Y-108067315D01*
X156892317Y-107943344D01*
X156894163Y-107940352D01*
X156895967Y-107938728D01*
X156896799Y-107937677D01*
X156896978Y-107937819D01*
X156946107Y-107893623D01*
X157015069Y-107882396D01*
X157079153Y-107910235D01*
X157105246Y-107940347D01*
X157107287Y-107943656D01*
X157231343Y-108067712D01*
X157380665Y-108159814D01*
X157547202Y-108214999D01*
X157649990Y-108225500D01*
X158250007Y-108225499D01*
X158250015Y-108225498D01*
X158250018Y-108225498D01*
X158306301Y-108219748D01*
X158352796Y-108214999D01*
X158519333Y-108159814D01*
X158668655Y-108067712D01*
X158792711Y-107943656D01*
X158884813Y-107794334D01*
X158920878Y-107685494D01*
X158960651Y-107628051D01*
X159025166Y-107601228D01*
X159038584Y-107600500D01*
X161125500Y-107600500D01*
X161192539Y-107620185D01*
X161238294Y-107672989D01*
X161249500Y-107724500D01*
X161249500Y-108284191D01*
X161229815Y-108351230D01*
X161213181Y-108371872D01*
X161181923Y-108403129D01*
X161181917Y-108403137D01*
X161098255Y-108544603D01*
X161098254Y-108544606D01*
X161052402Y-108702426D01*
X161052401Y-108702432D01*
X161049500Y-108739298D01*
X161049500Y-109151000D01*
X161046949Y-109159685D01*
X161048238Y-109168647D01*
X161037259Y-109192687D01*
X161029815Y-109218039D01*
X161022974Y-109223966D01*
X161019213Y-109232203D01*
X160996978Y-109246492D01*
X160977011Y-109263794D01*
X160966496Y-109266081D01*
X160960435Y-109269977D01*
X160925500Y-109275000D01*
X160924000Y-109275000D01*
X160856961Y-109255315D01*
X160811206Y-109202511D01*
X160800000Y-109151000D01*
X160800000Y-108157703D01*
X160797503Y-108157900D01*
X160639806Y-108203716D01*
X160639803Y-108203717D01*
X160498447Y-108287314D01*
X160498438Y-108287321D01*
X160422151Y-108363609D01*
X160360828Y-108397094D01*
X160291136Y-108392110D01*
X160287017Y-108390489D01*
X160221687Y-108363428D01*
X160221683Y-108363427D01*
X160180000Y-108355135D01*
X160180000Y-109158011D01*
X160170060Y-109140795D01*
X160114205Y-109084940D01*
X160045796Y-109045444D01*
X159969496Y-109025000D01*
X159890504Y-109025000D01*
X159814204Y-109045444D01*
X159745795Y-109084940D01*
X159689940Y-109140795D01*
X159680000Y-109158011D01*
X159680000Y-108355136D01*
X159679999Y-108355135D01*
X159638316Y-108363427D01*
X159638308Y-108363429D01*
X159456328Y-108438807D01*
X159456315Y-108438814D01*
X159292537Y-108548248D01*
X159292533Y-108548251D01*
X159153251Y-108687533D01*
X159153248Y-108687537D01*
X159043814Y-108851315D01*
X159043807Y-108851328D01*
X158968430Y-109033306D01*
X158968427Y-109033318D01*
X158930000Y-109226504D01*
X158930000Y-109625000D01*
X159630000Y-109625000D01*
X159630000Y-110125000D01*
X158930000Y-110125000D01*
X158930000Y-110523495D01*
X158968427Y-110716681D01*
X158968430Y-110716693D01*
X159043807Y-110898671D01*
X159043814Y-110898684D01*
X159153248Y-111062462D01*
X159153251Y-111062466D01*
X159292533Y-111201748D01*
X159292537Y-111201751D01*
X159456315Y-111311185D01*
X159456328Y-111311192D01*
X159638308Y-111386569D01*
X159680000Y-111394862D01*
X159680000Y-110591988D01*
X159689940Y-110609205D01*
X159745795Y-110665060D01*
X159814204Y-110704556D01*
X159890504Y-110725000D01*
X159969496Y-110725000D01*
X160045796Y-110704556D01*
X160114205Y-110665060D01*
X160170060Y-110609205D01*
X160180000Y-110591988D01*
X160180000Y-111394862D01*
X160221690Y-111386569D01*
X160221692Y-111386569D01*
X160403671Y-111311192D01*
X160403684Y-111311185D01*
X160567462Y-111201751D01*
X160567466Y-111201748D01*
X160706748Y-111062466D01*
X160706751Y-111062462D01*
X160816181Y-110898690D01*
X160819037Y-110893346D01*
X160867993Y-110843495D01*
X160936128Y-110828025D01*
X161001811Y-110851847D01*
X161003895Y-110853412D01*
X161006632Y-110855512D01*
X161006635Y-110855515D01*
X161137865Y-110931281D01*
X161284234Y-110970500D01*
X161284236Y-110970500D01*
X161435764Y-110970500D01*
X161435766Y-110970500D01*
X161582135Y-110931281D01*
X161713365Y-110855515D01*
X161749642Y-110819238D01*
X161757587Y-110814899D01*
X161763013Y-110807652D01*
X161787772Y-110798417D01*
X161810965Y-110785753D01*
X161819994Y-110786398D01*
X161828477Y-110783235D01*
X161854297Y-110788851D01*
X161880657Y-110790737D01*
X161889710Y-110796555D01*
X161896750Y-110798087D01*
X161925004Y-110819238D01*
X162065140Y-110959374D01*
X162065150Y-110959385D01*
X162069480Y-110963715D01*
X162069481Y-110963716D01*
X162181285Y-111075520D01*
X162254601Y-111117848D01*
X162268096Y-111125639D01*
X162268098Y-111125641D01*
X162297486Y-111142608D01*
X162318216Y-111154577D01*
X162470944Y-111195501D01*
X162470947Y-111195501D01*
X162636654Y-111195501D01*
X162636670Y-111195500D01*
X165818331Y-111195500D01*
X165818347Y-111195501D01*
X165825943Y-111195501D01*
X165984054Y-111195501D01*
X165984057Y-111195501D01*
X166136785Y-111154577D01*
X166186904Y-111125639D01*
X166273716Y-111075520D01*
X166385520Y-110963716D01*
X166385520Y-110963714D01*
X166395728Y-110953507D01*
X166395730Y-110953504D01*
X166552497Y-110796736D01*
X166613818Y-110763253D01*
X166683510Y-110768237D01*
X166727857Y-110796737D01*
X166786635Y-110855515D01*
X166917865Y-110931281D01*
X167064234Y-110970500D01*
X167064236Y-110970500D01*
X167215764Y-110970500D01*
X167215766Y-110970500D01*
X167362135Y-110931281D01*
X167493365Y-110855515D01*
X167493373Y-110855506D01*
X167496105Y-110853412D01*
X167498834Y-110852356D01*
X167500403Y-110851451D01*
X167500544Y-110851695D01*
X167561274Y-110828215D01*
X167629719Y-110842251D01*
X167679710Y-110891064D01*
X167680955Y-110893335D01*
X167683812Y-110898680D01*
X167793248Y-111062462D01*
X167793251Y-111062466D01*
X167932533Y-111201748D01*
X167932537Y-111201751D01*
X168096315Y-111311185D01*
X168096328Y-111311192D01*
X168278308Y-111386569D01*
X168320000Y-111394862D01*
X168320000Y-110591988D01*
X168329940Y-110609205D01*
X168385795Y-110665060D01*
X168454204Y-110704556D01*
X168530504Y-110725000D01*
X168609496Y-110725000D01*
X168685796Y-110704556D01*
X168754205Y-110665060D01*
X168810060Y-110609205D01*
X168820000Y-110591988D01*
X168820000Y-111394862D01*
X168861690Y-111386569D01*
X168861692Y-111386569D01*
X169043671Y-111311192D01*
X169043684Y-111311185D01*
X169161843Y-111232233D01*
X174491930Y-111232233D01*
X174512410Y-111374689D01*
X174512411Y-111374693D01*
X174572197Y-111505604D01*
X174572200Y-111505609D01*
X174593705Y-111532294D01*
X174609818Y-111552289D01*
X175992739Y-112935209D01*
X175992743Y-112935212D01*
X175992745Y-112935214D01*
X176039420Y-112972829D01*
X176170334Y-113032616D01*
X176170335Y-113032616D01*
X176170337Y-113032617D01*
X176204531Y-113037533D01*
X176312794Y-113053098D01*
X176312794Y-113053097D01*
X176312795Y-113053098D01*
X176455252Y-113032617D01*
X176586168Y-112972829D01*
X176632850Y-112935210D01*
X177570293Y-111997766D01*
X177607913Y-111951084D01*
X177667701Y-111820168D01*
X177688182Y-111677711D01*
X177686215Y-111664032D01*
X177670746Y-111556434D01*
X177667701Y-111535253D01*
X177661224Y-111521071D01*
X177607914Y-111404339D01*
X177607911Y-111404334D01*
X177570297Y-111357659D01*
X177570291Y-111357652D01*
X177523824Y-111311185D01*
X177368616Y-111155978D01*
X177364278Y-111148033D01*
X177357031Y-111142608D01*
X177347796Y-111117848D01*
X177335132Y-111094656D01*
X177335777Y-111085626D01*
X177332614Y-111077144D01*
X177338230Y-111051323D01*
X177340116Y-111024965D01*
X177345934Y-111015911D01*
X177347466Y-111008871D01*
X177368617Y-110980617D01*
X177395733Y-110953501D01*
X177514661Y-110834572D01*
X177575983Y-110801089D01*
X177578150Y-110800638D01*
X177649737Y-110786398D01*
X177733497Y-110769737D01*
X177861558Y-110716693D01*
X177879172Y-110709397D01*
X177879172Y-110709396D01*
X177879179Y-110709394D01*
X178010289Y-110621789D01*
X178121789Y-110510289D01*
X178209394Y-110379179D01*
X178209395Y-110379176D01*
X178209397Y-110379173D01*
X178258706Y-110260128D01*
X178302546Y-110205724D01*
X178325815Y-110193019D01*
X178444860Y-110143710D01*
X178444863Y-110143708D01*
X178444866Y-110143707D01*
X178575976Y-110056102D01*
X178687476Y-109944602D01*
X178775081Y-109813492D01*
X178835424Y-109667810D01*
X178863777Y-109525270D01*
X178866325Y-109512463D01*
X178875089Y-109495706D01*
X178879110Y-109477227D01*
X178897854Y-109452188D01*
X178898710Y-109450552D01*
X178900213Y-109449020D01*
X179003131Y-109346102D01*
X179064454Y-109312618D01*
X179134146Y-109317602D01*
X179178493Y-109346103D01*
X179357655Y-109525265D01*
X179357659Y-109525268D01*
X179357661Y-109525270D01*
X179404336Y-109562885D01*
X179535250Y-109622672D01*
X179535251Y-109622672D01*
X179535253Y-109622673D01*
X179551439Y-109625000D01*
X179677710Y-109643154D01*
X179677710Y-109643153D01*
X179677711Y-109643154D01*
X179820168Y-109622673D01*
X179951084Y-109562885D01*
X179997766Y-109525266D01*
X180935209Y-108587822D01*
X180972829Y-108541140D01*
X181032617Y-108410224D01*
X181053098Y-108267767D01*
X181045511Y-108214998D01*
X181037512Y-108159356D01*
X181032617Y-108125309D01*
X181029385Y-108118233D01*
X180972830Y-107994395D01*
X180972827Y-107994390D01*
X180935213Y-107947715D01*
X180935207Y-107947708D01*
X179552292Y-106564794D01*
X179552282Y-106564785D01*
X179505607Y-106527170D01*
X179374693Y-106467383D01*
X179374689Y-106467382D01*
X179232233Y-106446902D01*
X179089777Y-106467382D01*
X179089773Y-106467383D01*
X178958862Y-106527169D01*
X178958857Y-106527172D01*
X178912182Y-106564786D01*
X178912175Y-106564792D01*
X177974738Y-107502230D01*
X177974729Y-107502240D01*
X177937114Y-107548915D01*
X177877327Y-107679829D01*
X177877326Y-107679833D01*
X177856846Y-107822289D01*
X177877326Y-107964745D01*
X177877327Y-107964749D01*
X177937113Y-108095660D01*
X177937116Y-108095665D01*
X177955303Y-108118233D01*
X177974734Y-108142345D01*
X178100156Y-108267767D01*
X178153896Y-108321506D01*
X178158234Y-108329451D01*
X178165482Y-108334877D01*
X178174716Y-108359635D01*
X178187381Y-108382829D01*
X178186735Y-108391859D01*
X178189899Y-108400342D01*
X178184281Y-108426162D01*
X178182397Y-108452520D01*
X178176578Y-108461573D01*
X178175047Y-108468614D01*
X178153897Y-108496866D01*
X178110880Y-108539884D01*
X178051025Y-108599739D01*
X177989702Y-108633223D01*
X177987536Y-108633674D01*
X177832195Y-108664574D01*
X177832185Y-108664577D01*
X177686514Y-108724915D01*
X177686501Y-108724922D01*
X177555398Y-108812523D01*
X177555394Y-108812526D01*
X177443900Y-108924020D01*
X177443897Y-108924024D01*
X177356296Y-109055127D01*
X177356291Y-109055137D01*
X177306980Y-109174185D01*
X177263139Y-109228588D01*
X177239872Y-109241293D01*
X177120824Y-109290604D01*
X177120814Y-109290609D01*
X176989711Y-109378210D01*
X176989707Y-109378213D01*
X176878213Y-109489707D01*
X176878210Y-109489711D01*
X176790609Y-109620814D01*
X176790602Y-109620827D01*
X176730264Y-109766498D01*
X176730261Y-109766508D01*
X176699361Y-109921850D01*
X176690595Y-109938606D01*
X176686576Y-109957085D01*
X176667833Y-109982121D01*
X176666976Y-109983761D01*
X176665425Y-109985339D01*
X176519382Y-110131382D01*
X176458059Y-110164867D01*
X176388367Y-110159883D01*
X176344020Y-110131382D01*
X176187376Y-109974738D01*
X176187366Y-109974729D01*
X176140691Y-109937114D01*
X176009777Y-109877327D01*
X176009773Y-109877326D01*
X175867317Y-109856846D01*
X175724861Y-109877326D01*
X175724857Y-109877327D01*
X175593946Y-109937113D01*
X175593941Y-109937116D01*
X175547266Y-109974730D01*
X175547259Y-109974736D01*
X174609822Y-110912174D01*
X174609813Y-110912184D01*
X174572198Y-110958859D01*
X174512411Y-111089773D01*
X174512410Y-111089777D01*
X174491930Y-111232233D01*
X169161843Y-111232233D01*
X169207462Y-111201751D01*
X169207466Y-111201748D01*
X169273531Y-111135684D01*
X169346748Y-111062466D01*
X169346751Y-111062462D01*
X169456185Y-110898684D01*
X169456192Y-110898671D01*
X169531569Y-110716693D01*
X169531572Y-110716681D01*
X169569999Y-110523495D01*
X169570000Y-110523492D01*
X169570000Y-110125000D01*
X168870000Y-110125000D01*
X168870000Y-109625000D01*
X169570000Y-109625000D01*
X169570000Y-109226508D01*
X169569999Y-109226504D01*
X169531572Y-109033318D01*
X169531569Y-109033306D01*
X169456192Y-108851328D01*
X169456185Y-108851315D01*
X169346751Y-108687537D01*
X169346748Y-108687533D01*
X169207466Y-108548251D01*
X169207462Y-108548248D01*
X169043684Y-108438814D01*
X169043671Y-108438807D01*
X168861691Y-108363429D01*
X168861683Y-108363427D01*
X168820000Y-108355135D01*
X168820000Y-109158011D01*
X168810060Y-109140795D01*
X168754205Y-109084940D01*
X168685796Y-109045444D01*
X168609496Y-109025000D01*
X168530504Y-109025000D01*
X168454204Y-109045444D01*
X168385795Y-109084940D01*
X168329940Y-109140795D01*
X168320000Y-109158011D01*
X168320000Y-108355136D01*
X168319999Y-108355135D01*
X168278316Y-108363427D01*
X168278313Y-108363428D01*
X168212980Y-108390489D01*
X168143510Y-108397956D01*
X168081032Y-108366681D01*
X168077848Y-108363608D01*
X168001561Y-108287321D01*
X168001552Y-108287314D01*
X167860196Y-108203717D01*
X167860193Y-108203716D01*
X167702494Y-108157900D01*
X167702497Y-108157900D01*
X167700000Y-108157703D01*
X167700000Y-109151000D01*
X167697449Y-109159685D01*
X167698738Y-109168647D01*
X167687759Y-109192687D01*
X167680315Y-109218039D01*
X167673474Y-109223966D01*
X167669713Y-109232203D01*
X167647478Y-109246492D01*
X167627511Y-109263794D01*
X167616996Y-109266081D01*
X167610935Y-109269977D01*
X167576000Y-109275000D01*
X167574500Y-109275000D01*
X167507461Y-109255315D01*
X167461706Y-109202511D01*
X167450500Y-109151000D01*
X167450500Y-108739313D01*
X167450499Y-108739298D01*
X167447598Y-108702432D01*
X167447597Y-108702426D01*
X167401745Y-108544606D01*
X167401744Y-108544603D01*
X167401744Y-108544602D01*
X167318081Y-108403135D01*
X167318079Y-108403133D01*
X167318076Y-108403129D01*
X167286819Y-108371872D01*
X167253334Y-108310549D01*
X167250500Y-108284191D01*
X167250500Y-105920172D01*
X181933381Y-105920172D01*
X181933381Y-105920173D01*
X182448029Y-106434821D01*
X182448036Y-106434827D01*
X182494667Y-106472405D01*
X182494669Y-106472406D01*
X182625447Y-106532132D01*
X182625452Y-106532133D01*
X182767766Y-106552593D01*
X182910080Y-106532133D01*
X182910085Y-106532132D01*
X183040864Y-106472406D01*
X183087499Y-106434826D01*
X183379414Y-106142911D01*
X183379414Y-106142910D01*
X182545028Y-105308525D01*
X182545027Y-105308525D01*
X181933381Y-105920172D01*
X167250500Y-105920172D01*
X167250500Y-105580535D01*
X167270185Y-105513496D01*
X167286819Y-105492854D01*
X167324281Y-105455392D01*
X167412549Y-105312288D01*
X167465436Y-105152686D01*
X167475500Y-105054175D01*
X167475500Y-104732233D01*
X180947406Y-104732233D01*
X180967866Y-104874547D01*
X180967867Y-104874552D01*
X181027593Y-105005330D01*
X181027594Y-105005332D01*
X181065172Y-105051963D01*
X181065178Y-105051970D01*
X181579827Y-105566619D01*
X181579828Y-105566619D01*
X182191474Y-104954971D01*
X181357088Y-104120585D01*
X181357087Y-104120585D01*
X181065177Y-104412495D01*
X181027593Y-104459135D01*
X180967867Y-104589914D01*
X180967866Y-104589919D01*
X180947406Y-104732233D01*
X167475500Y-104732233D01*
X167475500Y-104520827D01*
X167465436Y-104422316D01*
X167412549Y-104262714D01*
X167412545Y-104262708D01*
X167412544Y-104262705D01*
X167324283Y-104119613D01*
X167324280Y-104119609D01*
X167292352Y-104087681D01*
X167258867Y-104026358D01*
X167263851Y-103956666D01*
X167292352Y-103912319D01*
X167324281Y-103880390D01*
X167394202Y-103767031D01*
X181710641Y-103767031D01*
X181710641Y-103767032D01*
X182545026Y-104601418D01*
X182545027Y-104601418D01*
X183156675Y-103989771D01*
X182642026Y-103475122D01*
X182642019Y-103475116D01*
X182595388Y-103437538D01*
X182595386Y-103437537D01*
X182464608Y-103377811D01*
X182464603Y-103377810D01*
X182322289Y-103357350D01*
X182179975Y-103377810D01*
X182179970Y-103377811D01*
X182049191Y-103437537D01*
X182002551Y-103475121D01*
X181710641Y-103767031D01*
X167394202Y-103767031D01*
X167412549Y-103737286D01*
X167465436Y-103577684D01*
X167475500Y-103479173D01*
X167475500Y-102945825D01*
X167465436Y-102847314D01*
X167412549Y-102687712D01*
X167412545Y-102687706D01*
X167412544Y-102687703D01*
X167324283Y-102544611D01*
X167324280Y-102544607D01*
X167205391Y-102425718D01*
X167205387Y-102425715D01*
X167062295Y-102337454D01*
X167062289Y-102337451D01*
X167062287Y-102337450D01*
X166902685Y-102284563D01*
X166902683Y-102284562D01*
X166804181Y-102274499D01*
X166804174Y-102274499D01*
X166195826Y-102274499D01*
X166195818Y-102274499D01*
X166097316Y-102284562D01*
X166097315Y-102284563D01*
X165937713Y-102337450D01*
X165937711Y-102337451D01*
X165930858Y-102339722D01*
X165930348Y-102338183D01*
X165869853Y-102347359D01*
X165806074Y-102318826D01*
X165771989Y-102271940D01*
X165709397Y-102120827D01*
X165709390Y-102120814D01*
X165621789Y-101989711D01*
X165621786Y-101989707D01*
X165510292Y-101878213D01*
X165510288Y-101878210D01*
X165379185Y-101790609D01*
X165379172Y-101790602D01*
X165233501Y-101730264D01*
X165233489Y-101730261D01*
X165078845Y-101699500D01*
X165078842Y-101699500D01*
X164921158Y-101699500D01*
X164921155Y-101699500D01*
X164766510Y-101730261D01*
X164766498Y-101730264D01*
X164620827Y-101790602D01*
X164620814Y-101790609D01*
X164489711Y-101878210D01*
X164489707Y-101878213D01*
X164378213Y-101989707D01*
X164378210Y-101989711D01*
X164290609Y-102120814D01*
X164290602Y-102120827D01*
X164230264Y-102266498D01*
X164230261Y-102266510D01*
X164199500Y-102421153D01*
X164199500Y-102578846D01*
X164230261Y-102733489D01*
X164230264Y-102733501D01*
X164292937Y-102884808D01*
X164291389Y-102885448D01*
X164303995Y-102945983D01*
X164287127Y-102999157D01*
X164227133Y-103100602D01*
X164227129Y-103100611D01*
X164182335Y-103254791D01*
X164182334Y-103254797D01*
X164179500Y-103290811D01*
X164179500Y-103689169D01*
X164179501Y-103689191D01*
X164182335Y-103725205D01*
X164227129Y-103879388D01*
X164227132Y-103879395D01*
X164261128Y-103936881D01*
X164278309Y-104004605D01*
X164261128Y-104063119D01*
X164227132Y-104120604D01*
X164227129Y-104120611D01*
X164182335Y-104274791D01*
X164182334Y-104274797D01*
X164179500Y-104310811D01*
X164179500Y-104709169D01*
X164179501Y-104709191D01*
X164182335Y-104745205D01*
X164227129Y-104899388D01*
X164227131Y-104899393D01*
X164308863Y-105037595D01*
X164308869Y-105037603D01*
X164422396Y-105151130D01*
X164422400Y-105151133D01*
X164422402Y-105151135D01*
X164560607Y-105232869D01*
X164564280Y-105233936D01*
X164714791Y-105277664D01*
X164714794Y-105277664D01*
X164714796Y-105277665D01*
X164750819Y-105280500D01*
X165249180Y-105280499D01*
X165285204Y-105277665D01*
X165435720Y-105233936D01*
X165505589Y-105234135D01*
X165564259Y-105272077D01*
X165583559Y-105306134D01*
X165584399Y-105305743D01*
X165587452Y-105312291D01*
X165675716Y-105455388D01*
X165675719Y-105455392D01*
X165735758Y-105515431D01*
X165769243Y-105576754D01*
X165764259Y-105646446D01*
X165722387Y-105702379D01*
X165682672Y-105722188D01*
X165560811Y-105757592D01*
X165560808Y-105757593D01*
X165422714Y-105839261D01*
X165422705Y-105839268D01*
X165309268Y-105952705D01*
X165309261Y-105952714D01*
X165227593Y-106090808D01*
X165227591Y-106090812D01*
X165221340Y-106112328D01*
X165183732Y-106171213D01*
X165120258Y-106200417D01*
X165084963Y-106199523D01*
X165084907Y-106200097D01*
X165078845Y-106199500D01*
X165078842Y-106199500D01*
X164921158Y-106199500D01*
X164921155Y-106199500D01*
X164766510Y-106230261D01*
X164766498Y-106230264D01*
X164620827Y-106290602D01*
X164620814Y-106290609D01*
X164568891Y-106325304D01*
X164502214Y-106346182D01*
X164434833Y-106327698D01*
X164431109Y-106325304D01*
X164379185Y-106290609D01*
X164379172Y-106290602D01*
X164233501Y-106230264D01*
X164233489Y-106230261D01*
X164078845Y-106199500D01*
X164078842Y-106199500D01*
X163921158Y-106199500D01*
X163921151Y-106199500D01*
X163919173Y-106199894D01*
X163918116Y-106199799D01*
X163915095Y-106200097D01*
X163915038Y-106199523D01*
X163849582Y-106193664D01*
X163794406Y-106150799D01*
X163775910Y-106112868D01*
X163772406Y-106100809D01*
X163772406Y-106100808D01*
X163690738Y-105962714D01*
X163690731Y-105962705D01*
X163577294Y-105849268D01*
X163577285Y-105849261D01*
X163439191Y-105767593D01*
X163439188Y-105767592D01*
X163285129Y-105722833D01*
X163285115Y-105722831D01*
X163278317Y-105722296D01*
X163213030Y-105697410D01*
X163171561Y-105641177D01*
X163167077Y-105571452D01*
X163200369Y-105510999D01*
X163242712Y-105468657D01*
X163334814Y-105319335D01*
X163389999Y-105152798D01*
X163400500Y-105050010D01*
X163400499Y-102949993D01*
X163400072Y-102945817D01*
X163389999Y-102847204D01*
X163389998Y-102847201D01*
X163352320Y-102733497D01*
X163334814Y-102680667D01*
X163242712Y-102531345D01*
X163118656Y-102407289D01*
X162969334Y-102315187D01*
X162802797Y-102260002D01*
X162802795Y-102260001D01*
X162700010Y-102249501D01*
X161299998Y-102249501D01*
X161299981Y-102249502D01*
X161197203Y-102260001D01*
X161197200Y-102260002D01*
X161030668Y-102315186D01*
X161030663Y-102315188D01*
X160881342Y-102407290D01*
X160757289Y-102531343D01*
X160665187Y-102680664D01*
X160665185Y-102680669D01*
X160641361Y-102752567D01*
X160610001Y-102847204D01*
X160610001Y-102847205D01*
X160610000Y-102847205D01*
X160599500Y-102949984D01*
X160599500Y-105050002D01*
X160599501Y-105050019D01*
X160610000Y-105152797D01*
X160625749Y-105200322D01*
X160637736Y-105236496D01*
X160640138Y-105306324D01*
X160604407Y-105366366D01*
X160541886Y-105397559D01*
X160520030Y-105399500D01*
X159300097Y-105399500D01*
X159233058Y-105379815D01*
X159212416Y-105363181D01*
X158389512Y-104540277D01*
X158377831Y-104518885D01*
X158362562Y-104499881D01*
X158361383Y-104488763D01*
X158356027Y-104478954D01*
X158357765Y-104454640D01*
X158355196Y-104430400D01*
X158360213Y-104420412D01*
X158361011Y-104409262D01*
X158375619Y-104389748D01*
X158386562Y-104367967D01*
X158400018Y-104357155D01*
X158402883Y-104353329D01*
X158414076Y-104345861D01*
X158426392Y-104338578D01*
X158494117Y-104321399D01*
X158552628Y-104338580D01*
X158610607Y-104372869D01*
X158651268Y-104384682D01*
X158764791Y-104417664D01*
X158764794Y-104417664D01*
X158764796Y-104417665D01*
X158800819Y-104420500D01*
X159199180Y-104420499D01*
X159235204Y-104417665D01*
X159389393Y-104372869D01*
X159527598Y-104291135D01*
X159641135Y-104177598D01*
X159722869Y-104039393D01*
X159767665Y-103885204D01*
X159770500Y-103849181D01*
X159770499Y-103350820D01*
X159767665Y-103314796D01*
X159722869Y-103160607D01*
X159675649Y-103080762D01*
X159658466Y-103013038D01*
X159675650Y-102954519D01*
X159701741Y-102910401D01*
X159701743Y-102910398D01*
X159747597Y-102752569D01*
X159750499Y-102715694D01*
X159750499Y-101559306D01*
X159747597Y-101522431D01*
X159737989Y-101489361D01*
X159701744Y-101364606D01*
X159701743Y-101364603D01*
X159701743Y-101364602D01*
X159618080Y-101223135D01*
X159618078Y-101223133D01*
X159618075Y-101223129D01*
X159501869Y-101106923D01*
X159501866Y-101106921D01*
X159501864Y-101106919D01*
X159501548Y-101106732D01*
X159501352Y-101106522D01*
X159495701Y-101102139D01*
X159496408Y-101101227D01*
X159453865Y-101055664D01*
X159441361Y-100986923D01*
X159468005Y-100922333D01*
X159495920Y-100898144D01*
X159495701Y-100897861D01*
X159500910Y-100893820D01*
X159501549Y-100893267D01*
X159501864Y-100893081D01*
X159618080Y-100776865D01*
X159701743Y-100635398D01*
X159747597Y-100477569D01*
X159750499Y-100440694D01*
X159750499Y-99284306D01*
X159747597Y-99247431D01*
X159701743Y-99089602D01*
X159679031Y-99051198D01*
X159661848Y-98983474D01*
X159682661Y-98919186D01*
X159709394Y-98879179D01*
X159769737Y-98733497D01*
X159800500Y-98578842D01*
X159800500Y-98421158D01*
X159800500Y-98421155D01*
X159800499Y-98421153D01*
X159790208Y-98369416D01*
X159769737Y-98266503D01*
X159750476Y-98220003D01*
X159709397Y-98120827D01*
X159709390Y-98120814D01*
X159621789Y-97989711D01*
X159621786Y-97989707D01*
X159510292Y-97878213D01*
X159510288Y-97878210D01*
X159379185Y-97790609D01*
X159379172Y-97790602D01*
X159233501Y-97730264D01*
X159233489Y-97730261D01*
X159078845Y-97699500D01*
X159078842Y-97699500D01*
X158921158Y-97699500D01*
X158921155Y-97699500D01*
X158766510Y-97730261D01*
X158766498Y-97730264D01*
X158620827Y-97790602D01*
X158620814Y-97790609D01*
X158489711Y-97878210D01*
X158489707Y-97878213D01*
X158378213Y-97989707D01*
X158378210Y-97989711D01*
X158290609Y-98120814D01*
X158290602Y-98120827D01*
X158230264Y-98266498D01*
X158230261Y-98266510D01*
X158199500Y-98421153D01*
X158199500Y-98578846D01*
X158230261Y-98733489D01*
X158230263Y-98733497D01*
X158240561Y-98758358D01*
X158242187Y-98766535D01*
X158244977Y-98770876D01*
X158250000Y-98805811D01*
X158250000Y-98968183D01*
X158232732Y-99031303D01*
X158198256Y-99089599D01*
X158198253Y-99089606D01*
X158152401Y-99247426D01*
X158152400Y-99247432D01*
X158149499Y-99284298D01*
X158149499Y-100440701D01*
X158152400Y-100477567D01*
X158152401Y-100477573D01*
X158198253Y-100635393D01*
X158198254Y-100635396D01*
X158232732Y-100693695D01*
X158250000Y-100756816D01*
X158250000Y-101022296D01*
X158276247Y-101046559D01*
X158312113Y-101106520D01*
X158309868Y-101176354D01*
X158285470Y-101216014D01*
X158286701Y-101216969D01*
X158281916Y-101223137D01*
X158198254Y-101364603D01*
X158198253Y-101364606D01*
X158152401Y-101522426D01*
X158152400Y-101522432D01*
X158149499Y-101559298D01*
X158149499Y-102715701D01*
X158152400Y-102752567D01*
X158152401Y-102752573D01*
X158198252Y-102910393D01*
X158198254Y-102910396D01*
X158198255Y-102910398D01*
X158212734Y-102934882D01*
X158230002Y-102998001D01*
X158230002Y-103339566D01*
X158230001Y-103340021D01*
X158229983Y-103344669D01*
X158229500Y-103350819D01*
X158229500Y-103476386D01*
X158229500Y-103476455D01*
X158219596Y-103509731D01*
X158209817Y-103543039D01*
X158209637Y-103543194D01*
X158209570Y-103543422D01*
X158183210Y-103566093D01*
X158157013Y-103588794D01*
X158156751Y-103588850D01*
X158156598Y-103588983D01*
X158155324Y-103589161D01*
X158105501Y-103600000D01*
X157854002Y-103600000D01*
X157786963Y-103580315D01*
X157741208Y-103527511D01*
X157730002Y-103476000D01*
X157730002Y-103065631D01*
X157747270Y-103002510D01*
X157749937Y-102998001D01*
X157801745Y-102910398D01*
X157847599Y-102752569D01*
X157850501Y-102715694D01*
X157850501Y-101559306D01*
X157847599Y-101522431D01*
X157837991Y-101489361D01*
X157801746Y-101364606D01*
X157801745Y-101364603D01*
X157801745Y-101364602D01*
X157718082Y-101223135D01*
X157718079Y-101223132D01*
X157713299Y-101216969D01*
X157714983Y-101215662D01*
X157686758Y-101163972D01*
X157691742Y-101094280D01*
X157723753Y-101046558D01*
X157750000Y-101022295D01*
X157750000Y-100756816D01*
X157767268Y-100693695D01*
X157772451Y-100684931D01*
X157801745Y-100635398D01*
X157847599Y-100477569D01*
X157850501Y-100440694D01*
X157850501Y-99284306D01*
X157847599Y-99247431D01*
X157801745Y-99089602D01*
X157778621Y-99050501D01*
X157767268Y-99031303D01*
X157750000Y-98968183D01*
X157750000Y-98702703D01*
X157736144Y-98689900D01*
X157715890Y-98685653D01*
X157666116Y-98636619D01*
X157650500Y-98576378D01*
X157650500Y-97209797D01*
X157670185Y-97142758D01*
X157709403Y-97104258D01*
X157768656Y-97067712D01*
X157892712Y-96943656D01*
X157894752Y-96940347D01*
X157896745Y-96938555D01*
X157897193Y-96937989D01*
X157897289Y-96938065D01*
X157946694Y-96893623D01*
X158015656Y-96882395D01*
X158079740Y-96910234D01*
X158105829Y-96940339D01*
X158107681Y-96943341D01*
X158107683Y-96943344D01*
X158231654Y-97067315D01*
X158380875Y-97159356D01*
X158380880Y-97159358D01*
X158547302Y-97214505D01*
X158547309Y-97214506D01*
X158650019Y-97224999D01*
X159200000Y-97224999D01*
X159249972Y-97224999D01*
X159249986Y-97224998D01*
X159352697Y-97214505D01*
X159519119Y-97159358D01*
X159519124Y-97159356D01*
X159668345Y-97067315D01*
X159792315Y-96943345D01*
X159884356Y-96794124D01*
X159884358Y-96794119D01*
X159939505Y-96627697D01*
X159939506Y-96627690D01*
X159949999Y-96524986D01*
X159950000Y-96524973D01*
X159950000Y-96250000D01*
X159200000Y-96250000D01*
X159200000Y-97224999D01*
X158650019Y-97224999D01*
X158699999Y-97224998D01*
X158700000Y-97224998D01*
X158700000Y-96124000D01*
X158719685Y-96056961D01*
X158772489Y-96011206D01*
X158824000Y-96000000D01*
X158950000Y-96000000D01*
X158950000Y-95874000D01*
X158969685Y-95806961D01*
X159022489Y-95761206D01*
X159074000Y-95750000D01*
X159960223Y-95750000D01*
X159999024Y-95728813D01*
X160068716Y-95733797D01*
X160113063Y-95762298D01*
X161363181Y-97012416D01*
X161396666Y-97073739D01*
X161399500Y-97100097D01*
X161399500Y-97920939D01*
X161399499Y-97920943D01*
X161399499Y-98079057D01*
X161399500Y-98079060D01*
X161399500Y-98127356D01*
X161379815Y-98194395D01*
X161327011Y-98240150D01*
X161288102Y-98250714D01*
X161197202Y-98260000D01*
X161197200Y-98260000D01*
X161030668Y-98315184D01*
X161030663Y-98315186D01*
X160881342Y-98407288D01*
X160757289Y-98531341D01*
X160665187Y-98680662D01*
X160665186Y-98680665D01*
X160610001Y-98847202D01*
X160610001Y-98847203D01*
X160610000Y-98847203D01*
X160599500Y-98949982D01*
X160599500Y-101050000D01*
X160599501Y-101050017D01*
X160610000Y-101152795D01*
X160610001Y-101152798D01*
X160665185Y-101319330D01*
X160665187Y-101319335D01*
X160682801Y-101347892D01*
X160757288Y-101468655D01*
X160881344Y-101592711D01*
X161030666Y-101684813D01*
X161197203Y-101739998D01*
X161299991Y-101750499D01*
X162700008Y-101750498D01*
X162802797Y-101739998D01*
X162969334Y-101684813D01*
X163118656Y-101592711D01*
X163242712Y-101468655D01*
X163334814Y-101319333D01*
X163389999Y-101152796D01*
X163400500Y-101050008D01*
X163400499Y-100249985D01*
X164775001Y-100249985D01*
X164785494Y-100352696D01*
X164840641Y-100519118D01*
X164840643Y-100519123D01*
X164932684Y-100668344D01*
X165056654Y-100792314D01*
X165205875Y-100884355D01*
X165205880Y-100884357D01*
X165372302Y-100939504D01*
X165372309Y-100939505D01*
X165475019Y-100949998D01*
X165749999Y-100949998D01*
X166250000Y-100949998D01*
X166524972Y-100949998D01*
X166524986Y-100949997D01*
X166627697Y-100939504D01*
X166794119Y-100884357D01*
X166794124Y-100884355D01*
X166943345Y-100792314D01*
X167067315Y-100668344D01*
X167159356Y-100519123D01*
X167159358Y-100519118D01*
X167214505Y-100352696D01*
X167214506Y-100352689D01*
X167224999Y-100249985D01*
X167225000Y-100249972D01*
X167225000Y-100199999D01*
X166250000Y-100199999D01*
X166250000Y-100949998D01*
X165749999Y-100949998D01*
X165750000Y-100949997D01*
X165750000Y-100199999D01*
X164775001Y-100199999D01*
X164775001Y-100249985D01*
X163400499Y-100249985D01*
X163400499Y-99961999D01*
X163400499Y-98949997D01*
X163400498Y-98949980D01*
X163389999Y-98847202D01*
X163389998Y-98847199D01*
X163378833Y-98813505D01*
X163376431Y-98743677D01*
X163412163Y-98683635D01*
X163474683Y-98652442D01*
X163496539Y-98650501D01*
X164790202Y-98650501D01*
X164857241Y-98670186D01*
X164895739Y-98709402D01*
X164932288Y-98768657D01*
X164932289Y-98768658D01*
X165056344Y-98892713D01*
X165059653Y-98894754D01*
X165061445Y-98896746D01*
X165062011Y-98897194D01*
X165061934Y-98897290D01*
X165106378Y-98946701D01*
X165117601Y-99015664D01*
X165089758Y-99079746D01*
X165059665Y-99105825D01*
X165056659Y-99107678D01*
X164932684Y-99231653D01*
X164840643Y-99380874D01*
X164840641Y-99380879D01*
X164785494Y-99547301D01*
X164785493Y-99547308D01*
X164775000Y-99650012D01*
X164775000Y-99699999D01*
X167224999Y-99699999D01*
X167224999Y-99650027D01*
X167224998Y-99650012D01*
X167214505Y-99547301D01*
X167159358Y-99380879D01*
X167159356Y-99380874D01*
X167067315Y-99231653D01*
X166943344Y-99107682D01*
X166943341Y-99107680D01*
X166940339Y-99105828D01*
X166938713Y-99104020D01*
X166937677Y-99103201D01*
X166937817Y-99103023D01*
X166893618Y-99053878D01*
X166882399Y-98984914D01*
X166910246Y-98920834D01*
X166940348Y-98894752D01*
X166943656Y-98892713D01*
X167067712Y-98768657D01*
X167104259Y-98709403D01*
X167156207Y-98662680D01*
X167209798Y-98650501D01*
X167574905Y-98650501D01*
X167604345Y-98659145D01*
X167634332Y-98665669D01*
X167639347Y-98669423D01*
X167641944Y-98670186D01*
X167662586Y-98686820D01*
X167666233Y-98690467D01*
X167699718Y-98751790D01*
X167702170Y-98787876D01*
X167699500Y-98821797D01*
X167699500Y-99253200D01*
X167702401Y-99290066D01*
X167702402Y-99290072D01*
X167748254Y-99447892D01*
X167748256Y-99447898D01*
X167749426Y-99449876D01*
X167749869Y-99451625D01*
X167751353Y-99455053D01*
X167750799Y-99455292D01*
X167766603Y-99517601D01*
X167751249Y-99569894D01*
X167751817Y-99570140D01*
X167749827Y-99574738D01*
X167749428Y-99576098D01*
X167748722Y-99577290D01*
X167748716Y-99577305D01*
X167702900Y-99735004D01*
X167702899Y-99735010D01*
X167702704Y-99737497D01*
X167702705Y-99737499D01*
X167968185Y-99737499D01*
X168031306Y-99754767D01*
X168089602Y-99789243D01*
X168131224Y-99801335D01*
X168247426Y-99835096D01*
X168247429Y-99835096D01*
X168247431Y-99835097D01*
X168284306Y-99837999D01*
X168738500Y-99837999D01*
X168747185Y-99840549D01*
X168756147Y-99839261D01*
X168780187Y-99850239D01*
X168805539Y-99857684D01*
X168811466Y-99864524D01*
X168819703Y-99868286D01*
X168833992Y-99890520D01*
X168851294Y-99910488D01*
X168853581Y-99921002D01*
X168857477Y-99927064D01*
X168862500Y-99961999D01*
X168862500Y-100012999D01*
X168842815Y-100080038D01*
X168790011Y-100125793D01*
X168738500Y-100136999D01*
X168284298Y-100136999D01*
X168247432Y-100139900D01*
X168247426Y-100139901D01*
X168089606Y-100185753D01*
X168089603Y-100185754D01*
X168031306Y-100220231D01*
X167968185Y-100237499D01*
X167702705Y-100237499D01*
X167702704Y-100237500D01*
X167702899Y-100239987D01*
X167702900Y-100239993D01*
X167748716Y-100397692D01*
X167748720Y-100397702D01*
X167749427Y-100398897D01*
X167749695Y-100399953D01*
X167751816Y-100404855D01*
X167751024Y-100405197D01*
X167766603Y-100466622D01*
X167750993Y-100519783D01*
X167751355Y-100519940D01*
X167750087Y-100522868D01*
X167749427Y-100525119D01*
X167748259Y-100527093D01*
X167748254Y-100527106D01*
X167702402Y-100684925D01*
X167702401Y-100684931D01*
X167699500Y-100721797D01*
X167699500Y-101153200D01*
X167702401Y-101190066D01*
X167702402Y-101190072D01*
X167748254Y-101347892D01*
X167748255Y-101347895D01*
X167831917Y-101489361D01*
X167831923Y-101489369D01*
X167948129Y-101605575D01*
X167948133Y-101605578D01*
X167948135Y-101605580D01*
X168089602Y-101689243D01*
X168131224Y-101701335D01*
X168247426Y-101735096D01*
X168247429Y-101735096D01*
X168247431Y-101735097D01*
X168284306Y-101737999D01*
X168284314Y-101737999D01*
X169440686Y-101737999D01*
X169440694Y-101737999D01*
X169477569Y-101735097D01*
X169477571Y-101735096D01*
X169477573Y-101735096D01*
X169519191Y-101723004D01*
X169635398Y-101689243D01*
X169776865Y-101605580D01*
X169893081Y-101489364D01*
X169893261Y-101489058D01*
X169893464Y-101488868D01*
X169897861Y-101483201D01*
X169898774Y-101483909D01*
X169944323Y-101441371D01*
X170013063Y-101428859D01*
X170077656Y-101455497D01*
X170101856Y-101483420D01*
X170102139Y-101483201D01*
X170106167Y-101488395D01*
X170106725Y-101489038D01*
X170106913Y-101489355D01*
X170106923Y-101489369D01*
X170223129Y-101605575D01*
X170223133Y-101605578D01*
X170223135Y-101605580D01*
X170364602Y-101689243D01*
X170406224Y-101701335D01*
X170522426Y-101735096D01*
X170522429Y-101735096D01*
X170522431Y-101735097D01*
X170559306Y-101737999D01*
X170559314Y-101737999D01*
X171715686Y-101737999D01*
X171715694Y-101737999D01*
X171752569Y-101735097D01*
X171752571Y-101735096D01*
X171752573Y-101735096D01*
X171794191Y-101723004D01*
X171910398Y-101689243D01*
X172051865Y-101605580D01*
X172168081Y-101489364D01*
X172251744Y-101347897D01*
X172285505Y-101231690D01*
X172297597Y-101190072D01*
X172297598Y-101190066D01*
X172298677Y-101176354D01*
X172300500Y-101153193D01*
X172300500Y-100721805D01*
X172297598Y-100684930D01*
X172292779Y-100668344D01*
X172251745Y-100527105D01*
X172251744Y-100527102D01*
X172251744Y-100527101D01*
X172168081Y-100385634D01*
X172168079Y-100385632D01*
X172168076Y-100385628D01*
X172051870Y-100269422D01*
X172051862Y-100269416D01*
X171910396Y-100185754D01*
X171910393Y-100185753D01*
X171752573Y-100139901D01*
X171752567Y-100139900D01*
X171715701Y-100136999D01*
X171715694Y-100136999D01*
X170724500Y-100136999D01*
X170715814Y-100134448D01*
X170706853Y-100135737D01*
X170682812Y-100124758D01*
X170657461Y-100117314D01*
X170651533Y-100110473D01*
X170643297Y-100106712D01*
X170629007Y-100084477D01*
X170611706Y-100064510D01*
X170609418Y-100053995D01*
X170605523Y-100047934D01*
X170600500Y-100012999D01*
X170600500Y-99961999D01*
X170620185Y-99894960D01*
X170672989Y-99849205D01*
X170724500Y-99837999D01*
X171715686Y-99837999D01*
X171715694Y-99837999D01*
X171752569Y-99835097D01*
X171752571Y-99835096D01*
X171752573Y-99835096D01*
X171825997Y-99813764D01*
X171910398Y-99789243D01*
X172051865Y-99705580D01*
X172168081Y-99589364D01*
X172251744Y-99447897D01*
X172297598Y-99290068D01*
X172300500Y-99253193D01*
X172300500Y-98821805D01*
X172297598Y-98784930D01*
X172292870Y-98768657D01*
X172251745Y-98627105D01*
X172251744Y-98627102D01*
X172251744Y-98627101D01*
X172168081Y-98485634D01*
X172168079Y-98485632D01*
X172168076Y-98485628D01*
X172051870Y-98369422D01*
X172051862Y-98369416D01*
X171960163Y-98315186D01*
X171957340Y-98313516D01*
X171909658Y-98262448D01*
X171897154Y-98193707D01*
X171923799Y-98129117D01*
X171981134Y-98089187D01*
X171994334Y-98084813D01*
X172143656Y-97992711D01*
X172267712Y-97868655D01*
X172359814Y-97719333D01*
X172414999Y-97552796D01*
X172425500Y-97450008D01*
X172425499Y-96849991D01*
X172417145Y-96768215D01*
X172414999Y-96747202D01*
X172414998Y-96747199D01*
X172405354Y-96718095D01*
X172359814Y-96580665D01*
X172267712Y-96431343D01*
X172143656Y-96307287D01*
X172140347Y-96305246D01*
X172138554Y-96303252D01*
X172137989Y-96302806D01*
X172138065Y-96302709D01*
X172093621Y-96253300D01*
X172082397Y-96184338D01*
X172110239Y-96120255D01*
X172140352Y-96094163D01*
X172143344Y-96092317D01*
X172267315Y-95968346D01*
X172359356Y-95819125D01*
X172359358Y-95819120D01*
X172414505Y-95652698D01*
X172414506Y-95652691D01*
X172424999Y-95549987D01*
X172425000Y-95549974D01*
X172425000Y-95500001D01*
X169975001Y-95500001D01*
X169975001Y-95549987D01*
X169985494Y-95652698D01*
X170040641Y-95819120D01*
X170040643Y-95819125D01*
X170132684Y-95968346D01*
X170256655Y-96092317D01*
X170256659Y-96092320D01*
X170259656Y-96094169D01*
X170261278Y-96095973D01*
X170262323Y-96096799D01*
X170262181Y-96096977D01*
X170306380Y-96146118D01*
X170317600Y-96215081D01*
X170289755Y-96279162D01*
X170259661Y-96305240D01*
X170256348Y-96307283D01*
X170256343Y-96307287D01*
X170132289Y-96431341D01*
X170040187Y-96580662D01*
X170040186Y-96580665D01*
X169994647Y-96718094D01*
X169985001Y-96747203D01*
X169984999Y-96747210D01*
X169984773Y-96749426D01*
X169984251Y-96750704D01*
X169983583Y-96753826D01*
X169983026Y-96753706D01*
X169958374Y-96814116D01*
X169901191Y-96854265D01*
X169831380Y-96857124D01*
X169773735Y-96824498D01*
X169087591Y-96138355D01*
X169087589Y-96138352D01*
X168968718Y-96019481D01*
X168968717Y-96019480D01*
X168881905Y-95969360D01*
X168881905Y-95969359D01*
X168881901Y-95969358D01*
X168831786Y-95940423D01*
X168679058Y-95899499D01*
X168520944Y-95899499D01*
X168513348Y-95899499D01*
X168513332Y-95899500D01*
X163829766Y-95899500D01*
X163762727Y-95879815D01*
X163760875Y-95878602D01*
X163629185Y-95790609D01*
X163629172Y-95790602D01*
X163483501Y-95730264D01*
X163483491Y-95730261D01*
X163328151Y-95699362D01*
X163266241Y-95666977D01*
X163264662Y-95665426D01*
X162633782Y-95034546D01*
X162549250Y-94950014D01*
X169975000Y-94950014D01*
X169975000Y-95000001D01*
X170950000Y-95000001D01*
X171450000Y-95000001D01*
X172424999Y-95000001D01*
X172424999Y-94950029D01*
X172424998Y-94950014D01*
X172414505Y-94847303D01*
X172359358Y-94680881D01*
X172359356Y-94680876D01*
X172267315Y-94531655D01*
X172143345Y-94407685D01*
X171994124Y-94315644D01*
X171994119Y-94315642D01*
X171827697Y-94260495D01*
X171827690Y-94260494D01*
X171724986Y-94250001D01*
X171450000Y-94250001D01*
X171450000Y-95000001D01*
X170950000Y-95000001D01*
X170950000Y-94250001D01*
X170675029Y-94250001D01*
X170675012Y-94250002D01*
X170572302Y-94260495D01*
X170405880Y-94315642D01*
X170405875Y-94315644D01*
X170256654Y-94407685D01*
X170132684Y-94531655D01*
X170040643Y-94680876D01*
X170040641Y-94680881D01*
X169985494Y-94847303D01*
X169985493Y-94847310D01*
X169975000Y-94950014D01*
X162549250Y-94950014D01*
X161661416Y-94062181D01*
X161627931Y-94000858D01*
X161632915Y-93931167D01*
X161674787Y-93875233D01*
X161740251Y-93850816D01*
X161749097Y-93850500D01*
X174379017Y-93850500D01*
X174379033Y-93850501D01*
X174386629Y-93850501D01*
X174544740Y-93850501D01*
X174544743Y-93850501D01*
X174697471Y-93809577D01*
X174753655Y-93777139D01*
X174834402Y-93730520D01*
X174946206Y-93618716D01*
X174946206Y-93618714D01*
X174956410Y-93608511D01*
X174956414Y-93608506D01*
X177208506Y-91356414D01*
X177208511Y-91356410D01*
X177218714Y-91346206D01*
X177218716Y-91346206D01*
X177330520Y-91234402D01*
X177409397Y-91097782D01*
X177409577Y-91097471D01*
X177450500Y-90944744D01*
X177450500Y-90786629D01*
X177450500Y-88920943D01*
X177450382Y-88920500D01*
X177409577Y-88768215D01*
X177371421Y-88702127D01*
X177330520Y-88631284D01*
X177218716Y-88519480D01*
X177218715Y-88519479D01*
X177214385Y-88515149D01*
X177214374Y-88515139D01*
X176686818Y-87987583D01*
X176653333Y-87926260D01*
X176652596Y-87922610D01*
X176650499Y-87911352D01*
X176650499Y-87852128D01*
X176644091Y-87792517D01*
X176612668Y-87708267D01*
X176610701Y-87697708D01*
X176613194Y-87673207D01*
X176611438Y-87648642D01*
X176616422Y-87631667D01*
X176644091Y-87557483D01*
X176650500Y-87497873D01*
X176650499Y-87002128D01*
X176644091Y-86942517D01*
X176616421Y-86868332D01*
X176611438Y-86798642D01*
X176616422Y-86781667D01*
X176644091Y-86707483D01*
X176650500Y-86647873D01*
X176650499Y-86152128D01*
X176644091Y-86092517D01*
X176616421Y-86018332D01*
X176611438Y-85948642D01*
X176616422Y-85931667D01*
X176644091Y-85857483D01*
X176650500Y-85797873D01*
X176650499Y-85302128D01*
X176644091Y-85242517D01*
X176616421Y-85168332D01*
X176611438Y-85098642D01*
X176616422Y-85081667D01*
X176644091Y-85007483D01*
X176650500Y-84947873D01*
X176650499Y-84452128D01*
X176644091Y-84392517D01*
X176616421Y-84318332D01*
X176611438Y-84248642D01*
X176616422Y-84231667D01*
X176644091Y-84157483D01*
X176650500Y-84097873D01*
X176650499Y-83602128D01*
X176644091Y-83542517D01*
X176616421Y-83468332D01*
X176611438Y-83398642D01*
X176616422Y-83381667D01*
X176644091Y-83307483D01*
X176650500Y-83247873D01*
X176650499Y-82752128D01*
X176644091Y-82692517D01*
X176616421Y-82618332D01*
X176611438Y-82548642D01*
X176616422Y-82531667D01*
X176644091Y-82457483D01*
X176650500Y-82397873D01*
X176650499Y-81902128D01*
X176644091Y-81842517D01*
X176616421Y-81768332D01*
X176611438Y-81698642D01*
X176616422Y-81681667D01*
X176644091Y-81607483D01*
X176650500Y-81547873D01*
X176650499Y-81052128D01*
X176644091Y-80992517D01*
X176616421Y-80918332D01*
X176611438Y-80848642D01*
X176616422Y-80831667D01*
X176644091Y-80757483D01*
X176650500Y-80697873D01*
X176650499Y-80202128D01*
X176649594Y-80193713D01*
X180649500Y-80193713D01*
X180649500Y-80406287D01*
X180682754Y-80616243D01*
X180726214Y-80750000D01*
X180748444Y-80818414D01*
X180844951Y-81007820D01*
X180969890Y-81179786D01*
X181120213Y-81330109D01*
X181292182Y-81455050D01*
X181300946Y-81459516D01*
X181351742Y-81507491D01*
X181368536Y-81575312D01*
X181345998Y-81641447D01*
X181300946Y-81680484D01*
X181292182Y-81684949D01*
X181120213Y-81809890D01*
X180969890Y-81960213D01*
X180844951Y-82132179D01*
X180748444Y-82321585D01*
X180682753Y-82523760D01*
X180649500Y-82733713D01*
X180649500Y-82946286D01*
X180668881Y-83068657D01*
X180682754Y-83156243D01*
X180745872Y-83350500D01*
X180748444Y-83358414D01*
X180844951Y-83547820D01*
X180969890Y-83719786D01*
X181120213Y-83870109D01*
X181292182Y-83995050D01*
X181300946Y-83999516D01*
X181351742Y-84047491D01*
X181368536Y-84115312D01*
X181345998Y-84181447D01*
X181300946Y-84220484D01*
X181292182Y-84224949D01*
X181120213Y-84349890D01*
X180969890Y-84500213D01*
X180844951Y-84672179D01*
X180748444Y-84861585D01*
X180748443Y-84861587D01*
X180748443Y-84861588D01*
X180720407Y-84947873D01*
X180682753Y-85063760D01*
X180649500Y-85273713D01*
X180649500Y-85486286D01*
X180675872Y-85652796D01*
X180682754Y-85696243D01*
X180735144Y-85857483D01*
X180748444Y-85898414D01*
X180844951Y-86087820D01*
X180969890Y-86259786D01*
X181120213Y-86410109D01*
X181292182Y-86535050D01*
X181300946Y-86539516D01*
X181351742Y-86587491D01*
X181368536Y-86655312D01*
X181345998Y-86721447D01*
X181300946Y-86760484D01*
X181292182Y-86764949D01*
X181120213Y-86889890D01*
X180969890Y-87040213D01*
X180844951Y-87212179D01*
X180748444Y-87401585D01*
X180682753Y-87603760D01*
X180662555Y-87731286D01*
X180649500Y-87813713D01*
X180649500Y-88026287D01*
X180682754Y-88236243D01*
X180742835Y-88421153D01*
X180748444Y-88438414D01*
X180844951Y-88627820D01*
X180969890Y-88799786D01*
X181120213Y-88950109D01*
X181292182Y-89075050D01*
X181300946Y-89079516D01*
X181351742Y-89127491D01*
X181368536Y-89195312D01*
X181345998Y-89261447D01*
X181300946Y-89300484D01*
X181292182Y-89304949D01*
X181120213Y-89429890D01*
X180969890Y-89580213D01*
X180844951Y-89752179D01*
X180748444Y-89941585D01*
X180682753Y-90143760D01*
X180649500Y-90353713D01*
X180649500Y-90566286D01*
X180681482Y-90768216D01*
X180682754Y-90776243D01*
X180748377Y-90978210D01*
X180748444Y-90978414D01*
X180844951Y-91167820D01*
X180969890Y-91339786D01*
X181120213Y-91490109D01*
X181292182Y-91615050D01*
X181300946Y-91619516D01*
X181351742Y-91667491D01*
X181368536Y-91735312D01*
X181345998Y-91801447D01*
X181300946Y-91840484D01*
X181292182Y-91844949D01*
X181120213Y-91969890D01*
X180969890Y-92120213D01*
X180844951Y-92292179D01*
X180748444Y-92481585D01*
X180682753Y-92683760D01*
X180649500Y-92893713D01*
X180649500Y-93106286D01*
X180682753Y-93316239D01*
X180748444Y-93518414D01*
X180844951Y-93707820D01*
X180969890Y-93879786D01*
X181120213Y-94030109D01*
X181292182Y-94155050D01*
X181300946Y-94159516D01*
X181351742Y-94207491D01*
X181368536Y-94275312D01*
X181345998Y-94341447D01*
X181300946Y-94380484D01*
X181292182Y-94384949D01*
X181120213Y-94509890D01*
X180969890Y-94660213D01*
X180844951Y-94832179D01*
X180748444Y-95021585D01*
X180682753Y-95223760D01*
X180659242Y-95372203D01*
X180649500Y-95433713D01*
X180649500Y-95646287D01*
X180652531Y-95665426D01*
X180672358Y-95790609D01*
X180682754Y-95856243D01*
X180735793Y-96019481D01*
X180748444Y-96058414D01*
X180844951Y-96247820D01*
X180969890Y-96419786D01*
X181120213Y-96570109D01*
X181292179Y-96695048D01*
X181292181Y-96695049D01*
X181292184Y-96695051D01*
X181481588Y-96791557D01*
X181683757Y-96857246D01*
X181893713Y-96890500D01*
X181893714Y-96890500D01*
X182106286Y-96890500D01*
X182106287Y-96890500D01*
X182316243Y-96857246D01*
X182518412Y-96791557D01*
X182707816Y-96695051D01*
X182795583Y-96631285D01*
X182879786Y-96570109D01*
X182879788Y-96570106D01*
X182879792Y-96570104D01*
X183030104Y-96419792D01*
X183030106Y-96419788D01*
X183030109Y-96419786D01*
X183155048Y-96247820D01*
X183155047Y-96247820D01*
X183155051Y-96247816D01*
X183251557Y-96058412D01*
X183317246Y-95856243D01*
X183350500Y-95646287D01*
X183350500Y-95433713D01*
X183317246Y-95223757D01*
X183251557Y-95021588D01*
X183155051Y-94832184D01*
X183155049Y-94832181D01*
X183155048Y-94832179D01*
X183030109Y-94660213D01*
X182879786Y-94509890D01*
X182707820Y-94384951D01*
X182707115Y-94384591D01*
X182699054Y-94380485D01*
X182648259Y-94332512D01*
X182631463Y-94264692D01*
X182653999Y-94198556D01*
X182699054Y-94159515D01*
X182707816Y-94155051D01*
X182729789Y-94139086D01*
X182879786Y-94030109D01*
X182879788Y-94030106D01*
X182879792Y-94030104D01*
X183030104Y-93879792D01*
X183030106Y-93879788D01*
X183030109Y-93879786D01*
X183155048Y-93707820D01*
X183155047Y-93707820D01*
X183155051Y-93707816D01*
X183251557Y-93518412D01*
X183317246Y-93316243D01*
X183350500Y-93106287D01*
X183350500Y-92893713D01*
X183317246Y-92683757D01*
X183251557Y-92481588D01*
X183155051Y-92292184D01*
X183155049Y-92292181D01*
X183155048Y-92292179D01*
X183030109Y-92120213D01*
X182879786Y-91969890D01*
X182707820Y-91844951D01*
X182707115Y-91844591D01*
X182699054Y-91840485D01*
X182648259Y-91792512D01*
X182631463Y-91724692D01*
X182653999Y-91658556D01*
X182699054Y-91619515D01*
X182707816Y-91615051D01*
X182729789Y-91599086D01*
X182879786Y-91490109D01*
X182879788Y-91490106D01*
X182879792Y-91490104D01*
X183030104Y-91339792D01*
X183030106Y-91339788D01*
X183030109Y-91339786D01*
X183155048Y-91167820D01*
X183155047Y-91167820D01*
X183155051Y-91167816D01*
X183251557Y-90978412D01*
X183317246Y-90776243D01*
X183350500Y-90566287D01*
X183350500Y-90353713D01*
X183317246Y-90143757D01*
X183251557Y-89941588D01*
X183155051Y-89752184D01*
X183155049Y-89752181D01*
X183155048Y-89752179D01*
X183030109Y-89580213D01*
X182879786Y-89429890D01*
X182707820Y-89304951D01*
X182707115Y-89304591D01*
X182699054Y-89300485D01*
X182648259Y-89252512D01*
X182631463Y-89184692D01*
X182653999Y-89118556D01*
X182699054Y-89079515D01*
X182707816Y-89075051D01*
X182752565Y-89042539D01*
X182879786Y-88950109D01*
X182879788Y-88950106D01*
X182879792Y-88950104D01*
X183030104Y-88799792D01*
X183030106Y-88799788D01*
X183030109Y-88799786D01*
X183155048Y-88627820D01*
X183155047Y-88627820D01*
X183155051Y-88627816D01*
X183251557Y-88438412D01*
X183317246Y-88236243D01*
X183350500Y-88026287D01*
X183350500Y-87813713D01*
X183317246Y-87603757D01*
X183251557Y-87401588D01*
X183155051Y-87212184D01*
X183155049Y-87212181D01*
X183155048Y-87212179D01*
X183030109Y-87040213D01*
X182879786Y-86889890D01*
X182707820Y-86764951D01*
X182707115Y-86764591D01*
X182699054Y-86760485D01*
X182648259Y-86712512D01*
X182631463Y-86644692D01*
X182653999Y-86578556D01*
X182699054Y-86539515D01*
X182707816Y-86535051D01*
X182768995Y-86490602D01*
X182879786Y-86410109D01*
X182879788Y-86410106D01*
X182879792Y-86410104D01*
X183030104Y-86259792D01*
X183030106Y-86259788D01*
X183030109Y-86259786D01*
X183148168Y-86097290D01*
X183155051Y-86087816D01*
X183251557Y-85898412D01*
X183317246Y-85696243D01*
X183350500Y-85486287D01*
X183350500Y-85273713D01*
X183317246Y-85063757D01*
X183251557Y-84861588D01*
X183155051Y-84672184D01*
X183155049Y-84672181D01*
X183155048Y-84672179D01*
X183030109Y-84500213D01*
X182879786Y-84349890D01*
X182707820Y-84224951D01*
X182707115Y-84224591D01*
X182699054Y-84220485D01*
X182648259Y-84172512D01*
X182631463Y-84104692D01*
X182653999Y-84038556D01*
X182699054Y-83999515D01*
X182707816Y-83995051D01*
X182729789Y-83979086D01*
X182879786Y-83870109D01*
X182879788Y-83870106D01*
X182879792Y-83870104D01*
X183030104Y-83719792D01*
X183030106Y-83719788D01*
X183030109Y-83719786D01*
X183155048Y-83547820D01*
X183155047Y-83547820D01*
X183155051Y-83547816D01*
X183251557Y-83358412D01*
X183317246Y-83156243D01*
X183350500Y-82946287D01*
X183350500Y-82733713D01*
X183317246Y-82523757D01*
X183251557Y-82321588D01*
X183155051Y-82132184D01*
X183155049Y-82132181D01*
X183155048Y-82132179D01*
X183030109Y-81960213D01*
X182879786Y-81809890D01*
X182707820Y-81684951D01*
X182703280Y-81682638D01*
X182699054Y-81680485D01*
X182648259Y-81632512D01*
X182631463Y-81564692D01*
X182653999Y-81498556D01*
X182699054Y-81459515D01*
X182707816Y-81455051D01*
X182809347Y-81381285D01*
X182879786Y-81330109D01*
X182879788Y-81330106D01*
X182879792Y-81330104D01*
X183030104Y-81179792D01*
X183030106Y-81179788D01*
X183030109Y-81179786D01*
X183155048Y-81007820D01*
X183155047Y-81007820D01*
X183155051Y-81007816D01*
X183251557Y-80818412D01*
X183317246Y-80616243D01*
X183350500Y-80406287D01*
X183350500Y-80193713D01*
X183317246Y-79983757D01*
X183251557Y-79781588D01*
X183155051Y-79592184D01*
X183155049Y-79592181D01*
X183155048Y-79592179D01*
X183030109Y-79420213D01*
X182916181Y-79306285D01*
X182882696Y-79244962D01*
X182887680Y-79175270D01*
X182929552Y-79119337D01*
X182960529Y-79102422D01*
X183092086Y-79053354D01*
X183092093Y-79053350D01*
X183207187Y-78967190D01*
X183207190Y-78967187D01*
X183293350Y-78852093D01*
X183293354Y-78852086D01*
X183343596Y-78717379D01*
X183343598Y-78717372D01*
X183349999Y-78657844D01*
X183350000Y-78657827D01*
X183350000Y-78010000D01*
X182433012Y-78010000D01*
X182465925Y-77952993D01*
X182500000Y-77825826D01*
X182500000Y-77694174D01*
X182465925Y-77567007D01*
X182433012Y-77510000D01*
X183350000Y-77510000D01*
X183350000Y-76862172D01*
X183349999Y-76862155D01*
X183343598Y-76802627D01*
X183343596Y-76802620D01*
X183293354Y-76667913D01*
X183293350Y-76667906D01*
X183207190Y-76552812D01*
X183207187Y-76552809D01*
X183092093Y-76466649D01*
X183092086Y-76466645D01*
X182957379Y-76416403D01*
X182957372Y-76416401D01*
X182897844Y-76410000D01*
X182250000Y-76410000D01*
X182250000Y-77326988D01*
X182192993Y-77294075D01*
X182065826Y-77260000D01*
X181934174Y-77260000D01*
X181807007Y-77294075D01*
X181750000Y-77326988D01*
X181750000Y-76410000D01*
X181102155Y-76410000D01*
X181042627Y-76416401D01*
X181042620Y-76416403D01*
X180907913Y-76466645D01*
X180907906Y-76466649D01*
X180792812Y-76552809D01*
X180792809Y-76552812D01*
X180706649Y-76667906D01*
X180706645Y-76667913D01*
X180656403Y-76802620D01*
X180656401Y-76802627D01*
X180650000Y-76862155D01*
X180650000Y-77510000D01*
X181566988Y-77510000D01*
X181534075Y-77567007D01*
X181500000Y-77694174D01*
X181500000Y-77825826D01*
X181534075Y-77952993D01*
X181566988Y-78010000D01*
X180650000Y-78010000D01*
X180650000Y-78657844D01*
X180656401Y-78717372D01*
X180656403Y-78717379D01*
X180706645Y-78852086D01*
X180706649Y-78852093D01*
X180792809Y-78967187D01*
X180792812Y-78967190D01*
X180907906Y-79053350D01*
X180907913Y-79053354D01*
X181039470Y-79102422D01*
X181095404Y-79144293D01*
X181119821Y-79209758D01*
X181104969Y-79278031D01*
X181083819Y-79306285D01*
X180969889Y-79420215D01*
X180844951Y-79592179D01*
X180748444Y-79781585D01*
X180682753Y-79983760D01*
X180657609Y-80142513D01*
X180649500Y-80193713D01*
X176649594Y-80193713D01*
X176644091Y-80142517D01*
X176613763Y-80061205D01*
X176612093Y-80054572D01*
X176613194Y-80026226D01*
X176611171Y-79997927D01*
X176614771Y-79985664D01*
X176614807Y-79984755D01*
X176615206Y-79984183D01*
X176616156Y-79980950D01*
X176643597Y-79907379D01*
X176643597Y-79907377D01*
X176649999Y-79847844D01*
X176650000Y-79847827D01*
X176650000Y-79800000D01*
X176398069Y-79800000D01*
X176354736Y-79792182D01*
X176257482Y-79755908D01*
X176257483Y-79755908D01*
X176197883Y-79749501D01*
X176197881Y-79749500D01*
X176197873Y-79749500D01*
X176197865Y-79749500D01*
X175302129Y-79749500D01*
X175302123Y-79749501D01*
X175242516Y-79755908D01*
X175145264Y-79792182D01*
X175101931Y-79800000D01*
X174850000Y-79800000D01*
X174850000Y-79847844D01*
X174856401Y-79907372D01*
X174856403Y-79907379D01*
X174883844Y-79980952D01*
X174888828Y-80050643D01*
X174883844Y-80067618D01*
X174855909Y-80142517D01*
X174849500Y-80202127D01*
X174849500Y-80202134D01*
X174849500Y-80202135D01*
X174849500Y-80697870D01*
X174849501Y-80697876D01*
X174855908Y-80757483D01*
X174883577Y-80831667D01*
X174888561Y-80901358D01*
X174883577Y-80918331D01*
X174855910Y-80992511D01*
X174855909Y-80992515D01*
X174855909Y-80992517D01*
X174849500Y-81052127D01*
X174849500Y-81052134D01*
X174849500Y-81052135D01*
X174849500Y-81547870D01*
X174849501Y-81547871D01*
X174855908Y-81607483D01*
X174883577Y-81681667D01*
X174888561Y-81751358D01*
X174883577Y-81768331D01*
X174855910Y-81842511D01*
X174855909Y-81842515D01*
X174855909Y-81842517D01*
X174849500Y-81902127D01*
X174849500Y-81902134D01*
X174849500Y-81902135D01*
X174849500Y-82397870D01*
X174849501Y-82397876D01*
X174855908Y-82457483D01*
X174883577Y-82531667D01*
X174888561Y-82601358D01*
X174883577Y-82618331D01*
X174855910Y-82692511D01*
X174855909Y-82692515D01*
X174855909Y-82692517D01*
X174849500Y-82752127D01*
X174849500Y-82752134D01*
X174849500Y-82752135D01*
X174849500Y-83247870D01*
X174849501Y-83247876D01*
X174855908Y-83307483D01*
X174883577Y-83381667D01*
X174888561Y-83451358D01*
X174883577Y-83468331D01*
X174855910Y-83542511D01*
X174855909Y-83542515D01*
X174855909Y-83542517D01*
X174849500Y-83602127D01*
X174849500Y-83602134D01*
X174849500Y-83602135D01*
X174849500Y-84097870D01*
X174849501Y-84097876D01*
X174855908Y-84157483D01*
X174883577Y-84231667D01*
X174888561Y-84301358D01*
X174883577Y-84318331D01*
X174855910Y-84392511D01*
X174855909Y-84392515D01*
X174855909Y-84392517D01*
X174849500Y-84452127D01*
X174849500Y-84452134D01*
X174849500Y-84452135D01*
X174849500Y-84947870D01*
X174849501Y-84947876D01*
X174855908Y-85007483D01*
X174883577Y-85081667D01*
X174888561Y-85151358D01*
X174883577Y-85168331D01*
X174855910Y-85242511D01*
X174855909Y-85242515D01*
X174855909Y-85242517D01*
X174849500Y-85302127D01*
X174849500Y-85302134D01*
X174849500Y-85302135D01*
X174849500Y-85797870D01*
X174849501Y-85797876D01*
X174855908Y-85857483D01*
X174883577Y-85931667D01*
X174888561Y-86001358D01*
X174883577Y-86018331D01*
X174855910Y-86092511D01*
X174855909Y-86092515D01*
X174855909Y-86092517D01*
X174849500Y-86152127D01*
X174849500Y-86152134D01*
X174849500Y-86152135D01*
X174849500Y-86647870D01*
X174849501Y-86647876D01*
X174855908Y-86707483D01*
X174883577Y-86781667D01*
X174888561Y-86851358D01*
X174883577Y-86868331D01*
X174855910Y-86942511D01*
X174855909Y-86942515D01*
X174855909Y-86942517D01*
X174849500Y-87002127D01*
X174849500Y-87002134D01*
X174849500Y-87002135D01*
X174849500Y-87497870D01*
X174849501Y-87497876D01*
X174855908Y-87557483D01*
X174883577Y-87631667D01*
X174888561Y-87701358D01*
X174883577Y-87718331D01*
X174855910Y-87792511D01*
X174855909Y-87792515D01*
X174855909Y-87792517D01*
X174849500Y-87852127D01*
X174849500Y-87852134D01*
X174849500Y-87852135D01*
X174849500Y-88347870D01*
X174849501Y-88347876D01*
X174855908Y-88407483D01*
X174883577Y-88481667D01*
X174888561Y-88551358D01*
X174883577Y-88568331D01*
X174855909Y-88642514D01*
X174855908Y-88642516D01*
X174849501Y-88702116D01*
X174849500Y-88702128D01*
X174849500Y-88975500D01*
X174829815Y-89042539D01*
X174777011Y-89088294D01*
X174725500Y-89099500D01*
X174452130Y-89099500D01*
X174452123Y-89099501D01*
X174392516Y-89105908D01*
X174318332Y-89133577D01*
X174248640Y-89138561D01*
X174231668Y-89133577D01*
X174157488Y-89105910D01*
X174157484Y-89105909D01*
X174157483Y-89105909D01*
X174097873Y-89099500D01*
X174097863Y-89099500D01*
X173602129Y-89099500D01*
X173602123Y-89099501D01*
X173542516Y-89105908D01*
X173468332Y-89133577D01*
X173398640Y-89138561D01*
X173381668Y-89133577D01*
X173307488Y-89105910D01*
X173307484Y-89105909D01*
X173307483Y-89105909D01*
X173247873Y-89099500D01*
X173247863Y-89099500D01*
X172752129Y-89099500D01*
X172752123Y-89099501D01*
X172692516Y-89105908D01*
X172618332Y-89133577D01*
X172548640Y-89138561D01*
X172531668Y-89133577D01*
X172457485Y-89105909D01*
X172457483Y-89105908D01*
X172397883Y-89099501D01*
X172397881Y-89099500D01*
X172397873Y-89099500D01*
X172397865Y-89099500D01*
X172294168Y-89099500D01*
X172227129Y-89079815D01*
X172181374Y-89027011D01*
X172171430Y-88957853D01*
X172191067Y-88906608D01*
X172209389Y-88879187D01*
X172209391Y-88879183D01*
X172209394Y-88879179D01*
X172269737Y-88733497D01*
X172300500Y-88578842D01*
X172300500Y-88421158D01*
X172300500Y-88421155D01*
X172300499Y-88421153D01*
X172285923Y-88347876D01*
X172269737Y-88266503D01*
X172243563Y-88203313D01*
X172209397Y-88120827D01*
X172209390Y-88120814D01*
X172121789Y-87989711D01*
X172121786Y-87989707D01*
X172010292Y-87878213D01*
X172010288Y-87878210D01*
X171879185Y-87790609D01*
X171879172Y-87790602D01*
X171733501Y-87730264D01*
X171733489Y-87730261D01*
X171578845Y-87699500D01*
X171578842Y-87699500D01*
X171421158Y-87699500D01*
X171421155Y-87699500D01*
X171266510Y-87730261D01*
X171266498Y-87730264D01*
X171120827Y-87790602D01*
X171120814Y-87790609D01*
X171068891Y-87825304D01*
X171002214Y-87846182D01*
X170934833Y-87827698D01*
X170931109Y-87825304D01*
X170879185Y-87790609D01*
X170879172Y-87790602D01*
X170733501Y-87730264D01*
X170733489Y-87730261D01*
X170578845Y-87699500D01*
X170578842Y-87699500D01*
X170421158Y-87699500D01*
X170421155Y-87699500D01*
X170266510Y-87730261D01*
X170266498Y-87730264D01*
X170120827Y-87790602D01*
X170120814Y-87790609D01*
X170068891Y-87825304D01*
X170002214Y-87846182D01*
X169934833Y-87827698D01*
X169931109Y-87825304D01*
X169879185Y-87790609D01*
X169879172Y-87790602D01*
X169733501Y-87730264D01*
X169733489Y-87730261D01*
X169578845Y-87699500D01*
X169578842Y-87699500D01*
X169421158Y-87699500D01*
X169421155Y-87699500D01*
X169266510Y-87730261D01*
X169266498Y-87730264D01*
X169147450Y-87779575D01*
X169077980Y-87787044D01*
X169052546Y-87779575D01*
X168933498Y-87730264D01*
X168933486Y-87730261D01*
X168778842Y-87699500D01*
X168778839Y-87699500D01*
X168621155Y-87699500D01*
X168621152Y-87699500D01*
X168466507Y-87730261D01*
X168466495Y-87730264D01*
X168320824Y-87790602D01*
X168320811Y-87790609D01*
X168189708Y-87878210D01*
X168189704Y-87878213D01*
X168078210Y-87989707D01*
X168078207Y-87989711D01*
X167990606Y-88120814D01*
X167990599Y-88120827D01*
X167930261Y-88266498D01*
X167930258Y-88266510D01*
X167899497Y-88421153D01*
X167899497Y-88578846D01*
X167930258Y-88733489D01*
X167930261Y-88733501D01*
X167990599Y-88879172D01*
X167990605Y-88879183D01*
X168008931Y-88906610D01*
X168029808Y-88973288D01*
X168011323Y-89040668D01*
X167959343Y-89087357D01*
X167905828Y-89099500D01*
X167652130Y-89099500D01*
X167652123Y-89099501D01*
X167592516Y-89105908D01*
X167518332Y-89133577D01*
X167448640Y-89138561D01*
X167431668Y-89133577D01*
X167357488Y-89105910D01*
X167357484Y-89105909D01*
X167357483Y-89105909D01*
X167297873Y-89099500D01*
X167297863Y-89099500D01*
X166802129Y-89099500D01*
X166802123Y-89099501D01*
X166742516Y-89105908D01*
X166668332Y-89133577D01*
X166598640Y-89138561D01*
X166581668Y-89133577D01*
X166507488Y-89105910D01*
X166507484Y-89105909D01*
X166507483Y-89105909D01*
X166447873Y-89099500D01*
X166447863Y-89099500D01*
X165952129Y-89099500D01*
X165952123Y-89099501D01*
X165892516Y-89105908D01*
X165818332Y-89133577D01*
X165748640Y-89138561D01*
X165731668Y-89133577D01*
X165657488Y-89105910D01*
X165657484Y-89105909D01*
X165657483Y-89105909D01*
X165597873Y-89099500D01*
X165597863Y-89099500D01*
X165102129Y-89099500D01*
X165102123Y-89099501D01*
X165042516Y-89105908D01*
X164968332Y-89133577D01*
X164898640Y-89138561D01*
X164881668Y-89133577D01*
X164807488Y-89105910D01*
X164807484Y-89105909D01*
X164807483Y-89105909D01*
X164747873Y-89099500D01*
X164747863Y-89099500D01*
X164252129Y-89099500D01*
X164252123Y-89099501D01*
X164192516Y-89105908D01*
X164118332Y-89133577D01*
X164048640Y-89138561D01*
X164031668Y-89133577D01*
X163957488Y-89105910D01*
X163957484Y-89105909D01*
X163957483Y-89105909D01*
X163897873Y-89099500D01*
X163897863Y-89099500D01*
X163402129Y-89099500D01*
X163402123Y-89099501D01*
X163342516Y-89105908D01*
X163268332Y-89133577D01*
X163198640Y-89138561D01*
X163181668Y-89133577D01*
X163107485Y-89105909D01*
X163107483Y-89105908D01*
X163047883Y-89099501D01*
X163047881Y-89099500D01*
X163047873Y-89099500D01*
X163047865Y-89099500D01*
X162774499Y-89099500D01*
X162707460Y-89079815D01*
X162661705Y-89027011D01*
X162650499Y-88975500D01*
X162650499Y-88702126D01*
X162650498Y-88702123D01*
X162650497Y-88702116D01*
X162644091Y-88642517D01*
X162616421Y-88568332D01*
X162611438Y-88498642D01*
X162616422Y-88481667D01*
X162644091Y-88407483D01*
X162650500Y-88347873D01*
X162650499Y-87852128D01*
X162644091Y-87792517D01*
X162616421Y-87718332D01*
X162611438Y-87648642D01*
X162616422Y-87631667D01*
X162644091Y-87557483D01*
X162650500Y-87497873D01*
X162650499Y-87002128D01*
X162644091Y-86942517D01*
X162616421Y-86868332D01*
X162611438Y-86798642D01*
X162616422Y-86781667D01*
X162644091Y-86707483D01*
X162650500Y-86647873D01*
X162650499Y-86152128D01*
X162644091Y-86092517D01*
X162616421Y-86018332D01*
X162611438Y-85948642D01*
X162616422Y-85931667D01*
X162644091Y-85857483D01*
X162650500Y-85797873D01*
X162650499Y-85302128D01*
X162644091Y-85242517D01*
X162616421Y-85168332D01*
X162611438Y-85098642D01*
X162616422Y-85081667D01*
X162644091Y-85007483D01*
X162650500Y-84947873D01*
X162650499Y-84452128D01*
X162644091Y-84392517D01*
X162616421Y-84318332D01*
X162611438Y-84248642D01*
X162616422Y-84231667D01*
X162644091Y-84157483D01*
X162650500Y-84097873D01*
X162650499Y-83602128D01*
X162644091Y-83542517D01*
X162616421Y-83468332D01*
X162611438Y-83398642D01*
X162616422Y-83381667D01*
X162644091Y-83307483D01*
X162650500Y-83247873D01*
X162650499Y-82752128D01*
X162644091Y-82692517D01*
X162616421Y-82618332D01*
X162611438Y-82548642D01*
X162616422Y-82531667D01*
X162644091Y-82457483D01*
X162650500Y-82397873D01*
X162650499Y-81902128D01*
X162644091Y-81842517D01*
X162616421Y-81768332D01*
X162611438Y-81698642D01*
X162616422Y-81681667D01*
X162644091Y-81607483D01*
X162650500Y-81547873D01*
X162650499Y-81052128D01*
X162644091Y-80992517D01*
X162616421Y-80918332D01*
X162611438Y-80848642D01*
X162616422Y-80831667D01*
X162644091Y-80757483D01*
X162650500Y-80697873D01*
X162650499Y-80324499D01*
X162670183Y-80257461D01*
X162722987Y-80211706D01*
X162774499Y-80200500D01*
X170149903Y-80200500D01*
X170216942Y-80220185D01*
X170237584Y-80236819D01*
X171811803Y-81811038D01*
X171845288Y-81872361D01*
X171840304Y-81942053D01*
X171838685Y-81946168D01*
X171830262Y-81966502D01*
X171830261Y-81966505D01*
X171799500Y-82121153D01*
X171799500Y-82278846D01*
X171830261Y-82433489D01*
X171830264Y-82433501D01*
X171890602Y-82579172D01*
X171890609Y-82579185D01*
X171978210Y-82710288D01*
X171978213Y-82710292D01*
X172089707Y-82821786D01*
X172089711Y-82821789D01*
X172220814Y-82909390D01*
X172220827Y-82909397D01*
X172309889Y-82946287D01*
X172366503Y-82969737D01*
X172521153Y-83000499D01*
X172521156Y-83000500D01*
X172521158Y-83000500D01*
X172678844Y-83000500D01*
X172678845Y-83000499D01*
X172833497Y-82969737D01*
X172979179Y-82909394D01*
X173110289Y-82821789D01*
X173221789Y-82710289D01*
X173309394Y-82579179D01*
X173369737Y-82433497D01*
X173400500Y-82278842D01*
X173400500Y-82121158D01*
X173400500Y-82121155D01*
X173400499Y-82121153D01*
X173400457Y-82120943D01*
X173369737Y-81966503D01*
X173343070Y-81902123D01*
X173309397Y-81820827D01*
X173309390Y-81820814D01*
X173221789Y-81689711D01*
X173217924Y-81685001D01*
X173218735Y-81684334D01*
X173217631Y-81682638D01*
X173212385Y-81678809D01*
X173203793Y-81661389D01*
X173195099Y-81648038D01*
X173192701Y-81641838D01*
X173167524Y-81547873D01*
X173159577Y-81518215D01*
X173119904Y-81449500D01*
X173080520Y-81381284D01*
X172968716Y-81269480D01*
X172964385Y-81265149D01*
X172964374Y-81265139D01*
X171036819Y-79337584D01*
X171003334Y-79276261D01*
X171000500Y-79249903D01*
X171000500Y-78997844D01*
X174850000Y-78997844D01*
X174856401Y-79057372D01*
X174856403Y-79057382D01*
X174884110Y-79131668D01*
X174889094Y-79201359D01*
X174884110Y-79218332D01*
X174856403Y-79292617D01*
X174856401Y-79292627D01*
X174850000Y-79352155D01*
X174850000Y-79400000D01*
X175550000Y-79400000D01*
X175950000Y-79400000D01*
X176650000Y-79400000D01*
X176650000Y-79352172D01*
X176649999Y-79352155D01*
X176643598Y-79292628D01*
X176615888Y-79218334D01*
X176610904Y-79148642D01*
X176615888Y-79131666D01*
X176643598Y-79057371D01*
X176649999Y-78997844D01*
X176650000Y-78997827D01*
X176650000Y-78950000D01*
X175950000Y-78950000D01*
X175950000Y-79400000D01*
X175550000Y-79400000D01*
X175550000Y-78950000D01*
X174850000Y-78950000D01*
X174850000Y-78997844D01*
X171000500Y-78997844D01*
X171000500Y-77579765D01*
X171020185Y-77512726D01*
X171021398Y-77510874D01*
X171109390Y-77379185D01*
X171109390Y-77379184D01*
X171109394Y-77379179D01*
X171169737Y-77233497D01*
X171200500Y-77078842D01*
X171200500Y-76921158D01*
X171200500Y-76921155D01*
X171200499Y-76921153D01*
X171196291Y-76900000D01*
X171500000Y-76900000D01*
X171547828Y-76900000D01*
X171547844Y-76899999D01*
X171607371Y-76893598D01*
X171681666Y-76865888D01*
X171751358Y-76860904D01*
X171768334Y-76865888D01*
X171842628Y-76893598D01*
X171842627Y-76893598D01*
X171902155Y-76899999D01*
X171902172Y-76900000D01*
X171950000Y-76900000D01*
X171950000Y-76200000D01*
X171500000Y-76200000D01*
X171500000Y-76900000D01*
X171196291Y-76900000D01*
X171188763Y-76862155D01*
X171169737Y-76766503D01*
X171159802Y-76742517D01*
X171109439Y-76620929D01*
X171100000Y-76573477D01*
X171100000Y-76200000D01*
X170490010Y-76200000D01*
X170479832Y-76199500D01*
X170478842Y-76199500D01*
X170321158Y-76199500D01*
X170320168Y-76199500D01*
X170309990Y-76200000D01*
X168950000Y-76200000D01*
X168950000Y-76900000D01*
X168997828Y-76900000D01*
X168997844Y-76899999D01*
X169057371Y-76893598D01*
X169131666Y-76865888D01*
X169201358Y-76860904D01*
X169218334Y-76865888D01*
X169292628Y-76893598D01*
X169292627Y-76893598D01*
X169352155Y-76899999D01*
X169352172Y-76900000D01*
X169475500Y-76900000D01*
X169542539Y-76919685D01*
X169588294Y-76972489D01*
X169599500Y-77024000D01*
X169599500Y-77078846D01*
X169630261Y-77233489D01*
X169630264Y-77233501D01*
X169690602Y-77379172D01*
X169690609Y-77379185D01*
X169778602Y-77510874D01*
X169799480Y-77577551D01*
X169799500Y-77579765D01*
X169799500Y-78875500D01*
X169779815Y-78942539D01*
X169727011Y-78988294D01*
X169675500Y-78999500D01*
X162774500Y-78999500D01*
X162707461Y-78979815D01*
X162661706Y-78927011D01*
X162650500Y-78875500D01*
X162650499Y-78502130D01*
X162650498Y-78502123D01*
X162645706Y-78457546D01*
X162644091Y-78442517D01*
X162616154Y-78367616D01*
X162611171Y-78297927D01*
X162616156Y-78280950D01*
X162643597Y-78207379D01*
X162643597Y-78207377D01*
X162649999Y-78147844D01*
X162650000Y-78147827D01*
X162650000Y-78100000D01*
X162398069Y-78100000D01*
X162354736Y-78092182D01*
X162257482Y-78055908D01*
X162257483Y-78055908D01*
X162197883Y-78049501D01*
X162197881Y-78049500D01*
X162197873Y-78049500D01*
X162197865Y-78049500D01*
X161874000Y-78049500D01*
X161806961Y-78029815D01*
X161799759Y-78024819D01*
X161599759Y-77875319D01*
X161581323Y-77850727D01*
X161561206Y-77827511D01*
X161560097Y-77822413D01*
X161557849Y-77819415D01*
X161557055Y-77808433D01*
X161550000Y-77776000D01*
X161550000Y-77700000D01*
X161950000Y-77700000D01*
X162650000Y-77700000D01*
X162650000Y-77652172D01*
X162649999Y-77652155D01*
X162643598Y-77592628D01*
X162615888Y-77518334D01*
X162610904Y-77448642D01*
X162615888Y-77431666D01*
X162643598Y-77357371D01*
X162649999Y-77297844D01*
X162650000Y-77297827D01*
X162650000Y-77250000D01*
X161950000Y-77250000D01*
X161950000Y-77700000D01*
X161550000Y-77700000D01*
X161550000Y-77250000D01*
X160850000Y-77250000D01*
X160850000Y-77297844D01*
X160856401Y-77357372D01*
X160856403Y-77357382D01*
X160884110Y-77431668D01*
X160885994Y-77458019D01*
X160891613Y-77483836D01*
X160888774Y-77496889D01*
X160889094Y-77501359D01*
X160884113Y-77518324D01*
X160881665Y-77524889D01*
X160839799Y-77580826D01*
X160774336Y-77605248D01*
X160706062Y-77590402D01*
X160662378Y-77550456D01*
X160621789Y-77489711D01*
X160621786Y-77489707D01*
X160510292Y-77378213D01*
X160510288Y-77378210D01*
X160379185Y-77290609D01*
X160379172Y-77290602D01*
X160233501Y-77230264D01*
X160233489Y-77230261D01*
X160078845Y-77199500D01*
X160078842Y-77199500D01*
X159921158Y-77199500D01*
X159921155Y-77199500D01*
X159766510Y-77230261D01*
X159766498Y-77230264D01*
X159620827Y-77290602D01*
X159620814Y-77290609D01*
X159489711Y-77378210D01*
X159489707Y-77378213D01*
X159378213Y-77489707D01*
X159378210Y-77489711D01*
X159327601Y-77565453D01*
X159273989Y-77610258D01*
X159204664Y-77618965D01*
X159141636Y-77588810D01*
X159104917Y-77529367D01*
X159100499Y-77496562D01*
X159100499Y-77349998D01*
X159100498Y-77349981D01*
X159089999Y-77247203D01*
X159089998Y-77247200D01*
X159074192Y-77199500D01*
X159034814Y-77080666D01*
X158942712Y-76931344D01*
X158911368Y-76900000D01*
X163000000Y-76900000D01*
X163047828Y-76900000D01*
X163047844Y-76899999D01*
X163107371Y-76893598D01*
X163181666Y-76865888D01*
X163251358Y-76860904D01*
X163268334Y-76865888D01*
X163342628Y-76893598D01*
X163342627Y-76893598D01*
X163402155Y-76899999D01*
X163402172Y-76900000D01*
X163450000Y-76900000D01*
X163850000Y-76900000D01*
X163897828Y-76900000D01*
X163897844Y-76899999D01*
X163957371Y-76893598D01*
X164031666Y-76865888D01*
X164101358Y-76860904D01*
X164118334Y-76865888D01*
X164192628Y-76893598D01*
X164192627Y-76893598D01*
X164252155Y-76899999D01*
X164252172Y-76900000D01*
X164300000Y-76900000D01*
X164700000Y-76900000D01*
X164747828Y-76900000D01*
X164747844Y-76899999D01*
X164807371Y-76893598D01*
X164881666Y-76865888D01*
X164951358Y-76860904D01*
X164968334Y-76865888D01*
X165042628Y-76893598D01*
X165042627Y-76893598D01*
X165102155Y-76899999D01*
X165102172Y-76900000D01*
X165150000Y-76900000D01*
X165550000Y-76900000D01*
X165597828Y-76900000D01*
X165597844Y-76899999D01*
X165657371Y-76893598D01*
X165731666Y-76865888D01*
X165801358Y-76860904D01*
X165818334Y-76865888D01*
X165892628Y-76893598D01*
X165892627Y-76893598D01*
X165952155Y-76899999D01*
X165952172Y-76900000D01*
X166000000Y-76900000D01*
X166400000Y-76900000D01*
X166447828Y-76900000D01*
X166447844Y-76899999D01*
X166507371Y-76893598D01*
X166581666Y-76865888D01*
X166651358Y-76860904D01*
X166668334Y-76865888D01*
X166742628Y-76893598D01*
X166742627Y-76893598D01*
X166802155Y-76899999D01*
X166802172Y-76900000D01*
X166850000Y-76900000D01*
X167250000Y-76900000D01*
X167297828Y-76900000D01*
X167297844Y-76899999D01*
X167357371Y-76893598D01*
X167431666Y-76865888D01*
X167501358Y-76860904D01*
X167518334Y-76865888D01*
X167592628Y-76893598D01*
X167592627Y-76893598D01*
X167652155Y-76899999D01*
X167652172Y-76900000D01*
X167700000Y-76900000D01*
X168100000Y-76900000D01*
X168147828Y-76900000D01*
X168147844Y-76899999D01*
X168207371Y-76893598D01*
X168281666Y-76865888D01*
X168351358Y-76860904D01*
X168368334Y-76865888D01*
X168442628Y-76893598D01*
X168442627Y-76893598D01*
X168502155Y-76899999D01*
X168502172Y-76900000D01*
X168550000Y-76900000D01*
X168550000Y-76200000D01*
X168100000Y-76200000D01*
X168100000Y-76900000D01*
X167700000Y-76900000D01*
X167700000Y-76200000D01*
X167250000Y-76200000D01*
X167250000Y-76900000D01*
X166850000Y-76900000D01*
X166850000Y-76200000D01*
X166400000Y-76200000D01*
X166400000Y-76900000D01*
X166000000Y-76900000D01*
X166000000Y-76200000D01*
X165550000Y-76200000D01*
X165550000Y-76900000D01*
X165150000Y-76900000D01*
X165150000Y-76200000D01*
X164700000Y-76200000D01*
X164700000Y-76900000D01*
X164300000Y-76900000D01*
X164300000Y-76200000D01*
X163850000Y-76200000D01*
X163850000Y-76900000D01*
X163450000Y-76900000D01*
X163450000Y-76200000D01*
X163000000Y-76200000D01*
X163000000Y-76900000D01*
X158911368Y-76900000D01*
X158818656Y-76807288D01*
X158669334Y-76715186D01*
X158502797Y-76660001D01*
X158502795Y-76660000D01*
X158400010Y-76649500D01*
X157099998Y-76649500D01*
X157099981Y-76649501D01*
X156997203Y-76660000D01*
X156997200Y-76660001D01*
X156830668Y-76715185D01*
X156830663Y-76715187D01*
X156681342Y-76807289D01*
X156557289Y-76931342D01*
X156465187Y-77080663D01*
X156465186Y-77080666D01*
X156410001Y-77247203D01*
X156410001Y-77247204D01*
X156410000Y-77247204D01*
X156399500Y-77349983D01*
X156399500Y-82650001D01*
X156399501Y-82650018D01*
X156410000Y-82752796D01*
X156410001Y-82752799D01*
X156449110Y-82870821D01*
X156465186Y-82919334D01*
X156557288Y-83068656D01*
X156681344Y-83192712D01*
X156830666Y-83284814D01*
X156914505Y-83312595D01*
X156971948Y-83352366D01*
X156998772Y-83416882D01*
X156999500Y-83430300D01*
X156999500Y-84161415D01*
X156979815Y-84228454D01*
X156927011Y-84274209D01*
X156914505Y-84279121D01*
X156805666Y-84315187D01*
X156805663Y-84315188D01*
X156656342Y-84407290D01*
X156532289Y-84531343D01*
X156440187Y-84680664D01*
X156440185Y-84680669D01*
X156417945Y-84747786D01*
X156385001Y-84847204D01*
X156385001Y-84847205D01*
X156385000Y-84847205D01*
X156374500Y-84949984D01*
X156374500Y-85550002D01*
X156374501Y-85550020D01*
X156385000Y-85652797D01*
X156385001Y-85652800D01*
X156433071Y-85797864D01*
X156440186Y-85819335D01*
X156526576Y-85959397D01*
X156532289Y-85968658D01*
X156656344Y-86092713D01*
X156659653Y-86094754D01*
X156661445Y-86096746D01*
X156662011Y-86097194D01*
X156661934Y-86097290D01*
X156706378Y-86146701D01*
X156717601Y-86215664D01*
X156689758Y-86279746D01*
X156659665Y-86305825D01*
X156656659Y-86307678D01*
X156532684Y-86431653D01*
X156440643Y-86580874D01*
X156440641Y-86580879D01*
X156385494Y-86747301D01*
X156385493Y-86747308D01*
X156375000Y-86850012D01*
X156375000Y-86899999D01*
X158824999Y-86899999D01*
X158824999Y-86850027D01*
X158824998Y-86850012D01*
X158814505Y-86747301D01*
X158759358Y-86580879D01*
X158759356Y-86580874D01*
X158667315Y-86431653D01*
X158543344Y-86307682D01*
X158543341Y-86307680D01*
X158540339Y-86305828D01*
X158538713Y-86304020D01*
X158537677Y-86303201D01*
X158537817Y-86303023D01*
X158493618Y-86253878D01*
X158482399Y-86184914D01*
X158510246Y-86120834D01*
X158540348Y-86094752D01*
X158543656Y-86092713D01*
X158667712Y-85968657D01*
X158759814Y-85819335D01*
X158814999Y-85652798D01*
X158825500Y-85550010D01*
X158825499Y-84949993D01*
X158825282Y-84947873D01*
X158814999Y-84847204D01*
X158814998Y-84847201D01*
X158804383Y-84815167D01*
X158759814Y-84680667D01*
X158667712Y-84531345D01*
X158543656Y-84407289D01*
X158416479Y-84328846D01*
X158394336Y-84315188D01*
X158394335Y-84315187D01*
X158394334Y-84315187D01*
X158333301Y-84294962D01*
X158285495Y-84279121D01*
X158228050Y-84239348D01*
X158201228Y-84174832D01*
X158200500Y-84161415D01*
X158200500Y-83474499D01*
X158220185Y-83407460D01*
X158272989Y-83361705D01*
X158324500Y-83350499D01*
X158400002Y-83350499D01*
X158400008Y-83350499D01*
X158502797Y-83339999D01*
X158669334Y-83284814D01*
X158818656Y-83192712D01*
X158942712Y-83068656D01*
X158990328Y-82991456D01*
X159042274Y-82944733D01*
X159111236Y-82933510D01*
X159175319Y-82961353D01*
X159214176Y-83019421D01*
X159217484Y-83080745D01*
X159199500Y-83171159D01*
X159199500Y-83328846D01*
X159230261Y-83483489D01*
X159230264Y-83483501D01*
X159290602Y-83629172D01*
X159290609Y-83629185D01*
X159325304Y-83681109D01*
X159346182Y-83747786D01*
X159327698Y-83815167D01*
X159325304Y-83818891D01*
X159290609Y-83870814D01*
X159290602Y-83870827D01*
X159230264Y-84016498D01*
X159230261Y-84016510D01*
X159199500Y-84171153D01*
X159199500Y-84328846D01*
X159230261Y-84483489D01*
X159230264Y-84483501D01*
X159290602Y-84629172D01*
X159290609Y-84629185D01*
X159325304Y-84681109D01*
X159346182Y-84747786D01*
X159327698Y-84815167D01*
X159325304Y-84818891D01*
X159290609Y-84870814D01*
X159290602Y-84870827D01*
X159230264Y-85016498D01*
X159230261Y-85016510D01*
X159199500Y-85171153D01*
X159199500Y-85328846D01*
X159230261Y-85483489D01*
X159230264Y-85483501D01*
X159290602Y-85629172D01*
X159290609Y-85629185D01*
X159378210Y-85760288D01*
X159378213Y-85760292D01*
X159489707Y-85871786D01*
X159489711Y-85871789D01*
X159620814Y-85959390D01*
X159620827Y-85959397D01*
X159763116Y-86018334D01*
X159766503Y-86019737D01*
X159921153Y-86050499D01*
X159921156Y-86050500D01*
X159921158Y-86050500D01*
X160078844Y-86050500D01*
X160078845Y-86050499D01*
X160233497Y-86019737D01*
X160379179Y-85959394D01*
X160510289Y-85871789D01*
X160621789Y-85760289D01*
X160624591Y-85756094D01*
X160678198Y-85711285D01*
X160747522Y-85702571D01*
X160810552Y-85732719D01*
X160847277Y-85792158D01*
X160847574Y-85793257D01*
X160849983Y-85802365D01*
X160855909Y-85857483D01*
X160885711Y-85937388D01*
X160887270Y-85943280D01*
X160886486Y-85972352D01*
X160888561Y-86001358D01*
X160885416Y-86012066D01*
X160885388Y-86013125D01*
X160884891Y-86013853D01*
X160883577Y-86018331D01*
X160855910Y-86092511D01*
X160855909Y-86092515D01*
X160855909Y-86092517D01*
X160849500Y-86152127D01*
X160849500Y-86152134D01*
X160849500Y-86152135D01*
X160849500Y-86647870D01*
X160849501Y-86647876D01*
X160855908Y-86707483D01*
X160883577Y-86781667D01*
X160888561Y-86851358D01*
X160883577Y-86868331D01*
X160855910Y-86942511D01*
X160855909Y-86942515D01*
X160855909Y-86942517D01*
X160849500Y-87002127D01*
X160849500Y-87212184D01*
X160849501Y-87375500D01*
X160829817Y-87442539D01*
X160777013Y-87488294D01*
X160725501Y-87499500D01*
X159486669Y-87499500D01*
X159486653Y-87499499D01*
X159479057Y-87499499D01*
X159320943Y-87499499D01*
X159206397Y-87530192D01*
X159168214Y-87540423D01*
X159148414Y-87551855D01*
X159148402Y-87551861D01*
X159146785Y-87552796D01*
X159031284Y-87619480D01*
X159018523Y-87632240D01*
X159006276Y-87639820D01*
X158985914Y-87645424D01*
X158967373Y-87655547D01*
X158952899Y-87654510D01*
X158938911Y-87658361D01*
X158918749Y-87652066D01*
X158897681Y-87650558D01*
X158886065Y-87641861D01*
X158872217Y-87637538D01*
X158858659Y-87621342D01*
X158841750Y-87608683D01*
X158836680Y-87595087D01*
X158827367Y-87583963D01*
X158824717Y-87563009D01*
X158817337Y-87543218D01*
X158817664Y-87521775D01*
X158824999Y-87449982D01*
X158825000Y-87449972D01*
X158825000Y-87399999D01*
X157850000Y-87399999D01*
X157850000Y-88149998D01*
X158124972Y-88149998D01*
X158124986Y-88149997D01*
X158196779Y-88142663D01*
X158265472Y-88155432D01*
X158316356Y-88203313D01*
X158333277Y-88271103D01*
X158310861Y-88337279D01*
X158297062Y-88353702D01*
X157787584Y-88863181D01*
X157726261Y-88896666D01*
X157699903Y-88899500D01*
X151124000Y-88899500D01*
X151056961Y-88879815D01*
X151011206Y-88827011D01*
X151000000Y-88775500D01*
X151000000Y-87524500D01*
X151002550Y-87515814D01*
X151001262Y-87506853D01*
X151012240Y-87482812D01*
X151019685Y-87457461D01*
X151026525Y-87451533D01*
X151030287Y-87443297D01*
X151052521Y-87429007D01*
X151072489Y-87411706D01*
X151083003Y-87409418D01*
X151089065Y-87405523D01*
X151124000Y-87400500D01*
X151333741Y-87400500D01*
X151400780Y-87420185D01*
X151446535Y-87472989D01*
X151448302Y-87477048D01*
X151490602Y-87579172D01*
X151490609Y-87579185D01*
X151578210Y-87710288D01*
X151578213Y-87710292D01*
X151689707Y-87821786D01*
X151689711Y-87821789D01*
X151820814Y-87909390D01*
X151820827Y-87909397D01*
X151966498Y-87969735D01*
X151966503Y-87969737D01*
X152121153Y-88000499D01*
X152121156Y-88000500D01*
X152121158Y-88000500D01*
X152278844Y-88000500D01*
X152278845Y-88000499D01*
X152433497Y-87969737D01*
X152579179Y-87909394D01*
X152710289Y-87821789D01*
X152718820Y-87813257D01*
X152780138Y-87779769D01*
X152849831Y-87784748D01*
X152905767Y-87826615D01*
X152912044Y-87835835D01*
X152922098Y-87852135D01*
X152932288Y-87868655D01*
X153056344Y-87992711D01*
X153205666Y-88084813D01*
X153372203Y-88139998D01*
X153474991Y-88150499D01*
X154525008Y-88150498D01*
X154525016Y-88150497D01*
X154525019Y-88150497D01*
X154601708Y-88142663D01*
X154627797Y-88139998D01*
X154794334Y-88084813D01*
X154943656Y-87992711D01*
X155067712Y-87868655D01*
X155159814Y-87719333D01*
X155214999Y-87552796D01*
X155225500Y-87450008D01*
X155225500Y-87449985D01*
X156375001Y-87449985D01*
X156385494Y-87552696D01*
X156440641Y-87719118D01*
X156440643Y-87719123D01*
X156532684Y-87868344D01*
X156656654Y-87992314D01*
X156805875Y-88084355D01*
X156805880Y-88084357D01*
X156972302Y-88139504D01*
X156972309Y-88139505D01*
X157075019Y-88149998D01*
X157349999Y-88149998D01*
X157350000Y-88149997D01*
X157350000Y-87399999D01*
X156375001Y-87399999D01*
X156375001Y-87449985D01*
X155225500Y-87449985D01*
X155225499Y-86849991D01*
X155214999Y-86747202D01*
X155159814Y-86580665D01*
X155067712Y-86431343D01*
X154943656Y-86307287D01*
X154943655Y-86307286D01*
X154940822Y-86305539D01*
X154939286Y-86303832D01*
X154937989Y-86302806D01*
X154938164Y-86302584D01*
X154894097Y-86253592D01*
X154882874Y-86184630D01*
X154910717Y-86120547D01*
X154940822Y-86094461D01*
X154943656Y-86092713D01*
X155067712Y-85968657D01*
X155159814Y-85819335D01*
X155214999Y-85652798D01*
X155225500Y-85550010D01*
X155225499Y-84949993D01*
X155225282Y-84947873D01*
X155214999Y-84847204D01*
X155214998Y-84847201D01*
X155204383Y-84815167D01*
X155159814Y-84680667D01*
X155067712Y-84531345D01*
X154943656Y-84407289D01*
X154816479Y-84328846D01*
X154794336Y-84315188D01*
X154794331Y-84315186D01*
X154792862Y-84314699D01*
X154627797Y-84260002D01*
X154627795Y-84260001D01*
X154525016Y-84249501D01*
X154525009Y-84249501D01*
X153974500Y-84249501D01*
X153907461Y-84229816D01*
X153861706Y-84177012D01*
X153850500Y-84125501D01*
X153850500Y-83467534D01*
X153870185Y-83400495D01*
X153922989Y-83354740D01*
X153961897Y-83344176D01*
X154002797Y-83339999D01*
X154169334Y-83284814D01*
X154318656Y-83192712D01*
X154442712Y-83068656D01*
X154534814Y-82919334D01*
X154589999Y-82752797D01*
X154600500Y-82650009D01*
X154600499Y-77349992D01*
X154589999Y-77247203D01*
X154534814Y-77080666D01*
X154442712Y-76931344D01*
X154318656Y-76807288D01*
X154169334Y-76715186D01*
X154002797Y-76660001D01*
X154002795Y-76660000D01*
X153900010Y-76649500D01*
X152599998Y-76649500D01*
X152599981Y-76649501D01*
X152497203Y-76660000D01*
X152497200Y-76660001D01*
X152330668Y-76715185D01*
X152330663Y-76715187D01*
X152181342Y-76807289D01*
X152057289Y-76931342D01*
X151965187Y-77080663D01*
X151965186Y-77080666D01*
X151910001Y-77247203D01*
X151910001Y-77247204D01*
X151910000Y-77247204D01*
X151899500Y-77349983D01*
X151899500Y-82650001D01*
X151899501Y-82650018D01*
X151910000Y-82752796D01*
X151910001Y-82752799D01*
X151949110Y-82870821D01*
X151965186Y-82919334D01*
X152057288Y-83068656D01*
X152181344Y-83192712D01*
X152330666Y-83284814D01*
X152497203Y-83339999D01*
X152538103Y-83344177D01*
X152602793Y-83370573D01*
X152642945Y-83427753D01*
X152649500Y-83467534D01*
X152649500Y-84420940D01*
X152649499Y-84420944D01*
X152649499Y-84479057D01*
X152649499Y-84525502D01*
X152629814Y-84592541D01*
X152577009Y-84638296D01*
X152576998Y-84638297D01*
X152525499Y-84649501D01*
X152150098Y-84649501D01*
X152083059Y-84629816D01*
X152062417Y-84613182D01*
X151487590Y-84038355D01*
X151487587Y-84038351D01*
X151487587Y-84038352D01*
X151480520Y-84031285D01*
X151480520Y-84031284D01*
X151368716Y-83919480D01*
X151368715Y-83919479D01*
X151364385Y-83915149D01*
X151364374Y-83915139D01*
X151036319Y-83587084D01*
X151002834Y-83525761D01*
X151000000Y-83499403D01*
X151000000Y-76124000D01*
X151019685Y-76056961D01*
X151072489Y-76011206D01*
X151124000Y-76000000D01*
X160726000Y-76000000D01*
X160793039Y-76019685D01*
G37*
%TD.AperFunction*%
%TA.AperFunction,Conductor*%
G36*
X174276792Y-90863194D02*
G01*
X174301358Y-90861438D01*
X174318327Y-90866420D01*
X174392517Y-90894091D01*
X174452127Y-90900500D01*
X174947872Y-90900499D01*
X175007483Y-90894091D01*
X175082380Y-90866155D01*
X175152071Y-90861171D01*
X175169053Y-90866157D01*
X175181690Y-90870871D01*
X175237621Y-90912745D01*
X175262035Y-90978210D01*
X175247181Y-91046483D01*
X175226032Y-91074732D01*
X174437584Y-91863181D01*
X174376261Y-91896666D01*
X174349903Y-91899500D01*
X173299097Y-91899500D01*
X173232058Y-91879815D01*
X173186303Y-91827011D01*
X173176359Y-91757853D01*
X173205384Y-91694297D01*
X173211416Y-91687819D01*
X173962416Y-90936818D01*
X174023739Y-90903333D01*
X174027389Y-90902596D01*
X174038646Y-90900499D01*
X174097872Y-90900499D01*
X174157483Y-90894091D01*
X174241732Y-90862668D01*
X174252292Y-90860701D01*
X174276792Y-90863194D01*
G37*
%TD.AperFunction*%
%TA.AperFunction,Conductor*%
G36*
X160793039Y-89570185D02*
G01*
X160838794Y-89622989D01*
X160850000Y-89674500D01*
X160850000Y-89750000D01*
X161626000Y-89750000D01*
X161693039Y-89769685D01*
X161738794Y-89822489D01*
X161750000Y-89874000D01*
X161750000Y-90126000D01*
X161730315Y-90193039D01*
X161677511Y-90238794D01*
X161626000Y-90250000D01*
X160850000Y-90250000D01*
X160850000Y-90275500D01*
X160830315Y-90342539D01*
X160777511Y-90388294D01*
X160726000Y-90399500D01*
X159749097Y-90399500D01*
X159682058Y-90379815D01*
X159636303Y-90327011D01*
X159626359Y-90257853D01*
X159655384Y-90194297D01*
X159661416Y-90187819D01*
X159907648Y-89941588D01*
X160262417Y-89586819D01*
X160323740Y-89553334D01*
X160350098Y-89550500D01*
X160726000Y-89550500D01*
X160793039Y-89570185D01*
G37*
%TD.AperFunction*%
%TD*%
M02*
