%TF.GenerationSoftware,KiCad,Pcbnew,10.0.3*%
%TF.CreationDate,2026-06-29T00:25:18-04:00*%
%TF.ProjectId,watch,77617463-682e-46b6-9963-61645f706362,rev?*%
%TF.SameCoordinates,Original*%
%TF.FileFunction,Soldermask,Top*%
%TF.FilePolarity,Negative*%
%FSLAX46Y46*%
G04 Gerber Fmt 4.6, Leading zero omitted, Abs format (unit mm)*
G04 Created by KiCad (PCBNEW 10.0.3) date 2026-06-29 00:25:18*
%MOMM*%
%LPD*%
G01*
G04 APERTURE LIST*
G04 Aperture macros list*
%AMRoundRect*
0 Rectangle with rounded corners*
0 $1 Rounding radius*
0 $2 $3 $4 $5 $6 $7 $8 $9 X,Y pos of 4 corners*
0 Add a 4 corners polygon primitive as box body*
4,1,4,$2,$3,$4,$5,$6,$7,$8,$9,$2,$3,0*
0 Add four circle primitives for the rounded corners*
1,1,$1+$1,$2,$3*
1,1,$1+$1,$4,$5*
1,1,$1+$1,$6,$7*
1,1,$1+$1,$8,$9*
0 Add four rect primitives between the rounded corners*
20,1,$1+$1,$2,$3,$4,$5,0*
20,1,$1+$1,$4,$5,$6,$7,0*
20,1,$1+$1,$6,$7,$8,$9,0*
20,1,$1+$1,$8,$9,$2,$3,0*%
%AMRotRect*
0 Rectangle, with rotation*
0 The origin of the aperture is its center*
0 $1 length*
0 $2 width*
0 $3 Rotation angle, in degrees counterclockwise*
0 Add horizontal line*
21,1,$1,$2,0,0,$3*%
%AMOutline5P*
0 Free polygon, 5 corners , with rotation*
0 The origin of the aperture is its center*
0 number of corners: always 5*
0 $1 to $10 corner X, Y*
0 $11 Rotation angle, in degrees counterclockwise*
0 create outline with 5 corners*
4,1,5,$1,$2,$3,$4,$5,$6,$7,$8,$9,$10,$1,$2,$11*%
%AMOutline6P*
0 Free polygon, 6 corners , with rotation*
0 The origin of the aperture is its center*
0 number of corners: always 6*
0 $1 to $12 corner X, Y*
0 $13 Rotation angle, in degrees counterclockwise*
0 create outline with 6 corners*
4,1,6,$1,$2,$3,$4,$5,$6,$7,$8,$9,$10,$11,$12,$1,$2,$13*%
%AMOutline7P*
0 Free polygon, 7 corners , with rotation*
0 The origin of the aperture is its center*
0 number of corners: always 7*
0 $1 to $14 corner X, Y*
0 $15 Rotation angle, in degrees counterclockwise*
0 create outline with 7 corners*
4,1,7,$1,$2,$3,$4,$5,$6,$7,$8,$9,$10,$11,$12,$13,$14,$1,$2,$15*%
%AMOutline8P*
0 Free polygon, 8 corners , with rotation*
0 The origin of the aperture is its center*
0 number of corners: always 8*
0 $1 to $16 corner X, Y*
0 $17 Rotation angle, in degrees counterclockwise*
0 create outline with 8 corners*
4,1,8,$1,$2,$3,$4,$5,$6,$7,$8,$9,$10,$11,$12,$13,$14,$15,$16,$1,$2,$17*%
G04 Aperture macros list end*
%ADD10C,0.000000*%
%ADD11RotRect,1.230000X1.860000X45.000000*%
%ADD12O,1.200000X1.750000*%
%ADD13RoundRect,0.250000X-0.350000X-0.625000X0.350000X-0.625000X0.350000X0.625000X-0.350000X0.625000X0*%
%ADD14RoundRect,0.237500X0.287500X0.237500X-0.287500X0.237500X-0.287500X-0.237500X0.287500X-0.237500X0*%
%ADD15RoundRect,0.250000X2.600000X-0.600000X2.600000X0.600000X-2.600000X0.600000X-2.600000X-0.600000X0*%
%ADD16RoundRect,0.150000X-0.512500X-0.150000X0.512500X-0.150000X0.512500X0.150000X-0.512500X0.150000X0*%
%ADD17RoundRect,0.250000X0.475000X-0.337500X0.475000X0.337500X-0.475000X0.337500X-0.475000X-0.337500X0*%
%ADD18RoundRect,0.225000X-0.225000X-0.375000X0.225000X-0.375000X0.225000X0.375000X-0.225000X0.375000X0*%
%ADD19RoundRect,0.250000X0.337500X0.475000X-0.337500X0.475000X-0.337500X-0.475000X0.337500X-0.475000X0*%
%ADD20R,1.800000X1.000000*%
%ADD21RoundRect,0.237500X-0.237500X0.250000X-0.237500X-0.250000X0.237500X-0.250000X0.237500X0.250000X0*%
%ADD22RoundRect,0.250000X-0.337500X-0.475000X0.337500X-0.475000X0.337500X0.475000X-0.337500X0.475000X0*%
%ADD23RoundRect,0.150000X0.512500X0.150000X-0.512500X0.150000X-0.512500X-0.150000X0.512500X-0.150000X0*%
%ADD24R,1.700000X1.700000*%
%ADD25C,1.700000*%
%ADD26R,1.300000X0.300000*%
%ADD27R,3.000000X2.000000*%
%ADD28RoundRect,0.250000X-0.475000X0.337500X-0.475000X-0.337500X0.475000X-0.337500X0.475000X0.337500X0*%
%ADD29RoundRect,0.225000X-0.375000X0.225000X-0.375000X-0.225000X0.375000X-0.225000X0.375000X0.225000X0*%
%ADD30RoundRect,0.237500X0.237500X-0.250000X0.237500X0.250000X-0.237500X0.250000X-0.237500X-0.250000X0*%
%ADD31R,0.800000X0.400000*%
%ADD32R,0.400000X0.800000*%
%ADD33Outline5P,-0.600000X0.204000X-0.204000X0.600000X0.600000X0.600000X0.600000X-0.600000X-0.600000X-0.600000X0.000000*%
%ADD34R,1.200000X1.200000*%
%ADD35R,0.800000X0.800000*%
%ADD36RoundRect,0.237500X0.250000X0.237500X-0.250000X0.237500X-0.250000X-0.237500X0.250000X-0.237500X0*%
%ADD37RotRect,1.230000X1.860000X225.000000*%
%ADD38C,0.650000*%
%ADD39RoundRect,0.150000X-0.150000X-0.470000X0.150000X-0.470000X0.150000X0.470000X-0.150000X0.470000X0*%
%ADD40RoundRect,0.075000X-0.075000X-0.545000X0.075000X-0.545000X0.075000X0.545000X-0.075000X0.545000X0*%
%ADD41O,1.000000X2.100000*%
%ADD42O,1.000000X1.800000*%
%ADD43RoundRect,0.225000X0.225000X0.375000X-0.225000X0.375000X-0.225000X-0.375000X0.225000X-0.375000X0*%
%ADD44RoundRect,0.112500X-0.350000X-0.112500X0.350000X-0.112500X0.350000X0.112500X-0.350000X0.112500X0*%
G04 APERTURE END LIST*
D10*
%TO.C,G\u002A\u002A\u002A*%
G36*
X117874517Y-83313128D02*
G01*
X117880320Y-83317021D01*
X117889779Y-83324911D01*
X117903502Y-83337391D01*
X117922104Y-83355062D01*
X117946190Y-83378523D01*
X117976372Y-83408370D01*
X118013260Y-83445203D01*
X118057464Y-83489619D01*
X118109593Y-83542216D01*
X118170259Y-83603593D01*
X118240070Y-83674348D01*
X118319638Y-83755078D01*
X118387330Y-83823799D01*
X118606200Y-84046029D01*
X119303182Y-84046039D01*
X120000164Y-84046048D01*
X120141232Y-84181949D01*
X120282299Y-84317849D01*
X120282300Y-85438769D01*
X120282300Y-86559688D01*
X120503514Y-87063312D01*
X120540202Y-87146799D01*
X120575198Y-87226361D01*
X120607986Y-87300832D01*
X120638053Y-87369043D01*
X120664882Y-87429830D01*
X120687957Y-87482024D01*
X120706764Y-87524459D01*
X120720787Y-87555967D01*
X120729511Y-87575384D01*
X120732292Y-87581358D01*
X120735595Y-87591530D01*
X120732944Y-87592952D01*
X120726513Y-87587066D01*
X120710219Y-87570999D01*
X120684963Y-87545664D01*
X120651643Y-87511978D01*
X120611160Y-87470856D01*
X120564414Y-87423214D01*
X120512306Y-87369965D01*
X120455735Y-87312025D01*
X120395602Y-87250311D01*
X120363353Y-87217166D01*
X120000676Y-86844204D01*
X119300798Y-86844204D01*
X119300488Y-86844204D01*
X118600920Y-86844204D01*
X118459930Y-86703059D01*
X118318940Y-86561915D01*
X118318940Y-85445116D01*
X118674864Y-85445116D01*
X118681273Y-85449776D01*
X118699502Y-85461166D01*
X118727953Y-85478337D01*
X118765030Y-85500339D01*
X118809137Y-85526220D01*
X118858677Y-85555031D01*
X118886625Y-85571184D01*
X118938845Y-85601450D01*
X118986864Y-85629566D01*
X119029005Y-85654530D01*
X119063593Y-85675336D01*
X119088954Y-85690983D01*
X119103410Y-85700466D01*
X119106032Y-85702590D01*
X119110045Y-85711797D01*
X119118229Y-85734050D01*
X119130014Y-85767681D01*
X119144833Y-85811023D01*
X119162112Y-85862406D01*
X119181284Y-85920164D01*
X119201780Y-85982625D01*
X119204688Y-85991546D01*
X119225156Y-86053936D01*
X119244260Y-86111337D01*
X119261455Y-86162170D01*
X119276195Y-86204861D01*
X119287935Y-86237833D01*
X119296130Y-86259510D01*
X119300234Y-86268316D01*
X119300488Y-86268418D01*
X119303840Y-86260670D01*
X119311396Y-86239820D01*
X119322611Y-86207477D01*
X119336939Y-86165251D01*
X119353834Y-86114753D01*
X119372753Y-86057591D01*
X119393149Y-85995376D01*
X119397297Y-85982655D01*
X119489445Y-85699773D01*
X119707345Y-85574377D01*
X119759631Y-85544000D01*
X119807055Y-85515895D01*
X119848090Y-85491009D01*
X119881209Y-85470291D01*
X119904890Y-85454688D01*
X119917606Y-85445149D01*
X119919295Y-85442676D01*
X119911365Y-85437383D01*
X119891695Y-85425354D01*
X119861940Y-85407570D01*
X119823756Y-85385011D01*
X119778796Y-85358657D01*
X119728718Y-85329488D01*
X119701673Y-85313805D01*
X119490000Y-85191239D01*
X119397242Y-84908905D01*
X119376481Y-84845928D01*
X119357129Y-84787642D01*
X119339732Y-84735663D01*
X119324839Y-84691607D01*
X119312995Y-84657090D01*
X119304749Y-84633728D01*
X119300647Y-84623140D01*
X119300380Y-84622705D01*
X119297156Y-84628924D01*
X119289703Y-84648303D01*
X119278558Y-84679297D01*
X119264258Y-84720360D01*
X119247338Y-84769942D01*
X119228339Y-84826501D01*
X119207793Y-84888489D01*
X119201916Y-84906369D01*
X119107556Y-85193899D01*
X118891274Y-85317576D01*
X118838880Y-85347649D01*
X118791053Y-85375319D01*
X118749382Y-85399649D01*
X118715452Y-85419704D01*
X118690853Y-85434548D01*
X118677172Y-85443245D01*
X118674864Y-85445116D01*
X118318940Y-85445116D01*
X118318940Y-85443162D01*
X118318940Y-84324409D01*
X118101487Y-83835447D01*
X118064781Y-83752880D01*
X118029704Y-83673920D01*
X117996798Y-83599790D01*
X117966605Y-83531711D01*
X117939662Y-83470904D01*
X117916516Y-83418591D01*
X117897704Y-83375993D01*
X117883767Y-83344332D01*
X117875246Y-83324830D01*
X117872944Y-83319432D01*
X117871439Y-83314931D01*
X117871760Y-83312630D01*
X117874517Y-83313128D01*
G37*
%TD*%
D11*
%TO.C,SW4*%
X175390056Y-105004972D03*
X172300000Y-108095028D03*
%TD*%
D12*
%TO.C,J3*%
X164800000Y-105050000D03*
D13*
X162800000Y-105050000D03*
%TD*%
D14*
%TO.C,D2*%
X146425001Y-109050000D03*
X148174999Y-109050000D03*
%TD*%
D15*
%TO.C,L1*%
X167000000Y-99100000D03*
X167000000Y-94600000D03*
%TD*%
D16*
%TO.C,U3*%
X160412500Y-98600001D03*
X160412500Y-99550000D03*
X160412500Y-100499999D03*
X162687500Y-100499999D03*
X162687500Y-98600001D03*
%TD*%
D17*
%TO.C,C10*%
X145800000Y-88887500D03*
X145800000Y-86812500D03*
%TD*%
%TO.C,C7*%
X141800000Y-92887500D03*
X141800000Y-90812500D03*
%TD*%
%TO.C,C8*%
X139200000Y-92887500D03*
X139200000Y-90812500D03*
%TD*%
D18*
%TO.C,D6*%
X150050000Y-91050000D03*
X146750000Y-91050000D03*
%TD*%
%TO.C,D4*%
X150050000Y-95850000D03*
X146750000Y-95850000D03*
%TD*%
D19*
%TO.C,C19*%
X150162500Y-81550000D03*
X152237500Y-81550000D03*
%TD*%
%TO.C,C18*%
X150162500Y-79050000D03*
X152237500Y-79050000D03*
%TD*%
D20*
%TO.C,Y1*%
X147949999Y-81549999D03*
X147949999Y-79050001D03*
%TD*%
D21*
%TO.C,R4*%
X150300000Y-103137500D03*
X150300000Y-104962500D03*
%TD*%
D22*
%TO.C,C17*%
X155362500Y-87250000D03*
X157437500Y-87250000D03*
%TD*%
D23*
%TO.C,U2*%
X150187500Y-101499999D03*
X150187500Y-100550000D03*
X150187500Y-99600001D03*
X147912500Y-99600001D03*
X147912500Y-101499999D03*
%TD*%
D24*
%TO.C,IO pins*%
X181800000Y-76160000D03*
D25*
X181800000Y-93940000D03*
X181800000Y-91400000D03*
X181800000Y-88860000D03*
X181800000Y-78700000D03*
X181800000Y-86320000D03*
X181800000Y-83780000D03*
X181800000Y-81240000D03*
%TD*%
D26*
%TO.C,J5*%
X126400000Y-94300000D03*
X126400000Y-96800000D03*
X126400000Y-95800000D03*
X126400000Y-95300000D03*
X126400000Y-87800000D03*
X126400000Y-88300000D03*
X126400000Y-93300000D03*
X126400000Y-94800000D03*
X126400000Y-97800000D03*
X126400000Y-93800000D03*
X126400000Y-89300000D03*
X126400000Y-88800000D03*
X126400000Y-92800000D03*
X126400000Y-92300000D03*
X126400000Y-90800000D03*
X126400000Y-87300000D03*
X126400000Y-97300000D03*
X126400000Y-96300000D03*
D27*
X124050000Y-99450000D03*
X124050000Y-84650000D03*
D26*
X126400000Y-86300000D03*
X126400000Y-86800000D03*
X126400000Y-91300000D03*
X126400000Y-91800000D03*
X126400000Y-90300000D03*
X126400000Y-89800000D03*
%TD*%
D28*
%TO.C,C5*%
X129550000Y-104837500D03*
X129550000Y-102762500D03*
%TD*%
D19*
%TO.C,C15*%
X164962500Y-101650000D03*
X167037500Y-101650000D03*
%TD*%
D29*
%TO.C,D3*%
X136300000Y-101950000D03*
X136300000Y-98650000D03*
%TD*%
D17*
%TO.C,C1*%
X145050000Y-100012500D03*
X145050000Y-102087500D03*
%TD*%
D30*
%TO.C,R8*%
X141550000Y-100137500D03*
X141550000Y-101962500D03*
%TD*%
D29*
%TO.C,D1*%
X153550000Y-101950000D03*
X153550000Y-98650000D03*
%TD*%
D22*
%TO.C,C16*%
X157437500Y-84650000D03*
X155362500Y-84650000D03*
%TD*%
%TO.C,C13*%
X138762500Y-85050000D03*
X140837500Y-85050000D03*
%TD*%
D28*
%TO.C,C3*%
X124050000Y-102762500D03*
X124050000Y-104837500D03*
%TD*%
D17*
%TO.C,C9*%
X136600000Y-92887500D03*
X136600000Y-90812500D03*
%TD*%
%TO.C,C11*%
X152400000Y-94487500D03*
X152400000Y-92412500D03*
%TD*%
D30*
%TO.C,R5*%
X129600000Y-84162500D03*
X129600000Y-82337500D03*
%TD*%
D31*
%TO.C,ESP32-S3-MINI-1*%
X161800000Y-76100000D03*
X161800000Y-76950000D03*
X161800000Y-77800000D03*
X161800000Y-78650000D03*
X161800000Y-79500000D03*
X161800000Y-80350000D03*
X161800000Y-81200000D03*
X161800000Y-82050000D03*
X161800000Y-82900000D03*
X161800000Y-83750000D03*
X161800000Y-84600000D03*
X161800000Y-85450000D03*
X161800000Y-86300000D03*
X161800000Y-87150000D03*
X161800000Y-88000000D03*
D32*
X162850000Y-89050000D03*
X163700000Y-89050000D03*
X164550000Y-89050000D03*
X165400000Y-89050000D03*
X166250000Y-89050000D03*
X167100000Y-89050000D03*
X167950000Y-89050000D03*
X168800000Y-89050000D03*
X169650000Y-89050000D03*
X170500000Y-89050000D03*
X171350000Y-89050000D03*
X172200000Y-89050000D03*
X173050000Y-89050000D03*
X173900000Y-89050000D03*
X174750000Y-89050000D03*
D31*
X175800000Y-88000000D03*
X175800000Y-87150000D03*
X175800000Y-86300000D03*
X175800000Y-85450000D03*
X175800000Y-84600000D03*
X175800000Y-83750000D03*
X175800000Y-82900000D03*
X175800000Y-82050000D03*
X175800000Y-81200000D03*
X175800000Y-80350000D03*
X175800000Y-79500000D03*
X175800000Y-78650000D03*
X175800000Y-77800000D03*
X175800000Y-76950000D03*
X175800000Y-76100000D03*
D32*
X174750000Y-75050000D03*
X173900000Y-75050000D03*
X173050000Y-75050000D03*
X172200000Y-75050000D03*
X171350000Y-75050000D03*
X170500000Y-75050000D03*
X169650000Y-75050000D03*
X168800000Y-75050000D03*
X167950000Y-75050000D03*
X167100000Y-75050000D03*
X166250000Y-75050000D03*
X165400000Y-75050000D03*
X164550000Y-75050000D03*
X163700000Y-75050000D03*
X162850000Y-75050000D03*
D33*
X167150000Y-80400000D03*
D34*
X167150000Y-82050000D03*
X167150000Y-83700000D03*
X168800000Y-80400000D03*
X168800000Y-82050000D03*
X168800000Y-83700000D03*
X170450000Y-80400000D03*
X170450000Y-82050000D03*
X170450000Y-83700000D03*
D35*
X161800000Y-75050000D03*
X161800000Y-89050000D03*
X175800000Y-89050000D03*
X175800000Y-75050000D03*
%TD*%
D36*
%TO.C,R6*%
X133712500Y-86450000D03*
X131887500Y-86450000D03*
%TD*%
D28*
%TO.C,C4*%
X126800000Y-102762500D03*
X126800000Y-104837500D03*
%TD*%
D37*
%TO.C,SW3*%
X181845028Y-98504972D03*
X178754972Y-101595028D03*
%TD*%
D22*
%TO.C,C14*%
X138762500Y-87050000D03*
X140837500Y-87050000D03*
%TD*%
D17*
%TO.C,C12*%
X171600000Y-97487500D03*
X171600000Y-95412500D03*
%TD*%
D28*
%TO.C,C6*%
X132300000Y-102762500D03*
X132300000Y-104837500D03*
%TD*%
D38*
%TO.C,USB-C*%
X136910000Y-105170000D03*
X142690000Y-105170000D03*
D39*
X136600000Y-104050000D03*
X137400000Y-104050000D03*
D40*
X138550000Y-104050000D03*
X139550000Y-104050000D03*
X140050000Y-104050000D03*
X141050000Y-104050000D03*
D39*
X142200000Y-104050000D03*
X143000000Y-104050000D03*
X143000000Y-104050000D03*
X142200000Y-104050000D03*
D40*
X141550000Y-104050000D03*
X140550000Y-104050000D03*
X139050000Y-104050000D03*
X138050000Y-104050000D03*
D39*
X137400000Y-104050000D03*
X136600000Y-104050000D03*
D41*
X135480000Y-104650000D03*
D42*
X135480000Y-108850000D03*
D41*
X144120000Y-104650000D03*
D42*
X144120000Y-108850000D03*
%TD*%
D21*
%TO.C,R3*%
X147800000Y-104962500D03*
X147800000Y-103137500D03*
%TD*%
D30*
%TO.C,R7*%
X138550000Y-101962500D03*
X138550000Y-100137500D03*
%TD*%
D28*
%TO.C,C2*%
X157000000Y-106887500D03*
X157000000Y-104812500D03*
%TD*%
D43*
%TO.C,D5*%
X146750000Y-93450000D03*
X150050000Y-93450000D03*
%TD*%
D44*
%TO.C,Q1*%
X134887500Y-83250000D03*
X133112500Y-83900000D03*
X133112500Y-82600000D03*
%TD*%
M02*
