%TF.GenerationSoftware,KiCad,Pcbnew,10.0.3*%
%TF.CreationDate,2026-06-14T00:05:02-04:00*%
%TF.ProjectId,watch,77617463-682e-46b6-9963-61645f706362,rev?*%
%TF.SameCoordinates,Original*%
%TF.FileFunction,Soldermask,Top*%
%TF.FilePolarity,Negative*%
%FSLAX46Y46*%
G04 Gerber Fmt 4.6, Leading zero omitted, Abs format (unit mm)*
G04 Created by KiCad (PCBNEW 10.0.3) date 2026-06-14 00:05:02*
%MOMM*%
%LPD*%
G01*
G04 APERTURE LIST*
G04 Aperture macros list*
%AMRoundRect*
0 Rectangle with rounded corners*
0 $1 Rounding radius*
0 $2 $3 $4 $5 $6 $7 $8 $9 X,Y pos of 4 corners*
0 Add a 4 corners polygon primitive as box body*
4,1,4,$2,$3,$4,$5,$6,$7,$8,$9,$2,$3,0*
0 Add four circle primitives for the rounded corners*
1,1,$1+$1,$2,$3*
1,1,$1+$1,$4,$5*
1,1,$1+$1,$6,$7*
1,1,$1+$1,$8,$9*
0 Add four rect primitives between the rounded corners*
20,1,$1+$1,$2,$3,$4,$5,0*
20,1,$1+$1,$4,$5,$6,$7,0*
20,1,$1+$1,$6,$7,$8,$9,0*
20,1,$1+$1,$8,$9,$2,$3,0*%
%AMRotRect*
0 Rectangle, with rotation*
0 The origin of the aperture is its center*
0 $1 length*
0 $2 width*
0 $3 Rotation angle, in degrees counterclockwise*
0 Add horizontal line*
21,1,$1,$2,0,0,$3*%
%AMOutline5P*
0 Free polygon, 5 corners , with rotation*
0 The origin of the aperture is its center*
0 number of corners: always 5*
0 $1 to $10 corner X, Y*
0 $11 Rotation angle, in degrees counterclockwise*
0 create outline with 5 corners*
4,1,5,$1,$2,$3,$4,$5,$6,$7,$8,$9,$10,$1,$2,$11*%
%AMOutline6P*
0 Free polygon, 6 corners , with rotation*
0 The origin of the aperture is its center*
0 number of corners: always 6*
0 $1 to $12 corner X, Y*
0 $13 Rotation angle, in degrees counterclockwise*
0 create outline with 6 corners*
4,1,6,$1,$2,$3,$4,$5,$6,$7,$8,$9,$10,$11,$12,$1,$2,$13*%
%AMOutline7P*
0 Free polygon, 7 corners , with rotation*
0 The origin of the aperture is its center*
0 number of corners: always 7*
0 $1 to $14 corner X, Y*
0 $15 Rotation angle, in degrees counterclockwise*
0 create outline with 7 corners*
4,1,7,$1,$2,$3,$4,$5,$6,$7,$8,$9,$10,$11,$12,$13,$14,$1,$2,$15*%
%AMOutline8P*
0 Free polygon, 8 corners , with rotation*
0 The origin of the aperture is its center*
0 number of corners: always 8*
0 $1 to $16 corner X, Y*
0 $17 Rotation angle, in degrees counterclockwise*
0 create outline with 8 corners*
4,1,8,$1,$2,$3,$4,$5,$6,$7,$8,$9,$10,$11,$12,$13,$14,$15,$16,$1,$2,$17*%
G04 Aperture macros list end*
%ADD10C,0.000000*%
%ADD11RotRect,1.230000X1.860000X45.000000*%
%ADD12RotRect,1.230000X1.860000X225.000000*%
%ADD13O,1.000000X1.800000*%
%ADD14O,1.000000X2.100000*%
%ADD15RoundRect,0.150000X-0.150000X-0.470000X0.150000X-0.470000X0.150000X0.470000X-0.150000X0.470000X0*%
%ADD16RoundRect,0.075000X-0.075000X-0.545000X0.075000X-0.545000X0.075000X0.545000X-0.075000X0.545000X0*%
%ADD17C,0.650000*%
%ADD18O,1.200000X1.750000*%
%ADD19RoundRect,0.250000X-0.350000X-0.625000X0.350000X-0.625000X0.350000X0.625000X-0.350000X0.625000X0*%
%ADD20RoundRect,0.250000X0.250000X0.475000X-0.250000X0.475000X-0.250000X-0.475000X0.250000X-0.475000X0*%
%ADD21RoundRect,0.250000X0.600000X2.600000X-0.600000X2.600000X-0.600000X-2.600000X0.600000X-2.600000X0*%
%ADD22RoundRect,0.250000X-0.475000X0.250000X-0.475000X-0.250000X0.475000X-0.250000X0.475000X0.250000X0*%
%ADD23R,0.800000X0.800000*%
%ADD24R,1.200000X1.200000*%
%ADD25Outline5P,-0.600000X0.204000X-0.204000X0.600000X0.600000X0.600000X0.600000X-0.600000X-0.600000X-0.600000X0.000000*%
%ADD26R,0.400000X0.800000*%
%ADD27R,0.800000X0.400000*%
%ADD28C,1.700000*%
%ADD29R,1.700000X1.700000*%
%ADD30RoundRect,0.250000X-0.650000X1.000000X-0.650000X-1.000000X0.650000X-1.000000X0.650000X1.000000X0*%
%ADD31RoundRect,0.135000X0.185000X-0.135000X0.185000X0.135000X-0.185000X0.135000X-0.185000X-0.135000X0*%
%ADD32RoundRect,0.150000X-0.150000X0.512500X-0.150000X-0.512500X0.150000X-0.512500X0.150000X0.512500X0*%
%ADD33RoundRect,0.135000X-0.185000X0.135000X-0.185000X-0.135000X0.185000X-0.135000X0.185000X0.135000X0*%
%ADD34RoundRect,0.218750X-0.256250X0.218750X-0.256250X-0.218750X0.256250X-0.218750X0.256250X0.218750X0*%
%ADD35RoundRect,0.135000X0.135000X0.185000X-0.135000X0.185000X-0.135000X-0.185000X0.135000X-0.185000X0*%
%ADD36RoundRect,0.250000X-0.250000X-0.475000X0.250000X-0.475000X0.250000X0.475000X-0.250000X0.475000X0*%
%ADD37RoundRect,0.250000X0.475000X-0.250000X0.475000X0.250000X-0.475000X0.250000X-0.475000X-0.250000X0*%
%ADD38RoundRect,0.150000X-0.512500X-0.150000X0.512500X-0.150000X0.512500X0.150000X-0.512500X0.150000X0*%
%ADD39RoundRect,0.250000X1.000000X0.650000X-1.000000X0.650000X-1.000000X-0.650000X1.000000X-0.650000X0*%
%ADD40RoundRect,0.112500X0.112500X-0.350000X0.112500X0.350000X-0.112500X0.350000X-0.112500X-0.350000X0*%
%ADD41R,1.300000X0.300000*%
%ADD42R,3.000000X2.000000*%
G04 APERTURE END LIST*
D10*
%TO.C,G\u002A\u002A\u002A*%
G36*
X142926098Y-109278948D02*
G01*
X143151858Y-109279855D01*
X142487470Y-109911802D01*
X142262785Y-110125734D01*
X142033763Y-110344179D01*
X141816835Y-110551437D01*
X141628434Y-110731808D01*
X141484991Y-110869591D01*
X141479193Y-110875178D01*
X141328510Y-111019204D01*
X141221553Y-111113988D01*
X141140283Y-111169861D01*
X141066663Y-111197150D01*
X140982652Y-111206184D01*
X140899324Y-111207199D01*
X140663344Y-111207792D01*
X141178209Y-110716906D01*
X141693074Y-110226020D01*
X141478547Y-110222133D01*
X141396260Y-110218972D01*
X141327532Y-110207097D01*
X141259385Y-110177843D01*
X141178844Y-110122542D01*
X141072933Y-110032530D01*
X140928674Y-109899140D01*
X140770608Y-109749358D01*
X140277196Y-109280471D01*
X140513175Y-109280552D01*
X140749155Y-109280632D01*
X141221115Y-109728211D01*
X141386588Y-109883777D01*
X141530033Y-110016064D01*
X141640074Y-110114782D01*
X141705339Y-110169644D01*
X141717711Y-110177422D01*
X141755858Y-110150113D01*
X141844815Y-110073733D01*
X141973250Y-109958384D01*
X142129827Y-109814168D01*
X142221344Y-109728547D01*
X142700339Y-109278040D01*
X142926098Y-109278948D01*
G37*
G36*
X145149892Y-109279585D02*
G01*
X145220049Y-109290154D01*
X145288407Y-109318646D01*
X145368766Y-109373962D01*
X145474925Y-109465001D01*
X145620687Y-109600664D01*
X145739894Y-109713841D01*
X145904794Y-109870494D01*
X146049092Y-110007257D01*
X146160633Y-110112634D01*
X146227265Y-110175132D01*
X146238902Y-110185800D01*
X146223846Y-110205361D01*
X146141291Y-110217895D01*
X146045827Y-110220702D01*
X145893898Y-110211967D01*
X145787016Y-110178366D01*
X145685095Y-110105769D01*
X145661824Y-110085368D01*
X145529786Y-109965360D01*
X145381350Y-109827097D01*
X145229484Y-109683093D01*
X145087154Y-109545866D01*
X144967329Y-109427930D01*
X144882975Y-109341802D01*
X144847060Y-109299996D01*
X144846621Y-109298564D01*
X144885267Y-109286922D01*
X144984200Y-109279484D01*
X145064134Y-109278040D01*
X145149892Y-109279585D01*
G37*
G36*
X135923129Y-109285051D02*
G01*
X135996577Y-109302167D01*
X136008108Y-109314052D01*
X135978718Y-109361209D01*
X135903690Y-109441808D01*
X135847212Y-109494980D01*
X135772529Y-109563639D01*
X135645860Y-109681651D01*
X135477508Y-109839346D01*
X135277779Y-110027059D01*
X135056977Y-110235121D01*
X134856628Y-110424340D01*
X134026939Y-111208784D01*
X133805446Y-111208222D01*
X133583952Y-111207661D01*
X133991554Y-110809842D01*
X134162833Y-110643820D01*
X134376200Y-110438744D01*
X134611132Y-110214245D01*
X134847104Y-109989948D01*
X134999831Y-109845537D01*
X135207825Y-109649894D01*
X135364491Y-109505433D01*
X135480853Y-109404386D01*
X135567937Y-109338980D01*
X135636769Y-109301445D01*
X135698372Y-109284012D01*
X135763774Y-109278909D01*
X135804307Y-109278545D01*
X135923129Y-109285051D01*
G37*
G36*
X148261566Y-109310768D02*
G01*
X148360205Y-109377045D01*
X148399457Y-109410104D01*
X148499258Y-109499198D01*
X148627062Y-109617513D01*
X148769253Y-109751903D01*
X148912216Y-109889219D01*
X149042334Y-110016314D01*
X149145992Y-110120040D01*
X149209573Y-110187250D01*
X149222973Y-110205301D01*
X149184427Y-110214945D01*
X149086206Y-110220959D01*
X149015579Y-110221959D01*
X148935765Y-110220014D01*
X148867833Y-110208584D01*
X148798788Y-110179277D01*
X148715635Y-110123702D01*
X148605378Y-110033466D01*
X148455022Y-109900179D01*
X148301325Y-109760726D01*
X147794466Y-109299493D01*
X148017720Y-109286441D01*
X148161243Y-109285050D01*
X148261566Y-109310768D01*
G37*
G36*
X146369763Y-109279900D02*
G01*
X146830996Y-109733012D01*
X146991487Y-109891802D01*
X147127692Y-110028709D01*
X147228986Y-110132883D01*
X147284745Y-110193475D01*
X147292229Y-110204041D01*
X147253728Y-110214274D01*
X147155787Y-110220180D01*
X147088429Y-110220812D01*
X146961518Y-110212120D01*
X146862500Y-110177638D01*
X146757247Y-110102186D01*
X146691554Y-110044295D01*
X146543589Y-109908099D01*
X146387362Y-109761316D01*
X146235472Y-109616163D01*
X146100520Y-109484856D01*
X145995105Y-109379612D01*
X145931825Y-109312648D01*
X145919256Y-109295466D01*
X145957975Y-109285887D01*
X146057424Y-109279973D01*
X146144510Y-109278970D01*
X146369763Y-109279900D01*
G37*
G36*
X144986064Y-109733012D02*
G01*
X145146555Y-109891802D01*
X145282759Y-110028709D01*
X145384054Y-110132883D01*
X145439813Y-110193475D01*
X145447297Y-110204041D01*
X145408722Y-110214352D01*
X145310290Y-110220830D01*
X145236982Y-110221959D01*
X145156291Y-110220383D01*
X145089153Y-110209870D01*
X145022702Y-110181743D01*
X144944074Y-110127324D01*
X144840403Y-110037935D01*
X144698824Y-109904899D01*
X144539769Y-109751698D01*
X144052871Y-109281437D01*
X144288851Y-109280669D01*
X144524831Y-109279900D01*
X144986064Y-109733012D01*
G37*
G36*
X143774845Y-109281679D02*
G01*
X143848289Y-109288024D01*
X143859797Y-109292781D01*
X143830959Y-109326454D01*
X143751478Y-109409500D01*
X143631905Y-109531136D01*
X143482790Y-109680578D01*
X143398564Y-109764225D01*
X142937331Y-110220928D01*
X142701351Y-110220678D01*
X142465371Y-110220428D01*
X142958783Y-109751283D01*
X143145022Y-109575043D01*
X143282140Y-109449537D01*
X143382953Y-109366102D01*
X143460276Y-109316078D01*
X143526923Y-109290806D01*
X143595710Y-109281623D01*
X143655996Y-109280089D01*
X143774845Y-109281679D01*
G37*
G36*
X138779138Y-109282913D02*
G01*
X138846164Y-109295371D01*
X138914314Y-109326126D01*
X138996404Y-109383838D01*
X139105247Y-109477166D01*
X139253660Y-109614772D01*
X139397635Y-109751283D01*
X139891047Y-110220428D01*
X139655067Y-110220264D01*
X139419087Y-110220099D01*
X138957854Y-109766988D01*
X138797363Y-109608198D01*
X138661159Y-109471290D01*
X138559865Y-109367116D01*
X138504105Y-109306525D01*
X138496621Y-109295959D01*
X138535118Y-109285897D01*
X138633049Y-109280424D01*
X138700422Y-109280089D01*
X138779138Y-109282913D01*
G37*
G36*
X137543600Y-108626373D02*
G01*
X137381378Y-108780168D01*
X137175370Y-108975314D01*
X136944155Y-109194222D01*
X136706310Y-109419299D01*
X136501520Y-109613003D01*
X135857939Y-110221570D01*
X135621959Y-110220402D01*
X135385979Y-110219233D01*
X135687657Y-109930984D01*
X135808952Y-109815358D01*
X135978605Y-109654010D01*
X136182649Y-109460205D01*
X136407117Y-109247205D01*
X136638042Y-109028273D01*
X136725384Y-108945523D01*
X137461434Y-108248311D01*
X137701766Y-108248311D01*
X137942099Y-108248311D01*
X137543600Y-108626373D01*
G37*
G36*
X137388664Y-109278271D02*
G01*
X137617060Y-109278502D01*
X137123648Y-109748076D01*
X136630236Y-110217651D01*
X136395081Y-110219805D01*
X136159927Y-110221959D01*
X136287818Y-110100429D01*
X136541507Y-109859265D01*
X136741154Y-109670430D01*
X136895302Y-109527545D01*
X137012492Y-109424231D01*
X137101266Y-109354108D01*
X137170167Y-109310796D01*
X137227736Y-109287915D01*
X137282515Y-109279087D01*
X137343048Y-109277931D01*
X137388664Y-109278271D01*
G37*
G36*
X147310776Y-109232460D02*
G01*
X148300276Y-110221959D01*
X148060110Y-110221959D01*
X147819945Y-110221959D01*
X146874882Y-109245861D01*
X145929819Y-108269763D01*
X146125548Y-108256362D01*
X146321277Y-108242961D01*
X147310776Y-109232460D01*
G37*
G36*
X140428557Y-109747826D02*
G01*
X140920777Y-110217611D01*
X140694990Y-110219785D01*
X140469203Y-110221959D01*
X139987051Y-109751395D01*
X139504898Y-109280830D01*
X139720618Y-109279435D01*
X139936337Y-109278040D01*
X140428557Y-109747826D01*
G37*
G36*
X138637354Y-109748861D02*
G01*
X139118750Y-110219682D01*
X138898479Y-110220821D01*
X138678209Y-110221959D01*
X138190540Y-109751955D01*
X137702871Y-109281952D01*
X137929415Y-109279996D01*
X138155958Y-109278040D01*
X138637354Y-109748861D01*
G37*
G36*
X143005909Y-112405955D02*
G01*
X142986278Y-112426359D01*
X142954601Y-112458537D01*
X142912055Y-112501313D01*
X142859817Y-112553513D01*
X142799062Y-112613963D01*
X142730966Y-112681490D01*
X142656707Y-112754918D01*
X142577459Y-112833074D01*
X142541539Y-112868436D01*
X142067368Y-113334983D01*
X142067368Y-114248869D01*
X142067368Y-115162754D01*
X141888388Y-115341280D01*
X141709408Y-115519806D01*
X140242278Y-115522805D01*
X138775149Y-115525805D01*
X138121073Y-115815572D01*
X138012912Y-115863451D01*
X137910164Y-115908861D01*
X137814311Y-115951151D01*
X137726837Y-115989669D01*
X137649225Y-116023766D01*
X137582958Y-116052789D01*
X137529519Y-116076089D01*
X137490392Y-116093014D01*
X137467059Y-116102913D01*
X137460781Y-116105339D01*
X137463611Y-116099168D01*
X137477696Y-116083408D01*
X137489687Y-116071451D01*
X137541109Y-116021790D01*
X137600257Y-115964585D01*
X137665606Y-115901317D01*
X137735633Y-115833466D01*
X137808812Y-115762515D01*
X137883619Y-115689943D01*
X137958529Y-115617232D01*
X138032017Y-115545862D01*
X138102559Y-115477316D01*
X138168629Y-115413073D01*
X138228703Y-115354614D01*
X138281257Y-115303422D01*
X138324765Y-115260976D01*
X138357703Y-115228758D01*
X138378547Y-115208249D01*
X138384418Y-115202379D01*
X138427272Y-115158677D01*
X138427272Y-114251277D01*
X139151000Y-114251277D01*
X139161910Y-114255817D01*
X139189898Y-114265848D01*
X139232855Y-114280657D01*
X139288669Y-114299531D01*
X139355230Y-114321759D01*
X139430427Y-114346627D01*
X139512150Y-114373423D01*
X139532608Y-114380097D01*
X139906900Y-114502081D01*
X140072068Y-114788337D01*
X140111910Y-114856947D01*
X140148683Y-114919426D01*
X140181161Y-114973761D01*
X140208120Y-115017936D01*
X140228337Y-115049936D01*
X140240586Y-115067746D01*
X140243699Y-115070757D01*
X140250134Y-115061405D01*
X140265377Y-115036667D01*
X140288184Y-114998638D01*
X140317312Y-114949415D01*
X140351517Y-114891096D01*
X140389556Y-114825777D01*
X140413439Y-114784552D01*
X140576717Y-114502182D01*
X140951479Y-114380040D01*
X141034519Y-114352865D01*
X141111548Y-114327448D01*
X141180456Y-114304498D01*
X141239133Y-114284729D01*
X141285470Y-114268852D01*
X141317356Y-114257580D01*
X141332681Y-114251624D01*
X141333670Y-114251056D01*
X141327584Y-114245576D01*
X141305598Y-114235562D01*
X141271094Y-114222390D01*
X141227453Y-114207436D01*
X141222753Y-114205907D01*
X141180148Y-114192070D01*
X141122521Y-114173288D01*
X141054008Y-114150913D01*
X140978745Y-114126295D01*
X140900868Y-114100787D01*
X140840081Y-114080850D01*
X140575755Y-113994101D01*
X140411538Y-113708817D01*
X140371854Y-113640133D01*
X140335319Y-113577388D01*
X140303151Y-113522635D01*
X140276567Y-113477928D01*
X140256785Y-113445322D01*
X140245025Y-113426869D01*
X140242278Y-113423435D01*
X140236209Y-113431814D01*
X140221317Y-113455636D01*
X140198822Y-113492854D01*
X140169945Y-113541422D01*
X140135903Y-113599293D01*
X140097918Y-113664422D01*
X140071913Y-113709294D01*
X139906588Y-113995250D01*
X139525135Y-114119845D01*
X139442021Y-114147216D01*
X139365509Y-114172844D01*
X139297586Y-114196031D01*
X139240241Y-114216078D01*
X139195459Y-114232288D01*
X139165228Y-114243963D01*
X139151535Y-114250404D01*
X139151000Y-114251277D01*
X138427272Y-114251277D01*
X138427272Y-114248168D01*
X138427272Y-113337660D01*
X138606147Y-113158577D01*
X138785022Y-112979495D01*
X140239677Y-112979495D01*
X141694332Y-112979495D01*
X142351629Y-112687300D01*
X142459928Y-112639224D01*
X142562755Y-112593707D01*
X142658641Y-112551390D01*
X142746118Y-112512917D01*
X142823716Y-112478930D01*
X142889965Y-112450070D01*
X142943397Y-112426980D01*
X142982542Y-112410302D01*
X143005931Y-112400679D01*
X143012319Y-112398497D01*
X143005909Y-112405955D01*
G37*
%TD*%
D11*
%TO.C,SW4*%
X176090056Y-111454972D03*
X173000000Y-114545028D03*
%TD*%
D12*
%TO.C,SW3*%
X179454972Y-108045028D03*
X182545028Y-104954972D03*
%TD*%
D13*
%TO.C,USB-C*%
X168570000Y-114075000D03*
D14*
X168570000Y-109875000D03*
D13*
X159930000Y-114075000D03*
D14*
X159930000Y-109875000D03*
D15*
X161050000Y-109275000D03*
X161850000Y-109275000D03*
D16*
X162500000Y-109275000D03*
X163500000Y-109275000D03*
X165000000Y-109275000D03*
X166000000Y-109275000D03*
D15*
X166650000Y-109275000D03*
X167450000Y-109275000D03*
X167450000Y-109275000D03*
X166650000Y-109275000D03*
D16*
X165500000Y-109275000D03*
X164500000Y-109275000D03*
X164000000Y-109275000D03*
X163000000Y-109275000D03*
D15*
X161850000Y-109275000D03*
X161050000Y-109275000D03*
D17*
X167140000Y-110395000D03*
X161360000Y-110395000D03*
%TD*%
D18*
%TO.C,J3*%
X156000000Y-110550000D03*
D19*
X154000000Y-110550000D03*
%TD*%
D20*
%TO.C,C1*%
X156050001Y-107000000D03*
X157949999Y-107000000D03*
%TD*%
D21*
%TO.C,L1*%
X157750000Y-80000000D03*
X153250000Y-80000000D03*
%TD*%
D22*
%TO.C,C11*%
X153500000Y-85250001D03*
X153500000Y-87149999D03*
%TD*%
%TO.C,C12*%
X157500000Y-85250001D03*
X157500000Y-87149999D03*
%TD*%
D23*
%TO.C,ESP32 S3 MINI 1*%
X175750000Y-76000000D03*
X175750000Y-90000000D03*
X161750000Y-90000000D03*
X161750000Y-76000000D03*
D24*
X170400000Y-84650000D03*
X170400000Y-83000000D03*
X170400000Y-81350000D03*
X168750000Y-84650000D03*
X168750000Y-83000000D03*
X168750000Y-81350000D03*
X167100000Y-84650000D03*
X167100000Y-83000000D03*
D25*
X167100000Y-81350000D03*
D26*
X162800000Y-76000000D03*
X163650000Y-76000000D03*
X164500000Y-76000000D03*
X165350000Y-76000000D03*
X166200000Y-76000000D03*
X167050000Y-76000000D03*
X167900000Y-76000000D03*
X168750000Y-76000000D03*
X169600000Y-76000000D03*
X170450000Y-76000000D03*
X171300000Y-76000000D03*
X172150000Y-76000000D03*
X173000000Y-76000000D03*
X173850000Y-76000000D03*
X174700000Y-76000000D03*
D27*
X175750000Y-77050000D03*
X175750000Y-77900000D03*
X175750000Y-78750000D03*
X175750000Y-79600000D03*
X175750000Y-80450000D03*
X175750000Y-81300000D03*
X175750000Y-82150000D03*
X175750000Y-83000000D03*
X175750000Y-83850000D03*
X175750000Y-84700000D03*
X175750000Y-85550000D03*
X175750000Y-86400000D03*
X175750000Y-87250000D03*
X175750000Y-88100000D03*
X175750000Y-88950000D03*
D26*
X174700000Y-90000000D03*
X173850000Y-90000000D03*
X173000000Y-90000000D03*
X172150000Y-90000000D03*
X171300000Y-90000000D03*
X170450000Y-90000000D03*
X169600000Y-90000000D03*
X168750000Y-90000000D03*
X167900000Y-90000000D03*
X167050000Y-90000000D03*
X166200000Y-90000000D03*
X165350000Y-90000000D03*
X164500000Y-90000000D03*
X163650000Y-90000000D03*
X162800000Y-90000000D03*
D27*
X161750000Y-88950000D03*
X161750000Y-88100000D03*
X161750000Y-87250000D03*
X161750000Y-86400000D03*
X161750000Y-85550000D03*
X161750000Y-84700000D03*
X161750000Y-83850000D03*
X161750000Y-83000000D03*
X161750000Y-82150000D03*
X161750000Y-81300000D03*
X161750000Y-80450000D03*
X161750000Y-79600000D03*
X161750000Y-78750000D03*
X161750000Y-77900000D03*
X161750000Y-77050000D03*
%TD*%
D28*
%TO.C,IO pins*%
X182000000Y-82840000D03*
X182000000Y-85380000D03*
X182000000Y-87920000D03*
X182000000Y-80300000D03*
X182000000Y-90460000D03*
X182000000Y-93000000D03*
X182000000Y-95540000D03*
D29*
X182000000Y-77760000D03*
%TD*%
D30*
%TO.C,D1*%
X154000000Y-99999999D03*
X154000000Y-104000001D03*
%TD*%
%TO.C,D3*%
X162000000Y-99999999D03*
X162000000Y-104000001D03*
%TD*%
D31*
%TO.C,R8*%
X166000000Y-107500000D03*
X166000000Y-106480000D03*
%TD*%
%TO.C,R7*%
X163000000Y-107510000D03*
X163000000Y-106490000D03*
%TD*%
D32*
%TO.C,U2*%
X158949999Y-102137500D03*
X157050001Y-102137500D03*
X157050001Y-99862500D03*
X158000000Y-99862500D03*
X158949999Y-99862500D03*
%TD*%
D33*
%TO.C,R4*%
X165000000Y-103490000D03*
X165000000Y-104510000D03*
%TD*%
D34*
%TO.C,D2*%
X166500000Y-103212499D03*
X166500000Y-104787501D03*
%TD*%
D35*
%TO.C,R3*%
X157980002Y-103600000D03*
X159000000Y-103600000D03*
%TD*%
D36*
%TO.C,C2*%
X158950000Y-96000000D03*
X157050000Y-96000000D03*
%TD*%
D37*
%TO.C,C15*%
X166000000Y-98050001D03*
X166000000Y-99949999D03*
%TD*%
D38*
%TO.C,U3*%
X171137500Y-99037499D03*
X171137500Y-100937499D03*
X168862500Y-100937499D03*
X168862500Y-99987499D03*
X168862500Y-99037499D03*
%TD*%
D22*
%TO.C,C16*%
X171200000Y-97149999D03*
X171200000Y-95250001D03*
%TD*%
D39*
%TO.C,D5*%
X144249998Y-86250000D03*
X148250000Y-86250000D03*
%TD*%
D36*
%TO.C,C7*%
X136050000Y-98250000D03*
X134150000Y-98250000D03*
%TD*%
%TO.C,C9*%
X129500000Y-98250000D03*
X127600000Y-98250000D03*
%TD*%
%TO.C,C8*%
X136050000Y-95750000D03*
X134150000Y-95750000D03*
%TD*%
%TO.C,C10*%
X129499999Y-95750000D03*
X127600001Y-95750000D03*
%TD*%
D30*
%TO.C,D6*%
X134500000Y-101499999D03*
X134500000Y-105500001D03*
%TD*%
D33*
%TO.C,R5*%
X120585786Y-88009999D03*
X120585786Y-86990001D03*
%TD*%
D40*
%TO.C,Q1*%
X121350000Y-85387500D03*
X122650000Y-85387500D03*
X122000000Y-83612500D03*
%TD*%
D36*
%TO.C,C13*%
X130550002Y-85000000D03*
X132450000Y-85000000D03*
%TD*%
D31*
%TO.C,R6*%
X123000000Y-88009999D03*
X123000000Y-86990001D03*
%TD*%
D36*
%TO.C,C14*%
X130550000Y-88250000D03*
X132450000Y-88250000D03*
%TD*%
D39*
%TO.C,D4*%
X135249999Y-86250000D03*
X139250001Y-86250000D03*
%TD*%
D41*
%TO.C,J5*%
X118885787Y-94300000D03*
X118885787Y-94800000D03*
X118885787Y-96300000D03*
X118885787Y-95800000D03*
X118885787Y-91300000D03*
X118885787Y-90800000D03*
D42*
X116535787Y-89150000D03*
X116535787Y-103950000D03*
D41*
X118885787Y-100800000D03*
X118885787Y-101800000D03*
X118885787Y-91800000D03*
X118885787Y-95300000D03*
X118885787Y-96800000D03*
X118885787Y-97300000D03*
X118885787Y-93300000D03*
X118885787Y-93800000D03*
X118885787Y-98300000D03*
X118885787Y-102300000D03*
X118885787Y-99300000D03*
X118885787Y-97800000D03*
X118885787Y-92800000D03*
X118885787Y-92300000D03*
X118885787Y-99800000D03*
X118885787Y-100300000D03*
X118885787Y-101300000D03*
X118885787Y-98800000D03*
%TD*%
D22*
%TO.C,C4*%
X124500000Y-103550001D03*
X124500000Y-105449999D03*
%TD*%
%TO.C,C5*%
X127250000Y-103550001D03*
X127250000Y-105449999D03*
%TD*%
%TO.C,C6*%
X130000000Y-103550001D03*
X130000000Y-105449999D03*
%TD*%
%TO.C,C3*%
X121750000Y-105449999D03*
X121750000Y-103550001D03*
%TD*%
M02*
