%TF.GenerationSoftware,KiCad,Pcbnew,10.0.3*%
%TF.CreationDate,2026-06-22T19:29:37-04:00*%
%TF.ProjectId,watch,77617463-682e-46b6-9963-61645f706362,rev?*%
%TF.SameCoordinates,Original*%
%TF.FileFunction,Legend,Top*%
%TF.FilePolarity,Positive*%
%FSLAX46Y46*%
G04 Gerber Fmt 4.6, Leading zero omitted, Abs format (unit mm)*
G04 Created by KiCad (PCBNEW 10.0.3) date 2026-06-22 19:29:37*
%MOMM*%
%LPD*%
G01*
G04 APERTURE LIST*
%ADD10C,0.100000*%
%ADD11C,0.200000*%
%ADD12C,0.150000*%
%ADD13C,0.120000*%
%ADD14C,0.000000*%
%ADD15C,0.152000*%
%ADD16C,0.152500*%
%ADD17C,0.254000*%
G04 APERTURE END LIST*
D10*
X112199999Y-111050000D02*
X112199999Y-79050000D01*
X112199999Y-111050000D02*
X150200000Y-111050000D01*
X112214213Y-79050000D02*
X150214213Y-79139651D01*
X150199999Y-79139651D02*
X150200000Y-111050000D01*
X112903884Y-110372419D02*
X112903884Y-109372419D01*
X112903884Y-109848609D02*
X113475312Y-109848609D01*
X113475312Y-110372419D02*
X113475312Y-109372419D01*
X114380074Y-110372419D02*
X114380074Y-109848609D01*
X114380074Y-109848609D02*
X114332455Y-109753371D01*
X114332455Y-109753371D02*
X114237217Y-109705752D01*
X114237217Y-109705752D02*
X114046741Y-109705752D01*
X114046741Y-109705752D02*
X113951503Y-109753371D01*
X114380074Y-110324800D02*
X114284836Y-110372419D01*
X114284836Y-110372419D02*
X114046741Y-110372419D01*
X114046741Y-110372419D02*
X113951503Y-110324800D01*
X113951503Y-110324800D02*
X113903884Y-110229561D01*
X113903884Y-110229561D02*
X113903884Y-110134323D01*
X113903884Y-110134323D02*
X113951503Y-110039085D01*
X113951503Y-110039085D02*
X114046741Y-109991466D01*
X114046741Y-109991466D02*
X114284836Y-109991466D01*
X114284836Y-109991466D02*
X114380074Y-109943847D01*
X114999122Y-110372419D02*
X114903884Y-110324800D01*
X114903884Y-110324800D02*
X114856265Y-110277180D01*
X114856265Y-110277180D02*
X114808646Y-110181942D01*
X114808646Y-110181942D02*
X114808646Y-109896228D01*
X114808646Y-109896228D02*
X114856265Y-109800990D01*
X114856265Y-109800990D02*
X114903884Y-109753371D01*
X114903884Y-109753371D02*
X114999122Y-109705752D01*
X114999122Y-109705752D02*
X115141979Y-109705752D01*
X115141979Y-109705752D02*
X115237217Y-109753371D01*
X115237217Y-109753371D02*
X115284836Y-109800990D01*
X115284836Y-109800990D02*
X115332455Y-109896228D01*
X115332455Y-109896228D02*
X115332455Y-110181942D01*
X115332455Y-110181942D02*
X115284836Y-110277180D01*
X115284836Y-110277180D02*
X115237217Y-110324800D01*
X115237217Y-110324800D02*
X115141979Y-110372419D01*
X115141979Y-110372419D02*
X114999122Y-110372419D01*
X115665789Y-109705752D02*
X115903884Y-110372419D01*
X116141979Y-109705752D02*
X115903884Y-110372419D01*
X115903884Y-110372419D02*
X115808646Y-110610514D01*
X115808646Y-110610514D02*
X115761027Y-110658133D01*
X115761027Y-110658133D02*
X115665789Y-110705752D01*
X116951503Y-110372419D02*
X116951503Y-109848609D01*
X116951503Y-109848609D02*
X116903884Y-109753371D01*
X116903884Y-109753371D02*
X116808646Y-109705752D01*
X116808646Y-109705752D02*
X116618170Y-109705752D01*
X116618170Y-109705752D02*
X116522932Y-109753371D01*
X116951503Y-110324800D02*
X116856265Y-110372419D01*
X116856265Y-110372419D02*
X116618170Y-110372419D01*
X116618170Y-110372419D02*
X116522932Y-110324800D01*
X116522932Y-110324800D02*
X116475313Y-110229561D01*
X116475313Y-110229561D02*
X116475313Y-110134323D01*
X116475313Y-110134323D02*
X116522932Y-110039085D01*
X116522932Y-110039085D02*
X116618170Y-109991466D01*
X116618170Y-109991466D02*
X116856265Y-109991466D01*
X116856265Y-109991466D02*
X116951503Y-109943847D01*
X117427694Y-109705752D02*
X117427694Y-110372419D01*
X117427694Y-109800990D02*
X117475313Y-109753371D01*
X117475313Y-109753371D02*
X117570551Y-109705752D01*
X117570551Y-109705752D02*
X117713408Y-109705752D01*
X117713408Y-109705752D02*
X117808646Y-109753371D01*
X117808646Y-109753371D02*
X117856265Y-109848609D01*
X117856265Y-109848609D02*
X117856265Y-110372419D01*
X119570551Y-110372419D02*
X119094361Y-110372419D01*
X119094361Y-110372419D02*
X119094361Y-109372419D01*
X119903885Y-110372419D02*
X119903885Y-109705752D01*
X119903885Y-109372419D02*
X119856266Y-109420038D01*
X119856266Y-109420038D02*
X119903885Y-109467657D01*
X119903885Y-109467657D02*
X119951504Y-109420038D01*
X119951504Y-109420038D02*
X119903885Y-109372419D01*
X119903885Y-109372419D02*
X119903885Y-109467657D01*
X121427694Y-110753371D02*
X121380075Y-110705752D01*
X121380075Y-110705752D02*
X121284837Y-110562895D01*
X121284837Y-110562895D02*
X121237218Y-110467657D01*
X121237218Y-110467657D02*
X121189599Y-110324800D01*
X121189599Y-110324800D02*
X121141980Y-110086704D01*
X121141980Y-110086704D02*
X121141980Y-109896228D01*
X121141980Y-109896228D02*
X121189599Y-109658133D01*
X121189599Y-109658133D02*
X121237218Y-109515276D01*
X121237218Y-109515276D02*
X121284837Y-109420038D01*
X121284837Y-109420038D02*
X121380075Y-109277180D01*
X121380075Y-109277180D02*
X121427694Y-109229561D01*
X121808647Y-110372419D02*
X121808647Y-109372419D01*
X122237218Y-110372419D02*
X122237218Y-109848609D01*
X122237218Y-109848609D02*
X122189599Y-109753371D01*
X122189599Y-109753371D02*
X122094361Y-109705752D01*
X122094361Y-109705752D02*
X121951504Y-109705752D01*
X121951504Y-109705752D02*
X121856266Y-109753371D01*
X121856266Y-109753371D02*
X121808647Y-109800990D01*
X123141980Y-110372419D02*
X123141980Y-109848609D01*
X123141980Y-109848609D02*
X123094361Y-109753371D01*
X123094361Y-109753371D02*
X122999123Y-109705752D01*
X122999123Y-109705752D02*
X122808647Y-109705752D01*
X122808647Y-109705752D02*
X122713409Y-109753371D01*
X123141980Y-110324800D02*
X123046742Y-110372419D01*
X123046742Y-110372419D02*
X122808647Y-110372419D01*
X122808647Y-110372419D02*
X122713409Y-110324800D01*
X122713409Y-110324800D02*
X122665790Y-110229561D01*
X122665790Y-110229561D02*
X122665790Y-110134323D01*
X122665790Y-110134323D02*
X122713409Y-110039085D01*
X122713409Y-110039085D02*
X122808647Y-109991466D01*
X122808647Y-109991466D02*
X123046742Y-109991466D01*
X123046742Y-109991466D02*
X123141980Y-109943847D01*
X123761028Y-110372419D02*
X123665790Y-110324800D01*
X123665790Y-110324800D02*
X123618171Y-110277180D01*
X123618171Y-110277180D02*
X123570552Y-110181942D01*
X123570552Y-110181942D02*
X123570552Y-109896228D01*
X123570552Y-109896228D02*
X123618171Y-109800990D01*
X123618171Y-109800990D02*
X123665790Y-109753371D01*
X123665790Y-109753371D02*
X123761028Y-109705752D01*
X123761028Y-109705752D02*
X123903885Y-109705752D01*
X123903885Y-109705752D02*
X123999123Y-109753371D01*
X123999123Y-109753371D02*
X124046742Y-109800990D01*
X124046742Y-109800990D02*
X124094361Y-109896228D01*
X124094361Y-109896228D02*
X124094361Y-110181942D01*
X124094361Y-110181942D02*
X124046742Y-110277180D01*
X124046742Y-110277180D02*
X123999123Y-110324800D01*
X123999123Y-110324800D02*
X123903885Y-110372419D01*
X123903885Y-110372419D02*
X123761028Y-110372419D01*
X124427695Y-109705752D02*
X124665790Y-110372419D01*
X124903885Y-109705752D02*
X124665790Y-110372419D01*
X124665790Y-110372419D02*
X124570552Y-110610514D01*
X124570552Y-110610514D02*
X124522933Y-110658133D01*
X124522933Y-110658133D02*
X124427695Y-110705752D01*
X125713409Y-110372419D02*
X125713409Y-109848609D01*
X125713409Y-109848609D02*
X125665790Y-109753371D01*
X125665790Y-109753371D02*
X125570552Y-109705752D01*
X125570552Y-109705752D02*
X125380076Y-109705752D01*
X125380076Y-109705752D02*
X125284838Y-109753371D01*
X125713409Y-110324800D02*
X125618171Y-110372419D01*
X125618171Y-110372419D02*
X125380076Y-110372419D01*
X125380076Y-110372419D02*
X125284838Y-110324800D01*
X125284838Y-110324800D02*
X125237219Y-110229561D01*
X125237219Y-110229561D02*
X125237219Y-110134323D01*
X125237219Y-110134323D02*
X125284838Y-110039085D01*
X125284838Y-110039085D02*
X125380076Y-109991466D01*
X125380076Y-109991466D02*
X125618171Y-109991466D01*
X125618171Y-109991466D02*
X125713409Y-109943847D01*
X126189600Y-109705752D02*
X126189600Y-110372419D01*
X126189600Y-109800990D02*
X126237219Y-109753371D01*
X126237219Y-109753371D02*
X126332457Y-109705752D01*
X126332457Y-109705752D02*
X126475314Y-109705752D01*
X126475314Y-109705752D02*
X126570552Y-109753371D01*
X126570552Y-109753371D02*
X126618171Y-109848609D01*
X126618171Y-109848609D02*
X126618171Y-110372419D01*
X127237219Y-110372419D02*
X127141981Y-110324800D01*
X127141981Y-110324800D02*
X127094362Y-110229561D01*
X127094362Y-110229561D02*
X127094362Y-109372419D01*
X127618172Y-110372419D02*
X127618172Y-109705752D01*
X127618172Y-109372419D02*
X127570553Y-109420038D01*
X127570553Y-109420038D02*
X127618172Y-109467657D01*
X127618172Y-109467657D02*
X127665791Y-109420038D01*
X127665791Y-109420038D02*
X127618172Y-109372419D01*
X127618172Y-109372419D02*
X127618172Y-109467657D01*
X128094362Y-110277180D02*
X128141981Y-110324800D01*
X128141981Y-110324800D02*
X128094362Y-110372419D01*
X128094362Y-110372419D02*
X128046743Y-110324800D01*
X128046743Y-110324800D02*
X128094362Y-110277180D01*
X128094362Y-110277180D02*
X128094362Y-110372419D01*
X128999123Y-110372419D02*
X128999123Y-109372419D01*
X128999123Y-110324800D02*
X128903885Y-110372419D01*
X128903885Y-110372419D02*
X128713409Y-110372419D01*
X128713409Y-110372419D02*
X128618171Y-110324800D01*
X128618171Y-110324800D02*
X128570552Y-110277180D01*
X128570552Y-110277180D02*
X128522933Y-110181942D01*
X128522933Y-110181942D02*
X128522933Y-109896228D01*
X128522933Y-109896228D02*
X128570552Y-109800990D01*
X128570552Y-109800990D02*
X128618171Y-109753371D01*
X128618171Y-109753371D02*
X128713409Y-109705752D01*
X128713409Y-109705752D02*
X128903885Y-109705752D01*
X128903885Y-109705752D02*
X128999123Y-109753371D01*
X129856266Y-110324800D02*
X129761028Y-110372419D01*
X129761028Y-110372419D02*
X129570552Y-110372419D01*
X129570552Y-110372419D02*
X129475314Y-110324800D01*
X129475314Y-110324800D02*
X129427695Y-110229561D01*
X129427695Y-110229561D02*
X129427695Y-109848609D01*
X129427695Y-109848609D02*
X129475314Y-109753371D01*
X129475314Y-109753371D02*
X129570552Y-109705752D01*
X129570552Y-109705752D02*
X129761028Y-109705752D01*
X129761028Y-109705752D02*
X129856266Y-109753371D01*
X129856266Y-109753371D02*
X129903885Y-109848609D01*
X129903885Y-109848609D02*
X129903885Y-109943847D01*
X129903885Y-109943847D02*
X129427695Y-110039085D01*
X130237219Y-109705752D02*
X130475314Y-110372419D01*
X130475314Y-110372419D02*
X130713409Y-109705752D01*
X130999124Y-110753371D02*
X131046743Y-110705752D01*
X131046743Y-110705752D02*
X131141981Y-110562895D01*
X131141981Y-110562895D02*
X131189600Y-110467657D01*
X131189600Y-110467657D02*
X131237219Y-110324800D01*
X131237219Y-110324800D02*
X131284838Y-110086704D01*
X131284838Y-110086704D02*
X131284838Y-109896228D01*
X131284838Y-109896228D02*
X131237219Y-109658133D01*
X131237219Y-109658133D02*
X131189600Y-109515276D01*
X131189600Y-109515276D02*
X131141981Y-109420038D01*
X131141981Y-109420038D02*
X131046743Y-109277180D01*
X131046743Y-109277180D02*
X130999124Y-109229561D01*
X138380078Y-109420038D02*
X138284840Y-109372419D01*
X138284840Y-109372419D02*
X138141983Y-109372419D01*
X138141983Y-109372419D02*
X137999126Y-109420038D01*
X137999126Y-109420038D02*
X137903888Y-109515276D01*
X137903888Y-109515276D02*
X137856269Y-109610514D01*
X137856269Y-109610514D02*
X137808650Y-109800990D01*
X137808650Y-109800990D02*
X137808650Y-109943847D01*
X137808650Y-109943847D02*
X137856269Y-110134323D01*
X137856269Y-110134323D02*
X137903888Y-110229561D01*
X137903888Y-110229561D02*
X137999126Y-110324800D01*
X137999126Y-110324800D02*
X138141983Y-110372419D01*
X138141983Y-110372419D02*
X138237221Y-110372419D01*
X138237221Y-110372419D02*
X138380078Y-110324800D01*
X138380078Y-110324800D02*
X138427697Y-110277180D01*
X138427697Y-110277180D02*
X138427697Y-109943847D01*
X138427697Y-109943847D02*
X138237221Y-109943847D01*
X138999126Y-110372419D02*
X138903888Y-110324800D01*
X138903888Y-110324800D02*
X138856269Y-110229561D01*
X138856269Y-110229561D02*
X138856269Y-109372419D01*
X139522936Y-110372419D02*
X139427698Y-110324800D01*
X139427698Y-110324800D02*
X139380079Y-110277180D01*
X139380079Y-110277180D02*
X139332460Y-110181942D01*
X139332460Y-110181942D02*
X139332460Y-109896228D01*
X139332460Y-109896228D02*
X139380079Y-109800990D01*
X139380079Y-109800990D02*
X139427698Y-109753371D01*
X139427698Y-109753371D02*
X139522936Y-109705752D01*
X139522936Y-109705752D02*
X139665793Y-109705752D01*
X139665793Y-109705752D02*
X139761031Y-109753371D01*
X139761031Y-109753371D02*
X139808650Y-109800990D01*
X139808650Y-109800990D02*
X139856269Y-109896228D01*
X139856269Y-109896228D02*
X139856269Y-110181942D01*
X139856269Y-110181942D02*
X139808650Y-110277180D01*
X139808650Y-110277180D02*
X139761031Y-110324800D01*
X139761031Y-110324800D02*
X139665793Y-110372419D01*
X139665793Y-110372419D02*
X139522936Y-110372419D01*
X140284841Y-110372419D02*
X140284841Y-109705752D01*
X140284841Y-109896228D02*
X140332460Y-109800990D01*
X140332460Y-109800990D02*
X140380079Y-109753371D01*
X140380079Y-109753371D02*
X140475317Y-109705752D01*
X140475317Y-109705752D02*
X140570555Y-109705752D01*
X140808651Y-109705752D02*
X141046746Y-110372419D01*
X141284841Y-109705752D02*
X141046746Y-110372419D01*
X141046746Y-110372419D02*
X140951508Y-110610514D01*
X140951508Y-110610514D02*
X140903889Y-110658133D01*
X140903889Y-110658133D02*
X140808651Y-110705752D01*
X142284842Y-109705752D02*
X142665794Y-109705752D01*
X142427699Y-109372419D02*
X142427699Y-110229561D01*
X142427699Y-110229561D02*
X142475318Y-110324800D01*
X142475318Y-110324800D02*
X142570556Y-110372419D01*
X142570556Y-110372419D02*
X142665794Y-110372419D01*
X143141985Y-110372419D02*
X143046747Y-110324800D01*
X143046747Y-110324800D02*
X142999128Y-110277180D01*
X142999128Y-110277180D02*
X142951509Y-110181942D01*
X142951509Y-110181942D02*
X142951509Y-109896228D01*
X142951509Y-109896228D02*
X142999128Y-109800990D01*
X142999128Y-109800990D02*
X143046747Y-109753371D01*
X143046747Y-109753371D02*
X143141985Y-109705752D01*
X143141985Y-109705752D02*
X143284842Y-109705752D01*
X143284842Y-109705752D02*
X143380080Y-109753371D01*
X143380080Y-109753371D02*
X143427699Y-109800990D01*
X143427699Y-109800990D02*
X143475318Y-109896228D01*
X143475318Y-109896228D02*
X143475318Y-110181942D01*
X143475318Y-110181942D02*
X143427699Y-110277180D01*
X143427699Y-110277180D02*
X143380080Y-110324800D01*
X143380080Y-110324800D02*
X143284842Y-110372419D01*
X143284842Y-110372419D02*
X143141985Y-110372419D01*
X144665795Y-109848609D02*
X144999128Y-109848609D01*
X145141985Y-110372419D02*
X144665795Y-110372419D01*
X144665795Y-110372419D02*
X144665795Y-109372419D01*
X144665795Y-109372419D02*
X145141985Y-109372419D01*
X145570557Y-110372419D02*
X145570557Y-109705752D01*
X145570557Y-109896228D02*
X145618176Y-109800990D01*
X145618176Y-109800990D02*
X145665795Y-109753371D01*
X145665795Y-109753371D02*
X145761033Y-109705752D01*
X145761033Y-109705752D02*
X145856271Y-109705752D01*
X146570557Y-110324800D02*
X146475319Y-110372419D01*
X146475319Y-110372419D02*
X146284843Y-110372419D01*
X146284843Y-110372419D02*
X146189605Y-110324800D01*
X146189605Y-110324800D02*
X146141986Y-110229561D01*
X146141986Y-110229561D02*
X146141986Y-109848609D01*
X146141986Y-109848609D02*
X146189605Y-109753371D01*
X146189605Y-109753371D02*
X146284843Y-109705752D01*
X146284843Y-109705752D02*
X146475319Y-109705752D01*
X146475319Y-109705752D02*
X146570557Y-109753371D01*
X146570557Y-109753371D02*
X146618176Y-109848609D01*
X146618176Y-109848609D02*
X146618176Y-109943847D01*
X146618176Y-109943847D02*
X146141986Y-110039085D01*
X147046748Y-110372419D02*
X147046748Y-109372419D01*
X147046748Y-109753371D02*
X147141986Y-109705752D01*
X147141986Y-109705752D02*
X147332462Y-109705752D01*
X147332462Y-109705752D02*
X147427700Y-109753371D01*
X147427700Y-109753371D02*
X147475319Y-109800990D01*
X147475319Y-109800990D02*
X147522938Y-109896228D01*
X147522938Y-109896228D02*
X147522938Y-110181942D01*
X147522938Y-110181942D02*
X147475319Y-110277180D01*
X147475319Y-110277180D02*
X147427700Y-110324800D01*
X147427700Y-110324800D02*
X147332462Y-110372419D01*
X147332462Y-110372419D02*
X147141986Y-110372419D01*
X147141986Y-110372419D02*
X147046748Y-110324800D01*
X148094367Y-110372419D02*
X147999129Y-110324800D01*
X147999129Y-110324800D02*
X147951510Y-110277180D01*
X147951510Y-110277180D02*
X147903891Y-110181942D01*
X147903891Y-110181942D02*
X147903891Y-109896228D01*
X147903891Y-109896228D02*
X147951510Y-109800990D01*
X147951510Y-109800990D02*
X147999129Y-109753371D01*
X147999129Y-109753371D02*
X148094367Y-109705752D01*
X148094367Y-109705752D02*
X148237224Y-109705752D01*
X148237224Y-109705752D02*
X148332462Y-109753371D01*
X148332462Y-109753371D02*
X148380081Y-109800990D01*
X148380081Y-109800990D02*
X148427700Y-109896228D01*
X148427700Y-109896228D02*
X148427700Y-110181942D01*
X148427700Y-110181942D02*
X148380081Y-110277180D01*
X148380081Y-110277180D02*
X148332462Y-110324800D01*
X148332462Y-110324800D02*
X148237224Y-110372419D01*
X148237224Y-110372419D02*
X148094367Y-110372419D01*
X148856272Y-110372419D02*
X148856272Y-109705752D01*
X148856272Y-109896228D02*
X148903891Y-109800990D01*
X148903891Y-109800990D02*
X148951510Y-109753371D01*
X148951510Y-109753371D02*
X149046748Y-109705752D01*
X149046748Y-109705752D02*
X149141986Y-109705752D01*
D11*
X112969673Y-80243409D02*
X113303006Y-80243409D01*
X113445863Y-80767219D02*
X112969673Y-80767219D01*
X112969673Y-80767219D02*
X112969673Y-79767219D01*
X112969673Y-79767219D02*
X113445863Y-79767219D01*
X113874435Y-80386266D02*
X114636340Y-80386266D01*
X115112530Y-80100552D02*
X115112530Y-81100552D01*
X115112530Y-80148171D02*
X115207768Y-80100552D01*
X115207768Y-80100552D02*
X115398244Y-80100552D01*
X115398244Y-80100552D02*
X115493482Y-80148171D01*
X115493482Y-80148171D02*
X115541101Y-80195790D01*
X115541101Y-80195790D02*
X115588720Y-80291028D01*
X115588720Y-80291028D02*
X115588720Y-80576742D01*
X115588720Y-80576742D02*
X115541101Y-80671980D01*
X115541101Y-80671980D02*
X115493482Y-80719600D01*
X115493482Y-80719600D02*
X115398244Y-80767219D01*
X115398244Y-80767219D02*
X115207768Y-80767219D01*
X115207768Y-80767219D02*
X115112530Y-80719600D01*
X116445863Y-80767219D02*
X116445863Y-80243409D01*
X116445863Y-80243409D02*
X116398244Y-80148171D01*
X116398244Y-80148171D02*
X116303006Y-80100552D01*
X116303006Y-80100552D02*
X116112530Y-80100552D01*
X116112530Y-80100552D02*
X116017292Y-80148171D01*
X116445863Y-80719600D02*
X116350625Y-80767219D01*
X116350625Y-80767219D02*
X116112530Y-80767219D01*
X116112530Y-80767219D02*
X116017292Y-80719600D01*
X116017292Y-80719600D02*
X115969673Y-80624361D01*
X115969673Y-80624361D02*
X115969673Y-80529123D01*
X115969673Y-80529123D02*
X116017292Y-80433885D01*
X116017292Y-80433885D02*
X116112530Y-80386266D01*
X116112530Y-80386266D02*
X116350625Y-80386266D01*
X116350625Y-80386266D02*
X116445863Y-80338647D01*
X116922054Y-80100552D02*
X116922054Y-81100552D01*
X116922054Y-80148171D02*
X117017292Y-80100552D01*
X117017292Y-80100552D02*
X117207768Y-80100552D01*
X117207768Y-80100552D02*
X117303006Y-80148171D01*
X117303006Y-80148171D02*
X117350625Y-80195790D01*
X117350625Y-80195790D02*
X117398244Y-80291028D01*
X117398244Y-80291028D02*
X117398244Y-80576742D01*
X117398244Y-80576742D02*
X117350625Y-80671980D01*
X117350625Y-80671980D02*
X117303006Y-80719600D01*
X117303006Y-80719600D02*
X117207768Y-80767219D01*
X117207768Y-80767219D02*
X117017292Y-80767219D01*
X117017292Y-80767219D02*
X116922054Y-80719600D01*
X118207768Y-80719600D02*
X118112530Y-80767219D01*
X118112530Y-80767219D02*
X117922054Y-80767219D01*
X117922054Y-80767219D02*
X117826816Y-80719600D01*
X117826816Y-80719600D02*
X117779197Y-80624361D01*
X117779197Y-80624361D02*
X117779197Y-80243409D01*
X117779197Y-80243409D02*
X117826816Y-80148171D01*
X117826816Y-80148171D02*
X117922054Y-80100552D01*
X117922054Y-80100552D02*
X118112530Y-80100552D01*
X118112530Y-80100552D02*
X118207768Y-80148171D01*
X118207768Y-80148171D02*
X118255387Y-80243409D01*
X118255387Y-80243409D02*
X118255387Y-80338647D01*
X118255387Y-80338647D02*
X117779197Y-80433885D01*
X118683959Y-80767219D02*
X118683959Y-80100552D01*
X118683959Y-80291028D02*
X118731578Y-80195790D01*
X118731578Y-80195790D02*
X118779197Y-80148171D01*
X118779197Y-80148171D02*
X118874435Y-80100552D01*
X118874435Y-80100552D02*
X118969673Y-80100552D01*
X120493483Y-80767219D02*
X120493483Y-79767219D01*
X120493483Y-80719600D02*
X120398245Y-80767219D01*
X120398245Y-80767219D02*
X120207769Y-80767219D01*
X120207769Y-80767219D02*
X120112531Y-80719600D01*
X120112531Y-80719600D02*
X120064912Y-80671980D01*
X120064912Y-80671980D02*
X120017293Y-80576742D01*
X120017293Y-80576742D02*
X120017293Y-80291028D01*
X120017293Y-80291028D02*
X120064912Y-80195790D01*
X120064912Y-80195790D02*
X120112531Y-80148171D01*
X120112531Y-80148171D02*
X120207769Y-80100552D01*
X120207769Y-80100552D02*
X120398245Y-80100552D01*
X120398245Y-80100552D02*
X120493483Y-80148171D01*
X120969674Y-80767219D02*
X120969674Y-80100552D01*
X120969674Y-79767219D02*
X120922055Y-79814838D01*
X120922055Y-79814838D02*
X120969674Y-79862457D01*
X120969674Y-79862457D02*
X121017293Y-79814838D01*
X121017293Y-79814838D02*
X120969674Y-79767219D01*
X120969674Y-79767219D02*
X120969674Y-79862457D01*
X121398245Y-80719600D02*
X121493483Y-80767219D01*
X121493483Y-80767219D02*
X121683959Y-80767219D01*
X121683959Y-80767219D02*
X121779197Y-80719600D01*
X121779197Y-80719600D02*
X121826816Y-80624361D01*
X121826816Y-80624361D02*
X121826816Y-80576742D01*
X121826816Y-80576742D02*
X121779197Y-80481504D01*
X121779197Y-80481504D02*
X121683959Y-80433885D01*
X121683959Y-80433885D02*
X121541102Y-80433885D01*
X121541102Y-80433885D02*
X121445864Y-80386266D01*
X121445864Y-80386266D02*
X121398245Y-80291028D01*
X121398245Y-80291028D02*
X121398245Y-80243409D01*
X121398245Y-80243409D02*
X121445864Y-80148171D01*
X121445864Y-80148171D02*
X121541102Y-80100552D01*
X121541102Y-80100552D02*
X121683959Y-80100552D01*
X121683959Y-80100552D02*
X121779197Y-80148171D01*
X122255388Y-80100552D02*
X122255388Y-81100552D01*
X122255388Y-80148171D02*
X122350626Y-80100552D01*
X122350626Y-80100552D02*
X122541102Y-80100552D01*
X122541102Y-80100552D02*
X122636340Y-80148171D01*
X122636340Y-80148171D02*
X122683959Y-80195790D01*
X122683959Y-80195790D02*
X122731578Y-80291028D01*
X122731578Y-80291028D02*
X122731578Y-80576742D01*
X122731578Y-80576742D02*
X122683959Y-80671980D01*
X122683959Y-80671980D02*
X122636340Y-80719600D01*
X122636340Y-80719600D02*
X122541102Y-80767219D01*
X122541102Y-80767219D02*
X122350626Y-80767219D01*
X122350626Y-80767219D02*
X122255388Y-80719600D01*
X123303007Y-80767219D02*
X123207769Y-80719600D01*
X123207769Y-80719600D02*
X123160150Y-80624361D01*
X123160150Y-80624361D02*
X123160150Y-79767219D01*
X124112531Y-80767219D02*
X124112531Y-80243409D01*
X124112531Y-80243409D02*
X124064912Y-80148171D01*
X124064912Y-80148171D02*
X123969674Y-80100552D01*
X123969674Y-80100552D02*
X123779198Y-80100552D01*
X123779198Y-80100552D02*
X123683960Y-80148171D01*
X124112531Y-80719600D02*
X124017293Y-80767219D01*
X124017293Y-80767219D02*
X123779198Y-80767219D01*
X123779198Y-80767219D02*
X123683960Y-80719600D01*
X123683960Y-80719600D02*
X123636341Y-80624361D01*
X123636341Y-80624361D02*
X123636341Y-80529123D01*
X123636341Y-80529123D02*
X123683960Y-80433885D01*
X123683960Y-80433885D02*
X123779198Y-80386266D01*
X123779198Y-80386266D02*
X124017293Y-80386266D01*
X124017293Y-80386266D02*
X124112531Y-80338647D01*
X124493484Y-80100552D02*
X124731579Y-80767219D01*
X124969674Y-80100552D02*
X124731579Y-80767219D01*
X124731579Y-80767219D02*
X124636341Y-81005314D01*
X124636341Y-81005314D02*
X124588722Y-81052933D01*
X124588722Y-81052933D02*
X124493484Y-81100552D01*
X126398246Y-81148171D02*
X126350627Y-81100552D01*
X126350627Y-81100552D02*
X126255389Y-80957695D01*
X126255389Y-80957695D02*
X126207770Y-80862457D01*
X126207770Y-80862457D02*
X126160151Y-80719600D01*
X126160151Y-80719600D02*
X126112532Y-80481504D01*
X126112532Y-80481504D02*
X126112532Y-80291028D01*
X126112532Y-80291028D02*
X126160151Y-80052933D01*
X126160151Y-80052933D02*
X126207770Y-79910076D01*
X126207770Y-79910076D02*
X126255389Y-79814838D01*
X126255389Y-79814838D02*
X126350627Y-79671980D01*
X126350627Y-79671980D02*
X126398246Y-79624361D01*
X127350627Y-80767219D02*
X127017294Y-80291028D01*
X126779199Y-80767219D02*
X126779199Y-79767219D01*
X126779199Y-79767219D02*
X127160151Y-79767219D01*
X127160151Y-79767219D02*
X127255389Y-79814838D01*
X127255389Y-79814838D02*
X127303008Y-79862457D01*
X127303008Y-79862457D02*
X127350627Y-79957695D01*
X127350627Y-79957695D02*
X127350627Y-80100552D01*
X127350627Y-80100552D02*
X127303008Y-80195790D01*
X127303008Y-80195790D02*
X127255389Y-80243409D01*
X127255389Y-80243409D02*
X127160151Y-80291028D01*
X127160151Y-80291028D02*
X126779199Y-80291028D01*
X127779199Y-80767219D02*
X127779199Y-79767219D01*
X128255389Y-80767219D02*
X128255389Y-79767219D01*
X128255389Y-79767219D02*
X128636341Y-79767219D01*
X128636341Y-79767219D02*
X128731579Y-79814838D01*
X128731579Y-79814838D02*
X128779198Y-79862457D01*
X128779198Y-79862457D02*
X128826817Y-79957695D01*
X128826817Y-79957695D02*
X128826817Y-80100552D01*
X128826817Y-80100552D02*
X128779198Y-80195790D01*
X128779198Y-80195790D02*
X128731579Y-80243409D01*
X128731579Y-80243409D02*
X128636341Y-80291028D01*
X128636341Y-80291028D02*
X128255389Y-80291028D01*
X130017294Y-80767219D02*
X130017294Y-79767219D01*
X130017294Y-79767219D02*
X130255389Y-79767219D01*
X130255389Y-79767219D02*
X130398246Y-79814838D01*
X130398246Y-79814838D02*
X130493484Y-79910076D01*
X130493484Y-79910076D02*
X130541103Y-80005314D01*
X130541103Y-80005314D02*
X130588722Y-80195790D01*
X130588722Y-80195790D02*
X130588722Y-80338647D01*
X130588722Y-80338647D02*
X130541103Y-80529123D01*
X130541103Y-80529123D02*
X130493484Y-80624361D01*
X130493484Y-80624361D02*
X130398246Y-80719600D01*
X130398246Y-80719600D02*
X130255389Y-80767219D01*
X130255389Y-80767219D02*
X130017294Y-80767219D01*
X130969675Y-80719600D02*
X131112532Y-80767219D01*
X131112532Y-80767219D02*
X131350627Y-80767219D01*
X131350627Y-80767219D02*
X131445865Y-80719600D01*
X131445865Y-80719600D02*
X131493484Y-80671980D01*
X131493484Y-80671980D02*
X131541103Y-80576742D01*
X131541103Y-80576742D02*
X131541103Y-80481504D01*
X131541103Y-80481504D02*
X131493484Y-80386266D01*
X131493484Y-80386266D02*
X131445865Y-80338647D01*
X131445865Y-80338647D02*
X131350627Y-80291028D01*
X131350627Y-80291028D02*
X131160151Y-80243409D01*
X131160151Y-80243409D02*
X131064913Y-80195790D01*
X131064913Y-80195790D02*
X131017294Y-80148171D01*
X131017294Y-80148171D02*
X130969675Y-80052933D01*
X130969675Y-80052933D02*
X130969675Y-79957695D01*
X130969675Y-79957695D02*
X131017294Y-79862457D01*
X131017294Y-79862457D02*
X131064913Y-79814838D01*
X131064913Y-79814838D02*
X131160151Y-79767219D01*
X131160151Y-79767219D02*
X131398246Y-79767219D01*
X131398246Y-79767219D02*
X131541103Y-79814838D01*
X131874437Y-79767219D02*
X132493484Y-79767219D01*
X132493484Y-79767219D02*
X132160151Y-80148171D01*
X132160151Y-80148171D02*
X132303008Y-80148171D01*
X132303008Y-80148171D02*
X132398246Y-80195790D01*
X132398246Y-80195790D02*
X132445865Y-80243409D01*
X132445865Y-80243409D02*
X132493484Y-80338647D01*
X132493484Y-80338647D02*
X132493484Y-80576742D01*
X132493484Y-80576742D02*
X132445865Y-80671980D01*
X132445865Y-80671980D02*
X132398246Y-80719600D01*
X132398246Y-80719600D02*
X132303008Y-80767219D01*
X132303008Y-80767219D02*
X132017294Y-80767219D01*
X132017294Y-80767219D02*
X131922056Y-80719600D01*
X131922056Y-80719600D02*
X131874437Y-80671980D01*
X132874437Y-79862457D02*
X132922056Y-79814838D01*
X132922056Y-79814838D02*
X133017294Y-79767219D01*
X133017294Y-79767219D02*
X133255389Y-79767219D01*
X133255389Y-79767219D02*
X133350627Y-79814838D01*
X133350627Y-79814838D02*
X133398246Y-79862457D01*
X133398246Y-79862457D02*
X133445865Y-79957695D01*
X133445865Y-79957695D02*
X133445865Y-80052933D01*
X133445865Y-80052933D02*
X133398246Y-80195790D01*
X133398246Y-80195790D02*
X132826818Y-80767219D01*
X132826818Y-80767219D02*
X133445865Y-80767219D01*
X133779199Y-79767219D02*
X134398246Y-79767219D01*
X134398246Y-79767219D02*
X134064913Y-80148171D01*
X134064913Y-80148171D02*
X134207770Y-80148171D01*
X134207770Y-80148171D02*
X134303008Y-80195790D01*
X134303008Y-80195790D02*
X134350627Y-80243409D01*
X134350627Y-80243409D02*
X134398246Y-80338647D01*
X134398246Y-80338647D02*
X134398246Y-80576742D01*
X134398246Y-80576742D02*
X134350627Y-80671980D01*
X134350627Y-80671980D02*
X134303008Y-80719600D01*
X134303008Y-80719600D02*
X134207770Y-80767219D01*
X134207770Y-80767219D02*
X133922056Y-80767219D01*
X133922056Y-80767219D02*
X133826818Y-80719600D01*
X133826818Y-80719600D02*
X133779199Y-80671980D01*
X135350627Y-80767219D02*
X134779199Y-80767219D01*
X135064913Y-80767219D02*
X135064913Y-79767219D01*
X135064913Y-79767219D02*
X134969675Y-79910076D01*
X134969675Y-79910076D02*
X134874437Y-80005314D01*
X134874437Y-80005314D02*
X134779199Y-80052933D01*
X135779199Y-80767219D02*
X135779199Y-79767219D01*
X135779199Y-79767219D02*
X136112532Y-80481504D01*
X136112532Y-80481504D02*
X136445865Y-79767219D01*
X136445865Y-79767219D02*
X136445865Y-80767219D01*
X136826818Y-79767219D02*
X137493484Y-79767219D01*
X137493484Y-79767219D02*
X136826818Y-80767219D01*
X136826818Y-80767219D02*
X137493484Y-80767219D01*
X137779199Y-81148171D02*
X137826818Y-81100552D01*
X137826818Y-81100552D02*
X137922056Y-80957695D01*
X137922056Y-80957695D02*
X137969675Y-80862457D01*
X137969675Y-80862457D02*
X138017294Y-80719600D01*
X138017294Y-80719600D02*
X138064913Y-80481504D01*
X138064913Y-80481504D02*
X138064913Y-80291028D01*
X138064913Y-80291028D02*
X138017294Y-80052933D01*
X138017294Y-80052933D02*
X137969675Y-79910076D01*
X137969675Y-79910076D02*
X137922056Y-79814838D01*
X137922056Y-79814838D02*
X137826818Y-79671980D01*
X137826818Y-79671980D02*
X137779199Y-79624361D01*
X178093482Y-77314838D02*
X177998244Y-77267219D01*
X177998244Y-77267219D02*
X177855387Y-77267219D01*
X177855387Y-77267219D02*
X177712530Y-77314838D01*
X177712530Y-77314838D02*
X177617292Y-77410076D01*
X177617292Y-77410076D02*
X177569673Y-77505314D01*
X177569673Y-77505314D02*
X177522054Y-77695790D01*
X177522054Y-77695790D02*
X177522054Y-77838647D01*
X177522054Y-77838647D02*
X177569673Y-78029123D01*
X177569673Y-78029123D02*
X177617292Y-78124361D01*
X177617292Y-78124361D02*
X177712530Y-78219600D01*
X177712530Y-78219600D02*
X177855387Y-78267219D01*
X177855387Y-78267219D02*
X177950625Y-78267219D01*
X177950625Y-78267219D02*
X178093482Y-78219600D01*
X178093482Y-78219600D02*
X178141101Y-78171980D01*
X178141101Y-78171980D02*
X178141101Y-77838647D01*
X178141101Y-77838647D02*
X177950625Y-77838647D01*
X178569673Y-78267219D02*
X178569673Y-77267219D01*
X178569673Y-77267219D02*
X179141101Y-78267219D01*
X179141101Y-78267219D02*
X179141101Y-77267219D01*
X179617292Y-78267219D02*
X179617292Y-77267219D01*
X179617292Y-77267219D02*
X179855387Y-77267219D01*
X179855387Y-77267219D02*
X179998244Y-77314838D01*
X179998244Y-77314838D02*
X180093482Y-77410076D01*
X180093482Y-77410076D02*
X180141101Y-77505314D01*
X180141101Y-77505314D02*
X180188720Y-77695790D01*
X180188720Y-77695790D02*
X180188720Y-77838647D01*
X180188720Y-77838647D02*
X180141101Y-78029123D01*
X180141101Y-78029123D02*
X180093482Y-78124361D01*
X180093482Y-78124361D02*
X179998244Y-78219600D01*
X179998244Y-78219600D02*
X179855387Y-78267219D01*
X179855387Y-78267219D02*
X179617292Y-78267219D01*
X177674435Y-79867219D02*
X178293482Y-79867219D01*
X178293482Y-79867219D02*
X177960149Y-80248171D01*
X177960149Y-80248171D02*
X178103006Y-80248171D01*
X178103006Y-80248171D02*
X178198244Y-80295790D01*
X178198244Y-80295790D02*
X178245863Y-80343409D01*
X178245863Y-80343409D02*
X178293482Y-80438647D01*
X178293482Y-80438647D02*
X178293482Y-80676742D01*
X178293482Y-80676742D02*
X178245863Y-80771980D01*
X178245863Y-80771980D02*
X178198244Y-80819600D01*
X178198244Y-80819600D02*
X178103006Y-80867219D01*
X178103006Y-80867219D02*
X177817292Y-80867219D01*
X177817292Y-80867219D02*
X177722054Y-80819600D01*
X177722054Y-80819600D02*
X177674435Y-80771980D01*
X178579197Y-79867219D02*
X178912530Y-80867219D01*
X178912530Y-80867219D02*
X179245863Y-79867219D01*
X179483959Y-79867219D02*
X180103006Y-79867219D01*
X180103006Y-79867219D02*
X179769673Y-80248171D01*
X179769673Y-80248171D02*
X179912530Y-80248171D01*
X179912530Y-80248171D02*
X180007768Y-80295790D01*
X180007768Y-80295790D02*
X180055387Y-80343409D01*
X180055387Y-80343409D02*
X180103006Y-80438647D01*
X180103006Y-80438647D02*
X180103006Y-80676742D01*
X180103006Y-80676742D02*
X180055387Y-80771980D01*
X180055387Y-80771980D02*
X180007768Y-80819600D01*
X180007768Y-80819600D02*
X179912530Y-80867219D01*
X179912530Y-80867219D02*
X179626816Y-80867219D01*
X179626816Y-80867219D02*
X179531578Y-80819600D01*
X179531578Y-80819600D02*
X179483959Y-80771980D01*
X177969673Y-83267219D02*
X177969673Y-82267219D01*
X178636339Y-82267219D02*
X178826815Y-82267219D01*
X178826815Y-82267219D02*
X178922053Y-82314838D01*
X178922053Y-82314838D02*
X179017291Y-82410076D01*
X179017291Y-82410076D02*
X179064910Y-82600552D01*
X179064910Y-82600552D02*
X179064910Y-82933885D01*
X179064910Y-82933885D02*
X179017291Y-83124361D01*
X179017291Y-83124361D02*
X178922053Y-83219600D01*
X178922053Y-83219600D02*
X178826815Y-83267219D01*
X178826815Y-83267219D02*
X178636339Y-83267219D01*
X178636339Y-83267219D02*
X178541101Y-83219600D01*
X178541101Y-83219600D02*
X178445863Y-83124361D01*
X178445863Y-83124361D02*
X178398244Y-82933885D01*
X178398244Y-82933885D02*
X178398244Y-82600552D01*
X178398244Y-82600552D02*
X178445863Y-82410076D01*
X178445863Y-82410076D02*
X178541101Y-82314838D01*
X178541101Y-82314838D02*
X178636339Y-82267219D01*
X180017291Y-83267219D02*
X179445863Y-83267219D01*
X179731577Y-83267219D02*
X179731577Y-82267219D01*
X179731577Y-82267219D02*
X179636339Y-82410076D01*
X179636339Y-82410076D02*
X179541101Y-82505314D01*
X179541101Y-82505314D02*
X179445863Y-82552933D01*
X177969673Y-85867219D02*
X177969673Y-84867219D01*
X178636339Y-84867219D02*
X178826815Y-84867219D01*
X178826815Y-84867219D02*
X178922053Y-84914838D01*
X178922053Y-84914838D02*
X179017291Y-85010076D01*
X179017291Y-85010076D02*
X179064910Y-85200552D01*
X179064910Y-85200552D02*
X179064910Y-85533885D01*
X179064910Y-85533885D02*
X179017291Y-85724361D01*
X179017291Y-85724361D02*
X178922053Y-85819600D01*
X178922053Y-85819600D02*
X178826815Y-85867219D01*
X178826815Y-85867219D02*
X178636339Y-85867219D01*
X178636339Y-85867219D02*
X178541101Y-85819600D01*
X178541101Y-85819600D02*
X178445863Y-85724361D01*
X178445863Y-85724361D02*
X178398244Y-85533885D01*
X178398244Y-85533885D02*
X178398244Y-85200552D01*
X178398244Y-85200552D02*
X178445863Y-85010076D01*
X178445863Y-85010076D02*
X178541101Y-84914838D01*
X178541101Y-84914838D02*
X178636339Y-84867219D01*
X179445863Y-84962457D02*
X179493482Y-84914838D01*
X179493482Y-84914838D02*
X179588720Y-84867219D01*
X179588720Y-84867219D02*
X179826815Y-84867219D01*
X179826815Y-84867219D02*
X179922053Y-84914838D01*
X179922053Y-84914838D02*
X179969672Y-84962457D01*
X179969672Y-84962457D02*
X180017291Y-85057695D01*
X180017291Y-85057695D02*
X180017291Y-85152933D01*
X180017291Y-85152933D02*
X179969672Y-85295790D01*
X179969672Y-85295790D02*
X179398244Y-85867219D01*
X179398244Y-85867219D02*
X180017291Y-85867219D01*
X177969673Y-88467219D02*
X177969673Y-87467219D01*
X178636339Y-87467219D02*
X178826815Y-87467219D01*
X178826815Y-87467219D02*
X178922053Y-87514838D01*
X178922053Y-87514838D02*
X179017291Y-87610076D01*
X179017291Y-87610076D02*
X179064910Y-87800552D01*
X179064910Y-87800552D02*
X179064910Y-88133885D01*
X179064910Y-88133885D02*
X179017291Y-88324361D01*
X179017291Y-88324361D02*
X178922053Y-88419600D01*
X178922053Y-88419600D02*
X178826815Y-88467219D01*
X178826815Y-88467219D02*
X178636339Y-88467219D01*
X178636339Y-88467219D02*
X178541101Y-88419600D01*
X178541101Y-88419600D02*
X178445863Y-88324361D01*
X178445863Y-88324361D02*
X178398244Y-88133885D01*
X178398244Y-88133885D02*
X178398244Y-87800552D01*
X178398244Y-87800552D02*
X178445863Y-87610076D01*
X178445863Y-87610076D02*
X178541101Y-87514838D01*
X178541101Y-87514838D02*
X178636339Y-87467219D01*
X179398244Y-87467219D02*
X180017291Y-87467219D01*
X180017291Y-87467219D02*
X179683958Y-87848171D01*
X179683958Y-87848171D02*
X179826815Y-87848171D01*
X179826815Y-87848171D02*
X179922053Y-87895790D01*
X179922053Y-87895790D02*
X179969672Y-87943409D01*
X179969672Y-87943409D02*
X180017291Y-88038647D01*
X180017291Y-88038647D02*
X180017291Y-88276742D01*
X180017291Y-88276742D02*
X179969672Y-88371980D01*
X179969672Y-88371980D02*
X179922053Y-88419600D01*
X179922053Y-88419600D02*
X179826815Y-88467219D01*
X179826815Y-88467219D02*
X179541101Y-88467219D01*
X179541101Y-88467219D02*
X179445863Y-88419600D01*
X179445863Y-88419600D02*
X179398244Y-88371980D01*
X177969673Y-91067219D02*
X177969673Y-90067219D01*
X178636339Y-90067219D02*
X178826815Y-90067219D01*
X178826815Y-90067219D02*
X178922053Y-90114838D01*
X178922053Y-90114838D02*
X179017291Y-90210076D01*
X179017291Y-90210076D02*
X179064910Y-90400552D01*
X179064910Y-90400552D02*
X179064910Y-90733885D01*
X179064910Y-90733885D02*
X179017291Y-90924361D01*
X179017291Y-90924361D02*
X178922053Y-91019600D01*
X178922053Y-91019600D02*
X178826815Y-91067219D01*
X178826815Y-91067219D02*
X178636339Y-91067219D01*
X178636339Y-91067219D02*
X178541101Y-91019600D01*
X178541101Y-91019600D02*
X178445863Y-90924361D01*
X178445863Y-90924361D02*
X178398244Y-90733885D01*
X178398244Y-90733885D02*
X178398244Y-90400552D01*
X178398244Y-90400552D02*
X178445863Y-90210076D01*
X178445863Y-90210076D02*
X178541101Y-90114838D01*
X178541101Y-90114838D02*
X178636339Y-90067219D01*
X179922053Y-90400552D02*
X179922053Y-91067219D01*
X179683958Y-90019600D02*
X179445863Y-90733885D01*
X179445863Y-90733885D02*
X180064910Y-90733885D01*
X177969673Y-93667219D02*
X177969673Y-92667219D01*
X178636339Y-92667219D02*
X178826815Y-92667219D01*
X178826815Y-92667219D02*
X178922053Y-92714838D01*
X178922053Y-92714838D02*
X179017291Y-92810076D01*
X179017291Y-92810076D02*
X179064910Y-93000552D01*
X179064910Y-93000552D02*
X179064910Y-93333885D01*
X179064910Y-93333885D02*
X179017291Y-93524361D01*
X179017291Y-93524361D02*
X178922053Y-93619600D01*
X178922053Y-93619600D02*
X178826815Y-93667219D01*
X178826815Y-93667219D02*
X178636339Y-93667219D01*
X178636339Y-93667219D02*
X178541101Y-93619600D01*
X178541101Y-93619600D02*
X178445863Y-93524361D01*
X178445863Y-93524361D02*
X178398244Y-93333885D01*
X178398244Y-93333885D02*
X178398244Y-93000552D01*
X178398244Y-93000552D02*
X178445863Y-92810076D01*
X178445863Y-92810076D02*
X178541101Y-92714838D01*
X178541101Y-92714838D02*
X178636339Y-92667219D01*
X179969672Y-92667219D02*
X179493482Y-92667219D01*
X179493482Y-92667219D02*
X179445863Y-93143409D01*
X179445863Y-93143409D02*
X179493482Y-93095790D01*
X179493482Y-93095790D02*
X179588720Y-93048171D01*
X179588720Y-93048171D02*
X179826815Y-93048171D01*
X179826815Y-93048171D02*
X179922053Y-93095790D01*
X179922053Y-93095790D02*
X179969672Y-93143409D01*
X179969672Y-93143409D02*
X180017291Y-93238647D01*
X180017291Y-93238647D02*
X180017291Y-93476742D01*
X180017291Y-93476742D02*
X179969672Y-93571980D01*
X179969672Y-93571980D02*
X179922053Y-93619600D01*
X179922053Y-93619600D02*
X179826815Y-93667219D01*
X179826815Y-93667219D02*
X179588720Y-93667219D01*
X179588720Y-93667219D02*
X179493482Y-93619600D01*
X179493482Y-93619600D02*
X179445863Y-93571980D01*
X177969673Y-96067219D02*
X177969673Y-95067219D01*
X178636339Y-95067219D02*
X178826815Y-95067219D01*
X178826815Y-95067219D02*
X178922053Y-95114838D01*
X178922053Y-95114838D02*
X179017291Y-95210076D01*
X179017291Y-95210076D02*
X179064910Y-95400552D01*
X179064910Y-95400552D02*
X179064910Y-95733885D01*
X179064910Y-95733885D02*
X179017291Y-95924361D01*
X179017291Y-95924361D02*
X178922053Y-96019600D01*
X178922053Y-96019600D02*
X178826815Y-96067219D01*
X178826815Y-96067219D02*
X178636339Y-96067219D01*
X178636339Y-96067219D02*
X178541101Y-96019600D01*
X178541101Y-96019600D02*
X178445863Y-95924361D01*
X178445863Y-95924361D02*
X178398244Y-95733885D01*
X178398244Y-95733885D02*
X178398244Y-95400552D01*
X178398244Y-95400552D02*
X178445863Y-95210076D01*
X178445863Y-95210076D02*
X178541101Y-95114838D01*
X178541101Y-95114838D02*
X178636339Y-95067219D01*
X179922053Y-95067219D02*
X179731577Y-95067219D01*
X179731577Y-95067219D02*
X179636339Y-95114838D01*
X179636339Y-95114838D02*
X179588720Y-95162457D01*
X179588720Y-95162457D02*
X179493482Y-95305314D01*
X179493482Y-95305314D02*
X179445863Y-95495790D01*
X179445863Y-95495790D02*
X179445863Y-95876742D01*
X179445863Y-95876742D02*
X179493482Y-95971980D01*
X179493482Y-95971980D02*
X179541101Y-96019600D01*
X179541101Y-96019600D02*
X179636339Y-96067219D01*
X179636339Y-96067219D02*
X179826815Y-96067219D01*
X179826815Y-96067219D02*
X179922053Y-96019600D01*
X179922053Y-96019600D02*
X179969672Y-95971980D01*
X179969672Y-95971980D02*
X180017291Y-95876742D01*
X180017291Y-95876742D02*
X180017291Y-95638647D01*
X180017291Y-95638647D02*
X179969672Y-95543409D01*
X179969672Y-95543409D02*
X179922053Y-95495790D01*
X179922053Y-95495790D02*
X179826815Y-95448171D01*
X179826815Y-95448171D02*
X179636339Y-95448171D01*
X179636339Y-95448171D02*
X179541101Y-95495790D01*
X179541101Y-95495790D02*
X179493482Y-95543409D01*
X179493482Y-95543409D02*
X179445863Y-95638647D01*
D12*
X162024819Y-106666666D02*
X161548628Y-106999999D01*
X162024819Y-107238094D02*
X161024819Y-107238094D01*
X161024819Y-107238094D02*
X161024819Y-106857142D01*
X161024819Y-106857142D02*
X161072438Y-106761904D01*
X161072438Y-106761904D02*
X161120057Y-106714285D01*
X161120057Y-106714285D02*
X161215295Y-106666666D01*
X161215295Y-106666666D02*
X161358152Y-106666666D01*
X161358152Y-106666666D02*
X161453390Y-106714285D01*
X161453390Y-106714285D02*
X161501009Y-106761904D01*
X161501009Y-106761904D02*
X161548628Y-106857142D01*
X161548628Y-106857142D02*
X161548628Y-107238094D01*
X161024819Y-106333332D02*
X161024819Y-105666666D01*
X161024819Y-105666666D02*
X162024819Y-106095237D01*
X172454819Y-100761904D02*
X173264342Y-100761904D01*
X173264342Y-100761904D02*
X173359580Y-100714285D01*
X173359580Y-100714285D02*
X173407200Y-100666666D01*
X173407200Y-100666666D02*
X173454819Y-100571428D01*
X173454819Y-100571428D02*
X173454819Y-100380952D01*
X173454819Y-100380952D02*
X173407200Y-100285714D01*
X173407200Y-100285714D02*
X173359580Y-100238095D01*
X173359580Y-100238095D02*
X173264342Y-100190476D01*
X173264342Y-100190476D02*
X172454819Y-100190476D01*
X172454819Y-99809523D02*
X172454819Y-99190476D01*
X172454819Y-99190476D02*
X172835771Y-99523809D01*
X172835771Y-99523809D02*
X172835771Y-99380952D01*
X172835771Y-99380952D02*
X172883390Y-99285714D01*
X172883390Y-99285714D02*
X172931009Y-99238095D01*
X172931009Y-99238095D02*
X173026247Y-99190476D01*
X173026247Y-99190476D02*
X173264342Y-99190476D01*
X173264342Y-99190476D02*
X173359580Y-99238095D01*
X173359580Y-99238095D02*
X173407200Y-99285714D01*
X173407200Y-99285714D02*
X173454819Y-99380952D01*
X173454819Y-99380952D02*
X173454819Y-99666666D01*
X173454819Y-99666666D02*
X173407200Y-99761904D01*
X173407200Y-99761904D02*
X173359580Y-99809523D01*
X166083333Y-102454819D02*
X165750000Y-101978628D01*
X165511905Y-102454819D02*
X165511905Y-101454819D01*
X165511905Y-101454819D02*
X165892857Y-101454819D01*
X165892857Y-101454819D02*
X165988095Y-101502438D01*
X165988095Y-101502438D02*
X166035714Y-101550057D01*
X166035714Y-101550057D02*
X166083333Y-101645295D01*
X166083333Y-101645295D02*
X166083333Y-101788152D01*
X166083333Y-101788152D02*
X166035714Y-101883390D01*
X166035714Y-101883390D02*
X165988095Y-101931009D01*
X165988095Y-101931009D02*
X165892857Y-101978628D01*
X165892857Y-101978628D02*
X165511905Y-101978628D01*
X166940476Y-101788152D02*
X166940476Y-102454819D01*
X166702381Y-101407200D02*
X166464286Y-102121485D01*
X166464286Y-102121485D02*
X167083333Y-102121485D01*
X158704819Y-105916666D02*
X158228628Y-106249999D01*
X158704819Y-106488094D02*
X157704819Y-106488094D01*
X157704819Y-106488094D02*
X157704819Y-106107142D01*
X157704819Y-106107142D02*
X157752438Y-106011904D01*
X157752438Y-106011904D02*
X157800057Y-105964285D01*
X157800057Y-105964285D02*
X157895295Y-105916666D01*
X157895295Y-105916666D02*
X158038152Y-105916666D01*
X158038152Y-105916666D02*
X158133390Y-105964285D01*
X158133390Y-105964285D02*
X158181009Y-106011904D01*
X158181009Y-106011904D02*
X158228628Y-106107142D01*
X158228628Y-106107142D02*
X158228628Y-106488094D01*
X157704819Y-105583332D02*
X157704819Y-104964285D01*
X157704819Y-104964285D02*
X158085771Y-105297618D01*
X158085771Y-105297618D02*
X158085771Y-105154761D01*
X158085771Y-105154761D02*
X158133390Y-105059523D01*
X158133390Y-105059523D02*
X158181009Y-105011904D01*
X158181009Y-105011904D02*
X158276247Y-104964285D01*
X158276247Y-104964285D02*
X158514342Y-104964285D01*
X158514342Y-104964285D02*
X158609580Y-105011904D01*
X158609580Y-105011904D02*
X158657200Y-105059523D01*
X158657200Y-105059523D02*
X158704819Y-105154761D01*
X158704819Y-105154761D02*
X158704819Y-105440475D01*
X158704819Y-105440475D02*
X158657200Y-105535713D01*
X158657200Y-105535713D02*
X158609580Y-105583332D01*
X156238095Y-98504819D02*
X156238095Y-99314342D01*
X156238095Y-99314342D02*
X156285714Y-99409580D01*
X156285714Y-99409580D02*
X156333333Y-99457200D01*
X156333333Y-99457200D02*
X156428571Y-99504819D01*
X156428571Y-99504819D02*
X156619047Y-99504819D01*
X156619047Y-99504819D02*
X156714285Y-99457200D01*
X156714285Y-99457200D02*
X156761904Y-99409580D01*
X156761904Y-99409580D02*
X156809523Y-99314342D01*
X156809523Y-99314342D02*
X156809523Y-98504819D01*
X157238095Y-98600057D02*
X157285714Y-98552438D01*
X157285714Y-98552438D02*
X157380952Y-98504819D01*
X157380952Y-98504819D02*
X157619047Y-98504819D01*
X157619047Y-98504819D02*
X157714285Y-98552438D01*
X157714285Y-98552438D02*
X157761904Y-98600057D01*
X157761904Y-98600057D02*
X157809523Y-98695295D01*
X157809523Y-98695295D02*
X157809523Y-98790533D01*
X157809523Y-98790533D02*
X157761904Y-98933390D01*
X157761904Y-98933390D02*
X157190476Y-99504819D01*
X157190476Y-99504819D02*
X157809523Y-99504819D01*
X165357142Y-96859580D02*
X165309523Y-96907200D01*
X165309523Y-96907200D02*
X165166666Y-96954819D01*
X165166666Y-96954819D02*
X165071428Y-96954819D01*
X165071428Y-96954819D02*
X164928571Y-96907200D01*
X164928571Y-96907200D02*
X164833333Y-96811961D01*
X164833333Y-96811961D02*
X164785714Y-96716723D01*
X164785714Y-96716723D02*
X164738095Y-96526247D01*
X164738095Y-96526247D02*
X164738095Y-96383390D01*
X164738095Y-96383390D02*
X164785714Y-96192914D01*
X164785714Y-96192914D02*
X164833333Y-96097676D01*
X164833333Y-96097676D02*
X164928571Y-96002438D01*
X164928571Y-96002438D02*
X165071428Y-95954819D01*
X165071428Y-95954819D02*
X165166666Y-95954819D01*
X165166666Y-95954819D02*
X165309523Y-96002438D01*
X165309523Y-96002438D02*
X165357142Y-96050057D01*
X166309523Y-96954819D02*
X165738095Y-96954819D01*
X166023809Y-96954819D02*
X166023809Y-95954819D01*
X166023809Y-95954819D02*
X165928571Y-96097676D01*
X165928571Y-96097676D02*
X165833333Y-96192914D01*
X165833333Y-96192914D02*
X165738095Y-96240533D01*
X167214285Y-95954819D02*
X166738095Y-95954819D01*
X166738095Y-95954819D02*
X166690476Y-96431009D01*
X166690476Y-96431009D02*
X166738095Y-96383390D01*
X166738095Y-96383390D02*
X166833333Y-96335771D01*
X166833333Y-96335771D02*
X167071428Y-96335771D01*
X167071428Y-96335771D02*
X167166666Y-96383390D01*
X167166666Y-96383390D02*
X167214285Y-96431009D01*
X167214285Y-96431009D02*
X167261904Y-96526247D01*
X167261904Y-96526247D02*
X167261904Y-96764342D01*
X167261904Y-96764342D02*
X167214285Y-96859580D01*
X167214285Y-96859580D02*
X167166666Y-96907200D01*
X167166666Y-96907200D02*
X167071428Y-96954819D01*
X167071428Y-96954819D02*
X166833333Y-96954819D01*
X166833333Y-96954819D02*
X166738095Y-96907200D01*
X166738095Y-96907200D02*
X166690476Y-96859580D01*
X161261905Y-99454819D02*
X161261905Y-98454819D01*
X161261905Y-98454819D02*
X161500000Y-98454819D01*
X161500000Y-98454819D02*
X161642857Y-98502438D01*
X161642857Y-98502438D02*
X161738095Y-98597676D01*
X161738095Y-98597676D02*
X161785714Y-98692914D01*
X161785714Y-98692914D02*
X161833333Y-98883390D01*
X161833333Y-98883390D02*
X161833333Y-99026247D01*
X161833333Y-99026247D02*
X161785714Y-99216723D01*
X161785714Y-99216723D02*
X161738095Y-99311961D01*
X161738095Y-99311961D02*
X161642857Y-99407200D01*
X161642857Y-99407200D02*
X161500000Y-99454819D01*
X161500000Y-99454819D02*
X161261905Y-99454819D01*
X162166667Y-98454819D02*
X162785714Y-98454819D01*
X162785714Y-98454819D02*
X162452381Y-98835771D01*
X162452381Y-98835771D02*
X162595238Y-98835771D01*
X162595238Y-98835771D02*
X162690476Y-98883390D01*
X162690476Y-98883390D02*
X162738095Y-98931009D01*
X162738095Y-98931009D02*
X162785714Y-99026247D01*
X162785714Y-99026247D02*
X162785714Y-99264342D01*
X162785714Y-99264342D02*
X162738095Y-99359580D01*
X162738095Y-99359580D02*
X162690476Y-99407200D01*
X162690476Y-99407200D02*
X162595238Y-99454819D01*
X162595238Y-99454819D02*
X162309524Y-99454819D01*
X162309524Y-99454819D02*
X162214286Y-99407200D01*
X162214286Y-99407200D02*
X162166667Y-99359580D01*
X156983333Y-95679580D02*
X156935714Y-95727200D01*
X156935714Y-95727200D02*
X156792857Y-95774819D01*
X156792857Y-95774819D02*
X156697619Y-95774819D01*
X156697619Y-95774819D02*
X156554762Y-95727200D01*
X156554762Y-95727200D02*
X156459524Y-95631961D01*
X156459524Y-95631961D02*
X156411905Y-95536723D01*
X156411905Y-95536723D02*
X156364286Y-95346247D01*
X156364286Y-95346247D02*
X156364286Y-95203390D01*
X156364286Y-95203390D02*
X156411905Y-95012914D01*
X156411905Y-95012914D02*
X156459524Y-94917676D01*
X156459524Y-94917676D02*
X156554762Y-94822438D01*
X156554762Y-94822438D02*
X156697619Y-94774819D01*
X156697619Y-94774819D02*
X156792857Y-94774819D01*
X156792857Y-94774819D02*
X156935714Y-94822438D01*
X156935714Y-94822438D02*
X156983333Y-94870057D01*
X157364286Y-94870057D02*
X157411905Y-94822438D01*
X157411905Y-94822438D02*
X157507143Y-94774819D01*
X157507143Y-94774819D02*
X157745238Y-94774819D01*
X157745238Y-94774819D02*
X157840476Y-94822438D01*
X157840476Y-94822438D02*
X157888095Y-94870057D01*
X157888095Y-94870057D02*
X157935714Y-94965295D01*
X157935714Y-94965295D02*
X157935714Y-95060533D01*
X157935714Y-95060533D02*
X157888095Y-95203390D01*
X157888095Y-95203390D02*
X157316667Y-95774819D01*
X157316667Y-95774819D02*
X157935714Y-95774819D01*
X168261905Y-106954819D02*
X168261905Y-105954819D01*
X168261905Y-105954819D02*
X168500000Y-105954819D01*
X168500000Y-105954819D02*
X168642857Y-106002438D01*
X168642857Y-106002438D02*
X168738095Y-106097676D01*
X168738095Y-106097676D02*
X168785714Y-106192914D01*
X168785714Y-106192914D02*
X168833333Y-106383390D01*
X168833333Y-106383390D02*
X168833333Y-106526247D01*
X168833333Y-106526247D02*
X168785714Y-106716723D01*
X168785714Y-106716723D02*
X168738095Y-106811961D01*
X168738095Y-106811961D02*
X168642857Y-106907200D01*
X168642857Y-106907200D02*
X168500000Y-106954819D01*
X168500000Y-106954819D02*
X168261905Y-106954819D01*
X169214286Y-106050057D02*
X169261905Y-106002438D01*
X169261905Y-106002438D02*
X169357143Y-105954819D01*
X169357143Y-105954819D02*
X169595238Y-105954819D01*
X169595238Y-105954819D02*
X169690476Y-106002438D01*
X169690476Y-106002438D02*
X169738095Y-106050057D01*
X169738095Y-106050057D02*
X169785714Y-106145295D01*
X169785714Y-106145295D02*
X169785714Y-106240533D01*
X169785714Y-106240533D02*
X169738095Y-106383390D01*
X169738095Y-106383390D02*
X169166667Y-106954819D01*
X169166667Y-106954819D02*
X169785714Y-106954819D01*
X156609580Y-105916666D02*
X156657200Y-105964285D01*
X156657200Y-105964285D02*
X156704819Y-106107142D01*
X156704819Y-106107142D02*
X156704819Y-106202380D01*
X156704819Y-106202380D02*
X156657200Y-106345237D01*
X156657200Y-106345237D02*
X156561961Y-106440475D01*
X156561961Y-106440475D02*
X156466723Y-106488094D01*
X156466723Y-106488094D02*
X156276247Y-106535713D01*
X156276247Y-106535713D02*
X156133390Y-106535713D01*
X156133390Y-106535713D02*
X155942914Y-106488094D01*
X155942914Y-106488094D02*
X155847676Y-106440475D01*
X155847676Y-106440475D02*
X155752438Y-106345237D01*
X155752438Y-106345237D02*
X155704819Y-106202380D01*
X155704819Y-106202380D02*
X155704819Y-106107142D01*
X155704819Y-106107142D02*
X155752438Y-105964285D01*
X155752438Y-105964285D02*
X155800057Y-105916666D01*
X156704819Y-104964285D02*
X156704819Y-105535713D01*
X156704819Y-105249999D02*
X155704819Y-105249999D01*
X155704819Y-105249999D02*
X155847676Y-105345237D01*
X155847676Y-105345237D02*
X155942914Y-105440475D01*
X155942914Y-105440475D02*
X155990533Y-105535713D01*
X167704819Y-106666666D02*
X167228628Y-106999999D01*
X167704819Y-107238094D02*
X166704819Y-107238094D01*
X166704819Y-107238094D02*
X166704819Y-106857142D01*
X166704819Y-106857142D02*
X166752438Y-106761904D01*
X166752438Y-106761904D02*
X166800057Y-106714285D01*
X166800057Y-106714285D02*
X166895295Y-106666666D01*
X166895295Y-106666666D02*
X167038152Y-106666666D01*
X167038152Y-106666666D02*
X167133390Y-106714285D01*
X167133390Y-106714285D02*
X167181009Y-106761904D01*
X167181009Y-106761904D02*
X167228628Y-106857142D01*
X167228628Y-106857142D02*
X167228628Y-107238094D01*
X167133390Y-106095237D02*
X167085771Y-106190475D01*
X167085771Y-106190475D02*
X167038152Y-106238094D01*
X167038152Y-106238094D02*
X166942914Y-106285713D01*
X166942914Y-106285713D02*
X166895295Y-106285713D01*
X166895295Y-106285713D02*
X166800057Y-106238094D01*
X166800057Y-106238094D02*
X166752438Y-106190475D01*
X166752438Y-106190475D02*
X166704819Y-106095237D01*
X166704819Y-106095237D02*
X166704819Y-105904761D01*
X166704819Y-105904761D02*
X166752438Y-105809523D01*
X166752438Y-105809523D02*
X166800057Y-105761904D01*
X166800057Y-105761904D02*
X166895295Y-105714285D01*
X166895295Y-105714285D02*
X166942914Y-105714285D01*
X166942914Y-105714285D02*
X167038152Y-105761904D01*
X167038152Y-105761904D02*
X167085771Y-105809523D01*
X167085771Y-105809523D02*
X167133390Y-105904761D01*
X167133390Y-105904761D02*
X167133390Y-106095237D01*
X167133390Y-106095237D02*
X167181009Y-106190475D01*
X167181009Y-106190475D02*
X167228628Y-106238094D01*
X167228628Y-106238094D02*
X167323866Y-106285713D01*
X167323866Y-106285713D02*
X167514342Y-106285713D01*
X167514342Y-106285713D02*
X167609580Y-106238094D01*
X167609580Y-106238094D02*
X167657200Y-106190475D01*
X167657200Y-106190475D02*
X167704819Y-106095237D01*
X167704819Y-106095237D02*
X167704819Y-105904761D01*
X167704819Y-105904761D02*
X167657200Y-105809523D01*
X167657200Y-105809523D02*
X167609580Y-105761904D01*
X167609580Y-105761904D02*
X167514342Y-105714285D01*
X167514342Y-105714285D02*
X167323866Y-105714285D01*
X167323866Y-105714285D02*
X167228628Y-105761904D01*
X167228628Y-105761904D02*
X167181009Y-105809523D01*
X167181009Y-105809523D02*
X167133390Y-105904761D01*
X151511905Y-99454819D02*
X151511905Y-98454819D01*
X151511905Y-98454819D02*
X151750000Y-98454819D01*
X151750000Y-98454819D02*
X151892857Y-98502438D01*
X151892857Y-98502438D02*
X151988095Y-98597676D01*
X151988095Y-98597676D02*
X152035714Y-98692914D01*
X152035714Y-98692914D02*
X152083333Y-98883390D01*
X152083333Y-98883390D02*
X152083333Y-99026247D01*
X152083333Y-99026247D02*
X152035714Y-99216723D01*
X152035714Y-99216723D02*
X151988095Y-99311961D01*
X151988095Y-99311961D02*
X151892857Y-99407200D01*
X151892857Y-99407200D02*
X151750000Y-99454819D01*
X151750000Y-99454819D02*
X151511905Y-99454819D01*
X153035714Y-99454819D02*
X152464286Y-99454819D01*
X152750000Y-99454819D02*
X152750000Y-98454819D01*
X152750000Y-98454819D02*
X152654762Y-98597676D01*
X152654762Y-98597676D02*
X152559524Y-98692914D01*
X152559524Y-98692914D02*
X152464286Y-98740533D01*
X173239580Y-96642857D02*
X173287200Y-96690476D01*
X173287200Y-96690476D02*
X173334819Y-96833333D01*
X173334819Y-96833333D02*
X173334819Y-96928571D01*
X173334819Y-96928571D02*
X173287200Y-97071428D01*
X173287200Y-97071428D02*
X173191961Y-97166666D01*
X173191961Y-97166666D02*
X173096723Y-97214285D01*
X173096723Y-97214285D02*
X172906247Y-97261904D01*
X172906247Y-97261904D02*
X172763390Y-97261904D01*
X172763390Y-97261904D02*
X172572914Y-97214285D01*
X172572914Y-97214285D02*
X172477676Y-97166666D01*
X172477676Y-97166666D02*
X172382438Y-97071428D01*
X172382438Y-97071428D02*
X172334819Y-96928571D01*
X172334819Y-96928571D02*
X172334819Y-96833333D01*
X172334819Y-96833333D02*
X172382438Y-96690476D01*
X172382438Y-96690476D02*
X172430057Y-96642857D01*
X173334819Y-95690476D02*
X173334819Y-96261904D01*
X173334819Y-95976190D02*
X172334819Y-95976190D01*
X172334819Y-95976190D02*
X172477676Y-96071428D01*
X172477676Y-96071428D02*
X172572914Y-96166666D01*
X172572914Y-96166666D02*
X172620533Y-96261904D01*
X172334819Y-94833333D02*
X172334819Y-95023809D01*
X172334819Y-95023809D02*
X172382438Y-95119047D01*
X172382438Y-95119047D02*
X172430057Y-95166666D01*
X172430057Y-95166666D02*
X172572914Y-95261904D01*
X172572914Y-95261904D02*
X172763390Y-95309523D01*
X172763390Y-95309523D02*
X173144342Y-95309523D01*
X173144342Y-95309523D02*
X173239580Y-95261904D01*
X173239580Y-95261904D02*
X173287200Y-95214285D01*
X173287200Y-95214285D02*
X173334819Y-95119047D01*
X173334819Y-95119047D02*
X173334819Y-94928571D01*
X173334819Y-94928571D02*
X173287200Y-94833333D01*
X173287200Y-94833333D02*
X173239580Y-94785714D01*
X173239580Y-94785714D02*
X173144342Y-94738095D01*
X173144342Y-94738095D02*
X172906247Y-94738095D01*
X172906247Y-94738095D02*
X172811009Y-94785714D01*
X172811009Y-94785714D02*
X172763390Y-94833333D01*
X172763390Y-94833333D02*
X172715771Y-94928571D01*
X172715771Y-94928571D02*
X172715771Y-95119047D01*
X172715771Y-95119047D02*
X172763390Y-95214285D01*
X172763390Y-95214285D02*
X172811009Y-95261904D01*
X172811009Y-95261904D02*
X172906247Y-95309523D01*
X134833333Y-99679580D02*
X134785714Y-99727200D01*
X134785714Y-99727200D02*
X134642857Y-99774819D01*
X134642857Y-99774819D02*
X134547619Y-99774819D01*
X134547619Y-99774819D02*
X134404762Y-99727200D01*
X134404762Y-99727200D02*
X134309524Y-99631961D01*
X134309524Y-99631961D02*
X134261905Y-99536723D01*
X134261905Y-99536723D02*
X134214286Y-99346247D01*
X134214286Y-99346247D02*
X134214286Y-99203390D01*
X134214286Y-99203390D02*
X134261905Y-99012914D01*
X134261905Y-99012914D02*
X134309524Y-98917676D01*
X134309524Y-98917676D02*
X134404762Y-98822438D01*
X134404762Y-98822438D02*
X134547619Y-98774819D01*
X134547619Y-98774819D02*
X134642857Y-98774819D01*
X134642857Y-98774819D02*
X134785714Y-98822438D01*
X134785714Y-98822438D02*
X134833333Y-98870057D01*
X135166667Y-98774819D02*
X135833333Y-98774819D01*
X135833333Y-98774819D02*
X135404762Y-99774819D01*
X146061905Y-88054819D02*
X146061905Y-87054819D01*
X146061905Y-87054819D02*
X146300000Y-87054819D01*
X146300000Y-87054819D02*
X146442857Y-87102438D01*
X146442857Y-87102438D02*
X146538095Y-87197676D01*
X146538095Y-87197676D02*
X146585714Y-87292914D01*
X146585714Y-87292914D02*
X146633333Y-87483390D01*
X146633333Y-87483390D02*
X146633333Y-87626247D01*
X146633333Y-87626247D02*
X146585714Y-87816723D01*
X146585714Y-87816723D02*
X146538095Y-87911961D01*
X146538095Y-87911961D02*
X146442857Y-88007200D01*
X146442857Y-88007200D02*
X146300000Y-88054819D01*
X146300000Y-88054819D02*
X146061905Y-88054819D01*
X147538095Y-87054819D02*
X147061905Y-87054819D01*
X147061905Y-87054819D02*
X147014286Y-87531009D01*
X147014286Y-87531009D02*
X147061905Y-87483390D01*
X147061905Y-87483390D02*
X147157143Y-87435771D01*
X147157143Y-87435771D02*
X147395238Y-87435771D01*
X147395238Y-87435771D02*
X147490476Y-87483390D01*
X147490476Y-87483390D02*
X147538095Y-87531009D01*
X147538095Y-87531009D02*
X147585714Y-87626247D01*
X147585714Y-87626247D02*
X147585714Y-87864342D01*
X147585714Y-87864342D02*
X147538095Y-87959580D01*
X147538095Y-87959580D02*
X147490476Y-88007200D01*
X147490476Y-88007200D02*
X147395238Y-88054819D01*
X147395238Y-88054819D02*
X147157143Y-88054819D01*
X147157143Y-88054819D02*
X147061905Y-88007200D01*
X147061905Y-88007200D02*
X147014286Y-87959580D01*
X127357141Y-85359580D02*
X127309522Y-85407200D01*
X127309522Y-85407200D02*
X127166665Y-85454819D01*
X127166665Y-85454819D02*
X127071427Y-85454819D01*
X127071427Y-85454819D02*
X126928570Y-85407200D01*
X126928570Y-85407200D02*
X126833332Y-85311961D01*
X126833332Y-85311961D02*
X126785713Y-85216723D01*
X126785713Y-85216723D02*
X126738094Y-85026247D01*
X126738094Y-85026247D02*
X126738094Y-84883390D01*
X126738094Y-84883390D02*
X126785713Y-84692914D01*
X126785713Y-84692914D02*
X126833332Y-84597676D01*
X126833332Y-84597676D02*
X126928570Y-84502438D01*
X126928570Y-84502438D02*
X127071427Y-84454819D01*
X127071427Y-84454819D02*
X127166665Y-84454819D01*
X127166665Y-84454819D02*
X127309522Y-84502438D01*
X127309522Y-84502438D02*
X127357141Y-84550057D01*
X128309522Y-85454819D02*
X127738094Y-85454819D01*
X128023808Y-85454819D02*
X128023808Y-84454819D01*
X128023808Y-84454819D02*
X127928570Y-84597676D01*
X127928570Y-84597676D02*
X127833332Y-84692914D01*
X127833332Y-84692914D02*
X127738094Y-84740533D01*
X128642856Y-84454819D02*
X129261903Y-84454819D01*
X129261903Y-84454819D02*
X128928570Y-84835771D01*
X128928570Y-84835771D02*
X129071427Y-84835771D01*
X129071427Y-84835771D02*
X129166665Y-84883390D01*
X129166665Y-84883390D02*
X129214284Y-84931009D01*
X129214284Y-84931009D02*
X129261903Y-85026247D01*
X129261903Y-85026247D02*
X129261903Y-85264342D01*
X129261903Y-85264342D02*
X129214284Y-85359580D01*
X129214284Y-85359580D02*
X129166665Y-85407200D01*
X129166665Y-85407200D02*
X129071427Y-85454819D01*
X129071427Y-85454819D02*
X128785713Y-85454819D01*
X128785713Y-85454819D02*
X128690475Y-85407200D01*
X128690475Y-85407200D02*
X128642856Y-85359580D01*
X123789580Y-104666666D02*
X123837200Y-104714285D01*
X123837200Y-104714285D02*
X123884819Y-104857142D01*
X123884819Y-104857142D02*
X123884819Y-104952380D01*
X123884819Y-104952380D02*
X123837200Y-105095237D01*
X123837200Y-105095237D02*
X123741961Y-105190475D01*
X123741961Y-105190475D02*
X123646723Y-105238094D01*
X123646723Y-105238094D02*
X123456247Y-105285713D01*
X123456247Y-105285713D02*
X123313390Y-105285713D01*
X123313390Y-105285713D02*
X123122914Y-105238094D01*
X123122914Y-105238094D02*
X123027676Y-105190475D01*
X123027676Y-105190475D02*
X122932438Y-105095237D01*
X122932438Y-105095237D02*
X122884819Y-104952380D01*
X122884819Y-104952380D02*
X122884819Y-104857142D01*
X122884819Y-104857142D02*
X122932438Y-104714285D01*
X122932438Y-104714285D02*
X122980057Y-104666666D01*
X122884819Y-104333332D02*
X122884819Y-103714285D01*
X122884819Y-103714285D02*
X123265771Y-104047618D01*
X123265771Y-104047618D02*
X123265771Y-103904761D01*
X123265771Y-103904761D02*
X123313390Y-103809523D01*
X123313390Y-103809523D02*
X123361009Y-103761904D01*
X123361009Y-103761904D02*
X123456247Y-103714285D01*
X123456247Y-103714285D02*
X123694342Y-103714285D01*
X123694342Y-103714285D02*
X123789580Y-103761904D01*
X123789580Y-103761904D02*
X123837200Y-103809523D01*
X123837200Y-103809523D02*
X123884819Y-103904761D01*
X123884819Y-103904761D02*
X123884819Y-104190475D01*
X123884819Y-104190475D02*
X123837200Y-104285713D01*
X123837200Y-104285713D02*
X123789580Y-104333332D01*
X126583333Y-98609580D02*
X126535714Y-98657200D01*
X126535714Y-98657200D02*
X126392857Y-98704819D01*
X126392857Y-98704819D02*
X126297619Y-98704819D01*
X126297619Y-98704819D02*
X126154762Y-98657200D01*
X126154762Y-98657200D02*
X126059524Y-98561961D01*
X126059524Y-98561961D02*
X126011905Y-98466723D01*
X126011905Y-98466723D02*
X125964286Y-98276247D01*
X125964286Y-98276247D02*
X125964286Y-98133390D01*
X125964286Y-98133390D02*
X126011905Y-97942914D01*
X126011905Y-97942914D02*
X126059524Y-97847676D01*
X126059524Y-97847676D02*
X126154762Y-97752438D01*
X126154762Y-97752438D02*
X126297619Y-97704819D01*
X126297619Y-97704819D02*
X126392857Y-97704819D01*
X126392857Y-97704819D02*
X126535714Y-97752438D01*
X126535714Y-97752438D02*
X126583333Y-97800057D01*
X127059524Y-98704819D02*
X127250000Y-98704819D01*
X127250000Y-98704819D02*
X127345238Y-98657200D01*
X127345238Y-98657200D02*
X127392857Y-98609580D01*
X127392857Y-98609580D02*
X127488095Y-98466723D01*
X127488095Y-98466723D02*
X127535714Y-98276247D01*
X127535714Y-98276247D02*
X127535714Y-97895295D01*
X127535714Y-97895295D02*
X127488095Y-97800057D01*
X127488095Y-97800057D02*
X127440476Y-97752438D01*
X127440476Y-97752438D02*
X127345238Y-97704819D01*
X127345238Y-97704819D02*
X127154762Y-97704819D01*
X127154762Y-97704819D02*
X127059524Y-97752438D01*
X127059524Y-97752438D02*
X127011905Y-97800057D01*
X127011905Y-97800057D02*
X126964286Y-97895295D01*
X126964286Y-97895295D02*
X126964286Y-98133390D01*
X126964286Y-98133390D02*
X127011905Y-98228628D01*
X127011905Y-98228628D02*
X127059524Y-98276247D01*
X127059524Y-98276247D02*
X127154762Y-98323866D01*
X127154762Y-98323866D02*
X127345238Y-98323866D01*
X127345238Y-98323866D02*
X127440476Y-98276247D01*
X127440476Y-98276247D02*
X127488095Y-98228628D01*
X127488095Y-98228628D02*
X127535714Y-98133390D01*
X152109580Y-86842857D02*
X152157200Y-86890476D01*
X152157200Y-86890476D02*
X152204819Y-87033333D01*
X152204819Y-87033333D02*
X152204819Y-87128571D01*
X152204819Y-87128571D02*
X152157200Y-87271428D01*
X152157200Y-87271428D02*
X152061961Y-87366666D01*
X152061961Y-87366666D02*
X151966723Y-87414285D01*
X151966723Y-87414285D02*
X151776247Y-87461904D01*
X151776247Y-87461904D02*
X151633390Y-87461904D01*
X151633390Y-87461904D02*
X151442914Y-87414285D01*
X151442914Y-87414285D02*
X151347676Y-87366666D01*
X151347676Y-87366666D02*
X151252438Y-87271428D01*
X151252438Y-87271428D02*
X151204819Y-87128571D01*
X151204819Y-87128571D02*
X151204819Y-87033333D01*
X151204819Y-87033333D02*
X151252438Y-86890476D01*
X151252438Y-86890476D02*
X151300057Y-86842857D01*
X152204819Y-85890476D02*
X152204819Y-86461904D01*
X152204819Y-86176190D02*
X151204819Y-86176190D01*
X151204819Y-86176190D02*
X151347676Y-86271428D01*
X151347676Y-86271428D02*
X151442914Y-86366666D01*
X151442914Y-86366666D02*
X151490533Y-86461904D01*
X152204819Y-84938095D02*
X152204819Y-85509523D01*
X152204819Y-85223809D02*
X151204819Y-85223809D01*
X151204819Y-85223809D02*
X151347676Y-85319047D01*
X151347676Y-85319047D02*
X151442914Y-85414285D01*
X151442914Y-85414285D02*
X151490533Y-85509523D01*
X163916666Y-112454819D02*
X163916666Y-113169104D01*
X163916666Y-113169104D02*
X163869047Y-113311961D01*
X163869047Y-113311961D02*
X163773809Y-113407200D01*
X163773809Y-113407200D02*
X163630952Y-113454819D01*
X163630952Y-113454819D02*
X163535714Y-113454819D01*
X164821428Y-112788152D02*
X164821428Y-113454819D01*
X164583333Y-112407200D02*
X164345238Y-113121485D01*
X164345238Y-113121485D02*
X164964285Y-113121485D01*
X146104761Y-82750057D02*
X146009523Y-82702438D01*
X146009523Y-82702438D02*
X145914285Y-82607200D01*
X145914285Y-82607200D02*
X145771428Y-82464342D01*
X145771428Y-82464342D02*
X145676190Y-82416723D01*
X145676190Y-82416723D02*
X145580952Y-82416723D01*
X145628571Y-82654819D02*
X145533333Y-82607200D01*
X145533333Y-82607200D02*
X145438095Y-82511961D01*
X145438095Y-82511961D02*
X145390476Y-82321485D01*
X145390476Y-82321485D02*
X145390476Y-81988152D01*
X145390476Y-81988152D02*
X145438095Y-81797676D01*
X145438095Y-81797676D02*
X145533333Y-81702438D01*
X145533333Y-81702438D02*
X145628571Y-81654819D01*
X145628571Y-81654819D02*
X145819047Y-81654819D01*
X145819047Y-81654819D02*
X145914285Y-81702438D01*
X145914285Y-81702438D02*
X146009523Y-81797676D01*
X146009523Y-81797676D02*
X146057142Y-81988152D01*
X146057142Y-81988152D02*
X146057142Y-82321485D01*
X146057142Y-82321485D02*
X146009523Y-82511961D01*
X146009523Y-82511961D02*
X145914285Y-82607200D01*
X145914285Y-82607200D02*
X145819047Y-82654819D01*
X145819047Y-82654819D02*
X145628571Y-82654819D01*
X147009523Y-82654819D02*
X146438095Y-82654819D01*
X146723809Y-82654819D02*
X146723809Y-81654819D01*
X146723809Y-81654819D02*
X146628571Y-81797676D01*
X146628571Y-81797676D02*
X146533333Y-81892914D01*
X146533333Y-81892914D02*
X146438095Y-81940533D01*
X122233333Y-84854819D02*
X121900000Y-84378628D01*
X121661905Y-84854819D02*
X121661905Y-83854819D01*
X121661905Y-83854819D02*
X122042857Y-83854819D01*
X122042857Y-83854819D02*
X122138095Y-83902438D01*
X122138095Y-83902438D02*
X122185714Y-83950057D01*
X122185714Y-83950057D02*
X122233333Y-84045295D01*
X122233333Y-84045295D02*
X122233333Y-84188152D01*
X122233333Y-84188152D02*
X122185714Y-84283390D01*
X122185714Y-84283390D02*
X122138095Y-84331009D01*
X122138095Y-84331009D02*
X122042857Y-84378628D01*
X122042857Y-84378628D02*
X121661905Y-84378628D01*
X123138095Y-83854819D02*
X122661905Y-83854819D01*
X122661905Y-83854819D02*
X122614286Y-84331009D01*
X122614286Y-84331009D02*
X122661905Y-84283390D01*
X122661905Y-84283390D02*
X122757143Y-84235771D01*
X122757143Y-84235771D02*
X122995238Y-84235771D01*
X122995238Y-84235771D02*
X123090476Y-84283390D01*
X123090476Y-84283390D02*
X123138095Y-84331009D01*
X123138095Y-84331009D02*
X123185714Y-84426247D01*
X123185714Y-84426247D02*
X123185714Y-84664342D01*
X123185714Y-84664342D02*
X123138095Y-84759580D01*
X123138095Y-84759580D02*
X123090476Y-84807200D01*
X123090476Y-84807200D02*
X122995238Y-84854819D01*
X122995238Y-84854819D02*
X122757143Y-84854819D01*
X122757143Y-84854819D02*
X122661905Y-84807200D01*
X122661905Y-84807200D02*
X122614286Y-84759580D01*
X134833333Y-96979580D02*
X134785714Y-97027200D01*
X134785714Y-97027200D02*
X134642857Y-97074819D01*
X134642857Y-97074819D02*
X134547619Y-97074819D01*
X134547619Y-97074819D02*
X134404762Y-97027200D01*
X134404762Y-97027200D02*
X134309524Y-96931961D01*
X134309524Y-96931961D02*
X134261905Y-96836723D01*
X134261905Y-96836723D02*
X134214286Y-96646247D01*
X134214286Y-96646247D02*
X134214286Y-96503390D01*
X134214286Y-96503390D02*
X134261905Y-96312914D01*
X134261905Y-96312914D02*
X134309524Y-96217676D01*
X134309524Y-96217676D02*
X134404762Y-96122438D01*
X134404762Y-96122438D02*
X134547619Y-96074819D01*
X134547619Y-96074819D02*
X134642857Y-96074819D01*
X134642857Y-96074819D02*
X134785714Y-96122438D01*
X134785714Y-96122438D02*
X134833333Y-96170057D01*
X135404762Y-96503390D02*
X135309524Y-96455771D01*
X135309524Y-96455771D02*
X135261905Y-96408152D01*
X135261905Y-96408152D02*
X135214286Y-96312914D01*
X135214286Y-96312914D02*
X135214286Y-96265295D01*
X135214286Y-96265295D02*
X135261905Y-96170057D01*
X135261905Y-96170057D02*
X135309524Y-96122438D01*
X135309524Y-96122438D02*
X135404762Y-96074819D01*
X135404762Y-96074819D02*
X135595238Y-96074819D01*
X135595238Y-96074819D02*
X135690476Y-96122438D01*
X135690476Y-96122438D02*
X135738095Y-96170057D01*
X135738095Y-96170057D02*
X135785714Y-96265295D01*
X135785714Y-96265295D02*
X135785714Y-96312914D01*
X135785714Y-96312914D02*
X135738095Y-96408152D01*
X135738095Y-96408152D02*
X135690476Y-96455771D01*
X135690476Y-96455771D02*
X135595238Y-96503390D01*
X135595238Y-96503390D02*
X135404762Y-96503390D01*
X135404762Y-96503390D02*
X135309524Y-96551009D01*
X135309524Y-96551009D02*
X135261905Y-96598628D01*
X135261905Y-96598628D02*
X135214286Y-96693866D01*
X135214286Y-96693866D02*
X135214286Y-96884342D01*
X135214286Y-96884342D02*
X135261905Y-96979580D01*
X135261905Y-96979580D02*
X135309524Y-97027200D01*
X135309524Y-97027200D02*
X135404762Y-97074819D01*
X135404762Y-97074819D02*
X135595238Y-97074819D01*
X135595238Y-97074819D02*
X135690476Y-97027200D01*
X135690476Y-97027200D02*
X135738095Y-96979580D01*
X135738095Y-96979580D02*
X135785714Y-96884342D01*
X135785714Y-96884342D02*
X135785714Y-96693866D01*
X135785714Y-96693866D02*
X135738095Y-96598628D01*
X135738095Y-96598628D02*
X135690476Y-96551009D01*
X135690476Y-96551009D02*
X135595238Y-96503390D01*
X167988095Y-91854819D02*
X167988095Y-92664342D01*
X167988095Y-92664342D02*
X168035714Y-92759580D01*
X168035714Y-92759580D02*
X168083333Y-92807200D01*
X168083333Y-92807200D02*
X168178571Y-92854819D01*
X168178571Y-92854819D02*
X168369047Y-92854819D01*
X168369047Y-92854819D02*
X168464285Y-92807200D01*
X168464285Y-92807200D02*
X168511904Y-92759580D01*
X168511904Y-92759580D02*
X168559523Y-92664342D01*
X168559523Y-92664342D02*
X168559523Y-91854819D01*
X169559523Y-92854819D02*
X168988095Y-92854819D01*
X169273809Y-92854819D02*
X169273809Y-91854819D01*
X169273809Y-91854819D02*
X169178571Y-91997676D01*
X169178571Y-91997676D02*
X169083333Y-92092914D01*
X169083333Y-92092914D02*
X168988095Y-92140533D01*
X123833333Y-87654818D02*
X123500000Y-87178627D01*
X123261905Y-87654818D02*
X123261905Y-86654818D01*
X123261905Y-86654818D02*
X123642857Y-86654818D01*
X123642857Y-86654818D02*
X123738095Y-86702437D01*
X123738095Y-86702437D02*
X123785714Y-86750056D01*
X123785714Y-86750056D02*
X123833333Y-86845294D01*
X123833333Y-86845294D02*
X123833333Y-86988151D01*
X123833333Y-86988151D02*
X123785714Y-87083389D01*
X123785714Y-87083389D02*
X123738095Y-87131008D01*
X123738095Y-87131008D02*
X123642857Y-87178627D01*
X123642857Y-87178627D02*
X123261905Y-87178627D01*
X124690476Y-86654818D02*
X124500000Y-86654818D01*
X124500000Y-86654818D02*
X124404762Y-86702437D01*
X124404762Y-86702437D02*
X124357143Y-86750056D01*
X124357143Y-86750056D02*
X124261905Y-86892913D01*
X124261905Y-86892913D02*
X124214286Y-87083389D01*
X124214286Y-87083389D02*
X124214286Y-87464341D01*
X124214286Y-87464341D02*
X124261905Y-87559579D01*
X124261905Y-87559579D02*
X124309524Y-87607199D01*
X124309524Y-87607199D02*
X124404762Y-87654818D01*
X124404762Y-87654818D02*
X124595238Y-87654818D01*
X124595238Y-87654818D02*
X124690476Y-87607199D01*
X124690476Y-87607199D02*
X124738095Y-87559579D01*
X124738095Y-87559579D02*
X124785714Y-87464341D01*
X124785714Y-87464341D02*
X124785714Y-87226246D01*
X124785714Y-87226246D02*
X124738095Y-87131008D01*
X124738095Y-87131008D02*
X124690476Y-87083389D01*
X124690476Y-87083389D02*
X124595238Y-87035770D01*
X124595238Y-87035770D02*
X124404762Y-87035770D01*
X124404762Y-87035770D02*
X124309524Y-87083389D01*
X124309524Y-87083389D02*
X124261905Y-87131008D01*
X124261905Y-87131008D02*
X124214286Y-87226246D01*
X180566666Y-97454819D02*
X180566666Y-98169104D01*
X180566666Y-98169104D02*
X180519047Y-98311961D01*
X180519047Y-98311961D02*
X180423809Y-98407200D01*
X180423809Y-98407200D02*
X180280952Y-98454819D01*
X180280952Y-98454819D02*
X180185714Y-98454819D01*
X180995238Y-97550057D02*
X181042857Y-97502438D01*
X181042857Y-97502438D02*
X181138095Y-97454819D01*
X181138095Y-97454819D02*
X181376190Y-97454819D01*
X181376190Y-97454819D02*
X181471428Y-97502438D01*
X181471428Y-97502438D02*
X181519047Y-97550057D01*
X181519047Y-97550057D02*
X181566666Y-97645295D01*
X181566666Y-97645295D02*
X181566666Y-97740533D01*
X181566666Y-97740533D02*
X181519047Y-97883390D01*
X181519047Y-97883390D02*
X180947619Y-98454819D01*
X180947619Y-98454819D02*
X181566666Y-98454819D01*
X134261905Y-104054819D02*
X134261905Y-103054819D01*
X134261905Y-103054819D02*
X134500000Y-103054819D01*
X134500000Y-103054819D02*
X134642857Y-103102438D01*
X134642857Y-103102438D02*
X134738095Y-103197676D01*
X134738095Y-103197676D02*
X134785714Y-103292914D01*
X134785714Y-103292914D02*
X134833333Y-103483390D01*
X134833333Y-103483390D02*
X134833333Y-103626247D01*
X134833333Y-103626247D02*
X134785714Y-103816723D01*
X134785714Y-103816723D02*
X134738095Y-103911961D01*
X134738095Y-103911961D02*
X134642857Y-104007200D01*
X134642857Y-104007200D02*
X134500000Y-104054819D01*
X134500000Y-104054819D02*
X134261905Y-104054819D01*
X135690476Y-103054819D02*
X135500000Y-103054819D01*
X135500000Y-103054819D02*
X135404762Y-103102438D01*
X135404762Y-103102438D02*
X135357143Y-103150057D01*
X135357143Y-103150057D02*
X135261905Y-103292914D01*
X135261905Y-103292914D02*
X135214286Y-103483390D01*
X135214286Y-103483390D02*
X135214286Y-103864342D01*
X135214286Y-103864342D02*
X135261905Y-103959580D01*
X135261905Y-103959580D02*
X135309524Y-104007200D01*
X135309524Y-104007200D02*
X135404762Y-104054819D01*
X135404762Y-104054819D02*
X135595238Y-104054819D01*
X135595238Y-104054819D02*
X135690476Y-104007200D01*
X135690476Y-104007200D02*
X135738095Y-103959580D01*
X135738095Y-103959580D02*
X135785714Y-103864342D01*
X135785714Y-103864342D02*
X135785714Y-103626247D01*
X135785714Y-103626247D02*
X135738095Y-103531009D01*
X135738095Y-103531009D02*
X135690476Y-103483390D01*
X135690476Y-103483390D02*
X135595238Y-103435771D01*
X135595238Y-103435771D02*
X135404762Y-103435771D01*
X135404762Y-103435771D02*
X135309524Y-103483390D01*
X135309524Y-103483390D02*
X135261905Y-103531009D01*
X135261905Y-103531009D02*
X135214286Y-103626247D01*
X126539580Y-104666666D02*
X126587200Y-104714285D01*
X126587200Y-104714285D02*
X126634819Y-104857142D01*
X126634819Y-104857142D02*
X126634819Y-104952380D01*
X126634819Y-104952380D02*
X126587200Y-105095237D01*
X126587200Y-105095237D02*
X126491961Y-105190475D01*
X126491961Y-105190475D02*
X126396723Y-105238094D01*
X126396723Y-105238094D02*
X126206247Y-105285713D01*
X126206247Y-105285713D02*
X126063390Y-105285713D01*
X126063390Y-105285713D02*
X125872914Y-105238094D01*
X125872914Y-105238094D02*
X125777676Y-105190475D01*
X125777676Y-105190475D02*
X125682438Y-105095237D01*
X125682438Y-105095237D02*
X125634819Y-104952380D01*
X125634819Y-104952380D02*
X125634819Y-104857142D01*
X125634819Y-104857142D02*
X125682438Y-104714285D01*
X125682438Y-104714285D02*
X125730057Y-104666666D01*
X125968152Y-103809523D02*
X126634819Y-103809523D01*
X125587200Y-104047618D02*
X126301485Y-104285713D01*
X126301485Y-104285713D02*
X126301485Y-103666666D01*
X125607142Y-95859580D02*
X125559523Y-95907200D01*
X125559523Y-95907200D02*
X125416666Y-95954819D01*
X125416666Y-95954819D02*
X125321428Y-95954819D01*
X125321428Y-95954819D02*
X125178571Y-95907200D01*
X125178571Y-95907200D02*
X125083333Y-95811961D01*
X125083333Y-95811961D02*
X125035714Y-95716723D01*
X125035714Y-95716723D02*
X124988095Y-95526247D01*
X124988095Y-95526247D02*
X124988095Y-95383390D01*
X124988095Y-95383390D02*
X125035714Y-95192914D01*
X125035714Y-95192914D02*
X125083333Y-95097676D01*
X125083333Y-95097676D02*
X125178571Y-95002438D01*
X125178571Y-95002438D02*
X125321428Y-94954819D01*
X125321428Y-94954819D02*
X125416666Y-94954819D01*
X125416666Y-94954819D02*
X125559523Y-95002438D01*
X125559523Y-95002438D02*
X125607142Y-95050057D01*
X126559523Y-95954819D02*
X125988095Y-95954819D01*
X126273809Y-95954819D02*
X126273809Y-94954819D01*
X126273809Y-94954819D02*
X126178571Y-95097676D01*
X126178571Y-95097676D02*
X126083333Y-95192914D01*
X126083333Y-95192914D02*
X125988095Y-95240533D01*
X127178571Y-94954819D02*
X127273809Y-94954819D01*
X127273809Y-94954819D02*
X127369047Y-95002438D01*
X127369047Y-95002438D02*
X127416666Y-95050057D01*
X127416666Y-95050057D02*
X127464285Y-95145295D01*
X127464285Y-95145295D02*
X127511904Y-95335771D01*
X127511904Y-95335771D02*
X127511904Y-95573866D01*
X127511904Y-95573866D02*
X127464285Y-95764342D01*
X127464285Y-95764342D02*
X127416666Y-95859580D01*
X127416666Y-95859580D02*
X127369047Y-95907200D01*
X127369047Y-95907200D02*
X127273809Y-95954819D01*
X127273809Y-95954819D02*
X127178571Y-95954819D01*
X127178571Y-95954819D02*
X127083333Y-95907200D01*
X127083333Y-95907200D02*
X127035714Y-95859580D01*
X127035714Y-95859580D02*
X126988095Y-95764342D01*
X126988095Y-95764342D02*
X126940476Y-95573866D01*
X126940476Y-95573866D02*
X126940476Y-95335771D01*
X126940476Y-95335771D02*
X126988095Y-95145295D01*
X126988095Y-95145295D02*
X127035714Y-95050057D01*
X127035714Y-95050057D02*
X127083333Y-95002438D01*
X127083333Y-95002438D02*
X127178571Y-94954819D01*
X127357141Y-87859580D02*
X127309522Y-87907200D01*
X127309522Y-87907200D02*
X127166665Y-87954819D01*
X127166665Y-87954819D02*
X127071427Y-87954819D01*
X127071427Y-87954819D02*
X126928570Y-87907200D01*
X126928570Y-87907200D02*
X126833332Y-87811961D01*
X126833332Y-87811961D02*
X126785713Y-87716723D01*
X126785713Y-87716723D02*
X126738094Y-87526247D01*
X126738094Y-87526247D02*
X126738094Y-87383390D01*
X126738094Y-87383390D02*
X126785713Y-87192914D01*
X126785713Y-87192914D02*
X126833332Y-87097676D01*
X126833332Y-87097676D02*
X126928570Y-87002438D01*
X126928570Y-87002438D02*
X127071427Y-86954819D01*
X127071427Y-86954819D02*
X127166665Y-86954819D01*
X127166665Y-86954819D02*
X127309522Y-87002438D01*
X127309522Y-87002438D02*
X127357141Y-87050057D01*
X128309522Y-87954819D02*
X127738094Y-87954819D01*
X128023808Y-87954819D02*
X128023808Y-86954819D01*
X128023808Y-86954819D02*
X127928570Y-87097676D01*
X127928570Y-87097676D02*
X127833332Y-87192914D01*
X127833332Y-87192914D02*
X127738094Y-87240533D01*
X129166665Y-87288152D02*
X129166665Y-87954819D01*
X128928570Y-86907200D02*
X128690475Y-87621485D01*
X128690475Y-87621485D02*
X129309522Y-87621485D01*
X129289580Y-104666666D02*
X129337200Y-104714285D01*
X129337200Y-104714285D02*
X129384819Y-104857142D01*
X129384819Y-104857142D02*
X129384819Y-104952380D01*
X129384819Y-104952380D02*
X129337200Y-105095237D01*
X129337200Y-105095237D02*
X129241961Y-105190475D01*
X129241961Y-105190475D02*
X129146723Y-105238094D01*
X129146723Y-105238094D02*
X128956247Y-105285713D01*
X128956247Y-105285713D02*
X128813390Y-105285713D01*
X128813390Y-105285713D02*
X128622914Y-105238094D01*
X128622914Y-105238094D02*
X128527676Y-105190475D01*
X128527676Y-105190475D02*
X128432438Y-105095237D01*
X128432438Y-105095237D02*
X128384819Y-104952380D01*
X128384819Y-104952380D02*
X128384819Y-104857142D01*
X128384819Y-104857142D02*
X128432438Y-104714285D01*
X128432438Y-104714285D02*
X128480057Y-104666666D01*
X128384819Y-103761904D02*
X128384819Y-104238094D01*
X128384819Y-104238094D02*
X128861009Y-104285713D01*
X128861009Y-104285713D02*
X128813390Y-104238094D01*
X128813390Y-104238094D02*
X128765771Y-104142856D01*
X128765771Y-104142856D02*
X128765771Y-103904761D01*
X128765771Y-103904761D02*
X128813390Y-103809523D01*
X128813390Y-103809523D02*
X128861009Y-103761904D01*
X128861009Y-103761904D02*
X128956247Y-103714285D01*
X128956247Y-103714285D02*
X129194342Y-103714285D01*
X129194342Y-103714285D02*
X129289580Y-103761904D01*
X129289580Y-103761904D02*
X129337200Y-103809523D01*
X129337200Y-103809523D02*
X129384819Y-103904761D01*
X129384819Y-103904761D02*
X129384819Y-104142856D01*
X129384819Y-104142856D02*
X129337200Y-104238094D01*
X129337200Y-104238094D02*
X129289580Y-104285713D01*
X156109580Y-86842857D02*
X156157200Y-86890476D01*
X156157200Y-86890476D02*
X156204819Y-87033333D01*
X156204819Y-87033333D02*
X156204819Y-87128571D01*
X156204819Y-87128571D02*
X156157200Y-87271428D01*
X156157200Y-87271428D02*
X156061961Y-87366666D01*
X156061961Y-87366666D02*
X155966723Y-87414285D01*
X155966723Y-87414285D02*
X155776247Y-87461904D01*
X155776247Y-87461904D02*
X155633390Y-87461904D01*
X155633390Y-87461904D02*
X155442914Y-87414285D01*
X155442914Y-87414285D02*
X155347676Y-87366666D01*
X155347676Y-87366666D02*
X155252438Y-87271428D01*
X155252438Y-87271428D02*
X155204819Y-87128571D01*
X155204819Y-87128571D02*
X155204819Y-87033333D01*
X155204819Y-87033333D02*
X155252438Y-86890476D01*
X155252438Y-86890476D02*
X155300057Y-86842857D01*
X156204819Y-85890476D02*
X156204819Y-86461904D01*
X156204819Y-86176190D02*
X155204819Y-86176190D01*
X155204819Y-86176190D02*
X155347676Y-86271428D01*
X155347676Y-86271428D02*
X155442914Y-86366666D01*
X155442914Y-86366666D02*
X155490533Y-86461904D01*
X155300057Y-85509523D02*
X155252438Y-85461904D01*
X155252438Y-85461904D02*
X155204819Y-85366666D01*
X155204819Y-85366666D02*
X155204819Y-85128571D01*
X155204819Y-85128571D02*
X155252438Y-85033333D01*
X155252438Y-85033333D02*
X155300057Y-84985714D01*
X155300057Y-84985714D02*
X155395295Y-84938095D01*
X155395295Y-84938095D02*
X155490533Y-84938095D01*
X155490533Y-84938095D02*
X155633390Y-84985714D01*
X155633390Y-84985714D02*
X156204819Y-85557142D01*
X156204819Y-85557142D02*
X156204819Y-84938095D01*
X146061905Y-85554819D02*
X146061905Y-84554819D01*
X146061905Y-84554819D02*
X146300000Y-84554819D01*
X146300000Y-84554819D02*
X146442857Y-84602438D01*
X146442857Y-84602438D02*
X146538095Y-84697676D01*
X146538095Y-84697676D02*
X146585714Y-84792914D01*
X146585714Y-84792914D02*
X146633333Y-84983390D01*
X146633333Y-84983390D02*
X146633333Y-85126247D01*
X146633333Y-85126247D02*
X146585714Y-85316723D01*
X146585714Y-85316723D02*
X146538095Y-85411961D01*
X146538095Y-85411961D02*
X146442857Y-85507200D01*
X146442857Y-85507200D02*
X146300000Y-85554819D01*
X146300000Y-85554819D02*
X146061905Y-85554819D01*
X147490476Y-84888152D02*
X147490476Y-85554819D01*
X147252381Y-84507200D02*
X147014286Y-85221485D01*
X147014286Y-85221485D02*
X147633333Y-85221485D01*
X155333333Y-84404819D02*
X154857143Y-84404819D01*
X154857143Y-84404819D02*
X154857143Y-83404819D01*
X156190476Y-84404819D02*
X155619048Y-84404819D01*
X155904762Y-84404819D02*
X155904762Y-83404819D01*
X155904762Y-83404819D02*
X155809524Y-83547676D01*
X155809524Y-83547676D02*
X155714286Y-83642914D01*
X155714286Y-83642914D02*
X155619048Y-83690533D01*
X132039580Y-104666666D02*
X132087200Y-104714285D01*
X132087200Y-104714285D02*
X132134819Y-104857142D01*
X132134819Y-104857142D02*
X132134819Y-104952380D01*
X132134819Y-104952380D02*
X132087200Y-105095237D01*
X132087200Y-105095237D02*
X131991961Y-105190475D01*
X131991961Y-105190475D02*
X131896723Y-105238094D01*
X131896723Y-105238094D02*
X131706247Y-105285713D01*
X131706247Y-105285713D02*
X131563390Y-105285713D01*
X131563390Y-105285713D02*
X131372914Y-105238094D01*
X131372914Y-105238094D02*
X131277676Y-105190475D01*
X131277676Y-105190475D02*
X131182438Y-105095237D01*
X131182438Y-105095237D02*
X131134819Y-104952380D01*
X131134819Y-104952380D02*
X131134819Y-104857142D01*
X131134819Y-104857142D02*
X131182438Y-104714285D01*
X131182438Y-104714285D02*
X131230057Y-104666666D01*
X131134819Y-103809523D02*
X131134819Y-103999999D01*
X131134819Y-103999999D02*
X131182438Y-104095237D01*
X131182438Y-104095237D02*
X131230057Y-104142856D01*
X131230057Y-104142856D02*
X131372914Y-104238094D01*
X131372914Y-104238094D02*
X131563390Y-104285713D01*
X131563390Y-104285713D02*
X131944342Y-104285713D01*
X131944342Y-104285713D02*
X132039580Y-104238094D01*
X132039580Y-104238094D02*
X132087200Y-104190475D01*
X132087200Y-104190475D02*
X132134819Y-104095237D01*
X132134819Y-104095237D02*
X132134819Y-103904761D01*
X132134819Y-103904761D02*
X132087200Y-103809523D01*
X132087200Y-103809523D02*
X132039580Y-103761904D01*
X132039580Y-103761904D02*
X131944342Y-103714285D01*
X131944342Y-103714285D02*
X131706247Y-103714285D01*
X131706247Y-103714285D02*
X131611009Y-103761904D01*
X131611009Y-103761904D02*
X131563390Y-103809523D01*
X131563390Y-103809523D02*
X131515771Y-103904761D01*
X131515771Y-103904761D02*
X131515771Y-104095237D01*
X131515771Y-104095237D02*
X131563390Y-104190475D01*
X131563390Y-104190475D02*
X131611009Y-104238094D01*
X131611009Y-104238094D02*
X131706247Y-104285713D01*
%TO.C,R7*%
D13*
X163522500Y-106754724D02*
X163522500Y-106245276D01*
X162477500Y-106754724D02*
X162477500Y-106245276D01*
%TO.C,U3*%
X168550000Y-98477499D02*
X168310000Y-98147499D01*
X168790000Y-98147499D01*
X168550000Y-98477499D01*
G36*
X168550000Y-98477499D02*
G01*
X168310000Y-98147499D01*
X168790000Y-98147499D01*
X168550000Y-98477499D01*
G37*
X170910000Y-101547499D02*
X169090000Y-101547499D01*
X170910000Y-101497499D02*
X170910000Y-101547499D01*
X170910000Y-99597499D02*
X170910000Y-100377499D01*
X170910000Y-98427499D02*
X170910000Y-98477499D01*
X169090000Y-101547499D02*
X169090000Y-101497499D01*
X169090000Y-98477499D02*
X169090000Y-98427499D01*
X169090000Y-98427499D02*
X170910000Y-98427499D01*
%TO.C,R4*%
X165745276Y-103772500D02*
X166254724Y-103772500D01*
X165745276Y-102727500D02*
X166254724Y-102727500D01*
%TO.C,R3*%
X160272500Y-106004724D02*
X160272500Y-105495276D01*
X159227500Y-106004724D02*
X159227500Y-105495276D01*
%TO.C,U2*%
X158510000Y-100300000D02*
X158840000Y-100060000D01*
X158840000Y-100540000D01*
X158510000Y-100300000D01*
G36*
X158840000Y-100540000D02*
G01*
X158510000Y-100300000D01*
X158840000Y-100060000D01*
X158840000Y-100540000D01*
G37*
X158560000Y-102660000D02*
X158510000Y-102660000D01*
X158560000Y-100840000D02*
X158560000Y-102660000D01*
X158510000Y-100840000D02*
X158560000Y-100840000D01*
X157390000Y-102660000D02*
X156610000Y-102660000D01*
X155490000Y-102660000D02*
X155440000Y-102660000D01*
X155440000Y-102660000D02*
X155440000Y-100840000D01*
X155440000Y-100840000D02*
X155490000Y-100840000D01*
D14*
%TO.C,G\u002A\u002A\u002A*%
G36*
X173347961Y-107275626D02*
G01*
X173500738Y-107451843D01*
X173500738Y-107699539D01*
X173500738Y-107947235D01*
X173355354Y-108115453D01*
X173298581Y-108182446D01*
X173252188Y-108239674D01*
X173221033Y-108280967D01*
X173209970Y-108299999D01*
X173221579Y-108319808D01*
X173253166Y-108361567D01*
X173299873Y-108419109D01*
X173355354Y-108484546D01*
X173500738Y-108652764D01*
X173500738Y-108900460D01*
X173500738Y-109148156D01*
X173347961Y-109324373D01*
X173195184Y-109500590D01*
X171847222Y-109500590D01*
X170499261Y-109500590D01*
X170499261Y-109087887D01*
X171399704Y-109087887D01*
X171999999Y-109087887D01*
X172600294Y-109087887D01*
X172600294Y-108797119D01*
X172600294Y-108506351D01*
X171999999Y-108506351D01*
X171399704Y-108506351D01*
X171399704Y-108797119D01*
X171399704Y-109087887D01*
X170499261Y-109087887D01*
X170499261Y-108797119D01*
X170499261Y-108299999D01*
X170499261Y-108112407D01*
X171399704Y-108112407D01*
X171999999Y-108112407D01*
X172600294Y-108112407D01*
X172600294Y-107821639D01*
X172600294Y-107530871D01*
X171999999Y-107530871D01*
X171399704Y-107530871D01*
X171399704Y-107821639D01*
X171399704Y-108112407D01*
X170499261Y-108112407D01*
X170499261Y-107821639D01*
X170499261Y-107099409D01*
X171847222Y-107099409D01*
X173195184Y-107099409D01*
X173347961Y-107275626D01*
G37*
%TO.C,C15*%
D13*
X166735000Y-99261252D02*
X166735000Y-98738748D01*
X165265000Y-99261252D02*
X165265000Y-98738748D01*
%TO.C,D3*%
X163000000Y-99640000D02*
X163000000Y-103650000D01*
X163000000Y-99640000D02*
X161000000Y-99640000D01*
X161000000Y-99640000D02*
X161000000Y-103650000D01*
D14*
%TO.C,G\u002A\u002A\u002A*%
G36*
X171382295Y-101910069D02*
G01*
X171382901Y-101929102D01*
X171383480Y-101959863D01*
X171384026Y-102001549D01*
X171384534Y-102053357D01*
X171385000Y-102114485D01*
X171385419Y-102184128D01*
X171385786Y-102261485D01*
X171386095Y-102345752D01*
X171386343Y-102436127D01*
X171386524Y-102531807D01*
X171386633Y-102631990D01*
X171386666Y-102726666D01*
X171386666Y-103550000D01*
X171693888Y-103550000D01*
X171771744Y-103550138D01*
X171838889Y-103550547D01*
X171894894Y-103551218D01*
X171939327Y-103552141D01*
X171971757Y-103553308D01*
X171991756Y-103554709D01*
X171998890Y-103556335D01*
X171998888Y-103556487D01*
X171994806Y-103563121D01*
X171983718Y-103580069D01*
X171966074Y-103606668D01*
X171942324Y-103642252D01*
X171912918Y-103686158D01*
X171878304Y-103737721D01*
X171838933Y-103796276D01*
X171795255Y-103861160D01*
X171747719Y-103931707D01*
X171696774Y-104007253D01*
X171642870Y-104087134D01*
X171586458Y-104170686D01*
X171527985Y-104257243D01*
X171467903Y-104346142D01*
X171406661Y-104436718D01*
X171344709Y-104528306D01*
X171282495Y-104620243D01*
X171220470Y-104711864D01*
X171159084Y-104802503D01*
X171098785Y-104891498D01*
X171040024Y-104978183D01*
X170983251Y-105061894D01*
X170928914Y-105141967D01*
X170877464Y-105217737D01*
X170829350Y-105288539D01*
X170785022Y-105353710D01*
X170744929Y-105412585D01*
X170709522Y-105464499D01*
X170679249Y-105508788D01*
X170654560Y-105544787D01*
X170635906Y-105571833D01*
X170623735Y-105589260D01*
X170618498Y-105596404D01*
X170618333Y-105596549D01*
X170617704Y-105590031D01*
X170617097Y-105570983D01*
X170616519Y-105540207D01*
X170615973Y-105498507D01*
X170615465Y-105446686D01*
X170614999Y-105385547D01*
X170614580Y-105315892D01*
X170614213Y-105238524D01*
X170613904Y-105154248D01*
X170613656Y-105063865D01*
X170613475Y-104968178D01*
X170613366Y-104867991D01*
X170613333Y-104773333D01*
X170613333Y-103950000D01*
X170306111Y-103950000D01*
X170227296Y-103949860D01*
X170159624Y-103949446D01*
X170103458Y-103948766D01*
X170059160Y-103947827D01*
X170027093Y-103946637D01*
X170007617Y-103945204D01*
X170001097Y-103943536D01*
X170001111Y-103943465D01*
X170005185Y-103936848D01*
X170016265Y-103919915D01*
X170033903Y-103893331D01*
X170057648Y-103857760D01*
X170087051Y-103813866D01*
X170121662Y-103762314D01*
X170161031Y-103703769D01*
X170204708Y-103638894D01*
X170252244Y-103568355D01*
X170303189Y-103492816D01*
X170357093Y-103412942D01*
X170413508Y-103329396D01*
X170471982Y-103242843D01*
X170532066Y-103153949D01*
X170593311Y-103063377D01*
X170655266Y-102971791D01*
X170717483Y-102879857D01*
X170779511Y-102788239D01*
X170840901Y-102697601D01*
X170901203Y-102608608D01*
X170959967Y-102521924D01*
X171016744Y-102438214D01*
X171071084Y-102358142D01*
X171122536Y-102282372D01*
X171170653Y-102211570D01*
X171214983Y-102146400D01*
X171255077Y-102087525D01*
X171290485Y-102035612D01*
X171320758Y-101991323D01*
X171345446Y-101955324D01*
X171364099Y-101928279D01*
X171376268Y-101910853D01*
X171381502Y-101903710D01*
X171381666Y-101903565D01*
X171382295Y-101910069D01*
G37*
%TO.C,C2*%
D13*
X156888748Y-97735000D02*
X157411252Y-97735000D01*
X156888748Y-96265000D02*
X157411252Y-96265000D01*
%TO.C,D2*%
X169735000Y-105050000D02*
X169735000Y-102590000D01*
X169735000Y-102590000D02*
X168265000Y-102590000D01*
X168265000Y-102590000D02*
X168265000Y-105050000D01*
%TO.C,C1*%
X155235000Y-106011253D02*
X155235000Y-105488747D01*
X153765000Y-106011253D02*
X153765000Y-105488747D01*
%TO.C,R8*%
X166522500Y-106754724D02*
X166522500Y-106245276D01*
X165477500Y-106754724D02*
X165477500Y-106245276D01*
%TO.C,D1*%
X153250000Y-99640000D02*
X153250000Y-103650000D01*
X153250000Y-99640000D02*
X151250000Y-99640000D01*
X151250000Y-99640000D02*
X151250000Y-103650000D01*
%TO.C,C16*%
X170465000Y-95738748D02*
X170465000Y-96261252D01*
X171935000Y-95738748D02*
X171935000Y-96261252D01*
D14*
%TO.C,G\u002A\u002A\u002A*%
G36*
X179955710Y-101799999D02*
G01*
X179955710Y-103000590D01*
X179552386Y-103000590D01*
X179149063Y-103000590D01*
X179149063Y-102672304D01*
X179149063Y-102344017D01*
X178454971Y-102344017D01*
X177760879Y-102344017D01*
X177760879Y-102672304D01*
X177760879Y-103000590D01*
X177357556Y-103000590D01*
X176954233Y-103000590D01*
X176954233Y-101935534D01*
X176954233Y-101468586D01*
X176954233Y-101143426D01*
X177760879Y-101143426D01*
X177760879Y-101468586D01*
X177761581Y-101575458D01*
X177763525Y-101669051D01*
X177766473Y-101743014D01*
X177770186Y-101790996D01*
X177773616Y-101806483D01*
X177794677Y-101809277D01*
X177848968Y-101811591D01*
X177932200Y-101813376D01*
X178040088Y-101814583D01*
X178168345Y-101815165D01*
X178312683Y-101815072D01*
X178463018Y-101814299D01*
X179139683Y-101809379D01*
X179144806Y-101476403D01*
X179149928Y-101143426D01*
X178455404Y-101143426D01*
X177760879Y-101143426D01*
X176954233Y-101143426D01*
X176954233Y-100870478D01*
X177090678Y-100734943D01*
X177227124Y-100599409D01*
X178591417Y-100599409D01*
X179955710Y-100599409D01*
X179955710Y-101799999D01*
G37*
%TO.C,J5*%
D13*
X114450000Y-87230000D02*
X113770000Y-87230000D01*
X114450000Y-103970000D02*
X113770000Y-103970000D01*
X117850000Y-89500000D02*
X117849999Y-87200000D01*
X117850000Y-89500000D02*
X119150000Y-89500000D01*
X117850000Y-101700000D02*
X117849999Y-104000000D01*
%TO.C,C7*%
X134738748Y-100265000D02*
X135261252Y-100265000D01*
X134738748Y-101735000D02*
X135261252Y-101735000D01*
%TO.C,D5*%
X145610000Y-86500000D02*
X141600000Y-86500000D01*
X145610000Y-88500000D02*
X141600000Y-88500000D01*
X145610000Y-88500000D02*
X145610000Y-86500000D01*
%TO.C,SW4*%
D15*
X172477750Y-111542947D02*
X172782513Y-111847710D01*
X174657053Y-113722250D02*
X174352290Y-113417487D01*
D16*
X175342947Y-108677750D02*
X172477750Y-111542947D01*
D15*
X175342947Y-108677750D02*
X175647710Y-108982513D01*
X177217487Y-110552290D02*
X177522250Y-110857053D01*
D16*
X177522250Y-110857053D02*
X174657053Y-113722250D01*
D17*
X175900000Y-111200000D02*
G75*
G02*
X174100000Y-111200000I-900000J0D01*
G01*
X174100000Y-111200000D02*
G75*
G02*
X175900000Y-111200000I900000J0D01*
G01*
%TO.C,C13*%
D13*
X131238748Y-84265000D02*
X131761252Y-84265000D01*
X131238748Y-85735000D02*
X131761252Y-85735000D01*
%TO.C,C3*%
X121015000Y-104238748D02*
X121015000Y-104761252D01*
X122485000Y-104238748D02*
X122485000Y-104761252D01*
%TO.C,C9*%
X129488748Y-97515000D02*
X130011252Y-97515000D01*
X129488748Y-98985000D02*
X130011252Y-98985000D01*
%TO.C,C11*%
X152765000Y-85938748D02*
X152765000Y-86461252D01*
X154235000Y-85938748D02*
X154235000Y-86461252D01*
%TO.C,J4*%
X159670000Y-111150000D02*
X159670000Y-113070000D01*
X159670000Y-116785000D02*
X159670000Y-115080000D01*
X168830000Y-113070000D02*
X168830000Y-111150000D01*
X168830000Y-115080000D02*
X168830000Y-116785000D01*
X168830000Y-116785000D02*
X159670000Y-116785000D01*
%TO.C,Q1*%
X143935000Y-81065000D02*
X143935000Y-81715000D01*
X142465000Y-81065000D02*
X143935000Y-81065000D01*
X142465000Y-82365000D02*
X142465000Y-82035000D01*
X143935000Y-82685000D02*
X143935000Y-83335000D01*
X143935000Y-83335000D02*
X142465000Y-83335000D01*
X142020000Y-82040000D02*
X142160000Y-82230000D01*
X141880000Y-82230000D01*
X142020000Y-82040000D01*
G36*
X142160000Y-82230000D02*
G01*
X141880000Y-82230000D01*
X142020000Y-82040000D01*
X142160000Y-82230000D01*
G37*
%TO.C,R5*%
X121122500Y-85054724D02*
X121122500Y-84545276D01*
X120077500Y-85054724D02*
X120077500Y-84545276D01*
%TO.C,C8*%
X134738748Y-97565000D02*
X135261252Y-97565000D01*
X134738748Y-99035000D02*
X135261252Y-99035000D01*
%TO.C,U1*%
X160675000Y-69850000D02*
X160675000Y-72300000D01*
X160675000Y-69850000D02*
X163125000Y-69850000D01*
X160950000Y-70100000D02*
X176550000Y-70100000D01*
X160950000Y-90800000D02*
X160950000Y-70100000D01*
X176550000Y-70100000D02*
X176550000Y-90800000D01*
X176550000Y-90800000D02*
X160950000Y-90800000D01*
X160775000Y-77050000D02*
X160439000Y-77290000D01*
X160439000Y-76810000D01*
X160775000Y-77050000D01*
G36*
X160775000Y-77050000D02*
G01*
X160439000Y-77290000D01*
X160439000Y-76810000D01*
X160775000Y-77050000D01*
G37*
%TO.C,R6*%
X124254724Y-86322500D02*
X123745276Y-86322500D01*
X124254724Y-85277500D02*
X123745276Y-85277500D01*
%TO.C,J2*%
X180620000Y-76380000D02*
X182000000Y-76380000D01*
X180620000Y-77760000D02*
X180620000Y-76380000D01*
X180620000Y-79030000D02*
X180620000Y-96920000D01*
X180620000Y-79030000D02*
X183380000Y-79030000D01*
X180620000Y-96920000D02*
X183380000Y-96920000D01*
X183380000Y-79030000D02*
X183380000Y-96920000D01*
%TO.C,D6*%
X137360000Y-104500000D02*
X133350000Y-104500000D01*
X137360000Y-106500000D02*
X133350000Y-106500000D01*
X137360000Y-106500000D02*
X137360000Y-104500000D01*
%TO.C,C4*%
X123765000Y-104238748D02*
X123765000Y-104761252D01*
X125235000Y-104238748D02*
X125235000Y-104761252D01*
%TO.C,SW3*%
D16*
X178932722Y-105042947D02*
X181797919Y-102177750D01*
D15*
X179237485Y-105347710D02*
X178932722Y-105042947D01*
X181112025Y-107222250D02*
X180807262Y-106917487D01*
D16*
X181112025Y-107222250D02*
X183977222Y-104357053D01*
D15*
X181797919Y-102177750D02*
X182102682Y-102482513D01*
X183977222Y-104357053D02*
X183672459Y-104052290D01*
D17*
X182354972Y-104700000D02*
G75*
G02*
X180554972Y-104700000I-900000J0D01*
G01*
X180554972Y-104700000D02*
G75*
G02*
X182354972Y-104700000I900000J0D01*
G01*
D14*
%TO.C,G\u002A\u002A\u002A*%
G36*
X133112782Y-112148314D02*
G01*
X133112782Y-112491811D01*
X132515190Y-112491811D01*
X131917598Y-112491811D01*
X131917598Y-113343497D01*
X131917598Y-114195183D01*
X131399999Y-114195183D01*
X130882400Y-114195183D01*
X130882400Y-113343567D01*
X130882400Y-112491952D01*
X130287161Y-112489529D01*
X129691922Y-112487106D01*
X129689452Y-112145961D01*
X129686982Y-111804816D01*
X131399882Y-111804816D01*
X133112782Y-111804816D01*
X133112782Y-112148314D01*
G37*
G36*
X145236269Y-111971761D02*
G01*
X145403408Y-112138707D01*
X145403408Y-113166945D01*
X145403408Y-114195183D01*
X144890514Y-114195183D01*
X144377621Y-114195183D01*
X144377621Y-113343497D01*
X144377621Y-112491811D01*
X143695331Y-112491811D01*
X143013041Y-112491811D01*
X143013041Y-113343497D01*
X143013041Y-114195183D01*
X142500147Y-114195183D01*
X141987254Y-114195183D01*
X141987254Y-113000000D01*
X141987254Y-111804816D01*
X143528192Y-111804816D01*
X145069130Y-111804816D01*
X145236269Y-111971761D01*
G37*
G36*
X126619266Y-112656502D02*
G01*
X126619266Y-113508188D01*
X127301555Y-113508188D01*
X127983845Y-113508188D01*
X127983845Y-112656502D01*
X127983845Y-111804816D01*
X128496739Y-111804816D01*
X129009632Y-111804816D01*
X129009632Y-112833054D01*
X129009632Y-113861292D01*
X128842494Y-114028238D01*
X128675355Y-114195183D01*
X127306070Y-114195183D01*
X125936785Y-114195183D01*
X125765132Y-114023341D01*
X125593478Y-113851500D01*
X125593478Y-112828158D01*
X125593478Y-111804816D01*
X126106372Y-111804816D01*
X126619266Y-111804816D01*
X126619266Y-112656502D01*
G37*
G36*
X124915894Y-112148314D02*
G01*
X124915894Y-112491811D01*
X123720711Y-112491811D01*
X122525527Y-112491811D01*
X122525527Y-112571804D01*
X122525527Y-112651797D01*
X123123119Y-112651797D01*
X123720711Y-112651797D01*
X123720711Y-112995294D01*
X123720711Y-113338792D01*
X123123119Y-113338792D01*
X122525527Y-113338792D01*
X122525527Y-113423490D01*
X122525527Y-113508188D01*
X123720711Y-113508188D01*
X124915894Y-113508188D01*
X124915894Y-113851685D01*
X124915894Y-114195183D01*
X123374765Y-114195183D01*
X121833636Y-114195183D01*
X121661982Y-114023341D01*
X121490329Y-113851500D01*
X121490329Y-112999811D01*
X121490329Y-112148123D01*
X121662171Y-111976470D01*
X121834012Y-111804816D01*
X123374953Y-111804816D01*
X124915894Y-111804816D01*
X124915894Y-112148314D01*
G37*
G36*
X119130237Y-111882456D02*
G01*
X119138618Y-111902860D01*
X119153499Y-111939281D01*
X119174302Y-111990295D01*
X119200448Y-112054481D01*
X119231357Y-112130415D01*
X119266452Y-112216675D01*
X119305152Y-112311837D01*
X119346879Y-112414479D01*
X119391055Y-112523178D01*
X119437100Y-112636511D01*
X119472323Y-112723231D01*
X119782252Y-113486366D01*
X119784655Y-112645591D01*
X119787058Y-111804816D01*
X120299901Y-111804816D01*
X120812745Y-111804816D01*
X120812745Y-113000049D01*
X120812745Y-114195283D01*
X119959057Y-114192880D01*
X119105368Y-114190478D01*
X118766226Y-113354039D01*
X118427083Y-112517601D01*
X118424680Y-113356392D01*
X118422277Y-114195183D01*
X117909434Y-114195183D01*
X117396591Y-114195183D01*
X117396591Y-113000000D01*
X117396591Y-111804816D01*
X118247335Y-111804816D01*
X119098080Y-111804816D01*
X119130237Y-111882456D01*
G37*
G36*
X137039381Y-111971761D02*
G01*
X137206520Y-112138707D01*
X137206520Y-112402214D01*
X137206520Y-112665722D01*
X137039575Y-112832861D01*
X136872630Y-113000000D01*
X137039575Y-113167138D01*
X137206520Y-113334277D01*
X137206520Y-113764730D01*
X137206520Y-114195183D01*
X136693626Y-114195183D01*
X136180733Y-114195183D01*
X136180733Y-113766925D01*
X136180733Y-113338668D01*
X135500796Y-113341083D01*
X134820859Y-113343497D01*
X134818410Y-113769340D01*
X134815962Y-114195183D01*
X134303164Y-114195183D01*
X133790366Y-114195183D01*
X133790366Y-113000000D01*
X133790366Y-112651797D01*
X134816153Y-112651797D01*
X135498443Y-112651797D01*
X136180733Y-112651797D01*
X136180733Y-112571804D01*
X136180733Y-112491811D01*
X135498443Y-112491811D01*
X134816153Y-112491811D01*
X134816153Y-112571804D01*
X134816153Y-112651797D01*
X133790366Y-112651797D01*
X133790366Y-112571804D01*
X133790366Y-111804816D01*
X135331304Y-111804816D01*
X136872243Y-111804816D01*
X137039381Y-111971761D01*
G37*
%TO.C,C10*%
D13*
X129488748Y-94765000D02*
X130011252Y-94765000D01*
X129488748Y-96235000D02*
X130011252Y-96235000D01*
%TO.C,J3*%
X151940000Y-109090000D02*
X151940000Y-116910000D01*
X151940000Y-110690000D02*
X152860000Y-110690000D01*
X151940000Y-116910000D02*
X158060000Y-116910000D01*
X152860000Y-109090000D02*
X151940000Y-109090000D01*
X152860000Y-110690000D02*
X152860000Y-109090000D01*
X153140000Y-110690000D02*
X152860000Y-110690000D01*
X153140000Y-110690000D02*
X153140000Y-109475000D01*
X153200000Y-114650000D02*
X153200000Y-116910000D01*
X153700000Y-114650000D02*
X153700000Y-116910000D01*
X154500000Y-112550000D02*
X155500000Y-112550000D01*
X154500000Y-116910000D02*
X154500000Y-112550000D01*
X155500000Y-112550000D02*
X155500000Y-116910000D01*
X157140000Y-109090000D02*
X157140000Y-110690000D01*
X157140000Y-110690000D02*
X156860000Y-110690000D01*
X158060000Y-109090000D02*
X157140000Y-109090000D01*
X158060000Y-110690000D02*
X157140000Y-110690000D01*
X158060000Y-116910000D02*
X158060000Y-109090000D01*
X152700000Y-113050000D02*
X153700000Y-113050000D01*
X153700000Y-114650000D01*
X152700000Y-114650000D01*
X152700000Y-113050000D01*
X156300000Y-113050000D02*
X157300000Y-113050000D01*
X157300000Y-114650000D01*
X156300000Y-114650000D01*
X156300000Y-113050000D01*
%TO.C,C14*%
X131238747Y-86765000D02*
X131761251Y-86765000D01*
X131238747Y-88235000D02*
X131761251Y-88235000D01*
D14*
%TO.C,G\u002A\u002A\u002A*%
G36*
X174448330Y-102737479D02*
G01*
X174516472Y-102748049D01*
X174606454Y-102755723D01*
X174711363Y-102760500D01*
X174824284Y-102762382D01*
X174938310Y-102761367D01*
X175046524Y-102757458D01*
X175142016Y-102750653D01*
X175217873Y-102740953D01*
X175235921Y-102737447D01*
X175275653Y-102728820D01*
X175275653Y-104584596D01*
X175275653Y-106440372D01*
X175238043Y-106477981D01*
X175183749Y-106520059D01*
X175115041Y-106550265D01*
X175028116Y-106569621D01*
X174919177Y-106579149D01*
X174856654Y-106580540D01*
X174733878Y-106577315D01*
X174635040Y-106565477D01*
X174556229Y-106544110D01*
X174493533Y-106512299D01*
X174462608Y-106488344D01*
X174415983Y-106446686D01*
X174412209Y-104587717D01*
X174408435Y-102728749D01*
X174448330Y-102737479D01*
G37*
G36*
X175028359Y-94761468D02*
G01*
X175034377Y-94857661D01*
X175040476Y-94953046D01*
X175046180Y-95040316D01*
X175051010Y-95112161D01*
X175054032Y-95155076D01*
X175057839Y-95213403D01*
X175057851Y-95249990D01*
X175052683Y-95271886D01*
X175040955Y-95286144D01*
X175026261Y-95296565D01*
X174971515Y-95319728D01*
X174899577Y-95332960D01*
X174820479Y-95336016D01*
X174744253Y-95328653D01*
X174680931Y-95310626D01*
X174669788Y-95305236D01*
X174655149Y-95294410D01*
X174646228Y-95276863D01*
X174641653Y-95246165D01*
X174640049Y-95195886D01*
X174639931Y-95165459D01*
X174641159Y-95101191D01*
X174644519Y-95016613D01*
X174649522Y-94919657D01*
X174655678Y-94818252D01*
X174662501Y-94720329D01*
X174669501Y-94633817D01*
X174676190Y-94566647D01*
X174677467Y-94556082D01*
X174685329Y-94493734D01*
X174722686Y-94531091D01*
X174778333Y-94568395D01*
X174841851Y-94582109D01*
X174905524Y-94572352D01*
X174961637Y-94539244D01*
X174973712Y-94527186D01*
X175011305Y-94485506D01*
X175028359Y-94761468D01*
G37*
G36*
X174671812Y-106688330D02*
G01*
X174708560Y-106693448D01*
X174762475Y-106698738D01*
X174832345Y-106700787D01*
X174905382Y-106699315D01*
X174925283Y-106698193D01*
X174990887Y-106694766D01*
X175032053Y-106695173D01*
X175053020Y-106699717D01*
X175058124Y-106707701D01*
X175054557Y-106725841D01*
X175044842Y-106768439D01*
X175029836Y-106831922D01*
X175010395Y-106912709D01*
X174987377Y-107007229D01*
X174961638Y-107111904D01*
X174950287Y-107157771D01*
X174923598Y-107264920D01*
X174898995Y-107362722D01*
X174877365Y-107447733D01*
X174859593Y-107516513D01*
X174846563Y-107565619D01*
X174839160Y-107591607D01*
X174837919Y-107594828D01*
X174833870Y-107582404D01*
X174824338Y-107545834D01*
X174810268Y-107489136D01*
X174792602Y-107416337D01*
X174772282Y-107331460D01*
X174750254Y-107238528D01*
X174727458Y-107141567D01*
X174704839Y-107044599D01*
X174683340Y-106951648D01*
X174663903Y-106866738D01*
X174647472Y-106793892D01*
X174634990Y-106737135D01*
X174627400Y-106700490D01*
X174625483Y-106688464D01*
X174638375Y-106685983D01*
X174671812Y-106688330D01*
G37*
G36*
X175492288Y-100493832D02*
G01*
X175492208Y-100691135D01*
X175491977Y-100861573D01*
X175491551Y-101007174D01*
X175490888Y-101129971D01*
X175489942Y-101231994D01*
X175488672Y-101315271D01*
X175487033Y-101381835D01*
X175484981Y-101433716D01*
X175482475Y-101472943D01*
X175479469Y-101501548D01*
X175475920Y-101521561D01*
X175471785Y-101535012D01*
X175469893Y-101539136D01*
X175444257Y-101578942D01*
X175408918Y-101612757D01*
X175357629Y-101645501D01*
X175294222Y-101677387D01*
X175187056Y-101717300D01*
X175067265Y-101744078D01*
X174939570Y-101758184D01*
X174808690Y-101760082D01*
X174679348Y-101750233D01*
X174556264Y-101729101D01*
X174444159Y-101697149D01*
X174347751Y-101654839D01*
X174271765Y-101602635D01*
X174244127Y-101574432D01*
X174206484Y-101529696D01*
X174206484Y-100579340D01*
X174206484Y-99628985D01*
X174354578Y-99680480D01*
X174411970Y-99700086D01*
X174457749Y-99713947D01*
X174499092Y-99723049D01*
X174543168Y-99728381D01*
X174597156Y-99730930D01*
X174668229Y-99731682D01*
X174726620Y-99731677D01*
X174816174Y-99731090D01*
X174884084Y-99729064D01*
X174937596Y-99724789D01*
X174983956Y-99717454D01*
X175030410Y-99706248D01*
X175077544Y-99692412D01*
X175194451Y-99650544D01*
X175312380Y-99597711D01*
X175418352Y-99539899D01*
X175445420Y-99522777D01*
X175492377Y-99491873D01*
X175492288Y-100493832D01*
G37*
G36*
X175634635Y-93649281D02*
G01*
X175777446Y-93696050D01*
X175806315Y-93708737D01*
X175952065Y-93791135D01*
X176081939Y-93896563D01*
X176194167Y-94022831D01*
X176286977Y-94167751D01*
X176358600Y-94329131D01*
X176390050Y-94430604D01*
X176406355Y-94513474D01*
X176418151Y-94616255D01*
X176425182Y-94730278D01*
X176427190Y-94846872D01*
X176423917Y-94957366D01*
X176415106Y-95053091D01*
X176409556Y-95087518D01*
X176356038Y-95296628D01*
X176275005Y-95508013D01*
X176167512Y-95719614D01*
X176034614Y-95929373D01*
X175877365Y-96135232D01*
X175865051Y-96149944D01*
X175805976Y-96216597D01*
X175739631Y-96285731D01*
X175671169Y-96352488D01*
X175605747Y-96412011D01*
X175548525Y-96459442D01*
X175504660Y-96489923D01*
X175503213Y-96490745D01*
X175488157Y-96496106D01*
X175480625Y-96486362D01*
X175478102Y-96455884D01*
X175477928Y-96434200D01*
X175477928Y-96363458D01*
X175641192Y-96198908D01*
X175815914Y-96005110D01*
X175966878Y-95800412D01*
X176091895Y-95587848D01*
X176114343Y-95543118D01*
X176168209Y-95427896D01*
X176209318Y-95327791D01*
X176240795Y-95233781D01*
X176265763Y-95136840D01*
X176281408Y-95060460D01*
X176294460Y-94959047D01*
X176299727Y-94842406D01*
X176297551Y-94719910D01*
X176288273Y-94600926D01*
X176272237Y-94494824D01*
X176258648Y-94438223D01*
X176198855Y-94278841D01*
X176117361Y-94135967D01*
X176015826Y-94011664D01*
X175895901Y-93907991D01*
X175773483Y-93833964D01*
X175644935Y-93783793D01*
X175518870Y-93761260D01*
X175397867Y-93765194D01*
X175284503Y-93794428D01*
X175181357Y-93847794D01*
X175091006Y-93924122D01*
X175016030Y-94022245D01*
X174959005Y-94140991D01*
X174936577Y-94213304D01*
X174924287Y-94270572D01*
X174916252Y-94326131D01*
X174914447Y-94355124D01*
X174907255Y-94416285D01*
X174886146Y-94453902D01*
X174851822Y-94466724D01*
X174851811Y-94466724D01*
X174815520Y-94458778D01*
X174794171Y-94432436D01*
X174785430Y-94383942D01*
X174784928Y-94359085D01*
X174798853Y-94227722D01*
X174836705Y-94096199D01*
X174895331Y-93972095D01*
X174971577Y-93862987D01*
X175007771Y-93823778D01*
X175116024Y-93735225D01*
X175234485Y-93673260D01*
X175361506Y-93638124D01*
X175495438Y-93630052D01*
X175634635Y-93649281D01*
G37*
G36*
X174185061Y-97200315D02*
G01*
X174185784Y-97215817D01*
X174183335Y-97251309D01*
X174179779Y-97285504D01*
X174174004Y-97326062D01*
X174164690Y-97355377D01*
X174146825Y-97381108D01*
X174115395Y-97410912D01*
X174076450Y-97443384D01*
X173921950Y-97582012D01*
X173789130Y-97726018D01*
X173679612Y-97873152D01*
X173595020Y-98021167D01*
X173536975Y-98167815D01*
X173526471Y-98205290D01*
X173499139Y-98364320D01*
X173500018Y-98517187D01*
X173529068Y-98663791D01*
X173586247Y-98804032D01*
X173671512Y-98937807D01*
X173784823Y-99065018D01*
X173926138Y-99185562D01*
X173933769Y-99191287D01*
X174044028Y-99265344D01*
X174171164Y-99337401D01*
X174303654Y-99401503D01*
X174429972Y-99451695D01*
X174452104Y-99459096D01*
X174604119Y-99493271D01*
X174761760Y-99500523D01*
X174921748Y-99481424D01*
X175080806Y-99436541D01*
X175235657Y-99366444D01*
X175335428Y-99305652D01*
X175462956Y-99204185D01*
X175585310Y-99077552D01*
X175700253Y-98929336D01*
X175805549Y-98763118D01*
X175898961Y-98582482D01*
X175978253Y-98391007D01*
X176041188Y-98192276D01*
X176048794Y-98163184D01*
X176071786Y-98094405D01*
X176098834Y-98051337D01*
X176128970Y-98035491D01*
X176130861Y-98035439D01*
X176149450Y-98045058D01*
X176173699Y-98066956D01*
X176193292Y-98090685D01*
X176198665Y-98104068D01*
X176194196Y-98125873D01*
X176190048Y-98143801D01*
X176183104Y-98167620D01*
X176168864Y-98212938D01*
X176149216Y-98273855D01*
X176126049Y-98344471D01*
X176118846Y-98366211D01*
X176030296Y-98599004D01*
X175926439Y-98811124D01*
X175808103Y-99001497D01*
X175676116Y-99169044D01*
X175531308Y-99312691D01*
X175374508Y-99431361D01*
X175239533Y-99508309D01*
X175068844Y-99577515D01*
X174896299Y-99617964D01*
X174722435Y-99629623D01*
X174547783Y-99612457D01*
X174372879Y-99566432D01*
X174367332Y-99564498D01*
X174182198Y-99488678D01*
X174010141Y-99396693D01*
X173853494Y-99290706D01*
X173714593Y-99172876D01*
X173595775Y-99045365D01*
X173499374Y-98910334D01*
X173427727Y-98769943D01*
X173391426Y-98661605D01*
X173376880Y-98579157D01*
X173369832Y-98480039D01*
X173370476Y-98375542D01*
X173379005Y-98276955D01*
X173384246Y-98243980D01*
X173426309Y-98090115D01*
X173495711Y-97934028D01*
X173591178Y-97777537D01*
X173711438Y-97622460D01*
X173855216Y-97470616D01*
X174021238Y-97323824D01*
X174038386Y-97309995D01*
X174092441Y-97267320D01*
X174137757Y-97232621D01*
X174169958Y-97209170D01*
X174184664Y-97200240D01*
X174185061Y-97200315D01*
G37*
G36*
X175643345Y-101135896D02*
G01*
X175683218Y-101158008D01*
X175728954Y-101188466D01*
X175772516Y-101222031D01*
X175797656Y-101244813D01*
X175824656Y-101272486D01*
X175846256Y-101298040D01*
X175863052Y-101324985D01*
X175875642Y-101356823D01*
X175884624Y-101397068D01*
X175890595Y-101449223D01*
X175894154Y-101516796D01*
X175895897Y-101603298D01*
X175896424Y-101712230D01*
X175896362Y-101824025D01*
X175895852Y-101955999D01*
X175894632Y-102061865D01*
X175892583Y-102144406D01*
X175889586Y-102206407D01*
X175885520Y-102250646D01*
X175880265Y-102279910D01*
X175876242Y-102292022D01*
X175834152Y-102356832D01*
X175766432Y-102419872D01*
X175676333Y-102478364D01*
X175631041Y-102501655D01*
X175498664Y-102555543D01*
X175354314Y-102597317D01*
X175201077Y-102627335D01*
X175042040Y-102645956D01*
X174880290Y-102653539D01*
X174718913Y-102650442D01*
X174560996Y-102637025D01*
X174409625Y-102613647D01*
X174267888Y-102580666D01*
X174138870Y-102538441D01*
X174025659Y-102487331D01*
X173931341Y-102427696D01*
X173859002Y-102359893D01*
X173814440Y-102290445D01*
X173806663Y-102270831D01*
X173800568Y-102247750D01*
X173795956Y-102217628D01*
X173792626Y-102176891D01*
X173790378Y-102121966D01*
X173789012Y-102049277D01*
X173788326Y-101955253D01*
X173788121Y-101836317D01*
X173788119Y-101820877D01*
X173788353Y-101690117D01*
X173789473Y-101584743D01*
X173792106Y-101501248D01*
X173796880Y-101436122D01*
X173804422Y-101385857D01*
X173815360Y-101346945D01*
X173830321Y-101315875D01*
X173849932Y-101289141D01*
X173874822Y-101263233D01*
X173890470Y-101248543D01*
X173935736Y-101210157D01*
X173984236Y-101174363D01*
X174028832Y-101145904D01*
X174062390Y-101129533D01*
X174072579Y-101127362D01*
X174080246Y-101134576D01*
X174085605Y-101158433D01*
X174088957Y-101202254D01*
X174090602Y-101269360D01*
X174090898Y-101330211D01*
X174091470Y-101415049D01*
X174093601Y-101476760D01*
X174097910Y-101521100D01*
X174105019Y-101553824D01*
X174115545Y-101580689D01*
X174118528Y-101586669D01*
X174175679Y-101666482D01*
X174257599Y-101733897D01*
X174362667Y-101788293D01*
X174489262Y-101829046D01*
X174635766Y-101855533D01*
X174800554Y-101867133D01*
X174849430Y-101867627D01*
X175022139Y-101860007D01*
X175172114Y-101837553D01*
X175301780Y-101799654D01*
X175413555Y-101745698D01*
X175463569Y-101712449D01*
X175511430Y-101673969D01*
X175546835Y-101635342D01*
X175571786Y-101591209D01*
X175588286Y-101536208D01*
X175598342Y-101464976D01*
X175603952Y-101372153D01*
X175605246Y-101333249D01*
X175607768Y-101259869D01*
X175610673Y-101198031D01*
X175613659Y-101152859D01*
X175616424Y-101129471D01*
X175617369Y-101127361D01*
X175643345Y-101135896D01*
G37*
G36*
X174524345Y-95226722D02*
G01*
X174536005Y-95300179D01*
X174559752Y-95352341D01*
X174600337Y-95389865D01*
X174661685Y-95419098D01*
X174752242Y-95442818D01*
X174847946Y-95450442D01*
X174941883Y-95442832D01*
X175027138Y-95420854D01*
X175096797Y-95385371D01*
X175125232Y-95361175D01*
X175149062Y-95332768D01*
X175161208Y-95304456D01*
X175165067Y-95265131D01*
X175164824Y-95231789D01*
X175165598Y-95186292D01*
X175169613Y-95155120D01*
X175174797Y-95145792D01*
X175197321Y-95156064D01*
X175229359Y-95181871D01*
X175263000Y-95215688D01*
X175290335Y-95249998D01*
X175298238Y-95263142D01*
X175305358Y-95283799D01*
X175311570Y-95318064D01*
X175317103Y-95368754D01*
X175322185Y-95438685D01*
X175327043Y-95530675D01*
X175331905Y-95647539D01*
X175334038Y-95705704D01*
X175339033Y-95838751D01*
X175345441Y-95997294D01*
X175353102Y-96177978D01*
X175361860Y-96377444D01*
X175371558Y-96592337D01*
X175382038Y-96819300D01*
X175393144Y-97054975D01*
X175404719Y-97296005D01*
X175416604Y-97539034D01*
X175428644Y-97780704D01*
X175440680Y-98017659D01*
X175452556Y-98246544D01*
X175456660Y-98324405D01*
X175463885Y-98461126D01*
X175470621Y-98589092D01*
X175476717Y-98705389D01*
X175482021Y-98807112D01*
X175486383Y-98891354D01*
X175489650Y-98955204D01*
X175491673Y-98995754D01*
X175492304Y-99009959D01*
X175482524Y-99025957D01*
X175456698Y-99055269D01*
X175420210Y-99091830D01*
X175416523Y-99095329D01*
X175334853Y-99164507D01*
X175241816Y-99230423D01*
X175147610Y-99286369D01*
X175071701Y-99322086D01*
X174993156Y-99347848D01*
X174901182Y-99369972D01*
X174808258Y-99385969D01*
X174726859Y-99393350D01*
X174713212Y-99393573D01*
X174635258Y-99386356D01*
X174541150Y-99366217D01*
X174439317Y-99335422D01*
X174338188Y-99296235D01*
X174318457Y-99287439D01*
X174206485Y-99236286D01*
X174206547Y-99044025D01*
X174207420Y-98987212D01*
X174209882Y-98905846D01*
X174213746Y-98804209D01*
X174218824Y-98686589D01*
X174224927Y-98557272D01*
X174231866Y-98420544D01*
X174239454Y-98280690D01*
X174242303Y-98230489D01*
X174255208Y-98002445D01*
X174268293Y-97764753D01*
X174281374Y-97521112D01*
X174294267Y-97275224D01*
X174306788Y-97030785D01*
X174318753Y-96791497D01*
X174329978Y-96561059D01*
X174340279Y-96343170D01*
X174349471Y-96141529D01*
X174357372Y-95959837D01*
X174363796Y-95801793D01*
X174365934Y-95745393D01*
X174370416Y-95635892D01*
X174375414Y-95533840D01*
X174380666Y-95443375D01*
X174385899Y-95368633D01*
X174390852Y-95313750D01*
X174395252Y-95282866D01*
X174395971Y-95280160D01*
X174415903Y-95242278D01*
X174448946Y-95201349D01*
X174463822Y-95187021D01*
X174517121Y-95140117D01*
X174524345Y-95226722D01*
G37*
%TO.C,C5*%
D13*
X126515000Y-104238748D02*
X126515000Y-104761252D01*
X127985000Y-104238748D02*
X127985000Y-104761252D01*
%TO.C,C12*%
X156765000Y-85938748D02*
X156765000Y-86461252D01*
X158235000Y-85938748D02*
X158235000Y-86461252D01*
%TO.C,D4*%
X140890000Y-84000000D02*
X140890000Y-86000000D01*
X140890000Y-84000000D02*
X144900000Y-84000000D01*
X140890000Y-86000000D02*
X144900000Y-86000000D01*
%TO.C,L1*%
X152390000Y-76890000D02*
X158610000Y-76890000D01*
X158610000Y-83110000D02*
X152390000Y-83110000D01*
%TO.C,C6*%
X129265000Y-104238748D02*
X129265000Y-104761252D01*
X130735000Y-104238748D02*
X130735000Y-104761252D01*
D14*
%TO.C,G\u002A\u002A\u002A*%
G36*
X155375600Y-90460998D02*
G01*
X155375600Y-90648798D01*
X155563401Y-90648798D01*
X155751201Y-90648798D01*
X155751201Y-90836598D01*
X155751201Y-91024399D01*
X155939001Y-91024399D01*
X156126802Y-91024399D01*
X156126802Y-91399999D01*
X156126802Y-91775600D01*
X155939001Y-91775600D01*
X155751201Y-91775600D01*
X155751201Y-91963401D01*
X155751201Y-92151201D01*
X155563401Y-92151201D01*
X155375600Y-92151201D01*
X155375600Y-92339001D01*
X155375600Y-92526802D01*
X154999999Y-92526802D01*
X154624399Y-92526802D01*
X154624399Y-92339001D01*
X154624399Y-92151201D01*
X154436598Y-92151201D01*
X154248798Y-92151201D01*
X154248798Y-91963401D01*
X154248798Y-91775600D01*
X154060998Y-91775600D01*
X153873197Y-91775600D01*
X153873197Y-91399999D01*
X153873197Y-91024399D01*
X154060998Y-91024399D01*
X154248798Y-91024399D01*
X154248798Y-90836598D01*
X154248798Y-90648798D01*
X154436598Y-90648798D01*
X154624399Y-90648798D01*
X154624399Y-90460998D01*
X154624399Y-90273197D01*
X154999999Y-90273197D01*
X155375600Y-90273197D01*
X155375600Y-90460998D01*
G37*
G36*
X155375600Y-88582994D02*
G01*
X155375600Y-88770794D01*
X155563401Y-88770794D01*
X155751201Y-88770794D01*
X155751201Y-88958595D01*
X155751201Y-89146395D01*
X155939001Y-89146395D01*
X156126802Y-89146395D01*
X156126802Y-89334195D01*
X156126802Y-89521996D01*
X157065803Y-89521996D01*
X158004805Y-89521996D01*
X158004805Y-89709796D01*
X158004805Y-89897596D01*
X157817005Y-89897596D01*
X157629205Y-89897596D01*
X157629205Y-90085397D01*
X157629205Y-90273197D01*
X157441404Y-90273197D01*
X157253604Y-90273197D01*
X157253604Y-90460998D01*
X157253604Y-90648798D01*
X157441404Y-90648798D01*
X157629205Y-90648798D01*
X157629205Y-90836598D01*
X157629205Y-91024399D01*
X157817005Y-91024399D01*
X158004805Y-91024399D01*
X158004805Y-91399999D01*
X158004805Y-91775600D01*
X157817005Y-91775600D01*
X157629205Y-91775600D01*
X157629205Y-91963401D01*
X157629205Y-92151201D01*
X157441404Y-92151201D01*
X157253604Y-92151201D01*
X157253604Y-92339001D01*
X157253604Y-92526802D01*
X157441404Y-92526802D01*
X157629205Y-92526802D01*
X157629205Y-92714602D01*
X157629205Y-92902402D01*
X157817005Y-92902402D01*
X158004805Y-92902402D01*
X158004805Y-93090203D01*
X158004805Y-93278003D01*
X157065803Y-93278003D01*
X156126802Y-93278003D01*
X156126802Y-93465803D01*
X156126802Y-93653604D01*
X155939001Y-93653604D01*
X155751201Y-93653604D01*
X155751201Y-93841404D01*
X155751201Y-94029205D01*
X155563401Y-94029205D01*
X155375600Y-94029205D01*
X155375600Y-94217005D01*
X155375600Y-94404805D01*
X154999999Y-94404805D01*
X154624399Y-94404805D01*
X154624399Y-94217005D01*
X154624399Y-94029205D01*
X154436598Y-94029205D01*
X154248798Y-94029205D01*
X154248798Y-93841404D01*
X154248798Y-93653604D01*
X154060998Y-93653604D01*
X153873197Y-93653604D01*
X153873197Y-93465803D01*
X153873197Y-93278003D01*
X152934195Y-93278003D01*
X151995194Y-93278003D01*
X151995194Y-93090203D01*
X151995194Y-92902402D01*
X152182994Y-92902402D01*
X152370794Y-92902402D01*
X152370794Y-92714602D01*
X152370794Y-92526802D01*
X152558595Y-92526802D01*
X152746395Y-92526802D01*
X152746395Y-92339001D01*
X152746395Y-92151201D01*
X152558595Y-92151201D01*
X152370794Y-92151201D01*
X152370794Y-91963401D01*
X152370794Y-91775600D01*
X152182994Y-91775600D01*
X151995194Y-91775600D01*
X151995194Y-91399999D01*
X153121996Y-91399999D01*
X153121996Y-91775600D01*
X153309796Y-91775600D01*
X153497596Y-91775600D01*
X153497596Y-91963401D01*
X153497596Y-92151201D01*
X153685397Y-92151201D01*
X153873197Y-92151201D01*
X153873197Y-92339001D01*
X153873197Y-92526802D01*
X154060998Y-92526802D01*
X154248798Y-92526802D01*
X154248798Y-92714602D01*
X154248798Y-92902402D01*
X154436598Y-92902402D01*
X154624399Y-92902402D01*
X154624399Y-93090203D01*
X154624399Y-93278003D01*
X154999999Y-93278003D01*
X155375600Y-93278003D01*
X155375600Y-93090203D01*
X155375600Y-92902402D01*
X155563401Y-92902402D01*
X155751201Y-92902402D01*
X155751201Y-92714602D01*
X155751201Y-92526802D01*
X155939001Y-92526802D01*
X156126802Y-92526802D01*
X156126802Y-92339001D01*
X156126802Y-92151201D01*
X156314602Y-92151201D01*
X156502402Y-92151201D01*
X156502402Y-91963401D01*
X156502402Y-91775600D01*
X156690203Y-91775600D01*
X156878003Y-91775600D01*
X156878003Y-91399999D01*
X156878003Y-91024399D01*
X156690203Y-91024399D01*
X156502402Y-91024399D01*
X156502402Y-90836598D01*
X156502402Y-90648798D01*
X156314602Y-90648798D01*
X156126802Y-90648798D01*
X156126802Y-90460998D01*
X156126802Y-90273197D01*
X155939001Y-90273197D01*
X155751201Y-90273197D01*
X155751201Y-90085397D01*
X155751201Y-89897596D01*
X155563401Y-89897596D01*
X155375600Y-89897596D01*
X155375600Y-89709796D01*
X155375600Y-89521996D01*
X154999999Y-89521996D01*
X154624399Y-89521996D01*
X154624399Y-89709796D01*
X154624399Y-89897596D01*
X154436598Y-89897596D01*
X154248798Y-89897596D01*
X154248798Y-90085397D01*
X154248798Y-90273197D01*
X154060998Y-90273197D01*
X153873197Y-90273197D01*
X153873197Y-90460998D01*
X153873197Y-90648798D01*
X153685397Y-90648798D01*
X153497596Y-90648798D01*
X153497596Y-90836598D01*
X153497596Y-91024399D01*
X153309796Y-91024399D01*
X153121996Y-91024399D01*
X153121996Y-91399999D01*
X151995194Y-91399999D01*
X151995194Y-91024399D01*
X152182994Y-91024399D01*
X152370794Y-91024399D01*
X152370794Y-90836598D01*
X152370794Y-90648798D01*
X152558595Y-90648798D01*
X152746395Y-90648798D01*
X152746395Y-90460998D01*
X152746395Y-90273197D01*
X152558595Y-90273197D01*
X152370794Y-90273197D01*
X152370794Y-90085397D01*
X152370794Y-89897596D01*
X152182994Y-89897596D01*
X151995194Y-89897596D01*
X151995194Y-89709796D01*
X151995194Y-89521996D01*
X152934195Y-89521996D01*
X153873197Y-89521996D01*
X153873197Y-89334195D01*
X153873197Y-89146395D01*
X154060998Y-89146395D01*
X154248798Y-89146395D01*
X154248798Y-88958595D01*
X154248798Y-88770794D01*
X154436598Y-88770794D01*
X154624399Y-88770794D01*
X154624399Y-88582994D01*
X154624399Y-88395194D01*
X154999999Y-88395194D01*
X155375600Y-88395194D01*
X155375600Y-88582994D01*
G37*
%TD*%
M02*
