%TF.GenerationSoftware,KiCad,Pcbnew,10.0.3*%
%TF.CreationDate,2026-06-14T00:05:02-04:00*%
%TF.ProjectId,watch,77617463-682e-46b6-9963-61645f706362,rev?*%
%TF.SameCoordinates,Original*%
%TF.FileFunction,Legend,Top*%
%TF.FilePolarity,Positive*%
%FSLAX46Y46*%
G04 Gerber Fmt 4.6, Leading zero omitted, Abs format (unit mm)*
G04 Created by KiCad (PCBNEW 10.0.3) date 2026-06-14 00:05:02*
%MOMM*%
%LPD*%
G01*
G04 APERTURE LIST*
%ADD10C,0.200000*%
%ADD11C,0.100000*%
%ADD12C,0.150000*%
%ADD13C,0.000000*%
%ADD14C,0.254000*%
%ADD15C,0.152500*%
%ADD16C,0.152000*%
%ADD17C,0.120000*%
G04 APERTURE END LIST*
D10*
X177674435Y-79867219D02*
X178293482Y-79867219D01*
X178293482Y-79867219D02*
X177960149Y-80248171D01*
X177960149Y-80248171D02*
X178103006Y-80248171D01*
X178103006Y-80248171D02*
X178198244Y-80295790D01*
X178198244Y-80295790D02*
X178245863Y-80343409D01*
X178245863Y-80343409D02*
X178293482Y-80438647D01*
X178293482Y-80438647D02*
X178293482Y-80676742D01*
X178293482Y-80676742D02*
X178245863Y-80771980D01*
X178245863Y-80771980D02*
X178198244Y-80819600D01*
X178198244Y-80819600D02*
X178103006Y-80867219D01*
X178103006Y-80867219D02*
X177817292Y-80867219D01*
X177817292Y-80867219D02*
X177722054Y-80819600D01*
X177722054Y-80819600D02*
X177674435Y-80771980D01*
X178579197Y-79867219D02*
X178912530Y-80867219D01*
X178912530Y-80867219D02*
X179245863Y-79867219D01*
X179483959Y-79867219D02*
X180103006Y-79867219D01*
X180103006Y-79867219D02*
X179769673Y-80248171D01*
X179769673Y-80248171D02*
X179912530Y-80248171D01*
X179912530Y-80248171D02*
X180007768Y-80295790D01*
X180007768Y-80295790D02*
X180055387Y-80343409D01*
X180055387Y-80343409D02*
X180103006Y-80438647D01*
X180103006Y-80438647D02*
X180103006Y-80676742D01*
X180103006Y-80676742D02*
X180055387Y-80771980D01*
X180055387Y-80771980D02*
X180007768Y-80819600D01*
X180007768Y-80819600D02*
X179912530Y-80867219D01*
X179912530Y-80867219D02*
X179626816Y-80867219D01*
X179626816Y-80867219D02*
X179531578Y-80819600D01*
X179531578Y-80819600D02*
X179483959Y-80771980D01*
X177969673Y-83267219D02*
X177969673Y-82267219D01*
X178636339Y-82267219D02*
X178826815Y-82267219D01*
X178826815Y-82267219D02*
X178922053Y-82314838D01*
X178922053Y-82314838D02*
X179017291Y-82410076D01*
X179017291Y-82410076D02*
X179064910Y-82600552D01*
X179064910Y-82600552D02*
X179064910Y-82933885D01*
X179064910Y-82933885D02*
X179017291Y-83124361D01*
X179017291Y-83124361D02*
X178922053Y-83219600D01*
X178922053Y-83219600D02*
X178826815Y-83267219D01*
X178826815Y-83267219D02*
X178636339Y-83267219D01*
X178636339Y-83267219D02*
X178541101Y-83219600D01*
X178541101Y-83219600D02*
X178445863Y-83124361D01*
X178445863Y-83124361D02*
X178398244Y-82933885D01*
X178398244Y-82933885D02*
X178398244Y-82600552D01*
X178398244Y-82600552D02*
X178445863Y-82410076D01*
X178445863Y-82410076D02*
X178541101Y-82314838D01*
X178541101Y-82314838D02*
X178636339Y-82267219D01*
X180017291Y-83267219D02*
X179445863Y-83267219D01*
X179731577Y-83267219D02*
X179731577Y-82267219D01*
X179731577Y-82267219D02*
X179636339Y-82410076D01*
X179636339Y-82410076D02*
X179541101Y-82505314D01*
X179541101Y-82505314D02*
X179445863Y-82552933D01*
X178093482Y-77314838D02*
X177998244Y-77267219D01*
X177998244Y-77267219D02*
X177855387Y-77267219D01*
X177855387Y-77267219D02*
X177712530Y-77314838D01*
X177712530Y-77314838D02*
X177617292Y-77410076D01*
X177617292Y-77410076D02*
X177569673Y-77505314D01*
X177569673Y-77505314D02*
X177522054Y-77695790D01*
X177522054Y-77695790D02*
X177522054Y-77838647D01*
X177522054Y-77838647D02*
X177569673Y-78029123D01*
X177569673Y-78029123D02*
X177617292Y-78124361D01*
X177617292Y-78124361D02*
X177712530Y-78219600D01*
X177712530Y-78219600D02*
X177855387Y-78267219D01*
X177855387Y-78267219D02*
X177950625Y-78267219D01*
X177950625Y-78267219D02*
X178093482Y-78219600D01*
X178093482Y-78219600D02*
X178141101Y-78171980D01*
X178141101Y-78171980D02*
X178141101Y-77838647D01*
X178141101Y-77838647D02*
X177950625Y-77838647D01*
X178569673Y-78267219D02*
X178569673Y-77267219D01*
X178569673Y-77267219D02*
X179141101Y-78267219D01*
X179141101Y-78267219D02*
X179141101Y-77267219D01*
X179617292Y-78267219D02*
X179617292Y-77267219D01*
X179617292Y-77267219D02*
X179855387Y-77267219D01*
X179855387Y-77267219D02*
X179998244Y-77314838D01*
X179998244Y-77314838D02*
X180093482Y-77410076D01*
X180093482Y-77410076D02*
X180141101Y-77505314D01*
X180141101Y-77505314D02*
X180188720Y-77695790D01*
X180188720Y-77695790D02*
X180188720Y-77838647D01*
X180188720Y-77838647D02*
X180141101Y-78029123D01*
X180141101Y-78029123D02*
X180093482Y-78124361D01*
X180093482Y-78124361D02*
X179998244Y-78219600D01*
X179998244Y-78219600D02*
X179855387Y-78267219D01*
X179855387Y-78267219D02*
X179617292Y-78267219D01*
X177969673Y-88467219D02*
X177969673Y-87467219D01*
X178636339Y-87467219D02*
X178826815Y-87467219D01*
X178826815Y-87467219D02*
X178922053Y-87514838D01*
X178922053Y-87514838D02*
X179017291Y-87610076D01*
X179017291Y-87610076D02*
X179064910Y-87800552D01*
X179064910Y-87800552D02*
X179064910Y-88133885D01*
X179064910Y-88133885D02*
X179017291Y-88324361D01*
X179017291Y-88324361D02*
X178922053Y-88419600D01*
X178922053Y-88419600D02*
X178826815Y-88467219D01*
X178826815Y-88467219D02*
X178636339Y-88467219D01*
X178636339Y-88467219D02*
X178541101Y-88419600D01*
X178541101Y-88419600D02*
X178445863Y-88324361D01*
X178445863Y-88324361D02*
X178398244Y-88133885D01*
X178398244Y-88133885D02*
X178398244Y-87800552D01*
X178398244Y-87800552D02*
X178445863Y-87610076D01*
X178445863Y-87610076D02*
X178541101Y-87514838D01*
X178541101Y-87514838D02*
X178636339Y-87467219D01*
X179398244Y-87467219D02*
X180017291Y-87467219D01*
X180017291Y-87467219D02*
X179683958Y-87848171D01*
X179683958Y-87848171D02*
X179826815Y-87848171D01*
X179826815Y-87848171D02*
X179922053Y-87895790D01*
X179922053Y-87895790D02*
X179969672Y-87943409D01*
X179969672Y-87943409D02*
X180017291Y-88038647D01*
X180017291Y-88038647D02*
X180017291Y-88276742D01*
X180017291Y-88276742D02*
X179969672Y-88371980D01*
X179969672Y-88371980D02*
X179922053Y-88419600D01*
X179922053Y-88419600D02*
X179826815Y-88467219D01*
X179826815Y-88467219D02*
X179541101Y-88467219D01*
X179541101Y-88467219D02*
X179445863Y-88419600D01*
X179445863Y-88419600D02*
X179398244Y-88371980D01*
X177969673Y-85867219D02*
X177969673Y-84867219D01*
X178636339Y-84867219D02*
X178826815Y-84867219D01*
X178826815Y-84867219D02*
X178922053Y-84914838D01*
X178922053Y-84914838D02*
X179017291Y-85010076D01*
X179017291Y-85010076D02*
X179064910Y-85200552D01*
X179064910Y-85200552D02*
X179064910Y-85533885D01*
X179064910Y-85533885D02*
X179017291Y-85724361D01*
X179017291Y-85724361D02*
X178922053Y-85819600D01*
X178922053Y-85819600D02*
X178826815Y-85867219D01*
X178826815Y-85867219D02*
X178636339Y-85867219D01*
X178636339Y-85867219D02*
X178541101Y-85819600D01*
X178541101Y-85819600D02*
X178445863Y-85724361D01*
X178445863Y-85724361D02*
X178398244Y-85533885D01*
X178398244Y-85533885D02*
X178398244Y-85200552D01*
X178398244Y-85200552D02*
X178445863Y-85010076D01*
X178445863Y-85010076D02*
X178541101Y-84914838D01*
X178541101Y-84914838D02*
X178636339Y-84867219D01*
X179445863Y-84962457D02*
X179493482Y-84914838D01*
X179493482Y-84914838D02*
X179588720Y-84867219D01*
X179588720Y-84867219D02*
X179826815Y-84867219D01*
X179826815Y-84867219D02*
X179922053Y-84914838D01*
X179922053Y-84914838D02*
X179969672Y-84962457D01*
X179969672Y-84962457D02*
X180017291Y-85057695D01*
X180017291Y-85057695D02*
X180017291Y-85152933D01*
X180017291Y-85152933D02*
X179969672Y-85295790D01*
X179969672Y-85295790D02*
X179398244Y-85867219D01*
X179398244Y-85867219D02*
X180017291Y-85867219D01*
X177969673Y-91067219D02*
X177969673Y-90067219D01*
X178636339Y-90067219D02*
X178826815Y-90067219D01*
X178826815Y-90067219D02*
X178922053Y-90114838D01*
X178922053Y-90114838D02*
X179017291Y-90210076D01*
X179017291Y-90210076D02*
X179064910Y-90400552D01*
X179064910Y-90400552D02*
X179064910Y-90733885D01*
X179064910Y-90733885D02*
X179017291Y-90924361D01*
X179017291Y-90924361D02*
X178922053Y-91019600D01*
X178922053Y-91019600D02*
X178826815Y-91067219D01*
X178826815Y-91067219D02*
X178636339Y-91067219D01*
X178636339Y-91067219D02*
X178541101Y-91019600D01*
X178541101Y-91019600D02*
X178445863Y-90924361D01*
X178445863Y-90924361D02*
X178398244Y-90733885D01*
X178398244Y-90733885D02*
X178398244Y-90400552D01*
X178398244Y-90400552D02*
X178445863Y-90210076D01*
X178445863Y-90210076D02*
X178541101Y-90114838D01*
X178541101Y-90114838D02*
X178636339Y-90067219D01*
X179922053Y-90400552D02*
X179922053Y-91067219D01*
X179683958Y-90019600D02*
X179445863Y-90733885D01*
X179445863Y-90733885D02*
X180064910Y-90733885D01*
X177969673Y-93667219D02*
X177969673Y-92667219D01*
X178636339Y-92667219D02*
X178826815Y-92667219D01*
X178826815Y-92667219D02*
X178922053Y-92714838D01*
X178922053Y-92714838D02*
X179017291Y-92810076D01*
X179017291Y-92810076D02*
X179064910Y-93000552D01*
X179064910Y-93000552D02*
X179064910Y-93333885D01*
X179064910Y-93333885D02*
X179017291Y-93524361D01*
X179017291Y-93524361D02*
X178922053Y-93619600D01*
X178922053Y-93619600D02*
X178826815Y-93667219D01*
X178826815Y-93667219D02*
X178636339Y-93667219D01*
X178636339Y-93667219D02*
X178541101Y-93619600D01*
X178541101Y-93619600D02*
X178445863Y-93524361D01*
X178445863Y-93524361D02*
X178398244Y-93333885D01*
X178398244Y-93333885D02*
X178398244Y-93000552D01*
X178398244Y-93000552D02*
X178445863Y-92810076D01*
X178445863Y-92810076D02*
X178541101Y-92714838D01*
X178541101Y-92714838D02*
X178636339Y-92667219D01*
X179969672Y-92667219D02*
X179493482Y-92667219D01*
X179493482Y-92667219D02*
X179445863Y-93143409D01*
X179445863Y-93143409D02*
X179493482Y-93095790D01*
X179493482Y-93095790D02*
X179588720Y-93048171D01*
X179588720Y-93048171D02*
X179826815Y-93048171D01*
X179826815Y-93048171D02*
X179922053Y-93095790D01*
X179922053Y-93095790D02*
X179969672Y-93143409D01*
X179969672Y-93143409D02*
X180017291Y-93238647D01*
X180017291Y-93238647D02*
X180017291Y-93476742D01*
X180017291Y-93476742D02*
X179969672Y-93571980D01*
X179969672Y-93571980D02*
X179922053Y-93619600D01*
X179922053Y-93619600D02*
X179826815Y-93667219D01*
X179826815Y-93667219D02*
X179588720Y-93667219D01*
X179588720Y-93667219D02*
X179493482Y-93619600D01*
X179493482Y-93619600D02*
X179445863Y-93571980D01*
X177969673Y-96067219D02*
X177969673Y-95067219D01*
X178636339Y-95067219D02*
X178826815Y-95067219D01*
X178826815Y-95067219D02*
X178922053Y-95114838D01*
X178922053Y-95114838D02*
X179017291Y-95210076D01*
X179017291Y-95210076D02*
X179064910Y-95400552D01*
X179064910Y-95400552D02*
X179064910Y-95733885D01*
X179064910Y-95733885D02*
X179017291Y-95924361D01*
X179017291Y-95924361D02*
X178922053Y-96019600D01*
X178922053Y-96019600D02*
X178826815Y-96067219D01*
X178826815Y-96067219D02*
X178636339Y-96067219D01*
X178636339Y-96067219D02*
X178541101Y-96019600D01*
X178541101Y-96019600D02*
X178445863Y-95924361D01*
X178445863Y-95924361D02*
X178398244Y-95733885D01*
X178398244Y-95733885D02*
X178398244Y-95400552D01*
X178398244Y-95400552D02*
X178445863Y-95210076D01*
X178445863Y-95210076D02*
X178541101Y-95114838D01*
X178541101Y-95114838D02*
X178636339Y-95067219D01*
X179922053Y-95067219D02*
X179731577Y-95067219D01*
X179731577Y-95067219D02*
X179636339Y-95114838D01*
X179636339Y-95114838D02*
X179588720Y-95162457D01*
X179588720Y-95162457D02*
X179493482Y-95305314D01*
X179493482Y-95305314D02*
X179445863Y-95495790D01*
X179445863Y-95495790D02*
X179445863Y-95876742D01*
X179445863Y-95876742D02*
X179493482Y-95971980D01*
X179493482Y-95971980D02*
X179541101Y-96019600D01*
X179541101Y-96019600D02*
X179636339Y-96067219D01*
X179636339Y-96067219D02*
X179826815Y-96067219D01*
X179826815Y-96067219D02*
X179922053Y-96019600D01*
X179922053Y-96019600D02*
X179969672Y-95971980D01*
X179969672Y-95971980D02*
X180017291Y-95876742D01*
X180017291Y-95876742D02*
X180017291Y-95638647D01*
X180017291Y-95638647D02*
X179969672Y-95543409D01*
X179969672Y-95543409D02*
X179922053Y-95495790D01*
X179922053Y-95495790D02*
X179826815Y-95448171D01*
X179826815Y-95448171D02*
X179636339Y-95448171D01*
X179636339Y-95448171D02*
X179541101Y-95495790D01*
X179541101Y-95495790D02*
X179493482Y-95543409D01*
X179493482Y-95543409D02*
X179445863Y-95638647D01*
D11*
X113303884Y-81348609D02*
X113637217Y-81348609D01*
X113780074Y-81872419D02*
X113303884Y-81872419D01*
X113303884Y-81872419D02*
X113303884Y-80872419D01*
X113303884Y-80872419D02*
X113780074Y-80872419D01*
X114208646Y-81491466D02*
X114970551Y-81491466D01*
X115446741Y-81205752D02*
X115446741Y-82205752D01*
X115446741Y-81253371D02*
X115541979Y-81205752D01*
X115541979Y-81205752D02*
X115732455Y-81205752D01*
X115732455Y-81205752D02*
X115827693Y-81253371D01*
X115827693Y-81253371D02*
X115875312Y-81300990D01*
X115875312Y-81300990D02*
X115922931Y-81396228D01*
X115922931Y-81396228D02*
X115922931Y-81681942D01*
X115922931Y-81681942D02*
X115875312Y-81777180D01*
X115875312Y-81777180D02*
X115827693Y-81824800D01*
X115827693Y-81824800D02*
X115732455Y-81872419D01*
X115732455Y-81872419D02*
X115541979Y-81872419D01*
X115541979Y-81872419D02*
X115446741Y-81824800D01*
X116780074Y-81872419D02*
X116780074Y-81348609D01*
X116780074Y-81348609D02*
X116732455Y-81253371D01*
X116732455Y-81253371D02*
X116637217Y-81205752D01*
X116637217Y-81205752D02*
X116446741Y-81205752D01*
X116446741Y-81205752D02*
X116351503Y-81253371D01*
X116780074Y-81824800D02*
X116684836Y-81872419D01*
X116684836Y-81872419D02*
X116446741Y-81872419D01*
X116446741Y-81872419D02*
X116351503Y-81824800D01*
X116351503Y-81824800D02*
X116303884Y-81729561D01*
X116303884Y-81729561D02*
X116303884Y-81634323D01*
X116303884Y-81634323D02*
X116351503Y-81539085D01*
X116351503Y-81539085D02*
X116446741Y-81491466D01*
X116446741Y-81491466D02*
X116684836Y-81491466D01*
X116684836Y-81491466D02*
X116780074Y-81443847D01*
X117256265Y-81205752D02*
X117256265Y-82205752D01*
X117256265Y-81253371D02*
X117351503Y-81205752D01*
X117351503Y-81205752D02*
X117541979Y-81205752D01*
X117541979Y-81205752D02*
X117637217Y-81253371D01*
X117637217Y-81253371D02*
X117684836Y-81300990D01*
X117684836Y-81300990D02*
X117732455Y-81396228D01*
X117732455Y-81396228D02*
X117732455Y-81681942D01*
X117732455Y-81681942D02*
X117684836Y-81777180D01*
X117684836Y-81777180D02*
X117637217Y-81824800D01*
X117637217Y-81824800D02*
X117541979Y-81872419D01*
X117541979Y-81872419D02*
X117351503Y-81872419D01*
X117351503Y-81872419D02*
X117256265Y-81824800D01*
X118541979Y-81824800D02*
X118446741Y-81872419D01*
X118446741Y-81872419D02*
X118256265Y-81872419D01*
X118256265Y-81872419D02*
X118161027Y-81824800D01*
X118161027Y-81824800D02*
X118113408Y-81729561D01*
X118113408Y-81729561D02*
X118113408Y-81348609D01*
X118113408Y-81348609D02*
X118161027Y-81253371D01*
X118161027Y-81253371D02*
X118256265Y-81205752D01*
X118256265Y-81205752D02*
X118446741Y-81205752D01*
X118446741Y-81205752D02*
X118541979Y-81253371D01*
X118541979Y-81253371D02*
X118589598Y-81348609D01*
X118589598Y-81348609D02*
X118589598Y-81443847D01*
X118589598Y-81443847D02*
X118113408Y-81539085D01*
X119018170Y-81872419D02*
X119018170Y-81205752D01*
X119018170Y-81396228D02*
X119065789Y-81300990D01*
X119065789Y-81300990D02*
X119113408Y-81253371D01*
X119113408Y-81253371D02*
X119208646Y-81205752D01*
X119208646Y-81205752D02*
X119303884Y-81205752D01*
X120827694Y-81872419D02*
X120827694Y-80872419D01*
X120827694Y-81824800D02*
X120732456Y-81872419D01*
X120732456Y-81872419D02*
X120541980Y-81872419D01*
X120541980Y-81872419D02*
X120446742Y-81824800D01*
X120446742Y-81824800D02*
X120399123Y-81777180D01*
X120399123Y-81777180D02*
X120351504Y-81681942D01*
X120351504Y-81681942D02*
X120351504Y-81396228D01*
X120351504Y-81396228D02*
X120399123Y-81300990D01*
X120399123Y-81300990D02*
X120446742Y-81253371D01*
X120446742Y-81253371D02*
X120541980Y-81205752D01*
X120541980Y-81205752D02*
X120732456Y-81205752D01*
X120732456Y-81205752D02*
X120827694Y-81253371D01*
X121303885Y-81872419D02*
X121303885Y-81205752D01*
X121303885Y-80872419D02*
X121256266Y-80920038D01*
X121256266Y-80920038D02*
X121303885Y-80967657D01*
X121303885Y-80967657D02*
X121351504Y-80920038D01*
X121351504Y-80920038D02*
X121303885Y-80872419D01*
X121303885Y-80872419D02*
X121303885Y-80967657D01*
X121732456Y-81824800D02*
X121827694Y-81872419D01*
X121827694Y-81872419D02*
X122018170Y-81872419D01*
X122018170Y-81872419D02*
X122113408Y-81824800D01*
X122113408Y-81824800D02*
X122161027Y-81729561D01*
X122161027Y-81729561D02*
X122161027Y-81681942D01*
X122161027Y-81681942D02*
X122113408Y-81586704D01*
X122113408Y-81586704D02*
X122018170Y-81539085D01*
X122018170Y-81539085D02*
X121875313Y-81539085D01*
X121875313Y-81539085D02*
X121780075Y-81491466D01*
X121780075Y-81491466D02*
X121732456Y-81396228D01*
X121732456Y-81396228D02*
X121732456Y-81348609D01*
X121732456Y-81348609D02*
X121780075Y-81253371D01*
X121780075Y-81253371D02*
X121875313Y-81205752D01*
X121875313Y-81205752D02*
X122018170Y-81205752D01*
X122018170Y-81205752D02*
X122113408Y-81253371D01*
X122589599Y-81205752D02*
X122589599Y-82205752D01*
X122589599Y-81253371D02*
X122684837Y-81205752D01*
X122684837Y-81205752D02*
X122875313Y-81205752D01*
X122875313Y-81205752D02*
X122970551Y-81253371D01*
X122970551Y-81253371D02*
X123018170Y-81300990D01*
X123018170Y-81300990D02*
X123065789Y-81396228D01*
X123065789Y-81396228D02*
X123065789Y-81681942D01*
X123065789Y-81681942D02*
X123018170Y-81777180D01*
X123018170Y-81777180D02*
X122970551Y-81824800D01*
X122970551Y-81824800D02*
X122875313Y-81872419D01*
X122875313Y-81872419D02*
X122684837Y-81872419D01*
X122684837Y-81872419D02*
X122589599Y-81824800D01*
X123637218Y-81872419D02*
X123541980Y-81824800D01*
X123541980Y-81824800D02*
X123494361Y-81729561D01*
X123494361Y-81729561D02*
X123494361Y-80872419D01*
X124446742Y-81872419D02*
X124446742Y-81348609D01*
X124446742Y-81348609D02*
X124399123Y-81253371D01*
X124399123Y-81253371D02*
X124303885Y-81205752D01*
X124303885Y-81205752D02*
X124113409Y-81205752D01*
X124113409Y-81205752D02*
X124018171Y-81253371D01*
X124446742Y-81824800D02*
X124351504Y-81872419D01*
X124351504Y-81872419D02*
X124113409Y-81872419D01*
X124113409Y-81872419D02*
X124018171Y-81824800D01*
X124018171Y-81824800D02*
X123970552Y-81729561D01*
X123970552Y-81729561D02*
X123970552Y-81634323D01*
X123970552Y-81634323D02*
X124018171Y-81539085D01*
X124018171Y-81539085D02*
X124113409Y-81491466D01*
X124113409Y-81491466D02*
X124351504Y-81491466D01*
X124351504Y-81491466D02*
X124446742Y-81443847D01*
X124827695Y-81205752D02*
X125065790Y-81872419D01*
X125303885Y-81205752D02*
X125065790Y-81872419D01*
X125065790Y-81872419D02*
X124970552Y-82110514D01*
X124970552Y-82110514D02*
X124922933Y-82158133D01*
X124922933Y-82158133D02*
X124827695Y-82205752D01*
X126732457Y-82253371D02*
X126684838Y-82205752D01*
X126684838Y-82205752D02*
X126589600Y-82062895D01*
X126589600Y-82062895D02*
X126541981Y-81967657D01*
X126541981Y-81967657D02*
X126494362Y-81824800D01*
X126494362Y-81824800D02*
X126446743Y-81586704D01*
X126446743Y-81586704D02*
X126446743Y-81396228D01*
X126446743Y-81396228D02*
X126494362Y-81158133D01*
X126494362Y-81158133D02*
X126541981Y-81015276D01*
X126541981Y-81015276D02*
X126589600Y-80920038D01*
X126589600Y-80920038D02*
X126684838Y-80777180D01*
X126684838Y-80777180D02*
X126732457Y-80729561D01*
X127684838Y-81872419D02*
X127351505Y-81396228D01*
X127113410Y-81872419D02*
X127113410Y-80872419D01*
X127113410Y-80872419D02*
X127494362Y-80872419D01*
X127494362Y-80872419D02*
X127589600Y-80920038D01*
X127589600Y-80920038D02*
X127637219Y-80967657D01*
X127637219Y-80967657D02*
X127684838Y-81062895D01*
X127684838Y-81062895D02*
X127684838Y-81205752D01*
X127684838Y-81205752D02*
X127637219Y-81300990D01*
X127637219Y-81300990D02*
X127589600Y-81348609D01*
X127589600Y-81348609D02*
X127494362Y-81396228D01*
X127494362Y-81396228D02*
X127113410Y-81396228D01*
X128113410Y-81872419D02*
X128113410Y-80872419D01*
X128589600Y-81872419D02*
X128589600Y-80872419D01*
X128589600Y-80872419D02*
X128970552Y-80872419D01*
X128970552Y-80872419D02*
X129065790Y-80920038D01*
X129065790Y-80920038D02*
X129113409Y-80967657D01*
X129113409Y-80967657D02*
X129161028Y-81062895D01*
X129161028Y-81062895D02*
X129161028Y-81205752D01*
X129161028Y-81205752D02*
X129113409Y-81300990D01*
X129113409Y-81300990D02*
X129065790Y-81348609D01*
X129065790Y-81348609D02*
X128970552Y-81396228D01*
X128970552Y-81396228D02*
X128589600Y-81396228D01*
X130351505Y-81872419D02*
X130351505Y-80872419D01*
X130351505Y-80872419D02*
X130589600Y-80872419D01*
X130589600Y-80872419D02*
X130732457Y-80920038D01*
X130732457Y-80920038D02*
X130827695Y-81015276D01*
X130827695Y-81015276D02*
X130875314Y-81110514D01*
X130875314Y-81110514D02*
X130922933Y-81300990D01*
X130922933Y-81300990D02*
X130922933Y-81443847D01*
X130922933Y-81443847D02*
X130875314Y-81634323D01*
X130875314Y-81634323D02*
X130827695Y-81729561D01*
X130827695Y-81729561D02*
X130732457Y-81824800D01*
X130732457Y-81824800D02*
X130589600Y-81872419D01*
X130589600Y-81872419D02*
X130351505Y-81872419D01*
X131303886Y-81824800D02*
X131446743Y-81872419D01*
X131446743Y-81872419D02*
X131684838Y-81872419D01*
X131684838Y-81872419D02*
X131780076Y-81824800D01*
X131780076Y-81824800D02*
X131827695Y-81777180D01*
X131827695Y-81777180D02*
X131875314Y-81681942D01*
X131875314Y-81681942D02*
X131875314Y-81586704D01*
X131875314Y-81586704D02*
X131827695Y-81491466D01*
X131827695Y-81491466D02*
X131780076Y-81443847D01*
X131780076Y-81443847D02*
X131684838Y-81396228D01*
X131684838Y-81396228D02*
X131494362Y-81348609D01*
X131494362Y-81348609D02*
X131399124Y-81300990D01*
X131399124Y-81300990D02*
X131351505Y-81253371D01*
X131351505Y-81253371D02*
X131303886Y-81158133D01*
X131303886Y-81158133D02*
X131303886Y-81062895D01*
X131303886Y-81062895D02*
X131351505Y-80967657D01*
X131351505Y-80967657D02*
X131399124Y-80920038D01*
X131399124Y-80920038D02*
X131494362Y-80872419D01*
X131494362Y-80872419D02*
X131732457Y-80872419D01*
X131732457Y-80872419D02*
X131875314Y-80920038D01*
X132208648Y-80872419D02*
X132827695Y-80872419D01*
X132827695Y-80872419D02*
X132494362Y-81253371D01*
X132494362Y-81253371D02*
X132637219Y-81253371D01*
X132637219Y-81253371D02*
X132732457Y-81300990D01*
X132732457Y-81300990D02*
X132780076Y-81348609D01*
X132780076Y-81348609D02*
X132827695Y-81443847D01*
X132827695Y-81443847D02*
X132827695Y-81681942D01*
X132827695Y-81681942D02*
X132780076Y-81777180D01*
X132780076Y-81777180D02*
X132732457Y-81824800D01*
X132732457Y-81824800D02*
X132637219Y-81872419D01*
X132637219Y-81872419D02*
X132351505Y-81872419D01*
X132351505Y-81872419D02*
X132256267Y-81824800D01*
X132256267Y-81824800D02*
X132208648Y-81777180D01*
X133208648Y-80967657D02*
X133256267Y-80920038D01*
X133256267Y-80920038D02*
X133351505Y-80872419D01*
X133351505Y-80872419D02*
X133589600Y-80872419D01*
X133589600Y-80872419D02*
X133684838Y-80920038D01*
X133684838Y-80920038D02*
X133732457Y-80967657D01*
X133732457Y-80967657D02*
X133780076Y-81062895D01*
X133780076Y-81062895D02*
X133780076Y-81158133D01*
X133780076Y-81158133D02*
X133732457Y-81300990D01*
X133732457Y-81300990D02*
X133161029Y-81872419D01*
X133161029Y-81872419D02*
X133780076Y-81872419D01*
X134113410Y-80872419D02*
X134732457Y-80872419D01*
X134732457Y-80872419D02*
X134399124Y-81253371D01*
X134399124Y-81253371D02*
X134541981Y-81253371D01*
X134541981Y-81253371D02*
X134637219Y-81300990D01*
X134637219Y-81300990D02*
X134684838Y-81348609D01*
X134684838Y-81348609D02*
X134732457Y-81443847D01*
X134732457Y-81443847D02*
X134732457Y-81681942D01*
X134732457Y-81681942D02*
X134684838Y-81777180D01*
X134684838Y-81777180D02*
X134637219Y-81824800D01*
X134637219Y-81824800D02*
X134541981Y-81872419D01*
X134541981Y-81872419D02*
X134256267Y-81872419D01*
X134256267Y-81872419D02*
X134161029Y-81824800D01*
X134161029Y-81824800D02*
X134113410Y-81777180D01*
X135684838Y-81872419D02*
X135113410Y-81872419D01*
X135399124Y-81872419D02*
X135399124Y-80872419D01*
X135399124Y-80872419D02*
X135303886Y-81015276D01*
X135303886Y-81015276D02*
X135208648Y-81110514D01*
X135208648Y-81110514D02*
X135113410Y-81158133D01*
X136113410Y-81872419D02*
X136113410Y-80872419D01*
X136113410Y-80872419D02*
X136446743Y-81586704D01*
X136446743Y-81586704D02*
X136780076Y-80872419D01*
X136780076Y-80872419D02*
X136780076Y-81872419D01*
X137161029Y-80872419D02*
X137827695Y-80872419D01*
X137827695Y-80872419D02*
X137161029Y-81872419D01*
X137161029Y-81872419D02*
X137827695Y-81872419D01*
X138113410Y-82253371D02*
X138161029Y-82205752D01*
X138161029Y-82205752D02*
X138256267Y-82062895D01*
X138256267Y-82062895D02*
X138303886Y-81967657D01*
X138303886Y-81967657D02*
X138351505Y-81824800D01*
X138351505Y-81824800D02*
X138399124Y-81586704D01*
X138399124Y-81586704D02*
X138399124Y-81396228D01*
X138399124Y-81396228D02*
X138351505Y-81158133D01*
X138351505Y-81158133D02*
X138303886Y-81015276D01*
X138303886Y-81015276D02*
X138256267Y-80920038D01*
X138256267Y-80920038D02*
X138161029Y-80777180D01*
X138161029Y-80777180D02*
X138113410Y-80729561D01*
X112585786Y-112000000D02*
X112585786Y-80000000D01*
X112585786Y-112000000D02*
X150585787Y-112000000D01*
X112600000Y-80000000D02*
X150600000Y-80089651D01*
X113053884Y-109762475D02*
X113053884Y-108762475D01*
X113053884Y-108762475D02*
X113625312Y-109762475D01*
X113625312Y-109762475D02*
X113625312Y-108762475D01*
X114244360Y-109762475D02*
X114149122Y-109714856D01*
X114149122Y-109714856D02*
X114101503Y-109667236D01*
X114101503Y-109667236D02*
X114053884Y-109571998D01*
X114053884Y-109571998D02*
X114053884Y-109286284D01*
X114053884Y-109286284D02*
X114101503Y-109191046D01*
X114101503Y-109191046D02*
X114149122Y-109143427D01*
X114149122Y-109143427D02*
X114244360Y-109095808D01*
X114244360Y-109095808D02*
X114387217Y-109095808D01*
X114387217Y-109095808D02*
X114482455Y-109143427D01*
X114482455Y-109143427D02*
X114530074Y-109191046D01*
X114530074Y-109191046D02*
X114577693Y-109286284D01*
X114577693Y-109286284D02*
X114577693Y-109571998D01*
X114577693Y-109571998D02*
X114530074Y-109667236D01*
X114530074Y-109667236D02*
X114482455Y-109714856D01*
X114482455Y-109714856D02*
X114387217Y-109762475D01*
X114387217Y-109762475D02*
X114244360Y-109762475D01*
X114863408Y-109095808D02*
X115244360Y-109095808D01*
X115006265Y-108762475D02*
X115006265Y-109619617D01*
X115006265Y-109619617D02*
X115053884Y-109714856D01*
X115053884Y-109714856D02*
X115149122Y-109762475D01*
X115149122Y-109762475D02*
X115244360Y-109762475D01*
X115577694Y-109762475D02*
X115577694Y-108762475D01*
X116006265Y-109762475D02*
X116006265Y-109238665D01*
X116006265Y-109238665D02*
X115958646Y-109143427D01*
X115958646Y-109143427D02*
X115863408Y-109095808D01*
X115863408Y-109095808D02*
X115720551Y-109095808D01*
X115720551Y-109095808D02*
X115625313Y-109143427D01*
X115625313Y-109143427D02*
X115577694Y-109191046D01*
X116482456Y-109762475D02*
X116482456Y-109095808D01*
X116482456Y-108762475D02*
X116434837Y-108810094D01*
X116434837Y-108810094D02*
X116482456Y-108857713D01*
X116482456Y-108857713D02*
X116530075Y-108810094D01*
X116530075Y-108810094D02*
X116482456Y-108762475D01*
X116482456Y-108762475D02*
X116482456Y-108857713D01*
X116958646Y-109095808D02*
X116958646Y-109762475D01*
X116958646Y-109191046D02*
X117006265Y-109143427D01*
X117006265Y-109143427D02*
X117101503Y-109095808D01*
X117101503Y-109095808D02*
X117244360Y-109095808D01*
X117244360Y-109095808D02*
X117339598Y-109143427D01*
X117339598Y-109143427D02*
X117387217Y-109238665D01*
X117387217Y-109238665D02*
X117387217Y-109762475D01*
X118291979Y-109095808D02*
X118291979Y-109905332D01*
X118291979Y-109905332D02*
X118244360Y-110000570D01*
X118244360Y-110000570D02*
X118196741Y-110048189D01*
X118196741Y-110048189D02*
X118101503Y-110095808D01*
X118101503Y-110095808D02*
X117958646Y-110095808D01*
X117958646Y-110095808D02*
X117863408Y-110048189D01*
X118291979Y-109714856D02*
X118196741Y-109762475D01*
X118196741Y-109762475D02*
X118006265Y-109762475D01*
X118006265Y-109762475D02*
X117911027Y-109714856D01*
X117911027Y-109714856D02*
X117863408Y-109667236D01*
X117863408Y-109667236D02*
X117815789Y-109571998D01*
X117815789Y-109571998D02*
X117815789Y-109286284D01*
X117815789Y-109286284D02*
X117863408Y-109191046D01*
X117863408Y-109191046D02*
X117911027Y-109143427D01*
X117911027Y-109143427D02*
X118006265Y-109095808D01*
X118006265Y-109095808D02*
X118196741Y-109095808D01*
X118196741Y-109095808D02*
X118291979Y-109143427D01*
X119387218Y-109095808D02*
X119768170Y-109095808D01*
X119530075Y-108762475D02*
X119530075Y-109619617D01*
X119530075Y-109619617D02*
X119577694Y-109714856D01*
X119577694Y-109714856D02*
X119672932Y-109762475D01*
X119672932Y-109762475D02*
X119768170Y-109762475D01*
X120244361Y-109762475D02*
X120149123Y-109714856D01*
X120149123Y-109714856D02*
X120101504Y-109667236D01*
X120101504Y-109667236D02*
X120053885Y-109571998D01*
X120053885Y-109571998D02*
X120053885Y-109286284D01*
X120053885Y-109286284D02*
X120101504Y-109191046D01*
X120101504Y-109191046D02*
X120149123Y-109143427D01*
X120149123Y-109143427D02*
X120244361Y-109095808D01*
X120244361Y-109095808D02*
X120387218Y-109095808D01*
X120387218Y-109095808D02*
X120482456Y-109143427D01*
X120482456Y-109143427D02*
X120530075Y-109191046D01*
X120530075Y-109191046D02*
X120577694Y-109286284D01*
X120577694Y-109286284D02*
X120577694Y-109571998D01*
X120577694Y-109571998D02*
X120530075Y-109667236D01*
X120530075Y-109667236D02*
X120482456Y-109714856D01*
X120482456Y-109714856D02*
X120387218Y-109762475D01*
X120387218Y-109762475D02*
X120244361Y-109762475D01*
X121720552Y-109714856D02*
X121815790Y-109762475D01*
X121815790Y-109762475D02*
X122006266Y-109762475D01*
X122006266Y-109762475D02*
X122101504Y-109714856D01*
X122101504Y-109714856D02*
X122149123Y-109619617D01*
X122149123Y-109619617D02*
X122149123Y-109571998D01*
X122149123Y-109571998D02*
X122101504Y-109476760D01*
X122101504Y-109476760D02*
X122006266Y-109429141D01*
X122006266Y-109429141D02*
X121863409Y-109429141D01*
X121863409Y-109429141D02*
X121768171Y-109381522D01*
X121768171Y-109381522D02*
X121720552Y-109286284D01*
X121720552Y-109286284D02*
X121720552Y-109238665D01*
X121720552Y-109238665D02*
X121768171Y-109143427D01*
X121768171Y-109143427D02*
X121863409Y-109095808D01*
X121863409Y-109095808D02*
X122006266Y-109095808D01*
X122006266Y-109095808D02*
X122101504Y-109143427D01*
X122958647Y-109714856D02*
X122863409Y-109762475D01*
X122863409Y-109762475D02*
X122672933Y-109762475D01*
X122672933Y-109762475D02*
X122577695Y-109714856D01*
X122577695Y-109714856D02*
X122530076Y-109619617D01*
X122530076Y-109619617D02*
X122530076Y-109238665D01*
X122530076Y-109238665D02*
X122577695Y-109143427D01*
X122577695Y-109143427D02*
X122672933Y-109095808D01*
X122672933Y-109095808D02*
X122863409Y-109095808D01*
X122863409Y-109095808D02*
X122958647Y-109143427D01*
X122958647Y-109143427D02*
X123006266Y-109238665D01*
X123006266Y-109238665D02*
X123006266Y-109333903D01*
X123006266Y-109333903D02*
X122530076Y-109429141D01*
X123815790Y-109714856D02*
X123720552Y-109762475D01*
X123720552Y-109762475D02*
X123530076Y-109762475D01*
X123530076Y-109762475D02*
X123434838Y-109714856D01*
X123434838Y-109714856D02*
X123387219Y-109619617D01*
X123387219Y-109619617D02*
X123387219Y-109238665D01*
X123387219Y-109238665D02*
X123434838Y-109143427D01*
X123434838Y-109143427D02*
X123530076Y-109095808D01*
X123530076Y-109095808D02*
X123720552Y-109095808D01*
X123720552Y-109095808D02*
X123815790Y-109143427D01*
X123815790Y-109143427D02*
X123863409Y-109238665D01*
X123863409Y-109238665D02*
X123863409Y-109333903D01*
X123863409Y-109333903D02*
X123387219Y-109429141D01*
X125053886Y-109762475D02*
X125053886Y-108762475D01*
X125482457Y-109762475D02*
X125482457Y-109238665D01*
X125482457Y-109238665D02*
X125434838Y-109143427D01*
X125434838Y-109143427D02*
X125339600Y-109095808D01*
X125339600Y-109095808D02*
X125196743Y-109095808D01*
X125196743Y-109095808D02*
X125101505Y-109143427D01*
X125101505Y-109143427D02*
X125053886Y-109191046D01*
X126339600Y-109714856D02*
X126244362Y-109762475D01*
X126244362Y-109762475D02*
X126053886Y-109762475D01*
X126053886Y-109762475D02*
X125958648Y-109714856D01*
X125958648Y-109714856D02*
X125911029Y-109619617D01*
X125911029Y-109619617D02*
X125911029Y-109238665D01*
X125911029Y-109238665D02*
X125958648Y-109143427D01*
X125958648Y-109143427D02*
X126053886Y-109095808D01*
X126053886Y-109095808D02*
X126244362Y-109095808D01*
X126244362Y-109095808D02*
X126339600Y-109143427D01*
X126339600Y-109143427D02*
X126387219Y-109238665D01*
X126387219Y-109238665D02*
X126387219Y-109333903D01*
X126387219Y-109333903D02*
X125911029Y-109429141D01*
X126815791Y-109762475D02*
X126815791Y-109095808D01*
X126815791Y-109286284D02*
X126863410Y-109191046D01*
X126863410Y-109191046D02*
X126911029Y-109143427D01*
X126911029Y-109143427D02*
X127006267Y-109095808D01*
X127006267Y-109095808D02*
X127101505Y-109095808D01*
X127815791Y-109714856D02*
X127720553Y-109762475D01*
X127720553Y-109762475D02*
X127530077Y-109762475D01*
X127530077Y-109762475D02*
X127434839Y-109714856D01*
X127434839Y-109714856D02*
X127387220Y-109619617D01*
X127387220Y-109619617D02*
X127387220Y-109238665D01*
X127387220Y-109238665D02*
X127434839Y-109143427D01*
X127434839Y-109143427D02*
X127530077Y-109095808D01*
X127530077Y-109095808D02*
X127720553Y-109095808D01*
X127720553Y-109095808D02*
X127815791Y-109143427D01*
X127815791Y-109143427D02*
X127863410Y-109238665D01*
X127863410Y-109238665D02*
X127863410Y-109333903D01*
X127863410Y-109333903D02*
X127387220Y-109429141D01*
X129053887Y-109667236D02*
X129101506Y-109714856D01*
X129101506Y-109714856D02*
X129053887Y-109762475D01*
X129053887Y-109762475D02*
X129006268Y-109714856D01*
X129006268Y-109714856D02*
X129053887Y-109667236D01*
X129053887Y-109667236D02*
X129053887Y-109762475D01*
X129053887Y-109143427D02*
X129101506Y-109191046D01*
X129101506Y-109191046D02*
X129053887Y-109238665D01*
X129053887Y-109238665D02*
X129006268Y-109191046D01*
X129006268Y-109191046D02*
X129053887Y-109143427D01*
X129053887Y-109143427D02*
X129053887Y-109238665D01*
X129434839Y-108762475D02*
X130053886Y-108762475D01*
X130053886Y-108762475D02*
X129720553Y-109143427D01*
X129720553Y-109143427D02*
X129863410Y-109143427D01*
X129863410Y-109143427D02*
X129958648Y-109191046D01*
X129958648Y-109191046D02*
X130006267Y-109238665D01*
X130006267Y-109238665D02*
X130053886Y-109333903D01*
X130053886Y-109333903D02*
X130053886Y-109571998D01*
X130053886Y-109571998D02*
X130006267Y-109667236D01*
X130006267Y-109667236D02*
X129958648Y-109714856D01*
X129958648Y-109714856D02*
X129863410Y-109762475D01*
X129863410Y-109762475D02*
X129577696Y-109762475D01*
X129577696Y-109762475D02*
X129482458Y-109714856D01*
X129482458Y-109714856D02*
X129434839Y-109667236D01*
X113053884Y-111372419D02*
X113053884Y-110372419D01*
X113053884Y-110848609D02*
X113625312Y-110848609D01*
X113625312Y-111372419D02*
X113625312Y-110372419D01*
X114530074Y-111372419D02*
X114530074Y-110848609D01*
X114530074Y-110848609D02*
X114482455Y-110753371D01*
X114482455Y-110753371D02*
X114387217Y-110705752D01*
X114387217Y-110705752D02*
X114196741Y-110705752D01*
X114196741Y-110705752D02*
X114101503Y-110753371D01*
X114530074Y-111324800D02*
X114434836Y-111372419D01*
X114434836Y-111372419D02*
X114196741Y-111372419D01*
X114196741Y-111372419D02*
X114101503Y-111324800D01*
X114101503Y-111324800D02*
X114053884Y-111229561D01*
X114053884Y-111229561D02*
X114053884Y-111134323D01*
X114053884Y-111134323D02*
X114101503Y-111039085D01*
X114101503Y-111039085D02*
X114196741Y-110991466D01*
X114196741Y-110991466D02*
X114434836Y-110991466D01*
X114434836Y-110991466D02*
X114530074Y-110943847D01*
X115149122Y-111372419D02*
X115053884Y-111324800D01*
X115053884Y-111324800D02*
X115006265Y-111277180D01*
X115006265Y-111277180D02*
X114958646Y-111181942D01*
X114958646Y-111181942D02*
X114958646Y-110896228D01*
X114958646Y-110896228D02*
X115006265Y-110800990D01*
X115006265Y-110800990D02*
X115053884Y-110753371D01*
X115053884Y-110753371D02*
X115149122Y-110705752D01*
X115149122Y-110705752D02*
X115291979Y-110705752D01*
X115291979Y-110705752D02*
X115387217Y-110753371D01*
X115387217Y-110753371D02*
X115434836Y-110800990D01*
X115434836Y-110800990D02*
X115482455Y-110896228D01*
X115482455Y-110896228D02*
X115482455Y-111181942D01*
X115482455Y-111181942D02*
X115434836Y-111277180D01*
X115434836Y-111277180D02*
X115387217Y-111324800D01*
X115387217Y-111324800D02*
X115291979Y-111372419D01*
X115291979Y-111372419D02*
X115149122Y-111372419D01*
X115815789Y-110705752D02*
X116053884Y-111372419D01*
X116291979Y-110705752D02*
X116053884Y-111372419D01*
X116053884Y-111372419D02*
X115958646Y-111610514D01*
X115958646Y-111610514D02*
X115911027Y-111658133D01*
X115911027Y-111658133D02*
X115815789Y-111705752D01*
X117101503Y-111372419D02*
X117101503Y-110848609D01*
X117101503Y-110848609D02*
X117053884Y-110753371D01*
X117053884Y-110753371D02*
X116958646Y-110705752D01*
X116958646Y-110705752D02*
X116768170Y-110705752D01*
X116768170Y-110705752D02*
X116672932Y-110753371D01*
X117101503Y-111324800D02*
X117006265Y-111372419D01*
X117006265Y-111372419D02*
X116768170Y-111372419D01*
X116768170Y-111372419D02*
X116672932Y-111324800D01*
X116672932Y-111324800D02*
X116625313Y-111229561D01*
X116625313Y-111229561D02*
X116625313Y-111134323D01*
X116625313Y-111134323D02*
X116672932Y-111039085D01*
X116672932Y-111039085D02*
X116768170Y-110991466D01*
X116768170Y-110991466D02*
X117006265Y-110991466D01*
X117006265Y-110991466D02*
X117101503Y-110943847D01*
X117577694Y-110705752D02*
X117577694Y-111372419D01*
X117577694Y-110800990D02*
X117625313Y-110753371D01*
X117625313Y-110753371D02*
X117720551Y-110705752D01*
X117720551Y-110705752D02*
X117863408Y-110705752D01*
X117863408Y-110705752D02*
X117958646Y-110753371D01*
X117958646Y-110753371D02*
X118006265Y-110848609D01*
X118006265Y-110848609D02*
X118006265Y-111372419D01*
X119720551Y-111372419D02*
X119244361Y-111372419D01*
X119244361Y-111372419D02*
X119244361Y-110372419D01*
X120053885Y-111372419D02*
X120053885Y-110705752D01*
X120053885Y-110372419D02*
X120006266Y-110420038D01*
X120006266Y-110420038D02*
X120053885Y-110467657D01*
X120053885Y-110467657D02*
X120101504Y-110420038D01*
X120101504Y-110420038D02*
X120053885Y-110372419D01*
X120053885Y-110372419D02*
X120053885Y-110467657D01*
X121577694Y-111753371D02*
X121530075Y-111705752D01*
X121530075Y-111705752D02*
X121434837Y-111562895D01*
X121434837Y-111562895D02*
X121387218Y-111467657D01*
X121387218Y-111467657D02*
X121339599Y-111324800D01*
X121339599Y-111324800D02*
X121291980Y-111086704D01*
X121291980Y-111086704D02*
X121291980Y-110896228D01*
X121291980Y-110896228D02*
X121339599Y-110658133D01*
X121339599Y-110658133D02*
X121387218Y-110515276D01*
X121387218Y-110515276D02*
X121434837Y-110420038D01*
X121434837Y-110420038D02*
X121530075Y-110277180D01*
X121530075Y-110277180D02*
X121577694Y-110229561D01*
X121958647Y-111372419D02*
X121958647Y-110372419D01*
X122387218Y-111372419D02*
X122387218Y-110848609D01*
X122387218Y-110848609D02*
X122339599Y-110753371D01*
X122339599Y-110753371D02*
X122244361Y-110705752D01*
X122244361Y-110705752D02*
X122101504Y-110705752D01*
X122101504Y-110705752D02*
X122006266Y-110753371D01*
X122006266Y-110753371D02*
X121958647Y-110800990D01*
X123291980Y-111372419D02*
X123291980Y-110848609D01*
X123291980Y-110848609D02*
X123244361Y-110753371D01*
X123244361Y-110753371D02*
X123149123Y-110705752D01*
X123149123Y-110705752D02*
X122958647Y-110705752D01*
X122958647Y-110705752D02*
X122863409Y-110753371D01*
X123291980Y-111324800D02*
X123196742Y-111372419D01*
X123196742Y-111372419D02*
X122958647Y-111372419D01*
X122958647Y-111372419D02*
X122863409Y-111324800D01*
X122863409Y-111324800D02*
X122815790Y-111229561D01*
X122815790Y-111229561D02*
X122815790Y-111134323D01*
X122815790Y-111134323D02*
X122863409Y-111039085D01*
X122863409Y-111039085D02*
X122958647Y-110991466D01*
X122958647Y-110991466D02*
X123196742Y-110991466D01*
X123196742Y-110991466D02*
X123291980Y-110943847D01*
X123911028Y-111372419D02*
X123815790Y-111324800D01*
X123815790Y-111324800D02*
X123768171Y-111277180D01*
X123768171Y-111277180D02*
X123720552Y-111181942D01*
X123720552Y-111181942D02*
X123720552Y-110896228D01*
X123720552Y-110896228D02*
X123768171Y-110800990D01*
X123768171Y-110800990D02*
X123815790Y-110753371D01*
X123815790Y-110753371D02*
X123911028Y-110705752D01*
X123911028Y-110705752D02*
X124053885Y-110705752D01*
X124053885Y-110705752D02*
X124149123Y-110753371D01*
X124149123Y-110753371D02*
X124196742Y-110800990D01*
X124196742Y-110800990D02*
X124244361Y-110896228D01*
X124244361Y-110896228D02*
X124244361Y-111181942D01*
X124244361Y-111181942D02*
X124196742Y-111277180D01*
X124196742Y-111277180D02*
X124149123Y-111324800D01*
X124149123Y-111324800D02*
X124053885Y-111372419D01*
X124053885Y-111372419D02*
X123911028Y-111372419D01*
X124577695Y-110705752D02*
X124815790Y-111372419D01*
X125053885Y-110705752D02*
X124815790Y-111372419D01*
X124815790Y-111372419D02*
X124720552Y-111610514D01*
X124720552Y-111610514D02*
X124672933Y-111658133D01*
X124672933Y-111658133D02*
X124577695Y-111705752D01*
X125863409Y-111372419D02*
X125863409Y-110848609D01*
X125863409Y-110848609D02*
X125815790Y-110753371D01*
X125815790Y-110753371D02*
X125720552Y-110705752D01*
X125720552Y-110705752D02*
X125530076Y-110705752D01*
X125530076Y-110705752D02*
X125434838Y-110753371D01*
X125863409Y-111324800D02*
X125768171Y-111372419D01*
X125768171Y-111372419D02*
X125530076Y-111372419D01*
X125530076Y-111372419D02*
X125434838Y-111324800D01*
X125434838Y-111324800D02*
X125387219Y-111229561D01*
X125387219Y-111229561D02*
X125387219Y-111134323D01*
X125387219Y-111134323D02*
X125434838Y-111039085D01*
X125434838Y-111039085D02*
X125530076Y-110991466D01*
X125530076Y-110991466D02*
X125768171Y-110991466D01*
X125768171Y-110991466D02*
X125863409Y-110943847D01*
X126339600Y-110705752D02*
X126339600Y-111372419D01*
X126339600Y-110800990D02*
X126387219Y-110753371D01*
X126387219Y-110753371D02*
X126482457Y-110705752D01*
X126482457Y-110705752D02*
X126625314Y-110705752D01*
X126625314Y-110705752D02*
X126720552Y-110753371D01*
X126720552Y-110753371D02*
X126768171Y-110848609D01*
X126768171Y-110848609D02*
X126768171Y-111372419D01*
X127387219Y-111372419D02*
X127291981Y-111324800D01*
X127291981Y-111324800D02*
X127244362Y-111229561D01*
X127244362Y-111229561D02*
X127244362Y-110372419D01*
X127768172Y-111372419D02*
X127768172Y-110705752D01*
X127768172Y-110372419D02*
X127720553Y-110420038D01*
X127720553Y-110420038D02*
X127768172Y-110467657D01*
X127768172Y-110467657D02*
X127815791Y-110420038D01*
X127815791Y-110420038D02*
X127768172Y-110372419D01*
X127768172Y-110372419D02*
X127768172Y-110467657D01*
X128244362Y-111277180D02*
X128291981Y-111324800D01*
X128291981Y-111324800D02*
X128244362Y-111372419D01*
X128244362Y-111372419D02*
X128196743Y-111324800D01*
X128196743Y-111324800D02*
X128244362Y-111277180D01*
X128244362Y-111277180D02*
X128244362Y-111372419D01*
X129149123Y-111372419D02*
X129149123Y-110372419D01*
X129149123Y-111324800D02*
X129053885Y-111372419D01*
X129053885Y-111372419D02*
X128863409Y-111372419D01*
X128863409Y-111372419D02*
X128768171Y-111324800D01*
X128768171Y-111324800D02*
X128720552Y-111277180D01*
X128720552Y-111277180D02*
X128672933Y-111181942D01*
X128672933Y-111181942D02*
X128672933Y-110896228D01*
X128672933Y-110896228D02*
X128720552Y-110800990D01*
X128720552Y-110800990D02*
X128768171Y-110753371D01*
X128768171Y-110753371D02*
X128863409Y-110705752D01*
X128863409Y-110705752D02*
X129053885Y-110705752D01*
X129053885Y-110705752D02*
X129149123Y-110753371D01*
X130006266Y-111324800D02*
X129911028Y-111372419D01*
X129911028Y-111372419D02*
X129720552Y-111372419D01*
X129720552Y-111372419D02*
X129625314Y-111324800D01*
X129625314Y-111324800D02*
X129577695Y-111229561D01*
X129577695Y-111229561D02*
X129577695Y-110848609D01*
X129577695Y-110848609D02*
X129625314Y-110753371D01*
X129625314Y-110753371D02*
X129720552Y-110705752D01*
X129720552Y-110705752D02*
X129911028Y-110705752D01*
X129911028Y-110705752D02*
X130006266Y-110753371D01*
X130006266Y-110753371D02*
X130053885Y-110848609D01*
X130053885Y-110848609D02*
X130053885Y-110943847D01*
X130053885Y-110943847D02*
X129577695Y-111039085D01*
X130387219Y-110705752D02*
X130625314Y-111372419D01*
X130625314Y-111372419D02*
X130863409Y-110705752D01*
X131149124Y-111753371D02*
X131196743Y-111705752D01*
X131196743Y-111705752D02*
X131291981Y-111562895D01*
X131291981Y-111562895D02*
X131339600Y-111467657D01*
X131339600Y-111467657D02*
X131387219Y-111324800D01*
X131387219Y-111324800D02*
X131434838Y-111086704D01*
X131434838Y-111086704D02*
X131434838Y-110896228D01*
X131434838Y-110896228D02*
X131387219Y-110658133D01*
X131387219Y-110658133D02*
X131339600Y-110515276D01*
X131339600Y-110515276D02*
X131291981Y-110420038D01*
X131291981Y-110420038D02*
X131196743Y-110277180D01*
X131196743Y-110277180D02*
X131149124Y-110229561D01*
X150585786Y-80089651D02*
X150585787Y-112000000D01*
D12*
X161869048Y-112454819D02*
X161869048Y-113264342D01*
X161869048Y-113264342D02*
X161916667Y-113359580D01*
X161916667Y-113359580D02*
X161964286Y-113407200D01*
X161964286Y-113407200D02*
X162059524Y-113454819D01*
X162059524Y-113454819D02*
X162250000Y-113454819D01*
X162250000Y-113454819D02*
X162345238Y-113407200D01*
X162345238Y-113407200D02*
X162392857Y-113359580D01*
X162392857Y-113359580D02*
X162440476Y-113264342D01*
X162440476Y-113264342D02*
X162440476Y-112454819D01*
X162869048Y-113407200D02*
X163011905Y-113454819D01*
X163011905Y-113454819D02*
X163250000Y-113454819D01*
X163250000Y-113454819D02*
X163345238Y-113407200D01*
X163345238Y-113407200D02*
X163392857Y-113359580D01*
X163392857Y-113359580D02*
X163440476Y-113264342D01*
X163440476Y-113264342D02*
X163440476Y-113169104D01*
X163440476Y-113169104D02*
X163392857Y-113073866D01*
X163392857Y-113073866D02*
X163345238Y-113026247D01*
X163345238Y-113026247D02*
X163250000Y-112978628D01*
X163250000Y-112978628D02*
X163059524Y-112931009D01*
X163059524Y-112931009D02*
X162964286Y-112883390D01*
X162964286Y-112883390D02*
X162916667Y-112835771D01*
X162916667Y-112835771D02*
X162869048Y-112740533D01*
X162869048Y-112740533D02*
X162869048Y-112645295D01*
X162869048Y-112645295D02*
X162916667Y-112550057D01*
X162916667Y-112550057D02*
X162964286Y-112502438D01*
X162964286Y-112502438D02*
X163059524Y-112454819D01*
X163059524Y-112454819D02*
X163297619Y-112454819D01*
X163297619Y-112454819D02*
X163440476Y-112502438D01*
X164202381Y-112931009D02*
X164345238Y-112978628D01*
X164345238Y-112978628D02*
X164392857Y-113026247D01*
X164392857Y-113026247D02*
X164440476Y-113121485D01*
X164440476Y-113121485D02*
X164440476Y-113264342D01*
X164440476Y-113264342D02*
X164392857Y-113359580D01*
X164392857Y-113359580D02*
X164345238Y-113407200D01*
X164345238Y-113407200D02*
X164250000Y-113454819D01*
X164250000Y-113454819D02*
X163869048Y-113454819D01*
X163869048Y-113454819D02*
X163869048Y-112454819D01*
X163869048Y-112454819D02*
X164202381Y-112454819D01*
X164202381Y-112454819D02*
X164297619Y-112502438D01*
X164297619Y-112502438D02*
X164345238Y-112550057D01*
X164345238Y-112550057D02*
X164392857Y-112645295D01*
X164392857Y-112645295D02*
X164392857Y-112740533D01*
X164392857Y-112740533D02*
X164345238Y-112835771D01*
X164345238Y-112835771D02*
X164297619Y-112883390D01*
X164297619Y-112883390D02*
X164202381Y-112931009D01*
X164202381Y-112931009D02*
X163869048Y-112931009D01*
X164869048Y-113073866D02*
X165630953Y-113073866D01*
X166678571Y-113359580D02*
X166630952Y-113407200D01*
X166630952Y-113407200D02*
X166488095Y-113454819D01*
X166488095Y-113454819D02*
X166392857Y-113454819D01*
X166392857Y-113454819D02*
X166250000Y-113407200D01*
X166250000Y-113407200D02*
X166154762Y-113311961D01*
X166154762Y-113311961D02*
X166107143Y-113216723D01*
X166107143Y-113216723D02*
X166059524Y-113026247D01*
X166059524Y-113026247D02*
X166059524Y-112883390D01*
X166059524Y-112883390D02*
X166107143Y-112692914D01*
X166107143Y-112692914D02*
X166154762Y-112597676D01*
X166154762Y-112597676D02*
X166250000Y-112502438D01*
X166250000Y-112502438D02*
X166392857Y-112454819D01*
X166392857Y-112454819D02*
X166488095Y-112454819D01*
X166488095Y-112454819D02*
X166630952Y-112502438D01*
X166630952Y-112502438D02*
X166678571Y-112550057D01*
X154233333Y-107359580D02*
X154185714Y-107407200D01*
X154185714Y-107407200D02*
X154042857Y-107454819D01*
X154042857Y-107454819D02*
X153947619Y-107454819D01*
X153947619Y-107454819D02*
X153804762Y-107407200D01*
X153804762Y-107407200D02*
X153709524Y-107311961D01*
X153709524Y-107311961D02*
X153661905Y-107216723D01*
X153661905Y-107216723D02*
X153614286Y-107026247D01*
X153614286Y-107026247D02*
X153614286Y-106883390D01*
X153614286Y-106883390D02*
X153661905Y-106692914D01*
X153661905Y-106692914D02*
X153709524Y-106597676D01*
X153709524Y-106597676D02*
X153804762Y-106502438D01*
X153804762Y-106502438D02*
X153947619Y-106454819D01*
X153947619Y-106454819D02*
X154042857Y-106454819D01*
X154042857Y-106454819D02*
X154185714Y-106502438D01*
X154185714Y-106502438D02*
X154233333Y-106550057D01*
X155185714Y-107454819D02*
X154614286Y-107454819D01*
X154900000Y-107454819D02*
X154900000Y-106454819D01*
X154900000Y-106454819D02*
X154804762Y-106597676D01*
X154804762Y-106597676D02*
X154709524Y-106692914D01*
X154709524Y-106692914D02*
X154614286Y-106740533D01*
X155333333Y-84404819D02*
X154857143Y-84404819D01*
X154857143Y-84404819D02*
X154857143Y-83404819D01*
X156190476Y-84404819D02*
X155619048Y-84404819D01*
X155904762Y-84404819D02*
X155904762Y-83404819D01*
X155904762Y-83404819D02*
X155809524Y-83547676D01*
X155809524Y-83547676D02*
X155714286Y-83642914D01*
X155714286Y-83642914D02*
X155619048Y-83690533D01*
X152059580Y-86842857D02*
X152107200Y-86890476D01*
X152107200Y-86890476D02*
X152154819Y-87033333D01*
X152154819Y-87033333D02*
X152154819Y-87128571D01*
X152154819Y-87128571D02*
X152107200Y-87271428D01*
X152107200Y-87271428D02*
X152011961Y-87366666D01*
X152011961Y-87366666D02*
X151916723Y-87414285D01*
X151916723Y-87414285D02*
X151726247Y-87461904D01*
X151726247Y-87461904D02*
X151583390Y-87461904D01*
X151583390Y-87461904D02*
X151392914Y-87414285D01*
X151392914Y-87414285D02*
X151297676Y-87366666D01*
X151297676Y-87366666D02*
X151202438Y-87271428D01*
X151202438Y-87271428D02*
X151154819Y-87128571D01*
X151154819Y-87128571D02*
X151154819Y-87033333D01*
X151154819Y-87033333D02*
X151202438Y-86890476D01*
X151202438Y-86890476D02*
X151250057Y-86842857D01*
X152154819Y-85890476D02*
X152154819Y-86461904D01*
X152154819Y-86176190D02*
X151154819Y-86176190D01*
X151154819Y-86176190D02*
X151297676Y-86271428D01*
X151297676Y-86271428D02*
X151392914Y-86366666D01*
X151392914Y-86366666D02*
X151440533Y-86461904D01*
X152154819Y-84938095D02*
X152154819Y-85509523D01*
X152154819Y-85223809D02*
X151154819Y-85223809D01*
X151154819Y-85223809D02*
X151297676Y-85319047D01*
X151297676Y-85319047D02*
X151392914Y-85414285D01*
X151392914Y-85414285D02*
X151440533Y-85509523D01*
X156259580Y-86842857D02*
X156307200Y-86890476D01*
X156307200Y-86890476D02*
X156354819Y-87033333D01*
X156354819Y-87033333D02*
X156354819Y-87128571D01*
X156354819Y-87128571D02*
X156307200Y-87271428D01*
X156307200Y-87271428D02*
X156211961Y-87366666D01*
X156211961Y-87366666D02*
X156116723Y-87414285D01*
X156116723Y-87414285D02*
X155926247Y-87461904D01*
X155926247Y-87461904D02*
X155783390Y-87461904D01*
X155783390Y-87461904D02*
X155592914Y-87414285D01*
X155592914Y-87414285D02*
X155497676Y-87366666D01*
X155497676Y-87366666D02*
X155402438Y-87271428D01*
X155402438Y-87271428D02*
X155354819Y-87128571D01*
X155354819Y-87128571D02*
X155354819Y-87033333D01*
X155354819Y-87033333D02*
X155402438Y-86890476D01*
X155402438Y-86890476D02*
X155450057Y-86842857D01*
X156354819Y-85890476D02*
X156354819Y-86461904D01*
X156354819Y-86176190D02*
X155354819Y-86176190D01*
X155354819Y-86176190D02*
X155497676Y-86271428D01*
X155497676Y-86271428D02*
X155592914Y-86366666D01*
X155592914Y-86366666D02*
X155640533Y-86461904D01*
X155450057Y-85509523D02*
X155402438Y-85461904D01*
X155402438Y-85461904D02*
X155354819Y-85366666D01*
X155354819Y-85366666D02*
X155354819Y-85128571D01*
X155354819Y-85128571D02*
X155402438Y-85033333D01*
X155402438Y-85033333D02*
X155450057Y-84985714D01*
X155450057Y-84985714D02*
X155545295Y-84938095D01*
X155545295Y-84938095D02*
X155640533Y-84938095D01*
X155640533Y-84938095D02*
X155783390Y-84985714D01*
X155783390Y-84985714D02*
X156354819Y-85557142D01*
X156354819Y-85557142D02*
X156354819Y-84938095D01*
X162464286Y-92331009D02*
X162797619Y-92331009D01*
X162940476Y-92854819D02*
X162464286Y-92854819D01*
X162464286Y-92854819D02*
X162464286Y-91854819D01*
X162464286Y-91854819D02*
X162940476Y-91854819D01*
X163321429Y-92807200D02*
X163464286Y-92854819D01*
X163464286Y-92854819D02*
X163702381Y-92854819D01*
X163702381Y-92854819D02*
X163797619Y-92807200D01*
X163797619Y-92807200D02*
X163845238Y-92759580D01*
X163845238Y-92759580D02*
X163892857Y-92664342D01*
X163892857Y-92664342D02*
X163892857Y-92569104D01*
X163892857Y-92569104D02*
X163845238Y-92473866D01*
X163845238Y-92473866D02*
X163797619Y-92426247D01*
X163797619Y-92426247D02*
X163702381Y-92378628D01*
X163702381Y-92378628D02*
X163511905Y-92331009D01*
X163511905Y-92331009D02*
X163416667Y-92283390D01*
X163416667Y-92283390D02*
X163369048Y-92235771D01*
X163369048Y-92235771D02*
X163321429Y-92140533D01*
X163321429Y-92140533D02*
X163321429Y-92045295D01*
X163321429Y-92045295D02*
X163369048Y-91950057D01*
X163369048Y-91950057D02*
X163416667Y-91902438D01*
X163416667Y-91902438D02*
X163511905Y-91854819D01*
X163511905Y-91854819D02*
X163750000Y-91854819D01*
X163750000Y-91854819D02*
X163892857Y-91902438D01*
X164321429Y-92854819D02*
X164321429Y-91854819D01*
X164321429Y-91854819D02*
X164702381Y-91854819D01*
X164702381Y-91854819D02*
X164797619Y-91902438D01*
X164797619Y-91902438D02*
X164845238Y-91950057D01*
X164845238Y-91950057D02*
X164892857Y-92045295D01*
X164892857Y-92045295D02*
X164892857Y-92188152D01*
X164892857Y-92188152D02*
X164845238Y-92283390D01*
X164845238Y-92283390D02*
X164797619Y-92331009D01*
X164797619Y-92331009D02*
X164702381Y-92378628D01*
X164702381Y-92378628D02*
X164321429Y-92378628D01*
X165226191Y-91854819D02*
X165845238Y-91854819D01*
X165845238Y-91854819D02*
X165511905Y-92235771D01*
X165511905Y-92235771D02*
X165654762Y-92235771D01*
X165654762Y-92235771D02*
X165750000Y-92283390D01*
X165750000Y-92283390D02*
X165797619Y-92331009D01*
X165797619Y-92331009D02*
X165845238Y-92426247D01*
X165845238Y-92426247D02*
X165845238Y-92664342D01*
X165845238Y-92664342D02*
X165797619Y-92759580D01*
X165797619Y-92759580D02*
X165750000Y-92807200D01*
X165750000Y-92807200D02*
X165654762Y-92854819D01*
X165654762Y-92854819D02*
X165369048Y-92854819D01*
X165369048Y-92854819D02*
X165273810Y-92807200D01*
X165273810Y-92807200D02*
X165226191Y-92759580D01*
X166226191Y-91950057D02*
X166273810Y-91902438D01*
X166273810Y-91902438D02*
X166369048Y-91854819D01*
X166369048Y-91854819D02*
X166607143Y-91854819D01*
X166607143Y-91854819D02*
X166702381Y-91902438D01*
X166702381Y-91902438D02*
X166750000Y-91950057D01*
X166750000Y-91950057D02*
X166797619Y-92045295D01*
X166797619Y-92045295D02*
X166797619Y-92140533D01*
X166797619Y-92140533D02*
X166750000Y-92283390D01*
X166750000Y-92283390D02*
X166178572Y-92854819D01*
X166178572Y-92854819D02*
X166797619Y-92854819D01*
X167940477Y-92807200D02*
X168083334Y-92854819D01*
X168083334Y-92854819D02*
X168321429Y-92854819D01*
X168321429Y-92854819D02*
X168416667Y-92807200D01*
X168416667Y-92807200D02*
X168464286Y-92759580D01*
X168464286Y-92759580D02*
X168511905Y-92664342D01*
X168511905Y-92664342D02*
X168511905Y-92569104D01*
X168511905Y-92569104D02*
X168464286Y-92473866D01*
X168464286Y-92473866D02*
X168416667Y-92426247D01*
X168416667Y-92426247D02*
X168321429Y-92378628D01*
X168321429Y-92378628D02*
X168130953Y-92331009D01*
X168130953Y-92331009D02*
X168035715Y-92283390D01*
X168035715Y-92283390D02*
X167988096Y-92235771D01*
X167988096Y-92235771D02*
X167940477Y-92140533D01*
X167940477Y-92140533D02*
X167940477Y-92045295D01*
X167940477Y-92045295D02*
X167988096Y-91950057D01*
X167988096Y-91950057D02*
X168035715Y-91902438D01*
X168035715Y-91902438D02*
X168130953Y-91854819D01*
X168130953Y-91854819D02*
X168369048Y-91854819D01*
X168369048Y-91854819D02*
X168511905Y-91902438D01*
X168845239Y-91854819D02*
X169464286Y-91854819D01*
X169464286Y-91854819D02*
X169130953Y-92235771D01*
X169130953Y-92235771D02*
X169273810Y-92235771D01*
X169273810Y-92235771D02*
X169369048Y-92283390D01*
X169369048Y-92283390D02*
X169416667Y-92331009D01*
X169416667Y-92331009D02*
X169464286Y-92426247D01*
X169464286Y-92426247D02*
X169464286Y-92664342D01*
X169464286Y-92664342D02*
X169416667Y-92759580D01*
X169416667Y-92759580D02*
X169369048Y-92807200D01*
X169369048Y-92807200D02*
X169273810Y-92854819D01*
X169273810Y-92854819D02*
X168988096Y-92854819D01*
X168988096Y-92854819D02*
X168892858Y-92807200D01*
X168892858Y-92807200D02*
X168845239Y-92759580D01*
X170654763Y-92854819D02*
X170654763Y-91854819D01*
X170654763Y-91854819D02*
X170988096Y-92569104D01*
X170988096Y-92569104D02*
X171321429Y-91854819D01*
X171321429Y-91854819D02*
X171321429Y-92854819D01*
X171797620Y-92854819D02*
X171797620Y-91854819D01*
X172273810Y-92854819D02*
X172273810Y-91854819D01*
X172273810Y-91854819D02*
X172845238Y-92854819D01*
X172845238Y-92854819D02*
X172845238Y-91854819D01*
X173321429Y-92854819D02*
X173321429Y-91854819D01*
X175083333Y-92854819D02*
X174511905Y-92854819D01*
X174797619Y-92854819D02*
X174797619Y-91854819D01*
X174797619Y-91854819D02*
X174702381Y-91997676D01*
X174702381Y-91997676D02*
X174607143Y-92092914D01*
X174607143Y-92092914D02*
X174511905Y-92140533D01*
X178447619Y-98454819D02*
X178447619Y-97454819D01*
X179114285Y-97454819D02*
X179304761Y-97454819D01*
X179304761Y-97454819D02*
X179399999Y-97502438D01*
X179399999Y-97502438D02*
X179495237Y-97597676D01*
X179495237Y-97597676D02*
X179542856Y-97788152D01*
X179542856Y-97788152D02*
X179542856Y-98121485D01*
X179542856Y-98121485D02*
X179495237Y-98311961D01*
X179495237Y-98311961D02*
X179399999Y-98407200D01*
X179399999Y-98407200D02*
X179304761Y-98454819D01*
X179304761Y-98454819D02*
X179114285Y-98454819D01*
X179114285Y-98454819D02*
X179019047Y-98407200D01*
X179019047Y-98407200D02*
X178923809Y-98311961D01*
X178923809Y-98311961D02*
X178876190Y-98121485D01*
X178876190Y-98121485D02*
X178876190Y-97788152D01*
X178876190Y-97788152D02*
X178923809Y-97597676D01*
X178923809Y-97597676D02*
X179019047Y-97502438D01*
X179019047Y-97502438D02*
X179114285Y-97454819D01*
X180733333Y-97788152D02*
X180733333Y-98788152D01*
X180733333Y-97835771D02*
X180828571Y-97788152D01*
X180828571Y-97788152D02*
X181019047Y-97788152D01*
X181019047Y-97788152D02*
X181114285Y-97835771D01*
X181114285Y-97835771D02*
X181161904Y-97883390D01*
X181161904Y-97883390D02*
X181209523Y-97978628D01*
X181209523Y-97978628D02*
X181209523Y-98264342D01*
X181209523Y-98264342D02*
X181161904Y-98359580D01*
X181161904Y-98359580D02*
X181114285Y-98407200D01*
X181114285Y-98407200D02*
X181019047Y-98454819D01*
X181019047Y-98454819D02*
X180828571Y-98454819D01*
X180828571Y-98454819D02*
X180733333Y-98407200D01*
X181638095Y-98454819D02*
X181638095Y-97788152D01*
X181638095Y-97454819D02*
X181590476Y-97502438D01*
X181590476Y-97502438D02*
X181638095Y-97550057D01*
X181638095Y-97550057D02*
X181685714Y-97502438D01*
X181685714Y-97502438D02*
X181638095Y-97454819D01*
X181638095Y-97454819D02*
X181638095Y-97550057D01*
X182114285Y-97788152D02*
X182114285Y-98454819D01*
X182114285Y-97883390D02*
X182161904Y-97835771D01*
X182161904Y-97835771D02*
X182257142Y-97788152D01*
X182257142Y-97788152D02*
X182399999Y-97788152D01*
X182399999Y-97788152D02*
X182495237Y-97835771D01*
X182495237Y-97835771D02*
X182542856Y-97931009D01*
X182542856Y-97931009D02*
X182542856Y-98454819D01*
X182971428Y-98407200D02*
X183066666Y-98454819D01*
X183066666Y-98454819D02*
X183257142Y-98454819D01*
X183257142Y-98454819D02*
X183352380Y-98407200D01*
X183352380Y-98407200D02*
X183399999Y-98311961D01*
X183399999Y-98311961D02*
X183399999Y-98264342D01*
X183399999Y-98264342D02*
X183352380Y-98169104D01*
X183352380Y-98169104D02*
X183257142Y-98121485D01*
X183257142Y-98121485D02*
X183114285Y-98121485D01*
X183114285Y-98121485D02*
X183019047Y-98073866D01*
X183019047Y-98073866D02*
X182971428Y-97978628D01*
X182971428Y-97978628D02*
X182971428Y-97931009D01*
X182971428Y-97931009D02*
X183019047Y-97835771D01*
X183019047Y-97835771D02*
X183114285Y-97788152D01*
X183114285Y-97788152D02*
X183257142Y-97788152D01*
X183257142Y-97788152D02*
X183352380Y-97835771D01*
X151954819Y-102738094D02*
X150954819Y-102738094D01*
X150954819Y-102738094D02*
X150954819Y-102499999D01*
X150954819Y-102499999D02*
X151002438Y-102357142D01*
X151002438Y-102357142D02*
X151097676Y-102261904D01*
X151097676Y-102261904D02*
X151192914Y-102214285D01*
X151192914Y-102214285D02*
X151383390Y-102166666D01*
X151383390Y-102166666D02*
X151526247Y-102166666D01*
X151526247Y-102166666D02*
X151716723Y-102214285D01*
X151716723Y-102214285D02*
X151811961Y-102261904D01*
X151811961Y-102261904D02*
X151907200Y-102357142D01*
X151907200Y-102357142D02*
X151954819Y-102499999D01*
X151954819Y-102499999D02*
X151954819Y-102738094D01*
X151954819Y-101214285D02*
X151954819Y-101785713D01*
X151954819Y-101499999D02*
X150954819Y-101499999D01*
X150954819Y-101499999D02*
X151097676Y-101595237D01*
X151097676Y-101595237D02*
X151192914Y-101690475D01*
X151192914Y-101690475D02*
X151240533Y-101785713D01*
X164954819Y-102738094D02*
X163954819Y-102738094D01*
X163954819Y-102738094D02*
X163954819Y-102499999D01*
X163954819Y-102499999D02*
X164002438Y-102357142D01*
X164002438Y-102357142D02*
X164097676Y-102261904D01*
X164097676Y-102261904D02*
X164192914Y-102214285D01*
X164192914Y-102214285D02*
X164383390Y-102166666D01*
X164383390Y-102166666D02*
X164526247Y-102166666D01*
X164526247Y-102166666D02*
X164716723Y-102214285D01*
X164716723Y-102214285D02*
X164811961Y-102261904D01*
X164811961Y-102261904D02*
X164907200Y-102357142D01*
X164907200Y-102357142D02*
X164954819Y-102499999D01*
X164954819Y-102499999D02*
X164954819Y-102738094D01*
X163954819Y-101833332D02*
X163954819Y-101214285D01*
X163954819Y-101214285D02*
X164335771Y-101547618D01*
X164335771Y-101547618D02*
X164335771Y-101404761D01*
X164335771Y-101404761D02*
X164383390Y-101309523D01*
X164383390Y-101309523D02*
X164431009Y-101261904D01*
X164431009Y-101261904D02*
X164526247Y-101214285D01*
X164526247Y-101214285D02*
X164764342Y-101214285D01*
X164764342Y-101214285D02*
X164859580Y-101261904D01*
X164859580Y-101261904D02*
X164907200Y-101309523D01*
X164907200Y-101309523D02*
X164954819Y-101404761D01*
X164954819Y-101404761D02*
X164954819Y-101690475D01*
X164954819Y-101690475D02*
X164907200Y-101785713D01*
X164907200Y-101785713D02*
X164859580Y-101833332D01*
X167654819Y-107156666D02*
X167178628Y-107489999D01*
X167654819Y-107728094D02*
X166654819Y-107728094D01*
X166654819Y-107728094D02*
X166654819Y-107347142D01*
X166654819Y-107347142D02*
X166702438Y-107251904D01*
X166702438Y-107251904D02*
X166750057Y-107204285D01*
X166750057Y-107204285D02*
X166845295Y-107156666D01*
X166845295Y-107156666D02*
X166988152Y-107156666D01*
X166988152Y-107156666D02*
X167083390Y-107204285D01*
X167083390Y-107204285D02*
X167131009Y-107251904D01*
X167131009Y-107251904D02*
X167178628Y-107347142D01*
X167178628Y-107347142D02*
X167178628Y-107728094D01*
X167083390Y-106585237D02*
X167035771Y-106680475D01*
X167035771Y-106680475D02*
X166988152Y-106728094D01*
X166988152Y-106728094D02*
X166892914Y-106775713D01*
X166892914Y-106775713D02*
X166845295Y-106775713D01*
X166845295Y-106775713D02*
X166750057Y-106728094D01*
X166750057Y-106728094D02*
X166702438Y-106680475D01*
X166702438Y-106680475D02*
X166654819Y-106585237D01*
X166654819Y-106585237D02*
X166654819Y-106394761D01*
X166654819Y-106394761D02*
X166702438Y-106299523D01*
X166702438Y-106299523D02*
X166750057Y-106251904D01*
X166750057Y-106251904D02*
X166845295Y-106204285D01*
X166845295Y-106204285D02*
X166892914Y-106204285D01*
X166892914Y-106204285D02*
X166988152Y-106251904D01*
X166988152Y-106251904D02*
X167035771Y-106299523D01*
X167035771Y-106299523D02*
X167083390Y-106394761D01*
X167083390Y-106394761D02*
X167083390Y-106585237D01*
X167083390Y-106585237D02*
X167131009Y-106680475D01*
X167131009Y-106680475D02*
X167178628Y-106728094D01*
X167178628Y-106728094D02*
X167273866Y-106775713D01*
X167273866Y-106775713D02*
X167464342Y-106775713D01*
X167464342Y-106775713D02*
X167559580Y-106728094D01*
X167559580Y-106728094D02*
X167607200Y-106680475D01*
X167607200Y-106680475D02*
X167654819Y-106585237D01*
X167654819Y-106585237D02*
X167654819Y-106394761D01*
X167654819Y-106394761D02*
X167607200Y-106299523D01*
X167607200Y-106299523D02*
X167559580Y-106251904D01*
X167559580Y-106251904D02*
X167464342Y-106204285D01*
X167464342Y-106204285D02*
X167273866Y-106204285D01*
X167273866Y-106204285D02*
X167178628Y-106251904D01*
X167178628Y-106251904D02*
X167131009Y-106299523D01*
X167131009Y-106299523D02*
X167083390Y-106394761D01*
X162254819Y-107166666D02*
X161778628Y-107499999D01*
X162254819Y-107738094D02*
X161254819Y-107738094D01*
X161254819Y-107738094D02*
X161254819Y-107357142D01*
X161254819Y-107357142D02*
X161302438Y-107261904D01*
X161302438Y-107261904D02*
X161350057Y-107214285D01*
X161350057Y-107214285D02*
X161445295Y-107166666D01*
X161445295Y-107166666D02*
X161588152Y-107166666D01*
X161588152Y-107166666D02*
X161683390Y-107214285D01*
X161683390Y-107214285D02*
X161731009Y-107261904D01*
X161731009Y-107261904D02*
X161778628Y-107357142D01*
X161778628Y-107357142D02*
X161778628Y-107738094D01*
X161254819Y-106833332D02*
X161254819Y-106166666D01*
X161254819Y-106166666D02*
X162254819Y-106595237D01*
X157238095Y-97454819D02*
X157238095Y-98264342D01*
X157238095Y-98264342D02*
X157285714Y-98359580D01*
X157285714Y-98359580D02*
X157333333Y-98407200D01*
X157333333Y-98407200D02*
X157428571Y-98454819D01*
X157428571Y-98454819D02*
X157619047Y-98454819D01*
X157619047Y-98454819D02*
X157714285Y-98407200D01*
X157714285Y-98407200D02*
X157761904Y-98359580D01*
X157761904Y-98359580D02*
X157809523Y-98264342D01*
X157809523Y-98264342D02*
X157809523Y-97454819D01*
X158238095Y-97550057D02*
X158285714Y-97502438D01*
X158285714Y-97502438D02*
X158380952Y-97454819D01*
X158380952Y-97454819D02*
X158619047Y-97454819D01*
X158619047Y-97454819D02*
X158714285Y-97502438D01*
X158714285Y-97502438D02*
X158761904Y-97550057D01*
X158761904Y-97550057D02*
X158809523Y-97645295D01*
X158809523Y-97645295D02*
X158809523Y-97740533D01*
X158809523Y-97740533D02*
X158761904Y-97883390D01*
X158761904Y-97883390D02*
X158190476Y-98454819D01*
X158190476Y-98454819D02*
X158809523Y-98454819D01*
X164833333Y-106054819D02*
X164500000Y-105578628D01*
X164261905Y-106054819D02*
X164261905Y-105054819D01*
X164261905Y-105054819D02*
X164642857Y-105054819D01*
X164642857Y-105054819D02*
X164738095Y-105102438D01*
X164738095Y-105102438D02*
X164785714Y-105150057D01*
X164785714Y-105150057D02*
X164833333Y-105245295D01*
X164833333Y-105245295D02*
X164833333Y-105388152D01*
X164833333Y-105388152D02*
X164785714Y-105483390D01*
X164785714Y-105483390D02*
X164738095Y-105531009D01*
X164738095Y-105531009D02*
X164642857Y-105578628D01*
X164642857Y-105578628D02*
X164261905Y-105578628D01*
X165690476Y-105388152D02*
X165690476Y-106054819D01*
X165452381Y-105007200D02*
X165214286Y-105721485D01*
X165214286Y-105721485D02*
X165833333Y-105721485D01*
X165761905Y-101954819D02*
X165761905Y-100954819D01*
X165761905Y-100954819D02*
X166000000Y-100954819D01*
X166000000Y-100954819D02*
X166142857Y-101002438D01*
X166142857Y-101002438D02*
X166238095Y-101097676D01*
X166238095Y-101097676D02*
X166285714Y-101192914D01*
X166285714Y-101192914D02*
X166333333Y-101383390D01*
X166333333Y-101383390D02*
X166333333Y-101526247D01*
X166333333Y-101526247D02*
X166285714Y-101716723D01*
X166285714Y-101716723D02*
X166238095Y-101811961D01*
X166238095Y-101811961D02*
X166142857Y-101907200D01*
X166142857Y-101907200D02*
X166000000Y-101954819D01*
X166000000Y-101954819D02*
X165761905Y-101954819D01*
X166714286Y-101050057D02*
X166761905Y-101002438D01*
X166761905Y-101002438D02*
X166857143Y-100954819D01*
X166857143Y-100954819D02*
X167095238Y-100954819D01*
X167095238Y-100954819D02*
X167190476Y-101002438D01*
X167190476Y-101002438D02*
X167238095Y-101050057D01*
X167238095Y-101050057D02*
X167285714Y-101145295D01*
X167285714Y-101145295D02*
X167285714Y-101240533D01*
X167285714Y-101240533D02*
X167238095Y-101383390D01*
X167238095Y-101383390D02*
X166666667Y-101954819D01*
X166666667Y-101954819D02*
X167285714Y-101954819D01*
X158333333Y-105354819D02*
X158000000Y-104878628D01*
X157761905Y-105354819D02*
X157761905Y-104354819D01*
X157761905Y-104354819D02*
X158142857Y-104354819D01*
X158142857Y-104354819D02*
X158238095Y-104402438D01*
X158238095Y-104402438D02*
X158285714Y-104450057D01*
X158285714Y-104450057D02*
X158333333Y-104545295D01*
X158333333Y-104545295D02*
X158333333Y-104688152D01*
X158333333Y-104688152D02*
X158285714Y-104783390D01*
X158285714Y-104783390D02*
X158238095Y-104831009D01*
X158238095Y-104831009D02*
X158142857Y-104878628D01*
X158142857Y-104878628D02*
X157761905Y-104878628D01*
X158666667Y-104354819D02*
X159285714Y-104354819D01*
X159285714Y-104354819D02*
X158952381Y-104735771D01*
X158952381Y-104735771D02*
X159095238Y-104735771D01*
X159095238Y-104735771D02*
X159190476Y-104783390D01*
X159190476Y-104783390D02*
X159238095Y-104831009D01*
X159238095Y-104831009D02*
X159285714Y-104926247D01*
X159285714Y-104926247D02*
X159285714Y-105164342D01*
X159285714Y-105164342D02*
X159238095Y-105259580D01*
X159238095Y-105259580D02*
X159190476Y-105307200D01*
X159190476Y-105307200D02*
X159095238Y-105354819D01*
X159095238Y-105354819D02*
X158809524Y-105354819D01*
X158809524Y-105354819D02*
X158714286Y-105307200D01*
X158714286Y-105307200D02*
X158666667Y-105259580D01*
X157833333Y-94679580D02*
X157785714Y-94727200D01*
X157785714Y-94727200D02*
X157642857Y-94774819D01*
X157642857Y-94774819D02*
X157547619Y-94774819D01*
X157547619Y-94774819D02*
X157404762Y-94727200D01*
X157404762Y-94727200D02*
X157309524Y-94631961D01*
X157309524Y-94631961D02*
X157261905Y-94536723D01*
X157261905Y-94536723D02*
X157214286Y-94346247D01*
X157214286Y-94346247D02*
X157214286Y-94203390D01*
X157214286Y-94203390D02*
X157261905Y-94012914D01*
X157261905Y-94012914D02*
X157309524Y-93917676D01*
X157309524Y-93917676D02*
X157404762Y-93822438D01*
X157404762Y-93822438D02*
X157547619Y-93774819D01*
X157547619Y-93774819D02*
X157642857Y-93774819D01*
X157642857Y-93774819D02*
X157785714Y-93822438D01*
X157785714Y-93822438D02*
X157833333Y-93870057D01*
X158214286Y-93870057D02*
X158261905Y-93822438D01*
X158261905Y-93822438D02*
X158357143Y-93774819D01*
X158357143Y-93774819D02*
X158595238Y-93774819D01*
X158595238Y-93774819D02*
X158690476Y-93822438D01*
X158690476Y-93822438D02*
X158738095Y-93870057D01*
X158738095Y-93870057D02*
X158785714Y-93965295D01*
X158785714Y-93965295D02*
X158785714Y-94060533D01*
X158785714Y-94060533D02*
X158738095Y-94203390D01*
X158738095Y-94203390D02*
X158166667Y-94774819D01*
X158166667Y-94774819D02*
X158785714Y-94774819D01*
X164759580Y-99642857D02*
X164807200Y-99690476D01*
X164807200Y-99690476D02*
X164854819Y-99833333D01*
X164854819Y-99833333D02*
X164854819Y-99928571D01*
X164854819Y-99928571D02*
X164807200Y-100071428D01*
X164807200Y-100071428D02*
X164711961Y-100166666D01*
X164711961Y-100166666D02*
X164616723Y-100214285D01*
X164616723Y-100214285D02*
X164426247Y-100261904D01*
X164426247Y-100261904D02*
X164283390Y-100261904D01*
X164283390Y-100261904D02*
X164092914Y-100214285D01*
X164092914Y-100214285D02*
X163997676Y-100166666D01*
X163997676Y-100166666D02*
X163902438Y-100071428D01*
X163902438Y-100071428D02*
X163854819Y-99928571D01*
X163854819Y-99928571D02*
X163854819Y-99833333D01*
X163854819Y-99833333D02*
X163902438Y-99690476D01*
X163902438Y-99690476D02*
X163950057Y-99642857D01*
X164854819Y-98690476D02*
X164854819Y-99261904D01*
X164854819Y-98976190D02*
X163854819Y-98976190D01*
X163854819Y-98976190D02*
X163997676Y-99071428D01*
X163997676Y-99071428D02*
X164092914Y-99166666D01*
X164092914Y-99166666D02*
X164140533Y-99261904D01*
X163854819Y-97785714D02*
X163854819Y-98261904D01*
X163854819Y-98261904D02*
X164331009Y-98309523D01*
X164331009Y-98309523D02*
X164283390Y-98261904D01*
X164283390Y-98261904D02*
X164235771Y-98166666D01*
X164235771Y-98166666D02*
X164235771Y-97928571D01*
X164235771Y-97928571D02*
X164283390Y-97833333D01*
X164283390Y-97833333D02*
X164331009Y-97785714D01*
X164331009Y-97785714D02*
X164426247Y-97738095D01*
X164426247Y-97738095D02*
X164664342Y-97738095D01*
X164664342Y-97738095D02*
X164759580Y-97785714D01*
X164759580Y-97785714D02*
X164807200Y-97833333D01*
X164807200Y-97833333D02*
X164854819Y-97928571D01*
X164854819Y-97928571D02*
X164854819Y-98166666D01*
X164854819Y-98166666D02*
X164807200Y-98261904D01*
X164807200Y-98261904D02*
X164759580Y-98309523D01*
X169238095Y-102054819D02*
X169238095Y-102864342D01*
X169238095Y-102864342D02*
X169285714Y-102959580D01*
X169285714Y-102959580D02*
X169333333Y-103007200D01*
X169333333Y-103007200D02*
X169428571Y-103054819D01*
X169428571Y-103054819D02*
X169619047Y-103054819D01*
X169619047Y-103054819D02*
X169714285Y-103007200D01*
X169714285Y-103007200D02*
X169761904Y-102959580D01*
X169761904Y-102959580D02*
X169809523Y-102864342D01*
X169809523Y-102864342D02*
X169809523Y-102054819D01*
X170190476Y-102054819D02*
X170809523Y-102054819D01*
X170809523Y-102054819D02*
X170476190Y-102435771D01*
X170476190Y-102435771D02*
X170619047Y-102435771D01*
X170619047Y-102435771D02*
X170714285Y-102483390D01*
X170714285Y-102483390D02*
X170761904Y-102531009D01*
X170761904Y-102531009D02*
X170809523Y-102626247D01*
X170809523Y-102626247D02*
X170809523Y-102864342D01*
X170809523Y-102864342D02*
X170761904Y-102959580D01*
X170761904Y-102959580D02*
X170714285Y-103007200D01*
X170714285Y-103007200D02*
X170619047Y-103054819D01*
X170619047Y-103054819D02*
X170333333Y-103054819D01*
X170333333Y-103054819D02*
X170238095Y-103007200D01*
X170238095Y-103007200D02*
X170190476Y-102959580D01*
X169959580Y-96842857D02*
X170007200Y-96890476D01*
X170007200Y-96890476D02*
X170054819Y-97033333D01*
X170054819Y-97033333D02*
X170054819Y-97128571D01*
X170054819Y-97128571D02*
X170007200Y-97271428D01*
X170007200Y-97271428D02*
X169911961Y-97366666D01*
X169911961Y-97366666D02*
X169816723Y-97414285D01*
X169816723Y-97414285D02*
X169626247Y-97461904D01*
X169626247Y-97461904D02*
X169483390Y-97461904D01*
X169483390Y-97461904D02*
X169292914Y-97414285D01*
X169292914Y-97414285D02*
X169197676Y-97366666D01*
X169197676Y-97366666D02*
X169102438Y-97271428D01*
X169102438Y-97271428D02*
X169054819Y-97128571D01*
X169054819Y-97128571D02*
X169054819Y-97033333D01*
X169054819Y-97033333D02*
X169102438Y-96890476D01*
X169102438Y-96890476D02*
X169150057Y-96842857D01*
X170054819Y-95890476D02*
X170054819Y-96461904D01*
X170054819Y-96176190D02*
X169054819Y-96176190D01*
X169054819Y-96176190D02*
X169197676Y-96271428D01*
X169197676Y-96271428D02*
X169292914Y-96366666D01*
X169292914Y-96366666D02*
X169340533Y-96461904D01*
X169054819Y-95033333D02*
X169054819Y-95223809D01*
X169054819Y-95223809D02*
X169102438Y-95319047D01*
X169102438Y-95319047D02*
X169150057Y-95366666D01*
X169150057Y-95366666D02*
X169292914Y-95461904D01*
X169292914Y-95461904D02*
X169483390Y-95509523D01*
X169483390Y-95509523D02*
X169864342Y-95509523D01*
X169864342Y-95509523D02*
X169959580Y-95461904D01*
X169959580Y-95461904D02*
X170007200Y-95414285D01*
X170007200Y-95414285D02*
X170054819Y-95319047D01*
X170054819Y-95319047D02*
X170054819Y-95128571D01*
X170054819Y-95128571D02*
X170007200Y-95033333D01*
X170007200Y-95033333D02*
X169959580Y-94985714D01*
X169959580Y-94985714D02*
X169864342Y-94938095D01*
X169864342Y-94938095D02*
X169626247Y-94938095D01*
X169626247Y-94938095D02*
X169531009Y-94985714D01*
X169531009Y-94985714D02*
X169483390Y-95033333D01*
X169483390Y-95033333D02*
X169435771Y-95128571D01*
X169435771Y-95128571D02*
X169435771Y-95319047D01*
X169435771Y-95319047D02*
X169483390Y-95414285D01*
X169483390Y-95414285D02*
X169531009Y-95461904D01*
X169531009Y-95461904D02*
X169626247Y-95509523D01*
X145511905Y-89404819D02*
X145511905Y-88404819D01*
X145511905Y-88404819D02*
X145750000Y-88404819D01*
X145750000Y-88404819D02*
X145892857Y-88452438D01*
X145892857Y-88452438D02*
X145988095Y-88547676D01*
X145988095Y-88547676D02*
X146035714Y-88642914D01*
X146035714Y-88642914D02*
X146083333Y-88833390D01*
X146083333Y-88833390D02*
X146083333Y-88976247D01*
X146083333Y-88976247D02*
X146035714Y-89166723D01*
X146035714Y-89166723D02*
X145988095Y-89261961D01*
X145988095Y-89261961D02*
X145892857Y-89357200D01*
X145892857Y-89357200D02*
X145750000Y-89404819D01*
X145750000Y-89404819D02*
X145511905Y-89404819D01*
X146988095Y-88404819D02*
X146511905Y-88404819D01*
X146511905Y-88404819D02*
X146464286Y-88881009D01*
X146464286Y-88881009D02*
X146511905Y-88833390D01*
X146511905Y-88833390D02*
X146607143Y-88785771D01*
X146607143Y-88785771D02*
X146845238Y-88785771D01*
X146845238Y-88785771D02*
X146940476Y-88833390D01*
X146940476Y-88833390D02*
X146988095Y-88881009D01*
X146988095Y-88881009D02*
X147035714Y-88976247D01*
X147035714Y-88976247D02*
X147035714Y-89214342D01*
X147035714Y-89214342D02*
X146988095Y-89309580D01*
X146988095Y-89309580D02*
X146940476Y-89357200D01*
X146940476Y-89357200D02*
X146845238Y-89404819D01*
X146845238Y-89404819D02*
X146607143Y-89404819D01*
X146607143Y-89404819D02*
X146511905Y-89357200D01*
X146511905Y-89357200D02*
X146464286Y-89309580D01*
X137583333Y-98609580D02*
X137535714Y-98657200D01*
X137535714Y-98657200D02*
X137392857Y-98704819D01*
X137392857Y-98704819D02*
X137297619Y-98704819D01*
X137297619Y-98704819D02*
X137154762Y-98657200D01*
X137154762Y-98657200D02*
X137059524Y-98561961D01*
X137059524Y-98561961D02*
X137011905Y-98466723D01*
X137011905Y-98466723D02*
X136964286Y-98276247D01*
X136964286Y-98276247D02*
X136964286Y-98133390D01*
X136964286Y-98133390D02*
X137011905Y-97942914D01*
X137011905Y-97942914D02*
X137059524Y-97847676D01*
X137059524Y-97847676D02*
X137154762Y-97752438D01*
X137154762Y-97752438D02*
X137297619Y-97704819D01*
X137297619Y-97704819D02*
X137392857Y-97704819D01*
X137392857Y-97704819D02*
X137535714Y-97752438D01*
X137535714Y-97752438D02*
X137583333Y-97800057D01*
X137916667Y-97704819D02*
X138583333Y-97704819D01*
X138583333Y-97704819D02*
X138154762Y-98704819D01*
X131183333Y-98609580D02*
X131135714Y-98657200D01*
X131135714Y-98657200D02*
X130992857Y-98704819D01*
X130992857Y-98704819D02*
X130897619Y-98704819D01*
X130897619Y-98704819D02*
X130754762Y-98657200D01*
X130754762Y-98657200D02*
X130659524Y-98561961D01*
X130659524Y-98561961D02*
X130611905Y-98466723D01*
X130611905Y-98466723D02*
X130564286Y-98276247D01*
X130564286Y-98276247D02*
X130564286Y-98133390D01*
X130564286Y-98133390D02*
X130611905Y-97942914D01*
X130611905Y-97942914D02*
X130659524Y-97847676D01*
X130659524Y-97847676D02*
X130754762Y-97752438D01*
X130754762Y-97752438D02*
X130897619Y-97704819D01*
X130897619Y-97704819D02*
X130992857Y-97704819D01*
X130992857Y-97704819D02*
X131135714Y-97752438D01*
X131135714Y-97752438D02*
X131183333Y-97800057D01*
X131659524Y-98704819D02*
X131850000Y-98704819D01*
X131850000Y-98704819D02*
X131945238Y-98657200D01*
X131945238Y-98657200D02*
X131992857Y-98609580D01*
X131992857Y-98609580D02*
X132088095Y-98466723D01*
X132088095Y-98466723D02*
X132135714Y-98276247D01*
X132135714Y-98276247D02*
X132135714Y-97895295D01*
X132135714Y-97895295D02*
X132088095Y-97800057D01*
X132088095Y-97800057D02*
X132040476Y-97752438D01*
X132040476Y-97752438D02*
X131945238Y-97704819D01*
X131945238Y-97704819D02*
X131754762Y-97704819D01*
X131754762Y-97704819D02*
X131659524Y-97752438D01*
X131659524Y-97752438D02*
X131611905Y-97800057D01*
X131611905Y-97800057D02*
X131564286Y-97895295D01*
X131564286Y-97895295D02*
X131564286Y-98133390D01*
X131564286Y-98133390D02*
X131611905Y-98228628D01*
X131611905Y-98228628D02*
X131659524Y-98276247D01*
X131659524Y-98276247D02*
X131754762Y-98323866D01*
X131754762Y-98323866D02*
X131945238Y-98323866D01*
X131945238Y-98323866D02*
X132040476Y-98276247D01*
X132040476Y-98276247D02*
X132088095Y-98228628D01*
X132088095Y-98228628D02*
X132135714Y-98133390D01*
X137583333Y-96109580D02*
X137535714Y-96157200D01*
X137535714Y-96157200D02*
X137392857Y-96204819D01*
X137392857Y-96204819D02*
X137297619Y-96204819D01*
X137297619Y-96204819D02*
X137154762Y-96157200D01*
X137154762Y-96157200D02*
X137059524Y-96061961D01*
X137059524Y-96061961D02*
X137011905Y-95966723D01*
X137011905Y-95966723D02*
X136964286Y-95776247D01*
X136964286Y-95776247D02*
X136964286Y-95633390D01*
X136964286Y-95633390D02*
X137011905Y-95442914D01*
X137011905Y-95442914D02*
X137059524Y-95347676D01*
X137059524Y-95347676D02*
X137154762Y-95252438D01*
X137154762Y-95252438D02*
X137297619Y-95204819D01*
X137297619Y-95204819D02*
X137392857Y-95204819D01*
X137392857Y-95204819D02*
X137535714Y-95252438D01*
X137535714Y-95252438D02*
X137583333Y-95300057D01*
X138154762Y-95633390D02*
X138059524Y-95585771D01*
X138059524Y-95585771D02*
X138011905Y-95538152D01*
X138011905Y-95538152D02*
X137964286Y-95442914D01*
X137964286Y-95442914D02*
X137964286Y-95395295D01*
X137964286Y-95395295D02*
X138011905Y-95300057D01*
X138011905Y-95300057D02*
X138059524Y-95252438D01*
X138059524Y-95252438D02*
X138154762Y-95204819D01*
X138154762Y-95204819D02*
X138345238Y-95204819D01*
X138345238Y-95204819D02*
X138440476Y-95252438D01*
X138440476Y-95252438D02*
X138488095Y-95300057D01*
X138488095Y-95300057D02*
X138535714Y-95395295D01*
X138535714Y-95395295D02*
X138535714Y-95442914D01*
X138535714Y-95442914D02*
X138488095Y-95538152D01*
X138488095Y-95538152D02*
X138440476Y-95585771D01*
X138440476Y-95585771D02*
X138345238Y-95633390D01*
X138345238Y-95633390D02*
X138154762Y-95633390D01*
X138154762Y-95633390D02*
X138059524Y-95681009D01*
X138059524Y-95681009D02*
X138011905Y-95728628D01*
X138011905Y-95728628D02*
X137964286Y-95823866D01*
X137964286Y-95823866D02*
X137964286Y-96014342D01*
X137964286Y-96014342D02*
X138011905Y-96109580D01*
X138011905Y-96109580D02*
X138059524Y-96157200D01*
X138059524Y-96157200D02*
X138154762Y-96204819D01*
X138154762Y-96204819D02*
X138345238Y-96204819D01*
X138345238Y-96204819D02*
X138440476Y-96157200D01*
X138440476Y-96157200D02*
X138488095Y-96109580D01*
X138488095Y-96109580D02*
X138535714Y-96014342D01*
X138535714Y-96014342D02*
X138535714Y-95823866D01*
X138535714Y-95823866D02*
X138488095Y-95728628D01*
X138488095Y-95728628D02*
X138440476Y-95681009D01*
X138440476Y-95681009D02*
X138345238Y-95633390D01*
X130907142Y-96109580D02*
X130859523Y-96157200D01*
X130859523Y-96157200D02*
X130716666Y-96204819D01*
X130716666Y-96204819D02*
X130621428Y-96204819D01*
X130621428Y-96204819D02*
X130478571Y-96157200D01*
X130478571Y-96157200D02*
X130383333Y-96061961D01*
X130383333Y-96061961D02*
X130335714Y-95966723D01*
X130335714Y-95966723D02*
X130288095Y-95776247D01*
X130288095Y-95776247D02*
X130288095Y-95633390D01*
X130288095Y-95633390D02*
X130335714Y-95442914D01*
X130335714Y-95442914D02*
X130383333Y-95347676D01*
X130383333Y-95347676D02*
X130478571Y-95252438D01*
X130478571Y-95252438D02*
X130621428Y-95204819D01*
X130621428Y-95204819D02*
X130716666Y-95204819D01*
X130716666Y-95204819D02*
X130859523Y-95252438D01*
X130859523Y-95252438D02*
X130907142Y-95300057D01*
X131859523Y-96204819D02*
X131288095Y-96204819D01*
X131573809Y-96204819D02*
X131573809Y-95204819D01*
X131573809Y-95204819D02*
X131478571Y-95347676D01*
X131478571Y-95347676D02*
X131383333Y-95442914D01*
X131383333Y-95442914D02*
X131288095Y-95490533D01*
X132478571Y-95204819D02*
X132573809Y-95204819D01*
X132573809Y-95204819D02*
X132669047Y-95252438D01*
X132669047Y-95252438D02*
X132716666Y-95300057D01*
X132716666Y-95300057D02*
X132764285Y-95395295D01*
X132764285Y-95395295D02*
X132811904Y-95585771D01*
X132811904Y-95585771D02*
X132811904Y-95823866D01*
X132811904Y-95823866D02*
X132764285Y-96014342D01*
X132764285Y-96014342D02*
X132716666Y-96109580D01*
X132716666Y-96109580D02*
X132669047Y-96157200D01*
X132669047Y-96157200D02*
X132573809Y-96204819D01*
X132573809Y-96204819D02*
X132478571Y-96204819D01*
X132478571Y-96204819D02*
X132383333Y-96157200D01*
X132383333Y-96157200D02*
X132335714Y-96109580D01*
X132335714Y-96109580D02*
X132288095Y-96014342D01*
X132288095Y-96014342D02*
X132240476Y-95823866D01*
X132240476Y-95823866D02*
X132240476Y-95585771D01*
X132240476Y-95585771D02*
X132288095Y-95395295D01*
X132288095Y-95395295D02*
X132335714Y-95300057D01*
X132335714Y-95300057D02*
X132383333Y-95252438D01*
X132383333Y-95252438D02*
X132478571Y-95204819D01*
X133761905Y-108554819D02*
X133761905Y-107554819D01*
X133761905Y-107554819D02*
X134000000Y-107554819D01*
X134000000Y-107554819D02*
X134142857Y-107602438D01*
X134142857Y-107602438D02*
X134238095Y-107697676D01*
X134238095Y-107697676D02*
X134285714Y-107792914D01*
X134285714Y-107792914D02*
X134333333Y-107983390D01*
X134333333Y-107983390D02*
X134333333Y-108126247D01*
X134333333Y-108126247D02*
X134285714Y-108316723D01*
X134285714Y-108316723D02*
X134238095Y-108411961D01*
X134238095Y-108411961D02*
X134142857Y-108507200D01*
X134142857Y-108507200D02*
X134000000Y-108554819D01*
X134000000Y-108554819D02*
X133761905Y-108554819D01*
X135190476Y-107554819D02*
X135000000Y-107554819D01*
X135000000Y-107554819D02*
X134904762Y-107602438D01*
X134904762Y-107602438D02*
X134857143Y-107650057D01*
X134857143Y-107650057D02*
X134761905Y-107792914D01*
X134761905Y-107792914D02*
X134714286Y-107983390D01*
X134714286Y-107983390D02*
X134714286Y-108364342D01*
X134714286Y-108364342D02*
X134761905Y-108459580D01*
X134761905Y-108459580D02*
X134809524Y-108507200D01*
X134809524Y-108507200D02*
X134904762Y-108554819D01*
X134904762Y-108554819D02*
X135095238Y-108554819D01*
X135095238Y-108554819D02*
X135190476Y-108507200D01*
X135190476Y-108507200D02*
X135238095Y-108459580D01*
X135238095Y-108459580D02*
X135285714Y-108364342D01*
X135285714Y-108364342D02*
X135285714Y-108126247D01*
X135285714Y-108126247D02*
X135238095Y-108031009D01*
X135238095Y-108031009D02*
X135190476Y-107983390D01*
X135190476Y-107983390D02*
X135095238Y-107935771D01*
X135095238Y-107935771D02*
X134904762Y-107935771D01*
X134904762Y-107935771D02*
X134809524Y-107983390D01*
X134809524Y-107983390D02*
X134761905Y-108031009D01*
X134761905Y-108031009D02*
X134714286Y-108126247D01*
X119704819Y-87666666D02*
X119228628Y-87999999D01*
X119704819Y-88238094D02*
X118704819Y-88238094D01*
X118704819Y-88238094D02*
X118704819Y-87857142D01*
X118704819Y-87857142D02*
X118752438Y-87761904D01*
X118752438Y-87761904D02*
X118800057Y-87714285D01*
X118800057Y-87714285D02*
X118895295Y-87666666D01*
X118895295Y-87666666D02*
X119038152Y-87666666D01*
X119038152Y-87666666D02*
X119133390Y-87714285D01*
X119133390Y-87714285D02*
X119181009Y-87761904D01*
X119181009Y-87761904D02*
X119228628Y-87857142D01*
X119228628Y-87857142D02*
X119228628Y-88238094D01*
X118704819Y-86761904D02*
X118704819Y-87238094D01*
X118704819Y-87238094D02*
X119181009Y-87285713D01*
X119181009Y-87285713D02*
X119133390Y-87238094D01*
X119133390Y-87238094D02*
X119085771Y-87142856D01*
X119085771Y-87142856D02*
X119085771Y-86904761D01*
X119085771Y-86904761D02*
X119133390Y-86809523D01*
X119133390Y-86809523D02*
X119181009Y-86761904D01*
X119181009Y-86761904D02*
X119276247Y-86714285D01*
X119276247Y-86714285D02*
X119514342Y-86714285D01*
X119514342Y-86714285D02*
X119609580Y-86761904D01*
X119609580Y-86761904D02*
X119657200Y-86809523D01*
X119657200Y-86809523D02*
X119704819Y-86904761D01*
X119704819Y-86904761D02*
X119704819Y-87142856D01*
X119704819Y-87142856D02*
X119657200Y-87238094D01*
X119657200Y-87238094D02*
X119609580Y-87285713D01*
X119654761Y-85050057D02*
X119559523Y-85002438D01*
X119559523Y-85002438D02*
X119464285Y-84907200D01*
X119464285Y-84907200D02*
X119321428Y-84764342D01*
X119321428Y-84764342D02*
X119226190Y-84716723D01*
X119226190Y-84716723D02*
X119130952Y-84716723D01*
X119178571Y-84954819D02*
X119083333Y-84907200D01*
X119083333Y-84907200D02*
X118988095Y-84811961D01*
X118988095Y-84811961D02*
X118940476Y-84621485D01*
X118940476Y-84621485D02*
X118940476Y-84288152D01*
X118940476Y-84288152D02*
X118988095Y-84097676D01*
X118988095Y-84097676D02*
X119083333Y-84002438D01*
X119083333Y-84002438D02*
X119178571Y-83954819D01*
X119178571Y-83954819D02*
X119369047Y-83954819D01*
X119369047Y-83954819D02*
X119464285Y-84002438D01*
X119464285Y-84002438D02*
X119559523Y-84097676D01*
X119559523Y-84097676D02*
X119607142Y-84288152D01*
X119607142Y-84288152D02*
X119607142Y-84621485D01*
X119607142Y-84621485D02*
X119559523Y-84811961D01*
X119559523Y-84811961D02*
X119464285Y-84907200D01*
X119464285Y-84907200D02*
X119369047Y-84954819D01*
X119369047Y-84954819D02*
X119178571Y-84954819D01*
X120559523Y-84954819D02*
X119988095Y-84954819D01*
X120273809Y-84954819D02*
X120273809Y-83954819D01*
X120273809Y-83954819D02*
X120178571Y-84097676D01*
X120178571Y-84097676D02*
X120083333Y-84192914D01*
X120083333Y-84192914D02*
X119988095Y-84240533D01*
X127607143Y-85359580D02*
X127559524Y-85407200D01*
X127559524Y-85407200D02*
X127416667Y-85454819D01*
X127416667Y-85454819D02*
X127321429Y-85454819D01*
X127321429Y-85454819D02*
X127178572Y-85407200D01*
X127178572Y-85407200D02*
X127083334Y-85311961D01*
X127083334Y-85311961D02*
X127035715Y-85216723D01*
X127035715Y-85216723D02*
X126988096Y-85026247D01*
X126988096Y-85026247D02*
X126988096Y-84883390D01*
X126988096Y-84883390D02*
X127035715Y-84692914D01*
X127035715Y-84692914D02*
X127083334Y-84597676D01*
X127083334Y-84597676D02*
X127178572Y-84502438D01*
X127178572Y-84502438D02*
X127321429Y-84454819D01*
X127321429Y-84454819D02*
X127416667Y-84454819D01*
X127416667Y-84454819D02*
X127559524Y-84502438D01*
X127559524Y-84502438D02*
X127607143Y-84550057D01*
X128559524Y-85454819D02*
X127988096Y-85454819D01*
X128273810Y-85454819D02*
X128273810Y-84454819D01*
X128273810Y-84454819D02*
X128178572Y-84597676D01*
X128178572Y-84597676D02*
X128083334Y-84692914D01*
X128083334Y-84692914D02*
X127988096Y-84740533D01*
X128892858Y-84454819D02*
X129511905Y-84454819D01*
X129511905Y-84454819D02*
X129178572Y-84835771D01*
X129178572Y-84835771D02*
X129321429Y-84835771D01*
X129321429Y-84835771D02*
X129416667Y-84883390D01*
X129416667Y-84883390D02*
X129464286Y-84931009D01*
X129464286Y-84931009D02*
X129511905Y-85026247D01*
X129511905Y-85026247D02*
X129511905Y-85264342D01*
X129511905Y-85264342D02*
X129464286Y-85359580D01*
X129464286Y-85359580D02*
X129416667Y-85407200D01*
X129416667Y-85407200D02*
X129321429Y-85454819D01*
X129321429Y-85454819D02*
X129035715Y-85454819D01*
X129035715Y-85454819D02*
X128940477Y-85407200D01*
X128940477Y-85407200D02*
X128892858Y-85359580D01*
X124704819Y-87666666D02*
X124228628Y-87999999D01*
X124704819Y-88238094D02*
X123704819Y-88238094D01*
X123704819Y-88238094D02*
X123704819Y-87857142D01*
X123704819Y-87857142D02*
X123752438Y-87761904D01*
X123752438Y-87761904D02*
X123800057Y-87714285D01*
X123800057Y-87714285D02*
X123895295Y-87666666D01*
X123895295Y-87666666D02*
X124038152Y-87666666D01*
X124038152Y-87666666D02*
X124133390Y-87714285D01*
X124133390Y-87714285D02*
X124181009Y-87761904D01*
X124181009Y-87761904D02*
X124228628Y-87857142D01*
X124228628Y-87857142D02*
X124228628Y-88238094D01*
X123704819Y-86809523D02*
X123704819Y-86999999D01*
X123704819Y-86999999D02*
X123752438Y-87095237D01*
X123752438Y-87095237D02*
X123800057Y-87142856D01*
X123800057Y-87142856D02*
X123942914Y-87238094D01*
X123942914Y-87238094D02*
X124133390Y-87285713D01*
X124133390Y-87285713D02*
X124514342Y-87285713D01*
X124514342Y-87285713D02*
X124609580Y-87238094D01*
X124609580Y-87238094D02*
X124657200Y-87190475D01*
X124657200Y-87190475D02*
X124704819Y-87095237D01*
X124704819Y-87095237D02*
X124704819Y-86904761D01*
X124704819Y-86904761D02*
X124657200Y-86809523D01*
X124657200Y-86809523D02*
X124609580Y-86761904D01*
X124609580Y-86761904D02*
X124514342Y-86714285D01*
X124514342Y-86714285D02*
X124276247Y-86714285D01*
X124276247Y-86714285D02*
X124181009Y-86761904D01*
X124181009Y-86761904D02*
X124133390Y-86809523D01*
X124133390Y-86809523D02*
X124085771Y-86904761D01*
X124085771Y-86904761D02*
X124085771Y-87095237D01*
X124085771Y-87095237D02*
X124133390Y-87190475D01*
X124133390Y-87190475D02*
X124181009Y-87238094D01*
X124181009Y-87238094D02*
X124276247Y-87285713D01*
X127607142Y-88609580D02*
X127559523Y-88657200D01*
X127559523Y-88657200D02*
X127416666Y-88704819D01*
X127416666Y-88704819D02*
X127321428Y-88704819D01*
X127321428Y-88704819D02*
X127178571Y-88657200D01*
X127178571Y-88657200D02*
X127083333Y-88561961D01*
X127083333Y-88561961D02*
X127035714Y-88466723D01*
X127035714Y-88466723D02*
X126988095Y-88276247D01*
X126988095Y-88276247D02*
X126988095Y-88133390D01*
X126988095Y-88133390D02*
X127035714Y-87942914D01*
X127035714Y-87942914D02*
X127083333Y-87847676D01*
X127083333Y-87847676D02*
X127178571Y-87752438D01*
X127178571Y-87752438D02*
X127321428Y-87704819D01*
X127321428Y-87704819D02*
X127416666Y-87704819D01*
X127416666Y-87704819D02*
X127559523Y-87752438D01*
X127559523Y-87752438D02*
X127607142Y-87800057D01*
X128559523Y-88704819D02*
X127988095Y-88704819D01*
X128273809Y-88704819D02*
X128273809Y-87704819D01*
X128273809Y-87704819D02*
X128178571Y-87847676D01*
X128178571Y-87847676D02*
X128083333Y-87942914D01*
X128083333Y-87942914D02*
X127988095Y-87990533D01*
X129416666Y-88038152D02*
X129416666Y-88704819D01*
X129178571Y-87657200D02*
X128940476Y-88371485D01*
X128940476Y-88371485D02*
X129559523Y-88371485D01*
X136511905Y-89454819D02*
X136511905Y-88454819D01*
X136511905Y-88454819D02*
X136750000Y-88454819D01*
X136750000Y-88454819D02*
X136892857Y-88502438D01*
X136892857Y-88502438D02*
X136988095Y-88597676D01*
X136988095Y-88597676D02*
X137035714Y-88692914D01*
X137035714Y-88692914D02*
X137083333Y-88883390D01*
X137083333Y-88883390D02*
X137083333Y-89026247D01*
X137083333Y-89026247D02*
X137035714Y-89216723D01*
X137035714Y-89216723D02*
X136988095Y-89311961D01*
X136988095Y-89311961D02*
X136892857Y-89407200D01*
X136892857Y-89407200D02*
X136750000Y-89454819D01*
X136750000Y-89454819D02*
X136511905Y-89454819D01*
X137940476Y-88788152D02*
X137940476Y-89454819D01*
X137702381Y-88407200D02*
X137464286Y-89121485D01*
X137464286Y-89121485D02*
X138083333Y-89121485D01*
X124839582Y-107116665D02*
X124887202Y-107164284D01*
X124887202Y-107164284D02*
X124934821Y-107307141D01*
X124934821Y-107307141D02*
X124934821Y-107402379D01*
X124934821Y-107402379D02*
X124887202Y-107545236D01*
X124887202Y-107545236D02*
X124791963Y-107640474D01*
X124791963Y-107640474D02*
X124696725Y-107688093D01*
X124696725Y-107688093D02*
X124506249Y-107735712D01*
X124506249Y-107735712D02*
X124363392Y-107735712D01*
X124363392Y-107735712D02*
X124172916Y-107688093D01*
X124172916Y-107688093D02*
X124077678Y-107640474D01*
X124077678Y-107640474D02*
X123982440Y-107545236D01*
X123982440Y-107545236D02*
X123934821Y-107402379D01*
X123934821Y-107402379D02*
X123934821Y-107307141D01*
X123934821Y-107307141D02*
X123982440Y-107164284D01*
X123982440Y-107164284D02*
X124030059Y-107116665D01*
X124268154Y-106259522D02*
X124934821Y-106259522D01*
X123887202Y-106497617D02*
X124601487Y-106735712D01*
X124601487Y-106735712D02*
X124601487Y-106116665D01*
X127589582Y-107116665D02*
X127637202Y-107164284D01*
X127637202Y-107164284D02*
X127684821Y-107307141D01*
X127684821Y-107307141D02*
X127684821Y-107402379D01*
X127684821Y-107402379D02*
X127637202Y-107545236D01*
X127637202Y-107545236D02*
X127541963Y-107640474D01*
X127541963Y-107640474D02*
X127446725Y-107688093D01*
X127446725Y-107688093D02*
X127256249Y-107735712D01*
X127256249Y-107735712D02*
X127113392Y-107735712D01*
X127113392Y-107735712D02*
X126922916Y-107688093D01*
X126922916Y-107688093D02*
X126827678Y-107640474D01*
X126827678Y-107640474D02*
X126732440Y-107545236D01*
X126732440Y-107545236D02*
X126684821Y-107402379D01*
X126684821Y-107402379D02*
X126684821Y-107307141D01*
X126684821Y-107307141D02*
X126732440Y-107164284D01*
X126732440Y-107164284D02*
X126780059Y-107116665D01*
X126684821Y-106211903D02*
X126684821Y-106688093D01*
X126684821Y-106688093D02*
X127161011Y-106735712D01*
X127161011Y-106735712D02*
X127113392Y-106688093D01*
X127113392Y-106688093D02*
X127065773Y-106592855D01*
X127065773Y-106592855D02*
X127065773Y-106354760D01*
X127065773Y-106354760D02*
X127113392Y-106259522D01*
X127113392Y-106259522D02*
X127161011Y-106211903D01*
X127161011Y-106211903D02*
X127256249Y-106164284D01*
X127256249Y-106164284D02*
X127494344Y-106164284D01*
X127494344Y-106164284D02*
X127589582Y-106211903D01*
X127589582Y-106211903D02*
X127637202Y-106259522D01*
X127637202Y-106259522D02*
X127684821Y-106354760D01*
X127684821Y-106354760D02*
X127684821Y-106592855D01*
X127684821Y-106592855D02*
X127637202Y-106688093D01*
X127637202Y-106688093D02*
X127589582Y-106735712D01*
X130339582Y-107116665D02*
X130387202Y-107164284D01*
X130387202Y-107164284D02*
X130434821Y-107307141D01*
X130434821Y-107307141D02*
X130434821Y-107402379D01*
X130434821Y-107402379D02*
X130387202Y-107545236D01*
X130387202Y-107545236D02*
X130291963Y-107640474D01*
X130291963Y-107640474D02*
X130196725Y-107688093D01*
X130196725Y-107688093D02*
X130006249Y-107735712D01*
X130006249Y-107735712D02*
X129863392Y-107735712D01*
X129863392Y-107735712D02*
X129672916Y-107688093D01*
X129672916Y-107688093D02*
X129577678Y-107640474D01*
X129577678Y-107640474D02*
X129482440Y-107545236D01*
X129482440Y-107545236D02*
X129434821Y-107402379D01*
X129434821Y-107402379D02*
X129434821Y-107307141D01*
X129434821Y-107307141D02*
X129482440Y-107164284D01*
X129482440Y-107164284D02*
X129530059Y-107116665D01*
X129434821Y-106259522D02*
X129434821Y-106449998D01*
X129434821Y-106449998D02*
X129482440Y-106545236D01*
X129482440Y-106545236D02*
X129530059Y-106592855D01*
X129530059Y-106592855D02*
X129672916Y-106688093D01*
X129672916Y-106688093D02*
X129863392Y-106735712D01*
X129863392Y-106735712D02*
X130244344Y-106735712D01*
X130244344Y-106735712D02*
X130339582Y-106688093D01*
X130339582Y-106688093D02*
X130387202Y-106640474D01*
X130387202Y-106640474D02*
X130434821Y-106545236D01*
X130434821Y-106545236D02*
X130434821Y-106354760D01*
X130434821Y-106354760D02*
X130387202Y-106259522D01*
X130387202Y-106259522D02*
X130339582Y-106211903D01*
X130339582Y-106211903D02*
X130244344Y-106164284D01*
X130244344Y-106164284D02*
X130006249Y-106164284D01*
X130006249Y-106164284D02*
X129911011Y-106211903D01*
X129911011Y-106211903D02*
X129863392Y-106259522D01*
X129863392Y-106259522D02*
X129815773Y-106354760D01*
X129815773Y-106354760D02*
X129815773Y-106545236D01*
X129815773Y-106545236D02*
X129863392Y-106640474D01*
X129863392Y-106640474D02*
X129911011Y-106688093D01*
X129911011Y-106688093D02*
X130006249Y-106735712D01*
X122109580Y-107166666D02*
X122157200Y-107214285D01*
X122157200Y-107214285D02*
X122204819Y-107357142D01*
X122204819Y-107357142D02*
X122204819Y-107452380D01*
X122204819Y-107452380D02*
X122157200Y-107595237D01*
X122157200Y-107595237D02*
X122061961Y-107690475D01*
X122061961Y-107690475D02*
X121966723Y-107738094D01*
X121966723Y-107738094D02*
X121776247Y-107785713D01*
X121776247Y-107785713D02*
X121633390Y-107785713D01*
X121633390Y-107785713D02*
X121442914Y-107738094D01*
X121442914Y-107738094D02*
X121347676Y-107690475D01*
X121347676Y-107690475D02*
X121252438Y-107595237D01*
X121252438Y-107595237D02*
X121204819Y-107452380D01*
X121204819Y-107452380D02*
X121204819Y-107357142D01*
X121204819Y-107357142D02*
X121252438Y-107214285D01*
X121252438Y-107214285D02*
X121300057Y-107166666D01*
X121204819Y-106833332D02*
X121204819Y-106214285D01*
X121204819Y-106214285D02*
X121585771Y-106547618D01*
X121585771Y-106547618D02*
X121585771Y-106404761D01*
X121585771Y-106404761D02*
X121633390Y-106309523D01*
X121633390Y-106309523D02*
X121681009Y-106261904D01*
X121681009Y-106261904D02*
X121776247Y-106214285D01*
X121776247Y-106214285D02*
X122014342Y-106214285D01*
X122014342Y-106214285D02*
X122109580Y-106261904D01*
X122109580Y-106261904D02*
X122157200Y-106309523D01*
X122157200Y-106309523D02*
X122204819Y-106404761D01*
X122204819Y-106404761D02*
X122204819Y-106690475D01*
X122204819Y-106690475D02*
X122157200Y-106785713D01*
X122157200Y-106785713D02*
X122109580Y-106833332D01*
D13*
%TO.C,G\u002A\u002A\u002A*%
G36*
X174616898Y-93389815D02*
G01*
X174631893Y-93484282D01*
X174662432Y-93551364D01*
X174714628Y-93599621D01*
X174793522Y-93637215D01*
X174909981Y-93667720D01*
X175033059Y-93677524D01*
X175153864Y-93667738D01*
X175263504Y-93639474D01*
X175353088Y-93593842D01*
X175389655Y-93562723D01*
X175420302Y-93526193D01*
X175435922Y-93489782D01*
X175440886Y-93439209D01*
X175440571Y-93396330D01*
X175441569Y-93337821D01*
X175446732Y-93297732D01*
X175453397Y-93285736D01*
X175482364Y-93298947D01*
X175523565Y-93332133D01*
X175566830Y-93375624D01*
X175601983Y-93419748D01*
X175612146Y-93436650D01*
X175621302Y-93463217D01*
X175629292Y-93507283D01*
X175636408Y-93572471D01*
X175642943Y-93662405D01*
X175649190Y-93780706D01*
X175655443Y-93930997D01*
X175658186Y-94005799D01*
X175664611Y-94176900D01*
X175672850Y-94380792D01*
X175682702Y-94613157D01*
X175693966Y-94869675D01*
X175706437Y-95146034D01*
X175719916Y-95437914D01*
X175734199Y-95740998D01*
X175749084Y-96050969D01*
X175764369Y-96363511D01*
X175779852Y-96674307D01*
X175795331Y-96979038D01*
X175810603Y-97273388D01*
X175815881Y-97373519D01*
X175825173Y-97549349D01*
X175833836Y-97713915D01*
X175841675Y-97863478D01*
X175848497Y-97994297D01*
X175854106Y-98102632D01*
X175858308Y-98184746D01*
X175860909Y-98236896D01*
X175861720Y-98255162D01*
X175849143Y-98275736D01*
X175815930Y-98313433D01*
X175769006Y-98360451D01*
X175764265Y-98364951D01*
X175659234Y-98453916D01*
X175539586Y-98538685D01*
X175418435Y-98610634D01*
X175320814Y-98656565D01*
X175219802Y-98689697D01*
X175101522Y-98718150D01*
X174982018Y-98738721D01*
X174877336Y-98748214D01*
X174859787Y-98748501D01*
X174759535Y-98739220D01*
X174638510Y-98713320D01*
X174507550Y-98673716D01*
X174377496Y-98623320D01*
X174352121Y-98612009D01*
X174208120Y-98546226D01*
X174208202Y-98298973D01*
X174209323Y-98225911D01*
X174212490Y-98121270D01*
X174217460Y-97990562D01*
X174223990Y-97839299D01*
X174231838Y-97672994D01*
X174240763Y-97497158D01*
X174250521Y-97317304D01*
X174254185Y-97252744D01*
X174270782Y-96959472D01*
X174287609Y-96653792D01*
X174304431Y-96340464D01*
X174321012Y-96024244D01*
X174337115Y-95709889D01*
X174352501Y-95402158D01*
X174366937Y-95105808D01*
X174380184Y-94825597D01*
X174392007Y-94566282D01*
X174402166Y-94332621D01*
X174410428Y-94129372D01*
X174413178Y-94056840D01*
X174418941Y-93916019D01*
X174425370Y-93784777D01*
X174432124Y-93668436D01*
X174438855Y-93572316D01*
X174445222Y-93501735D01*
X174450882Y-93462017D01*
X174451805Y-93458537D01*
X174477439Y-93409820D01*
X174519933Y-93357184D01*
X174539064Y-93338758D01*
X174607608Y-93278438D01*
X174616898Y-93389815D01*
G37*
G36*
X174045774Y-100987479D02*
G01*
X174052667Y-101018160D01*
X174056978Y-101074515D01*
X174059093Y-101160816D01*
X174059473Y-101239073D01*
X174060209Y-101348175D01*
X174062950Y-101427537D01*
X174068492Y-101484560D01*
X174077633Y-101526644D01*
X174091171Y-101561192D01*
X174095007Y-101568883D01*
X174168505Y-101671523D01*
X174273856Y-101758222D01*
X174408976Y-101828178D01*
X174571781Y-101880587D01*
X174760189Y-101914650D01*
X174972111Y-101929566D01*
X175034967Y-101930203D01*
X175257076Y-101920402D01*
X175449949Y-101891527D01*
X175616701Y-101842788D01*
X175760447Y-101773399D01*
X175824767Y-101730640D01*
X175886318Y-101681153D01*
X175931849Y-101631479D01*
X175963937Y-101574722D01*
X175985158Y-101503988D01*
X175998089Y-101412383D01*
X176005303Y-101293010D01*
X176006967Y-101242979D01*
X176010211Y-101148609D01*
X176013946Y-101069084D01*
X176017786Y-101010990D01*
X176021342Y-100980914D01*
X176022558Y-100978202D01*
X176055963Y-100989176D01*
X176107241Y-101017614D01*
X176166059Y-101056782D01*
X176222082Y-101099948D01*
X176254411Y-101129247D01*
X176289135Y-101164835D01*
X176316912Y-101197698D01*
X176338512Y-101232348D01*
X176354703Y-101273296D01*
X176366254Y-101325051D01*
X176373934Y-101392124D01*
X176378511Y-101479026D01*
X176380754Y-101590267D01*
X176381430Y-101730358D01*
X176381350Y-101874129D01*
X176380694Y-102043850D01*
X176379126Y-102179998D01*
X176376491Y-102286149D01*
X176372636Y-102365882D01*
X176367407Y-102422776D01*
X176360650Y-102460410D01*
X176355476Y-102475987D01*
X176301346Y-102559333D01*
X176214257Y-102640405D01*
X176098387Y-102715628D01*
X176040140Y-102745580D01*
X175869900Y-102814883D01*
X175684261Y-102868604D01*
X175487194Y-102907208D01*
X175282668Y-102931155D01*
X175074653Y-102940907D01*
X174867118Y-102936925D01*
X174664032Y-102919669D01*
X174469366Y-102889605D01*
X174287087Y-102847191D01*
X174121167Y-102792889D01*
X173975574Y-102727160D01*
X173854278Y-102650467D01*
X173761248Y-102563271D01*
X173703941Y-102473958D01*
X173693939Y-102448735D01*
X173686100Y-102419052D01*
X173680170Y-102380315D01*
X173675887Y-102327926D01*
X173672996Y-102257290D01*
X173671239Y-102163810D01*
X173670357Y-102042892D01*
X173670094Y-101889938D01*
X173670091Y-101870081D01*
X173670393Y-101701920D01*
X173671832Y-101566407D01*
X173675219Y-101459030D01*
X173681359Y-101375276D01*
X173691057Y-101310634D01*
X173705124Y-101260591D01*
X173724364Y-101220635D01*
X173749585Y-101186254D01*
X173781594Y-101152935D01*
X173801718Y-101134042D01*
X173859931Y-101084680D01*
X173922303Y-101038646D01*
X173979655Y-101002047D01*
X174022811Y-100980993D01*
X174035915Y-100978201D01*
X174045774Y-100987479D01*
G37*
G36*
X174180570Y-95927910D02*
G01*
X174181499Y-95947845D01*
X174178350Y-95993489D01*
X174173779Y-96037465D01*
X174166350Y-96089624D01*
X174154373Y-96127324D01*
X174131396Y-96160414D01*
X174090977Y-96198744D01*
X174040892Y-96240504D01*
X173842201Y-96418784D01*
X173671391Y-96603978D01*
X173530549Y-96793197D01*
X173421761Y-96983548D01*
X173347113Y-97172141D01*
X173333605Y-97220336D01*
X173298455Y-97424852D01*
X173299586Y-97621444D01*
X173336945Y-97809981D01*
X173410478Y-97990334D01*
X173520132Y-98162373D01*
X173665853Y-98325970D01*
X173847587Y-98480993D01*
X173857402Y-98488355D01*
X173999197Y-98583594D01*
X174162698Y-98676262D01*
X174333084Y-98758699D01*
X174495533Y-98823247D01*
X174523994Y-98832765D01*
X174719491Y-98876715D01*
X174922221Y-98886042D01*
X175127970Y-98861479D01*
X175332523Y-98803759D01*
X175531665Y-98713613D01*
X175659974Y-98635432D01*
X175823979Y-98504942D01*
X175981329Y-98342089D01*
X176129149Y-98151479D01*
X176264562Y-97937719D01*
X176384693Y-97705415D01*
X176486665Y-97459172D01*
X176567601Y-97203598D01*
X176577383Y-97166185D01*
X176606951Y-97077735D01*
X176641736Y-97022348D01*
X176680490Y-97001969D01*
X176682921Y-97001902D01*
X176706829Y-97014274D01*
X176738016Y-97042434D01*
X176763211Y-97072951D01*
X176770120Y-97090161D01*
X176764373Y-97118204D01*
X176759039Y-97141259D01*
X176750109Y-97171891D01*
X176731795Y-97230172D01*
X176706528Y-97308512D01*
X176676734Y-97399326D01*
X176667471Y-97427285D01*
X176553593Y-97726662D01*
X176420030Y-97999455D01*
X176267846Y-98244280D01*
X176098107Y-98459751D01*
X175911881Y-98644486D01*
X175710231Y-98797098D01*
X175536648Y-98896055D01*
X175317139Y-98985055D01*
X175095242Y-99037074D01*
X174871647Y-99052068D01*
X174647040Y-99029992D01*
X174422109Y-98970802D01*
X174414974Y-98968315D01*
X174176888Y-98870808D01*
X173955618Y-98752514D01*
X173754166Y-98616211D01*
X173575536Y-98464678D01*
X173422732Y-98300696D01*
X173298759Y-98127041D01*
X173206617Y-97946495D01*
X173159933Y-97807169D01*
X173141227Y-97701138D01*
X173132163Y-97573671D01*
X173132992Y-97439285D01*
X173143960Y-97312499D01*
X173150700Y-97270092D01*
X173204793Y-97072217D01*
X173294046Y-96871485D01*
X173416820Y-96670233D01*
X173571477Y-96470800D01*
X173756379Y-96275525D01*
X173969889Y-96086746D01*
X173991942Y-96068962D01*
X174061458Y-96014080D01*
X174119735Y-95969456D01*
X174161145Y-95939298D01*
X174180060Y-95927814D01*
X174180570Y-95927910D01*
G37*
G36*
X176044762Y-91361182D02*
G01*
X176228422Y-91421328D01*
X176265547Y-91437644D01*
X176452986Y-91543609D01*
X176620008Y-91679193D01*
X176764336Y-91841578D01*
X176883692Y-92027948D01*
X176975801Y-92235487D01*
X177016247Y-92365984D01*
X177037215Y-92472557D01*
X177052386Y-92604737D01*
X177061428Y-92751373D01*
X177064010Y-92901317D01*
X177059800Y-93043416D01*
X177048470Y-93166520D01*
X177041333Y-93210794D01*
X176972506Y-93479716D01*
X176868296Y-93751563D01*
X176730056Y-94023688D01*
X176559146Y-94293443D01*
X176356920Y-94558183D01*
X176341083Y-94577104D01*
X176265113Y-94662821D01*
X176179790Y-94751729D01*
X176091745Y-94837581D01*
X176007613Y-94914129D01*
X175934023Y-94975126D01*
X175877610Y-95014326D01*
X175875750Y-95015384D01*
X175856386Y-95022278D01*
X175846701Y-95009746D01*
X175843456Y-94970551D01*
X175843233Y-94942665D01*
X175843233Y-94851689D01*
X176053194Y-94640073D01*
X176277892Y-94390844D01*
X176472036Y-94127596D01*
X176632812Y-93854232D01*
X176661681Y-93796709D01*
X176730953Y-93648529D01*
X176783820Y-93519791D01*
X176824301Y-93398892D01*
X176856412Y-93274223D01*
X176876530Y-93175997D01*
X176893316Y-93045577D01*
X176900089Y-92895574D01*
X176897290Y-92738040D01*
X176885358Y-92585023D01*
X176864736Y-92448574D01*
X176847260Y-92375783D01*
X176770364Y-92170813D01*
X176665563Y-91987074D01*
X176534986Y-91827216D01*
X176380757Y-91693890D01*
X176223324Y-91598689D01*
X176058008Y-91534168D01*
X175895885Y-91505189D01*
X175740272Y-91510249D01*
X175594483Y-91547845D01*
X175461834Y-91616474D01*
X175345641Y-91714634D01*
X175249218Y-91840822D01*
X175175883Y-91993535D01*
X175147040Y-92086530D01*
X175131235Y-92160181D01*
X175120901Y-92231629D01*
X175118581Y-92268915D01*
X175109331Y-92347570D01*
X175082184Y-92395947D01*
X175038043Y-92412436D01*
X175038029Y-92412436D01*
X174991357Y-92402218D01*
X174963902Y-92368341D01*
X174952661Y-92305976D01*
X174952015Y-92274009D01*
X174969922Y-92105074D01*
X175018602Y-91935931D01*
X175093997Y-91776329D01*
X175192051Y-91636013D01*
X175238598Y-91585588D01*
X175377814Y-91471708D01*
X175530158Y-91392021D01*
X175693511Y-91346834D01*
X175865752Y-91336454D01*
X176044762Y-91361182D01*
G37*
G36*
X175861700Y-100163465D02*
G01*
X175861597Y-100417202D01*
X175861299Y-100636389D01*
X175860753Y-100823637D01*
X175859899Y-100981557D01*
X175858683Y-101112760D01*
X175857049Y-101219858D01*
X175854942Y-101305461D01*
X175852304Y-101372181D01*
X175849080Y-101422629D01*
X175845214Y-101459416D01*
X175840650Y-101485153D01*
X175835333Y-101502451D01*
X175832899Y-101507755D01*
X175799929Y-101558946D01*
X175754484Y-101602433D01*
X175688524Y-101644542D01*
X175606981Y-101685550D01*
X175469163Y-101736879D01*
X175315110Y-101771316D01*
X175150889Y-101789457D01*
X174982575Y-101791896D01*
X174816237Y-101779231D01*
X174657947Y-101752055D01*
X174513777Y-101710963D01*
X174389794Y-101656553D01*
X174292074Y-101589416D01*
X174256531Y-101553146D01*
X174208121Y-101495613D01*
X174208120Y-100273430D01*
X174208120Y-99051247D01*
X174398573Y-99117472D01*
X174472381Y-99142685D01*
X174531254Y-99160510D01*
X174584421Y-99172216D01*
X174641105Y-99179073D01*
X174710536Y-99182351D01*
X174801937Y-99183319D01*
X174877030Y-99183311D01*
X174992198Y-99182556D01*
X175079532Y-99179951D01*
X175148350Y-99174454D01*
X175207971Y-99165021D01*
X175267713Y-99150609D01*
X175328327Y-99132815D01*
X175478673Y-99078972D01*
X175630334Y-99011028D01*
X175766616Y-98936680D01*
X175801426Y-98914660D01*
X175861814Y-98874917D01*
X175861700Y-100163465D01*
G37*
G36*
X175265075Y-92791485D02*
G01*
X175272813Y-92915191D01*
X175280658Y-93037860D01*
X175287992Y-93150092D01*
X175294204Y-93242486D01*
X175298091Y-93297675D01*
X175302986Y-93372687D01*
X175303002Y-93419738D01*
X175296358Y-93447896D01*
X175281273Y-93466232D01*
X175262376Y-93479634D01*
X175191972Y-93509423D01*
X175099457Y-93526439D01*
X174997735Y-93530369D01*
X174899706Y-93520900D01*
X174818272Y-93497717D01*
X174803942Y-93490786D01*
X174785116Y-93476863D01*
X174773643Y-93454297D01*
X174767760Y-93414819D01*
X174765697Y-93350159D01*
X174765546Y-93311030D01*
X174767125Y-93228378D01*
X174771445Y-93119609D01*
X174777879Y-92994919D01*
X174785797Y-92864511D01*
X174794571Y-92738579D01*
X174803574Y-92627323D01*
X174812176Y-92540941D01*
X174813817Y-92527354D01*
X174823929Y-92447172D01*
X174871970Y-92495213D01*
X174943534Y-92543188D01*
X175025220Y-92560824D01*
X175107105Y-92548277D01*
X175179268Y-92505699D01*
X175194797Y-92490192D01*
X175243143Y-92436591D01*
X175265075Y-92791485D01*
G37*
G36*
X174806545Y-108129761D02*
G01*
X174853804Y-108136343D01*
X174923140Y-108143146D01*
X175012995Y-108145781D01*
X175106924Y-108143887D01*
X175132516Y-108142445D01*
X175216885Y-108138038D01*
X175269825Y-108138561D01*
X175296791Y-108144405D01*
X175303353Y-108154673D01*
X175298766Y-108178001D01*
X175286272Y-108232784D01*
X175266974Y-108314423D01*
X175241973Y-108418318D01*
X175212371Y-108539874D01*
X175179269Y-108674489D01*
X175164672Y-108733474D01*
X175130348Y-108871272D01*
X175098709Y-108997047D01*
X175070892Y-109106375D01*
X175048036Y-109194828D01*
X175031279Y-109257978D01*
X175021759Y-109291400D01*
X175020163Y-109295541D01*
X175014956Y-109279566D01*
X175002698Y-109232533D01*
X174984603Y-109159619D01*
X174961884Y-109065998D01*
X174935753Y-108956844D01*
X174907424Y-108837332D01*
X174878108Y-108712637D01*
X174849019Y-108587933D01*
X174821370Y-108468395D01*
X174796374Y-108359199D01*
X174775244Y-108265517D01*
X174759192Y-108192525D01*
X174749430Y-108145399D01*
X174746964Y-108129933D01*
X174763544Y-108126742D01*
X174806545Y-108129761D01*
G37*
G36*
X174519141Y-103048857D02*
G01*
X174606774Y-103062451D01*
X174722493Y-103072319D01*
X174857409Y-103078463D01*
X175002630Y-103080883D01*
X175149269Y-103079578D01*
X175288435Y-103074550D01*
X175411241Y-103065798D01*
X175508795Y-103053324D01*
X175532004Y-103048814D01*
X175583102Y-103037721D01*
X175583102Y-105424301D01*
X175583102Y-107810880D01*
X175534734Y-107859248D01*
X175464912Y-107913360D01*
X175376549Y-107952205D01*
X175264763Y-107977098D01*
X175124662Y-107989352D01*
X175044257Y-107991140D01*
X174886363Y-107986993D01*
X174759256Y-107971768D01*
X174657903Y-107944290D01*
X174577273Y-107903381D01*
X174537503Y-107872573D01*
X174477542Y-107819000D01*
X174472688Y-105428315D01*
X174467835Y-103037629D01*
X174519141Y-103048857D01*
G37*
G36*
X179900738Y-103599999D02*
G01*
X179900738Y-104800590D01*
X179497414Y-104800590D01*
X179094091Y-104800590D01*
X179094091Y-104472304D01*
X179094091Y-104144017D01*
X178399999Y-104144017D01*
X177705907Y-104144017D01*
X177705907Y-104472304D01*
X177705907Y-104800590D01*
X177302584Y-104800590D01*
X176899261Y-104800590D01*
X176899261Y-103735534D01*
X176899261Y-103268586D01*
X176899261Y-102943426D01*
X177705907Y-102943426D01*
X177705907Y-103268586D01*
X177706609Y-103375458D01*
X177708553Y-103469051D01*
X177711501Y-103543014D01*
X177715214Y-103590996D01*
X177718644Y-103606483D01*
X177739705Y-103609277D01*
X177793996Y-103611591D01*
X177877228Y-103613376D01*
X177985116Y-103614583D01*
X178113373Y-103615165D01*
X178257711Y-103615072D01*
X178408046Y-103614299D01*
X179084711Y-103609379D01*
X179089834Y-103276403D01*
X179094956Y-102943426D01*
X178400432Y-102943426D01*
X177705907Y-102943426D01*
X176899261Y-102943426D01*
X176899261Y-102670478D01*
X177035706Y-102534943D01*
X177172152Y-102399409D01*
X178536445Y-102399409D01*
X179900738Y-102399409D01*
X179900738Y-103599999D01*
G37*
G36*
X117405689Y-112971879D02*
G01*
X118315427Y-112974454D01*
X118683755Y-113880667D01*
X119052084Y-114786881D01*
X119058251Y-114621795D01*
X119059295Y-114584058D01*
X119060322Y-114528228D01*
X119061315Y-114456375D01*
X119062257Y-114370573D01*
X119063131Y-114272893D01*
X119063919Y-114165409D01*
X119064605Y-114050193D01*
X119065170Y-113929316D01*
X119065598Y-113804851D01*
X119065814Y-113713060D01*
X119067209Y-112969412D01*
X119611711Y-112969412D01*
X120156213Y-112969412D01*
X120156213Y-114250000D01*
X120156213Y-115530587D01*
X119245661Y-115530587D01*
X118335109Y-115530587D01*
X117968699Y-114625605D01*
X117916574Y-114497002D01*
X117866468Y-114373647D01*
X117818912Y-114256833D01*
X117774436Y-114147850D01*
X117733571Y-114047991D01*
X117696847Y-113958547D01*
X117664796Y-113880809D01*
X117637948Y-113816069D01*
X117616833Y-113765618D01*
X117601982Y-113730749D01*
X117593927Y-113712751D01*
X117592702Y-113710540D01*
X117591003Y-113718623D01*
X117589534Y-113746320D01*
X117588300Y-113793079D01*
X117587304Y-113858348D01*
X117586549Y-113941575D01*
X117586040Y-114042209D01*
X117585781Y-114159697D01*
X117585774Y-114293488D01*
X117586025Y-114443029D01*
X117586536Y-114607770D01*
X117586556Y-114613001D01*
X117589996Y-115525546D01*
X117042973Y-115528153D01*
X116495951Y-115530761D01*
X116495951Y-114250033D01*
X116495951Y-112969305D01*
X117405689Y-112971879D01*
G37*
G36*
X137537518Y-113153533D02*
G01*
X137721437Y-113337654D01*
X137721437Y-113609706D01*
X137721437Y-113881758D01*
X137537518Y-114065879D01*
X137353598Y-114250000D01*
X137537518Y-114434121D01*
X137721437Y-114618242D01*
X137721437Y-115074414D01*
X137721437Y-115530587D01*
X137176935Y-115530587D01*
X136632433Y-115530587D01*
X136632433Y-115071794D01*
X136632433Y-114613001D01*
X135896347Y-114613001D01*
X135160262Y-114613001D01*
X135160262Y-115071794D01*
X135160262Y-115530587D01*
X134615760Y-115530587D01*
X134071258Y-115530587D01*
X134071258Y-114250000D01*
X134071258Y-113887130D01*
X135160262Y-113887130D01*
X135893827Y-113884543D01*
X136627392Y-113881957D01*
X136627392Y-113791206D01*
X136627392Y-113700456D01*
X135893827Y-113697869D01*
X135160262Y-113695283D01*
X135160262Y-113791206D01*
X135160262Y-113887130D01*
X134071258Y-113887130D01*
X134071258Y-113791206D01*
X134071258Y-112969412D01*
X135712428Y-112969412D01*
X137353598Y-112969412D01*
X137537518Y-113153533D01*
G37*
G36*
X124542477Y-113332413D02*
G01*
X124542477Y-113695415D01*
X123261889Y-113695415D01*
X121981302Y-113695415D01*
X121981302Y-113791206D01*
X121981302Y-113886998D01*
X122621596Y-113886998D01*
X123261889Y-113886998D01*
X123261889Y-114250000D01*
X123261889Y-114613001D01*
X122621217Y-114613001D01*
X121980545Y-114613001D01*
X121983444Y-114706272D01*
X121986344Y-114799543D01*
X123264410Y-114802103D01*
X124542477Y-114804662D01*
X124542477Y-115167625D01*
X124542477Y-115530587D01*
X122901307Y-115530587D01*
X121260137Y-115530587D01*
X121076217Y-115346466D01*
X120892298Y-115162345D01*
X120892298Y-114249798D01*
X120892298Y-113337251D01*
X121076419Y-113153331D01*
X121260540Y-112969412D01*
X122901509Y-112969412D01*
X124542477Y-112969412D01*
X124542477Y-113332413D01*
G37*
G36*
X126377650Y-113886998D02*
G01*
X126377650Y-114804585D01*
X127108694Y-114804585D01*
X127839738Y-114804585D01*
X127839738Y-113886998D01*
X127839738Y-112969412D01*
X128389281Y-112969412D01*
X128938825Y-112969412D01*
X128938825Y-114066080D01*
X128938825Y-115162749D01*
X128754704Y-115346668D01*
X128570583Y-115530587D01*
X127108492Y-115530587D01*
X125646401Y-115530587D01*
X125462482Y-115346466D01*
X125278563Y-115162345D01*
X125278563Y-114065879D01*
X125278563Y-112969412D01*
X125828106Y-112969412D01*
X126377650Y-112969412D01*
X126377650Y-113886998D01*
G37*
G36*
X146320130Y-113153533D02*
G01*
X146504049Y-113337654D01*
X146504049Y-114434121D01*
X146504049Y-115530587D01*
X145959547Y-115530587D01*
X145415045Y-115530587D01*
X145415045Y-114613001D01*
X145415045Y-113695415D01*
X144678960Y-113695415D01*
X143942874Y-113695415D01*
X143942874Y-114613001D01*
X143942874Y-115530587D01*
X143398372Y-115530587D01*
X142853870Y-115530587D01*
X142853870Y-114250000D01*
X142853870Y-112969412D01*
X144495040Y-112969412D01*
X146136211Y-112969412D01*
X146320130Y-113153533D01*
G37*
G36*
X133325089Y-113332413D02*
G01*
X133325089Y-113695415D01*
X132684795Y-113695415D01*
X132044502Y-113695415D01*
X132044502Y-114613001D01*
X132044502Y-115530587D01*
X131500000Y-115530587D01*
X130955498Y-115530587D01*
X130955498Y-114613001D01*
X130955498Y-113695415D01*
X130315204Y-113695415D01*
X129674910Y-113695415D01*
X129674910Y-113332413D01*
X129674910Y-112969412D01*
X131500000Y-112969412D01*
X133325089Y-112969412D01*
X133325089Y-113332413D01*
G37*
%TO.C,SW4*%
D14*
X175445028Y-113000000D02*
G75*
G02*
X173645028Y-113000000I-900000J0D01*
G01*
X173645028Y-113000000D02*
G75*
G02*
X175445028Y-113000000I900000J0D01*
G01*
D15*
X177067278Y-112657053D02*
X174202081Y-115522250D01*
D16*
X176762515Y-112352290D02*
X177067278Y-112657053D01*
X174887975Y-110477750D02*
X175192738Y-110782513D01*
D15*
X174887975Y-110477750D02*
X172022778Y-113342947D01*
D16*
X174202081Y-115522250D02*
X173897318Y-115217487D01*
X172022778Y-113342947D02*
X172327541Y-113647710D01*
%TO.C,SW3*%
D14*
X181900000Y-106500000D02*
G75*
G02*
X180100000Y-106500000I-900000J0D01*
G01*
X180100000Y-106500000D02*
G75*
G02*
X181900000Y-106500000I900000J0D01*
G01*
D16*
X183522250Y-106157053D02*
X183217487Y-105852290D01*
X181342947Y-103977750D02*
X181647710Y-104282513D01*
D15*
X180657053Y-109022250D02*
X183522250Y-106157053D01*
D16*
X180657053Y-109022250D02*
X180352290Y-108717487D01*
X178782513Y-107147710D02*
X178477750Y-106842947D01*
D15*
X178477750Y-106842947D02*
X181342947Y-103977750D01*
%TO.C,USB-C*%
D17*
X168830000Y-116785000D02*
X159670000Y-116785000D01*
X168830000Y-115080000D02*
X168830000Y-116785000D01*
X168830000Y-113070000D02*
X168830000Y-111150000D01*
X159670000Y-116785000D02*
X159670000Y-115080000D01*
X159670000Y-111150000D02*
X159670000Y-113070000D01*
%TO.C,J3*%
X156300000Y-113050000D02*
X157300000Y-113050000D01*
X157300000Y-114650000D01*
X156300000Y-114650000D01*
X156300000Y-113050000D01*
X152700000Y-113050000D02*
X153700000Y-113050000D01*
X153700000Y-114650000D01*
X152700000Y-114650000D01*
X152700000Y-113050000D01*
X158060000Y-116910000D02*
X158060000Y-109090000D01*
X158060000Y-110690000D02*
X157140000Y-110690000D01*
X158060000Y-109090000D02*
X157140000Y-109090000D01*
X157140000Y-110690000D02*
X156860000Y-110690000D01*
X157140000Y-109090000D02*
X157140000Y-110690000D01*
X155500000Y-112550000D02*
X155500000Y-116910000D01*
X154500000Y-116910000D02*
X154500000Y-112550000D01*
X154500000Y-112550000D02*
X155500000Y-112550000D01*
X153700000Y-114650000D02*
X153700000Y-116910000D01*
X153200000Y-114650000D02*
X153200000Y-116910000D01*
X153140000Y-110690000D02*
X153140000Y-109475000D01*
X153140000Y-110690000D02*
X152860000Y-110690000D01*
X152860000Y-110690000D02*
X152860000Y-109090000D01*
X152860000Y-109090000D02*
X151940000Y-109090000D01*
X151940000Y-116910000D02*
X158060000Y-116910000D01*
X151940000Y-110690000D02*
X152860000Y-110690000D01*
X151940000Y-109090000D02*
X151940000Y-116910000D01*
%TO.C,C1*%
X157261253Y-107735000D02*
X156738747Y-107735000D01*
X157261253Y-106265000D02*
X156738747Y-106265000D01*
D13*
%TO.C,G\u002A\u002A\u002A*%
G36*
X173292989Y-109075626D02*
G01*
X173445766Y-109251843D01*
X173445766Y-109499539D01*
X173445766Y-109747235D01*
X173300382Y-109915453D01*
X173243609Y-109982446D01*
X173197216Y-110039674D01*
X173166061Y-110080967D01*
X173154998Y-110099999D01*
X173166607Y-110119808D01*
X173198194Y-110161567D01*
X173244901Y-110219109D01*
X173300382Y-110284546D01*
X173445766Y-110452764D01*
X173445766Y-110700460D01*
X173445766Y-110948156D01*
X173292989Y-111124373D01*
X173140212Y-111300590D01*
X171792250Y-111300590D01*
X170444289Y-111300590D01*
X170444289Y-110887887D01*
X171344732Y-110887887D01*
X171945027Y-110887887D01*
X172545322Y-110887887D01*
X172545322Y-110597119D01*
X172545322Y-110306351D01*
X171945027Y-110306351D01*
X171344732Y-110306351D01*
X171344732Y-110597119D01*
X171344732Y-110887887D01*
X170444289Y-110887887D01*
X170444289Y-110597119D01*
X170444289Y-110099999D01*
X170444289Y-109912407D01*
X171344732Y-109912407D01*
X171945027Y-109912407D01*
X172545322Y-109912407D01*
X172545322Y-109621639D01*
X172545322Y-109330871D01*
X171945027Y-109330871D01*
X171344732Y-109330871D01*
X171344732Y-109621639D01*
X171344732Y-109912407D01*
X170444289Y-109912407D01*
X170444289Y-109621639D01*
X170444289Y-108899409D01*
X171792250Y-108899409D01*
X173140212Y-108899409D01*
X173292989Y-109075626D01*
G37*
G36*
X168782295Y-101960069D02*
G01*
X168782901Y-101979102D01*
X168783480Y-102009863D01*
X168784026Y-102051549D01*
X168784534Y-102103357D01*
X168785000Y-102164485D01*
X168785419Y-102234128D01*
X168785786Y-102311485D01*
X168786095Y-102395752D01*
X168786343Y-102486127D01*
X168786524Y-102581807D01*
X168786633Y-102681990D01*
X168786666Y-102776666D01*
X168786666Y-103600000D01*
X169093888Y-103600000D01*
X169171744Y-103600138D01*
X169238889Y-103600547D01*
X169294894Y-103601218D01*
X169339327Y-103602141D01*
X169371757Y-103603308D01*
X169391756Y-103604709D01*
X169398890Y-103606335D01*
X169398888Y-103606487D01*
X169394806Y-103613121D01*
X169383718Y-103630069D01*
X169366074Y-103656668D01*
X169342324Y-103692252D01*
X169312918Y-103736158D01*
X169278304Y-103787721D01*
X169238933Y-103846276D01*
X169195255Y-103911160D01*
X169147719Y-103981707D01*
X169096774Y-104057253D01*
X169042870Y-104137134D01*
X168986458Y-104220686D01*
X168927985Y-104307243D01*
X168867903Y-104396142D01*
X168806661Y-104486718D01*
X168744709Y-104578306D01*
X168682495Y-104670243D01*
X168620470Y-104761864D01*
X168559084Y-104852503D01*
X168498785Y-104941498D01*
X168440024Y-105028183D01*
X168383251Y-105111894D01*
X168328914Y-105191967D01*
X168277464Y-105267737D01*
X168229350Y-105338539D01*
X168185022Y-105403710D01*
X168144929Y-105462585D01*
X168109522Y-105514499D01*
X168079249Y-105558788D01*
X168054560Y-105594787D01*
X168035906Y-105621833D01*
X168023735Y-105639260D01*
X168018498Y-105646404D01*
X168018333Y-105646549D01*
X168017704Y-105640031D01*
X168017097Y-105620983D01*
X168016519Y-105590207D01*
X168015973Y-105548507D01*
X168015465Y-105496686D01*
X168014999Y-105435547D01*
X168014580Y-105365892D01*
X168014213Y-105288524D01*
X168013904Y-105204248D01*
X168013656Y-105113865D01*
X168013475Y-105018178D01*
X168013366Y-104917991D01*
X168013333Y-104823333D01*
X168013333Y-104000000D01*
X167706111Y-104000000D01*
X167627296Y-103999860D01*
X167559624Y-103999446D01*
X167503458Y-103998766D01*
X167459160Y-103997827D01*
X167427093Y-103996637D01*
X167407617Y-103995204D01*
X167401097Y-103993536D01*
X167401111Y-103993465D01*
X167405185Y-103986848D01*
X167416265Y-103969915D01*
X167433903Y-103943331D01*
X167457648Y-103907760D01*
X167487051Y-103863866D01*
X167521662Y-103812314D01*
X167561031Y-103753769D01*
X167604708Y-103688894D01*
X167652244Y-103618355D01*
X167703189Y-103542816D01*
X167757093Y-103462942D01*
X167813508Y-103379396D01*
X167871982Y-103292843D01*
X167932066Y-103203949D01*
X167993311Y-103113377D01*
X168055266Y-103021791D01*
X168117483Y-102929857D01*
X168179511Y-102838239D01*
X168240901Y-102747601D01*
X168301203Y-102658608D01*
X168359967Y-102571924D01*
X168416744Y-102488214D01*
X168471084Y-102408142D01*
X168522536Y-102332372D01*
X168570653Y-102261570D01*
X168614983Y-102196400D01*
X168655077Y-102137525D01*
X168690485Y-102085612D01*
X168720758Y-102041323D01*
X168745446Y-102005324D01*
X168764099Y-101978279D01*
X168776268Y-101960853D01*
X168781502Y-101953710D01*
X168781666Y-101953565D01*
X168782295Y-101960069D01*
G37*
%TO.C,L1*%
D17*
X152390000Y-76890000D02*
X158610000Y-76890000D01*
X158610000Y-83110000D02*
X152390000Y-83110000D01*
%TO.C,C11*%
X152765000Y-85938747D02*
X152765000Y-86461253D01*
X154235000Y-85938747D02*
X154235000Y-86461253D01*
%TO.C,C12*%
X156765000Y-85938747D02*
X156765000Y-86461253D01*
X158235000Y-85938747D02*
X158235000Y-86461253D01*
%TO.C,ESP32 S3 MINI 1*%
X160775000Y-77050000D02*
X160439000Y-77290000D01*
X160439000Y-76810000D01*
X160775000Y-77050000D01*
G36*
X160775000Y-77050000D02*
G01*
X160439000Y-77290000D01*
X160439000Y-76810000D01*
X160775000Y-77050000D01*
G37*
X176550000Y-90800000D02*
X160950000Y-90800000D01*
X176550000Y-70100000D02*
X176550000Y-90800000D01*
X160950000Y-90800000D02*
X160950000Y-70100000D01*
X160950000Y-70100000D02*
X176550000Y-70100000D01*
X160675000Y-69850000D02*
X163125000Y-69850000D01*
X160675000Y-69850000D02*
X160675000Y-72300000D01*
D13*
%TO.C,G\u002A\u002A\u002A*%
G36*
X155375600Y-90460998D02*
G01*
X155375600Y-90648798D01*
X155563401Y-90648798D01*
X155751201Y-90648798D01*
X155751201Y-90836598D01*
X155751201Y-91024399D01*
X155939001Y-91024399D01*
X156126802Y-91024399D01*
X156126802Y-91399999D01*
X156126802Y-91775600D01*
X155939001Y-91775600D01*
X155751201Y-91775600D01*
X155751201Y-91963401D01*
X155751201Y-92151201D01*
X155563401Y-92151201D01*
X155375600Y-92151201D01*
X155375600Y-92339001D01*
X155375600Y-92526802D01*
X154999999Y-92526802D01*
X154624399Y-92526802D01*
X154624399Y-92339001D01*
X154624399Y-92151201D01*
X154436598Y-92151201D01*
X154248798Y-92151201D01*
X154248798Y-91963401D01*
X154248798Y-91775600D01*
X154060998Y-91775600D01*
X153873197Y-91775600D01*
X153873197Y-91399999D01*
X153873197Y-91024399D01*
X154060998Y-91024399D01*
X154248798Y-91024399D01*
X154248798Y-90836598D01*
X154248798Y-90648798D01*
X154436598Y-90648798D01*
X154624399Y-90648798D01*
X154624399Y-90460998D01*
X154624399Y-90273197D01*
X154999999Y-90273197D01*
X155375600Y-90273197D01*
X155375600Y-90460998D01*
G37*
G36*
X155375600Y-88582994D02*
G01*
X155375600Y-88770794D01*
X155563401Y-88770794D01*
X155751201Y-88770794D01*
X155751201Y-88958595D01*
X155751201Y-89146395D01*
X155939001Y-89146395D01*
X156126802Y-89146395D01*
X156126802Y-89334195D01*
X156126802Y-89521996D01*
X157065803Y-89521996D01*
X158004805Y-89521996D01*
X158004805Y-89709796D01*
X158004805Y-89897596D01*
X157817005Y-89897596D01*
X157629205Y-89897596D01*
X157629205Y-90085397D01*
X157629205Y-90273197D01*
X157441404Y-90273197D01*
X157253604Y-90273197D01*
X157253604Y-90460998D01*
X157253604Y-90648798D01*
X157441404Y-90648798D01*
X157629205Y-90648798D01*
X157629205Y-90836598D01*
X157629205Y-91024399D01*
X157817005Y-91024399D01*
X158004805Y-91024399D01*
X158004805Y-91399999D01*
X158004805Y-91775600D01*
X157817005Y-91775600D01*
X157629205Y-91775600D01*
X157629205Y-91963401D01*
X157629205Y-92151201D01*
X157441404Y-92151201D01*
X157253604Y-92151201D01*
X157253604Y-92339001D01*
X157253604Y-92526802D01*
X157441404Y-92526802D01*
X157629205Y-92526802D01*
X157629205Y-92714602D01*
X157629205Y-92902402D01*
X157817005Y-92902402D01*
X158004805Y-92902402D01*
X158004805Y-93090203D01*
X158004805Y-93278003D01*
X157065803Y-93278003D01*
X156126802Y-93278003D01*
X156126802Y-93465803D01*
X156126802Y-93653604D01*
X155939001Y-93653604D01*
X155751201Y-93653604D01*
X155751201Y-93841404D01*
X155751201Y-94029205D01*
X155563401Y-94029205D01*
X155375600Y-94029205D01*
X155375600Y-94217005D01*
X155375600Y-94404805D01*
X154999999Y-94404805D01*
X154624399Y-94404805D01*
X154624399Y-94217005D01*
X154624399Y-94029205D01*
X154436598Y-94029205D01*
X154248798Y-94029205D01*
X154248798Y-93841404D01*
X154248798Y-93653604D01*
X154060998Y-93653604D01*
X153873197Y-93653604D01*
X153873197Y-93465803D01*
X153873197Y-93278003D01*
X152934195Y-93278003D01*
X151995194Y-93278003D01*
X151995194Y-93090203D01*
X151995194Y-92902402D01*
X152182994Y-92902402D01*
X152370794Y-92902402D01*
X152370794Y-92714602D01*
X152370794Y-92526802D01*
X152558595Y-92526802D01*
X152746395Y-92526802D01*
X152746395Y-92339001D01*
X152746395Y-92151201D01*
X152558595Y-92151201D01*
X152370794Y-92151201D01*
X152370794Y-91963401D01*
X152370794Y-91775600D01*
X152182994Y-91775600D01*
X151995194Y-91775600D01*
X151995194Y-91399999D01*
X153121996Y-91399999D01*
X153121996Y-91775600D01*
X153309796Y-91775600D01*
X153497596Y-91775600D01*
X153497596Y-91963401D01*
X153497596Y-92151201D01*
X153685397Y-92151201D01*
X153873197Y-92151201D01*
X153873197Y-92339001D01*
X153873197Y-92526802D01*
X154060998Y-92526802D01*
X154248798Y-92526802D01*
X154248798Y-92714602D01*
X154248798Y-92902402D01*
X154436598Y-92902402D01*
X154624399Y-92902402D01*
X154624399Y-93090203D01*
X154624399Y-93278003D01*
X154999999Y-93278003D01*
X155375600Y-93278003D01*
X155375600Y-93090203D01*
X155375600Y-92902402D01*
X155563401Y-92902402D01*
X155751201Y-92902402D01*
X155751201Y-92714602D01*
X155751201Y-92526802D01*
X155939001Y-92526802D01*
X156126802Y-92526802D01*
X156126802Y-92339001D01*
X156126802Y-92151201D01*
X156314602Y-92151201D01*
X156502402Y-92151201D01*
X156502402Y-91963401D01*
X156502402Y-91775600D01*
X156690203Y-91775600D01*
X156878003Y-91775600D01*
X156878003Y-91399999D01*
X156878003Y-91024399D01*
X156690203Y-91024399D01*
X156502402Y-91024399D01*
X156502402Y-90836598D01*
X156502402Y-90648798D01*
X156314602Y-90648798D01*
X156126802Y-90648798D01*
X156126802Y-90460998D01*
X156126802Y-90273197D01*
X155939001Y-90273197D01*
X155751201Y-90273197D01*
X155751201Y-90085397D01*
X155751201Y-89897596D01*
X155563401Y-89897596D01*
X155375600Y-89897596D01*
X155375600Y-89709796D01*
X155375600Y-89521996D01*
X154999999Y-89521996D01*
X154624399Y-89521996D01*
X154624399Y-89709796D01*
X154624399Y-89897596D01*
X154436598Y-89897596D01*
X154248798Y-89897596D01*
X154248798Y-90085397D01*
X154248798Y-90273197D01*
X154060998Y-90273197D01*
X153873197Y-90273197D01*
X153873197Y-90460998D01*
X153873197Y-90648798D01*
X153685397Y-90648798D01*
X153497596Y-90648798D01*
X153497596Y-90836598D01*
X153497596Y-91024399D01*
X153309796Y-91024399D01*
X153121996Y-91024399D01*
X153121996Y-91399999D01*
X151995194Y-91399999D01*
X151995194Y-91024399D01*
X152182994Y-91024399D01*
X152370794Y-91024399D01*
X152370794Y-90836598D01*
X152370794Y-90648798D01*
X152558595Y-90648798D01*
X152746395Y-90648798D01*
X152746395Y-90460998D01*
X152746395Y-90273197D01*
X152558595Y-90273197D01*
X152370794Y-90273197D01*
X152370794Y-90085397D01*
X152370794Y-89897596D01*
X152182994Y-89897596D01*
X151995194Y-89897596D01*
X151995194Y-89709796D01*
X151995194Y-89521996D01*
X152934195Y-89521996D01*
X153873197Y-89521996D01*
X153873197Y-89334195D01*
X153873197Y-89146395D01*
X154060998Y-89146395D01*
X154248798Y-89146395D01*
X154248798Y-88958595D01*
X154248798Y-88770794D01*
X154436598Y-88770794D01*
X154624399Y-88770794D01*
X154624399Y-88582994D01*
X154624399Y-88395194D01*
X154999999Y-88395194D01*
X155375600Y-88395194D01*
X155375600Y-88582994D01*
G37*
%TO.C,IO pins*%
D17*
X180620000Y-76380000D02*
X182000000Y-76380000D01*
X180620000Y-77760000D02*
X180620000Y-76380000D01*
X180620000Y-79030000D02*
X180620000Y-96920000D01*
X180620000Y-79030000D02*
X183380000Y-79030000D01*
X180620000Y-96920000D02*
X183380000Y-96920000D01*
X183380000Y-79030000D02*
X183380000Y-96920000D01*
%TO.C,D1*%
X152350000Y-98490000D02*
X152350000Y-104000000D01*
X155650000Y-98490000D02*
X152350000Y-98490000D01*
X155650000Y-98490000D02*
X155650000Y-104000000D01*
%TO.C,D3*%
X160350000Y-98490000D02*
X160350000Y-104000000D01*
X163650000Y-98490000D02*
X160350000Y-98490000D01*
X163650000Y-98490000D02*
X163650000Y-104000000D01*
%TO.C,R8*%
X165620000Y-107143641D02*
X165620000Y-106836359D01*
X166380000Y-107143641D02*
X166380000Y-106836359D01*
%TO.C,R7*%
X162620000Y-107153641D02*
X162620000Y-106846359D01*
X163380000Y-107153641D02*
X163380000Y-106846359D01*
%TO.C,U2*%
X159510000Y-99550000D02*
X159840000Y-99310000D01*
X159840000Y-99790000D01*
X159510000Y-99550000D01*
G36*
X159840000Y-99790000D02*
G01*
X159510000Y-99550000D01*
X159840000Y-99310000D01*
X159840000Y-99790000D01*
G37*
X159560000Y-101910000D02*
X159510000Y-101910000D01*
X159560000Y-100090000D02*
X159560000Y-101910000D01*
X159510000Y-100090000D02*
X159560000Y-100090000D01*
X158390000Y-101910000D02*
X157610000Y-101910000D01*
X156490000Y-101910000D02*
X156440000Y-101910000D01*
X156440000Y-101910000D02*
X156440000Y-100090000D01*
X156440000Y-100090000D02*
X156490000Y-100090000D01*
%TO.C,R4*%
X164620000Y-103846359D02*
X164620000Y-104153641D01*
X165380000Y-103846359D02*
X165380000Y-104153641D01*
%TO.C,D2*%
X165765000Y-102515000D02*
X165765000Y-104800000D01*
X167235000Y-102515000D02*
X165765000Y-102515000D01*
X167235000Y-104800000D02*
X167235000Y-102515000D01*
%TO.C,R3*%
X158643642Y-103980000D02*
X158336360Y-103980000D01*
X158643642Y-103220000D02*
X158336360Y-103220000D01*
%TO.C,C2*%
X157738748Y-96735000D02*
X158261252Y-96735000D01*
X157738748Y-95265000D02*
X158261252Y-95265000D01*
%TO.C,C15*%
X166735000Y-99261253D02*
X166735000Y-98738747D01*
X165265000Y-99261253D02*
X165265000Y-98738747D01*
%TO.C,U3*%
X168550000Y-98477499D02*
X168310000Y-98147499D01*
X168790000Y-98147499D01*
X168550000Y-98477499D01*
G36*
X168550000Y-98477499D02*
G01*
X168310000Y-98147499D01*
X168790000Y-98147499D01*
X168550000Y-98477499D01*
G37*
X170910000Y-101547499D02*
X169090000Y-101547499D01*
X170910000Y-101497499D02*
X170910000Y-101547499D01*
X170910000Y-99597499D02*
X170910000Y-100377499D01*
X170910000Y-98427499D02*
X170910000Y-98477499D01*
X169090000Y-101547499D02*
X169090000Y-101497499D01*
X169090000Y-98477499D02*
X169090000Y-98427499D01*
X169090000Y-98427499D02*
X170910000Y-98427499D01*
%TO.C,C16*%
X171935000Y-95938747D02*
X171935000Y-96461253D01*
X170465000Y-95938747D02*
X170465000Y-96461253D01*
%TO.C,D5*%
X149759999Y-87900000D02*
X149759999Y-84600000D01*
X149759999Y-87900000D02*
X144249999Y-87900000D01*
X149759999Y-84600000D02*
X144249999Y-84600000D01*
%TO.C,C7*%
X134838748Y-98985000D02*
X135361252Y-98985000D01*
X134838748Y-97515000D02*
X135361252Y-97515000D01*
%TO.C,C9*%
X128288748Y-98985000D02*
X128811252Y-98985000D01*
X128288748Y-97515000D02*
X128811252Y-97515000D01*
%TO.C,C8*%
X134838748Y-96485000D02*
X135361252Y-96485000D01*
X134838748Y-95015000D02*
X135361252Y-95015000D01*
%TO.C,C10*%
X128288747Y-96485000D02*
X128811253Y-96485000D01*
X128288747Y-95015000D02*
X128811253Y-95015000D01*
%TO.C,D6*%
X136150000Y-99990000D02*
X136150000Y-105500000D01*
X136150000Y-99990000D02*
X132850000Y-99990000D01*
X132850000Y-99990000D02*
X132850000Y-105500000D01*
%TO.C,R5*%
X120965786Y-87346359D02*
X120965786Y-87653641D01*
X120205786Y-87346359D02*
X120205786Y-87653641D01*
%TO.C,Q1*%
X120865000Y-85235000D02*
X120865000Y-83765000D01*
X122165000Y-85235000D02*
X121835000Y-85235000D01*
X120865000Y-83765000D02*
X121515000Y-83765000D01*
X122485000Y-83765000D02*
X123135000Y-83765000D01*
X123135000Y-83765000D02*
X123135000Y-85235000D01*
X121840000Y-85680000D02*
X122030000Y-85540000D01*
X122030000Y-85820000D01*
X121840000Y-85680000D01*
G36*
X122030000Y-85820000D02*
G01*
X121840000Y-85680000D01*
X122030000Y-85540000D01*
X122030000Y-85820000D01*
G37*
%TO.C,C13*%
X131238748Y-84265000D02*
X131761254Y-84265000D01*
X131238748Y-85735000D02*
X131761254Y-85735000D01*
%TO.C,R6*%
X122620000Y-87653641D02*
X122620000Y-87346359D01*
X123380000Y-87653641D02*
X123380000Y-87346359D01*
%TO.C,C14*%
X131238748Y-87515000D02*
X131761252Y-87515000D01*
X131238748Y-88985000D02*
X131761252Y-88985000D01*
%TO.C,D4*%
X140760000Y-84600000D02*
X135250000Y-84600000D01*
X140760000Y-87900000D02*
X135250000Y-87900000D01*
X140760000Y-87900000D02*
X140760000Y-84600000D01*
%TO.C,J5*%
X114835787Y-88180000D02*
X114155787Y-88180000D01*
X114835787Y-104920000D02*
X114155787Y-104920000D01*
X118235787Y-90450000D02*
X118235786Y-88150000D01*
X118235787Y-90450000D02*
X119535787Y-90450000D01*
X118235787Y-102650000D02*
X118235786Y-104950000D01*
%TO.C,C4*%
X125235000Y-104238747D02*
X125235000Y-104761253D01*
X123765000Y-104238747D02*
X123765000Y-104761253D01*
%TO.C,C5*%
X127985000Y-104238747D02*
X127985000Y-104761253D01*
X126515000Y-104238747D02*
X126515000Y-104761253D01*
%TO.C,C6*%
X130735000Y-104238747D02*
X130735000Y-104761253D01*
X129265000Y-104238747D02*
X129265000Y-104761253D01*
%TO.C,C3*%
X121015000Y-104238747D02*
X121015000Y-104761253D01*
X122485000Y-104238747D02*
X122485000Y-104761253D01*
%TD*%
M02*
