%TF.GenerationSoftware,KiCad,Pcbnew,10.0.3*%
%TF.CreationDate,2026-06-14T00:05:02-04:00*%
%TF.ProjectId,watch,77617463-682e-46b6-9963-61645f706362,rev?*%
%TF.SameCoordinates,Original*%
%TF.FileFunction,Copper,L2,Bot*%
%TF.FilePolarity,Positive*%
%FSLAX46Y46*%
G04 Gerber Fmt 4.6, Leading zero omitted, Abs format (unit mm)*
G04 Created by KiCad (PCBNEW 10.0.3) date 2026-06-14 00:05:02*
%MOMM*%
%LPD*%
G01*
G04 APERTURE LIST*
G04 Aperture macros list*
%AMRoundRect*
0 Rectangle with rounded corners*
0 $1 Rounding radius*
0 $2 $3 $4 $5 $6 $7 $8 $9 X,Y pos of 4 corners*
0 Add a 4 corners polygon primitive as box body*
4,1,4,$2,$3,$4,$5,$6,$7,$8,$9,$2,$3,0*
0 Add four circle primitives for the rounded corners*
1,1,$1+$1,$2,$3*
1,1,$1+$1,$4,$5*
1,1,$1+$1,$6,$7*
1,1,$1+$1,$8,$9*
0 Add four rect primitives between the rounded corners*
20,1,$1+$1,$2,$3,$4,$5,0*
20,1,$1+$1,$4,$5,$6,$7,0*
20,1,$1+$1,$6,$7,$8,$9,0*
20,1,$1+$1,$8,$9,$2,$3,0*%
G04 Aperture macros list end*
%TA.AperFunction,ComponentPad*%
%ADD10O,1.000000X1.800000*%
%TD*%
%TA.AperFunction,ComponentPad*%
%ADD11O,1.000000X2.100000*%
%TD*%
%TA.AperFunction,ComponentPad*%
%ADD12O,1.200000X1.750000*%
%TD*%
%TA.AperFunction,ComponentPad*%
%ADD13RoundRect,0.250000X-0.350000X-0.625000X0.350000X-0.625000X0.350000X0.625000X-0.350000X0.625000X0*%
%TD*%
%TA.AperFunction,SMDPad,CuDef*%
%ADD14R,1.230000X1.860000*%
%TD*%
%TA.AperFunction,ComponentPad*%
%ADD15C,1.700000*%
%TD*%
%TA.AperFunction,ComponentPad*%
%ADD16R,1.700000X1.700000*%
%TD*%
%TA.AperFunction,SMDPad,CuDef*%
%ADD17RoundRect,0.135000X-0.135000X-0.185000X0.135000X-0.185000X0.135000X0.185000X-0.135000X0.185000X0*%
%TD*%
%TA.AperFunction,ViaPad*%
%ADD18C,0.600000*%
%TD*%
%TA.AperFunction,Conductor*%
%ADD19C,0.200000*%
%TD*%
G04 APERTURE END LIST*
D10*
%TO.P,USB-C,SH,SHIELD_SH*%
%TO.N,GND*%
X168570000Y-114075000D03*
D11*
X168570000Y-109875000D03*
D10*
X159930000Y-114075000D03*
D11*
X159930000Y-109875000D03*
%TD*%
D12*
%TO.P,J3,2,Pin_2_2*%
%TO.N,GND*%
X156000000Y-110550000D03*
D13*
%TO.P,J3,1,Pin_1_1*%
%TO.N,Net-(D1-A)*%
X154000000Y-110550000D03*
%TD*%
D14*
%TO.P,RESET,2,2_2*%
%TO.N,/RESET*%
X175230000Y-77200000D03*
%TO.P,RESET,1,1_1*%
%TO.N,GND*%
X179600000Y-77200000D03*
%TD*%
%TO.P,BOOT,2,2_2*%
%TO.N,/BOOT*%
X175230000Y-82200000D03*
%TO.P,BOOT,1,1_1*%
%TO.N,GND*%
X179600000Y-82200000D03*
%TD*%
D15*
%TO.P,IO pins,1,Pin_3_1*%
%TO.N,/IO1*%
X182000000Y-82840000D03*
%TO.P,IO pins,2,Pin_4_2*%
%TO.N,/IO2*%
X182000000Y-85380000D03*
%TO.P,IO pins,3,Pin_5_3*%
%TO.N,/IO3*%
X182000000Y-87920000D03*
%TO.P,IO pins,3V3,Pin_1_3V3*%
%TO.N,+3V3*%
X182000000Y-80300000D03*
%TO.P,IO pins,4,Pin_6_4*%
%TO.N,/IO4*%
X182000000Y-90460000D03*
%TO.P,IO pins,5,Pin_7_5*%
%TO.N,/IO5*%
X182000000Y-93000000D03*
%TO.P,IO pins,6,Pin_8_6*%
%TO.N,/IO6*%
X182000000Y-95540000D03*
D16*
%TO.P,IO pins,GND,Pin_2_GND*%
%TO.N,GND*%
X182000000Y-77760000D03*
%TD*%
D17*
%TO.P,R2,1*%
%TO.N,+3V3*%
X167890000Y-77000000D03*
%TO.P,R2,2*%
%TO.N,/BOOT*%
X168910000Y-77000000D03*
%TD*%
%TO.P,R1,1*%
%TO.N,+3V3*%
X171690000Y-77000000D03*
%TO.P,R1,2*%
%TO.N,/RESET*%
X172710000Y-77000000D03*
%TD*%
D18*
%TO.N,/BUTTONB*%
X177500000Y-110000000D03*
%TO.N,/BUTTONA*%
X178065687Y-109434313D03*
%TO.N,/IO2*%
X160000000Y-81250000D03*
%TO.N,/IO3*%
X160000000Y-82250000D03*
%TO.N,/IO1*%
X160000000Y-80250000D03*
%TO.N,/IO4*%
X160000000Y-83250000D03*
%TO.N,/IO6*%
X160000000Y-85250000D03*
%TO.N,/RESET*%
X173400000Y-77200000D03*
%TO.N,/BOOT*%
X172600000Y-82200000D03*
%TO.N,/IO5*%
X160000000Y-84250000D03*
%TO.N,/BOOT*%
X170400000Y-77000000D03*
%TO.N,GND*%
X173600000Y-80900000D03*
%TO.N,/PREVGL*%
X141875000Y-86950000D03*
%TO.N,/PREVGH*%
X141925000Y-85250000D03*
%TO.N,Net-(D5-K)*%
X131750000Y-105500000D03*
X148250000Y-84000000D03*
%TO.N,GND*%
X125750000Y-86250000D03*
X119750000Y-86250000D03*
%TO.N,/PREVGH*%
X129750000Y-102250000D03*
%TO.N,/PREVGL*%
X124250000Y-102250000D03*
%TO.N,/MOSI*%
X130750000Y-92500000D03*
X128250000Y-93200000D03*
%TO.N,+3V3*%
X163250000Y-96500000D03*
%TO.N,GND*%
X172800000Y-94600000D03*
X174200000Y-91800000D03*
%TO.N,/BUTTONA*%
X171500000Y-88500000D03*
%TO.N,/BUTTONB*%
X170500000Y-88500000D03*
%TO.N,/D+*%
X169500000Y-88500000D03*
%TO.N,/D-*%
X168699997Y-88500000D03*
%TO.N,GND*%
X160400000Y-86800000D03*
X160400000Y-90000000D03*
%TO.N,+3V3*%
X160000000Y-78000000D03*
%TO.N,Net-(U2-STAT)*%
X159000000Y-98500000D03*
%TO.N,/D-*%
X164000000Y-107000000D03*
%TO.N,/D+*%
X165000000Y-107000000D03*
%TO.N,Net-(U2-STAT)*%
X165000000Y-102500000D03*
%TD*%
%TO.N,/IO2*%
D19*
X181420000Y-84800000D02*
X163550000Y-84800000D01*
%TO.N,/IO3*%
X163150000Y-85400000D02*
X160000000Y-82250000D01*
%TO.N,/IO1*%
X182000000Y-82840000D02*
X180840000Y-84000000D01*
%TO.N,/IO6*%
X173660000Y-87200000D02*
X162000000Y-87200000D01*
%TO.N,/BOOT*%
X168910000Y-77000000D02*
X170400000Y-77000000D01*
%TO.N,/IO3*%
X182000000Y-87920000D02*
X179480000Y-85400000D01*
%TO.N,/IO4*%
X177540000Y-86000000D02*
X162750000Y-86000000D01*
X162750000Y-86000000D02*
X160000000Y-83250000D01*
X182000000Y-90460000D02*
X177540000Y-86000000D01*
%TO.N,/IO5*%
X182000000Y-93000000D02*
X175600000Y-86600000D01*
%TO.N,/IO6*%
X162000000Y-87200000D02*
X160050000Y-85250000D01*
%TO.N,/IO2*%
X163550000Y-84800000D02*
X160000000Y-81250000D01*
%TO.N,/IO1*%
X180840000Y-84000000D02*
X163800000Y-84000000D01*
%TO.N,/IO5*%
X160050000Y-84250000D02*
X160000000Y-84250000D01*
%TO.N,/IO2*%
X182000000Y-85380000D02*
X181420000Y-84800000D01*
%TO.N,/IO3*%
X179480000Y-85400000D02*
X163150000Y-85400000D01*
%TO.N,/IO5*%
X175600000Y-86600000D02*
X162400000Y-86600000D01*
%TO.N,/IO6*%
X182000000Y-95540000D02*
X173660000Y-87200000D01*
X160050000Y-85250000D02*
X160000000Y-85250000D01*
%TO.N,/IO5*%
X162400000Y-86600000D02*
X160050000Y-84250000D01*
%TO.N,/IO1*%
X163800000Y-84000000D02*
X160050000Y-80250000D01*
X160050000Y-80250000D02*
X160000000Y-80250000D01*
%TO.N,/BOOT*%
X175230000Y-82200000D02*
X172600000Y-82200000D01*
%TO.N,/RESET*%
X173400000Y-77200000D02*
X175630000Y-77200000D01*
X172710000Y-77000000D02*
X173200000Y-77000000D01*
X173200000Y-77000000D02*
X173400000Y-77200000D01*
X173280000Y-77320000D02*
X173400000Y-77200000D01*
X173400000Y-77200000D02*
X173400000Y-77081544D01*
%TO.N,GND*%
X179600000Y-82200000D02*
X178300000Y-80900000D01*
X179785000Y-77215000D02*
X179800000Y-77200000D01*
%TO.N,+3V3*%
X171690000Y-77000000D02*
X171690000Y-79490000D01*
%TO.N,GND*%
X181440000Y-77200000D02*
X182000000Y-77760000D01*
%TO.N,+3V3*%
X172500000Y-80300000D02*
X168600000Y-80300000D01*
%TO.N,GND*%
X180000000Y-77200000D02*
X181440000Y-77200000D01*
%TO.N,+3V3*%
X168600000Y-80300000D02*
X162300000Y-80300000D01*
%TO.N,GND*%
X178300000Y-80900000D02*
X173600000Y-80900000D01*
%TO.N,+3V3*%
X167890000Y-79590000D02*
X168600000Y-80300000D01*
X171690000Y-79490000D02*
X172500000Y-80300000D01*
X167890000Y-77000000D02*
X167890000Y-79590000D01*
X182000000Y-80300000D02*
X172500000Y-80300000D01*
%TO.N,GND*%
X174200000Y-91800000D02*
X174200000Y-91700000D01*
%TO.N,Net-(D5-K)*%
X148250000Y-89000000D02*
X131750000Y-105500000D01*
X148250000Y-84000000D02*
X148250000Y-89000000D01*
%TO.N,/PREVGH*%
X142475000Y-89525000D02*
X129750000Y-102250000D01*
X142475000Y-85800000D02*
X142475000Y-89525000D01*
X141925000Y-85250000D02*
X142475000Y-85800000D01*
%TO.N,/PREVGL*%
X139550000Y-86950000D02*
X124250000Y-102250000D01*
X141875000Y-86950000D02*
X139550000Y-86950000D01*
%TO.N,GND*%
X119750000Y-86250000D02*
X125750000Y-86250000D01*
%TO.N,/MOSI*%
X128300000Y-93250000D02*
X130000000Y-93250000D01*
X130000000Y-93250000D02*
X130750000Y-92500000D01*
%TO.N,+3V3*%
X163250000Y-96500000D02*
X159400000Y-92650000D01*
%TO.N,/MOSI*%
X128250000Y-93200000D02*
X128300000Y-93250000D01*
%TO.N,/BUTTONA*%
X171500000Y-103000000D02*
X178000000Y-109500000D01*
%TO.N,/BUTTONB*%
X170500000Y-103000000D02*
X177500000Y-110000000D01*
%TO.N,GND*%
X174200000Y-93200000D02*
X172800000Y-94600000D01*
X174200000Y-91800000D02*
X174200000Y-93200000D01*
%TO.N,/D-*%
X168699997Y-88500000D02*
X168500000Y-88699997D01*
X168500000Y-88699997D02*
X168500000Y-102500000D01*
%TO.N,/D+*%
X169500000Y-88500000D02*
X169500000Y-102500000D01*
%TO.N,/BUTTONB*%
X170500000Y-88500000D02*
X170500000Y-103000000D01*
%TO.N,/BUTTONA*%
X171500000Y-88500000D02*
X171500000Y-103000000D01*
%TO.N,+3V3*%
X159400000Y-92650000D02*
X159400000Y-78600000D01*
X159400000Y-78600000D02*
X160000000Y-78000000D01*
X162300000Y-80300000D02*
X160000000Y-78000000D01*
%TO.N,GND*%
X160400000Y-90000000D02*
X160400000Y-86800000D01*
%TO.N,/BUTTONA*%
X178000000Y-109500000D02*
X178065687Y-109434313D01*
%TO.N,/D-*%
X168500000Y-102500000D02*
X164000000Y-107000000D01*
%TO.N,/D+*%
X169500000Y-102500000D02*
X165000000Y-107000000D01*
%TO.N,Net-(U2-STAT)*%
X163000000Y-102500000D02*
X165000000Y-102500000D01*
X159000000Y-98500000D02*
X163000000Y-102500000D01*
%TD*%
M02*
