M48
; DRILL file KiCad 10.0.3 date 2026-06-29T00:25:15
; FORMAT={-:-/ absolute / metric / decimal}
; #@! TF.CreationDate,2026-06-29T00:25:15-04:00
; #@! TF.GenerationSoftware,Kicad,Pcbnew,10.0.3
; #@! TF.FileFunction,Plated,1,2,PTH
FMAT,2
METRIC
; #@! TA.AperFunction,Plated,PTH,ViaDrill
T1C0.300
; #@! TA.AperFunction,Plated,PTH,ComponentDrill
T2C0.600
; #@! TA.AperFunction,Plated,PTH,ComponentDrill
T3C0.750
; #@! TA.AperFunction,Plated,PTH,ComponentDrill
T4C1.000
%
G90
G05
T1
X128.6Y-100.85
X130.05Y-92.8
X130.8Y-92.05
X131.55Y-91.3
X132.3Y-90.55
X132.3Y-99.85
X133.0Y-89.85
X133.8Y-89.05
X136.0Y-83.25
X138.8Y-105.55
X140.8Y-105.55
X144.4Y-95.45
X144.4Y-96.85
X148.0Y-77.45
X148.0Y-83.05
X152.2Y-89.85
X154.4Y-97.05
X158.05Y-91.55
X159.4Y-77.85
X160.176Y-81.626
X160.2Y-79.781
X160.2Y-80.65
X160.2Y-82.45
X160.2Y-83.45
X160.2Y-84.45
X160.3Y-87.05
X160.3Y-88.05
X160.376Y-92.05
X160.4Y-93.05
X160.425Y-90.425
X162.8Y-97.05
X163.2Y-86.05
X164.0Y-85.25
X167.2Y-85.65
X168.05Y-86.55
X168.8Y-87.55
X169.8Y-87.55
X170.0Y-77.25
X170.6Y-90.45
X171.55Y-90.45
X173.8Y-80.05
X176.55Y-103.8
X177.2Y-81.25
X177.55Y-102.8
T3
X162.8Y-105.05
X164.8Y-105.05
T4
X181.8Y-76.16
X181.8Y-78.7
X181.8Y-81.24
X181.8Y-83.78
X181.8Y-86.32
X181.8Y-88.86
X181.8Y-91.4
X181.8Y-93.94
T2
X135.48Y-104.1G85X135.48Y-105.2
G05
X135.48Y-108.45G85X135.48Y-109.25
G05
X144.12Y-104.1G85X144.12Y-105.2
G05
X144.12Y-108.45G85X144.12Y-109.25
G05
M30
