ISO-10303-21;
HEADER;
FILE_DESCRIPTION(('FreeCAD Model'),'2;1');
FILE_NAME('Open CASCADE Shape Model','2026-06-11T23:22:36',(''),(''),
  'Open CASCADE STEP processor 7.8','FreeCAD','Unknown');
FILE_SCHEMA(('AUTOMOTIVE_DESIGN { 1 0 10303 214 1 1 1 1 }'));
ENDSEC;
DATA;
#1 = APPLICATION_PROTOCOL_DEFINITION('international standard',
  'automotive_design',2000,#2);
#2 = APPLICATION_CONTEXT(
  'core data for automotive mechanical design processes');
#3 = SHAPE_DEFINITION_REPRESENTATION(#4,#10);
#4 = PRODUCT_DEFINITION_SHAPE('','',#5);
#5 = PRODUCT_DEFINITION('design','',#6,#9);
#6 = PRODUCT_DEFINITION_FORMATION('','',#7);
#7 = PRODUCT('Case','Case','',(#8));
#8 = PRODUCT_CONTEXT('',#2,'mechanical');
#9 = PRODUCT_DEFINITION_CONTEXT('part definition',#2,'design');
#10 = ADVANCED_BREP_SHAPE_REPRESENTATION('',(#11,#15),#1327);
#11 = AXIS2_PLACEMENT_3D('',#12,#13,#14);
#12 = CARTESIAN_POINT('',(0.,0.,0.));
#13 = DIRECTION('',(0.,0.,1.));
#14 = DIRECTION('',(1.,0.,-0.));
#15 = MANIFOLD_SOLID_BREP('',#16);
#16 = CLOSED_SHELL('',(#17,#57,#96,#156,#204,#221,#374,#396,#413,#430,
    #442,#555,#594,#611,#633,#664,#712,#759,#791,#815,#842,#874,#898,
    #923,#940,#957,#999,#1029,#1053,#1077,#1101,#1125,#1148,#1160,#1192,
    #1216,#1233,#1251,#1275,#1290,#1313));
#17 = ADVANCED_FACE('',(#18),#52,.T.);
#18 = FACE_BOUND('',#19,.T.);
#19 = EDGE_LOOP('',(#20,#30,#38,#46));
#20 = ORIENTED_EDGE('',*,*,#21,.F.);
#21 = EDGE_CURVE('',#22,#24,#26,.T.);
#22 = VERTEX_POINT('',#23);
#23 = CARTESIAN_POINT('',(3.71881906755,23.01,-1.2));
#24 = VERTEX_POINT('',#25);
#25 = CARTESIAN_POINT('',(3.72881906755,23.,-1.2));
#26 = LINE('',#27,#28);
#27 = CARTESIAN_POINT('',(-1.271180932449,28.,-1.2));
#28 = VECTOR('',#29,1.);
#29 = DIRECTION('',(0.707106781186,-0.707106781187,0.));
#30 = ORIENTED_EDGE('',*,*,#31,.F.);
#31 = EDGE_CURVE('',#32,#22,#34,.T.);
#32 = VERTEX_POINT('',#33);
#33 = CARTESIAN_POINT('',(-35.31842712474,23.01,-1.2));
#34 = LINE('',#35,#36);
#35 = CARTESIAN_POINT('',(-30.32842712474,23.01,-1.2));
#36 = VECTOR('',#37,1.);
#37 = DIRECTION('',(1.,0.,0.));
#38 = ORIENTED_EDGE('',*,*,#39,.F.);
#39 = EDGE_CURVE('',#40,#32,#42,.T.);
#40 = VERTEX_POINT('',#41);
#41 = CARTESIAN_POINT('',(-35.32842712474,23.,-1.2));
#42 = LINE('',#43,#44);
#43 = CARTESIAN_POINT('',(-35.32842712474,23.,-1.2));
#44 = VECTOR('',#45,1.);
#45 = DIRECTION('',(0.707106781187,0.707106781187,0.));
#46 = ORIENTED_EDGE('',*,*,#47,.T.);
#47 = EDGE_CURVE('',#40,#24,#48,.T.);
#48 = LINE('',#49,#50);
#49 = CARTESIAN_POINT('',(-35.32842712474,23.,-1.2));
#50 = VECTOR('',#51,1.);
#51 = DIRECTION('',(1.,0.,0.));
#52 = PLANE('',#53);
#53 = AXIS2_PLACEMENT_3D('',#54,#55,#56);
#54 = CARTESIAN_POINT('',(-15.79980402859,-1.3820994183E-15,-1.2));
#55 = DIRECTION('',(0.,0.,1.));
#56 = DIRECTION('',(1.,0.,0.));
#57 = ADVANCED_FACE('',(#58),#91,.T.);
#58 = FACE_BOUND('',#59,.T.);
#59 = EDGE_LOOP('',(#60,#70,#76,#77,#85));
#60 = ORIENTED_EDGE('',*,*,#61,.T.);
#61 = EDGE_CURVE('',#62,#64,#66,.T.);
#62 = VERTEX_POINT('',#63);
#63 = CARTESIAN_POINT('',(-1.271180932449,28.,-8.2));
#64 = VERTEX_POINT('',#65);
#65 = CARTESIAN_POINT('',(-1.271180932449,28.,-6.19));
#66 = LINE('',#67,#68);
#67 = CARTESIAN_POINT('',(-1.271180932449,28.,-8.2));
#68 = VECTOR('',#69,1.);
#69 = DIRECTION('',(0.,0.,1.));
#70 = ORIENTED_EDGE('',*,*,#71,.F.);
#71 = EDGE_CURVE('',#22,#64,#72,.T.);
#72 = LINE('',#73,#74);
#73 = CARTESIAN_POINT('',(-5.617388631164,32.346207698716,
    -10.53620769871));
#74 = VECTOR('',#75,1.);
#75 = DIRECTION('',(-0.57735026919,0.57735026919,-0.57735026919));
#76 = ORIENTED_EDGE('',*,*,#21,.T.);
#77 = ORIENTED_EDGE('',*,*,#78,.F.);
#78 = EDGE_CURVE('',#79,#24,#81,.T.);
#79 = VERTEX_POINT('',#80);
#80 = CARTESIAN_POINT('',(3.72881906755,23.,-8.2));
#81 = LINE('',#82,#83);
#82 = CARTESIAN_POINT('',(3.72881906755,23.,-8.2));
#83 = VECTOR('',#84,1.);
#84 = DIRECTION('',(0.,0.,1.));
#85 = ORIENTED_EDGE('',*,*,#86,.F.);
#86 = EDGE_CURVE('',#62,#79,#87,.T.);
#87 = LINE('',#88,#89);
#88 = CARTESIAN_POINT('',(-1.271180932449,28.,-8.2));
#89 = VECTOR('',#90,1.);
#90 = DIRECTION('',(0.707106781186,-0.707106781187,0.));
#91 = PLANE('',#92);
#92 = AXIS2_PLACEMENT_3D('',#93,#94,#95);
#93 = CARTESIAN_POINT('',(-1.271180932449,28.,-8.2));
#94 = DIRECTION('',(0.707106781187,0.707106781186,0.));
#95 = DIRECTION('',(0.707106781186,-0.707106781187,0.));
#96 = ADVANCED_FACE('',(#97,#115),#151,.T.);
#97 = FACE_BOUND('',#98,.T.);
#98 = EDGE_LOOP('',(#99,#107,#108,#109));
#99 = ORIENTED_EDGE('',*,*,#100,.F.);
#100 = EDGE_CURVE('',#32,#101,#103,.T.);
#101 = VERTEX_POINT('',#102);
#102 = CARTESIAN_POINT('',(-30.32842712474,28.,-6.19));
#103 = LINE('',#104,#105);
#104 = CARTESIAN_POINT('',(-33.23739792897,25.091029195773,
    -3.281029195773));
#105 = VECTOR('',#106,1.);
#106 = DIRECTION('',(0.57735026919,0.57735026919,-0.57735026919));
#107 = ORIENTED_EDGE('',*,*,#31,.T.);
#108 = ORIENTED_EDGE('',*,*,#71,.T.);
#109 = ORIENTED_EDGE('',*,*,#110,.F.);
#110 = EDGE_CURVE('',#101,#64,#111,.T.);
#111 = LINE('',#112,#113);
#112 = CARTESIAN_POINT('',(-30.32842712474,28.,-6.19));
#113 = VECTOR('',#114,1.);
#114 = DIRECTION('',(1.,0.,0.));
#115 = FACE_BOUND('',#116,.T.);
#116 = EDGE_LOOP('',(#117,#128,#136,#145));
#117 = ORIENTED_EDGE('',*,*,#118,.F.);
#118 = EDGE_CURVE('',#119,#121,#123,.T.);
#119 = VERTEX_POINT('',#120);
#120 = CARTESIAN_POINT('',(-23.79980402859,26.5,-4.69));
#121 = VERTEX_POINT('',#122);
#122 = CARTESIAN_POINT('',(-23.79980402859,24.5,-2.69));
#123 = ELLIPSE('',#124,1.414213562373,1.);
#124 = AXIS2_PLACEMENT_3D('',#125,#126,#127);
#125 = CARTESIAN_POINT('',(-23.79980402859,25.5,-3.69));
#126 = DIRECTION('',(0.,0.707106781187,0.707106781187));
#127 = DIRECTION('',(0.,0.707106781187,-0.707106781187));
#128 = ORIENTED_EDGE('',*,*,#129,.F.);
#129 = EDGE_CURVE('',#130,#119,#132,.T.);
#130 = VERTEX_POINT('',#131);
#131 = CARTESIAN_POINT('',(-7.799804028597,26.5,-4.69));
#132 = LINE('',#133,#134);
#133 = CARTESIAN_POINT('',(-27.06411557667,26.5,-4.69));
#134 = VECTOR('',#135,1.);
#135 = DIRECTION('',(-1.,0.,0.));
#136 = ORIENTED_EDGE('',*,*,#137,.F.);
#137 = EDGE_CURVE('',#138,#130,#140,.T.);
#138 = VERTEX_POINT('',#139);
#139 = CARTESIAN_POINT('',(-7.799804028597,24.5,-2.69));
#140 = ELLIPSE('',#141,1.414213562373,1.);
#141 = AXIS2_PLACEMENT_3D('',#142,#143,#144);
#142 = CARTESIAN_POINT('',(-7.799804028597,25.5,-3.69));
#143 = DIRECTION('',(0.,0.707106781187,0.707106781187));
#144 = DIRECTION('',(0.,0.707106781187,-0.707106781187));
#145 = ORIENTED_EDGE('',*,*,#146,.T.);
#146 = EDGE_CURVE('',#138,#121,#147,.T.);
#147 = LINE('',#148,#149);
#148 = CARTESIAN_POINT('',(-27.06411557667,24.5,-2.69));
#149 = VECTOR('',#150,1.);
#150 = DIRECTION('',(-1.,0.,0.));
#151 = PLANE('',#152);
#152 = AXIS2_PLACEMENT_3D('',#153,#154,#155);
#153 = CARTESIAN_POINT('',(-30.32842712474,25.505,-3.695));
#154 = DIRECTION('',(0.,0.707106781187,0.707106781187));
#155 = DIRECTION('',(1.,0.,0.));
#156 = ADVANCED_FACE('',(#157),#199,.T.);
#157 = FACE_BOUND('',#158,.T.);
#158 = EDGE_LOOP('',(#159,#160,#161,#169,#177,#185,#193));
#159 = ORIENTED_EDGE('',*,*,#39,.T.);
#160 = ORIENTED_EDGE('',*,*,#100,.T.);
#161 = ORIENTED_EDGE('',*,*,#162,.F.);
#162 = EDGE_CURVE('',#163,#101,#165,.T.);
#163 = VERTEX_POINT('',#164);
#164 = CARTESIAN_POINT('',(-30.32842712474,28.,-8.2));
#165 = LINE('',#166,#167);
#166 = CARTESIAN_POINT('',(-30.32842712474,28.,-8.2));
#167 = VECTOR('',#168,1.);
#168 = DIRECTION('',(0.,0.,1.));
#169 = ORIENTED_EDGE('',*,*,#170,.F.);
#170 = EDGE_CURVE('',#171,#163,#173,.T.);
#171 = VERTEX_POINT('',#172);
#172 = CARTESIAN_POINT('',(-39.5,18.828427124749,-8.2));
#173 = LINE('',#174,#175);
#174 = CARTESIAN_POINT('',(-35.32842712474,23.,-8.2));
#175 = VECTOR('',#176,1.);
#176 = DIRECTION('',(0.707106781187,0.707106781187,0.));
#177 = ORIENTED_EDGE('',*,*,#178,.F.);
#178 = EDGE_CURVE('',#179,#171,#181,.T.);
#179 = VERTEX_POINT('',#180);
#180 = CARTESIAN_POINT('',(-39.5,18.828427124749,2.));
#181 = LINE('',#182,#183);
#182 = CARTESIAN_POINT('',(-39.5,18.828427124749,0.));
#183 = VECTOR('',#184,1.);
#184 = DIRECTION('',(-0.,-0.,-1.));
#185 = ORIENTED_EDGE('',*,*,#186,.F.);
#186 = EDGE_CURVE('',#187,#179,#189,.T.);
#187 = VERTEX_POINT('',#188);
#188 = CARTESIAN_POINT('',(-35.32842712474,23.,2.));
#189 = LINE('',#190,#191);
#190 = CARTESIAN_POINT('',(-35.32842712474,23.,2.));
#191 = VECTOR('',#192,1.);
#192 = DIRECTION('',(-0.707106781187,-0.707106781186,0.));
#193 = ORIENTED_EDGE('',*,*,#194,.T.);
#194 = EDGE_CURVE('',#187,#40,#195,.T.);
#195 = LINE('',#196,#197);
#196 = CARTESIAN_POINT('',(-35.32842712474,23.,0.));
#197 = VECTOR('',#198,1.);
#198 = DIRECTION('',(-0.,-0.,-1.));
#199 = PLANE('',#200);
#200 = AXIS2_PLACEMENT_3D('',#201,#202,#203);
#201 = CARTESIAN_POINT('',(-35.25947923791,23.068947886834,
    -3.588279400971));
#202 = DIRECTION('',(-0.707106781186,0.707106781187,1.176932242633E-14)
  );
#203 = DIRECTION('',(0.707106781187,0.707106781186,7.88860905221E-31));
#204 = ADVANCED_FACE('',(#205),#216,.T.);
#205 = FACE_BOUND('',#206,.T.);
#206 = EDGE_LOOP('',(#207,#208,#209,#210));
#207 = ORIENTED_EDGE('',*,*,#162,.T.);
#208 = ORIENTED_EDGE('',*,*,#110,.T.);
#209 = ORIENTED_EDGE('',*,*,#61,.F.);
#210 = ORIENTED_EDGE('',*,*,#211,.F.);
#211 = EDGE_CURVE('',#163,#62,#212,.T.);
#212 = LINE('',#213,#214);
#213 = CARTESIAN_POINT('',(-30.32842712474,28.,-8.2));
#214 = VECTOR('',#215,1.);
#215 = DIRECTION('',(1.,0.,0.));
#216 = PLANE('',#217);
#217 = AXIS2_PLACEMENT_3D('',#218,#219,#220);
#218 = CARTESIAN_POINT('',(-30.32842712474,28.,-8.2));
#219 = DIRECTION('',(0.,1.,0.));
#220 = DIRECTION('',(1.,0.,0.));
#221 = ADVANCED_FACE('',(#222,#297,#333),#369,.T.);
#222 = FACE_BOUND('',#223,.T.);
#223 = EDGE_LOOP('',(#224,#232,#240,#248,#256,#264,#272,#280,#288,#294,
    #295,#296));
#224 = ORIENTED_EDGE('',*,*,#225,.F.);
#225 = EDGE_CURVE('',#226,#79,#228,.T.);
#226 = VERTEX_POINT('',#227);
#227 = CARTESIAN_POINT('',(27.,23.,-8.2));
#228 = LINE('',#229,#230);
#229 = CARTESIAN_POINT('',(27.,23.,-8.2));
#230 = VECTOR('',#231,1.);
#231 = DIRECTION('',(-1.,0.,0.));
#232 = ORIENTED_EDGE('',*,*,#233,.T.);
#233 = EDGE_CURVE('',#226,#234,#236,.T.);
#234 = VERTEX_POINT('',#235);
#235 = CARTESIAN_POINT('',(27.,19.,-8.2));
#236 = LINE('',#237,#238);
#237 = CARTESIAN_POINT('',(27.,23.,-8.2));
#238 = VECTOR('',#239,1.);
#239 = DIRECTION('',(0.,-1.,0.));
#240 = ORIENTED_EDGE('',*,*,#241,.T.);
#241 = EDGE_CURVE('',#234,#242,#244,.T.);
#242 = VERTEX_POINT('',#243);
#243 = CARTESIAN_POINT('',(27.,-11.83046746686,-8.2));
#244 = LINE('',#245,#246);
#245 = CARTESIAN_POINT('',(27.,23.,-8.2));
#246 = VECTOR('',#247,1.);
#247 = DIRECTION('',(0.,-1.,0.));
#248 = ORIENTED_EDGE('',*,*,#249,.T.);
#249 = EDGE_CURVE('',#242,#250,#252,.T.);
#250 = VERTEX_POINT('',#251);
#251 = CARTESIAN_POINT('',(15.830467466862,-23.,-8.2));
#252 = LINE('',#253,#254);
#253 = CARTESIAN_POINT('',(27.,-11.83046746686,-8.2));
#254 = VECTOR('',#255,1.);
#255 = DIRECTION('',(-0.707106781187,-0.707106781187,0.));
#256 = ORIENTED_EDGE('',*,*,#257,.F.);
#257 = EDGE_CURVE('',#258,#250,#260,.T.);
#258 = VERTEX_POINT('',#259);
#259 = CARTESIAN_POINT('',(3.72881906755,-23.,-8.2));
#260 = LINE('',#261,#262);
#261 = CARTESIAN_POINT('',(-35.32842712474,-23.,-8.2));
#262 = VECTOR('',#263,1.);
#263 = DIRECTION('',(1.,0.,0.));
#264 = ORIENTED_EDGE('',*,*,#265,.F.);
#265 = EDGE_CURVE('',#266,#258,#268,.T.);
#266 = VERTEX_POINT('',#267);
#267 = CARTESIAN_POINT('',(-1.271180932449,-28.,-8.2));
#268 = LINE('',#269,#270);
#269 = CARTESIAN_POINT('',(-1.271180932449,-28.,-8.2));
#270 = VECTOR('',#271,1.);
#271 = DIRECTION('',(0.707106781186,0.707106781187,0.));
#272 = ORIENTED_EDGE('',*,*,#273,.F.);
#273 = EDGE_CURVE('',#274,#266,#276,.T.);
#274 = VERTEX_POINT('',#275);
#275 = CARTESIAN_POINT('',(-30.32842712474,-28.,-8.2));
#276 = LINE('',#277,#278);
#277 = CARTESIAN_POINT('',(-30.32842712474,-28.,-8.2));
#278 = VECTOR('',#279,1.);
#279 = DIRECTION('',(1.,0.,0.));
#280 = ORIENTED_EDGE('',*,*,#281,.F.);
#281 = EDGE_CURVE('',#282,#274,#284,.T.);
#282 = VERTEX_POINT('',#283);
#283 = CARTESIAN_POINT('',(-39.5,-18.82842712474,-8.2));
#284 = LINE('',#285,#286);
#285 = CARTESIAN_POINT('',(-35.32842712474,-23.,-8.2));
#286 = VECTOR('',#287,1.);
#287 = DIRECTION('',(0.707106781187,-0.707106781187,0.));
#288 = ORIENTED_EDGE('',*,*,#289,.F.);
#289 = EDGE_CURVE('',#171,#282,#290,.T.);
#290 = LINE('',#291,#292);
#291 = CARTESIAN_POINT('',(-39.5,18.828427124749,-8.2));
#292 = VECTOR('',#293,1.);
#293 = DIRECTION('',(0.,-1.,0.));
#294 = ORIENTED_EDGE('',*,*,#170,.T.);
#295 = ORIENTED_EDGE('',*,*,#211,.T.);
#296 = ORIENTED_EDGE('',*,*,#86,.T.);
#297 = FACE_BOUND('',#298,.T.);
#298 = EDGE_LOOP('',(#299,#310,#318,#327));
#299 = ORIENTED_EDGE('',*,*,#300,.F.);
#300 = EDGE_CURVE('',#301,#303,#305,.T.);
#301 = VERTEX_POINT('',#302);
#302 = CARTESIAN_POINT('',(-7.799804028597,-24.5,-8.2));
#303 = VERTEX_POINT('',#304);
#304 = CARTESIAN_POINT('',(-7.799804028597,-26.5,-8.2));
#305 = CIRCLE('',#306,1.);
#306 = AXIS2_PLACEMENT_3D('',#307,#308,#309);
#307 = CARTESIAN_POINT('',(-7.799804028597,-25.5,-8.2));
#308 = DIRECTION('',(0.,0.,-1.));
#309 = DIRECTION('',(1.,0.,0.));
#310 = ORIENTED_EDGE('',*,*,#311,.F.);
#311 = EDGE_CURVE('',#312,#301,#314,.T.);
#312 = VERTEX_POINT('',#313);
#313 = CARTESIAN_POINT('',(-23.79980402859,-24.5,-8.2));
#314 = LINE('',#315,#316);
#315 = CARTESIAN_POINT('',(-23.79980402859,-24.5,-8.2));
#316 = VECTOR('',#317,1.);
#317 = DIRECTION('',(1.,0.,0.));
#318 = ORIENTED_EDGE('',*,*,#319,.F.);
#319 = EDGE_CURVE('',#320,#312,#322,.T.);
#320 = VERTEX_POINT('',#321);
#321 = CARTESIAN_POINT('',(-23.79980402859,-26.5,-8.2));
#322 = CIRCLE('',#323,1.);
#323 = AXIS2_PLACEMENT_3D('',#324,#325,#326);
#324 = CARTESIAN_POINT('',(-23.79980402859,-25.5,-8.2));
#325 = DIRECTION('',(0.,0.,-1.));
#326 = DIRECTION('',(1.,0.,0.));
#327 = ORIENTED_EDGE('',*,*,#328,.T.);
#328 = EDGE_CURVE('',#320,#303,#329,.T.);
#329 = LINE('',#330,#331);
#330 = CARTESIAN_POINT('',(-23.79980402859,-26.5,-8.2));
#331 = VECTOR('',#332,1.);
#332 = DIRECTION('',(1.,0.,0.));
#333 = FACE_BOUND('',#334,.T.);
#334 = EDGE_LOOP('',(#335,#346,#354,#363));
#335 = ORIENTED_EDGE('',*,*,#336,.F.);
#336 = EDGE_CURVE('',#337,#339,#341,.T.);
#337 = VERTEX_POINT('',#338);
#338 = CARTESIAN_POINT('',(-23.79980402859,24.5,-8.2));
#339 = VERTEX_POINT('',#340);
#340 = CARTESIAN_POINT('',(-23.79980402859,26.5,-8.2));
#341 = CIRCLE('',#342,1.);
#342 = AXIS2_PLACEMENT_3D('',#343,#344,#345);
#343 = CARTESIAN_POINT('',(-23.79980402859,25.5,-8.2));
#344 = DIRECTION('',(0.,0.,-1.));
#345 = DIRECTION('',(1.,0.,0.));
#346 = ORIENTED_EDGE('',*,*,#347,.T.);
#347 = EDGE_CURVE('',#337,#348,#350,.T.);
#348 = VERTEX_POINT('',#349);
#349 = CARTESIAN_POINT('',(-7.799804028597,24.5,-8.2));
#350 = LINE('',#351,#352);
#351 = CARTESIAN_POINT('',(-23.79980402859,24.5,-8.2));
#352 = VECTOR('',#353,1.);
#353 = DIRECTION('',(1.,0.,0.));
#354 = ORIENTED_EDGE('',*,*,#355,.F.);
#355 = EDGE_CURVE('',#356,#348,#358,.T.);
#356 = VERTEX_POINT('',#357);
#357 = CARTESIAN_POINT('',(-7.799804028597,26.5,-8.2));
#358 = CIRCLE('',#359,1.);
#359 = AXIS2_PLACEMENT_3D('',#360,#361,#362);
#360 = CARTESIAN_POINT('',(-7.799804028597,25.5,-8.2));
#361 = DIRECTION('',(0.,0.,-1.));
#362 = DIRECTION('',(1.,0.,0.));
#363 = ORIENTED_EDGE('',*,*,#364,.F.);
#364 = EDGE_CURVE('',#339,#356,#365,.T.);
#365 = LINE('',#366,#367);
#366 = CARTESIAN_POINT('',(-23.79980402859,26.5,-8.2));
#367 = VECTOR('',#368,1.);
#368 = DIRECTION('',(1.,0.,0.));
#369 = PLANE('',#370);
#370 = AXIS2_PLACEMENT_3D('',#371,#372,#373);
#371 = CARTESIAN_POINT('',(-6.93871417087,0.79478580875,-8.2));
#372 = DIRECTION('',(-0.,-0.,-1.));
#373 = DIRECTION('',(-1.,0.,0.));
#374 = ADVANCED_FACE('',(#375),#391,.F.);
#375 = FACE_BOUND('',#376,.F.);
#376 = EDGE_LOOP('',(#377,#378,#384,#385));
#377 = ORIENTED_EDGE('',*,*,#336,.F.);
#378 = ORIENTED_EDGE('',*,*,#379,.T.);
#379 = EDGE_CURVE('',#337,#121,#380,.T.);
#380 = LINE('',#381,#382);
#381 = CARTESIAN_POINT('',(-23.79980402859,24.5,-8.2));
#382 = VECTOR('',#383,1.);
#383 = DIRECTION('',(0.,0.,1.));
#384 = ORIENTED_EDGE('',*,*,#118,.F.);
#385 = ORIENTED_EDGE('',*,*,#386,.F.);
#386 = EDGE_CURVE('',#339,#119,#387,.T.);
#387 = LINE('',#388,#389);
#388 = CARTESIAN_POINT('',(-23.79980402859,26.5,-8.2));
#389 = VECTOR('',#390,1.);
#390 = DIRECTION('',(0.,0.,1.));
#391 = CYLINDRICAL_SURFACE('',#392,1.);
#392 = AXIS2_PLACEMENT_3D('',#393,#394,#395);
#393 = CARTESIAN_POINT('',(-23.79980402859,25.5,-8.2));
#394 = DIRECTION('',(0.,0.,-1.));
#395 = DIRECTION('',(1.,0.,0.));
#396 = ADVANCED_FACE('',(#397),#408,.T.);
#397 = FACE_BOUND('',#398,.T.);
#398 = EDGE_LOOP('',(#399,#400,#401,#402));
#399 = ORIENTED_EDGE('',*,*,#347,.F.);
#400 = ORIENTED_EDGE('',*,*,#379,.T.);
#401 = ORIENTED_EDGE('',*,*,#146,.F.);
#402 = ORIENTED_EDGE('',*,*,#403,.F.);
#403 = EDGE_CURVE('',#348,#138,#404,.T.);
#404 = LINE('',#405,#406);
#405 = CARTESIAN_POINT('',(-7.799804028597,24.5,-8.2));
#406 = VECTOR('',#407,1.);
#407 = DIRECTION('',(0.,0.,1.));
#408 = PLANE('',#409);
#409 = AXIS2_PLACEMENT_3D('',#410,#411,#412);
#410 = CARTESIAN_POINT('',(-23.79980402859,24.5,-8.2));
#411 = DIRECTION('',(0.,1.,0.));
#412 = DIRECTION('',(1.,0.,0.));
#413 = ADVANCED_FACE('',(#414),#425,.F.);
#414 = FACE_BOUND('',#415,.F.);
#415 = EDGE_LOOP('',(#416,#417,#423,#424));
#416 = ORIENTED_EDGE('',*,*,#355,.F.);
#417 = ORIENTED_EDGE('',*,*,#418,.T.);
#418 = EDGE_CURVE('',#356,#130,#419,.T.);
#419 = LINE('',#420,#421);
#420 = CARTESIAN_POINT('',(-7.799804028597,26.5,-8.2));
#421 = VECTOR('',#422,1.);
#422 = DIRECTION('',(0.,0.,1.));
#423 = ORIENTED_EDGE('',*,*,#137,.F.);
#424 = ORIENTED_EDGE('',*,*,#403,.F.);
#425 = CYLINDRICAL_SURFACE('',#426,1.);
#426 = AXIS2_PLACEMENT_3D('',#427,#428,#429);
#427 = CARTESIAN_POINT('',(-7.799804028597,25.5,-8.2));
#428 = DIRECTION('',(0.,0.,-1.));
#429 = DIRECTION('',(1.,0.,0.));
#430 = ADVANCED_FACE('',(#431),#437,.F.);
#431 = FACE_BOUND('',#432,.F.);
#432 = EDGE_LOOP('',(#433,#434,#435,#436));
#433 = ORIENTED_EDGE('',*,*,#364,.F.);
#434 = ORIENTED_EDGE('',*,*,#386,.T.);
#435 = ORIENTED_EDGE('',*,*,#129,.F.);
#436 = ORIENTED_EDGE('',*,*,#418,.F.);
#437 = PLANE('',#438);
#438 = AXIS2_PLACEMENT_3D('',#439,#440,#441);
#439 = CARTESIAN_POINT('',(-23.79980402859,26.5,-8.2));
#440 = DIRECTION('',(0.,1.,0.));
#441 = DIRECTION('',(1.,0.,0.));
#442 = ADVANCED_FACE('',(#443,#492),#550,.T.);
#443 = FACE_BOUND('',#444,.T.);
#444 = EDGE_LOOP('',(#445,#453,#454,#462,#470,#478,#486));
#445 = ORIENTED_EDGE('',*,*,#446,.T.);
#446 = EDGE_CURVE('',#447,#187,#449,.T.);
#447 = VERTEX_POINT('',#448);
#448 = CARTESIAN_POINT('',(39.5,23.,2.));
#449 = LINE('',#450,#451);
#450 = CARTESIAN_POINT('',(39.5,23.,2.));
#451 = VECTOR('',#452,1.);
#452 = DIRECTION('',(-1.,0.,0.));
#453 = ORIENTED_EDGE('',*,*,#186,.T.);
#454 = ORIENTED_EDGE('',*,*,#455,.T.);
#455 = EDGE_CURVE('',#179,#456,#458,.T.);
#456 = VERTEX_POINT('',#457);
#457 = CARTESIAN_POINT('',(-39.5,-18.82842712474,2.));
#458 = LINE('',#459,#460);
#459 = CARTESIAN_POINT('',(-39.5,18.828427124749,2.));
#460 = VECTOR('',#461,1.);
#461 = DIRECTION('',(0.,-1.,0.));
#462 = ORIENTED_EDGE('',*,*,#463,.T.);
#463 = EDGE_CURVE('',#456,#464,#466,.T.);
#464 = VERTEX_POINT('',#465);
#465 = CARTESIAN_POINT('',(-35.32842712474,-23.,2.));
#466 = LINE('',#467,#468);
#467 = CARTESIAN_POINT('',(-39.5,-18.82842712474,2.));
#468 = VECTOR('',#469,1.);
#469 = DIRECTION('',(0.707106781187,-0.707106781187,0.));
#470 = ORIENTED_EDGE('',*,*,#471,.T.);
#471 = EDGE_CURVE('',#464,#472,#474,.T.);
#472 = VERTEX_POINT('',#473);
#473 = CARTESIAN_POINT('',(28.328427124728,-23.,2.));
#474 = LINE('',#475,#476);
#475 = CARTESIAN_POINT('',(-35.32842712474,-23.,2.));
#476 = VECTOR('',#477,1.);
#477 = DIRECTION('',(1.,0.,0.));
#478 = ORIENTED_EDGE('',*,*,#479,.F.);
#479 = EDGE_CURVE('',#480,#472,#482,.T.);
#480 = VERTEX_POINT('',#481);
#481 = CARTESIAN_POINT('',(39.5,-11.82842712476,2.));
#482 = LINE('',#483,#484);
#483 = CARTESIAN_POINT('',(39.5,-11.82842712476,2.));
#484 = VECTOR('',#485,1.);
#485 = DIRECTION('',(-0.707106781188,-0.707106781185,0.));
#486 = ORIENTED_EDGE('',*,*,#487,.F.);
#487 = EDGE_CURVE('',#447,#480,#488,.T.);
#488 = LINE('',#489,#490);
#489 = CARTESIAN_POINT('',(39.5,23.,2.));
#490 = VECTOR('',#491,1.);
#491 = DIRECTION('',(0.,-1.,0.));
#492 = FACE_BOUND('',#493,.F.);
#493 = EDGE_LOOP('',(#494,#504,#512,#520,#528,#536,#544));
#494 = ORIENTED_EDGE('',*,*,#495,.T.);
#495 = EDGE_CURVE('',#496,#498,#500,.T.);
#496 = VERTEX_POINT('',#497);
#497 = CARTESIAN_POINT('',(37.5,-11.,2.));
#498 = VERTEX_POINT('',#499);
#499 = CARTESIAN_POINT('',(37.5,21.,2.));
#500 = LINE('',#501,#502);
#501 = CARTESIAN_POINT('',(37.5,-11.,2.));
#502 = VECTOR('',#503,1.);
#503 = DIRECTION('',(0.,1.,0.));
#504 = ORIENTED_EDGE('',*,*,#505,.T.);
#505 = EDGE_CURVE('',#498,#506,#508,.T.);
#506 = VERTEX_POINT('',#507);
#507 = CARTESIAN_POINT('',(-34.5,21.,2.));
#508 = LINE('',#509,#510);
#509 = CARTESIAN_POINT('',(37.5,21.,2.));
#510 = VECTOR('',#511,1.);
#511 = DIRECTION('',(-1.,0.,0.));
#512 = ORIENTED_EDGE('',*,*,#513,.T.);
#513 = EDGE_CURVE('',#506,#514,#516,.T.);
#514 = VERTEX_POINT('',#515);
#515 = CARTESIAN_POINT('',(-37.5,18.000000000002,2.));
#516 = LINE('',#517,#518);
#517 = CARTESIAN_POINT('',(-34.5,21.,2.));
#518 = VECTOR('',#519,1.);
#519 = DIRECTION('',(-0.707106781187,-0.707106781186,0.));
#520 = ORIENTED_EDGE('',*,*,#521,.T.);
#521 = EDGE_CURVE('',#514,#522,#524,.T.);
#522 = VERTEX_POINT('',#523);
#523 = CARTESIAN_POINT('',(-37.5,-18.,2.));
#524 = LINE('',#525,#526);
#525 = CARTESIAN_POINT('',(-37.5,18.000000000002,2.));
#526 = VECTOR('',#527,1.);
#527 = DIRECTION('',(0.,-1.,0.));
#528 = ORIENTED_EDGE('',*,*,#529,.T.);
#529 = EDGE_CURVE('',#522,#530,#532,.T.);
#530 = VERTEX_POINT('',#531);
#531 = CARTESIAN_POINT('',(-34.5,-21.,2.));
#532 = LINE('',#533,#534);
#533 = CARTESIAN_POINT('',(-37.5,-18.,2.));
#534 = VECTOR('',#535,1.);
#535 = DIRECTION('',(0.707106781187,-0.707106781187,0.));
#536 = ORIENTED_EDGE('',*,*,#537,.T.);
#537 = EDGE_CURVE('',#530,#538,#540,.T.);
#538 = VERTEX_POINT('',#539);
#539 = CARTESIAN_POINT('',(27.5,-21.,2.));
#540 = LINE('',#541,#542);
#541 = CARTESIAN_POINT('',(-34.5,-21.,2.));
#542 = VECTOR('',#543,1.);
#543 = DIRECTION('',(1.,0.,0.));
#544 = ORIENTED_EDGE('',*,*,#545,.F.);
#545 = EDGE_CURVE('',#496,#538,#546,.T.);
#546 = LINE('',#547,#548);
#547 = CARTESIAN_POINT('',(37.5,-11.,2.));
#548 = VECTOR('',#549,1.);
#549 = DIRECTION('',(-0.707106781187,-0.707106781187,0.));
#550 = PLANE('',#551);
#551 = AXIS2_PLACEMENT_3D('',#552,#553,#554);
#552 = CARTESIAN_POINT('',(-0.407896638541,0.691044841274,2.));
#553 = DIRECTION('',(0.,0.,1.));
#554 = DIRECTION('',(1.,0.,0.));
#555 = ADVANCED_FACE('',(#556),#589,.T.);
#556 = FACE_BOUND('',#557,.T.);
#557 = EDGE_LOOP('',(#558,#566,#567,#575,#583));
#558 = ORIENTED_EDGE('',*,*,#559,.T.);
#559 = EDGE_CURVE('',#560,#447,#562,.T.);
#560 = VERTEX_POINT('',#561);
#561 = CARTESIAN_POINT('',(39.5,23.,0.));
#562 = LINE('',#563,#564);
#563 = CARTESIAN_POINT('',(39.5,23.,0.));
#564 = VECTOR('',#565,1.);
#565 = DIRECTION('',(0.,0.,1.));
#566 = ORIENTED_EDGE('',*,*,#487,.T.);
#567 = ORIENTED_EDGE('',*,*,#568,.F.);
#568 = EDGE_CURVE('',#569,#480,#571,.T.);
#569 = VERTEX_POINT('',#570);
#570 = CARTESIAN_POINT('',(39.5,-11.82842712476,0.));
#571 = LINE('',#572,#573);
#572 = CARTESIAN_POINT('',(39.5,-11.82842712476,0.));
#573 = VECTOR('',#574,1.);
#574 = DIRECTION('',(0.,0.,1.));
#575 = ORIENTED_EDGE('',*,*,#576,.F.);
#576 = EDGE_CURVE('',#577,#569,#579,.T.);
#577 = VERTEX_POINT('',#578);
#578 = CARTESIAN_POINT('',(39.5,19.,8.881784197001E-16));
#579 = LINE('',#580,#581);
#580 = CARTESIAN_POINT('',(39.5,23.,0.));
#581 = VECTOR('',#582,1.);
#582 = DIRECTION('',(0.,-1.,0.));
#583 = ORIENTED_EDGE('',*,*,#584,.F.);
#584 = EDGE_CURVE('',#560,#577,#585,.T.);
#585 = LINE('',#586,#587);
#586 = CARTESIAN_POINT('',(39.5,23.,0.));
#587 = VECTOR('',#588,1.);
#588 = DIRECTION('',(0.,-1.,0.));
#589 = PLANE('',#590);
#590 = AXIS2_PLACEMENT_3D('',#591,#592,#593);
#591 = CARTESIAN_POINT('',(39.5,23.,0.));
#592 = DIRECTION('',(1.,0.,0.));
#593 = DIRECTION('',(0.,-1.,0.));
#594 = ADVANCED_FACE('',(#595),#606,.T.);
#595 = FACE_BOUND('',#596,.T.);
#596 = EDGE_LOOP('',(#597,#598,#599,#605));
#597 = ORIENTED_EDGE('',*,*,#178,.T.);
#598 = ORIENTED_EDGE('',*,*,#289,.T.);
#599 = ORIENTED_EDGE('',*,*,#600,.F.);
#600 = EDGE_CURVE('',#456,#282,#601,.T.);
#601 = LINE('',#602,#603);
#602 = CARTESIAN_POINT('',(-39.5,-18.82842712474,0.));
#603 = VECTOR('',#604,1.);
#604 = DIRECTION('',(-0.,-0.,-1.));
#605 = ORIENTED_EDGE('',*,*,#455,.F.);
#606 = PLANE('',#607);
#607 = AXIS2_PLACEMENT_3D('',#608,#609,#610);
#608 = CARTESIAN_POINT('',(-39.5,1.323780915271E-12,-3.1));
#609 = DIRECTION('',(-1.,-0.,-0.));
#610 = DIRECTION('',(0.,0.,-1.));
#611 = ADVANCED_FACE('',(#612),#628,.F.);
#612 = FACE_BOUND('',#613,.F.);
#613 = EDGE_LOOP('',(#614,#615,#621,#622));
#614 = ORIENTED_EDGE('',*,*,#233,.T.);
#615 = ORIENTED_EDGE('',*,*,#616,.T.);
#616 = EDGE_CURVE('',#234,#577,#617,.T.);
#617 = LINE('',#618,#619);
#618 = CARTESIAN_POINT('',(27.,19.,-8.2));
#619 = VECTOR('',#620,1.);
#620 = DIRECTION('',(0.8361437835,1.217937577405E-16,0.548510321976));
#621 = ORIENTED_EDGE('',*,*,#584,.F.);
#622 = ORIENTED_EDGE('',*,*,#623,.F.);
#623 = EDGE_CURVE('',#226,#560,#624,.T.);
#624 = LINE('',#625,#626);
#625 = CARTESIAN_POINT('',(27.,23.,-8.2));
#626 = VECTOR('',#627,1.);
#627 = DIRECTION('',(0.8361437835,1.217937577405E-16,0.548510321976));
#628 = PLANE('',#629);
#629 = AXIS2_PLACEMENT_3D('',#630,#631,#632);
#630 = CARTESIAN_POINT('',(27.,23.,-8.2));
#631 = DIRECTION('',(-0.548510321976,1.856612160678E-16,0.8361437835));
#632 = DIRECTION('',(0.8361437835,1.217937577405E-16,0.548510321976));
#633 = ADVANCED_FACE('',(#634),#659,.F.);
#634 = FACE_BOUND('',#635,.F.);
#635 = EDGE_LOOP('',(#636,#644,#645,#653));
#636 = ORIENTED_EDGE('',*,*,#637,.T.);
#637 = EDGE_CURVE('',#638,#234,#640,.T.);
#638 = VERTEX_POINT('',#639);
#639 = CARTESIAN_POINT('',(27.,19.,-7.));
#640 = LINE('',#641,#642);
#641 = CARTESIAN_POINT('',(27.,19.,8.881784197001E-16));
#642 = VECTOR('',#643,1.);
#643 = DIRECTION('',(0.,-2.22044604925E-16,-1.));
#644 = ORIENTED_EDGE('',*,*,#241,.T.);
#645 = ORIENTED_EDGE('',*,*,#646,.F.);
#646 = EDGE_CURVE('',#647,#242,#649,.T.);
#647 = VERTEX_POINT('',#648);
#648 = CARTESIAN_POINT('',(27.,-11.83046746686,-7.));
#649 = LINE('',#650,#651);
#650 = CARTESIAN_POINT('',(27.,-11.83046746686,0.));
#651 = VECTOR('',#652,1.);
#652 = DIRECTION('',(-0.,-0.,-1.));
#653 = ORIENTED_EDGE('',*,*,#654,.T.);
#654 = EDGE_CURVE('',#647,#638,#655,.T.);
#655 = LINE('',#656,#657);
#656 = CARTESIAN_POINT('',(27.,11.5,-7.));
#657 = VECTOR('',#658,1.);
#658 = DIRECTION('',(0.,1.,0.));
#659 = PLANE('',#660);
#660 = AXIS2_PLACEMENT_3D('',#661,#662,#663);
#661 = CARTESIAN_POINT('',(27.,23.,0.));
#662 = DIRECTION('',(-1.,0.,0.));
#663 = DIRECTION('',(0.,-1.,0.));
#664 = ADVANCED_FACE('',(#665),#707,.F.);
#665 = FACE_BOUND('',#666,.F.);
#666 = EDGE_LOOP('',(#667,#675,#676,#677,#685,#693,#701));
#667 = ORIENTED_EDGE('',*,*,#668,.T.);
#668 = EDGE_CURVE('',#669,#647,#671,.T.);
#669 = VERTEX_POINT('',#670);
#670 = CARTESIAN_POINT('',(19.830467466862,-19.,-7.));
#671 = LINE('',#672,#673);
#672 = CARTESIAN_POINT('',(22.707616866716,-16.12285060014,-7.));
#673 = VECTOR('',#674,1.);
#674 = DIRECTION('',(0.707106781187,0.707106781187,0.));
#675 = ORIENTED_EDGE('',*,*,#646,.T.);
#676 = ORIENTED_EDGE('',*,*,#249,.T.);
#677 = ORIENTED_EDGE('',*,*,#678,.F.);
#678 = EDGE_CURVE('',#679,#250,#681,.T.);
#679 = VERTEX_POINT('',#680);
#680 = CARTESIAN_POINT('',(15.830467466862,-23.,0.));
#681 = LINE('',#682,#683);
#682 = CARTESIAN_POINT('',(15.830467466862,-23.,0.));
#683 = VECTOR('',#684,1.);
#684 = DIRECTION('',(-0.,-0.,-1.));
#685 = ORIENTED_EDGE('',*,*,#686,.F.);
#686 = EDGE_CURVE('',#687,#679,#689,.T.);
#687 = VERTEX_POINT('',#688);
#688 = CARTESIAN_POINT('',(17.830467466862,-21.,0.));
#689 = LINE('',#690,#691);
#690 = CARTESIAN_POINT('',(27.,-11.83046746686,0.));
#691 = VECTOR('',#692,1.);
#692 = DIRECTION('',(-0.707106781187,-0.707106781187,0.));
#693 = ORIENTED_EDGE('',*,*,#694,.F.);
#694 = EDGE_CURVE('',#695,#687,#697,.T.);
#695 = VERTEX_POINT('',#696);
#696 = CARTESIAN_POINT('',(19.830467466862,-19.,0.));
#697 = LINE('',#698,#699);
#698 = CARTESIAN_POINT('',(27.,-11.83046746686,0.));
#699 = VECTOR('',#700,1.);
#700 = DIRECTION('',(-0.707106781187,-0.707106781187,0.));
#701 = ORIENTED_EDGE('',*,*,#702,.F.);
#702 = EDGE_CURVE('',#669,#695,#703,.T.);
#703 = LINE('',#704,#705);
#704 = CARTESIAN_POINT('',(19.830467466862,-19.,0.));
#705 = VECTOR('',#706,1.);
#706 = DIRECTION('',(0.,0.,1.));
#707 = PLANE('',#708);
#708 = AXIS2_PLACEMENT_3D('',#709,#710,#711);
#709 = CARTESIAN_POINT('',(27.,-11.83046746686,0.));
#710 = DIRECTION('',(-0.707106781187,0.707106781187,0.));
#711 = DIRECTION('',(-0.707106781187,-0.707106781187,0.));
#712 = ADVANCED_FACE('',(#713),#754,.T.);
#713 = FACE_BOUND('',#714,.T.);
#714 = EDGE_LOOP('',(#715,#723,#731,#737,#738,#739,#747,#753));
#715 = ORIENTED_EDGE('',*,*,#716,.F.);
#716 = EDGE_CURVE('',#717,#464,#719,.T.);
#717 = VERTEX_POINT('',#718);
#718 = CARTESIAN_POINT('',(-35.32842712474,-23.,-1.2));
#719 = LINE('',#720,#721);
#720 = CARTESIAN_POINT('',(-35.32842712474,-23.,0.));
#721 = VECTOR('',#722,1.);
#722 = DIRECTION('',(0.,0.,1.));
#723 = ORIENTED_EDGE('',*,*,#724,.T.);
#724 = EDGE_CURVE('',#717,#725,#727,.T.);
#725 = VERTEX_POINT('',#726);
#726 = CARTESIAN_POINT('',(3.72881906755,-23.,-1.2));
#727 = LINE('',#728,#729);
#728 = CARTESIAN_POINT('',(-35.32842712474,-23.,-1.2));
#729 = VECTOR('',#730,1.);
#730 = DIRECTION('',(1.,0.,0.));
#731 = ORIENTED_EDGE('',*,*,#732,.F.);
#732 = EDGE_CURVE('',#258,#725,#733,.T.);
#733 = LINE('',#734,#735);
#734 = CARTESIAN_POINT('',(3.72881906755,-23.,-8.2));
#735 = VECTOR('',#736,1.);
#736 = DIRECTION('',(0.,0.,1.));
#737 = ORIENTED_EDGE('',*,*,#257,.T.);
#738 = ORIENTED_EDGE('',*,*,#678,.F.);
#739 = ORIENTED_EDGE('',*,*,#740,.T.);
#740 = EDGE_CURVE('',#679,#741,#743,.T.);
#741 = VERTEX_POINT('',#742);
#742 = CARTESIAN_POINT('',(28.328427124728,-23.,0.));
#743 = LINE('',#744,#745);
#744 = CARTESIAN_POINT('',(-35.32842712474,-23.,0.));
#745 = VECTOR('',#746,1.);
#746 = DIRECTION('',(1.,0.,0.));
#747 = ORIENTED_EDGE('',*,*,#748,.T.);
#748 = EDGE_CURVE('',#741,#472,#749,.T.);
#749 = LINE('',#750,#751);
#750 = CARTESIAN_POINT('',(28.328427124728,-23.,0.));
#751 = VECTOR('',#752,1.);
#752 = DIRECTION('',(0.,0.,1.));
#753 = ORIENTED_EDGE('',*,*,#471,.F.);
#754 = PLANE('',#755);
#755 = AXIS2_PLACEMENT_3D('',#756,#757,#758);
#756 = CARTESIAN_POINT('',(-4.193796603154,-23.,-2.406203396855));
#757 = DIRECTION('',(-0.,-1.,-0.));
#758 = DIRECTION('',(0.,0.,-1.));
#759 = ADVANCED_FACE('',(#760),#786,.F.);
#760 = FACE_BOUND('',#761,.F.);
#761 = EDGE_LOOP('',(#762,#770,#778,#784,#785));
#762 = ORIENTED_EDGE('',*,*,#763,.T.);
#763 = EDGE_CURVE('',#266,#764,#766,.T.);
#764 = VERTEX_POINT('',#765);
#765 = CARTESIAN_POINT('',(-1.271180932449,-28.,-6.19));
#766 = LINE('',#767,#768);
#767 = CARTESIAN_POINT('',(-1.271180932449,-28.,-8.2));
#768 = VECTOR('',#769,1.);
#769 = DIRECTION('',(0.,0.,1.));
#770 = ORIENTED_EDGE('',*,*,#771,.F.);
#771 = EDGE_CURVE('',#772,#764,#774,.T.);
#772 = VERTEX_POINT('',#773);
#773 = CARTESIAN_POINT('',(3.71881906755,-23.01,-1.2));
#774 = LINE('',#775,#776);
#775 = CARTESIAN_POINT('',(-5.617388631164,-32.34620769871,
    -10.53620769871));
#776 = VECTOR('',#777,1.);
#777 = DIRECTION('',(-0.57735026919,-0.57735026919,-0.57735026919));
#778 = ORIENTED_EDGE('',*,*,#779,.T.);
#779 = EDGE_CURVE('',#772,#725,#780,.T.);
#780 = LINE('',#781,#782);
#781 = CARTESIAN_POINT('',(-1.271180932449,-28.,-1.2));
#782 = VECTOR('',#783,1.);
#783 = DIRECTION('',(0.707106781186,0.707106781187,0.));
#784 = ORIENTED_EDGE('',*,*,#732,.F.);
#785 = ORIENTED_EDGE('',*,*,#265,.F.);
#786 = PLANE('',#787);
#787 = AXIS2_PLACEMENT_3D('',#788,#789,#790);
#788 = CARTESIAN_POINT('',(-1.271180932449,-28.,-8.2));
#789 = DIRECTION('',(-0.707106781187,0.707106781186,0.));
#790 = DIRECTION('',(0.707106781186,0.707106781187,0.));
#791 = ADVANCED_FACE('',(#792),#810,.F.);
#792 = FACE_BOUND('',#793,.F.);
#793 = EDGE_LOOP('',(#794,#802,#808,#809));
#794 = ORIENTED_EDGE('',*,*,#795,.T.);
#795 = EDGE_CURVE('',#274,#796,#798,.T.);
#796 = VERTEX_POINT('',#797);
#797 = CARTESIAN_POINT('',(-30.32842712474,-28.,-6.19));
#798 = LINE('',#799,#800);
#799 = CARTESIAN_POINT('',(-30.32842712474,-28.,-8.2));
#800 = VECTOR('',#801,1.);
#801 = DIRECTION('',(0.,0.,1.));
#802 = ORIENTED_EDGE('',*,*,#803,.T.);
#803 = EDGE_CURVE('',#796,#764,#804,.T.);
#804 = LINE('',#805,#806);
#805 = CARTESIAN_POINT('',(-30.32842712474,-28.,-6.19));
#806 = VECTOR('',#807,1.);
#807 = DIRECTION('',(1.,0.,0.));
#808 = ORIENTED_EDGE('',*,*,#763,.F.);
#809 = ORIENTED_EDGE('',*,*,#273,.F.);
#810 = PLANE('',#811);
#811 = AXIS2_PLACEMENT_3D('',#812,#813,#814);
#812 = CARTESIAN_POINT('',(-30.32842712474,-28.,-8.2));
#813 = DIRECTION('',(0.,1.,0.));
#814 = DIRECTION('',(1.,0.,0.));
#815 = ADVANCED_FACE('',(#816),#837,.T.);
#816 = FACE_BOUND('',#817,.T.);
#817 = EDGE_LOOP('',(#818,#819,#827,#833,#834,#835,#836));
#818 = ORIENTED_EDGE('',*,*,#795,.T.);
#819 = ORIENTED_EDGE('',*,*,#820,.F.);
#820 = EDGE_CURVE('',#821,#796,#823,.T.);
#821 = VERTEX_POINT('',#822);
#822 = CARTESIAN_POINT('',(-35.31842712474,-23.01,-1.2));
#823 = LINE('',#824,#825);
#824 = CARTESIAN_POINT('',(-33.23739792897,-25.09102919577,
    -3.281029195773));
#825 = VECTOR('',#826,1.);
#826 = DIRECTION('',(0.57735026919,-0.57735026919,-0.57735026919));
#827 = ORIENTED_EDGE('',*,*,#828,.F.);
#828 = EDGE_CURVE('',#717,#821,#829,.T.);
#829 = LINE('',#830,#831);
#830 = CARTESIAN_POINT('',(-35.32842712474,-23.,-1.2));
#831 = VECTOR('',#832,1.);
#832 = DIRECTION('',(0.707106781187,-0.707106781187,0.));
#833 = ORIENTED_EDGE('',*,*,#716,.T.);
#834 = ORIENTED_EDGE('',*,*,#463,.F.);
#835 = ORIENTED_EDGE('',*,*,#600,.T.);
#836 = ORIENTED_EDGE('',*,*,#281,.T.);
#837 = PLANE('',#838);
#838 = AXIS2_PLACEMENT_3D('',#839,#840,#841);
#839 = CARTESIAN_POINT('',(-35.25947923791,-23.06894788683,
    -3.588279400971));
#840 = DIRECTION('',(-0.707106781187,-0.707106781187,-7.712320497798E-15
    ));
#841 = DIRECTION('',(-0.707106781187,0.707106781187,0.));
#842 = ADVANCED_FACE('',(#843),#869,.F.);
#843 = FACE_BOUND('',#844,.F.);
#844 = EDGE_LOOP('',(#845,#846,#854,#863));
#845 = ORIENTED_EDGE('',*,*,#300,.F.);
#846 = ORIENTED_EDGE('',*,*,#847,.T.);
#847 = EDGE_CURVE('',#301,#848,#850,.T.);
#848 = VERTEX_POINT('',#849);
#849 = CARTESIAN_POINT('',(-7.799804028597,-24.5,-2.69));
#850 = LINE('',#851,#852);
#851 = CARTESIAN_POINT('',(-7.799804028597,-24.5,-8.2));
#852 = VECTOR('',#853,1.);
#853 = DIRECTION('',(0.,0.,1.));
#854 = ORIENTED_EDGE('',*,*,#855,.T.);
#855 = EDGE_CURVE('',#848,#856,#858,.T.);
#856 = VERTEX_POINT('',#857);
#857 = CARTESIAN_POINT('',(-7.799804028597,-26.5,-4.69));
#858 = ELLIPSE('',#859,1.414213562373,1.);
#859 = AXIS2_PLACEMENT_3D('',#860,#861,#862);
#860 = CARTESIAN_POINT('',(-7.799804028597,-25.5,-3.69));
#861 = DIRECTION('',(0.,0.707106781187,-0.707106781187));
#862 = DIRECTION('',(0.,-0.707106781187,-0.707106781187));
#863 = ORIENTED_EDGE('',*,*,#864,.F.);
#864 = EDGE_CURVE('',#303,#856,#865,.T.);
#865 = LINE('',#866,#867);
#866 = CARTESIAN_POINT('',(-7.799804028597,-26.5,-8.2));
#867 = VECTOR('',#868,1.);
#868 = DIRECTION('',(0.,0.,1.));
#869 = CYLINDRICAL_SURFACE('',#870,1.);
#870 = AXIS2_PLACEMENT_3D('',#871,#872,#873);
#871 = CARTESIAN_POINT('',(-7.799804028597,-25.5,-8.2));
#872 = DIRECTION('',(0.,0.,-1.));
#873 = DIRECTION('',(1.,0.,0.));
#874 = ADVANCED_FACE('',(#875),#893,.T.);
#875 = FACE_BOUND('',#876,.T.);
#876 = EDGE_LOOP('',(#877,#878,#886,#892));
#877 = ORIENTED_EDGE('',*,*,#328,.F.);
#878 = ORIENTED_EDGE('',*,*,#879,.T.);
#879 = EDGE_CURVE('',#320,#880,#882,.T.);
#880 = VERTEX_POINT('',#881);
#881 = CARTESIAN_POINT('',(-23.79980402859,-26.5,-4.69));
#882 = LINE('',#883,#884);
#883 = CARTESIAN_POINT('',(-23.79980402859,-26.5,-8.2));
#884 = VECTOR('',#885,1.);
#885 = DIRECTION('',(0.,0.,1.));
#886 = ORIENTED_EDGE('',*,*,#887,.T.);
#887 = EDGE_CURVE('',#880,#856,#888,.T.);
#888 = LINE('',#889,#890);
#889 = CARTESIAN_POINT('',(-27.06411557667,-26.5,-4.69));
#890 = VECTOR('',#891,1.);
#891 = DIRECTION('',(1.,0.,0.));
#892 = ORIENTED_EDGE('',*,*,#864,.F.);
#893 = PLANE('',#894);
#894 = AXIS2_PLACEMENT_3D('',#895,#896,#897);
#895 = CARTESIAN_POINT('',(-23.79980402859,-26.5,-8.2));
#896 = DIRECTION('',(0.,1.,0.));
#897 = DIRECTION('',(1.,0.,0.));
#898 = ADVANCED_FACE('',(#899),#918,.F.);
#899 = FACE_BOUND('',#900,.F.);
#900 = EDGE_LOOP('',(#901,#902,#903,#912));
#901 = ORIENTED_EDGE('',*,*,#319,.F.);
#902 = ORIENTED_EDGE('',*,*,#879,.T.);
#903 = ORIENTED_EDGE('',*,*,#904,.T.);
#904 = EDGE_CURVE('',#880,#905,#907,.T.);
#905 = VERTEX_POINT('',#906);
#906 = CARTESIAN_POINT('',(-23.79980402859,-24.5,-2.69));
#907 = ELLIPSE('',#908,1.414213562373,1.);
#908 = AXIS2_PLACEMENT_3D('',#909,#910,#911);
#909 = CARTESIAN_POINT('',(-23.79980402859,-25.5,-3.69));
#910 = DIRECTION('',(0.,0.707106781187,-0.707106781187));
#911 = DIRECTION('',(0.,-0.707106781187,-0.707106781187));
#912 = ORIENTED_EDGE('',*,*,#913,.F.);
#913 = EDGE_CURVE('',#312,#905,#914,.T.);
#914 = LINE('',#915,#916);
#915 = CARTESIAN_POINT('',(-23.79980402859,-24.5,-8.2));
#916 = VECTOR('',#917,1.);
#917 = DIRECTION('',(0.,0.,1.));
#918 = CYLINDRICAL_SURFACE('',#919,1.);
#919 = AXIS2_PLACEMENT_3D('',#920,#921,#922);
#920 = CARTESIAN_POINT('',(-23.79980402859,-25.5,-8.2));
#921 = DIRECTION('',(0.,0.,-1.));
#922 = DIRECTION('',(1.,0.,0.));
#923 = ADVANCED_FACE('',(#924),#935,.F.);
#924 = FACE_BOUND('',#925,.F.);
#925 = EDGE_LOOP('',(#926,#927,#928,#934));
#926 = ORIENTED_EDGE('',*,*,#311,.F.);
#927 = ORIENTED_EDGE('',*,*,#913,.T.);
#928 = ORIENTED_EDGE('',*,*,#929,.T.);
#929 = EDGE_CURVE('',#905,#848,#930,.T.);
#930 = LINE('',#931,#932);
#931 = CARTESIAN_POINT('',(-27.06411557667,-24.5,-2.69));
#932 = VECTOR('',#933,1.);
#933 = DIRECTION('',(1.,0.,0.));
#934 = ORIENTED_EDGE('',*,*,#847,.F.);
#935 = PLANE('',#936);
#936 = AXIS2_PLACEMENT_3D('',#937,#938,#939);
#937 = CARTESIAN_POINT('',(-23.79980402859,-24.5,-8.2));
#938 = DIRECTION('',(0.,1.,0.));
#939 = DIRECTION('',(1.,0.,0.));
#940 = ADVANCED_FACE('',(#941),#952,.T.);
#941 = FACE_BOUND('',#942,.T.);
#942 = EDGE_LOOP('',(#943,#944,#945,#946));
#943 = ORIENTED_EDGE('',*,*,#568,.T.);
#944 = ORIENTED_EDGE('',*,*,#479,.T.);
#945 = ORIENTED_EDGE('',*,*,#748,.F.);
#946 = ORIENTED_EDGE('',*,*,#947,.F.);
#947 = EDGE_CURVE('',#569,#741,#948,.T.);
#948 = LINE('',#949,#950);
#949 = CARTESIAN_POINT('',(39.5,-11.82842712476,0.));
#950 = VECTOR('',#951,1.);
#951 = DIRECTION('',(-0.707106781188,-0.707106781185,0.));
#952 = PLANE('',#953);
#953 = AXIS2_PLACEMENT_3D('',#954,#955,#956);
#954 = CARTESIAN_POINT('',(39.5,-11.82842712476,0.));
#955 = DIRECTION('',(0.707106781185,-0.707106781188,0.));
#956 = DIRECTION('',(-0.707106781188,-0.707106781185,0.));
#957 = ADVANCED_FACE('',(#958),#994,.T.);
#958 = FACE_BOUND('',#959,.T.);
#959 = EDGE_LOOP('',(#960,#968,#969,#970,#971,#972,#980,#988));
#960 = ORIENTED_EDGE('',*,*,#961,.F.);
#961 = EDGE_CURVE('',#577,#962,#964,.T.);
#962 = VERTEX_POINT('',#963);
#963 = CARTESIAN_POINT('',(37.5,19.,4.440892098501E-16));
#964 = LINE('',#965,#966);
#965 = CARTESIAN_POINT('',(39.5,19.,8.881784197001E-16));
#966 = VECTOR('',#967,1.);
#967 = DIRECTION('',(-1.,0.,0.));
#968 = ORIENTED_EDGE('',*,*,#576,.T.);
#969 = ORIENTED_EDGE('',*,*,#947,.T.);
#970 = ORIENTED_EDGE('',*,*,#740,.F.);
#971 = ORIENTED_EDGE('',*,*,#686,.F.);
#972 = ORIENTED_EDGE('',*,*,#973,.T.);
#973 = EDGE_CURVE('',#687,#974,#976,.T.);
#974 = VERTEX_POINT('',#975);
#975 = CARTESIAN_POINT('',(27.5,-21.,0.));
#976 = LINE('',#977,#978);
#977 = CARTESIAN_POINT('',(-34.5,-21.,0.));
#978 = VECTOR('',#979,1.);
#979 = DIRECTION('',(1.,0.,0.));
#980 = ORIENTED_EDGE('',*,*,#981,.F.);
#981 = EDGE_CURVE('',#982,#974,#984,.T.);
#982 = VERTEX_POINT('',#983);
#983 = CARTESIAN_POINT('',(37.5,-11.,0.));
#984 = LINE('',#985,#986);
#985 = CARTESIAN_POINT('',(37.5,-11.,0.));
#986 = VECTOR('',#987,1.);
#987 = DIRECTION('',(-0.707106781187,-0.707106781187,0.));
#988 = ORIENTED_EDGE('',*,*,#989,.T.);
#989 = EDGE_CURVE('',#982,#962,#990,.T.);
#990 = LINE('',#991,#992);
#991 = CARTESIAN_POINT('',(37.5,-11.,0.));
#992 = VECTOR('',#993,1.);
#993 = DIRECTION('',(0.,1.,0.));
#994 = PLANE('',#995);
#995 = AXIS2_PLACEMENT_3D('',#996,#997,#998);
#996 = CARTESIAN_POINT('',(33.537292784774,-1.00565649364,0.));
#997 = DIRECTION('',(-0.,-0.,-1.));
#998 = DIRECTION('',(-1.,0.,0.));
#999 = ADVANCED_FACE('',(#1000),#1024,.T.);
#1000 = FACE_BOUND('',#1001,.T.);
#1001 = EDGE_LOOP('',(#1002,#1008,#1009,#1017,#1023));
#1002 = ORIENTED_EDGE('',*,*,#1003,.T.);
#1003 = EDGE_CURVE('',#982,#496,#1004,.T.);
#1004 = LINE('',#1005,#1006);
#1005 = CARTESIAN_POINT('',(37.5,-11.,0.));
#1006 = VECTOR('',#1007,1.);
#1007 = DIRECTION('',(0.,0.,1.));
#1008 = ORIENTED_EDGE('',*,*,#495,.T.);
#1009 = ORIENTED_EDGE('',*,*,#1010,.F.);
#1010 = EDGE_CURVE('',#1011,#498,#1013,.T.);
#1011 = VERTEX_POINT('',#1012);
#1012 = CARTESIAN_POINT('',(37.5,21.,0.));
#1013 = LINE('',#1014,#1015);
#1014 = CARTESIAN_POINT('',(37.5,21.,0.));
#1015 = VECTOR('',#1016,1.);
#1016 = DIRECTION('',(0.,0.,1.));
#1017 = ORIENTED_EDGE('',*,*,#1018,.F.);
#1018 = EDGE_CURVE('',#962,#1011,#1019,.T.);
#1019 = LINE('',#1020,#1021);
#1020 = CARTESIAN_POINT('',(37.5,-11.,0.));
#1021 = VECTOR('',#1022,1.);
#1022 = DIRECTION('',(0.,1.,0.));
#1023 = ORIENTED_EDGE('',*,*,#989,.F.);
#1024 = PLANE('',#1025);
#1025 = AXIS2_PLACEMENT_3D('',#1026,#1027,#1028);
#1026 = CARTESIAN_POINT('',(37.5,-11.,0.));
#1027 = DIRECTION('',(-1.,0.,0.));
#1028 = DIRECTION('',(0.,1.,0.));
#1029 = ADVANCED_FACE('',(#1030),#1048,.T.);
#1030 = FACE_BOUND('',#1031,.T.);
#1031 = EDGE_LOOP('',(#1032,#1033,#1034,#1042));
#1032 = ORIENTED_EDGE('',*,*,#1010,.T.);
#1033 = ORIENTED_EDGE('',*,*,#505,.T.);
#1034 = ORIENTED_EDGE('',*,*,#1035,.F.);
#1035 = EDGE_CURVE('',#1036,#506,#1038,.T.);
#1036 = VERTEX_POINT('',#1037);
#1037 = CARTESIAN_POINT('',(-34.5,21.,0.));
#1038 = LINE('',#1039,#1040);
#1039 = CARTESIAN_POINT('',(-34.5,21.,0.));
#1040 = VECTOR('',#1041,1.);
#1041 = DIRECTION('',(0.,0.,1.));
#1042 = ORIENTED_EDGE('',*,*,#1043,.F.);
#1043 = EDGE_CURVE('',#1011,#1036,#1044,.T.);
#1044 = LINE('',#1045,#1046);
#1045 = CARTESIAN_POINT('',(37.5,21.,0.));
#1046 = VECTOR('',#1047,1.);
#1047 = DIRECTION('',(-1.,0.,0.));
#1048 = PLANE('',#1049);
#1049 = AXIS2_PLACEMENT_3D('',#1050,#1051,#1052);
#1050 = CARTESIAN_POINT('',(37.5,21.,0.));
#1051 = DIRECTION('',(0.,-1.,0.));
#1052 = DIRECTION('',(-1.,0.,0.));
#1053 = ADVANCED_FACE('',(#1054),#1072,.T.);
#1054 = FACE_BOUND('',#1055,.T.);
#1055 = EDGE_LOOP('',(#1056,#1057,#1058,#1066));
#1056 = ORIENTED_EDGE('',*,*,#1035,.T.);
#1057 = ORIENTED_EDGE('',*,*,#513,.T.);
#1058 = ORIENTED_EDGE('',*,*,#1059,.F.);
#1059 = EDGE_CURVE('',#1060,#514,#1062,.T.);
#1060 = VERTEX_POINT('',#1061);
#1061 = CARTESIAN_POINT('',(-37.5,18.000000000002,0.));
#1062 = LINE('',#1063,#1064);
#1063 = CARTESIAN_POINT('',(-37.5,18.000000000002,0.));
#1064 = VECTOR('',#1065,1.);
#1065 = DIRECTION('',(0.,0.,1.));
#1066 = ORIENTED_EDGE('',*,*,#1067,.F.);
#1067 = EDGE_CURVE('',#1036,#1060,#1068,.T.);
#1068 = LINE('',#1069,#1070);
#1069 = CARTESIAN_POINT('',(-34.5,21.,0.));
#1070 = VECTOR('',#1071,1.);
#1071 = DIRECTION('',(-0.707106781187,-0.707106781186,0.));
#1072 = PLANE('',#1073);
#1073 = AXIS2_PLACEMENT_3D('',#1074,#1075,#1076);
#1074 = CARTESIAN_POINT('',(-34.5,21.,0.));
#1075 = DIRECTION('',(0.707106781186,-0.707106781187,0.));
#1076 = DIRECTION('',(-0.707106781187,-0.707106781186,0.));
#1077 = ADVANCED_FACE('',(#1078),#1096,.T.);
#1078 = FACE_BOUND('',#1079,.T.);
#1079 = EDGE_LOOP('',(#1080,#1081,#1082,#1090));
#1080 = ORIENTED_EDGE('',*,*,#1059,.T.);
#1081 = ORIENTED_EDGE('',*,*,#521,.T.);
#1082 = ORIENTED_EDGE('',*,*,#1083,.F.);
#1083 = EDGE_CURVE('',#1084,#522,#1086,.T.);
#1084 = VERTEX_POINT('',#1085);
#1085 = CARTESIAN_POINT('',(-37.5,-18.,0.));
#1086 = LINE('',#1087,#1088);
#1087 = CARTESIAN_POINT('',(-37.5,-18.,0.));
#1088 = VECTOR('',#1089,1.);
#1089 = DIRECTION('',(0.,0.,1.));
#1090 = ORIENTED_EDGE('',*,*,#1091,.F.);
#1091 = EDGE_CURVE('',#1060,#1084,#1092,.T.);
#1092 = LINE('',#1093,#1094);
#1093 = CARTESIAN_POINT('',(-37.5,18.000000000002,0.));
#1094 = VECTOR('',#1095,1.);
#1095 = DIRECTION('',(0.,-1.,0.));
#1096 = PLANE('',#1097);
#1097 = AXIS2_PLACEMENT_3D('',#1098,#1099,#1100);
#1098 = CARTESIAN_POINT('',(-37.5,18.000000000002,0.));
#1099 = DIRECTION('',(1.,0.,0.));
#1100 = DIRECTION('',(0.,-1.,0.));
#1101 = ADVANCED_FACE('',(#1102),#1120,.T.);
#1102 = FACE_BOUND('',#1103,.T.);
#1103 = EDGE_LOOP('',(#1104,#1105,#1106,#1114));
#1104 = ORIENTED_EDGE('',*,*,#1083,.T.);
#1105 = ORIENTED_EDGE('',*,*,#529,.T.);
#1106 = ORIENTED_EDGE('',*,*,#1107,.F.);
#1107 = EDGE_CURVE('',#1108,#530,#1110,.T.);
#1108 = VERTEX_POINT('',#1109);
#1109 = CARTESIAN_POINT('',(-34.5,-21.,0.));
#1110 = LINE('',#1111,#1112);
#1111 = CARTESIAN_POINT('',(-34.5,-21.,0.));
#1112 = VECTOR('',#1113,1.);
#1113 = DIRECTION('',(0.,0.,1.));
#1114 = ORIENTED_EDGE('',*,*,#1115,.F.);
#1115 = EDGE_CURVE('',#1084,#1108,#1116,.T.);
#1116 = LINE('',#1117,#1118);
#1117 = CARTESIAN_POINT('',(-37.5,-18.,0.));
#1118 = VECTOR('',#1119,1.);
#1119 = DIRECTION('',(0.707106781187,-0.707106781187,0.));
#1120 = PLANE('',#1121);
#1121 = AXIS2_PLACEMENT_3D('',#1122,#1123,#1124);
#1122 = CARTESIAN_POINT('',(-37.5,-18.,0.));
#1123 = DIRECTION('',(0.707106781187,0.707106781187,0.));
#1124 = DIRECTION('',(0.707106781187,-0.707106781187,0.));
#1125 = ADVANCED_FACE('',(#1126),#1143,.T.);
#1126 = FACE_BOUND('',#1127,.T.);
#1127 = EDGE_LOOP('',(#1128,#1129,#1130,#1136,#1137));
#1128 = ORIENTED_EDGE('',*,*,#1107,.T.);
#1129 = ORIENTED_EDGE('',*,*,#537,.T.);
#1130 = ORIENTED_EDGE('',*,*,#1131,.F.);
#1131 = EDGE_CURVE('',#974,#538,#1132,.T.);
#1132 = LINE('',#1133,#1134);
#1133 = CARTESIAN_POINT('',(27.5,-21.,0.));
#1134 = VECTOR('',#1135,1.);
#1135 = DIRECTION('',(0.,0.,1.));
#1136 = ORIENTED_EDGE('',*,*,#973,.F.);
#1137 = ORIENTED_EDGE('',*,*,#1138,.F.);
#1138 = EDGE_CURVE('',#1108,#687,#1139,.T.);
#1139 = LINE('',#1140,#1141);
#1140 = CARTESIAN_POINT('',(-34.5,-21.,0.));
#1141 = VECTOR('',#1142,1.);
#1142 = DIRECTION('',(1.,0.,0.));
#1143 = PLANE('',#1144);
#1144 = AXIS2_PLACEMENT_3D('',#1145,#1146,#1147);
#1145 = CARTESIAN_POINT('',(-34.5,-21.,0.));
#1146 = DIRECTION('',(0.,1.,0.));
#1147 = DIRECTION('',(1.,0.,0.));
#1148 = ADVANCED_FACE('',(#1149),#1155,.F.);
#1149 = FACE_BOUND('',#1150,.F.);
#1150 = EDGE_LOOP('',(#1151,#1152,#1153,#1154));
#1151 = ORIENTED_EDGE('',*,*,#1003,.T.);
#1152 = ORIENTED_EDGE('',*,*,#545,.T.);
#1153 = ORIENTED_EDGE('',*,*,#1131,.F.);
#1154 = ORIENTED_EDGE('',*,*,#981,.F.);
#1155 = PLANE('',#1156);
#1156 = AXIS2_PLACEMENT_3D('',#1157,#1158,#1159);
#1157 = CARTESIAN_POINT('',(37.5,-11.,0.));
#1158 = DIRECTION('',(0.707106781187,-0.707106781187,0.));
#1159 = DIRECTION('',(-0.707106781187,-0.707106781187,0.));
#1160 = ADVANCED_FACE('',(#1161),#1187,.T.);
#1161 = FACE_BOUND('',#1162,.T.);
#1162 = EDGE_LOOP('',(#1163,#1171,#1179,#1185,#1186));
#1163 = ORIENTED_EDGE('',*,*,#1164,.T.);
#1164 = EDGE_CURVE('',#638,#1165,#1167,.T.);
#1165 = VERTEX_POINT('',#1166);
#1166 = CARTESIAN_POINT('',(-34.,19.,-7.));
#1167 = LINE('',#1168,#1169);
#1168 = CARTESIAN_POINT('',(30.,19.,-7.));
#1169 = VECTOR('',#1170,1.);
#1170 = DIRECTION('',(-1.,0.,0.));
#1171 = ORIENTED_EDGE('',*,*,#1172,.T.);
#1172 = EDGE_CURVE('',#1165,#1173,#1175,.T.);
#1173 = VERTEX_POINT('',#1174);
#1174 = CARTESIAN_POINT('',(-34.,-19.,-7.));
#1175 = LINE('',#1176,#1177);
#1176 = CARTESIAN_POINT('',(-34.,19.,-7.));
#1177 = VECTOR('',#1178,1.);
#1178 = DIRECTION('',(0.,-1.,0.));
#1179 = ORIENTED_EDGE('',*,*,#1180,.T.);
#1180 = EDGE_CURVE('',#1173,#669,#1181,.T.);
#1181 = LINE('',#1182,#1183);
#1182 = CARTESIAN_POINT('',(-34.,-19.,-7.));
#1183 = VECTOR('',#1184,1.);
#1184 = DIRECTION('',(1.,0.,0.));
#1185 = ORIENTED_EDGE('',*,*,#668,.T.);
#1186 = ORIENTED_EDGE('',*,*,#654,.T.);
#1187 = PLANE('',#1188);
#1188 = AXIS2_PLACEMENT_3D('',#1189,#1190,#1191);
#1189 = CARTESIAN_POINT('',(-2.,0.,-7.));
#1190 = DIRECTION('',(0.,0.,1.));
#1191 = DIRECTION('',(1.,0.,0.));
#1192 = ADVANCED_FACE('',(#1193),#1211,.F.);
#1193 = FACE_BOUND('',#1194,.F.);
#1194 = EDGE_LOOP('',(#1195,#1203,#1209,#1210));
#1195 = ORIENTED_EDGE('',*,*,#1196,.F.);
#1196 = EDGE_CURVE('',#1197,#695,#1199,.T.);
#1197 = VERTEX_POINT('',#1198);
#1198 = CARTESIAN_POINT('',(-34.,-19.,0.));
#1199 = LINE('',#1200,#1201);
#1200 = CARTESIAN_POINT('',(-34.,-19.,0.));
#1201 = VECTOR('',#1202,1.);
#1202 = DIRECTION('',(1.,0.,0.));
#1203 = ORIENTED_EDGE('',*,*,#1204,.T.);
#1204 = EDGE_CURVE('',#1197,#1173,#1205,.T.);
#1205 = LINE('',#1206,#1207);
#1206 = CARTESIAN_POINT('',(-34.,-19.,0.));
#1207 = VECTOR('',#1208,1.);
#1208 = DIRECTION('',(-0.,-0.,-1.));
#1209 = ORIENTED_EDGE('',*,*,#1180,.T.);
#1210 = ORIENTED_EDGE('',*,*,#702,.T.);
#1211 = PLANE('',#1212);
#1212 = AXIS2_PLACEMENT_3D('',#1213,#1214,#1215);
#1213 = CARTESIAN_POINT('',(-34.,-19.,0.));
#1214 = DIRECTION('',(0.,-1.,0.));
#1215 = DIRECTION('',(1.,0.,0.));
#1216 = ADVANCED_FACE('',(#1217),#1228,.T.);
#1217 = FACE_BOUND('',#1218,.T.);
#1218 = EDGE_LOOP('',(#1219,#1220,#1221,#1222));
#1219 = ORIENTED_EDGE('',*,*,#779,.T.);
#1220 = ORIENTED_EDGE('',*,*,#724,.F.);
#1221 = ORIENTED_EDGE('',*,*,#828,.T.);
#1222 = ORIENTED_EDGE('',*,*,#1223,.T.);
#1223 = EDGE_CURVE('',#821,#772,#1224,.T.);
#1224 = LINE('',#1225,#1226);
#1225 = CARTESIAN_POINT('',(-30.32842712474,-23.01,-1.2));
#1226 = VECTOR('',#1227,1.);
#1227 = DIRECTION('',(1.,0.,0.));
#1228 = PLANE('',#1229);
#1229 = AXIS2_PLACEMENT_3D('',#1230,#1231,#1232);
#1230 = CARTESIAN_POINT('',(-15.79980402859,-1.3820994183E-15,-1.2));
#1231 = DIRECTION('',(0.,0.,1.));
#1232 = DIRECTION('',(1.,0.,0.));
#1233 = ADVANCED_FACE('',(#1234,#1240),#1246,.F.);
#1234 = FACE_BOUND('',#1235,.F.);
#1235 = EDGE_LOOP('',(#1236,#1237,#1238,#1239));
#1236 = ORIENTED_EDGE('',*,*,#820,.F.);
#1237 = ORIENTED_EDGE('',*,*,#1223,.T.);
#1238 = ORIENTED_EDGE('',*,*,#771,.T.);
#1239 = ORIENTED_EDGE('',*,*,#803,.F.);
#1240 = FACE_BOUND('',#1241,.F.);
#1241 = EDGE_LOOP('',(#1242,#1243,#1244,#1245));
#1242 = ORIENTED_EDGE('',*,*,#855,.F.);
#1243 = ORIENTED_EDGE('',*,*,#929,.F.);
#1244 = ORIENTED_EDGE('',*,*,#904,.F.);
#1245 = ORIENTED_EDGE('',*,*,#887,.T.);
#1246 = PLANE('',#1247);
#1247 = AXIS2_PLACEMENT_3D('',#1248,#1249,#1250);
#1248 = CARTESIAN_POINT('',(-30.32842712474,-25.505,-3.695));
#1249 = DIRECTION('',(0.,0.707106781187,-0.707106781187));
#1250 = DIRECTION('',(1.,0.,0.));
#1251 = ADVANCED_FACE('',(#1252),#1270,.F.);
#1252 = FACE_BOUND('',#1253,.F.);
#1253 = EDGE_LOOP('',(#1254,#1262,#1263,#1264));
#1254 = ORIENTED_EDGE('',*,*,#1255,.T.);
#1255 = EDGE_CURVE('',#1256,#1165,#1258,.T.);
#1256 = VERTEX_POINT('',#1257);
#1257 = CARTESIAN_POINT('',(-34.,19.,0.));
#1258 = LINE('',#1259,#1260);
#1259 = CARTESIAN_POINT('',(-34.,19.,0.));
#1260 = VECTOR('',#1261,1.);
#1261 = DIRECTION('',(-0.,-0.,-1.));
#1262 = ORIENTED_EDGE('',*,*,#1172,.T.);
#1263 = ORIENTED_EDGE('',*,*,#1204,.F.);
#1264 = ORIENTED_EDGE('',*,*,#1265,.F.);
#1265 = EDGE_CURVE('',#1256,#1197,#1266,.T.);
#1266 = LINE('',#1267,#1268);
#1267 = CARTESIAN_POINT('',(-34.,19.,0.));
#1268 = VECTOR('',#1269,1.);
#1269 = DIRECTION('',(0.,-1.,0.));
#1270 = PLANE('',#1271);
#1271 = AXIS2_PLACEMENT_3D('',#1272,#1273,#1274);
#1272 = CARTESIAN_POINT('',(-34.,19.,0.));
#1273 = DIRECTION('',(-1.,0.,0.));
#1274 = DIRECTION('',(0.,-1.,0.));
#1275 = ADVANCED_FACE('',(#1276),#1285,.T.);
#1276 = FACE_BOUND('',#1277,.T.);
#1277 = EDGE_LOOP('',(#1278,#1279,#1280,#1281,#1282,#1283,#1284));
#1278 = ORIENTED_EDGE('',*,*,#559,.F.);
#1279 = ORIENTED_EDGE('',*,*,#623,.F.);
#1280 = ORIENTED_EDGE('',*,*,#225,.T.);
#1281 = ORIENTED_EDGE('',*,*,#78,.T.);
#1282 = ORIENTED_EDGE('',*,*,#47,.F.);
#1283 = ORIENTED_EDGE('',*,*,#194,.F.);
#1284 = ORIENTED_EDGE('',*,*,#446,.F.);
#1285 = PLANE('',#1286);
#1286 = AXIS2_PLACEMENT_3D('',#1287,#1288,#1289);
#1287 = CARTESIAN_POINT('',(2.347148485642,23.,-1.089116256875));
#1288 = DIRECTION('',(0.,1.,0.));
#1289 = DIRECTION('',(0.,0.,1.));
#1290 = ADVANCED_FACE('',(#1291),#1308,.T.);
#1291 = FACE_BOUND('',#1292,.T.);
#1292 = EDGE_LOOP('',(#1293,#1299,#1300,#1301,#1302,#1303,#1304,#1305,
    #1306,#1307));
#1293 = ORIENTED_EDGE('',*,*,#1294,.F.);
#1294 = EDGE_CURVE('',#962,#1256,#1295,.T.);
#1295 = LINE('',#1296,#1297);
#1296 = CARTESIAN_POINT('',(30.,19.,0.));
#1297 = VECTOR('',#1298,1.);
#1298 = DIRECTION('',(-1.,0.,0.));
#1299 = ORIENTED_EDGE('',*,*,#1018,.T.);
#1300 = ORIENTED_EDGE('',*,*,#1043,.T.);
#1301 = ORIENTED_EDGE('',*,*,#1067,.T.);
#1302 = ORIENTED_EDGE('',*,*,#1091,.T.);
#1303 = ORIENTED_EDGE('',*,*,#1115,.T.);
#1304 = ORIENTED_EDGE('',*,*,#1138,.T.);
#1305 = ORIENTED_EDGE('',*,*,#694,.F.);
#1306 = ORIENTED_EDGE('',*,*,#1196,.F.);
#1307 = ORIENTED_EDGE('',*,*,#1265,.F.);
#1308 = PLANE('',#1309);
#1309 = AXIS2_PLACEMENT_3D('',#1310,#1311,#1312);
#1310 = CARTESIAN_POINT('',(-10.1005315558,2.172901650319,
    2.767529720293E-17));
#1311 = DIRECTION('',(0.,0.,1.));
#1312 = DIRECTION('',(1.,0.,0.));
#1313 = ADVANCED_FACE('',(#1314),#1322,.T.);
#1314 = FACE_BOUND('',#1315,.T.);
#1315 = EDGE_LOOP('',(#1316,#1317,#1318,#1319,#1320,#1321));
#1316 = ORIENTED_EDGE('',*,*,#616,.T.);
#1317 = ORIENTED_EDGE('',*,*,#961,.T.);
#1318 = ORIENTED_EDGE('',*,*,#1294,.T.);
#1319 = ORIENTED_EDGE('',*,*,#1255,.T.);
#1320 = ORIENTED_EDGE('',*,*,#1164,.F.);
#1321 = ORIENTED_EDGE('',*,*,#637,.T.);
#1322 = PLANE('',#1323);
#1323 = AXIS2_PLACEMENT_3D('',#1324,#1325,#1326);
#1324 = CARTESIAN_POINT('',(1.776716410332,19.,-3.310590992546));
#1325 = DIRECTION('',(-0.,-1.,-0.));
#1326 = DIRECTION('',(0.,0.,-1.));
#1327 = ( GEOMETRIC_REPRESENTATION_CONTEXT(3) 
GLOBAL_UNCERTAINTY_ASSIGNED_CONTEXT((#1331)) 
GLOBAL_UNIT_ASSIGNED_CONTEXT((#1328,#1329,#1330)) REPRESENTATION_CONTEXT
('Context #1','3D Context with UNIT and UNCERTAINTY') );
#1328 = ( LENGTH_UNIT() NAMED_UNIT(*) SI_UNIT(.MILLI.,.METRE.) );
#1329 = ( NAMED_UNIT(*) PLANE_ANGLE_UNIT() SI_UNIT($,.RADIAN.) );
#1330 = ( NAMED_UNIT(*) SI_UNIT($,.STERADIAN.) SOLID_ANGLE_UNIT() );
#1331 = UNCERTAINTY_MEASURE_WITH_UNIT(LENGTH_MEASURE(5.E-06),#1328,
  'distance_accuracy_value','confusion accuracy');
#1332 = PRODUCT_RELATED_PRODUCT_CATEGORY('part',$,(#7));
#1333 = MECHANICAL_DESIGN_GEOMETRIC_PRESENTATION_REPRESENTATION('',(
    #1334),#1327);
#1334 = STYLED_ITEM('color',(#1335),#15);
#1335 = PRESENTATION_STYLE_ASSIGNMENT((#1336,#1342));
#1336 = SURFACE_STYLE_USAGE(.BOTH.,#1337);
#1337 = SURFACE_SIDE_STYLE('',(#1338));
#1338 = SURFACE_STYLE_FILL_AREA(#1339);
#1339 = FILL_AREA_STYLE('',(#1340));
#1340 = FILL_AREA_STYLE_COLOUR('',#1341);
#1341 = COLOUR_RGB('',0.447058818107,0.474509808674,0.501960817233);
#1342 = CURVE_STYLE('',#1343,POSITIVE_LENGTH_MEASURE(0.1),#1344);
#1343 = DRAUGHTING_PRE_DEFINED_CURVE_FONT('continuous');
#1344 = COLOUR_RGB('',9.803921802644E-02,9.803921802644E-02,
  9.803921802644E-02);
ENDSEC;
END-ISO-10303-21;
