ISO-10303-21;
HEADER;
FILE_DESCRIPTION(('FreeCAD Model'),'2;1');
FILE_NAME('Open CASCADE Shape Model','2026-06-29T00:01:51',(''),(''),
  'Open CASCADE STEP processor 7.8','FreeCAD','Unknown');
FILE_SCHEMA(('AUTOMOTIVE_DESIGN { 1 0 10303 214 1 1 1 1 }'));
ENDSEC;
DATA;
#1 = APPLICATION_PROTOCOL_DEFINITION('international standard',
  'automotive_design',2000,#2);
#2 = APPLICATION_CONTEXT(
  'core data for automotive mechanical design processes');
#3 = SHAPE_DEFINITION_REPRESENTATION(#4,#10);
#4 = PRODUCT_DEFINITION_SHAPE('','',#5);
#5 = PRODUCT_DEFINITION('design','',#6,#9);
#6 = PRODUCT_DEFINITION_FORMATION('','',#7);
#7 = PRODUCT('Pocket002','Pocket002','',(#8));
#8 = PRODUCT_CONTEXT('',#2,'mechanical');
#9 = PRODUCT_DEFINITION_CONTEXT('part definition',#2,'design');
#10 = ADVANCED_BREP_SHAPE_REPRESENTATION('',(#11,#15),#1213);
#11 = AXIS2_PLACEMENT_3D('',#12,#13,#14);
#12 = CARTESIAN_POINT('',(0.,0.,0.));
#13 = DIRECTION('',(0.,0.,1.));
#14 = DIRECTION('',(1.,0.,-0.));
#15 = MANIFOLD_SOLID_BREP('',#16);
#16 = CLOSED_SHELL('',(#17,#57,#112,#172,#228,#253,#359,#383,#503,#515,
    #537,#554,#571,#583,#607,#647,#712,#753,#784,#796,#818,#852,#876,
    #900,#924,#963,#975,#999,#1033,#1065,#1089,#1113,#1131,#1149,#1166,
    #1184,#1201));
#17 = ADVANCED_FACE('',(#18),#52,.T.);
#18 = FACE_BOUND('',#19,.T.);
#19 = EDGE_LOOP('',(#20,#30,#38,#46));
#20 = ORIENTED_EDGE('',*,*,#21,.F.);
#21 = EDGE_CURVE('',#22,#24,#26,.T.);
#22 = VERTEX_POINT('',#23);
#23 = CARTESIAN_POINT('',(-30.82842712474,20.,-2.));
#24 = VERTEX_POINT('',#25);
#25 = CARTESIAN_POINT('',(-30.82832712474,20.0001,-2.));
#26 = LINE('',#27,#28);
#27 = CARTESIAN_POINT('',(-30.82842712474,20.,-2.));
#28 = VECTOR('',#29,1.);
#29 = DIRECTION('',(0.707106781187,0.707106781187,0.));
#30 = ORIENTED_EDGE('',*,*,#31,.F.);
#31 = EDGE_CURVE('',#32,#22,#34,.T.);
#32 = VERTEX_POINT('',#33);
#33 = CARTESIAN_POINT('',(4.999999999999,20.,-2.));
#34 = LINE('',#35,#36);
#35 = CARTESIAN_POINT('',(4.999999999999,20.,-2.));
#36 = VECTOR('',#37,1.);
#37 = DIRECTION('',(-1.,0.,0.));
#38 = ORIENTED_EDGE('',*,*,#39,.F.);
#39 = EDGE_CURVE('',#40,#32,#42,.T.);
#40 = VERTEX_POINT('',#41);
#41 = CARTESIAN_POINT('',(4.999899999999,20.0001,-2.));
#42 = LINE('',#43,#44);
#43 = CARTESIAN_POINT('',(0.999999999999,24.,-2.));
#44 = VECTOR('',#45,1.);
#45 = DIRECTION('',(0.707106781187,-0.707106781187,0.));
#46 = ORIENTED_EDGE('',*,*,#47,.F.);
#47 = EDGE_CURVE('',#24,#40,#48,.T.);
#48 = LINE('',#49,#50);
#49 = CARTESIAN_POINT('',(-26.82842712474,20.0001,-2.));
#50 = VECTOR('',#51,1.);
#51 = DIRECTION('',(1.,0.,0.));
#52 = PLANE('',#53);
#53 = AXIS2_PLACEMENT_3D('',#54,#55,#56);
#54 = CARTESIAN_POINT('',(-12.91421356237,2.274629538991E-15,-2.));
#55 = DIRECTION('',(0.,0.,1.));
#56 = DIRECTION('',(1.,0.,0.));
#57 = ADVANCED_FACE('',(#58),#107,.T.);
#58 = FACE_BOUND('',#59,.T.);
#59 = EDGE_LOOP('',(#60,#61,#69,#77,#85,#93,#101));
#60 = ORIENTED_EDGE('',*,*,#21,.T.);
#61 = ORIENTED_EDGE('',*,*,#62,.T.);
#62 = EDGE_CURVE('',#24,#63,#65,.T.);
#63 = VERTEX_POINT('',#64);
#64 = CARTESIAN_POINT('',(-26.82842712474,24.,-5.9999));
#65 = LINE('',#66,#67);
#66 = CARTESIAN_POINT('',(-29.4783180951,21.350109029645,-3.350009029645
    ));
#67 = VECTOR('',#68,1.);
#68 = DIRECTION('',(0.57735026919,0.57735026919,-0.57735026919));
#69 = ORIENTED_EDGE('',*,*,#70,.F.);
#70 = EDGE_CURVE('',#71,#63,#73,.T.);
#71 = VERTEX_POINT('',#72);
#72 = CARTESIAN_POINT('',(-27.82852712474,22.9999,-7.));
#73 = LINE('',#74,#75);
#74 = CARTESIAN_POINT('',(-26.68796893008,24.14045819466,-5.85944180534)
  );
#75 = VECTOR('',#76,1.);
#76 = DIRECTION('',(0.57735026919,0.57735026919,0.57735026919));
#77 = ORIENTED_EDGE('',*,*,#78,.F.);
#78 = EDGE_CURVE('',#79,#71,#81,.T.);
#79 = VERTEX_POINT('',#80);
#80 = CARTESIAN_POINT('',(-35.,15.828427124746,-7.));
#81 = LINE('',#82,#83);
#82 = CARTESIAN_POINT('',(-30.82842712474,20.,-7.));
#83 = VECTOR('',#84,1.);
#84 = DIRECTION('',(0.707106781187,0.707106781187,0.));
#85 = ORIENTED_EDGE('',*,*,#86,.F.);
#86 = EDGE_CURVE('',#87,#79,#89,.T.);
#87 = VERTEX_POINT('',#88);
#88 = CARTESIAN_POINT('',(-35.,15.828427124746,2.));
#89 = LINE('',#90,#91);
#90 = CARTESIAN_POINT('',(-35.,15.828427124746,0.));
#91 = VECTOR('',#92,1.);
#92 = DIRECTION('',(-0.,-0.,-1.));
#93 = ORIENTED_EDGE('',*,*,#94,.F.);
#94 = EDGE_CURVE('',#95,#87,#97,.T.);
#95 = VERTEX_POINT('',#96);
#96 = CARTESIAN_POINT('',(-30.82842712474,20.,2.));
#97 = LINE('',#98,#99);
#98 = CARTESIAN_POINT('',(-30.82842712474,20.,2.));
#99 = VECTOR('',#100,1.);
#100 = DIRECTION('',(-0.707106781187,-0.707106781187,0.));
#101 = ORIENTED_EDGE('',*,*,#102,.T.);
#102 = EDGE_CURVE('',#95,#22,#103,.T.);
#103 = LINE('',#104,#105);
#104 = CARTESIAN_POINT('',(-30.82842712474,20.,0.));
#105 = VECTOR('',#106,1.);
#106 = DIRECTION('',(-0.,-0.,-1.));
#107 = PLANE('',#108);
#108 = AXIS2_PLACEMENT_3D('',#109,#110,#111);
#109 = CARTESIAN_POINT('',(-31.30338772591,19.52503939883,
    -3.050375380208));
#110 = DIRECTION('',(-0.707106781187,0.707106781187,0.));
#111 = DIRECTION('',(0.707106781187,0.707106781187,0.));
#112 = ADVANCED_FACE('',(#113,#131),#167,.T.);
#113 = FACE_BOUND('',#114,.T.);
#114 = EDGE_LOOP('',(#115,#116,#117,#125));
#115 = ORIENTED_EDGE('',*,*,#62,.F.);
#116 = ORIENTED_EDGE('',*,*,#47,.T.);
#117 = ORIENTED_EDGE('',*,*,#118,.T.);
#118 = EDGE_CURVE('',#40,#119,#121,.T.);
#119 = VERTEX_POINT('',#120);
#120 = CARTESIAN_POINT('',(0.999999999999,24.,-5.9999));
#121 = LINE('',#122,#123);
#122 = CARTESIAN_POINT('',(-3.138104520792,28.138104520791,
    -10.13800452079));
#123 = VECTOR('',#124,1.);
#124 = DIRECTION('',(-0.57735026919,0.57735026919,-0.57735026919));
#125 = ORIENTED_EDGE('',*,*,#126,.F.);
#126 = EDGE_CURVE('',#63,#119,#127,.T.);
#127 = LINE('',#128,#129);
#128 = CARTESIAN_POINT('',(-26.82842712474,24.,-5.9999));
#129 = VECTOR('',#130,1.);
#130 = DIRECTION('',(1.,0.,0.));
#131 = FACE_BOUND('',#132,.T.);
#132 = EDGE_LOOP('',(#133,#144,#152,#161));
#133 = ORIENTED_EDGE('',*,*,#134,.F.);
#134 = EDGE_CURVE('',#135,#137,#139,.T.);
#135 = VERTEX_POINT('',#136);
#136 = CARTESIAN_POINT('',(-4.914213562374,21.292943218813,
    -3.292843218813));
#137 = VERTEX_POINT('',#138);
#138 = CARTESIAN_POINT('',(-4.914213562374,22.707156781187,
    -4.707056781187));
#139 = CIRCLE('',#140,1.);
#140 = AXIS2_PLACEMENT_3D('',#141,#142,#143);
#141 = CARTESIAN_POINT('',(-4.914213562373,22.00005,-3.99995));
#142 = DIRECTION('',(0.,0.707106781187,0.707106781187));
#143 = DIRECTION('',(-1.,0.,0.));
#144 = ORIENTED_EDGE('',*,*,#145,.T.);
#145 = EDGE_CURVE('',#135,#146,#148,.T.);
#146 = VERTEX_POINT('',#147);
#147 = CARTESIAN_POINT('',(-20.91421356237,21.292943218813,
    -3.292843218813));
#148 = LINE('',#149,#150);
#149 = CARTESIAN_POINT('',(-4.914213562374,21.292943218813,
    -3.292843218813));
#150 = VECTOR('',#151,1.);
#151 = DIRECTION('',(-1.,0.,0.));
#152 = ORIENTED_EDGE('',*,*,#153,.F.);
#153 = EDGE_CURVE('',#154,#146,#156,.T.);
#154 = VERTEX_POINT('',#155);
#155 = CARTESIAN_POINT('',(-20.91421356237,22.707156781187,
    -4.707056781187));
#156 = CIRCLE('',#157,1.);
#157 = AXIS2_PLACEMENT_3D('',#158,#159,#160);
#158 = CARTESIAN_POINT('',(-20.91421356237,22.00005,-3.99995));
#159 = DIRECTION('',(0.,0.707106781187,0.707106781187));
#160 = DIRECTION('',(-1.,0.,0.));
#161 = ORIENTED_EDGE('',*,*,#162,.F.);
#162 = EDGE_CURVE('',#137,#154,#163,.T.);
#163 = LINE('',#164,#165);
#164 = CARTESIAN_POINT('',(-4.914213562374,22.707156781187,
    -4.707056781187));
#165 = VECTOR('',#166,1.);
#166 = DIRECTION('',(-1.,0.,0.));
#167 = PLANE('',#168);
#168 = AXIS2_PLACEMENT_3D('',#169,#170,#171);
#169 = CARTESIAN_POINT('',(-26.82842712474,22.00005,-3.99995));
#170 = DIRECTION('',(0.,0.707106781187,0.707106781187));
#171 = DIRECTION('',(1.,0.,0.));
#172 = ADVANCED_FACE('',(#173),#223,.T.);
#173 = FACE_BOUND('',#174,.T.);
#174 = EDGE_LOOP('',(#175,#185,#193,#201,#209,#215,#216,#217));
#175 = ORIENTED_EDGE('',*,*,#176,.F.);
#176 = EDGE_CURVE('',#177,#179,#181,.T.);
#177 = VERTEX_POINT('',#178);
#178 = CARTESIAN_POINT('',(35.,20.,0.));
#179 = VERTEX_POINT('',#180);
#180 = CARTESIAN_POINT('',(35.,20.,2.));
#181 = LINE('',#182,#183);
#182 = CARTESIAN_POINT('',(35.,20.,0.));
#183 = VECTOR('',#184,1.);
#184 = DIRECTION('',(0.,0.,1.));
#185 = ORIENTED_EDGE('',*,*,#186,.T.);
#186 = EDGE_CURVE('',#177,#187,#189,.T.);
#187 = VERTEX_POINT('',#188);
#188 = CARTESIAN_POINT('',(17.,20.,0.));
#189 = LINE('',#190,#191);
#190 = CARTESIAN_POINT('',(35.,20.,0.));
#191 = VECTOR('',#192,1.);
#192 = DIRECTION('',(-1.,0.,0.));
#193 = ORIENTED_EDGE('',*,*,#194,.T.);
#194 = EDGE_CURVE('',#187,#195,#197,.T.);
#195 = VERTEX_POINT('',#196);
#196 = CARTESIAN_POINT('',(17.,20.,-7.));
#197 = LINE('',#198,#199);
#198 = CARTESIAN_POINT('',(17.,20.,0.));
#199 = VECTOR('',#200,1.);
#200 = DIRECTION('',(-0.,-0.,-1.));
#201 = ORIENTED_EDGE('',*,*,#202,.T.);
#202 = EDGE_CURVE('',#195,#203,#205,.T.);
#203 = VERTEX_POINT('',#204);
#204 = CARTESIAN_POINT('',(4.999999999999,20.,-7.));
#205 = LINE('',#206,#207);
#206 = CARTESIAN_POINT('',(17.,20.,-7.));
#207 = VECTOR('',#208,1.);
#208 = DIRECTION('',(-1.,0.,0.));
#209 = ORIENTED_EDGE('',*,*,#210,.T.);
#210 = EDGE_CURVE('',#203,#32,#211,.T.);
#211 = LINE('',#212,#213);
#212 = CARTESIAN_POINT('',(4.999999999999,20.,-7.));
#213 = VECTOR('',#214,1.);
#214 = DIRECTION('',(0.,0.,1.));
#215 = ORIENTED_EDGE('',*,*,#31,.T.);
#216 = ORIENTED_EDGE('',*,*,#102,.F.);
#217 = ORIENTED_EDGE('',*,*,#218,.F.);
#218 = EDGE_CURVE('',#179,#95,#219,.T.);
#219 = LINE('',#220,#221);
#220 = CARTESIAN_POINT('',(35.,20.,2.));
#221 = VECTOR('',#222,1.);
#222 = DIRECTION('',(-1.,0.,0.));
#223 = PLANE('',#224);
#224 = AXIS2_PLACEMENT_3D('',#225,#226,#227);
#225 = CARTESIAN_POINT('',(1.243860415382,20.,-1.658073977755));
#226 = DIRECTION('',(0.,1.,3.870839123249E-16));
#227 = DIRECTION('',(0.,-3.870839123249E-16,1.));
#228 = ADVANCED_FACE('',(#229),#248,.T.);
#229 = FACE_BOUND('',#230,.T.);
#230 = EDGE_LOOP('',(#231,#239,#240,#241,#242));
#231 = ORIENTED_EDGE('',*,*,#232,.F.);
#232 = EDGE_CURVE('',#119,#233,#235,.T.);
#233 = VERTEX_POINT('',#234);
#234 = CARTESIAN_POINT('',(2.000099999999,22.9999,-7.));
#235 = LINE('',#236,#237);
#236 = CARTESIAN_POINT('',(2.615904158131E-02,24.973840958418,
    -5.026059041582));
#237 = VECTOR('',#238,1.);
#238 = DIRECTION('',(0.57735026919,-0.57735026919,-0.57735026919));
#239 = ORIENTED_EDGE('',*,*,#118,.F.);
#240 = ORIENTED_EDGE('',*,*,#39,.T.);
#241 = ORIENTED_EDGE('',*,*,#210,.F.);
#242 = ORIENTED_EDGE('',*,*,#243,.F.);
#243 = EDGE_CURVE('',#233,#203,#244,.T.);
#244 = LINE('',#245,#246);
#245 = CARTESIAN_POINT('',(0.999999999999,24.,-7.));
#246 = VECTOR('',#247,1.);
#247 = DIRECTION('',(0.707106781187,-0.707106781187,0.));
#248 = PLANE('',#249);
#249 = AXIS2_PLACEMENT_3D('',#250,#251,#252);
#250 = CARTESIAN_POINT('',(0.999999999999,24.,-7.));
#251 = DIRECTION('',(0.707106781187,0.707106781187,0.));
#252 = DIRECTION('',(0.707106781187,-0.707106781187,0.));
#253 = ADVANCED_FACE('',(#254,#296),#354,.T.);
#254 = FACE_BOUND('',#255,.T.);
#255 = EDGE_LOOP('',(#256,#257,#258,#266,#274,#282,#290));
#256 = ORIENTED_EDGE('',*,*,#218,.T.);
#257 = ORIENTED_EDGE('',*,*,#94,.T.);
#258 = ORIENTED_EDGE('',*,*,#259,.T.);
#259 = EDGE_CURVE('',#87,#260,#262,.T.);
#260 = VERTEX_POINT('',#261);
#261 = CARTESIAN_POINT('',(-35.,-15.82842712474,2.));
#262 = LINE('',#263,#264);
#263 = CARTESIAN_POINT('',(-35.,15.828427124746,2.));
#264 = VECTOR('',#265,1.);
#265 = DIRECTION('',(0.,-1.,0.));
#266 = ORIENTED_EDGE('',*,*,#267,.T.);
#267 = EDGE_CURVE('',#260,#268,#270,.T.);
#268 = VERTEX_POINT('',#269);
#269 = CARTESIAN_POINT('',(-30.82842712475,-20.,2.));
#270 = LINE('',#271,#272);
#271 = CARTESIAN_POINT('',(-35.,-15.82842712474,2.));
#272 = VECTOR('',#273,1.);
#273 = DIRECTION('',(0.707106781186,-0.707106781187,0.));
#274 = ORIENTED_EDGE('',*,*,#275,.T.);
#275 = EDGE_CURVE('',#268,#276,#278,.T.);
#276 = VERTEX_POINT('',#277);
#277 = CARTESIAN_POINT('',(23.828427124746,-20.,2.));
#278 = LINE('',#279,#280);
#279 = CARTESIAN_POINT('',(-30.82842712475,-20.,2.));
#280 = VECTOR('',#281,1.);
#281 = DIRECTION('',(1.,0.,0.));
#282 = ORIENTED_EDGE('',*,*,#283,.F.);
#283 = EDGE_CURVE('',#284,#276,#286,.T.);
#284 = VERTEX_POINT('',#285);
#285 = CARTESIAN_POINT('',(35.,-8.828427124746,2.));
#286 = LINE('',#287,#288);
#287 = CARTESIAN_POINT('',(35.,-8.828427124746,2.));
#288 = VECTOR('',#289,1.);
#289 = DIRECTION('',(-0.707106781187,-0.707106781187,0.));
#290 = ORIENTED_EDGE('',*,*,#291,.F.);
#291 = EDGE_CURVE('',#179,#284,#292,.T.);
#292 = LINE('',#293,#294);
#293 = CARTESIAN_POINT('',(35.,20.,2.));
#294 = VECTOR('',#295,1.);
#295 = DIRECTION('',(0.,-1.,0.));
#296 = FACE_BOUND('',#297,.F.);
#297 = EDGE_LOOP('',(#298,#308,#316,#324,#332,#340,#348));
#298 = ORIENTED_EDGE('',*,*,#299,.T.);
#299 = EDGE_CURVE('',#300,#302,#304,.T.);
#300 = VERTEX_POINT('',#301);
#301 = CARTESIAN_POINT('',(33.,-8.,2.));
#302 = VERTEX_POINT('',#303);
#303 = CARTESIAN_POINT('',(33.,18.,2.));
#304 = LINE('',#305,#306);
#305 = CARTESIAN_POINT('',(33.,-8.,2.));
#306 = VECTOR('',#307,1.);
#307 = DIRECTION('',(0.,1.,0.));
#308 = ORIENTED_EDGE('',*,*,#309,.T.);
#309 = EDGE_CURVE('',#302,#310,#312,.T.);
#310 = VERTEX_POINT('',#311);
#311 = CARTESIAN_POINT('',(-30.,18.,2.));
#312 = LINE('',#313,#314);
#313 = CARTESIAN_POINT('',(33.,18.,2.));
#314 = VECTOR('',#315,1.);
#315 = DIRECTION('',(-1.,0.,0.));
#316 = ORIENTED_EDGE('',*,*,#317,.T.);
#317 = EDGE_CURVE('',#310,#318,#320,.T.);
#318 = VERTEX_POINT('',#319);
#319 = CARTESIAN_POINT('',(-33.,15.,2.));
#320 = LINE('',#321,#322);
#321 = CARTESIAN_POINT('',(-30.,18.,2.));
#322 = VECTOR('',#323,1.);
#323 = DIRECTION('',(-0.707106781187,-0.707106781187,0.));
#324 = ORIENTED_EDGE('',*,*,#325,.T.);
#325 = EDGE_CURVE('',#318,#326,#328,.T.);
#326 = VERTEX_POINT('',#327);
#327 = CARTESIAN_POINT('',(-33.,-15.,2.));
#328 = LINE('',#329,#330);
#329 = CARTESIAN_POINT('',(-33.,15.,2.));
#330 = VECTOR('',#331,1.);
#331 = DIRECTION('',(0.,-1.,0.));
#332 = ORIENTED_EDGE('',*,*,#333,.T.);
#333 = EDGE_CURVE('',#326,#334,#336,.T.);
#334 = VERTEX_POINT('',#335);
#335 = CARTESIAN_POINT('',(-30.,-18.,2.));
#336 = LINE('',#337,#338);
#337 = CARTESIAN_POINT('',(-33.,-15.,2.));
#338 = VECTOR('',#339,1.);
#339 = DIRECTION('',(0.707106781186,-0.707106781187,0.));
#340 = ORIENTED_EDGE('',*,*,#341,.T.);
#341 = EDGE_CURVE('',#334,#342,#344,.T.);
#342 = VERTEX_POINT('',#343);
#343 = CARTESIAN_POINT('',(23.,-18.,2.));
#344 = LINE('',#345,#346);
#345 = CARTESIAN_POINT('',(-30.,-18.,2.));
#346 = VECTOR('',#347,1.);
#347 = DIRECTION('',(1.,0.,0.));
#348 = ORIENTED_EDGE('',*,*,#349,.F.);
#349 = EDGE_CURVE('',#300,#342,#350,.T.);
#350 = LINE('',#351,#352);
#351 = CARTESIAN_POINT('',(33.,-8.,2.));
#352 = VECTOR('',#353,1.);
#353 = DIRECTION('',(-0.707106781187,-0.707106781187,0.));
#354 = PLANE('',#355);
#355 = AXIS2_PLACEMENT_3D('',#356,#357,#358);
#356 = CARTESIAN_POINT('',(-0.423952846844,0.701602064419,2.));
#357 = DIRECTION('',(0.,0.,1.));
#358 = DIRECTION('',(1.,0.,0.));
#359 = ADVANCED_FACE('',(#360),#378,.T.);
#360 = FACE_BOUND('',#361,.T.);
#361 = EDGE_LOOP('',(#362,#363,#371,#377));
#362 = ORIENTED_EDGE('',*,*,#86,.T.);
#363 = ORIENTED_EDGE('',*,*,#364,.T.);
#364 = EDGE_CURVE('',#79,#365,#367,.T.);
#365 = VERTEX_POINT('',#366);
#366 = CARTESIAN_POINT('',(-35.,-15.82842712474,-7.));
#367 = LINE('',#368,#369);
#368 = CARTESIAN_POINT('',(-35.,15.828427124746,-7.));
#369 = VECTOR('',#370,1.);
#370 = DIRECTION('',(0.,-1.,0.));
#371 = ORIENTED_EDGE('',*,*,#372,.F.);
#372 = EDGE_CURVE('',#260,#365,#373,.T.);
#373 = LINE('',#374,#375);
#374 = CARTESIAN_POINT('',(-35.,-15.82842712474,0.));
#375 = VECTOR('',#376,1.);
#376 = DIRECTION('',(-0.,-0.,-1.));
#377 = ORIENTED_EDGE('',*,*,#259,.F.);
#378 = PLANE('',#379);
#379 = AXIS2_PLACEMENT_3D('',#380,#381,#382);
#380 = CARTESIAN_POINT('',(-35.,3.893781859164E-13,-2.5));
#381 = DIRECTION('',(-1.,-0.,-0.));
#382 = DIRECTION('',(0.,0.,-1.));
#383 = ADVANCED_FACE('',(#384,#426,#462),#498,.T.);
#384 = FACE_BOUND('',#385,.T.);
#385 = EDGE_LOOP('',(#386,#387,#388,#394,#395,#396,#404,#412,#420));
#386 = ORIENTED_EDGE('',*,*,#364,.F.);
#387 = ORIENTED_EDGE('',*,*,#78,.T.);
#388 = ORIENTED_EDGE('',*,*,#389,.F.);
#389 = EDGE_CURVE('',#233,#71,#390,.T.);
#390 = LINE('',#391,#392);
#391 = CARTESIAN_POINT('',(-11.2487845827,22.9999,-7.));
#392 = VECTOR('',#393,1.);
#393 = DIRECTION('',(-1.,0.,0.));
#394 = ORIENTED_EDGE('',*,*,#243,.T.);
#395 = ORIENTED_EDGE('',*,*,#202,.F.);
#396 = ORIENTED_EDGE('',*,*,#397,.T.);
#397 = EDGE_CURVE('',#195,#398,#400,.T.);
#398 = VERTEX_POINT('',#399);
#399 = CARTESIAN_POINT('',(17.,-8.000000000022,-7.));
#400 = LINE('',#401,#402);
#401 = CARTESIAN_POINT('',(17.,20.,-7.));
#402 = VECTOR('',#403,1.);
#403 = DIRECTION('',(0.,-1.,0.));
#404 = ORIENTED_EDGE('',*,*,#405,.T.);
#405 = EDGE_CURVE('',#398,#406,#408,.T.);
#406 = VERTEX_POINT('',#407);
#407 = CARTESIAN_POINT('',(2.000099999994,-22.9999,-7.));
#408 = LINE('',#409,#410);
#409 = CARTESIAN_POINT('',(17.,-8.000000000022,-7.));
#410 = VECTOR('',#411,1.);
#411 = DIRECTION('',(-0.707106781187,-0.707106781186,0.));
#412 = ORIENTED_EDGE('',*,*,#413,.F.);
#413 = EDGE_CURVE('',#414,#406,#416,.T.);
#414 = VERTEX_POINT('',#415);
#415 = CARTESIAN_POINT('',(-27.82852712474,-22.9999,-7.));
#416 = LINE('',#417,#418);
#417 = CARTESIAN_POINT('',(-11.2487845827,-22.9999,-7.));
#418 = VECTOR('',#419,1.);
#419 = DIRECTION('',(1.,0.,0.));
#420 = ORIENTED_EDGE('',*,*,#421,.F.);
#421 = EDGE_CURVE('',#365,#414,#422,.T.);
#422 = LINE('',#423,#424);
#423 = CARTESIAN_POINT('',(-30.82842712474,-20.,-7.));
#424 = VECTOR('',#425,1.);
#425 = DIRECTION('',(0.707106781187,-0.707106781187,0.));
#426 = FACE_BOUND('',#427,.T.);
#427 = EDGE_LOOP('',(#428,#439,#447,#456));
#428 = ORIENTED_EDGE('',*,*,#429,.F.);
#429 = EDGE_CURVE('',#430,#432,#434,.T.);
#430 = VERTEX_POINT('',#431);
#431 = CARTESIAN_POINT('',(-20.91421356237,-20.41421356237,-7.));
#432 = VERTEX_POINT('',#433);
#433 = CARTESIAN_POINT('',(-20.91421356237,-17.58578643762,-7.));
#434 = ELLIPSE('',#435,1.414213562373,1.);
#435 = AXIS2_PLACEMENT_3D('',#436,#437,#438);
#436 = CARTESIAN_POINT('',(-20.91421356237,-19.,-7.));
#437 = DIRECTION('',(-0.,-0.,-1.));
#438 = DIRECTION('',(0.,-1.,0.));
#439 = ORIENTED_EDGE('',*,*,#440,.F.);
#440 = EDGE_CURVE('',#441,#430,#443,.T.);
#441 = VERTEX_POINT('',#442);
#442 = CARTESIAN_POINT('',(-4.914213562373,-20.41421356237,-7.));
#443 = LINE('',#444,#445);
#444 = CARTESIAN_POINT('',(-15.2487845827,-20.41421356237,-7.));
#445 = VECTOR('',#446,1.);
#446 = DIRECTION('',(-1.,0.,0.));
#447 = ORIENTED_EDGE('',*,*,#448,.F.);
#448 = EDGE_CURVE('',#449,#441,#451,.T.);
#449 = VERTEX_POINT('',#450);
#450 = CARTESIAN_POINT('',(-4.914213562373,-17.58578643762,-7.));
#451 = ELLIPSE('',#452,1.414213562373,1.);
#452 = AXIS2_PLACEMENT_3D('',#453,#454,#455);
#453 = CARTESIAN_POINT('',(-4.914213562373,-19.,-7.));
#454 = DIRECTION('',(-0.,-0.,-1.));
#455 = DIRECTION('',(0.,-1.,0.));
#456 = ORIENTED_EDGE('',*,*,#457,.T.);
#457 = EDGE_CURVE('',#449,#432,#458,.T.);
#458 = LINE('',#459,#460);
#459 = CARTESIAN_POINT('',(-15.2487845827,-17.58578643762,-7.));
#460 = VECTOR('',#461,1.);
#461 = DIRECTION('',(-1.,0.,0.));
#462 = FACE_BOUND('',#463,.T.);
#463 = EDGE_LOOP('',(#464,#475,#483,#492));
#464 = ORIENTED_EDGE('',*,*,#465,.F.);
#465 = EDGE_CURVE('',#466,#468,#470,.T.);
#466 = VERTEX_POINT('',#467);
#467 = CARTESIAN_POINT('',(-4.914213562374,20.414213562373,-7.));
#468 = VERTEX_POINT('',#469);
#469 = CARTESIAN_POINT('',(-4.914213562374,17.585786437627,-7.));
#470 = ELLIPSE('',#471,1.414213562373,1.);
#471 = AXIS2_PLACEMENT_3D('',#472,#473,#474);
#472 = CARTESIAN_POINT('',(-4.914213562373,19.,-7.));
#473 = DIRECTION('',(0.,-0.,-1.));
#474 = DIRECTION('',(0.,1.,-0.));
#475 = ORIENTED_EDGE('',*,*,#476,.F.);
#476 = EDGE_CURVE('',#477,#466,#479,.T.);
#477 = VERTEX_POINT('',#478);
#478 = CARTESIAN_POINT('',(-20.91421356237,20.414213562373,-7.));
#479 = LINE('',#480,#481);
#480 = CARTESIAN_POINT('',(-7.248784582705,20.414213562373,-7.));
#481 = VECTOR('',#482,1.);
#482 = DIRECTION('',(1.,-0.,0.));
#483 = ORIENTED_EDGE('',*,*,#484,.F.);
#484 = EDGE_CURVE('',#485,#477,#487,.T.);
#485 = VERTEX_POINT('',#486);
#486 = CARTESIAN_POINT('',(-20.91421356237,17.585786437627,-7.));
#487 = ELLIPSE('',#488,1.414213562373,1.);
#488 = AXIS2_PLACEMENT_3D('',#489,#490,#491);
#489 = CARTESIAN_POINT('',(-20.91421356237,19.,-7.));
#490 = DIRECTION('',(0.,-0.,-1.));
#491 = DIRECTION('',(0.,1.,-0.));
#492 = ORIENTED_EDGE('',*,*,#493,.T.);
#493 = EDGE_CURVE('',#485,#468,#494,.T.);
#494 = LINE('',#495,#496);
#495 = CARTESIAN_POINT('',(-7.248784582705,17.585786437627,-7.));
#496 = VECTOR('',#497,1.);
#497 = DIRECTION('',(1.,-0.,0.));
#498 = PLANE('',#499);
#499 = AXIS2_PLACEMENT_3D('',#500,#501,#502);
#500 = CARTESIAN_POINT('',(-9.583355603036,0.9535642935,-7.));
#501 = DIRECTION('',(-0.,-0.,-1.));
#502 = DIRECTION('',(-1.,0.,0.));
#503 = ADVANCED_FACE('',(#504),#510,.F.);
#504 = FACE_BOUND('',#505,.F.);
#505 = EDGE_LOOP('',(#506,#507,#508,#509));
#506 = ORIENTED_EDGE('',*,*,#126,.F.);
#507 = ORIENTED_EDGE('',*,*,#70,.F.);
#508 = ORIENTED_EDGE('',*,*,#389,.F.);
#509 = ORIENTED_EDGE('',*,*,#232,.F.);
#510 = PLANE('',#511);
#511 = AXIS2_PLACEMENT_3D('',#512,#513,#514);
#512 = CARTESIAN_POINT('',(-12.91421356237,20.464466094067,
    -9.535433905933));
#513 = DIRECTION('',(0.,-0.707106781187,0.707106781187));
#514 = DIRECTION('',(0.,0.707106781187,0.707106781187));
#515 = ADVANCED_FACE('',(#516),#532,.F.);
#516 = FACE_BOUND('',#517,.F.);
#517 = EDGE_LOOP('',(#518,#519,#525,#526));
#518 = ORIENTED_EDGE('',*,*,#134,.F.);
#519 = ORIENTED_EDGE('',*,*,#520,.T.);
#520 = EDGE_CURVE('',#135,#468,#521,.T.);
#521 = LINE('',#522,#523);
#522 = CARTESIAN_POINT('',(-4.914213562374,21.292943218813,
    -3.292843218813));
#523 = VECTOR('',#524,1.);
#524 = DIRECTION('',(-0.,-0.707106781187,-0.707106781187));
#525 = ORIENTED_EDGE('',*,*,#465,.F.);
#526 = ORIENTED_EDGE('',*,*,#527,.F.);
#527 = EDGE_CURVE('',#137,#466,#528,.T.);
#528 = LINE('',#529,#530);
#529 = CARTESIAN_POINT('',(-4.914213562374,22.707156781187,
    -4.707056781187));
#530 = VECTOR('',#531,1.);
#531 = DIRECTION('',(-0.,-0.707106781187,-0.707106781187));
#532 = CYLINDRICAL_SURFACE('',#533,1.);
#533 = AXIS2_PLACEMENT_3D('',#534,#535,#536);
#534 = CARTESIAN_POINT('',(-4.914213562373,22.00005,-3.99995));
#535 = DIRECTION('',(0.,0.707106781187,0.707106781187));
#536 = DIRECTION('',(-1.,0.,0.));
#537 = ADVANCED_FACE('',(#538),#549,.F.);
#538 = FACE_BOUND('',#539,.F.);
#539 = EDGE_LOOP('',(#540,#541,#542,#543));
#540 = ORIENTED_EDGE('',*,*,#162,.F.);
#541 = ORIENTED_EDGE('',*,*,#527,.T.);
#542 = ORIENTED_EDGE('',*,*,#476,.F.);
#543 = ORIENTED_EDGE('',*,*,#544,.F.);
#544 = EDGE_CURVE('',#154,#477,#545,.T.);
#545 = LINE('',#546,#547);
#546 = CARTESIAN_POINT('',(-20.91421356237,22.707156781187,
    -4.707056781187));
#547 = VECTOR('',#548,1.);
#548 = DIRECTION('',(-0.,-0.707106781187,-0.707106781187));
#549 = PLANE('',#550);
#550 = AXIS2_PLACEMENT_3D('',#551,#552,#553);
#551 = CARTESIAN_POINT('',(-4.914213562374,22.707156781187,
    -4.707056781187));
#552 = DIRECTION('',(0.,0.707106781187,-0.707106781187));
#553 = DIRECTION('',(-1.,0.,0.));
#554 = ADVANCED_FACE('',(#555),#566,.F.);
#555 = FACE_BOUND('',#556,.F.);
#556 = EDGE_LOOP('',(#557,#558,#559,#560));
#557 = ORIENTED_EDGE('',*,*,#153,.F.);
#558 = ORIENTED_EDGE('',*,*,#544,.T.);
#559 = ORIENTED_EDGE('',*,*,#484,.F.);
#560 = ORIENTED_EDGE('',*,*,#561,.F.);
#561 = EDGE_CURVE('',#146,#485,#562,.T.);
#562 = LINE('',#563,#564);
#563 = CARTESIAN_POINT('',(-20.91421356237,21.292943218813,
    -3.292843218813));
#564 = VECTOR('',#565,1.);
#565 = DIRECTION('',(-0.,-0.707106781187,-0.707106781187));
#566 = CYLINDRICAL_SURFACE('',#567,1.);
#567 = AXIS2_PLACEMENT_3D('',#568,#569,#570);
#568 = CARTESIAN_POINT('',(-20.91421356237,22.00005,-3.99995));
#569 = DIRECTION('',(0.,0.707106781187,0.707106781187));
#570 = DIRECTION('',(-1.,0.,0.));
#571 = ADVANCED_FACE('',(#572),#578,.T.);
#572 = FACE_BOUND('',#573,.T.);
#573 = EDGE_LOOP('',(#574,#575,#576,#577));
#574 = ORIENTED_EDGE('',*,*,#145,.F.);
#575 = ORIENTED_EDGE('',*,*,#520,.T.);
#576 = ORIENTED_EDGE('',*,*,#493,.F.);
#577 = ORIENTED_EDGE('',*,*,#561,.F.);
#578 = PLANE('',#579);
#579 = AXIS2_PLACEMENT_3D('',#580,#581,#582);
#580 = CARTESIAN_POINT('',(-4.914213562374,21.292943218813,
    -3.292843218813));
#581 = DIRECTION('',(0.,0.707106781187,-0.707106781187));
#582 = DIRECTION('',(-1.,0.,0.));
#583 = ADVANCED_FACE('',(#584),#602,.T.);
#584 = FACE_BOUND('',#585,.T.);
#585 = EDGE_LOOP('',(#586,#587,#588,#596));
#586 = ORIENTED_EDGE('',*,*,#176,.T.);
#587 = ORIENTED_EDGE('',*,*,#291,.T.);
#588 = ORIENTED_EDGE('',*,*,#589,.F.);
#589 = EDGE_CURVE('',#590,#284,#592,.T.);
#590 = VERTEX_POINT('',#591);
#591 = CARTESIAN_POINT('',(35.,-8.828427124746,0.));
#592 = LINE('',#593,#594);
#593 = CARTESIAN_POINT('',(35.,-8.828427124746,0.));
#594 = VECTOR('',#595,1.);
#595 = DIRECTION('',(0.,0.,1.));
#596 = ORIENTED_EDGE('',*,*,#597,.F.);
#597 = EDGE_CURVE('',#177,#590,#598,.T.);
#598 = LINE('',#599,#600);
#599 = CARTESIAN_POINT('',(35.,20.,0.));
#600 = VECTOR('',#601,1.);
#601 = DIRECTION('',(0.,-1.,0.));
#602 = PLANE('',#603);
#603 = AXIS2_PLACEMENT_3D('',#604,#605,#606);
#604 = CARTESIAN_POINT('',(35.,20.,0.));
#605 = DIRECTION('',(1.,0.,0.));
#606 = DIRECTION('',(0.,-1.,0.));
#607 = ADVANCED_FACE('',(#608),#642,.F.);
#608 = FACE_BOUND('',#609,.F.);
#609 = EDGE_LOOP('',(#610,#618,#619,#620,#628,#636));
#610 = ORIENTED_EDGE('',*,*,#611,.F.);
#611 = EDGE_CURVE('',#187,#612,#614,.T.);
#612 = VERTEX_POINT('',#613);
#613 = CARTESIAN_POINT('',(17.,18.,0.));
#614 = LINE('',#615,#616);
#615 = CARTESIAN_POINT('',(17.,20.,0.));
#616 = VECTOR('',#617,1.);
#617 = DIRECTION('',(0.,-1.,0.));
#618 = ORIENTED_EDGE('',*,*,#194,.T.);
#619 = ORIENTED_EDGE('',*,*,#397,.T.);
#620 = ORIENTED_EDGE('',*,*,#621,.F.);
#621 = EDGE_CURVE('',#622,#398,#624,.T.);
#622 = VERTEX_POINT('',#623);
#623 = CARTESIAN_POINT('',(17.,-8.000000000022,-6.2));
#624 = LINE('',#625,#626);
#625 = CARTESIAN_POINT('',(17.,-8.000000000022,0.));
#626 = VECTOR('',#627,1.);
#627 = DIRECTION('',(-0.,-0.,-1.));
#628 = ORIENTED_EDGE('',*,*,#629,.T.);
#629 = EDGE_CURVE('',#622,#630,#632,.T.);
#630 = VERTEX_POINT('',#631);
#631 = CARTESIAN_POINT('',(17.,18.,-6.2));
#632 = LINE('',#633,#634);
#633 = CARTESIAN_POINT('',(17.,10.,-6.2));
#634 = VECTOR('',#635,1.);
#635 = DIRECTION('',(0.,1.,0.));
#636 = ORIENTED_EDGE('',*,*,#637,.F.);
#637 = EDGE_CURVE('',#612,#630,#638,.T.);
#638 = LINE('',#639,#640);
#639 = CARTESIAN_POINT('',(17.,18.,0.));
#640 = VECTOR('',#641,1.);
#641 = DIRECTION('',(0.,0.,-1.));
#642 = PLANE('',#643);
#643 = AXIS2_PLACEMENT_3D('',#644,#645,#646);
#644 = CARTESIAN_POINT('',(17.,20.,0.));
#645 = DIRECTION('',(-1.,0.,0.));
#646 = DIRECTION('',(0.,-1.,0.));
#647 = ADVANCED_FACE('',(#648),#707,.F.);
#648 = FACE_BOUND('',#649,.F.);
#649 = EDGE_LOOP('',(#650,#651,#652,#653,#661,#669,#677,#685,#693,#701)
  );
#650 = ORIENTED_EDGE('',*,*,#597,.F.);
#651 = ORIENTED_EDGE('',*,*,#186,.T.);
#652 = ORIENTED_EDGE('',*,*,#611,.T.);
#653 = ORIENTED_EDGE('',*,*,#654,.F.);
#654 = EDGE_CURVE('',#655,#612,#657,.T.);
#655 = VERTEX_POINT('',#656);
#656 = CARTESIAN_POINT('',(33.,18.,0.));
#657 = LINE('',#658,#659);
#658 = CARTESIAN_POINT('',(33.,18.,0.));
#659 = VECTOR('',#660,1.);
#660 = DIRECTION('',(-1.,0.,0.));
#661 = ORIENTED_EDGE('',*,*,#662,.F.);
#662 = EDGE_CURVE('',#663,#655,#665,.T.);
#663 = VERTEX_POINT('',#664);
#664 = CARTESIAN_POINT('',(33.,-8.,0.));
#665 = LINE('',#666,#667);
#666 = CARTESIAN_POINT('',(33.,-8.,0.));
#667 = VECTOR('',#668,1.);
#668 = DIRECTION('',(0.,1.,0.));
#669 = ORIENTED_EDGE('',*,*,#670,.T.);
#670 = EDGE_CURVE('',#663,#671,#673,.T.);
#671 = VERTEX_POINT('',#672);
#672 = CARTESIAN_POINT('',(23.,-18.,0.));
#673 = LINE('',#674,#675);
#674 = CARTESIAN_POINT('',(33.,-8.,0.));
#675 = VECTOR('',#676,1.);
#676 = DIRECTION('',(-0.707106781187,-0.707106781187,0.));
#677 = ORIENTED_EDGE('',*,*,#678,.F.);
#678 = EDGE_CURVE('',#679,#671,#681,.T.);
#679 = VERTEX_POINT('',#680);
#680 = CARTESIAN_POINT('',(7.000000000004,-18.,0.));
#681 = LINE('',#682,#683);
#682 = CARTESIAN_POINT('',(-30.,-18.,0.));
#683 = VECTOR('',#684,1.);
#684 = DIRECTION('',(1.,0.,0.));
#685 = ORIENTED_EDGE('',*,*,#686,.T.);
#686 = EDGE_CURVE('',#679,#687,#689,.T.);
#687 = VERTEX_POINT('',#688);
#688 = CARTESIAN_POINT('',(5.,-20.,0.));
#689 = LINE('',#690,#691);
#690 = CARTESIAN_POINT('',(17.,-8.000000000022,0.));
#691 = VECTOR('',#692,1.);
#692 = DIRECTION('',(-0.707106781187,-0.707106781186,0.));
#693 = ORIENTED_EDGE('',*,*,#694,.T.);
#694 = EDGE_CURVE('',#687,#695,#697,.T.);
#695 = VERTEX_POINT('',#696);
#696 = CARTESIAN_POINT('',(23.828427124746,-20.,0.));
#697 = LINE('',#698,#699);
#698 = CARTESIAN_POINT('',(-30.82842712475,-20.,0.));
#699 = VECTOR('',#700,1.);
#700 = DIRECTION('',(1.,0.,0.));
#701 = ORIENTED_EDGE('',*,*,#702,.F.);
#702 = EDGE_CURVE('',#590,#695,#703,.T.);
#703 = LINE('',#704,#705);
#704 = CARTESIAN_POINT('',(35.,-8.828427124746,0.));
#705 = VECTOR('',#706,1.);
#706 = DIRECTION('',(-0.707106781187,-0.707106781187,0.));
#707 = PLANE('',#708);
#708 = AXIS2_PLACEMENT_3D('',#709,#710,#711);
#709 = CARTESIAN_POINT('',(-0.423952846844,0.701602064419,0.));
#710 = DIRECTION('',(0.,0.,1.));
#711 = DIRECTION('',(1.,0.,0.));
#712 = ADVANCED_FACE('',(#713),#748,.T.);
#713 = FACE_BOUND('',#714,.T.);
#714 = EDGE_LOOP('',(#715,#723,#731,#739,#745,#746,#747));
#715 = ORIENTED_EDGE('',*,*,#716,.F.);
#716 = EDGE_CURVE('',#717,#414,#719,.T.);
#717 = VERTEX_POINT('',#718);
#718 = CARTESIAN_POINT('',(-26.82842712474,-24.,-5.9999));
#719 = LINE('',#720,#721);
#720 = CARTESIAN_POINT('',(-26.68796893008,-24.14045819465,
    -5.859441805341));
#721 = VECTOR('',#722,1.);
#722 = DIRECTION('',(-0.57735026919,0.57735026919,-0.57735026919));
#723 = ORIENTED_EDGE('',*,*,#724,.F.);
#724 = EDGE_CURVE('',#725,#717,#727,.T.);
#725 = VERTEX_POINT('',#726);
#726 = CARTESIAN_POINT('',(-30.82832712474,-20.0001,-2.));
#727 = LINE('',#728,#729);
#728 = CARTESIAN_POINT('',(-29.4783180951,-21.35010902964,
    -3.350009029645));
#729 = VECTOR('',#730,1.);
#730 = DIRECTION('',(0.57735026919,-0.57735026919,-0.57735026919));
#731 = ORIENTED_EDGE('',*,*,#732,.F.);
#732 = EDGE_CURVE('',#733,#725,#735,.T.);
#733 = VERTEX_POINT('',#734);
#734 = CARTESIAN_POINT('',(-30.82842712474,-20.,-2.));
#735 = LINE('',#736,#737);
#736 = CARTESIAN_POINT('',(-30.82842712474,-20.,-2.));
#737 = VECTOR('',#738,1.);
#738 = DIRECTION('',(0.707106781187,-0.707106781187,0.));
#739 = ORIENTED_EDGE('',*,*,#740,.T.);
#740 = EDGE_CURVE('',#733,#268,#741,.T.);
#741 = LINE('',#742,#743);
#742 = CARTESIAN_POINT('',(-30.82842712475,-20.,0.));
#743 = VECTOR('',#744,1.);
#744 = DIRECTION('',(0.,0.,1.));
#745 = ORIENTED_EDGE('',*,*,#267,.F.);
#746 = ORIENTED_EDGE('',*,*,#372,.T.);
#747 = ORIENTED_EDGE('',*,*,#421,.T.);
#748 = PLANE('',#749);
#749 = AXIS2_PLACEMENT_3D('',#750,#751,#752);
#750 = CARTESIAN_POINT('',(-31.30338772591,-19.52503939883,
    -3.050375380208));
#751 = DIRECTION('',(-0.707106781187,-0.707106781187,-1.385859110254E-13
    ));
#752 = DIRECTION('',(0.707106781187,-0.707106781187,0.));
#753 = ADVANCED_FACE('',(#754),#779,.T.);
#754 = FACE_BOUND('',#755,.T.);
#755 = EDGE_LOOP('',(#756,#757,#765,#771,#772,#778));
#756 = ORIENTED_EDGE('',*,*,#740,.F.);
#757 = ORIENTED_EDGE('',*,*,#758,.T.);
#758 = EDGE_CURVE('',#733,#759,#761,.T.);
#759 = VERTEX_POINT('',#760);
#760 = CARTESIAN_POINT('',(5.,-20.,-2.));
#761 = LINE('',#762,#763);
#762 = CARTESIAN_POINT('',(-30.82842712474,-20.,-2.));
#763 = VECTOR('',#764,1.);
#764 = DIRECTION('',(1.,0.,0.));
#765 = ORIENTED_EDGE('',*,*,#766,.F.);
#766 = EDGE_CURVE('',#687,#759,#767,.T.);
#767 = LINE('',#768,#769);
#768 = CARTESIAN_POINT('',(5.,-20.,0.));
#769 = VECTOR('',#770,1.);
#770 = DIRECTION('',(-0.,-0.,-1.));
#771 = ORIENTED_EDGE('',*,*,#694,.T.);
#772 = ORIENTED_EDGE('',*,*,#773,.T.);
#773 = EDGE_CURVE('',#695,#276,#774,.T.);
#774 = LINE('',#775,#776);
#775 = CARTESIAN_POINT('',(23.828427124746,-20.,0.));
#776 = VECTOR('',#777,1.);
#777 = DIRECTION('',(0.,0.,1.));
#778 = ORIENTED_EDGE('',*,*,#275,.F.);
#779 = PLANE('',#780);
#780 = AXIS2_PLACEMENT_3D('',#781,#782,#783);
#781 = CARTESIAN_POINT('',(-4.535230152567,-20.,-1.464769847433));
#782 = DIRECTION('',(0.,-1.,3.842342441702E-16));
#783 = DIRECTION('',(0.,-3.842342441702E-16,-1.));
#784 = ADVANCED_FACE('',(#785),#791,.T.);
#785 = FACE_BOUND('',#786,.T.);
#786 = EDGE_LOOP('',(#787,#788,#789,#790));
#787 = ORIENTED_EDGE('',*,*,#589,.T.);
#788 = ORIENTED_EDGE('',*,*,#283,.T.);
#789 = ORIENTED_EDGE('',*,*,#773,.F.);
#790 = ORIENTED_EDGE('',*,*,#702,.F.);
#791 = PLANE('',#792);
#792 = AXIS2_PLACEMENT_3D('',#793,#794,#795);
#793 = CARTESIAN_POINT('',(35.,-8.828427124746,0.));
#794 = DIRECTION('',(0.707106781187,-0.707106781187,0.));
#795 = DIRECTION('',(-0.707106781187,-0.707106781187,0.));
#796 = ADVANCED_FACE('',(#797),#813,.T.);
#797 = FACE_BOUND('',#798,.T.);
#798 = EDGE_LOOP('',(#799,#805,#806,#812));
#799 = ORIENTED_EDGE('',*,*,#800,.T.);
#800 = EDGE_CURVE('',#663,#300,#801,.T.);
#801 = LINE('',#802,#803);
#802 = CARTESIAN_POINT('',(33.,-8.,0.));
#803 = VECTOR('',#804,1.);
#804 = DIRECTION('',(0.,0.,1.));
#805 = ORIENTED_EDGE('',*,*,#299,.T.);
#806 = ORIENTED_EDGE('',*,*,#807,.F.);
#807 = EDGE_CURVE('',#655,#302,#808,.T.);
#808 = LINE('',#809,#810);
#809 = CARTESIAN_POINT('',(33.,18.,0.));
#810 = VECTOR('',#811,1.);
#811 = DIRECTION('',(0.,0.,1.));
#812 = ORIENTED_EDGE('',*,*,#662,.F.);
#813 = PLANE('',#814);
#814 = AXIS2_PLACEMENT_3D('',#815,#816,#817);
#815 = CARTESIAN_POINT('',(33.,-8.,0.));
#816 = DIRECTION('',(-1.,0.,0.));
#817 = DIRECTION('',(0.,1.,0.));
#818 = ADVANCED_FACE('',(#819),#847,.T.);
#819 = FACE_BOUND('',#820,.T.);
#820 = EDGE_LOOP('',(#821,#822,#823,#831,#839,#845,#846));
#821 = ORIENTED_EDGE('',*,*,#807,.T.);
#822 = ORIENTED_EDGE('',*,*,#309,.T.);
#823 = ORIENTED_EDGE('',*,*,#824,.F.);
#824 = EDGE_CURVE('',#825,#310,#827,.T.);
#825 = VERTEX_POINT('',#826);
#826 = CARTESIAN_POINT('',(-30.,18.,0.));
#827 = LINE('',#828,#829);
#828 = CARTESIAN_POINT('',(-30.,18.,0.));
#829 = VECTOR('',#830,1.);
#830 = DIRECTION('',(0.,0.,1.));
#831 = ORIENTED_EDGE('',*,*,#832,.T.);
#832 = EDGE_CURVE('',#825,#833,#835,.T.);
#833 = VERTEX_POINT('',#834);
#834 = CARTESIAN_POINT('',(-30.,18.,-6.2));
#835 = LINE('',#836,#837);
#836 = CARTESIAN_POINT('',(-30.,18.,0.));
#837 = VECTOR('',#838,1.);
#838 = DIRECTION('',(-0.,-0.,-1.));
#839 = ORIENTED_EDGE('',*,*,#840,.F.);
#840 = EDGE_CURVE('',#630,#833,#841,.T.);
#841 = LINE('',#842,#843);
#842 = CARTESIAN_POINT('',(22.,18.,-6.2));
#843 = VECTOR('',#844,1.);
#844 = DIRECTION('',(-1.,0.,0.));
#845 = ORIENTED_EDGE('',*,*,#637,.F.);
#846 = ORIENTED_EDGE('',*,*,#654,.F.);
#847 = PLANE('',#848);
#848 = AXIS2_PLACEMENT_3D('',#849,#850,#851);
#849 = CARTESIAN_POINT('',(0.803370786517,18.,-1.403370786517));
#850 = DIRECTION('',(-0.,-1.,-0.));
#851 = DIRECTION('',(0.,0.,-1.));
#852 = ADVANCED_FACE('',(#853),#871,.T.);
#853 = FACE_BOUND('',#854,.T.);
#854 = EDGE_LOOP('',(#855,#856,#857,#865));
#855 = ORIENTED_EDGE('',*,*,#824,.T.);
#856 = ORIENTED_EDGE('',*,*,#317,.T.);
#857 = ORIENTED_EDGE('',*,*,#858,.F.);
#858 = EDGE_CURVE('',#859,#318,#861,.T.);
#859 = VERTEX_POINT('',#860);
#860 = CARTESIAN_POINT('',(-33.,15.,0.));
#861 = LINE('',#862,#863);
#862 = CARTESIAN_POINT('',(-33.,15.,0.));
#863 = VECTOR('',#864,1.);
#864 = DIRECTION('',(0.,0.,1.));
#865 = ORIENTED_EDGE('',*,*,#866,.F.);
#866 = EDGE_CURVE('',#825,#859,#867,.T.);
#867 = LINE('',#868,#869);
#868 = CARTESIAN_POINT('',(-30.,18.,0.));
#869 = VECTOR('',#870,1.);
#870 = DIRECTION('',(-0.707106781187,-0.707106781187,0.));
#871 = PLANE('',#872);
#872 = AXIS2_PLACEMENT_3D('',#873,#874,#875);
#873 = CARTESIAN_POINT('',(-30.,18.,0.));
#874 = DIRECTION('',(0.707106781187,-0.707106781187,0.));
#875 = DIRECTION('',(-0.707106781187,-0.707106781187,0.));
#876 = ADVANCED_FACE('',(#877),#895,.T.);
#877 = FACE_BOUND('',#878,.T.);
#878 = EDGE_LOOP('',(#879,#880,#881,#889));
#879 = ORIENTED_EDGE('',*,*,#858,.T.);
#880 = ORIENTED_EDGE('',*,*,#325,.T.);
#881 = ORIENTED_EDGE('',*,*,#882,.F.);
#882 = EDGE_CURVE('',#883,#326,#885,.T.);
#883 = VERTEX_POINT('',#884);
#884 = CARTESIAN_POINT('',(-33.,-15.,0.));
#885 = LINE('',#886,#887);
#886 = CARTESIAN_POINT('',(-33.,-15.,0.));
#887 = VECTOR('',#888,1.);
#888 = DIRECTION('',(0.,0.,1.));
#889 = ORIENTED_EDGE('',*,*,#890,.F.);
#890 = EDGE_CURVE('',#859,#883,#891,.T.);
#891 = LINE('',#892,#893);
#892 = CARTESIAN_POINT('',(-33.,15.,0.));
#893 = VECTOR('',#894,1.);
#894 = DIRECTION('',(0.,-1.,0.));
#895 = PLANE('',#896);
#896 = AXIS2_PLACEMENT_3D('',#897,#898,#899);
#897 = CARTESIAN_POINT('',(-33.,15.,0.));
#898 = DIRECTION('',(1.,0.,0.));
#899 = DIRECTION('',(0.,-1.,0.));
#900 = ADVANCED_FACE('',(#901),#919,.T.);
#901 = FACE_BOUND('',#902,.T.);
#902 = EDGE_LOOP('',(#903,#904,#905,#913));
#903 = ORIENTED_EDGE('',*,*,#882,.T.);
#904 = ORIENTED_EDGE('',*,*,#333,.T.);
#905 = ORIENTED_EDGE('',*,*,#906,.F.);
#906 = EDGE_CURVE('',#907,#334,#909,.T.);
#907 = VERTEX_POINT('',#908);
#908 = CARTESIAN_POINT('',(-30.,-18.,0.));
#909 = LINE('',#910,#911);
#910 = CARTESIAN_POINT('',(-30.,-18.,0.));
#911 = VECTOR('',#912,1.);
#912 = DIRECTION('',(0.,0.,1.));
#913 = ORIENTED_EDGE('',*,*,#914,.F.);
#914 = EDGE_CURVE('',#883,#907,#915,.T.);
#915 = LINE('',#916,#917);
#916 = CARTESIAN_POINT('',(-33.,-15.,0.));
#917 = VECTOR('',#918,1.);
#918 = DIRECTION('',(0.707106781186,-0.707106781187,0.));
#919 = PLANE('',#920);
#920 = AXIS2_PLACEMENT_3D('',#921,#922,#923);
#921 = CARTESIAN_POINT('',(-33.,-15.,0.));
#922 = DIRECTION('',(0.707106781187,0.707106781186,0.));
#923 = DIRECTION('',(0.707106781186,-0.707106781187,0.));
#924 = ADVANCED_FACE('',(#925),#958,.T.);
#925 = FACE_BOUND('',#926,.T.);
#926 = EDGE_LOOP('',(#927,#928,#929,#935,#936,#944,#952));
#927 = ORIENTED_EDGE('',*,*,#906,.T.);
#928 = ORIENTED_EDGE('',*,*,#341,.T.);
#929 = ORIENTED_EDGE('',*,*,#930,.F.);
#930 = EDGE_CURVE('',#671,#342,#931,.T.);
#931 = LINE('',#932,#933);
#932 = CARTESIAN_POINT('',(23.,-18.,0.));
#933 = VECTOR('',#934,1.);
#934 = DIRECTION('',(0.,0.,1.));
#935 = ORIENTED_EDGE('',*,*,#678,.F.);
#936 = ORIENTED_EDGE('',*,*,#937,.F.);
#937 = EDGE_CURVE('',#938,#679,#940,.T.);
#938 = VERTEX_POINT('',#939);
#939 = CARTESIAN_POINT('',(7.000000000004,-18.,-6.2));
#940 = LINE('',#941,#942);
#941 = CARTESIAN_POINT('',(7.000000000004,-18.,0.));
#942 = VECTOR('',#943,1.);
#943 = DIRECTION('',(0.,0.,1.));
#944 = ORIENTED_EDGE('',*,*,#945,.F.);
#945 = EDGE_CURVE('',#946,#938,#948,.T.);
#946 = VERTEX_POINT('',#947);
#947 = CARTESIAN_POINT('',(-30.,-18.,-6.2));
#948 = LINE('',#949,#950);
#949 = CARTESIAN_POINT('',(-30.,-18.,-6.2));
#950 = VECTOR('',#951,1.);
#951 = DIRECTION('',(1.,0.,0.));
#952 = ORIENTED_EDGE('',*,*,#953,.F.);
#953 = EDGE_CURVE('',#907,#946,#954,.T.);
#954 = LINE('',#955,#956);
#955 = CARTESIAN_POINT('',(-30.,-18.,0.));
#956 = VECTOR('',#957,1.);
#957 = DIRECTION('',(-0.,-0.,-1.));
#958 = PLANE('',#959);
#959 = AXIS2_PLACEMENT_3D('',#960,#961,#962);
#960 = CARTESIAN_POINT('',(-4.31045751634,-18.,-1.28954248366));
#961 = DIRECTION('',(0.,1.,-8.502235027258E-16));
#962 = DIRECTION('',(0.,8.502235027258E-16,1.));
#963 = ADVANCED_FACE('',(#964),#970,.F.);
#964 = FACE_BOUND('',#965,.F.);
#965 = EDGE_LOOP('',(#966,#967,#968,#969));
#966 = ORIENTED_EDGE('',*,*,#800,.T.);
#967 = ORIENTED_EDGE('',*,*,#349,.T.);
#968 = ORIENTED_EDGE('',*,*,#930,.F.);
#969 = ORIENTED_EDGE('',*,*,#670,.F.);
#970 = PLANE('',#971);
#971 = AXIS2_PLACEMENT_3D('',#972,#973,#974);
#972 = CARTESIAN_POINT('',(33.,-8.,0.));
#973 = DIRECTION('',(0.707106781187,-0.707106781187,0.));
#974 = DIRECTION('',(-0.707106781187,-0.707106781187,0.));
#975 = ADVANCED_FACE('',(#976),#994,.F.);
#976 = FACE_BOUND('',#977,.F.);
#977 = EDGE_LOOP('',(#978,#979,#987,#993));
#978 = ORIENTED_EDGE('',*,*,#716,.F.);
#979 = ORIENTED_EDGE('',*,*,#980,.T.);
#980 = EDGE_CURVE('',#717,#981,#983,.T.);
#981 = VERTEX_POINT('',#982);
#982 = CARTESIAN_POINT('',(1.,-24.,-5.9999));
#983 = LINE('',#984,#985);
#984 = CARTESIAN_POINT('',(-26.82842712474,-24.,-5.9999));
#985 = VECTOR('',#986,1.);
#986 = DIRECTION('',(1.,0.,0.));
#987 = ORIENTED_EDGE('',*,*,#988,.F.);
#988 = EDGE_CURVE('',#406,#981,#989,.T.);
#989 = LINE('',#990,#991);
#990 = CARTESIAN_POINT('',(2.084163778556,-22.91583622144,
    -7.084063778558));
#991 = VECTOR('',#992,1.);
#992 = DIRECTION('',(-0.57735026919,-0.577350269189,0.577350269189));
#993 = ORIENTED_EDGE('',*,*,#413,.F.);
#994 = PLANE('',#995);
#995 = AXIS2_PLACEMENT_3D('',#996,#997,#998);
#996 = CARTESIAN_POINT('',(-12.91421356237,-20.46446609406,
    -9.535433905933));
#997 = DIRECTION('',(0.,0.707106781187,0.707106781187));
#998 = DIRECTION('',(0.,0.707106781187,-0.707106781187));
#999 = ADVANCED_FACE('',(#1000),#1028,.T.);
#1000 = FACE_BOUND('',#1001,.T.);
#1001 = EDGE_LOOP('',(#1002,#1010,#1016,#1017,#1018,#1019,#1025,#1026,
    #1027));
#1002 = ORIENTED_EDGE('',*,*,#1003,.F.);
#1003 = EDGE_CURVE('',#1004,#759,#1006,.T.);
#1004 = VERTEX_POINT('',#1005);
#1005 = CARTESIAN_POINT('',(4.9999,-20.0001,-2.));
#1006 = LINE('',#1007,#1008);
#1007 = CARTESIAN_POINT('',(1.,-24.,-2.));
#1008 = VECTOR('',#1009,1.);
#1009 = DIRECTION('',(0.707106781187,0.707106781187,0.));
#1010 = ORIENTED_EDGE('',*,*,#1011,.T.);
#1011 = EDGE_CURVE('',#1004,#981,#1012,.T.);
#1012 = LINE('',#1013,#1014);
#1013 = CARTESIAN_POINT('',(-0.470321293698,-25.47032129369,
    -7.470221293692));
#1014 = VECTOR('',#1015,1.);
#1015 = DIRECTION('',(-0.57735026919,-0.577350269189,-0.577350269189));
#1016 = ORIENTED_EDGE('',*,*,#988,.F.);
#1017 = ORIENTED_EDGE('',*,*,#405,.F.);
#1018 = ORIENTED_EDGE('',*,*,#621,.F.);
#1019 = ORIENTED_EDGE('',*,*,#1020,.F.);
#1020 = EDGE_CURVE('',#938,#622,#1021,.T.);
#1021 = LINE('',#1022,#1023);
#1022 = CARTESIAN_POINT('',(13.749999999996,-11.25000000002,-6.2));
#1023 = VECTOR('',#1024,1.);
#1024 = DIRECTION('',(0.707106781187,0.707106781186,0.));
#1025 = ORIENTED_EDGE('',*,*,#937,.T.);
#1026 = ORIENTED_EDGE('',*,*,#686,.T.);
#1027 = ORIENTED_EDGE('',*,*,#766,.T.);
#1028 = PLANE('',#1029);
#1029 = AXIS2_PLACEMENT_3D('',#1030,#1031,#1032);
#1030 = CARTESIAN_POINT('',(8.088681946122,-16.91131805388,
    -5.170664529629));
#1031 = DIRECTION('',(0.707106781186,-0.707106781187,5.714817142035E-14)
  );
#1032 = DIRECTION('',(-0.707106781187,-0.707106781186,0.));
#1033 = ADVANCED_FACE('',(#1034),#1060,.F.);
#1034 = FACE_BOUND('',#1035,.F.);
#1035 = EDGE_LOOP('',(#1036,#1047,#1053,#1054));
#1036 = ORIENTED_EDGE('',*,*,#1037,.F.);
#1037 = EDGE_CURVE('',#1038,#1040,#1042,.T.);
#1038 = VERTEX_POINT('',#1039);
#1039 = CARTESIAN_POINT('',(-20.91421356237,-21.29294321881,
    -3.292843218813));
#1040 = VERTEX_POINT('',#1041);
#1041 = CARTESIAN_POINT('',(-20.91421356237,-22.70715678118,
    -4.707056781187));
#1042 = CIRCLE('',#1043,1.);
#1043 = AXIS2_PLACEMENT_3D('',#1044,#1045,#1046);
#1044 = CARTESIAN_POINT('',(-20.91421356237,-22.00005,-3.99995));
#1045 = DIRECTION('',(0.,-0.707106781187,0.707106781187));
#1046 = DIRECTION('',(1.,0.,0.));
#1047 = ORIENTED_EDGE('',*,*,#1048,.T.);
#1048 = EDGE_CURVE('',#1038,#432,#1049,.T.);
#1049 = LINE('',#1050,#1051);
#1050 = CARTESIAN_POINT('',(-20.91421356237,-21.29294321881,
    -3.292843218813));
#1051 = VECTOR('',#1052,1.);
#1052 = DIRECTION('',(0.,0.707106781187,-0.707106781187));
#1053 = ORIENTED_EDGE('',*,*,#429,.F.);
#1054 = ORIENTED_EDGE('',*,*,#1055,.F.);
#1055 = EDGE_CURVE('',#1040,#430,#1056,.T.);
#1056 = LINE('',#1057,#1058);
#1057 = CARTESIAN_POINT('',(-20.91421356237,-22.70715678118,
    -4.707056781187));
#1058 = VECTOR('',#1059,1.);
#1059 = DIRECTION('',(0.,0.707106781187,-0.707106781187));
#1060 = CYLINDRICAL_SURFACE('',#1061,1.);
#1061 = AXIS2_PLACEMENT_3D('',#1062,#1063,#1064);
#1062 = CARTESIAN_POINT('',(-20.91421356237,-22.00005,-3.99995));
#1063 = DIRECTION('',(0.,-0.707106781187,0.707106781187));
#1064 = DIRECTION('',(1.,0.,0.));
#1065 = ADVANCED_FACE('',(#1066),#1084,.F.);
#1066 = FACE_BOUND('',#1067,.F.);
#1067 = EDGE_LOOP('',(#1068,#1076,#1077,#1078));
#1068 = ORIENTED_EDGE('',*,*,#1069,.F.);
#1069 = EDGE_CURVE('',#1040,#1070,#1072,.T.);
#1070 = VERTEX_POINT('',#1071);
#1071 = CARTESIAN_POINT('',(-4.914213562373,-22.70715678118,
    -4.707056781187));
#1072 = LINE('',#1073,#1074);
#1073 = CARTESIAN_POINT('',(-20.91421356237,-22.70715678118,
    -4.707056781187));
#1074 = VECTOR('',#1075,1.);
#1075 = DIRECTION('',(1.,0.,0.));
#1076 = ORIENTED_EDGE('',*,*,#1055,.T.);
#1077 = ORIENTED_EDGE('',*,*,#440,.F.);
#1078 = ORIENTED_EDGE('',*,*,#1079,.F.);
#1079 = EDGE_CURVE('',#1070,#441,#1080,.T.);
#1080 = LINE('',#1081,#1082);
#1081 = CARTESIAN_POINT('',(-4.914213562373,-22.70715678118,
    -4.707056781187));
#1082 = VECTOR('',#1083,1.);
#1083 = DIRECTION('',(0.,0.707106781187,-0.707106781187));
#1084 = PLANE('',#1085);
#1085 = AXIS2_PLACEMENT_3D('',#1086,#1087,#1088);
#1086 = CARTESIAN_POINT('',(-20.91421356237,-22.70715678118,
    -4.707056781187));
#1087 = DIRECTION('',(0.,-0.707106781187,-0.707106781187));
#1088 = DIRECTION('',(1.,0.,0.));
#1089 = ADVANCED_FACE('',(#1090),#1108,.T.);
#1090 = FACE_BOUND('',#1091,.T.);
#1091 = EDGE_LOOP('',(#1092,#1100,#1101,#1102));
#1092 = ORIENTED_EDGE('',*,*,#1093,.F.);
#1093 = EDGE_CURVE('',#1038,#1094,#1096,.T.);
#1094 = VERTEX_POINT('',#1095);
#1095 = CARTESIAN_POINT('',(-4.914213562373,-21.29294321881,
    -3.292843218813));
#1096 = LINE('',#1097,#1098);
#1097 = CARTESIAN_POINT('',(-20.91421356237,-21.29294321881,
    -3.292843218813));
#1098 = VECTOR('',#1099,1.);
#1099 = DIRECTION('',(1.,0.,0.));
#1100 = ORIENTED_EDGE('',*,*,#1048,.T.);
#1101 = ORIENTED_EDGE('',*,*,#457,.F.);
#1102 = ORIENTED_EDGE('',*,*,#1103,.F.);
#1103 = EDGE_CURVE('',#1094,#449,#1104,.T.);
#1104 = LINE('',#1105,#1106);
#1105 = CARTESIAN_POINT('',(-4.914213562373,-21.29294321881,
    -3.292843218813));
#1106 = VECTOR('',#1107,1.);
#1107 = DIRECTION('',(0.,0.707106781187,-0.707106781187));
#1108 = PLANE('',#1109);
#1109 = AXIS2_PLACEMENT_3D('',#1110,#1111,#1112);
#1110 = CARTESIAN_POINT('',(-20.91421356237,-21.29294321881,
    -3.292843218813));
#1111 = DIRECTION('',(0.,-0.707106781187,-0.707106781187));
#1112 = DIRECTION('',(1.,0.,0.));
#1113 = ADVANCED_FACE('',(#1114),#1126,.F.);
#1114 = FACE_BOUND('',#1115,.F.);
#1115 = EDGE_LOOP('',(#1116,#1123,#1124,#1125));
#1116 = ORIENTED_EDGE('',*,*,#1117,.F.);
#1117 = EDGE_CURVE('',#1070,#1094,#1118,.T.);
#1118 = CIRCLE('',#1119,1.);
#1119 = AXIS2_PLACEMENT_3D('',#1120,#1121,#1122);
#1120 = CARTESIAN_POINT('',(-4.914213562373,-22.00005,-3.99995));
#1121 = DIRECTION('',(0.,-0.707106781187,0.707106781187));
#1122 = DIRECTION('',(1.,0.,0.));
#1123 = ORIENTED_EDGE('',*,*,#1079,.T.);
#1124 = ORIENTED_EDGE('',*,*,#448,.F.);
#1125 = ORIENTED_EDGE('',*,*,#1103,.F.);
#1126 = CYLINDRICAL_SURFACE('',#1127,1.);
#1127 = AXIS2_PLACEMENT_3D('',#1128,#1129,#1130);
#1128 = CARTESIAN_POINT('',(-4.914213562373,-22.00005,-3.99995));
#1129 = DIRECTION('',(0.,-0.707106781187,0.707106781187));
#1130 = DIRECTION('',(1.,0.,0.));
#1131 = ADVANCED_FACE('',(#1132),#1144,.T.);
#1132 = FACE_BOUND('',#1133,.T.);
#1133 = EDGE_LOOP('',(#1134,#1135,#1136,#1142,#1143));
#1134 = ORIENTED_EDGE('',*,*,#629,.T.);
#1135 = ORIENTED_EDGE('',*,*,#840,.T.);
#1136 = ORIENTED_EDGE('',*,*,#1137,.T.);
#1137 = EDGE_CURVE('',#833,#946,#1138,.T.);
#1138 = LINE('',#1139,#1140);
#1139 = CARTESIAN_POINT('',(-30.,18.,-6.2));
#1140 = VECTOR('',#1141,1.);
#1141 = DIRECTION('',(0.,-1.,0.));
#1142 = ORIENTED_EDGE('',*,*,#945,.T.);
#1143 = ORIENTED_EDGE('',*,*,#1020,.T.);
#1144 = PLANE('',#1145);
#1145 = AXIS2_PLACEMENT_3D('',#1146,#1147,#1148);
#1146 = CARTESIAN_POINT('',(-4.,0.,-6.2));
#1147 = DIRECTION('',(0.,0.,1.));
#1148 = DIRECTION('',(1.,0.,0.));
#1149 = ADVANCED_FACE('',(#1150),#1161,.T.);
#1150 = FACE_BOUND('',#1151,.T.);
#1151 = EDGE_LOOP('',(#1152,#1153,#1159,#1160));
#1152 = ORIENTED_EDGE('',*,*,#732,.T.);
#1153 = ORIENTED_EDGE('',*,*,#1154,.T.);
#1154 = EDGE_CURVE('',#725,#1004,#1155,.T.);
#1155 = LINE('',#1156,#1157);
#1156 = CARTESIAN_POINT('',(-26.82842712474,-20.0001,-2.));
#1157 = VECTOR('',#1158,1.);
#1158 = DIRECTION('',(1.,0.,0.));
#1159 = ORIENTED_EDGE('',*,*,#1003,.T.);
#1160 = ORIENTED_EDGE('',*,*,#758,.F.);
#1161 = PLANE('',#1162);
#1162 = AXIS2_PLACEMENT_3D('',#1163,#1164,#1165);
#1163 = CARTESIAN_POINT('',(-12.91421356237,2.274629538991E-15,-2.));
#1164 = DIRECTION('',(0.,0.,1.));
#1165 = DIRECTION('',(1.,0.,0.));
#1166 = ADVANCED_FACE('',(#1167,#1173),#1179,.F.);
#1167 = FACE_BOUND('',#1168,.F.);
#1168 = EDGE_LOOP('',(#1169,#1170,#1171,#1172));
#1169 = ORIENTED_EDGE('',*,*,#724,.F.);
#1170 = ORIENTED_EDGE('',*,*,#1154,.T.);
#1171 = ORIENTED_EDGE('',*,*,#1011,.T.);
#1172 = ORIENTED_EDGE('',*,*,#980,.F.);
#1173 = FACE_BOUND('',#1174,.F.);
#1174 = EDGE_LOOP('',(#1175,#1176,#1177,#1178));
#1175 = ORIENTED_EDGE('',*,*,#1093,.F.);
#1176 = ORIENTED_EDGE('',*,*,#1037,.T.);
#1177 = ORIENTED_EDGE('',*,*,#1069,.T.);
#1178 = ORIENTED_EDGE('',*,*,#1117,.T.);
#1179 = PLANE('',#1180);
#1180 = AXIS2_PLACEMENT_3D('',#1181,#1182,#1183);
#1181 = CARTESIAN_POINT('',(-26.82842712474,-22.00005,-3.99995));
#1182 = DIRECTION('',(0.,0.707106781187,-0.707106781187));
#1183 = DIRECTION('',(1.,0.,0.));
#1184 = ADVANCED_FACE('',(#1185),#1196,.F.);
#1185 = FACE_BOUND('',#1186,.F.);
#1186 = EDGE_LOOP('',(#1187,#1188,#1189,#1190));
#1187 = ORIENTED_EDGE('',*,*,#832,.T.);
#1188 = ORIENTED_EDGE('',*,*,#1137,.T.);
#1189 = ORIENTED_EDGE('',*,*,#953,.F.);
#1190 = ORIENTED_EDGE('',*,*,#1191,.F.);
#1191 = EDGE_CURVE('',#825,#907,#1192,.T.);
#1192 = LINE('',#1193,#1194);
#1193 = CARTESIAN_POINT('',(-30.,18.,0.));
#1194 = VECTOR('',#1195,1.);
#1195 = DIRECTION('',(0.,-1.,0.));
#1196 = PLANE('',#1197);
#1197 = AXIS2_PLACEMENT_3D('',#1198,#1199,#1200);
#1198 = CARTESIAN_POINT('',(-30.,18.,0.));
#1199 = DIRECTION('',(-1.,0.,0.));
#1200 = DIRECTION('',(0.,-1.,0.));
#1201 = ADVANCED_FACE('',(#1202),#1208,.T.);
#1202 = FACE_BOUND('',#1203,.T.);
#1203 = EDGE_LOOP('',(#1204,#1205,#1206,#1207));
#1204 = ORIENTED_EDGE('',*,*,#1191,.F.);
#1205 = ORIENTED_EDGE('',*,*,#866,.T.);
#1206 = ORIENTED_EDGE('',*,*,#890,.T.);
#1207 = ORIENTED_EDGE('',*,*,#914,.T.);
#1208 = PLANE('',#1209);
#1209 = AXIS2_PLACEMENT_3D('',#1210,#1211,#1212);
#1210 = CARTESIAN_POINT('',(-9.455074766691,0.990288773071,0.));
#1211 = DIRECTION('',(0.,0.,1.));
#1212 = DIRECTION('',(1.,0.,0.));
#1213 = ( GEOMETRIC_REPRESENTATION_CONTEXT(3) 
GLOBAL_UNCERTAINTY_ASSIGNED_CONTEXT((#1217)) 
GLOBAL_UNIT_ASSIGNED_CONTEXT((#1214,#1215,#1216)) REPRESENTATION_CONTEXT
('Context #1','3D Context with UNIT and UNCERTAINTY') );
#1214 = ( LENGTH_UNIT() NAMED_UNIT(*) SI_UNIT(.MILLI.,.METRE.) );
#1215 = ( NAMED_UNIT(*) PLANE_ANGLE_UNIT() SI_UNIT($,.RADIAN.) );
#1216 = ( NAMED_UNIT(*) SI_UNIT($,.STERADIAN.) SOLID_ANGLE_UNIT() );
#1217 = UNCERTAINTY_MEASURE_WITH_UNIT(LENGTH_MEASURE(2.E-04),#1214,
  'distance_accuracy_value','confusion accuracy');
#1218 = PRODUCT_RELATED_PRODUCT_CATEGORY('part',$,(#7));
#1219 = MECHANICAL_DESIGN_GEOMETRIC_PRESENTATION_REPRESENTATION('',(
    #1220),#1213);
#1220 = STYLED_ITEM('color',(#1221),#15);
#1221 = PRESENTATION_STYLE_ASSIGNMENT((#1222,#1228));
#1222 = SURFACE_STYLE_USAGE(.BOTH.,#1223);
#1223 = SURFACE_SIDE_STYLE('',(#1224));
#1224 = SURFACE_STYLE_FILL_AREA(#1225);
#1225 = FILL_AREA_STYLE('',(#1226));
#1226 = FILL_AREA_STYLE_COLOUR('',#1227);
#1227 = COLOUR_RGB('',0.447058818107,0.474509808674,0.501960817233);
#1228 = CURVE_STYLE('',#1229,POSITIVE_LENGTH_MEASURE(0.1),#1230);
#1229 = DRAUGHTING_PRE_DEFINED_CURVE_FONT('continuous');
#1230 = COLOUR_RGB('',9.803921802644E-02,9.803921802644E-02,
  9.803921802644E-02);
ENDSEC;
END-ISO-10303-21;
